<?xml version="1.0" encoding="UTF-8"?>
<!DOCTYPE xmeml>
<xmeml version="5">
<sequence id="408-13 ">
	<uuid>9BC289F0-8ECA-4815-9DAA-9405DEEF7E3B</uuid>
	<updatebehavior>add</updatebehavior>
	<name>408-13</name>
	<duration>3040</duration>
	<rate>
		<ntsc>FALSE</ntsc>
		<timebase>25</timebase>
	</rate>
	<timecode>
		<rate>
			<ntsc>FALSE</ntsc>
			<timebase>25</timebase>
		</rate>
		<string>01:00:00:00</string>
		<frame>90000</frame>
		<source>source</source>
		<displayformat>NDF</displayformat>
	</timecode>
	<in>-1</in>
	<out>-1</out>
	<media>
		<video>
			<format>
				<samplecharacteristics>
					<width>1920</width>
					<height>1080</height>
					<anamorphic>FALSE</anamorphic>
					<pixelaspectratio>Square</pixelaspectratio>
					<fielddominance>none</fielddominance>
					<rate>
						<ntsc>FALSE</ntsc>
						<timebase>25</timebase>
					</rate>
					<colordepth>24</colordepth>
					<codec>
						<name>Apple ProRes 422 (Proxy)</name>
						<appspecificdata>
							<appname>Final Cut Pro</appname>
							<appmanufacturer>Apple Inc.</appmanufacturer>
							<appversion>7.0</appversion>
							<data>
								<qtcodec>
									<codecname>Apple ProRes 422 (Proxy)</codecname>
									<codectypename>Apple ProRes 422 (Proxy)</codectypename>
									<codectypecode>apco</codectypecode>
									<codecvendorcode>appl</codecvendorcode>
									<spatialquality>1024</spatialquality>
									<temporalquality>0</temporalquality>
									<keyframerate>0</keyframerate>
									<datarate>0</datarate>
								</qtcodec>
							</data>
						</appspecificdata>
					</codec>
				</samplecharacteristics>
				<appspecificdata>
					<appname>Final Cut Pro</appname>
					<appmanufacturer>Apple Inc.</appmanufacturer>
					<appversion>7.0</appversion>
					<data>
						<fcpimageprocessing>
							<useyuv>TRUE</useyuv>
							<usesuperwhite>FALSE</usesuperwhite>
							<rendermode>YUV8BPP</rendermode>
						</fcpimageprocessing>
					</data>
				</appspecificdata>
			</format>
			<track>
				<clipitem id="408-13_BMW_logo">
					<name>408-13_BMW_logo</name>
					<duration>201</duration>
					<rate>
						<ntsc>FALSE</ntsc>
						<timebase>25</timebase>
					</rate>
					<in>0</in>
					<out>59</out>
					<start>0</start>
					<end>59</end>
					<pixelaspectratio>Square</pixelaspectratio>
					<enabled>TRUE</enabled>
					<anamorphic>FALSE</anamorphic>
					<alphatype>none</alphatype>
					<masterclipid>408-13_BMW_logo1</masterclipid>
					<syncoffset>0</syncoffset>
					<logginginfo>
						<scene/>
						<shottake/>
						<lognote/>
						<good>FALSE</good>
					</logginginfo>
					<labels>
						<label2/>
					</labels>
					<comments>
						<mastercomment1/>
						<mastercomment2/>
						<mastercomment3/>
						<mastercomment4/>
					</comments>
					<file id="A011_C030_0204CB">
						<name>A011_C030_0204CB.mov</name>
						<pathurl>file://localhost/Volumes/Xsan2/408_Masha_v_shkure_Zvonorya/PROXY/A011_C030_0204CB.mov</pathurl>
						<rate>
							<timebase>25</timebase>
						</rate>
						<duration>201</duration>
						<timecode>
							<rate>
								<timebase>25</timebase>
							</rate>
							<string>00:46:18:22</string>
							<frame>69472</frame>
							<displayformat>NDF</displayformat>
							<source>source</source>
							<reel>
								<name>A011_C030_0204CB</name>
							</reel>
						</timecode>
						<media>
							<video>
								<duration>201</duration>
								<samplecharacteristics>
									<width>1920</width>
									<height>1080</height>
								</samplecharacteristics>
							</video>
						</media>
					</file>
					<sourcetrack>
						<mediatype>video</mediatype>
					</sourcetrack>
					<fielddominance>none</fielddominance>
					<itemhistory>
						<uuid>79DB9F0E-5BDC-42B6-8DA7-790F0AE70B33</uuid>
					</itemhistory>
				</clipitem>
				<clipitem id="408-13-01-03A">
					<name>408-13-01-03A</name>
					<duration>3700</duration>
					<rate>
						<ntsc>FALSE</ntsc>
						<timebase>25</timebase>
					</rate>
					<in>485</in>
					<out>630</out>
					<start>59</start>
					<end>204</end>
					<pixelaspectratio>Square</pixelaspectratio>
					<enabled>TRUE</enabled>
					<anamorphic>FALSE</anamorphic>
					<alphatype>none</alphatype>
					<masterclipid>408-13-01-03A1</masterclipid>
					<syncoffset>0</syncoffset>
					<logginginfo>
						<scene/>
						<shottake/>
						<lognote/>
						<good>FALSE</good>
					</logginginfo>
					<labels>
						<label2/>
					</labels>
					<comments>
						<mastercomment1/>
						<mastercomment2/>
						<mastercomment3/>
						<mastercomment4/>
					</comments>
					<file id="A011_C020_0204CQ">
						<name>A011_C020_0204CQ.mov</name>
						<pathurl>file://localhost/Volumes/Xsan2/408_Masha_v_shkure_Zvonorya/PROXY/A011_C020_0204CQ.mov</pathurl>
						<rate>
							<timebase>25</timebase>
						</rate>
						<duration>3491</duration>
						<timecode>
							<rate>
								<timebase>25</timebase>
							</rate>
							<string>00:02:20:04</string>
							<frame>3504</frame>
							<displayformat>NDF</displayformat>
							<source>source</source>
							<reel>
								<name>A011_C020_0204CQ</name>
							</reel>
						</timecode>
						<media>
							<video>
								<duration>3491</duration>
								<samplecharacteristics>
									<width>1920</width>
									<height>1080</height>
								</samplecharacteristics>
							</video>
							<audio>
								<samplecharacteristics>
									<samplerate>48000</samplerate>
									<depth>24</depth>
								</samplecharacteristics>
								<channelcount>2</channelcount>
							</audio>
						</media>
					</file>
					<sourcetrack>
						<mediatype>video</mediatype>
					</sourcetrack>
					<link>
						<linkclipref>408-13-01-03A</linkclipref>
						<mediatype>video</mediatype>
						<trackindex>1</trackindex>
						<clipindex>2</clipindex>
					</link>
					<link>
						<linkclipref>408-13-01-03A2</linkclipref>
						<mediatype>audio</mediatype>
						<trackindex>1</trackindex>
						<clipindex>1</clipindex>
					</link>
					<link>
						<linkclipref>408-13-01-03A3</linkclipref>
						<mediatype>audio</mediatype>
						<trackindex>2</trackindex>
						<clipindex>1</clipindex>
					</link>
					<link>
						<linkclipref>408-13-01-03A4</linkclipref>
						<mediatype>audio</mediatype>
						<trackindex>3</trackindex>
						<clipindex>1</clipindex>
					</link>
					<link>
						<linkclipref>408-13-01-03A5</linkclipref>
						<mediatype>audio</mediatype>
						<trackindex>4</trackindex>
						<clipindex>1</clipindex>
					</link>
					<link>
						<linkclipref>408-13-01-03A6</linkclipref>
						<mediatype>audio</mediatype>
						<trackindex>5</trackindex>
						<clipindex>1</clipindex>
					</link>
					<link>
						<linkclipref>408-13-01-03A7</linkclipref>
						<mediatype>audio</mediatype>
						<trackindex>6</trackindex>
						<clipindex>1</clipindex>
					</link>
					<fielddominance>none</fielddominance>
					<multiclip id="">
						<collapsed>FALSE</collapsed>
						<synctype>1</synctype>
						<angle>
							<activevideoangle>TRUE</activevideoangle>
							<activeaudioangle>TRUE</activeaudioangle>
							<clip id="408-13-01-03A8">
								<uuid>12CF905D-F236-43C1-AEE7-AA7233291875</uuid>
								<updatebehavior>add</updatebehavior>
								<name>408-13-01-03A</name>
								<duration>3700</duration>
								<rate>
									<ntsc>FALSE</ntsc>
									<timebase>25</timebase>
								</rate>
								<in>0</in>
								<out>3594</out>
								<anamorphic>FALSE</anamorphic>
								<ismasterclip>FALSE</ismasterclip>
								<logginginfo>
									<scene/>
									<shottake/>
									<lognote/>
									<good>FALSE</good>
								</logginginfo>
								<labels>
									<label2/>
								</labels>
								<comments>
									<mastercomment1/>
									<mastercomment2/>
									<mastercomment3/>
									<mastercomment4/>
								</comments>
								<media>
									<video>
										<format>
											<samplecharacteristics>
												<width>1920</width>
												<height>1080</height>
												<anamorphic>FALSE</anamorphic>
												<pixelaspectratio>Square</pixelaspectratio>
												<fielddominance>none</fielddominance>
												<rate>
													<ntsc>FALSE</ntsc>
													<timebase>25</timebase>
												</rate>
												<colordepth>24</colordepth>
												<codec>
													<name>Apple ProRes 422 (Proxy)</name>
													<appspecificdata>
														<appname>Final Cut Pro</appname>
														<appmanufacturer>Apple Inc.</appmanufacturer>
														<appversion>7.0</appversion>
														<data>
															<qtcodec>
																<codecname>Apple ProRes 422 (Proxy)</codecname>
																<codectypename>Apple ProRes 422 (Proxy)</codectypename>
																<codectypecode>apco</codectypecode>
																<codecvendorcode>appl</codecvendorcode>
																<spatialquality>1024</spatialquality>
																<temporalquality>0</temporalquality>
																<keyframerate>0</keyframerate>
																<datarate>0</datarate>
															</qtcodec>
														</data>
													</appspecificdata>
												</codec>
											</samplecharacteristics>
											<appspecificdata>
												<appname>Final Cut Pro</appname>
												<appmanufacturer>Apple Inc.</appmanufacturer>
												<appversion>7.0</appversion>
												<data>
													<fcpimageprocessing>
														<useyuv>TRUE</useyuv>
														<usesuperwhite>FALSE</usesuperwhite>
														<rendermode>YUV8BPP</rendermode>
													</fcpimageprocessing>
												</data>
											</appspecificdata>
										</format>
										<track>
											<clipitem id="408-13-01-03A9">
												<name>408-13-01-03A</name>
												<duration>3700</duration>
												<rate>
													<ntsc>FALSE</ntsc>
													<timebase>25</timebase>
												</rate>
												<in>0</in>
												<out>3700</out>
												<start>0</start>
												<end>3700</end>
												<pixelaspectratio>Square</pixelaspectratio>
												<enabled>TRUE</enabled>
												<anamorphic>FALSE</anamorphic>
												<alphatype>none</alphatype>
												<masterclipid>408-13-01-03A1</masterclipid>
												<syncoffset>0</syncoffset>
												<logginginfo>
													<scene/>
													<shottake/>
													<lognote/>
													<good>FALSE</good>
												</logginginfo>
												<labels>
													<label2/>
												</labels>
												<comments>
													<mastercomment1/>
													<mastercomment2/>
													<mastercomment3/>
													<mastercomment4/>
												</comments>
												<file id="A011_C020_0204CQ"/>
												<sourcetrack>
													<mediatype>video</mediatype>
												</sourcetrack>
												<link>
													<linkclipref>408-13-01-03A9</linkclipref>
													<mediatype>video</mediatype>
													<trackindex>1</trackindex>
													<clipindex>1</clipindex>
												</link>
												<link>
													<linkclipref>408-13-01-03A10</linkclipref>
													<mediatype>audio</mediatype>
													<trackindex>1</trackindex>
													<clipindex>1</clipindex>
												</link>
												<link>
													<linkclipref>408-13-01-03A11</linkclipref>
													<mediatype>audio</mediatype>
													<trackindex>2</trackindex>
													<clipindex>1</clipindex>
												</link>
												<link>
													<linkclipref>408-13-01-03A12</linkclipref>
													<mediatype>audio</mediatype>
													<trackindex>3</trackindex>
													<clipindex>1</clipindex>
												</link>
												<link>
													<linkclipref>408-13-01-03A13</linkclipref>
													<mediatype>audio</mediatype>
													<trackindex>4</trackindex>
													<clipindex>1</clipindex>
												</link>
												<link>
													<linkclipref>408-13-01-03A14</linkclipref>
													<mediatype>audio</mediatype>
													<trackindex>5</trackindex>
													<clipindex>1</clipindex>
												</link>
												<link>
													<linkclipref>408-13-01-03A15</linkclipref>
													<mediatype>audio</mediatype>
													<trackindex>6</trackindex>
													<clipindex>1</clipindex>
												</link>
												<fielddominance>none</fielddominance>
												<mediadelay>103</mediadelay>
												<itemhistory>
													<uuid>1F067E69-E412-40E1-9AF3-62D3646082D1</uuid>
												</itemhistory>
											</clipitem>
											<enabled>TRUE</enabled>
											<locked>FALSE</locked>
										</track>
									</video>
									<audio>
										<format>
											<samplecharacteristics>
												<depth>16</depth>
												<samplerate>48000</samplerate>
											</samplecharacteristics>
										</format>
										<outputs>
											<group>
												<index>1</index>
												<numchannels>2</numchannels>
												<downmix>0</downmix>
												<channel>
													<index>1</index>
												</channel>
												<channel>
													<index>2</index>
												</channel>
											</group>
										</outputs>
										<outputs>
											<group>
												<index>1</index>
												<numchannels>2</numchannels>
												<downmix>0</downmix>
												<channel>
													<index>1</index>
												</channel>
												<channel>
													<index>2</index>
												</channel>
											</group>
										</outputs>
										<in>0</in>
										<out>3594</out>
										<track>
											<clipitem id="408-13-01-03A10">
												<name>408-13-01-03A</name>
												<duration>3700</duration>
												<rate>
													<ntsc>FALSE</ntsc>
													<timebase>25</timebase>
												</rate>
												<in>0</in>
												<out>3700</out>
												<start>0</start>
												<end>3700</end>
												<enabled>TRUE</enabled>
												<anamorphic>FALSE</anamorphic>
												<masterclipid>408-13-01-03A1</masterclipid>
												<syncoffset>0</syncoffset>
												<logginginfo>
													<scene/>
													<shottake/>
													<lognote/>
													<good>FALSE</good>
												</logginginfo>
												<labels>
													<label2/>
												</labels>
												<comments>
													<mastercomment1/>
													<mastercomment2/>
													<mastercomment3/>
													<mastercomment4/>
												</comments>
												<file id="MW-013-1T03 ">
													<name>MW-013-1T03.WAV</name>
													<pathurl>file://localhost/Volumes/Xsan2/408_Masha_v_shkure_Zvonorya/SOUND/14Y02M04/MW-013-1T03.WAV</pathurl>
													<rate>
														<timebase>25</timebase>
													</rate>
													<duration>3700</duration>
													<timecode>
														<rate>
															<timebase>25</timebase>
														</rate>
														<string>00:02:16:00</string>
														<frame>3400</frame>
														<displayformat>NDF</displayformat>
														<source>source</source>
														<reel>
															<name>14Y02M04</name>
														</reel>
													</timecode>
													<media>
														<audio>
															<samplecharacteristics>
																<samplerate>48000</samplerate>
																<depth>24</depth>
															</samplecharacteristics>
															<channelcount>6</channelcount>
														</audio>
													</media>
												</file>
												<filter>
													<effect>
														<name>Audio Levels</name>
														<effectid>audiolevels</effectid>
														<effectcategory>audiolevels</effectcategory>
														<effecttype>audiolevels</effecttype>
														<mediatype>audio</mediatype>
														<parameter>
															<name>Level</name>
															<parameterid>level</parameterid>
															<valuemin>0</valuemin>
															<valuemax>3.98109</valuemax>
															<value>1</value>
														</parameter>
													</effect>
												</filter>
												<filter>
													<effect>
														<name>Audio Pan</name>
														<effectid>audiopan</effectid>
														<effectcategory>audiopan</effectcategory>
														<effecttype>audiopan</effecttype>
														<mediatype>audio</mediatype>
														<parameter>
															<name>Pan</name>
															<parameterid>pan</parameterid>
															<valuemin>-1</valuemin>
															<valuemax>1</valuemax>
															<value>0</value>
														</parameter>
													</effect>
												</filter>
												<sourcetrack>
													<mediatype>audio</mediatype>
													<trackindex>1</trackindex>
												</sourcetrack>
												<link>
													<linkclipref>408-13-01-03A9</linkclipref>
													<mediatype>video</mediatype>
													<trackindex>1</trackindex>
													<clipindex>1</clipindex>
												</link>
												<link>
													<linkclipref>408-13-01-03A10</linkclipref>
													<mediatype>audio</mediatype>
													<trackindex>1</trackindex>
													<clipindex>1</clipindex>
												</link>
												<link>
													<linkclipref>408-13-01-03A11</linkclipref>
													<mediatype>audio</mediatype>
													<trackindex>2</trackindex>
													<clipindex>1</clipindex>
												</link>
												<link>
													<linkclipref>408-13-01-03A12</linkclipref>
													<mediatype>audio</mediatype>
													<trackindex>3</trackindex>
													<clipindex>1</clipindex>
												</link>
												<link>
													<linkclipref>408-13-01-03A13</linkclipref>
													<mediatype>audio</mediatype>
													<trackindex>4</trackindex>
													<clipindex>1</clipindex>
												</link>
												<link>
													<linkclipref>408-13-01-03A14</linkclipref>
													<mediatype>audio</mediatype>
													<trackindex>5</trackindex>
													<clipindex>1</clipindex>
												</link>
												<link>
													<linkclipref>408-13-01-03A15</linkclipref>
													<mediatype>audio</mediatype>
													<trackindex>6</trackindex>
													<clipindex>1</clipindex>
												</link>
												<itemhistory>
													<uuid>3C898C8E-DDCC-4B67-8D54-8A7A69277DF9</uuid>
												</itemhistory>
											</clipitem>
											<enabled>TRUE</enabled>
											<locked>FALSE</locked>
											<outputchannelindex>1</outputchannelindex>
										</track>
										<track>
											<clipitem id="408-13-01-03A11">
												<name>408-13-01-03A</name>
												<duration>3700</duration>
												<rate>
													<ntsc>FALSE</ntsc>
													<timebase>25</timebase>
												</rate>
												<in>0</in>
												<out>3700</out>
												<start>0</start>
												<end>3700</end>
												<enabled>TRUE</enabled>
												<anamorphic>FALSE</anamorphic>
												<masterclipid>408-13-01-03A1</masterclipid>
												<syncoffset>0</syncoffset>
												<logginginfo>
													<scene/>
													<shottake/>
													<lognote/>
													<good>FALSE</good>
												</logginginfo>
												<labels>
													<label2/>
												</labels>
												<comments>
													<mastercomment1/>
													<mastercomment2/>
													<mastercomment3/>
													<mastercomment4/>
												</comments>
												<file id="MW-013-1T03 "/>
												<filter>
													<effect>
														<name>Audio Levels</name>
														<effectid>audiolevels</effectid>
														<effectcategory>audiolevels</effectcategory>
														<effecttype>audiolevels</effecttype>
														<mediatype>audio</mediatype>
														<parameter>
															<name>Level</name>
															<parameterid>level</parameterid>
															<valuemin>0</valuemin>
															<valuemax>3.98109</valuemax>
															<value>1</value>
														</parameter>
													</effect>
												</filter>
												<filter>
													<effect>
														<name>Audio Pan</name>
														<effectid>audiopan</effectid>
														<effectcategory>audiopan</effectcategory>
														<effecttype>audiopan</effecttype>
														<mediatype>audio</mediatype>
														<parameter>
															<name>Pan</name>
															<parameterid>pan</parameterid>
															<valuemin>-1</valuemin>
															<valuemax>1</valuemax>
															<value>0</value>
														</parameter>
													</effect>
												</filter>
												<sourcetrack>
													<mediatype>audio</mediatype>
													<trackindex>2</trackindex>
												</sourcetrack>
												<link>
													<linkclipref>408-13-01-03A9</linkclipref>
													<mediatype>video</mediatype>
													<trackindex>1</trackindex>
													<clipindex>1</clipindex>
												</link>
												<link>
													<linkclipref>408-13-01-03A10</linkclipref>
													<mediatype>audio</mediatype>
													<trackindex>1</trackindex>
													<clipindex>1</clipindex>
												</link>
												<link>
													<linkclipref>408-13-01-03A11</linkclipref>
													<mediatype>audio</mediatype>
													<trackindex>2</trackindex>
													<clipindex>1</clipindex>
												</link>
												<link>
													<linkclipref>408-13-01-03A12</linkclipref>
													<mediatype>audio</mediatype>
													<trackindex>3</trackindex>
													<clipindex>1</clipindex>
												</link>
												<link>
													<linkclipref>408-13-01-03A13</linkclipref>
													<mediatype>audio</mediatype>
													<trackindex>4</trackindex>
													<clipindex>1</clipindex>
												</link>
												<link>
													<linkclipref>408-13-01-03A14</linkclipref>
													<mediatype>audio</mediatype>
													<trackindex>5</trackindex>
													<clipindex>1</clipindex>
												</link>
												<link>
													<linkclipref>408-13-01-03A15</linkclipref>
													<mediatype>audio</mediatype>
													<trackindex>6</trackindex>
													<clipindex>1</clipindex>
												</link>
												<itemhistory>
													<uuid>1ED33B63-4069-4BD3-BCCA-72251F34FD20</uuid>
												</itemhistory>
											</clipitem>
											<enabled>TRUE</enabled>
											<locked>FALSE</locked>
											<outputchannelindex>2</outputchannelindex>
										</track>
										<track>
											<clipitem id="408-13-01-03A12">
												<name>408-13-01-03A</name>
												<duration>3700</duration>
												<rate>
													<ntsc>FALSE</ntsc>
													<timebase>25</timebase>
												</rate>
												<in>0</in>
												<out>3700</out>
												<start>0</start>
												<end>3700</end>
												<enabled>TRUE</enabled>
												<anamorphic>FALSE</anamorphic>
												<masterclipid>408-13-01-03A1</masterclipid>
												<syncoffset>0</syncoffset>
												<logginginfo>
													<scene/>
													<shottake/>
													<lognote/>
													<good>FALSE</good>
												</logginginfo>
												<labels>
													<label2/>
												</labels>
												<comments>
													<mastercomment1/>
													<mastercomment2/>
													<mastercomment3/>
													<mastercomment4/>
												</comments>
												<file id="MW-013-1T03 "/>
												<filter>
													<effect>
														<name>Audio Levels</name>
														<effectid>audiolevels</effectid>
														<effectcategory>audiolevels</effectcategory>
														<effecttype>audiolevels</effecttype>
														<mediatype>audio</mediatype>
														<parameter>
															<name>Level</name>
															<parameterid>level</parameterid>
															<valuemin>0</valuemin>
															<valuemax>3.98109</valuemax>
															<value>1</value>
														</parameter>
													</effect>
												</filter>
												<filter>
													<effect>
														<name>Audio Pan</name>
														<effectid>audiopan</effectid>
														<effectcategory>audiopan</effectcategory>
														<effecttype>audiopan</effecttype>
														<mediatype>audio</mediatype>
														<parameter>
															<name>Pan</name>
															<parameterid>pan</parameterid>
															<valuemin>-1</valuemin>
															<valuemax>1</valuemax>
															<value>0</value>
														</parameter>
													</effect>
												</filter>
												<sourcetrack>
													<mediatype>audio</mediatype>
													<trackindex>3</trackindex>
												</sourcetrack>
												<link>
													<linkclipref>408-13-01-03A9</linkclipref>
													<mediatype>video</mediatype>
													<trackindex>1</trackindex>
													<clipindex>1</clipindex>
												</link>
												<link>
													<linkclipref>408-13-01-03A10</linkclipref>
													<mediatype>audio</mediatype>
													<trackindex>1</trackindex>
													<clipindex>1</clipindex>
												</link>
												<link>
													<linkclipref>408-13-01-03A11</linkclipref>
													<mediatype>audio</mediatype>
													<trackindex>2</trackindex>
													<clipindex>1</clipindex>
												</link>
												<link>
													<linkclipref>408-13-01-03A12</linkclipref>
													<mediatype>audio</mediatype>
													<trackindex>3</trackindex>
													<clipindex>1</clipindex>
												</link>
												<link>
													<linkclipref>408-13-01-03A13</linkclipref>
													<mediatype>audio</mediatype>
													<trackindex>4</trackindex>
													<clipindex>1</clipindex>
												</link>
												<link>
													<linkclipref>408-13-01-03A14</linkclipref>
													<mediatype>audio</mediatype>
													<trackindex>5</trackindex>
													<clipindex>1</clipindex>
												</link>
												<link>
													<linkclipref>408-13-01-03A15</linkclipref>
													<mediatype>audio</mediatype>
													<trackindex>6</trackindex>
													<clipindex>1</clipindex>
												</link>
												<itemhistory>
													<uuid>60AA2654-6164-4BA4-815D-37937A36A990</uuid>
												</itemhistory>
											</clipitem>
											<enabled>TRUE</enabled>
											<locked>FALSE</locked>
											<outputchannelindex>1</outputchannelindex>
										</track>
										<track>
											<clipitem id="408-13-01-03A13">
												<name>408-13-01-03A</name>
												<duration>3700</duration>
												<rate>
													<ntsc>FALSE</ntsc>
													<timebase>25</timebase>
												</rate>
												<in>0</in>
												<out>3700</out>
												<start>0</start>
												<end>3700</end>
												<enabled>TRUE</enabled>
												<anamorphic>FALSE</anamorphic>
												<masterclipid>408-13-01-03A1</masterclipid>
												<syncoffset>0</syncoffset>
												<logginginfo>
													<scene/>
													<shottake/>
													<lognote/>
													<good>FALSE</good>
												</logginginfo>
												<labels>
													<label2/>
												</labels>
												<comments>
													<mastercomment1/>
													<mastercomment2/>
													<mastercomment3/>
													<mastercomment4/>
												</comments>
												<file id="MW-013-1T03 "/>
												<filter>
													<effect>
														<name>Audio Levels</name>
														<effectid>audiolevels</effectid>
														<effectcategory>audiolevels</effectcategory>
														<effecttype>audiolevels</effecttype>
														<mediatype>audio</mediatype>
														<parameter>
															<name>Level</name>
															<parameterid>level</parameterid>
															<valuemin>0</valuemin>
															<valuemax>3.98109</valuemax>
															<value>1</value>
														</parameter>
													</effect>
												</filter>
												<filter>
													<effect>
														<name>Audio Pan</name>
														<effectid>audiopan</effectid>
														<effectcategory>audiopan</effectcategory>
														<effecttype>audiopan</effecttype>
														<mediatype>audio</mediatype>
														<parameter>
															<name>Pan</name>
															<parameterid>pan</parameterid>
															<valuemin>-1</valuemin>
															<valuemax>1</valuemax>
															<value>0</value>
														</parameter>
													</effect>
												</filter>
												<sourcetrack>
													<mediatype>audio</mediatype>
													<trackindex>4</trackindex>
												</sourcetrack>
												<link>
													<linkclipref>408-13-01-03A9</linkclipref>
													<mediatype>video</mediatype>
													<trackindex>1</trackindex>
													<clipindex>1</clipindex>
												</link>
												<link>
													<linkclipref>408-13-01-03A10</linkclipref>
													<mediatype>audio</mediatype>
													<trackindex>1</trackindex>
													<clipindex>1</clipindex>
												</link>
												<link>
													<linkclipref>408-13-01-03A11</linkclipref>
													<mediatype>audio</mediatype>
													<trackindex>2</trackindex>
													<clipindex>1</clipindex>
												</link>
												<link>
													<linkclipref>408-13-01-03A12</linkclipref>
													<mediatype>audio</mediatype>
													<trackindex>3</trackindex>
													<clipindex>1</clipindex>
												</link>
												<link>
													<linkclipref>408-13-01-03A13</linkclipref>
													<mediatype>audio</mediatype>
													<trackindex>4</trackindex>
													<clipindex>1</clipindex>
												</link>
												<link>
													<linkclipref>408-13-01-03A14</linkclipref>
													<mediatype>audio</mediatype>
													<trackindex>5</trackindex>
													<clipindex>1</clipindex>
												</link>
												<link>
													<linkclipref>408-13-01-03A15</linkclipref>
													<mediatype>audio</mediatype>
													<trackindex>6</trackindex>
													<clipindex>1</clipindex>
												</link>
												<itemhistory>
													<uuid>DE674C8D-6799-4D73-8D39-A3AF896532E7</uuid>
												</itemhistory>
											</clipitem>
											<enabled>TRUE</enabled>
											<locked>FALSE</locked>
											<outputchannelindex>2</outputchannelindex>
										</track>
										<track>
											<clipitem id="408-13-01-03A14">
												<name>408-13-01-03A</name>
												<duration>3700</duration>
												<rate>
													<ntsc>FALSE</ntsc>
													<timebase>25</timebase>
												</rate>
												<in>0</in>
												<out>3700</out>
												<start>0</start>
												<end>3700</end>
												<enabled>TRUE</enabled>
												<anamorphic>FALSE</anamorphic>
												<masterclipid>408-13-01-03A1</masterclipid>
												<syncoffset>0</syncoffset>
												<logginginfo>
													<scene/>
													<shottake/>
													<lognote/>
													<good>FALSE</good>
												</logginginfo>
												<labels>
													<label2/>
												</labels>
												<comments>
													<mastercomment1/>
													<mastercomment2/>
													<mastercomment3/>
													<mastercomment4/>
												</comments>
												<file id="MW-013-1T03 "/>
												<filter>
													<effect>
														<name>Audio Levels</name>
														<effectid>audiolevels</effectid>
														<effectcategory>audiolevels</effectcategory>
														<effecttype>audiolevels</effecttype>
														<mediatype>audio</mediatype>
														<parameter>
															<name>Level</name>
															<parameterid>level</parameterid>
															<valuemin>0</valuemin>
															<valuemax>3.98109</valuemax>
															<value>1</value>
														</parameter>
													</effect>
												</filter>
												<filter>
													<effect>
														<name>Audio Pan</name>
														<effectid>audiopan</effectid>
														<effectcategory>audiopan</effectcategory>
														<effecttype>audiopan</effecttype>
														<mediatype>audio</mediatype>
														<parameter>
															<name>Pan</name>
															<parameterid>pan</parameterid>
															<valuemin>-1</valuemin>
															<valuemax>1</valuemax>
															<value>0</value>
														</parameter>
													</effect>
												</filter>
												<sourcetrack>
													<mediatype>audio</mediatype>
													<trackindex>5</trackindex>
												</sourcetrack>
												<link>
													<linkclipref>408-13-01-03A9</linkclipref>
													<mediatype>video</mediatype>
													<trackindex>1</trackindex>
													<clipindex>1</clipindex>
												</link>
												<link>
													<linkclipref>408-13-01-03A10</linkclipref>
													<mediatype>audio</mediatype>
													<trackindex>1</trackindex>
													<clipindex>1</clipindex>
												</link>
												<link>
													<linkclipref>408-13-01-03A11</linkclipref>
													<mediatype>audio</mediatype>
													<trackindex>2</trackindex>
													<clipindex>1</clipindex>
												</link>
												<link>
													<linkclipref>408-13-01-03A12</linkclipref>
													<mediatype>audio</mediatype>
													<trackindex>3</trackindex>
													<clipindex>1</clipindex>
												</link>
												<link>
													<linkclipref>408-13-01-03A13</linkclipref>
													<mediatype>audio</mediatype>
													<trackindex>4</trackindex>
													<clipindex>1</clipindex>
												</link>
												<link>
													<linkclipref>408-13-01-03A14</linkclipref>
													<mediatype>audio</mediatype>
													<trackindex>5</trackindex>
													<clipindex>1</clipindex>
												</link>
												<link>
													<linkclipref>408-13-01-03A15</linkclipref>
													<mediatype>audio</mediatype>
													<trackindex>6</trackindex>
													<clipindex>1</clipindex>
												</link>
												<itemhistory>
													<uuid>B3C196D6-A1A3-40E6-A789-11EDEA17A006</uuid>
												</itemhistory>
											</clipitem>
											<enabled>TRUE</enabled>
											<locked>FALSE</locked>
											<outputchannelindex>1</outputchannelindex>
										</track>
										<track>
											<clipitem id="408-13-01-03A15">
												<name>408-13-01-03A</name>
												<duration>3700</duration>
												<rate>
													<ntsc>FALSE</ntsc>
													<timebase>25</timebase>
												</rate>
												<in>0</in>
												<out>3700</out>
												<start>0</start>
												<end>3700</end>
												<enabled>TRUE</enabled>
												<anamorphic>FALSE</anamorphic>
												<masterclipid>408-13-01-03A1</masterclipid>
												<syncoffset>0</syncoffset>
												<logginginfo>
													<scene/>
													<shottake/>
													<lognote/>
													<good>FALSE</good>
												</logginginfo>
												<labels>
													<label2/>
												</labels>
												<comments>
													<mastercomment1/>
													<mastercomment2/>
													<mastercomment3/>
													<mastercomment4/>
												</comments>
												<file id="MW-013-1T03 "/>
												<filter>
													<effect>
														<name>Audio Levels</name>
														<effectid>audiolevels</effectid>
														<effectcategory>audiolevels</effectcategory>
														<effecttype>audiolevels</effecttype>
														<mediatype>audio</mediatype>
														<parameter>
															<name>Level</name>
															<parameterid>level</parameterid>
															<valuemin>0</valuemin>
															<valuemax>3.98109</valuemax>
															<value>1</value>
														</parameter>
													</effect>
												</filter>
												<filter>
													<effect>
														<name>Audio Pan</name>
														<effectid>audiopan</effectid>
														<effectcategory>audiopan</effectcategory>
														<effecttype>audiopan</effecttype>
														<mediatype>audio</mediatype>
														<parameter>
															<name>Pan</name>
															<parameterid>pan</parameterid>
															<valuemin>-1</valuemin>
															<valuemax>1</valuemax>
															<value>0</value>
														</parameter>
													</effect>
												</filter>
												<sourcetrack>
													<mediatype>audio</mediatype>
													<trackindex>6</trackindex>
												</sourcetrack>
												<link>
													<linkclipref>408-13-01-03A9</linkclipref>
													<mediatype>video</mediatype>
													<trackindex>1</trackindex>
													<clipindex>1</clipindex>
												</link>
												<link>
													<linkclipref>408-13-01-03A10</linkclipref>
													<mediatype>audio</mediatype>
													<trackindex>1</trackindex>
													<clipindex>1</clipindex>
												</link>
												<link>
													<linkclipref>408-13-01-03A11</linkclipref>
													<mediatype>audio</mediatype>
													<trackindex>2</trackindex>
													<clipindex>1</clipindex>
												</link>
												<link>
													<linkclipref>408-13-01-03A12</linkclipref>
													<mediatype>audio</mediatype>
													<trackindex>3</trackindex>
													<clipindex>1</clipindex>
												</link>
												<link>
													<linkclipref>408-13-01-03A13</linkclipref>
													<mediatype>audio</mediatype>
													<trackindex>4</trackindex>
													<clipindex>1</clipindex>
												</link>
												<link>
													<linkclipref>408-13-01-03A14</linkclipref>
													<mediatype>audio</mediatype>
													<trackindex>5</trackindex>
													<clipindex>1</clipindex>
												</link>
												<link>
													<linkclipref>408-13-01-03A15</linkclipref>
													<mediatype>audio</mediatype>
													<trackindex>6</trackindex>
													<clipindex>1</clipindex>
												</link>
												<itemhistory>
													<uuid>A977FEE1-1CE3-4259-9283-6884B37055A2</uuid>
												</itemhistory>
											</clipitem>
											<enabled>TRUE</enabled>
											<locked>FALSE</locked>
											<outputchannelindex>2</outputchannelindex>
										</track>
										<filter>
											<effect>
												<name>Audio Levels</name>
												<effectid>audiolevels</effectid>
												<effectcategory>audiolevels</effectcategory>
												<effecttype>audiolevels</effecttype>
												<mediatype>audio</mediatype>
												<parameter>
													<name>Level</name>
													<parameterid>level</parameterid>
													<valuemin>0</valuemin>
													<valuemax>3.98109</valuemax>
													<value>1</value>
												</parameter>
											</effect>
										</filter>
									</audio>
								</media>
							</clip>
						</angle>
						<angle>
							<clip id="408-13-01-03B">
								<uuid>88EE7226-5475-4B7D-98B8-C85712EAA298</uuid>
								<updatebehavior>add</updatebehavior>
								<name>408-13-01-03B</name>
								<duration>3700</duration>
								<rate>
									<ntsc>FALSE</ntsc>
									<timebase>25</timebase>
								</rate>
								<in>0</in>
								<out>3603</out>
								<anamorphic>FALSE</anamorphic>
								<ismasterclip>FALSE</ismasterclip>
								<logginginfo>
									<scene/>
									<shottake/>
									<lognote/>
									<good>FALSE</good>
								</logginginfo>
								<labels>
									<label2/>
								</labels>
								<comments>
									<mastercomment1/>
									<mastercomment2/>
									<mastercomment3/>
									<mastercomment4/>
								</comments>
								<media>
									<video>
										<format>
											<samplecharacteristics>
												<width>1920</width>
												<height>1080</height>
												<anamorphic>FALSE</anamorphic>
												<pixelaspectratio>Square</pixelaspectratio>
												<fielddominance>none</fielddominance>
												<rate>
													<ntsc>FALSE</ntsc>
													<timebase>25</timebase>
												</rate>
												<colordepth>24</colordepth>
												<codec>
													<name>Apple ProRes 422 (Proxy)</name>
													<appspecificdata>
														<appname>Final Cut Pro</appname>
														<appmanufacturer>Apple Inc.</appmanufacturer>
														<appversion>7.0</appversion>
														<data>
															<qtcodec>
																<codecname>Apple ProRes 422 (Proxy)</codecname>
																<codectypename>Apple ProRes 422 (Proxy)</codectypename>
																<codectypecode>apco</codectypecode>
																<codecvendorcode>appl</codecvendorcode>
																<spatialquality>1024</spatialquality>
																<temporalquality>0</temporalquality>
																<keyframerate>0</keyframerate>
																<datarate>0</datarate>
															</qtcodec>
														</data>
													</appspecificdata>
												</codec>
											</samplecharacteristics>
											<appspecificdata>
												<appname>Final Cut Pro</appname>
												<appmanufacturer>Apple Inc.</appmanufacturer>
												<appversion>7.0</appversion>
												<data>
													<fcpimageprocessing>
														<useyuv>TRUE</useyuv>
														<usesuperwhite>FALSE</usesuperwhite>
														<rendermode>YUV8BPP</rendermode>
													</fcpimageprocessing>
												</data>
											</appspecificdata>
										</format>
										<track>
											<clipitem id="408-13-01-03B1">
												<name>408-13-01-03B</name>
												<duration>3700</duration>
												<rate>
													<ntsc>FALSE</ntsc>
													<timebase>25</timebase>
												</rate>
												<in>0</in>
												<out>3700</out>
												<start>0</start>
												<end>3700</end>
												<pixelaspectratio>Square</pixelaspectratio>
												<enabled>TRUE</enabled>
												<anamorphic>FALSE</anamorphic>
												<alphatype>none</alphatype>
												<masterclipid>408-13-01-03B2</masterclipid>
												<syncoffset>0</syncoffset>
												<logginginfo>
													<scene/>
													<shottake/>
													<lognote/>
													<good>FALSE</good>
												</logginginfo>
												<labels>
													<label2/>
												</labels>
												<comments>
													<mastercomment1/>
													<mastercomment2/>
													<mastercomment3/>
													<mastercomment4/>
												</comments>
												<file id="B011_C019_0205CD">
													<name>B011_C019_0205CD.mov</name>
													<pathurl>file://localhost/Volumes/Xsan2/408_Masha_v_shkure_Zvonorya/PROXY/B011_C019_0205CD.mov</pathurl>
													<rate>
														<timebase>25</timebase>
													</rate>
													<duration>3449</duration>
													<timecode>
														<rate>
															<timebase>25</timebase>
														</rate>
														<string>00:02:22:04</string>
														<frame>3554</frame>
														<displayformat>NDF</displayformat>
														<source>source</source>
														<reel>
															<name>B011_C019_0205CD</name>
														</reel>
													</timecode>
													<media>
														<video>
															<duration>3449</duration>
															<samplecharacteristics>
																<width>1920</width>
																<height>1080</height>
															</samplecharacteristics>
														</video>
														<audio>
															<samplecharacteristics>
																<samplerate>48000</samplerate>
																<depth>24</depth>
															</samplecharacteristics>
															<channelcount>2</channelcount>
														</audio>
													</media>
												</file>
												<sourcetrack>
													<mediatype>video</mediatype>
												</sourcetrack>
												<link>
													<linkclipref>408-13-01-03B1</linkclipref>
													<mediatype>video</mediatype>
													<trackindex>1</trackindex>
													<clipindex>1</clipindex>
												</link>
												<link>
													<linkclipref>408-13-01-03B3</linkclipref>
													<mediatype>audio</mediatype>
													<trackindex>1</trackindex>
													<clipindex>1</clipindex>
												</link>
												<link>
													<linkclipref>408-13-01-03B4</linkclipref>
													<mediatype>audio</mediatype>
													<trackindex>2</trackindex>
													<clipindex>1</clipindex>
												</link>
												<link>
													<linkclipref>408-13-01-03B5</linkclipref>
													<mediatype>audio</mediatype>
													<trackindex>3</trackindex>
													<clipindex>1</clipindex>
												</link>
												<link>
													<linkclipref>408-13-01-03B6</linkclipref>
													<mediatype>audio</mediatype>
													<trackindex>4</trackindex>
													<clipindex>1</clipindex>
												</link>
												<link>
													<linkclipref>408-13-01-03B7</linkclipref>
													<mediatype>audio</mediatype>
													<trackindex>5</trackindex>
													<clipindex>1</clipindex>
												</link>
												<link>
													<linkclipref>408-13-01-03B8</linkclipref>
													<mediatype>audio</mediatype>
													<trackindex>6</trackindex>
													<clipindex>1</clipindex>
												</link>
												<fielddominance>none</fielddominance>
												<mediadelay>154</mediadelay>
												<itemhistory>
													<uuid>33379C97-9014-4391-BB0D-BD5EDA8EE94C</uuid>
												</itemhistory>
											</clipitem>
											<enabled>TRUE</enabled>
											<locked>FALSE</locked>
										</track>
									</video>
									<audio>
										<format>
											<samplecharacteristics>
												<depth>16</depth>
												<samplerate>48000</samplerate>
											</samplecharacteristics>
										</format>
										<outputs>
											<group>
												<index>1</index>
												<numchannels>2</numchannels>
												<downmix>0</downmix>
												<channel>
													<index>1</index>
												</channel>
												<channel>
													<index>2</index>
												</channel>
											</group>
										</outputs>
										<outputs>
											<group>
												<index>1</index>
												<numchannels>2</numchannels>
												<downmix>0</downmix>
												<channel>
													<index>1</index>
												</channel>
												<channel>
													<index>2</index>
												</channel>
											</group>
										</outputs>
										<outputs>
											<group>
												<index>1</index>
												<numchannels>2</numchannels>
												<downmix>0</downmix>
												<channel>
													<index>1</index>
												</channel>
												<channel>
													<index>2</index>
												</channel>
											</group>
										</outputs>
										<in>0</in>
										<out>3603</out>
										<track>
											<clipitem id="408-13-01-03B3">
												<name>408-13-01-03B</name>
												<duration>3700</duration>
												<rate>
													<ntsc>FALSE</ntsc>
													<timebase>25</timebase>
												</rate>
												<in>0</in>
												<out>3700</out>
												<start>0</start>
												<end>3700</end>
												<enabled>TRUE</enabled>
												<anamorphic>FALSE</anamorphic>
												<masterclipid>408-13-01-03B2</masterclipid>
												<syncoffset>0</syncoffset>
												<logginginfo>
													<scene/>
													<shottake/>
													<lognote/>
													<good>FALSE</good>
												</logginginfo>
												<labels>
													<label2/>
												</labels>
												<comments>
													<mastercomment1/>
													<mastercomment2/>
													<mastercomment3/>
													<mastercomment4/>
												</comments>
												<file id="MW-013-1T03 "/>
												<filter>
													<effect>
														<name>Audio Levels</name>
														<effectid>audiolevels</effectid>
														<effectcategory>audiolevels</effectcategory>
														<effecttype>audiolevels</effecttype>
														<mediatype>audio</mediatype>
														<parameter>
															<name>Level</name>
															<parameterid>level</parameterid>
															<valuemin>0</valuemin>
															<valuemax>3.98109</valuemax>
															<value>1</value>
														</parameter>
													</effect>
												</filter>
												<filter>
													<effect>
														<name>Audio Pan</name>
														<effectid>audiopan</effectid>
														<effectcategory>audiopan</effectcategory>
														<effecttype>audiopan</effecttype>
														<mediatype>audio</mediatype>
														<parameter>
															<name>Pan</name>
															<parameterid>pan</parameterid>
															<valuemin>-1</valuemin>
															<valuemax>1</valuemax>
															<value>0</value>
														</parameter>
													</effect>
												</filter>
												<sourcetrack>
													<mediatype>audio</mediatype>
													<trackindex>1</trackindex>
												</sourcetrack>
												<link>
													<linkclipref>408-13-01-03B1</linkclipref>
													<mediatype>video</mediatype>
													<trackindex>1</trackindex>
													<clipindex>1</clipindex>
												</link>
												<link>
													<linkclipref>408-13-01-03B3</linkclipref>
													<mediatype>audio</mediatype>
													<trackindex>1</trackindex>
													<clipindex>1</clipindex>
												</link>
												<link>
													<linkclipref>408-13-01-03B4</linkclipref>
													<mediatype>audio</mediatype>
													<trackindex>2</trackindex>
													<clipindex>1</clipindex>
												</link>
												<link>
													<linkclipref>408-13-01-03B5</linkclipref>
													<mediatype>audio</mediatype>
													<trackindex>3</trackindex>
													<clipindex>1</clipindex>
												</link>
												<link>
													<linkclipref>408-13-01-03B6</linkclipref>
													<mediatype>audio</mediatype>
													<trackindex>4</trackindex>
													<clipindex>1</clipindex>
												</link>
												<link>
													<linkclipref>408-13-01-03B7</linkclipref>
													<mediatype>audio</mediatype>
													<trackindex>5</trackindex>
													<clipindex>1</clipindex>
												</link>
												<link>
													<linkclipref>408-13-01-03B8</linkclipref>
													<mediatype>audio</mediatype>
													<trackindex>6</trackindex>
													<clipindex>1</clipindex>
												</link>
												<itemhistory>
													<uuid>735B1E22-E52E-44D3-A32E-665170F5A54C</uuid>
												</itemhistory>
											</clipitem>
											<enabled>TRUE</enabled>
											<locked>FALSE</locked>
											<outputchannelindex>1</outputchannelindex>
										</track>
										<track>
											<clipitem id="408-13-01-03B4">
												<name>408-13-01-03B</name>
												<duration>3700</duration>
												<rate>
													<ntsc>FALSE</ntsc>
													<timebase>25</timebase>
												</rate>
												<in>0</in>
												<out>3700</out>
												<start>0</start>
												<end>3700</end>
												<enabled>TRUE</enabled>
												<anamorphic>FALSE</anamorphic>
												<masterclipid>408-13-01-03B2</masterclipid>
												<syncoffset>0</syncoffset>
												<logginginfo>
													<scene/>
													<shottake/>
													<lognote/>
													<good>FALSE</good>
												</logginginfo>
												<labels>
													<label2/>
												</labels>
												<comments>
													<mastercomment1/>
													<mastercomment2/>
													<mastercomment3/>
													<mastercomment4/>
												</comments>
												<file id="MW-013-1T03 "/>
												<filter>
													<effect>
														<name>Audio Levels</name>
														<effectid>audiolevels</effectid>
														<effectcategory>audiolevels</effectcategory>
														<effecttype>audiolevels</effecttype>
														<mediatype>audio</mediatype>
														<parameter>
															<name>Level</name>
															<parameterid>level</parameterid>
															<valuemin>0</valuemin>
															<valuemax>3.98109</valuemax>
															<value>1</value>
														</parameter>
													</effect>
												</filter>
												<filter>
													<effect>
														<name>Audio Pan</name>
														<effectid>audiopan</effectid>
														<effectcategory>audiopan</effectcategory>
														<effecttype>audiopan</effecttype>
														<mediatype>audio</mediatype>
														<parameter>
															<name>Pan</name>
															<parameterid>pan</parameterid>
															<valuemin>-1</valuemin>
															<valuemax>1</valuemax>
															<value>0</value>
														</parameter>
													</effect>
												</filter>
												<sourcetrack>
													<mediatype>audio</mediatype>
													<trackindex>2</trackindex>
												</sourcetrack>
												<link>
													<linkclipref>408-13-01-03B1</linkclipref>
													<mediatype>video</mediatype>
													<trackindex>1</trackindex>
													<clipindex>1</clipindex>
												</link>
												<link>
													<linkclipref>408-13-01-03B3</linkclipref>
													<mediatype>audio</mediatype>
													<trackindex>1</trackindex>
													<clipindex>1</clipindex>
												</link>
												<link>
													<linkclipref>408-13-01-03B4</linkclipref>
													<mediatype>audio</mediatype>
													<trackindex>2</trackindex>
													<clipindex>1</clipindex>
												</link>
												<link>
													<linkclipref>408-13-01-03B5</linkclipref>
													<mediatype>audio</mediatype>
													<trackindex>3</trackindex>
													<clipindex>1</clipindex>
												</link>
												<link>
													<linkclipref>408-13-01-03B6</linkclipref>
													<mediatype>audio</mediatype>
													<trackindex>4</trackindex>
													<clipindex>1</clipindex>
												</link>
												<link>
													<linkclipref>408-13-01-03B7</linkclipref>
													<mediatype>audio</mediatype>
													<trackindex>5</trackindex>
													<clipindex>1</clipindex>
												</link>
												<link>
													<linkclipref>408-13-01-03B8</linkclipref>
													<mediatype>audio</mediatype>
													<trackindex>6</trackindex>
													<clipindex>1</clipindex>
												</link>
												<itemhistory>
													<uuid>6DC636CE-9F0C-4D71-82C9-F1221D743F33</uuid>
												</itemhistory>
											</clipitem>
											<enabled>TRUE</enabled>
											<locked>FALSE</locked>
											<outputchannelindex>2</outputchannelindex>
										</track>
										<track>
											<clipitem id="408-13-01-03B5">
												<name>408-13-01-03B</name>
												<duration>3700</duration>
												<rate>
													<ntsc>FALSE</ntsc>
													<timebase>25</timebase>
												</rate>
												<in>0</in>
												<out>3700</out>
												<start>0</start>
												<end>3700</end>
												<enabled>TRUE</enabled>
												<anamorphic>FALSE</anamorphic>
												<masterclipid>408-13-01-03B2</masterclipid>
												<syncoffset>0</syncoffset>
												<logginginfo>
													<scene/>
													<shottake/>
													<lognote/>
													<good>FALSE</good>
												</logginginfo>
												<labels>
													<label2/>
												</labels>
												<comments>
													<mastercomment1/>
													<mastercomment2/>
													<mastercomment3/>
													<mastercomment4/>
												</comments>
												<file id="MW-013-1T03 "/>
												<filter>
													<effect>
														<name>Audio Levels</name>
														<effectid>audiolevels</effectid>
														<effectcategory>audiolevels</effectcategory>
														<effecttype>audiolevels</effecttype>
														<mediatype>audio</mediatype>
														<parameter>
															<name>Level</name>
															<parameterid>level</parameterid>
															<valuemin>0</valuemin>
															<valuemax>3.98109</valuemax>
															<value>1</value>
														</parameter>
													</effect>
												</filter>
												<filter>
													<effect>
														<name>Audio Pan</name>
														<effectid>audiopan</effectid>
														<effectcategory>audiopan</effectcategory>
														<effecttype>audiopan</effecttype>
														<mediatype>audio</mediatype>
														<parameter>
															<name>Pan</name>
															<parameterid>pan</parameterid>
															<valuemin>-1</valuemin>
															<valuemax>1</valuemax>
															<value>0</value>
														</parameter>
													</effect>
												</filter>
												<sourcetrack>
													<mediatype>audio</mediatype>
													<trackindex>3</trackindex>
												</sourcetrack>
												<link>
													<linkclipref>408-13-01-03B1</linkclipref>
													<mediatype>video</mediatype>
													<trackindex>1</trackindex>
													<clipindex>1</clipindex>
												</link>
												<link>
													<linkclipref>408-13-01-03B3</linkclipref>
													<mediatype>audio</mediatype>
													<trackindex>1</trackindex>
													<clipindex>1</clipindex>
												</link>
												<link>
													<linkclipref>408-13-01-03B4</linkclipref>
													<mediatype>audio</mediatype>
													<trackindex>2</trackindex>
													<clipindex>1</clipindex>
												</link>
												<link>
													<linkclipref>408-13-01-03B5</linkclipref>
													<mediatype>audio</mediatype>
													<trackindex>3</trackindex>
													<clipindex>1</clipindex>
												</link>
												<link>
													<linkclipref>408-13-01-03B6</linkclipref>
													<mediatype>audio</mediatype>
													<trackindex>4</trackindex>
													<clipindex>1</clipindex>
												</link>
												<link>
													<linkclipref>408-13-01-03B7</linkclipref>
													<mediatype>audio</mediatype>
													<trackindex>5</trackindex>
													<clipindex>1</clipindex>
												</link>
												<link>
													<linkclipref>408-13-01-03B8</linkclipref>
													<mediatype>audio</mediatype>
													<trackindex>6</trackindex>
													<clipindex>1</clipindex>
												</link>
												<itemhistory>
													<uuid>43DDB78B-FC44-4FBB-A001-2AB0C70E81FC</uuid>
												</itemhistory>
											</clipitem>
											<enabled>TRUE</enabled>
											<locked>FALSE</locked>
											<outputchannelindex>1</outputchannelindex>
										</track>
										<track>
											<clipitem id="408-13-01-03B6">
												<name>408-13-01-03B</name>
												<duration>3700</duration>
												<rate>
													<ntsc>FALSE</ntsc>
													<timebase>25</timebase>
												</rate>
												<in>0</in>
												<out>3700</out>
												<start>0</start>
												<end>3700</end>
												<enabled>TRUE</enabled>
												<anamorphic>FALSE</anamorphic>
												<masterclipid>408-13-01-03B2</masterclipid>
												<syncoffset>0</syncoffset>
												<logginginfo>
													<scene/>
													<shottake/>
													<lognote/>
													<good>FALSE</good>
												</logginginfo>
												<labels>
													<label2/>
												</labels>
												<comments>
													<mastercomment1/>
													<mastercomment2/>
													<mastercomment3/>
													<mastercomment4/>
												</comments>
												<file id="MW-013-1T03 "/>
												<filter>
													<effect>
														<name>Audio Levels</name>
														<effectid>audiolevels</effectid>
														<effectcategory>audiolevels</effectcategory>
														<effecttype>audiolevels</effecttype>
														<mediatype>audio</mediatype>
														<parameter>
															<name>Level</name>
															<parameterid>level</parameterid>
															<valuemin>0</valuemin>
															<valuemax>3.98109</valuemax>
															<value>1</value>
														</parameter>
													</effect>
												</filter>
												<filter>
													<effect>
														<name>Audio Pan</name>
														<effectid>audiopan</effectid>
														<effectcategory>audiopan</effectcategory>
														<effecttype>audiopan</effecttype>
														<mediatype>audio</mediatype>
														<parameter>
															<name>Pan</name>
															<parameterid>pan</parameterid>
															<valuemin>-1</valuemin>
															<valuemax>1</valuemax>
															<value>0</value>
														</parameter>
													</effect>
												</filter>
												<sourcetrack>
													<mediatype>audio</mediatype>
													<trackindex>4</trackindex>
												</sourcetrack>
												<link>
													<linkclipref>408-13-01-03B1</linkclipref>
													<mediatype>video</mediatype>
													<trackindex>1</trackindex>
													<clipindex>1</clipindex>
												</link>
												<link>
													<linkclipref>408-13-01-03B3</linkclipref>
													<mediatype>audio</mediatype>
													<trackindex>1</trackindex>
													<clipindex>1</clipindex>
												</link>
												<link>
													<linkclipref>408-13-01-03B4</linkclipref>
													<mediatype>audio</mediatype>
													<trackindex>2</trackindex>
													<clipindex>1</clipindex>
												</link>
												<link>
													<linkclipref>408-13-01-03B5</linkclipref>
													<mediatype>audio</mediatype>
													<trackindex>3</trackindex>
													<clipindex>1</clipindex>
												</link>
												<link>
													<linkclipref>408-13-01-03B6</linkclipref>
													<mediatype>audio</mediatype>
													<trackindex>4</trackindex>
													<clipindex>1</clipindex>
												</link>
												<link>
													<linkclipref>408-13-01-03B7</linkclipref>
													<mediatype>audio</mediatype>
													<trackindex>5</trackindex>
													<clipindex>1</clipindex>
												</link>
												<link>
													<linkclipref>408-13-01-03B8</linkclipref>
													<mediatype>audio</mediatype>
													<trackindex>6</trackindex>
													<clipindex>1</clipindex>
												</link>
												<itemhistory>
													<uuid>EF21E586-AB69-4888-AD46-3761504B30F8</uuid>
												</itemhistory>
											</clipitem>
											<enabled>TRUE</enabled>
											<locked>FALSE</locked>
											<outputchannelindex>2</outputchannelindex>
										</track>
										<track>
											<clipitem id="408-13-01-03B7">
												<name>408-13-01-03B</name>
												<duration>3700</duration>
												<rate>
													<ntsc>FALSE</ntsc>
													<timebase>25</timebase>
												</rate>
												<in>0</in>
												<out>3700</out>
												<start>0</start>
												<end>3700</end>
												<enabled>TRUE</enabled>
												<anamorphic>FALSE</anamorphic>
												<masterclipid>408-13-01-03B2</masterclipid>
												<syncoffset>0</syncoffset>
												<logginginfo>
													<scene/>
													<shottake/>
													<lognote/>
													<good>FALSE</good>
												</logginginfo>
												<labels>
													<label2/>
												</labels>
												<comments>
													<mastercomment1/>
													<mastercomment2/>
													<mastercomment3/>
													<mastercomment4/>
												</comments>
												<file id="MW-013-1T03 "/>
												<filter>
													<effect>
														<name>Audio Levels</name>
														<effectid>audiolevels</effectid>
														<effectcategory>audiolevels</effectcategory>
														<effecttype>audiolevels</effecttype>
														<mediatype>audio</mediatype>
														<parameter>
															<name>Level</name>
															<parameterid>level</parameterid>
															<valuemin>0</valuemin>
															<valuemax>3.98109</valuemax>
															<value>1</value>
														</parameter>
													</effect>
												</filter>
												<filter>
													<effect>
														<name>Audio Pan</name>
														<effectid>audiopan</effectid>
														<effectcategory>audiopan</effectcategory>
														<effecttype>audiopan</effecttype>
														<mediatype>audio</mediatype>
														<parameter>
															<name>Pan</name>
															<parameterid>pan</parameterid>
															<valuemin>-1</valuemin>
															<valuemax>1</valuemax>
															<value>0</value>
														</parameter>
													</effect>
												</filter>
												<sourcetrack>
													<mediatype>audio</mediatype>
													<trackindex>5</trackindex>
												</sourcetrack>
												<link>
													<linkclipref>408-13-01-03B1</linkclipref>
													<mediatype>video</mediatype>
													<trackindex>1</trackindex>
													<clipindex>1</clipindex>
												</link>
												<link>
													<linkclipref>408-13-01-03B3</linkclipref>
													<mediatype>audio</mediatype>
													<trackindex>1</trackindex>
													<clipindex>1</clipindex>
												</link>
												<link>
													<linkclipref>408-13-01-03B4</linkclipref>
													<mediatype>audio</mediatype>
													<trackindex>2</trackindex>
													<clipindex>1</clipindex>
												</link>
												<link>
													<linkclipref>408-13-01-03B5</linkclipref>
													<mediatype>audio</mediatype>
													<trackindex>3</trackindex>
													<clipindex>1</clipindex>
												</link>
												<link>
													<linkclipref>408-13-01-03B6</linkclipref>
													<mediatype>audio</mediatype>
													<trackindex>4</trackindex>
													<clipindex>1</clipindex>
												</link>
												<link>
													<linkclipref>408-13-01-03B7</linkclipref>
													<mediatype>audio</mediatype>
													<trackindex>5</trackindex>
													<clipindex>1</clipindex>
												</link>
												<link>
													<linkclipref>408-13-01-03B8</linkclipref>
													<mediatype>audio</mediatype>
													<trackindex>6</trackindex>
													<clipindex>1</clipindex>
												</link>
												<itemhistory>
													<uuid>A2CCEE01-C1DB-4D56-84B4-2C1E40B65A5E</uuid>
												</itemhistory>
											</clipitem>
											<enabled>TRUE</enabled>
											<locked>FALSE</locked>
											<outputchannelindex>1</outputchannelindex>
										</track>
										<track>
											<clipitem id="408-13-01-03B8">
												<name>408-13-01-03B</name>
												<duration>3700</duration>
												<rate>
													<ntsc>FALSE</ntsc>
													<timebase>25</timebase>
												</rate>
												<in>0</in>
												<out>3700</out>
												<start>0</start>
												<end>3700</end>
												<enabled>TRUE</enabled>
												<anamorphic>FALSE</anamorphic>
												<masterclipid>408-13-01-03B2</masterclipid>
												<syncoffset>0</syncoffset>
												<logginginfo>
													<scene/>
													<shottake/>
													<lognote/>
													<good>FALSE</good>
												</logginginfo>
												<labels>
													<label2/>
												</labels>
												<comments>
													<mastercomment1/>
													<mastercomment2/>
													<mastercomment3/>
													<mastercomment4/>
												</comments>
												<file id="MW-013-1T03 "/>
												<filter>
													<effect>
														<name>Audio Levels</name>
														<effectid>audiolevels</effectid>
														<effectcategory>audiolevels</effectcategory>
														<effecttype>audiolevels</effecttype>
														<mediatype>audio</mediatype>
														<parameter>
															<name>Level</name>
															<parameterid>level</parameterid>
															<valuemin>0</valuemin>
															<valuemax>3.98109</valuemax>
															<value>1</value>
														</parameter>
													</effect>
												</filter>
												<filter>
													<effect>
														<name>Audio Pan</name>
														<effectid>audiopan</effectid>
														<effectcategory>audiopan</effectcategory>
														<effecttype>audiopan</effecttype>
														<mediatype>audio</mediatype>
														<parameter>
															<name>Pan</name>
															<parameterid>pan</parameterid>
															<valuemin>-1</valuemin>
															<valuemax>1</valuemax>
															<value>0</value>
														</parameter>
													</effect>
												</filter>
												<sourcetrack>
													<mediatype>audio</mediatype>
													<trackindex>6</trackindex>
												</sourcetrack>
												<link>
													<linkclipref>408-13-01-03B1</linkclipref>
													<mediatype>video</mediatype>
													<trackindex>1</trackindex>
													<clipindex>1</clipindex>
												</link>
												<link>
													<linkclipref>408-13-01-03B3</linkclipref>
													<mediatype>audio</mediatype>
													<trackindex>1</trackindex>
													<clipindex>1</clipindex>
												</link>
												<link>
													<linkclipref>408-13-01-03B4</linkclipref>
													<mediatype>audio</mediatype>
													<trackindex>2</trackindex>
													<clipindex>1</clipindex>
												</link>
												<link>
													<linkclipref>408-13-01-03B5</linkclipref>
													<mediatype>audio</mediatype>
													<trackindex>3</trackindex>
													<clipindex>1</clipindex>
												</link>
												<link>
													<linkclipref>408-13-01-03B6</linkclipref>
													<mediatype>audio</mediatype>
													<trackindex>4</trackindex>
													<clipindex>1</clipindex>
												</link>
												<link>
													<linkclipref>408-13-01-03B7</linkclipref>
													<mediatype>audio</mediatype>
													<trackindex>5</trackindex>
													<clipindex>1</clipindex>
												</link>
												<link>
													<linkclipref>408-13-01-03B8</linkclipref>
													<mediatype>audio</mediatype>
													<trackindex>6</trackindex>
													<clipindex>1</clipindex>
												</link>
												<itemhistory>
													<uuid>F39CBF3B-332C-436A-BB5F-4C9FB52EEA88</uuid>
												</itemhistory>
											</clipitem>
											<enabled>TRUE</enabled>
											<locked>FALSE</locked>
											<outputchannelindex>2</outputchannelindex>
										</track>
										<filter>
											<effect>
												<name>Audio Levels</name>
												<effectid>audiolevels</effectid>
												<effectcategory>audiolevels</effectcategory>
												<effecttype>audiolevels</effecttype>
												<mediatype>audio</mediatype>
												<parameter>
													<name>Level</name>
													<parameterid>level</parameterid>
													<valuemin>0</valuemin>
													<valuemax>3.98109</valuemax>
													<value>1</value>
												</parameter>
											</effect>
										</filter>
									</audio>
								</media>
							</clip>
						</angle>
						<masterclipid>408-13-01-03A16</masterclipid>
					</multiclip>
					<mediadelay>103</mediadelay>
					<itemhistory>
						<uuid>2440DB18-2B51-4BD1-8D13-BCC16F6270A6</uuid>
					</itemhistory>
				</clipitem>
				<clipitem id="408-13-01-03A17">
					<name>408-13-01-03A</name>
					<duration>3700</duration>
					<rate>
						<ntsc>FALSE</ntsc>
						<timebase>25</timebase>
					</rate>
					<in>627</in>
					<out>670</out>
					<start>212</start>
					<end>255</end>
					<pixelaspectratio>Square</pixelaspectratio>
					<enabled>TRUE</enabled>
					<anamorphic>FALSE</anamorphic>
					<alphatype>none</alphatype>
					<masterclipid>408-13-01-03A1</masterclipid>
					<syncoffset>0</syncoffset>
					<logginginfo>
						<scene/>
						<shottake/>
						<lognote/>
						<good>FALSE</good>
					</logginginfo>
					<labels>
						<label2/>
					</labels>
					<comments>
						<mastercomment1/>
						<mastercomment2/>
						<mastercomment3/>
						<mastercomment4/>
					</comments>
					<file id="A011_C020_0204CQ"/>
					<sourcetrack>
						<mediatype>video</mediatype>
					</sourcetrack>
					<link>
						<linkclipref>408-13-01-03A17</linkclipref>
						<mediatype>video</mediatype>
						<trackindex>1</trackindex>
						<clipindex>3</clipindex>
					</link>
					<link>
						<linkclipref>408-13-01-03A18</linkclipref>
						<mediatype>audio</mediatype>
						<trackindex>1</trackindex>
						<clipindex>2</clipindex>
					</link>
					<link>
						<linkclipref>408-13-01-03A19</linkclipref>
						<mediatype>audio</mediatype>
						<trackindex>2</trackindex>
						<clipindex>2</clipindex>
					</link>
					<link>
						<linkclipref>408-13-01-03A20</linkclipref>
						<mediatype>audio</mediatype>
						<trackindex>3</trackindex>
						<clipindex>2</clipindex>
					</link>
					<link>
						<linkclipref>408-13-01-03A21</linkclipref>
						<mediatype>audio</mediatype>
						<trackindex>4</trackindex>
						<clipindex>2</clipindex>
					</link>
					<link>
						<linkclipref>408-13-01-03A22</linkclipref>
						<mediatype>audio</mediatype>
						<trackindex>5</trackindex>
						<clipindex>2</clipindex>
					</link>
					<link>
						<linkclipref>408-13-01-03A23</linkclipref>
						<mediatype>audio</mediatype>
						<trackindex>6</trackindex>
						<clipindex>2</clipindex>
					</link>
					<fielddominance>none</fielddominance>
					<multiclip id="1">
						<collapsed>FALSE</collapsed>
						<synctype>1</synctype>
						<angle>
							<activevideoangle>TRUE</activevideoangle>
							<activeaudioangle>TRUE</activeaudioangle>
							<clip id="408-13-01-03A8"/>
						</angle>
						<angle>
							<clip id="408-13-01-03B"/>
						</angle>
						<masterclipid>408-13-01-03A16</masterclipid>
					</multiclip>
					<mediadelay>103</mediadelay>
					<itemhistory>
						<uuid>C4BEE20E-4E66-4A0D-AB60-D7B562EB75B2</uuid>
					</itemhistory>
				</clipitem>
				<clipitem id="408-13-01-03B9">
					<name>408-13-01-03B</name>
					<duration>3700</duration>
					<rate>
						<ntsc>FALSE</ntsc>
						<timebase>25</timebase>
					</rate>
					<in>670</in>
					<out>785</out>
					<start>255</start>
					<end>370</end>
					<pixelaspectratio>Square</pixelaspectratio>
					<enabled>TRUE</enabled>
					<anamorphic>FALSE</anamorphic>
					<alphatype>none</alphatype>
					<masterclipid>408-13-01-03B2</masterclipid>
					<syncoffset>0</syncoffset>
					<logginginfo>
						<scene/>
						<shottake/>
						<lognote/>
						<good>FALSE</good>
					</logginginfo>
					<labels>
						<label2/>
					</labels>
					<comments>
						<mastercomment1/>
						<mastercomment2/>
						<mastercomment3/>
						<mastercomment4/>
					</comments>
					<file id="B011_C019_0205CD"/>
					<sourcetrack>
						<mediatype>video</mediatype>
					</sourcetrack>
					<link>
						<linkclipref>408-13-01-03B9</linkclipref>
						<mediatype>video</mediatype>
						<trackindex>1</trackindex>
						<clipindex>4</clipindex>
					</link>
					<link>
						<linkclipref>408-13-01-03B10</linkclipref>
						<mediatype>audio</mediatype>
						<trackindex>1</trackindex>
						<clipindex>3</clipindex>
					</link>
					<link>
						<linkclipref>408-13-01-03B11</linkclipref>
						<mediatype>audio</mediatype>
						<trackindex>2</trackindex>
						<clipindex>3</clipindex>
					</link>
					<link>
						<linkclipref>408-13-01-03B12</linkclipref>
						<mediatype>audio</mediatype>
						<trackindex>3</trackindex>
						<clipindex>3</clipindex>
					</link>
					<link>
						<linkclipref>408-13-01-03B13</linkclipref>
						<mediatype>audio</mediatype>
						<trackindex>4</trackindex>
						<clipindex>3</clipindex>
					</link>
					<link>
						<linkclipref>408-13-01-03B14</linkclipref>
						<mediatype>audio</mediatype>
						<trackindex>5</trackindex>
						<clipindex>3</clipindex>
					</link>
					<link>
						<linkclipref>408-13-01-03B15</linkclipref>
						<mediatype>audio</mediatype>
						<trackindex>6</trackindex>
						<clipindex>3</clipindex>
					</link>
					<fielddominance>none</fielddominance>
					<multiclip id="2">
						<collapsed>FALSE</collapsed>
						<synctype>1</synctype>
						<angle>
							<clip id="408-13-01-03A8"/>
						</angle>
						<angle>
							<activevideoangle>TRUE</activevideoangle>
							<activeaudioangle>TRUE</activeaudioangle>
							<clip id="408-13-01-03B"/>
						</angle>
						<masterclipid>408-13-01-03A16</masterclipid>
					</multiclip>
					<mediadelay>154</mediadelay>
					<itemhistory>
						<uuid>FC990AE9-2943-4F46-B0C4-A5171D406162</uuid>
					</itemhistory>
				</clipitem>
				<clipitem id="408-13-02-03B">
					<name>408-13-02-03B</name>
					<duration>3750</duration>
					<rate>
						<ntsc>FALSE</ntsc>
						<timebase>25</timebase>
					</rate>
					<in>1017</in>
					<out>1119</out>
					<start>370</start>
					<end>472</end>
					<pixelaspectratio>Square</pixelaspectratio>
					<enabled>TRUE</enabled>
					<anamorphic>FALSE</anamorphic>
					<alphatype>none</alphatype>
					<masterclipid>408-13-02-03B1</masterclipid>
					<syncoffset>0</syncoffset>
					<logginginfo>
						<scene/>
						<shottake/>
						<lognote/>
						<good>FALSE</good>
					</logginginfo>
					<labels>
						<label2/>
					</labels>
					<comments>
						<mastercomment1/>
						<mastercomment2/>
						<mastercomment3/>
						<mastercomment4/>
					</comments>
					<file id="B011_C022_020526 ">
						<name>B011_C022_020526.mov</name>
						<pathurl>file://localhost/Volumes/Xsan2/408_Masha_v_shkure_Zvonorya/PROXY/B011_C022_020526.mov</pathurl>
						<rate>
							<timebase>25</timebase>
						</rate>
						<duration>3494</duration>
						<timecode>
							<rate>
								<timebase>25</timebase>
							</rate>
							<string>00:15:15:16</string>
							<frame>22891</frame>
							<displayformat>NDF</displayformat>
							<source>source</source>
							<reel>
								<name>B011_C022_020526</name>
							</reel>
						</timecode>
						<media>
							<video>
								<duration>3494</duration>
								<samplecharacteristics>
									<width>1920</width>
									<height>1080</height>
								</samplecharacteristics>
							</video>
							<audio>
								<samplecharacteristics>
									<samplerate>48000</samplerate>
									<depth>24</depth>
								</samplecharacteristics>
								<channelcount>2</channelcount>
							</audio>
						</media>
					</file>
					<sourcetrack>
						<mediatype>video</mediatype>
					</sourcetrack>
					<link>
						<linkclipref>408-13-02-03B</linkclipref>
						<mediatype>video</mediatype>
						<trackindex>1</trackindex>
						<clipindex>5</clipindex>
					</link>
					<link>
						<linkclipref>408-13-02-03B2</linkclipref>
						<mediatype>audio</mediatype>
						<trackindex>1</trackindex>
						<clipindex>4</clipindex>
					</link>
					<link>
						<linkclipref>408-13-02-03B3</linkclipref>
						<mediatype>audio</mediatype>
						<trackindex>2</trackindex>
						<clipindex>4</clipindex>
					</link>
					<link>
						<linkclipref>408-13-02-03B4</linkclipref>
						<mediatype>audio</mediatype>
						<trackindex>3</trackindex>
						<clipindex>4</clipindex>
					</link>
					<link>
						<linkclipref>408-13-02-03B5</linkclipref>
						<mediatype>audio</mediatype>
						<trackindex>4</trackindex>
						<clipindex>4</clipindex>
					</link>
					<link>
						<linkclipref>408-13-02-03B6</linkclipref>
						<mediatype>audio</mediatype>
						<trackindex>5</trackindex>
						<clipindex>4</clipindex>
					</link>
					<link>
						<linkclipref>408-13-02-03B7</linkclipref>
						<mediatype>audio</mediatype>
						<trackindex>6</trackindex>
						<clipindex>4</clipindex>
					</link>
					<fielddominance>none</fielddominance>
					<multiclip id="3">
						<collapsed>FALSE</collapsed>
						<synctype>1</synctype>
						<angle>
							<clip id="408-13-02-03A">
								<uuid>D2067556-2532-45FF-9709-7AA1384D19F3</uuid>
								<updatebehavior>add</updatebehavior>
								<name>408-13-02-03A</name>
								<duration>3750</duration>
								<rate>
									<ntsc>FALSE</ntsc>
									<timebase>25</timebase>
								</rate>
								<in>0</in>
								<out>3673</out>
								<anamorphic>FALSE</anamorphic>
								<ismasterclip>FALSE</ismasterclip>
								<logginginfo>
									<scene/>
									<shottake/>
									<lognote/>
									<good>FALSE</good>
								</logginginfo>
								<labels>
									<label2/>
								</labels>
								<comments>
									<mastercomment1/>
									<mastercomment2/>
									<mastercomment3/>
									<mastercomment4/>
								</comments>
								<media>
									<video>
										<format>
											<samplecharacteristics>
												<width>1920</width>
												<height>1080</height>
												<anamorphic>FALSE</anamorphic>
												<pixelaspectratio>Square</pixelaspectratio>
												<fielddominance>none</fielddominance>
												<rate>
													<ntsc>FALSE</ntsc>
													<timebase>25</timebase>
												</rate>
												<colordepth>24</colordepth>
												<codec>
													<name>Apple ProRes 422 (Proxy)</name>
													<appspecificdata>
														<appname>Final Cut Pro</appname>
														<appmanufacturer>Apple Inc.</appmanufacturer>
														<appversion>7.0</appversion>
														<data>
															<qtcodec>
																<codecname>Apple ProRes 422 (Proxy)</codecname>
																<codectypename>Apple ProRes 422 (Proxy)</codectypename>
																<codectypecode>apco</codectypecode>
																<codecvendorcode>appl</codecvendorcode>
																<spatialquality>1024</spatialquality>
																<temporalquality>0</temporalquality>
																<keyframerate>0</keyframerate>
																<datarate>0</datarate>
															</qtcodec>
														</data>
													</appspecificdata>
												</codec>
											</samplecharacteristics>
											<appspecificdata>
												<appname>Final Cut Pro</appname>
												<appmanufacturer>Apple Inc.</appmanufacturer>
												<appversion>7.0</appversion>
												<data>
													<fcpimageprocessing>
														<useyuv>TRUE</useyuv>
														<usesuperwhite>FALSE</usesuperwhite>
														<rendermode>YUV8BPP</rendermode>
													</fcpimageprocessing>
												</data>
											</appspecificdata>
										</format>
										<track>
											<clipitem id="408-13-02-03A1">
												<name>408-13-02-03A</name>
												<duration>3750</duration>
												<rate>
													<ntsc>FALSE</ntsc>
													<timebase>25</timebase>
												</rate>
												<in>0</in>
												<out>3750</out>
												<start>0</start>
												<end>3750</end>
												<pixelaspectratio>Square</pixelaspectratio>
												<enabled>TRUE</enabled>
												<anamorphic>FALSE</anamorphic>
												<alphatype>none</alphatype>
												<masterclipid>408-13-02-03A2</masterclipid>
												<syncoffset>0</syncoffset>
												<logginginfo>
													<scene/>
													<shottake/>
													<lognote/>
													<good>FALSE</good>
												</logginginfo>
												<labels>
													<label2/>
												</labels>
												<comments>
													<mastercomment1/>
													<mastercomment2/>
													<mastercomment3/>
													<mastercomment4/>
												</comments>
												<file id="A011_C023_0204BW">
													<name>A011_C023_0204BW.mov</name>
													<pathurl>file://localhost/Volumes/Xsan2/408_Masha_v_shkure_Zvonorya/PROXY/A011_C023_0204BW.mov</pathurl>
													<rate>
														<timebase>25</timebase>
													</rate>
													<duration>3514</duration>
													<timecode>
														<rate>
															<timebase>25</timebase>
														</rate>
														<string>00:15:14:10</string>
														<frame>22860</frame>
														<displayformat>NDF</displayformat>
														<source>source</source>
														<reel>
															<name>A011_C023_0204BW</name>
														</reel>
													</timecode>
													<media>
														<video>
															<duration>3514</duration>
															<samplecharacteristics>
																<width>1920</width>
																<height>1080</height>
															</samplecharacteristics>
														</video>
														<audio>
															<samplecharacteristics>
																<samplerate>48000</samplerate>
																<depth>24</depth>
															</samplecharacteristics>
															<channelcount>2</channelcount>
														</audio>
													</media>
												</file>
												<sourcetrack>
													<mediatype>video</mediatype>
												</sourcetrack>
												<link>
													<linkclipref>408-13-02-03A1</linkclipref>
													<mediatype>video</mediatype>
													<trackindex>1</trackindex>
													<clipindex>1</clipindex>
												</link>
												<link>
													<linkclipref>408-13-02-03A3</linkclipref>
													<mediatype>audio</mediatype>
													<trackindex>1</trackindex>
													<clipindex>1</clipindex>
												</link>
												<link>
													<linkclipref>408-13-02-03A4</linkclipref>
													<mediatype>audio</mediatype>
													<trackindex>2</trackindex>
													<clipindex>1</clipindex>
												</link>
												<link>
													<linkclipref>408-13-02-03A5</linkclipref>
													<mediatype>audio</mediatype>
													<trackindex>3</trackindex>
													<clipindex>1</clipindex>
												</link>
												<link>
													<linkclipref>408-13-02-03A6</linkclipref>
													<mediatype>audio</mediatype>
													<trackindex>4</trackindex>
													<clipindex>1</clipindex>
												</link>
												<link>
													<linkclipref>408-13-02-03A7</linkclipref>
													<mediatype>audio</mediatype>
													<trackindex>5</trackindex>
													<clipindex>1</clipindex>
												</link>
												<link>
													<linkclipref>408-13-02-03A8</linkclipref>
													<mediatype>audio</mediatype>
													<trackindex>6</trackindex>
													<clipindex>1</clipindex>
												</link>
												<fielddominance>none</fielddominance>
												<mediadelay>159</mediadelay>
												<itemhistory>
													<uuid>CED5760B-D42D-42B2-967B-0D6D58CB95DC</uuid>
												</itemhistory>
											</clipitem>
											<enabled>TRUE</enabled>
											<locked>FALSE</locked>
										</track>
									</video>
									<audio>
										<format>
											<samplecharacteristics>
												<depth>16</depth>
												<samplerate>48000</samplerate>
											</samplecharacteristics>
										</format>
										<outputs>
											<group>
												<index>1</index>
												<numchannels>2</numchannels>
												<downmix>0</downmix>
												<channel>
													<index>1</index>
												</channel>
												<channel>
													<index>2</index>
												</channel>
											</group>
										</outputs>
										<outputs>
											<group>
												<index>1</index>
												<numchannels>2</numchannels>
												<downmix>0</downmix>
												<channel>
													<index>1</index>
												</channel>
												<channel>
													<index>2</index>
												</channel>
											</group>
										</outputs>
										<outputs>
											<group>
												<index>1</index>
												<numchannels>2</numchannels>
												<downmix>0</downmix>
												<channel>
													<index>1</index>
												</channel>
												<channel>
													<index>2</index>
												</channel>
											</group>
										</outputs>
										<outputs>
											<group>
												<index>1</index>
												<numchannels>2</numchannels>
												<downmix>0</downmix>
												<channel>
													<index>1</index>
												</channel>
												<channel>
													<index>2</index>
												</channel>
											</group>
										</outputs>
										<in>0</in>
										<out>3673</out>
										<track>
											<clipitem id="408-13-02-03A3">
												<name>408-13-02-03A</name>
												<duration>3750</duration>
												<rate>
													<ntsc>FALSE</ntsc>
													<timebase>25</timebase>
												</rate>
												<in>0</in>
												<out>3750</out>
												<start>0</start>
												<end>3750</end>
												<enabled>TRUE</enabled>
												<anamorphic>FALSE</anamorphic>
												<masterclipid>408-13-02-03A2</masterclipid>
												<syncoffset>0</syncoffset>
												<logginginfo>
													<scene/>
													<shottake/>
													<lognote/>
													<good>FALSE</good>
												</logginginfo>
												<labels>
													<label2/>
												</labels>
												<comments>
													<mastercomment1/>
													<mastercomment2/>
													<mastercomment3/>
													<mastercomment4/>
												</comments>
												<file id="MW-013-2T03 ">
													<name>MW-013-2T03.WAV</name>
													<pathurl>file://localhost/Volumes/Xsan2/408_Masha_v_shkure_Zvonorya/SOUND/14Y02M04/MW-013-2T03.WAV</pathurl>
													<rate>
														<timebase>25</timebase>
													</rate>
													<duration>3750</duration>
													<timecode>
														<rate>
															<timebase>25</timebase>
														</rate>
														<string>00:15:08:00</string>
														<frame>22700</frame>
														<displayformat>NDF</displayformat>
														<source>source</source>
														<reel>
															<name>14Y02M04</name>
														</reel>
													</timecode>
													<media>
														<audio>
															<samplecharacteristics>
																<samplerate>48000</samplerate>
																<depth>24</depth>
															</samplecharacteristics>
															<channelcount>6</channelcount>
														</audio>
													</media>
												</file>
												<filter>
													<effect>
														<name>Audio Levels</name>
														<effectid>audiolevels</effectid>
														<effectcategory>audiolevels</effectcategory>
														<effecttype>audiolevels</effecttype>
														<mediatype>audio</mediatype>
														<parameter>
															<name>Level</name>
															<parameterid>level</parameterid>
															<valuemin>0</valuemin>
															<valuemax>3.98109</valuemax>
															<value>1</value>
														</parameter>
													</effect>
												</filter>
												<filter>
													<effect>
														<name>Audio Pan</name>
														<effectid>audiopan</effectid>
														<effectcategory>audiopan</effectcategory>
														<effecttype>audiopan</effecttype>
														<mediatype>audio</mediatype>
														<parameter>
															<name>Pan</name>
															<parameterid>pan</parameterid>
															<valuemin>-1</valuemin>
															<valuemax>1</valuemax>
															<value>0</value>
														</parameter>
													</effect>
												</filter>
												<sourcetrack>
													<mediatype>audio</mediatype>
													<trackindex>1</trackindex>
												</sourcetrack>
												<link>
													<linkclipref>408-13-02-03A1</linkclipref>
													<mediatype>video</mediatype>
													<trackindex>1</trackindex>
													<clipindex>1</clipindex>
												</link>
												<link>
													<linkclipref>408-13-02-03A3</linkclipref>
													<mediatype>audio</mediatype>
													<trackindex>1</trackindex>
													<clipindex>1</clipindex>
												</link>
												<link>
													<linkclipref>408-13-02-03A4</linkclipref>
													<mediatype>audio</mediatype>
													<trackindex>2</trackindex>
													<clipindex>1</clipindex>
												</link>
												<link>
													<linkclipref>408-13-02-03A5</linkclipref>
													<mediatype>audio</mediatype>
													<trackindex>3</trackindex>
													<clipindex>1</clipindex>
												</link>
												<link>
													<linkclipref>408-13-02-03A6</linkclipref>
													<mediatype>audio</mediatype>
													<trackindex>4</trackindex>
													<clipindex>1</clipindex>
												</link>
												<link>
													<linkclipref>408-13-02-03A7</linkclipref>
													<mediatype>audio</mediatype>
													<trackindex>5</trackindex>
													<clipindex>1</clipindex>
												</link>
												<link>
													<linkclipref>408-13-02-03A8</linkclipref>
													<mediatype>audio</mediatype>
													<trackindex>6</trackindex>
													<clipindex>1</clipindex>
												</link>
												<itemhistory>
													<uuid>7393B9FF-5F15-4260-9856-41D8510C0871</uuid>
												</itemhistory>
											</clipitem>
											<enabled>TRUE</enabled>
											<locked>FALSE</locked>
											<outputchannelindex>1</outputchannelindex>
										</track>
										<track>
											<clipitem id="408-13-02-03A4">
												<name>408-13-02-03A</name>
												<duration>3750</duration>
												<rate>
													<ntsc>FALSE</ntsc>
													<timebase>25</timebase>
												</rate>
												<in>0</in>
												<out>3750</out>
												<start>0</start>
												<end>3750</end>
												<enabled>TRUE</enabled>
												<anamorphic>FALSE</anamorphic>
												<masterclipid>408-13-02-03A2</masterclipid>
												<syncoffset>0</syncoffset>
												<logginginfo>
													<scene/>
													<shottake/>
													<lognote/>
													<good>FALSE</good>
												</logginginfo>
												<labels>
													<label2/>
												</labels>
												<comments>
													<mastercomment1/>
													<mastercomment2/>
													<mastercomment3/>
													<mastercomment4/>
												</comments>
												<file id="MW-013-2T03 "/>
												<filter>
													<effect>
														<name>Audio Levels</name>
														<effectid>audiolevels</effectid>
														<effectcategory>audiolevels</effectcategory>
														<effecttype>audiolevels</effecttype>
														<mediatype>audio</mediatype>
														<parameter>
															<name>Level</name>
															<parameterid>level</parameterid>
															<valuemin>0</valuemin>
															<valuemax>3.98109</valuemax>
															<value>1</value>
														</parameter>
													</effect>
												</filter>
												<filter>
													<effect>
														<name>Audio Pan</name>
														<effectid>audiopan</effectid>
														<effectcategory>audiopan</effectcategory>
														<effecttype>audiopan</effecttype>
														<mediatype>audio</mediatype>
														<parameter>
															<name>Pan</name>
															<parameterid>pan</parameterid>
															<valuemin>-1</valuemin>
															<valuemax>1</valuemax>
															<value>0</value>
														</parameter>
													</effect>
												</filter>
												<sourcetrack>
													<mediatype>audio</mediatype>
													<trackindex>2</trackindex>
												</sourcetrack>
												<link>
													<linkclipref>408-13-02-03A1</linkclipref>
													<mediatype>video</mediatype>
													<trackindex>1</trackindex>
													<clipindex>1</clipindex>
												</link>
												<link>
													<linkclipref>408-13-02-03A3</linkclipref>
													<mediatype>audio</mediatype>
													<trackindex>1</trackindex>
													<clipindex>1</clipindex>
												</link>
												<link>
													<linkclipref>408-13-02-03A4</linkclipref>
													<mediatype>audio</mediatype>
													<trackindex>2</trackindex>
													<clipindex>1</clipindex>
												</link>
												<link>
													<linkclipref>408-13-02-03A5</linkclipref>
													<mediatype>audio</mediatype>
													<trackindex>3</trackindex>
													<clipindex>1</clipindex>
												</link>
												<link>
													<linkclipref>408-13-02-03A6</linkclipref>
													<mediatype>audio</mediatype>
													<trackindex>4</trackindex>
													<clipindex>1</clipindex>
												</link>
												<link>
													<linkclipref>408-13-02-03A7</linkclipref>
													<mediatype>audio</mediatype>
													<trackindex>5</trackindex>
													<clipindex>1</clipindex>
												</link>
												<link>
													<linkclipref>408-13-02-03A8</linkclipref>
													<mediatype>audio</mediatype>
													<trackindex>6</trackindex>
													<clipindex>1</clipindex>
												</link>
												<itemhistory>
													<uuid>BC5587D4-0446-407A-86EE-126DCE07B1C0</uuid>
												</itemhistory>
											</clipitem>
											<enabled>TRUE</enabled>
											<locked>FALSE</locked>
											<outputchannelindex>2</outputchannelindex>
										</track>
										<track>
											<clipitem id="408-13-02-03A5">
												<name>408-13-02-03A</name>
												<duration>3750</duration>
												<rate>
													<ntsc>FALSE</ntsc>
													<timebase>25</timebase>
												</rate>
												<in>0</in>
												<out>3750</out>
												<start>0</start>
												<end>3750</end>
												<enabled>TRUE</enabled>
												<anamorphic>FALSE</anamorphic>
												<masterclipid>408-13-02-03A2</masterclipid>
												<syncoffset>0</syncoffset>
												<logginginfo>
													<scene/>
													<shottake/>
													<lognote/>
													<good>FALSE</good>
												</logginginfo>
												<labels>
													<label2/>
												</labels>
												<comments>
													<mastercomment1/>
													<mastercomment2/>
													<mastercomment3/>
													<mastercomment4/>
												</comments>
												<file id="MW-013-2T03 "/>
												<filter>
													<effect>
														<name>Audio Levels</name>
														<effectid>audiolevels</effectid>
														<effectcategory>audiolevels</effectcategory>
														<effecttype>audiolevels</effecttype>
														<mediatype>audio</mediatype>
														<parameter>
															<name>Level</name>
															<parameterid>level</parameterid>
															<valuemin>0</valuemin>
															<valuemax>3.98109</valuemax>
															<value>1</value>
														</parameter>
													</effect>
												</filter>
												<filter>
													<effect>
														<name>Audio Pan</name>
														<effectid>audiopan</effectid>
														<effectcategory>audiopan</effectcategory>
														<effecttype>audiopan</effecttype>
														<mediatype>audio</mediatype>
														<parameter>
															<name>Pan</name>
															<parameterid>pan</parameterid>
															<valuemin>-1</valuemin>
															<valuemax>1</valuemax>
															<value>0</value>
														</parameter>
													</effect>
												</filter>
												<sourcetrack>
													<mediatype>audio</mediatype>
													<trackindex>3</trackindex>
												</sourcetrack>
												<link>
													<linkclipref>408-13-02-03A1</linkclipref>
													<mediatype>video</mediatype>
													<trackindex>1</trackindex>
													<clipindex>1</clipindex>
												</link>
												<link>
													<linkclipref>408-13-02-03A3</linkclipref>
													<mediatype>audio</mediatype>
													<trackindex>1</trackindex>
													<clipindex>1</clipindex>
												</link>
												<link>
													<linkclipref>408-13-02-03A4</linkclipref>
													<mediatype>audio</mediatype>
													<trackindex>2</trackindex>
													<clipindex>1</clipindex>
												</link>
												<link>
													<linkclipref>408-13-02-03A5</linkclipref>
													<mediatype>audio</mediatype>
													<trackindex>3</trackindex>
													<clipindex>1</clipindex>
												</link>
												<link>
													<linkclipref>408-13-02-03A6</linkclipref>
													<mediatype>audio</mediatype>
													<trackindex>4</trackindex>
													<clipindex>1</clipindex>
												</link>
												<link>
													<linkclipref>408-13-02-03A7</linkclipref>
													<mediatype>audio</mediatype>
													<trackindex>5</trackindex>
													<clipindex>1</clipindex>
												</link>
												<link>
													<linkclipref>408-13-02-03A8</linkclipref>
													<mediatype>audio</mediatype>
													<trackindex>6</trackindex>
													<clipindex>1</clipindex>
												</link>
												<itemhistory>
													<uuid>D4BD1E65-B83B-46D0-AB80-ECE250AD13CB</uuid>
												</itemhistory>
											</clipitem>
											<enabled>TRUE</enabled>
											<locked>FALSE</locked>
											<outputchannelindex>1</outputchannelindex>
										</track>
										<track>
											<clipitem id="408-13-02-03A6">
												<name>408-13-02-03A</name>
												<duration>3750</duration>
												<rate>
													<ntsc>FALSE</ntsc>
													<timebase>25</timebase>
												</rate>
												<in>0</in>
												<out>3750</out>
												<start>0</start>
												<end>3750</end>
												<enabled>TRUE</enabled>
												<anamorphic>FALSE</anamorphic>
												<masterclipid>408-13-02-03A2</masterclipid>
												<syncoffset>0</syncoffset>
												<logginginfo>
													<scene/>
													<shottake/>
													<lognote/>
													<good>FALSE</good>
												</logginginfo>
												<labels>
													<label2/>
												</labels>
												<comments>
													<mastercomment1/>
													<mastercomment2/>
													<mastercomment3/>
													<mastercomment4/>
												</comments>
												<file id="MW-013-2T03 "/>
												<filter>
													<effect>
														<name>Audio Levels</name>
														<effectid>audiolevels</effectid>
														<effectcategory>audiolevels</effectcategory>
														<effecttype>audiolevels</effecttype>
														<mediatype>audio</mediatype>
														<parameter>
															<name>Level</name>
															<parameterid>level</parameterid>
															<valuemin>0</valuemin>
															<valuemax>3.98109</valuemax>
															<value>1</value>
														</parameter>
													</effect>
												</filter>
												<filter>
													<effect>
														<name>Audio Pan</name>
														<effectid>audiopan</effectid>
														<effectcategory>audiopan</effectcategory>
														<effecttype>audiopan</effecttype>
														<mediatype>audio</mediatype>
														<parameter>
															<name>Pan</name>
															<parameterid>pan</parameterid>
															<valuemin>-1</valuemin>
															<valuemax>1</valuemax>
															<value>0</value>
														</parameter>
													</effect>
												</filter>
												<sourcetrack>
													<mediatype>audio</mediatype>
													<trackindex>4</trackindex>
												</sourcetrack>
												<link>
													<linkclipref>408-13-02-03A1</linkclipref>
													<mediatype>video</mediatype>
													<trackindex>1</trackindex>
													<clipindex>1</clipindex>
												</link>
												<link>
													<linkclipref>408-13-02-03A3</linkclipref>
													<mediatype>audio</mediatype>
													<trackindex>1</trackindex>
													<clipindex>1</clipindex>
												</link>
												<link>
													<linkclipref>408-13-02-03A4</linkclipref>
													<mediatype>audio</mediatype>
													<trackindex>2</trackindex>
													<clipindex>1</clipindex>
												</link>
												<link>
													<linkclipref>408-13-02-03A5</linkclipref>
													<mediatype>audio</mediatype>
													<trackindex>3</trackindex>
													<clipindex>1</clipindex>
												</link>
												<link>
													<linkclipref>408-13-02-03A6</linkclipref>
													<mediatype>audio</mediatype>
													<trackindex>4</trackindex>
													<clipindex>1</clipindex>
												</link>
												<link>
													<linkclipref>408-13-02-03A7</linkclipref>
													<mediatype>audio</mediatype>
													<trackindex>5</trackindex>
													<clipindex>1</clipindex>
												</link>
												<link>
													<linkclipref>408-13-02-03A8</linkclipref>
													<mediatype>audio</mediatype>
													<trackindex>6</trackindex>
													<clipindex>1</clipindex>
												</link>
												<itemhistory>
													<uuid>5492B917-A3A0-4CB8-BF30-2AF2DBFB3E97</uuid>
												</itemhistory>
											</clipitem>
											<enabled>TRUE</enabled>
											<locked>FALSE</locked>
											<outputchannelindex>2</outputchannelindex>
										</track>
										<track>
											<clipitem id="408-13-02-03A7">
												<name>408-13-02-03A</name>
												<duration>3750</duration>
												<rate>
													<ntsc>FALSE</ntsc>
													<timebase>25</timebase>
												</rate>
												<in>0</in>
												<out>3750</out>
												<start>0</start>
												<end>3750</end>
												<enabled>TRUE</enabled>
												<anamorphic>FALSE</anamorphic>
												<masterclipid>408-13-02-03A2</masterclipid>
												<syncoffset>0</syncoffset>
												<logginginfo>
													<scene/>
													<shottake/>
													<lognote/>
													<good>FALSE</good>
												</logginginfo>
												<labels>
													<label2/>
												</labels>
												<comments>
													<mastercomment1/>
													<mastercomment2/>
													<mastercomment3/>
													<mastercomment4/>
												</comments>
												<file id="MW-013-2T03 "/>
												<filter>
													<effect>
														<name>Audio Levels</name>
														<effectid>audiolevels</effectid>
														<effectcategory>audiolevels</effectcategory>
														<effecttype>audiolevels</effecttype>
														<mediatype>audio</mediatype>
														<parameter>
															<name>Level</name>
															<parameterid>level</parameterid>
															<valuemin>0</valuemin>
															<valuemax>3.98109</valuemax>
															<value>1</value>
														</parameter>
													</effect>
												</filter>
												<filter>
													<effect>
														<name>Audio Pan</name>
														<effectid>audiopan</effectid>
														<effectcategory>audiopan</effectcategory>
														<effecttype>audiopan</effecttype>
														<mediatype>audio</mediatype>
														<parameter>
															<name>Pan</name>
															<parameterid>pan</parameterid>
															<valuemin>-1</valuemin>
															<valuemax>1</valuemax>
															<value>0</value>
														</parameter>
													</effect>
												</filter>
												<sourcetrack>
													<mediatype>audio</mediatype>
													<trackindex>5</trackindex>
												</sourcetrack>
												<link>
													<linkclipref>408-13-02-03A1</linkclipref>
													<mediatype>video</mediatype>
													<trackindex>1</trackindex>
													<clipindex>1</clipindex>
												</link>
												<link>
													<linkclipref>408-13-02-03A3</linkclipref>
													<mediatype>audio</mediatype>
													<trackindex>1</trackindex>
													<clipindex>1</clipindex>
												</link>
												<link>
													<linkclipref>408-13-02-03A4</linkclipref>
													<mediatype>audio</mediatype>
													<trackindex>2</trackindex>
													<clipindex>1</clipindex>
												</link>
												<link>
													<linkclipref>408-13-02-03A5</linkclipref>
													<mediatype>audio</mediatype>
													<trackindex>3</trackindex>
													<clipindex>1</clipindex>
												</link>
												<link>
													<linkclipref>408-13-02-03A6</linkclipref>
													<mediatype>audio</mediatype>
													<trackindex>4</trackindex>
													<clipindex>1</clipindex>
												</link>
												<link>
													<linkclipref>408-13-02-03A7</linkclipref>
													<mediatype>audio</mediatype>
													<trackindex>5</trackindex>
													<clipindex>1</clipindex>
												</link>
												<link>
													<linkclipref>408-13-02-03A8</linkclipref>
													<mediatype>audio</mediatype>
													<trackindex>6</trackindex>
													<clipindex>1</clipindex>
												</link>
												<itemhistory>
													<uuid>C1785437-2A46-4279-83B9-11B97ACAE70E</uuid>
												</itemhistory>
											</clipitem>
											<enabled>TRUE</enabled>
											<locked>FALSE</locked>
											<outputchannelindex>1</outputchannelindex>
										</track>
										<track>
											<clipitem id="408-13-02-03A8">
												<name>408-13-02-03A</name>
												<duration>3750</duration>
												<rate>
													<ntsc>FALSE</ntsc>
													<timebase>25</timebase>
												</rate>
												<in>0</in>
												<out>3750</out>
												<start>0</start>
												<end>3750</end>
												<enabled>TRUE</enabled>
												<anamorphic>FALSE</anamorphic>
												<masterclipid>408-13-02-03A2</masterclipid>
												<syncoffset>0</syncoffset>
												<logginginfo>
													<scene/>
													<shottake/>
													<lognote/>
													<good>FALSE</good>
												</logginginfo>
												<labels>
													<label2/>
												</labels>
												<comments>
													<mastercomment1/>
													<mastercomment2/>
													<mastercomment3/>
													<mastercomment4/>
												</comments>
												<file id="MW-013-2T03 "/>
												<filter>
													<effect>
														<name>Audio Levels</name>
														<effectid>audiolevels</effectid>
														<effectcategory>audiolevels</effectcategory>
														<effecttype>audiolevels</effecttype>
														<mediatype>audio</mediatype>
														<parameter>
															<name>Level</name>
															<parameterid>level</parameterid>
															<valuemin>0</valuemin>
															<valuemax>3.98109</valuemax>
															<value>1</value>
														</parameter>
													</effect>
												</filter>
												<filter>
													<effect>
														<name>Audio Pan</name>
														<effectid>audiopan</effectid>
														<effectcategory>audiopan</effectcategory>
														<effecttype>audiopan</effecttype>
														<mediatype>audio</mediatype>
														<parameter>
															<name>Pan</name>
															<parameterid>pan</parameterid>
															<valuemin>-1</valuemin>
															<valuemax>1</valuemax>
															<value>0</value>
														</parameter>
													</effect>
												</filter>
												<sourcetrack>
													<mediatype>audio</mediatype>
													<trackindex>6</trackindex>
												</sourcetrack>
												<link>
													<linkclipref>408-13-02-03A1</linkclipref>
													<mediatype>video</mediatype>
													<trackindex>1</trackindex>
													<clipindex>1</clipindex>
												</link>
												<link>
													<linkclipref>408-13-02-03A3</linkclipref>
													<mediatype>audio</mediatype>
													<trackindex>1</trackindex>
													<clipindex>1</clipindex>
												</link>
												<link>
													<linkclipref>408-13-02-03A4</linkclipref>
													<mediatype>audio</mediatype>
													<trackindex>2</trackindex>
													<clipindex>1</clipindex>
												</link>
												<link>
													<linkclipref>408-13-02-03A5</linkclipref>
													<mediatype>audio</mediatype>
													<trackindex>3</trackindex>
													<clipindex>1</clipindex>
												</link>
												<link>
													<linkclipref>408-13-02-03A6</linkclipref>
													<mediatype>audio</mediatype>
													<trackindex>4</trackindex>
													<clipindex>1</clipindex>
												</link>
												<link>
													<linkclipref>408-13-02-03A7</linkclipref>
													<mediatype>audio</mediatype>
													<trackindex>5</trackindex>
													<clipindex>1</clipindex>
												</link>
												<link>
													<linkclipref>408-13-02-03A8</linkclipref>
													<mediatype>audio</mediatype>
													<trackindex>6</trackindex>
													<clipindex>1</clipindex>
												</link>
												<itemhistory>
													<uuid>A87F37F9-2401-4529-A782-8E205969A2D9</uuid>
												</itemhistory>
											</clipitem>
											<enabled>TRUE</enabled>
											<locked>FALSE</locked>
											<outputchannelindex>2</outputchannelindex>
										</track>
										<filter>
											<effect>
												<name>Audio Levels</name>
												<effectid>audiolevels</effectid>
												<effectcategory>audiolevels</effectcategory>
												<effecttype>audiolevels</effecttype>
												<mediatype>audio</mediatype>
												<parameter>
													<name>Level</name>
													<parameterid>level</parameterid>
													<valuemin>0</valuemin>
													<valuemax>3.98109</valuemax>
													<value>1</value>
												</parameter>
											</effect>
										</filter>
									</audio>
								</media>
							</clip>
						</angle>
						<angle>
							<activevideoangle>TRUE</activevideoangle>
							<activeaudioangle>TRUE</activeaudioangle>
							<clip id="408-13-02-03B8">
								<uuid>6D03FE51-1C8F-49CF-A474-104C4D494589</uuid>
								<updatebehavior>add</updatebehavior>
								<name>408-13-02-03B</name>
								<duration>3750</duration>
								<rate>
									<ntsc>FALSE</ntsc>
									<timebase>25</timebase>
								</rate>
								<in>0</in>
								<out>3685</out>
								<anamorphic>FALSE</anamorphic>
								<ismasterclip>FALSE</ismasterclip>
								<logginginfo>
									<scene/>
									<shottake/>
									<lognote/>
									<good>FALSE</good>
								</logginginfo>
								<labels>
									<label2/>
								</labels>
								<comments>
									<mastercomment1/>
									<mastercomment2/>
									<mastercomment3/>
									<mastercomment4/>
								</comments>
								<media>
									<video>
										<format>
											<samplecharacteristics>
												<width>1920</width>
												<height>1080</height>
												<anamorphic>FALSE</anamorphic>
												<pixelaspectratio>Square</pixelaspectratio>
												<fielddominance>none</fielddominance>
												<rate>
													<ntsc>FALSE</ntsc>
													<timebase>25</timebase>
												</rate>
												<colordepth>24</colordepth>
												<codec>
													<name>Apple ProRes 422 (Proxy)</name>
													<appspecificdata>
														<appname>Final Cut Pro</appname>
														<appmanufacturer>Apple Inc.</appmanufacturer>
														<appversion>7.0</appversion>
														<data>
															<qtcodec>
																<codecname>Apple ProRes 422 (Proxy)</codecname>
																<codectypename>Apple ProRes 422 (Proxy)</codectypename>
																<codectypecode>apco</codectypecode>
																<codecvendorcode>appl</codecvendorcode>
																<spatialquality>1024</spatialquality>
																<temporalquality>0</temporalquality>
																<keyframerate>0</keyframerate>
																<datarate>0</datarate>
															</qtcodec>
														</data>
													</appspecificdata>
												</codec>
											</samplecharacteristics>
											<appspecificdata>
												<appname>Final Cut Pro</appname>
												<appmanufacturer>Apple Inc.</appmanufacturer>
												<appversion>7.0</appversion>
												<data>
													<fcpimageprocessing>
														<useyuv>TRUE</useyuv>
														<usesuperwhite>FALSE</usesuperwhite>
														<rendermode>YUV8BPP</rendermode>
													</fcpimageprocessing>
												</data>
											</appspecificdata>
										</format>
										<track>
											<clipitem id="408-13-02-03B9">
												<name>408-13-02-03B</name>
												<duration>3750</duration>
												<rate>
													<ntsc>FALSE</ntsc>
													<timebase>25</timebase>
												</rate>
												<in>0</in>
												<out>3750</out>
												<start>0</start>
												<end>3750</end>
												<pixelaspectratio>Square</pixelaspectratio>
												<enabled>TRUE</enabled>
												<anamorphic>FALSE</anamorphic>
												<alphatype>none</alphatype>
												<masterclipid>408-13-02-03B1</masterclipid>
												<syncoffset>0</syncoffset>
												<logginginfo>
													<scene/>
													<shottake/>
													<lognote/>
													<good>FALSE</good>
												</logginginfo>
												<labels>
													<label2/>
												</labels>
												<comments>
													<mastercomment1/>
													<mastercomment2/>
													<mastercomment3/>
													<mastercomment4/>
												</comments>
												<file id="B011_C022_020526 "/>
												<sourcetrack>
													<mediatype>video</mediatype>
												</sourcetrack>
												<link>
													<linkclipref>408-13-02-03B9</linkclipref>
													<mediatype>video</mediatype>
													<trackindex>1</trackindex>
													<clipindex>1</clipindex>
												</link>
												<link>
													<linkclipref>408-13-02-03B10</linkclipref>
													<mediatype>audio</mediatype>
													<trackindex>1</trackindex>
													<clipindex>1</clipindex>
												</link>
												<link>
													<linkclipref>408-13-02-03B11</linkclipref>
													<mediatype>audio</mediatype>
													<trackindex>2</trackindex>
													<clipindex>1</clipindex>
												</link>
												<link>
													<linkclipref>408-13-02-03B12</linkclipref>
													<mediatype>audio</mediatype>
													<trackindex>3</trackindex>
													<clipindex>1</clipindex>
												</link>
												<link>
													<linkclipref>408-13-02-03B13</linkclipref>
													<mediatype>audio</mediatype>
													<trackindex>4</trackindex>
													<clipindex>1</clipindex>
												</link>
												<link>
													<linkclipref>408-13-02-03B14</linkclipref>
													<mediatype>audio</mediatype>
													<trackindex>5</trackindex>
													<clipindex>1</clipindex>
												</link>
												<link>
													<linkclipref>408-13-02-03B15</linkclipref>
													<mediatype>audio</mediatype>
													<trackindex>6</trackindex>
													<clipindex>1</clipindex>
												</link>
												<fielddominance>none</fielddominance>
												<mediadelay>191</mediadelay>
												<itemhistory>
													<uuid>7B16B1EF-0641-4412-B86C-35F4FE46FF9E</uuid>
												</itemhistory>
											</clipitem>
											<enabled>TRUE</enabled>
											<locked>FALSE</locked>
										</track>
									</video>
									<audio>
										<format>
											<samplecharacteristics>
												<depth>16</depth>
												<samplerate>48000</samplerate>
											</samplecharacteristics>
										</format>
										<outputs>
											<group>
												<index>1</index>
												<numchannels>2</numchannels>
												<downmix>0</downmix>
												<channel>
													<index>1</index>
												</channel>
												<channel>
													<index>2</index>
												</channel>
											</group>
										</outputs>
										<outputs>
											<group>
												<index>1</index>
												<numchannels>2</numchannels>
												<downmix>0</downmix>
												<channel>
													<index>1</index>
												</channel>
												<channel>
													<index>2</index>
												</channel>
											</group>
										</outputs>
										<outputs>
											<group>
												<index>1</index>
												<numchannels>2</numchannels>
												<downmix>0</downmix>
												<channel>
													<index>1</index>
												</channel>
												<channel>
													<index>2</index>
												</channel>
											</group>
										</outputs>
										<outputs>
											<group>
												<index>1</index>
												<numchannels>2</numchannels>
												<downmix>0</downmix>
												<channel>
													<index>1</index>
												</channel>
												<channel>
													<index>2</index>
												</channel>
											</group>
										</outputs>
										<outputs>
											<group>
												<index>1</index>
												<numchannels>2</numchannels>
												<downmix>0</downmix>
												<channel>
													<index>1</index>
												</channel>
												<channel>
													<index>2</index>
												</channel>
											</group>
										</outputs>
										<in>0</in>
										<out>3685</out>
										<track>
											<clipitem id="408-13-02-03B10">
												<name>408-13-02-03B</name>
												<duration>3750</duration>
												<rate>
													<ntsc>FALSE</ntsc>
													<timebase>25</timebase>
												</rate>
												<in>0</in>
												<out>3750</out>
												<start>0</start>
												<end>3750</end>
												<enabled>TRUE</enabled>
												<anamorphic>FALSE</anamorphic>
												<masterclipid>408-13-02-03B1</masterclipid>
												<syncoffset>0</syncoffset>
												<logginginfo>
													<scene/>
													<shottake/>
													<lognote/>
													<good>FALSE</good>
												</logginginfo>
												<labels>
													<label2/>
												</labels>
												<comments>
													<mastercomment1/>
													<mastercomment2/>
													<mastercomment3/>
													<mastercomment4/>
												</comments>
												<file id="MW-013-2T03 "/>
												<filter>
													<effect>
														<name>Audio Levels</name>
														<effectid>audiolevels</effectid>
														<effectcategory>audiolevels</effectcategory>
														<effecttype>audiolevels</effecttype>
														<mediatype>audio</mediatype>
														<parameter>
															<name>Level</name>
															<parameterid>level</parameterid>
															<valuemin>0</valuemin>
															<valuemax>3.98109</valuemax>
															<value>1</value>
														</parameter>
													</effect>
												</filter>
												<filter>
													<effect>
														<name>Audio Pan</name>
														<effectid>audiopan</effectid>
														<effectcategory>audiopan</effectcategory>
														<effecttype>audiopan</effecttype>
														<mediatype>audio</mediatype>
														<parameter>
															<name>Pan</name>
															<parameterid>pan</parameterid>
															<valuemin>-1</valuemin>
															<valuemax>1</valuemax>
															<value>0</value>
														</parameter>
													</effect>
												</filter>
												<sourcetrack>
													<mediatype>audio</mediatype>
													<trackindex>1</trackindex>
												</sourcetrack>
												<link>
													<linkclipref>408-13-02-03B9</linkclipref>
													<mediatype>video</mediatype>
													<trackindex>1</trackindex>
													<clipindex>1</clipindex>
												</link>
												<link>
													<linkclipref>408-13-02-03B10</linkclipref>
													<mediatype>audio</mediatype>
													<trackindex>1</trackindex>
													<clipindex>1</clipindex>
												</link>
												<link>
													<linkclipref>408-13-02-03B11</linkclipref>
													<mediatype>audio</mediatype>
													<trackindex>2</trackindex>
													<clipindex>1</clipindex>
												</link>
												<link>
													<linkclipref>408-13-02-03B12</linkclipref>
													<mediatype>audio</mediatype>
													<trackindex>3</trackindex>
													<clipindex>1</clipindex>
												</link>
												<link>
													<linkclipref>408-13-02-03B13</linkclipref>
													<mediatype>audio</mediatype>
													<trackindex>4</trackindex>
													<clipindex>1</clipindex>
												</link>
												<link>
													<linkclipref>408-13-02-03B14</linkclipref>
													<mediatype>audio</mediatype>
													<trackindex>5</trackindex>
													<clipindex>1</clipindex>
												</link>
												<link>
													<linkclipref>408-13-02-03B15</linkclipref>
													<mediatype>audio</mediatype>
													<trackindex>6</trackindex>
													<clipindex>1</clipindex>
												</link>
												<itemhistory>
													<uuid>09DA628F-AD0F-4A1A-9657-C70785698FA5</uuid>
												</itemhistory>
											</clipitem>
											<enabled>TRUE</enabled>
											<locked>FALSE</locked>
											<outputchannelindex>1</outputchannelindex>
										</track>
										<track>
											<clipitem id="408-13-02-03B11">
												<name>408-13-02-03B</name>
												<duration>3750</duration>
												<rate>
													<ntsc>FALSE</ntsc>
													<timebase>25</timebase>
												</rate>
												<in>0</in>
												<out>3750</out>
												<start>0</start>
												<end>3750</end>
												<enabled>TRUE</enabled>
												<anamorphic>FALSE</anamorphic>
												<masterclipid>408-13-02-03B1</masterclipid>
												<syncoffset>0</syncoffset>
												<logginginfo>
													<scene/>
													<shottake/>
													<lognote/>
													<good>FALSE</good>
												</logginginfo>
												<labels>
													<label2/>
												</labels>
												<comments>
													<mastercomment1/>
													<mastercomment2/>
													<mastercomment3/>
													<mastercomment4/>
												</comments>
												<file id="MW-013-2T03 "/>
												<filter>
													<effect>
														<name>Audio Levels</name>
														<effectid>audiolevels</effectid>
														<effectcategory>audiolevels</effectcategory>
														<effecttype>audiolevels</effecttype>
														<mediatype>audio</mediatype>
														<parameter>
															<name>Level</name>
															<parameterid>level</parameterid>
															<valuemin>0</valuemin>
															<valuemax>3.98109</valuemax>
															<value>1</value>
														</parameter>
													</effect>
												</filter>
												<filter>
													<effect>
														<name>Audio Pan</name>
														<effectid>audiopan</effectid>
														<effectcategory>audiopan</effectcategory>
														<effecttype>audiopan</effecttype>
														<mediatype>audio</mediatype>
														<parameter>
															<name>Pan</name>
															<parameterid>pan</parameterid>
															<valuemin>-1</valuemin>
															<valuemax>1</valuemax>
															<value>0</value>
														</parameter>
													</effect>
												</filter>
												<sourcetrack>
													<mediatype>audio</mediatype>
													<trackindex>2</trackindex>
												</sourcetrack>
												<link>
													<linkclipref>408-13-02-03B9</linkclipref>
													<mediatype>video</mediatype>
													<trackindex>1</trackindex>
													<clipindex>1</clipindex>
												</link>
												<link>
													<linkclipref>408-13-02-03B10</linkclipref>
													<mediatype>audio</mediatype>
													<trackindex>1</trackindex>
													<clipindex>1</clipindex>
												</link>
												<link>
													<linkclipref>408-13-02-03B11</linkclipref>
													<mediatype>audio</mediatype>
													<trackindex>2</trackindex>
													<clipindex>1</clipindex>
												</link>
												<link>
													<linkclipref>408-13-02-03B12</linkclipref>
													<mediatype>audio</mediatype>
													<trackindex>3</trackindex>
													<clipindex>1</clipindex>
												</link>
												<link>
													<linkclipref>408-13-02-03B13</linkclipref>
													<mediatype>audio</mediatype>
													<trackindex>4</trackindex>
													<clipindex>1</clipindex>
												</link>
												<link>
													<linkclipref>408-13-02-03B14</linkclipref>
													<mediatype>audio</mediatype>
													<trackindex>5</trackindex>
													<clipindex>1</clipindex>
												</link>
												<link>
													<linkclipref>408-13-02-03B15</linkclipref>
													<mediatype>audio</mediatype>
													<trackindex>6</trackindex>
													<clipindex>1</clipindex>
												</link>
												<itemhistory>
													<uuid>D2D4D05E-4FAF-4484-B8A8-ED8BAA2DFDC1</uuid>
												</itemhistory>
											</clipitem>
											<enabled>TRUE</enabled>
											<locked>FALSE</locked>
											<outputchannelindex>2</outputchannelindex>
										</track>
										<track>
											<clipitem id="408-13-02-03B12">
												<name>408-13-02-03B</name>
												<duration>3750</duration>
												<rate>
													<ntsc>FALSE</ntsc>
													<timebase>25</timebase>
												</rate>
												<in>0</in>
												<out>3750</out>
												<start>0</start>
												<end>3750</end>
												<enabled>TRUE</enabled>
												<anamorphic>FALSE</anamorphic>
												<masterclipid>408-13-02-03B1</masterclipid>
												<syncoffset>0</syncoffset>
												<logginginfo>
													<scene/>
													<shottake/>
													<lognote/>
													<good>FALSE</good>
												</logginginfo>
												<labels>
													<label2/>
												</labels>
												<comments>
													<mastercomment1/>
													<mastercomment2/>
													<mastercomment3/>
													<mastercomment4/>
												</comments>
												<file id="MW-013-2T03 "/>
												<filter>
													<effect>
														<name>Audio Levels</name>
														<effectid>audiolevels</effectid>
														<effectcategory>audiolevels</effectcategory>
														<effecttype>audiolevels</effecttype>
														<mediatype>audio</mediatype>
														<parameter>
															<name>Level</name>
															<parameterid>level</parameterid>
															<valuemin>0</valuemin>
															<valuemax>3.98109</valuemax>
															<value>1</value>
														</parameter>
													</effect>
												</filter>
												<filter>
													<effect>
														<name>Audio Pan</name>
														<effectid>audiopan</effectid>
														<effectcategory>audiopan</effectcategory>
														<effecttype>audiopan</effecttype>
														<mediatype>audio</mediatype>
														<parameter>
															<name>Pan</name>
															<parameterid>pan</parameterid>
															<valuemin>-1</valuemin>
															<valuemax>1</valuemax>
															<value>0</value>
														</parameter>
													</effect>
												</filter>
												<sourcetrack>
													<mediatype>audio</mediatype>
													<trackindex>3</trackindex>
												</sourcetrack>
												<link>
													<linkclipref>408-13-02-03B9</linkclipref>
													<mediatype>video</mediatype>
													<trackindex>1</trackindex>
													<clipindex>1</clipindex>
												</link>
												<link>
													<linkclipref>408-13-02-03B10</linkclipref>
													<mediatype>audio</mediatype>
													<trackindex>1</trackindex>
													<clipindex>1</clipindex>
												</link>
												<link>
													<linkclipref>408-13-02-03B11</linkclipref>
													<mediatype>audio</mediatype>
													<trackindex>2</trackindex>
													<clipindex>1</clipindex>
												</link>
												<link>
													<linkclipref>408-13-02-03B12</linkclipref>
													<mediatype>audio</mediatype>
													<trackindex>3</trackindex>
													<clipindex>1</clipindex>
												</link>
												<link>
													<linkclipref>408-13-02-03B13</linkclipref>
													<mediatype>audio</mediatype>
													<trackindex>4</trackindex>
													<clipindex>1</clipindex>
												</link>
												<link>
													<linkclipref>408-13-02-03B14</linkclipref>
													<mediatype>audio</mediatype>
													<trackindex>5</trackindex>
													<clipindex>1</clipindex>
												</link>
												<link>
													<linkclipref>408-13-02-03B15</linkclipref>
													<mediatype>audio</mediatype>
													<trackindex>6</trackindex>
													<clipindex>1</clipindex>
												</link>
												<itemhistory>
													<uuid>C1C1AE37-6A80-4A37-82D4-831D8D16FD8E</uuid>
												</itemhistory>
											</clipitem>
											<enabled>TRUE</enabled>
											<locked>FALSE</locked>
											<outputchannelindex>1</outputchannelindex>
										</track>
										<track>
											<clipitem id="408-13-02-03B13">
												<name>408-13-02-03B</name>
												<duration>3750</duration>
												<rate>
													<ntsc>FALSE</ntsc>
													<timebase>25</timebase>
												</rate>
												<in>0</in>
												<out>3750</out>
												<start>0</start>
												<end>3750</end>
												<enabled>TRUE</enabled>
												<anamorphic>FALSE</anamorphic>
												<masterclipid>408-13-02-03B1</masterclipid>
												<syncoffset>0</syncoffset>
												<logginginfo>
													<scene/>
													<shottake/>
													<lognote/>
													<good>FALSE</good>
												</logginginfo>
												<labels>
													<label2/>
												</labels>
												<comments>
													<mastercomment1/>
													<mastercomment2/>
													<mastercomment3/>
													<mastercomment4/>
												</comments>
												<file id="MW-013-2T03 "/>
												<filter>
													<effect>
														<name>Audio Levels</name>
														<effectid>audiolevels</effectid>
														<effectcategory>audiolevels</effectcategory>
														<effecttype>audiolevels</effecttype>
														<mediatype>audio</mediatype>
														<parameter>
															<name>Level</name>
															<parameterid>level</parameterid>
															<valuemin>0</valuemin>
															<valuemax>3.98109</valuemax>
															<value>1</value>
														</parameter>
													</effect>
												</filter>
												<filter>
													<effect>
														<name>Audio Pan</name>
														<effectid>audiopan</effectid>
														<effectcategory>audiopan</effectcategory>
														<effecttype>audiopan</effecttype>
														<mediatype>audio</mediatype>
														<parameter>
															<name>Pan</name>
															<parameterid>pan</parameterid>
															<valuemin>-1</valuemin>
															<valuemax>1</valuemax>
															<value>0</value>
														</parameter>
													</effect>
												</filter>
												<sourcetrack>
													<mediatype>audio</mediatype>
													<trackindex>4</trackindex>
												</sourcetrack>
												<link>
													<linkclipref>408-13-02-03B9</linkclipref>
													<mediatype>video</mediatype>
													<trackindex>1</trackindex>
													<clipindex>1</clipindex>
												</link>
												<link>
													<linkclipref>408-13-02-03B10</linkclipref>
													<mediatype>audio</mediatype>
													<trackindex>1</trackindex>
													<clipindex>1</clipindex>
												</link>
												<link>
													<linkclipref>408-13-02-03B11</linkclipref>
													<mediatype>audio</mediatype>
													<trackindex>2</trackindex>
													<clipindex>1</clipindex>
												</link>
												<link>
													<linkclipref>408-13-02-03B12</linkclipref>
													<mediatype>audio</mediatype>
													<trackindex>3</trackindex>
													<clipindex>1</clipindex>
												</link>
												<link>
													<linkclipref>408-13-02-03B13</linkclipref>
													<mediatype>audio</mediatype>
													<trackindex>4</trackindex>
													<clipindex>1</clipindex>
												</link>
												<link>
													<linkclipref>408-13-02-03B14</linkclipref>
													<mediatype>audio</mediatype>
													<trackindex>5</trackindex>
													<clipindex>1</clipindex>
												</link>
												<link>
													<linkclipref>408-13-02-03B15</linkclipref>
													<mediatype>audio</mediatype>
													<trackindex>6</trackindex>
													<clipindex>1</clipindex>
												</link>
												<itemhistory>
													<uuid>E476F65F-F3A6-4260-A16A-9E667E31BBB3</uuid>
												</itemhistory>
											</clipitem>
											<enabled>TRUE</enabled>
											<locked>FALSE</locked>
											<outputchannelindex>2</outputchannelindex>
										</track>
										<track>
											<clipitem id="408-13-02-03B14">
												<name>408-13-02-03B</name>
												<duration>3750</duration>
												<rate>
													<ntsc>FALSE</ntsc>
													<timebase>25</timebase>
												</rate>
												<in>0</in>
												<out>3750</out>
												<start>0</start>
												<end>3750</end>
												<enabled>TRUE</enabled>
												<anamorphic>FALSE</anamorphic>
												<masterclipid>408-13-02-03B1</masterclipid>
												<syncoffset>0</syncoffset>
												<logginginfo>
													<scene/>
													<shottake/>
													<lognote/>
													<good>FALSE</good>
												</logginginfo>
												<labels>
													<label2/>
												</labels>
												<comments>
													<mastercomment1/>
													<mastercomment2/>
													<mastercomment3/>
													<mastercomment4/>
												</comments>
												<file id="MW-013-2T03 "/>
												<filter>
													<effect>
														<name>Audio Levels</name>
														<effectid>audiolevels</effectid>
														<effectcategory>audiolevels</effectcategory>
														<effecttype>audiolevels</effecttype>
														<mediatype>audio</mediatype>
														<parameter>
															<name>Level</name>
															<parameterid>level</parameterid>
															<valuemin>0</valuemin>
															<valuemax>3.98109</valuemax>
															<value>1</value>
														</parameter>
													</effect>
												</filter>
												<filter>
													<effect>
														<name>Audio Pan</name>
														<effectid>audiopan</effectid>
														<effectcategory>audiopan</effectcategory>
														<effecttype>audiopan</effecttype>
														<mediatype>audio</mediatype>
														<parameter>
															<name>Pan</name>
															<parameterid>pan</parameterid>
															<valuemin>-1</valuemin>
															<valuemax>1</valuemax>
															<value>0</value>
														</parameter>
													</effect>
												</filter>
												<sourcetrack>
													<mediatype>audio</mediatype>
													<trackindex>5</trackindex>
												</sourcetrack>
												<link>
													<linkclipref>408-13-02-03B9</linkclipref>
													<mediatype>video</mediatype>
													<trackindex>1</trackindex>
													<clipindex>1</clipindex>
												</link>
												<link>
													<linkclipref>408-13-02-03B10</linkclipref>
													<mediatype>audio</mediatype>
													<trackindex>1</trackindex>
													<clipindex>1</clipindex>
												</link>
												<link>
													<linkclipref>408-13-02-03B11</linkclipref>
													<mediatype>audio</mediatype>
													<trackindex>2</trackindex>
													<clipindex>1</clipindex>
												</link>
												<link>
													<linkclipref>408-13-02-03B12</linkclipref>
													<mediatype>audio</mediatype>
													<trackindex>3</trackindex>
													<clipindex>1</clipindex>
												</link>
												<link>
													<linkclipref>408-13-02-03B13</linkclipref>
													<mediatype>audio</mediatype>
													<trackindex>4</trackindex>
													<clipindex>1</clipindex>
												</link>
												<link>
													<linkclipref>408-13-02-03B14</linkclipref>
													<mediatype>audio</mediatype>
													<trackindex>5</trackindex>
													<clipindex>1</clipindex>
												</link>
												<link>
													<linkclipref>408-13-02-03B15</linkclipref>
													<mediatype>audio</mediatype>
													<trackindex>6</trackindex>
													<clipindex>1</clipindex>
												</link>
												<itemhistory>
													<uuid>785A29E0-1482-4D13-80F9-4C23A40A5390</uuid>
												</itemhistory>
											</clipitem>
											<enabled>TRUE</enabled>
											<locked>FALSE</locked>
											<outputchannelindex>1</outputchannelindex>
										</track>
										<track>
											<clipitem id="408-13-02-03B15">
												<name>408-13-02-03B</name>
												<duration>3750</duration>
												<rate>
													<ntsc>FALSE</ntsc>
													<timebase>25</timebase>
												</rate>
												<in>0</in>
												<out>3750</out>
												<start>0</start>
												<end>3750</end>
												<enabled>TRUE</enabled>
												<anamorphic>FALSE</anamorphic>
												<masterclipid>408-13-02-03B1</masterclipid>
												<syncoffset>0</syncoffset>
												<logginginfo>
													<scene/>
													<shottake/>
													<lognote/>
													<good>FALSE</good>
												</logginginfo>
												<labels>
													<label2/>
												</labels>
												<comments>
													<mastercomment1/>
													<mastercomment2/>
													<mastercomment3/>
													<mastercomment4/>
												</comments>
												<file id="MW-013-2T03 "/>
												<filter>
													<effect>
														<name>Audio Levels</name>
														<effectid>audiolevels</effectid>
														<effectcategory>audiolevels</effectcategory>
														<effecttype>audiolevels</effecttype>
														<mediatype>audio</mediatype>
														<parameter>
															<name>Level</name>
															<parameterid>level</parameterid>
															<valuemin>0</valuemin>
															<valuemax>3.98109</valuemax>
															<value>1</value>
														</parameter>
													</effect>
												</filter>
												<filter>
													<effect>
														<name>Audio Pan</name>
														<effectid>audiopan</effectid>
														<effectcategory>audiopan</effectcategory>
														<effecttype>audiopan</effecttype>
														<mediatype>audio</mediatype>
														<parameter>
															<name>Pan</name>
															<parameterid>pan</parameterid>
															<valuemin>-1</valuemin>
															<valuemax>1</valuemax>
															<value>0</value>
														</parameter>
													</effect>
												</filter>
												<sourcetrack>
													<mediatype>audio</mediatype>
													<trackindex>6</trackindex>
												</sourcetrack>
												<link>
													<linkclipref>408-13-02-03B9</linkclipref>
													<mediatype>video</mediatype>
													<trackindex>1</trackindex>
													<clipindex>1</clipindex>
												</link>
												<link>
													<linkclipref>408-13-02-03B10</linkclipref>
													<mediatype>audio</mediatype>
													<trackindex>1</trackindex>
													<clipindex>1</clipindex>
												</link>
												<link>
													<linkclipref>408-13-02-03B11</linkclipref>
													<mediatype>audio</mediatype>
													<trackindex>2</trackindex>
													<clipindex>1</clipindex>
												</link>
												<link>
													<linkclipref>408-13-02-03B12</linkclipref>
													<mediatype>audio</mediatype>
													<trackindex>3</trackindex>
													<clipindex>1</clipindex>
												</link>
												<link>
													<linkclipref>408-13-02-03B13</linkclipref>
													<mediatype>audio</mediatype>
													<trackindex>4</trackindex>
													<clipindex>1</clipindex>
												</link>
												<link>
													<linkclipref>408-13-02-03B14</linkclipref>
													<mediatype>audio</mediatype>
													<trackindex>5</trackindex>
													<clipindex>1</clipindex>
												</link>
												<link>
													<linkclipref>408-13-02-03B15</linkclipref>
													<mediatype>audio</mediatype>
													<trackindex>6</trackindex>
													<clipindex>1</clipindex>
												</link>
												<itemhistory>
													<uuid>40F2C873-94F5-4523-B2AC-5CE6AE5F16C2</uuid>
												</itemhistory>
											</clipitem>
											<enabled>TRUE</enabled>
											<locked>FALSE</locked>
											<outputchannelindex>2</outputchannelindex>
										</track>
										<filter>
											<effect>
												<name>Audio Levels</name>
												<effectid>audiolevels</effectid>
												<effectcategory>audiolevels</effectcategory>
												<effecttype>audiolevels</effecttype>
												<mediatype>audio</mediatype>
												<parameter>
													<name>Level</name>
													<parameterid>level</parameterid>
													<valuemin>0</valuemin>
													<valuemax>3.98109</valuemax>
													<value>1</value>
												</parameter>
											</effect>
										</filter>
									</audio>
								</media>
							</clip>
						</angle>
						<masterclipid>408-13-02-03B16</masterclipid>
					</multiclip>
					<mediadelay>191</mediadelay>
					<itemhistory>
						<uuid>C5E2FE8C-1DFC-4250-A0AD-8D703AC3E4C3</uuid>
					</itemhistory>
				</clipitem>
				<clipitem id="408-13-01-03B16">
					<name>408-13-01-03B</name>
					<duration>3700</duration>
					<rate>
						<ntsc>FALSE</ntsc>
						<timebase>25</timebase>
					</rate>
					<in>862</in>
					<out>887</out>
					<start>472</start>
					<end>497</end>
					<pixelaspectratio>Square</pixelaspectratio>
					<enabled>TRUE</enabled>
					<anamorphic>FALSE</anamorphic>
					<alphatype>none</alphatype>
					<masterclipid>408-13-01-03B2</masterclipid>
					<syncoffset>0</syncoffset>
					<logginginfo>
						<scene/>
						<shottake/>
						<lognote/>
						<good>FALSE</good>
					</logginginfo>
					<labels>
						<label2/>
					</labels>
					<comments>
						<mastercomment1/>
						<mastercomment2/>
						<mastercomment3/>
						<mastercomment4/>
					</comments>
					<file id="B011_C019_0205CD"/>
					<sourcetrack>
						<mediatype>video</mediatype>
					</sourcetrack>
					<link>
						<linkclipref>408-13-01-03B16</linkclipref>
						<mediatype>video</mediatype>
						<trackindex>1</trackindex>
						<clipindex>6</clipindex>
					</link>
					<link>
						<linkclipref>408-13-01-03B17</linkclipref>
						<mediatype>audio</mediatype>
						<trackindex>1</trackindex>
						<clipindex>5</clipindex>
					</link>
					<link>
						<linkclipref>408-13-01-03B18</linkclipref>
						<mediatype>audio</mediatype>
						<trackindex>2</trackindex>
						<clipindex>5</clipindex>
					</link>
					<link>
						<linkclipref>408-13-01-03B19</linkclipref>
						<mediatype>audio</mediatype>
						<trackindex>3</trackindex>
						<clipindex>5</clipindex>
					</link>
					<link>
						<linkclipref>408-13-01-03B20</linkclipref>
						<mediatype>audio</mediatype>
						<trackindex>4</trackindex>
						<clipindex>5</clipindex>
					</link>
					<link>
						<linkclipref>408-13-01-03B21</linkclipref>
						<mediatype>audio</mediatype>
						<trackindex>5</trackindex>
						<clipindex>5</clipindex>
					</link>
					<link>
						<linkclipref>408-13-01-03B22</linkclipref>
						<mediatype>audio</mediatype>
						<trackindex>6</trackindex>
						<clipindex>5</clipindex>
					</link>
					<fielddominance>none</fielddominance>
					<multiclip id="4">
						<collapsed>FALSE</collapsed>
						<synctype>1</synctype>
						<angle>
							<clip id="408-13-01-03A8"/>
						</angle>
						<angle>
							<activevideoangle>TRUE</activevideoangle>
							<activeaudioangle>TRUE</activeaudioangle>
							<clip id="408-13-01-03B"/>
						</angle>
						<masterclipid>408-13-01-03A16</masterclipid>
					</multiclip>
					<mediadelay>154</mediadelay>
					<itemhistory>
						<uuid>A34FE110-5D3E-4579-978F-EDB589FF5479</uuid>
					</itemhistory>
				</clipitem>
				<clipitem id="408-13-02-03B17">
					<name>408-13-02-03B</name>
					<duration>3750</duration>
					<rate>
						<ntsc>FALSE</ntsc>
						<timebase>25</timebase>
					</rate>
					<in>1138</in>
					<out>1263</out>
					<start>497</start>
					<end>622</end>
					<pixelaspectratio>Square</pixelaspectratio>
					<enabled>TRUE</enabled>
					<anamorphic>FALSE</anamorphic>
					<alphatype>none</alphatype>
					<masterclipid>408-13-02-03B1</masterclipid>
					<syncoffset>0</syncoffset>
					<logginginfo>
						<scene/>
						<shottake/>
						<lognote/>
						<good>FALSE</good>
					</logginginfo>
					<labels>
						<label2/>
					</labels>
					<comments>
						<mastercomment1/>
						<mastercomment2/>
						<mastercomment3/>
						<mastercomment4/>
					</comments>
					<file id="B011_C022_020526 "/>
					<sourcetrack>
						<mediatype>video</mediatype>
					</sourcetrack>
					<link>
						<linkclipref>408-13-02-03B17</linkclipref>
						<mediatype>video</mediatype>
						<trackindex>1</trackindex>
						<clipindex>7</clipindex>
					</link>
					<link>
						<linkclipref>408-13-02-03B18</linkclipref>
						<mediatype>audio</mediatype>
						<trackindex>1</trackindex>
						<clipindex>6</clipindex>
					</link>
					<link>
						<linkclipref>408-13-02-03B19</linkclipref>
						<mediatype>audio</mediatype>
						<trackindex>2</trackindex>
						<clipindex>6</clipindex>
					</link>
					<link>
						<linkclipref>408-13-02-03B20</linkclipref>
						<mediatype>audio</mediatype>
						<trackindex>3</trackindex>
						<clipindex>6</clipindex>
					</link>
					<link>
						<linkclipref>408-13-02-03B21</linkclipref>
						<mediatype>audio</mediatype>
						<trackindex>4</trackindex>
						<clipindex>6</clipindex>
					</link>
					<link>
						<linkclipref>408-13-02-03B22</linkclipref>
						<mediatype>audio</mediatype>
						<trackindex>5</trackindex>
						<clipindex>6</clipindex>
					</link>
					<link>
						<linkclipref>408-13-02-03B23</linkclipref>
						<mediatype>audio</mediatype>
						<trackindex>6</trackindex>
						<clipindex>6</clipindex>
					</link>
					<fielddominance>none</fielddominance>
					<multiclip id="5">
						<collapsed>FALSE</collapsed>
						<synctype>1</synctype>
						<angle>
							<clip id="408-13-02-03A"/>
						</angle>
						<angle>
							<activevideoangle>TRUE</activevideoangle>
							<activeaudioangle>TRUE</activeaudioangle>
							<clip id="408-13-02-03B8"/>
						</angle>
						<masterclipid>408-13-02-03B16</masterclipid>
					</multiclip>
					<mediadelay>191</mediadelay>
					<itemhistory>
						<uuid>4B37016A-AD2D-4ADC-A566-9C0D7D4C3D76</uuid>
					</itemhistory>
				</clipitem>
				<clipitem id="408-13-01-03B23">
					<name>408-13-01-03B</name>
					<duration>3700</duration>
					<rate>
						<ntsc>FALSE</ntsc>
						<timebase>25</timebase>
					</rate>
					<in>999</in>
					<out>1058</out>
					<start>622</start>
					<end>681</end>
					<pixelaspectratio>Square</pixelaspectratio>
					<enabled>TRUE</enabled>
					<anamorphic>FALSE</anamorphic>
					<alphatype>none</alphatype>
					<masterclipid>408-13-01-03B2</masterclipid>
					<syncoffset>0</syncoffset>
					<logginginfo>
						<scene/>
						<shottake/>
						<lognote/>
						<good>FALSE</good>
					</logginginfo>
					<labels>
						<label2/>
					</labels>
					<comments>
						<mastercomment1/>
						<mastercomment2/>
						<mastercomment3/>
						<mastercomment4/>
					</comments>
					<file id="B011_C019_0205CD"/>
					<sourcetrack>
						<mediatype>video</mediatype>
					</sourcetrack>
					<link>
						<linkclipref>408-13-01-03B23</linkclipref>
						<mediatype>video</mediatype>
						<trackindex>1</trackindex>
						<clipindex>8</clipindex>
					</link>
					<link>
						<linkclipref>408-13-01-03B24</linkclipref>
						<mediatype>audio</mediatype>
						<trackindex>1</trackindex>
						<clipindex>7</clipindex>
					</link>
					<link>
						<linkclipref>408-13-01-03B25</linkclipref>
						<mediatype>audio</mediatype>
						<trackindex>2</trackindex>
						<clipindex>7</clipindex>
					</link>
					<link>
						<linkclipref>408-13-01-03B26</linkclipref>
						<mediatype>audio</mediatype>
						<trackindex>3</trackindex>
						<clipindex>7</clipindex>
					</link>
					<link>
						<linkclipref>408-13-01-03B27</linkclipref>
						<mediatype>audio</mediatype>
						<trackindex>4</trackindex>
						<clipindex>7</clipindex>
					</link>
					<link>
						<linkclipref>408-13-01-03B28</linkclipref>
						<mediatype>audio</mediatype>
						<trackindex>5</trackindex>
						<clipindex>7</clipindex>
					</link>
					<link>
						<linkclipref>408-13-01-03B29</linkclipref>
						<mediatype>audio</mediatype>
						<trackindex>6</trackindex>
						<clipindex>7</clipindex>
					</link>
					<fielddominance>none</fielddominance>
					<multiclip id="6">
						<collapsed>FALSE</collapsed>
						<synctype>1</synctype>
						<angle>
							<clip id="408-13-01-03A8"/>
						</angle>
						<angle>
							<activevideoangle>TRUE</activevideoangle>
							<activeaudioangle>TRUE</activeaudioangle>
							<clip id="408-13-01-03B"/>
						</angle>
						<masterclipid>408-13-01-03A16</masterclipid>
					</multiclip>
					<mediadelay>154</mediadelay>
					<itemhistory>
						<uuid>D07F5F68-93AD-48E4-8E1A-9F8CA01E768F</uuid>
					</itemhistory>
				</clipitem>
				<clipitem id="408-13-02-03B24">
					<name>408-13-02-03B</name>
					<duration>3750</duration>
					<rate>
						<ntsc>FALSE</ntsc>
						<timebase>25</timebase>
					</rate>
					<in>1317</in>
					<out>1528</out>
					<start>681</start>
					<end>892</end>
					<pixelaspectratio>Square</pixelaspectratio>
					<enabled>TRUE</enabled>
					<anamorphic>FALSE</anamorphic>
					<alphatype>none</alphatype>
					<masterclipid>408-13-02-03B1</masterclipid>
					<syncoffset>0</syncoffset>
					<logginginfo>
						<scene/>
						<shottake/>
						<lognote/>
						<good>FALSE</good>
					</logginginfo>
					<labels>
						<label2/>
					</labels>
					<comments>
						<mastercomment1/>
						<mastercomment2/>
						<mastercomment3/>
						<mastercomment4/>
					</comments>
					<file id="B011_C022_020526 "/>
					<sourcetrack>
						<mediatype>video</mediatype>
					</sourcetrack>
					<link>
						<linkclipref>408-13-02-03B24</linkclipref>
						<mediatype>video</mediatype>
						<trackindex>1</trackindex>
						<clipindex>9</clipindex>
					</link>
					<link>
						<linkclipref>408-13-02-03B25</linkclipref>
						<mediatype>audio</mediatype>
						<trackindex>1</trackindex>
						<clipindex>8</clipindex>
					</link>
					<link>
						<linkclipref>408-13-02-03B26</linkclipref>
						<mediatype>audio</mediatype>
						<trackindex>2</trackindex>
						<clipindex>8</clipindex>
					</link>
					<link>
						<linkclipref>408-13-02-03B27</linkclipref>
						<mediatype>audio</mediatype>
						<trackindex>3</trackindex>
						<clipindex>8</clipindex>
					</link>
					<link>
						<linkclipref>408-13-02-03B28</linkclipref>
						<mediatype>audio</mediatype>
						<trackindex>4</trackindex>
						<clipindex>8</clipindex>
					</link>
					<link>
						<linkclipref>408-13-02-03B29</linkclipref>
						<mediatype>audio</mediatype>
						<trackindex>5</trackindex>
						<clipindex>8</clipindex>
					</link>
					<link>
						<linkclipref>408-13-02-03B30</linkclipref>
						<mediatype>audio</mediatype>
						<trackindex>6</trackindex>
						<clipindex>8</clipindex>
					</link>
					<fielddominance>none</fielddominance>
					<multiclip id="7">
						<collapsed>FALSE</collapsed>
						<synctype>1</synctype>
						<angle>
							<clip id="408-13-02-03A"/>
						</angle>
						<angle>
							<activevideoangle>TRUE</activevideoangle>
							<activeaudioangle>TRUE</activeaudioangle>
							<clip id="408-13-02-03B8"/>
						</angle>
						<masterclipid>408-13-02-03B16</masterclipid>
					</multiclip>
					<mediadelay>191</mediadelay>
					<itemhistory>
						<uuid>4EC12EBF-3861-4AF6-B27F-F1E1FB4B3CD4</uuid>
					</itemhistory>
				</clipitem>
				<clipitem id="408-13-01-03B30">
					<name>408-13-01-03B</name>
					<duration>3700</duration>
					<rate>
						<ntsc>FALSE</ntsc>
						<timebase>25</timebase>
					</rate>
					<in>1230</in>
					<out>1262</out>
					<start>892</start>
					<end>924</end>
					<pixelaspectratio>Square</pixelaspectratio>
					<enabled>TRUE</enabled>
					<anamorphic>FALSE</anamorphic>
					<alphatype>none</alphatype>
					<masterclipid>408-13-01-03B2</masterclipid>
					<syncoffset>0</syncoffset>
					<logginginfo>
						<scene/>
						<shottake/>
						<lognote/>
						<good>FALSE</good>
					</logginginfo>
					<labels>
						<label2/>
					</labels>
					<comments>
						<mastercomment1/>
						<mastercomment2/>
						<mastercomment3/>
						<mastercomment4/>
					</comments>
					<file id="B011_C019_0205CD"/>
					<sourcetrack>
						<mediatype>video</mediatype>
					</sourcetrack>
					<link>
						<linkclipref>408-13-01-03B30</linkclipref>
						<mediatype>video</mediatype>
						<trackindex>1</trackindex>
						<clipindex>10</clipindex>
					</link>
					<link>
						<linkclipref>408-13-01-03B31</linkclipref>
						<mediatype>audio</mediatype>
						<trackindex>1</trackindex>
						<clipindex>9</clipindex>
					</link>
					<link>
						<linkclipref>408-13-01-03B32</linkclipref>
						<mediatype>audio</mediatype>
						<trackindex>2</trackindex>
						<clipindex>9</clipindex>
					</link>
					<link>
						<linkclipref>408-13-01-03B33</linkclipref>
						<mediatype>audio</mediatype>
						<trackindex>3</trackindex>
						<clipindex>9</clipindex>
					</link>
					<link>
						<linkclipref>408-13-01-03B34</linkclipref>
						<mediatype>audio</mediatype>
						<trackindex>4</trackindex>
						<clipindex>9</clipindex>
					</link>
					<link>
						<linkclipref>408-13-01-03B35</linkclipref>
						<mediatype>audio</mediatype>
						<trackindex>5</trackindex>
						<clipindex>9</clipindex>
					</link>
					<link>
						<linkclipref>408-13-01-03B36</linkclipref>
						<mediatype>audio</mediatype>
						<trackindex>6</trackindex>
						<clipindex>9</clipindex>
					</link>
					<fielddominance>none</fielddominance>
					<multiclip id="8">
						<collapsed>FALSE</collapsed>
						<synctype>1</synctype>
						<angle>
							<clip id="408-13-01-03A8"/>
						</angle>
						<angle>
							<activevideoangle>TRUE</activevideoangle>
							<activeaudioangle>TRUE</activeaudioangle>
							<clip id="408-13-01-03B"/>
						</angle>
						<masterclipid>408-13-01-03A16</masterclipid>
					</multiclip>
					<mediadelay>154</mediadelay>
					<itemhistory>
						<uuid>F2C27C05-1A67-4DB3-89FC-967C7585BC6F</uuid>
					</itemhistory>
				</clipitem>
				<clipitem id="408-13-02-03B31">
					<name>408-13-02-03B</name>
					<duration>3750</duration>
					<rate>
						<ntsc>FALSE</ntsc>
						<timebase>25</timebase>
					</rate>
					<in>1569</in>
					<out>1862</out>
					<start>924</start>
					<end>1217</end>
					<pixelaspectratio>Square</pixelaspectratio>
					<enabled>TRUE</enabled>
					<anamorphic>FALSE</anamorphic>
					<alphatype>none</alphatype>
					<masterclipid>408-13-02-03B1</masterclipid>
					<syncoffset>0</syncoffset>
					<logginginfo>
						<scene/>
						<shottake/>
						<lognote/>
						<good>FALSE</good>
					</logginginfo>
					<labels>
						<label2/>
					</labels>
					<comments>
						<mastercomment1/>
						<mastercomment2/>
						<mastercomment3/>
						<mastercomment4/>
					</comments>
					<file id="B011_C022_020526 "/>
					<sourcetrack>
						<mediatype>video</mediatype>
					</sourcetrack>
					<link>
						<linkclipref>408-13-02-03B31</linkclipref>
						<mediatype>video</mediatype>
						<trackindex>1</trackindex>
						<clipindex>11</clipindex>
					</link>
					<link>
						<linkclipref>408-13-02-03B32</linkclipref>
						<mediatype>audio</mediatype>
						<trackindex>1</trackindex>
						<clipindex>10</clipindex>
					</link>
					<link>
						<linkclipref>408-13-02-03B33</linkclipref>
						<mediatype>audio</mediatype>
						<trackindex>2</trackindex>
						<clipindex>10</clipindex>
					</link>
					<link>
						<linkclipref>408-13-02-03B34</linkclipref>
						<mediatype>audio</mediatype>
						<trackindex>3</trackindex>
						<clipindex>10</clipindex>
					</link>
					<link>
						<linkclipref>408-13-02-03B35</linkclipref>
						<mediatype>audio</mediatype>
						<trackindex>4</trackindex>
						<clipindex>10</clipindex>
					</link>
					<link>
						<linkclipref>408-13-02-03B36</linkclipref>
						<mediatype>audio</mediatype>
						<trackindex>5</trackindex>
						<clipindex>10</clipindex>
					</link>
					<link>
						<linkclipref>408-13-02-03B37</linkclipref>
						<mediatype>audio</mediatype>
						<trackindex>6</trackindex>
						<clipindex>10</clipindex>
					</link>
					<fielddominance>none</fielddominance>
					<multiclip id="9">
						<collapsed>FALSE</collapsed>
						<synctype>1</synctype>
						<angle>
							<clip id="408-13-02-03A"/>
						</angle>
						<angle>
							<activevideoangle>TRUE</activevideoangle>
							<activeaudioangle>TRUE</activeaudioangle>
							<clip id="408-13-02-03B8"/>
						</angle>
						<masterclipid>408-13-02-03B16</masterclipid>
					</multiclip>
					<mediadelay>191</mediadelay>
					<itemhistory>
						<uuid>5A2A7D17-37D4-42A6-92C4-C691489D75EE</uuid>
					</itemhistory>
				</clipitem>
				<clipitem id="408-13-01-03B37">
					<name>408-13-01-03B</name>
					<duration>3700</duration>
					<rate>
						<ntsc>FALSE</ntsc>
						<timebase>25</timebase>
					</rate>
					<in>1523</in>
					<out>1591</out>
					<start>1217</start>
					<end>1285</end>
					<pixelaspectratio>Square</pixelaspectratio>
					<enabled>TRUE</enabled>
					<anamorphic>FALSE</anamorphic>
					<alphatype>none</alphatype>
					<masterclipid>408-13-01-03B2</masterclipid>
					<syncoffset>0</syncoffset>
					<logginginfo>
						<scene/>
						<shottake/>
						<lognote/>
						<good>FALSE</good>
					</logginginfo>
					<labels>
						<label2/>
					</labels>
					<comments>
						<mastercomment1/>
						<mastercomment2/>
						<mastercomment3/>
						<mastercomment4/>
					</comments>
					<file id="B011_C019_0205CD"/>
					<sourcetrack>
						<mediatype>video</mediatype>
					</sourcetrack>
					<link>
						<linkclipref>408-13-01-03B37</linkclipref>
						<mediatype>video</mediatype>
						<trackindex>1</trackindex>
						<clipindex>12</clipindex>
					</link>
					<link>
						<linkclipref>408-13-01-03B38</linkclipref>
						<mediatype>audio</mediatype>
						<trackindex>1</trackindex>
						<clipindex>11</clipindex>
					</link>
					<link>
						<linkclipref>408-13-01-03B39</linkclipref>
						<mediatype>audio</mediatype>
						<trackindex>2</trackindex>
						<clipindex>11</clipindex>
					</link>
					<link>
						<linkclipref>408-13-01-03B40</linkclipref>
						<mediatype>audio</mediatype>
						<trackindex>3</trackindex>
						<clipindex>11</clipindex>
					</link>
					<link>
						<linkclipref>408-13-01-03B41</linkclipref>
						<mediatype>audio</mediatype>
						<trackindex>4</trackindex>
						<clipindex>11</clipindex>
					</link>
					<link>
						<linkclipref>408-13-01-03B42</linkclipref>
						<mediatype>audio</mediatype>
						<trackindex>5</trackindex>
						<clipindex>11</clipindex>
					</link>
					<link>
						<linkclipref>408-13-01-03B43</linkclipref>
						<mediatype>audio</mediatype>
						<trackindex>6</trackindex>
						<clipindex>11</clipindex>
					</link>
					<fielddominance>none</fielddominance>
					<multiclip id="10">
						<collapsed>FALSE</collapsed>
						<synctype>1</synctype>
						<angle>
							<clip id="408-13-01-03A8"/>
						</angle>
						<angle>
							<activevideoangle>TRUE</activevideoangle>
							<activeaudioangle>TRUE</activeaudioangle>
							<clip id="408-13-01-03B"/>
						</angle>
						<masterclipid>408-13-01-03A16</masterclipid>
					</multiclip>
					<mediadelay>154</mediadelay>
					<itemhistory>
						<uuid>49E82819-8309-451B-8470-1800F3264EC6</uuid>
					</itemhistory>
				</clipitem>
				<clipitem id="408-13-02-03B38">
					<name>408-13-02-03B</name>
					<duration>3750</duration>
					<rate>
						<ntsc>FALSE</ntsc>
						<timebase>25</timebase>
					</rate>
					<in>1923</in>
					<out>2018</out>
					<start>1285</start>
					<end>1380</end>
					<pixelaspectratio>Square</pixelaspectratio>
					<enabled>TRUE</enabled>
					<anamorphic>FALSE</anamorphic>
					<alphatype>none</alphatype>
					<masterclipid>408-13-02-03B1</masterclipid>
					<syncoffset>0</syncoffset>
					<logginginfo>
						<scene/>
						<shottake/>
						<lognote/>
						<good>FALSE</good>
					</logginginfo>
					<labels>
						<label2/>
					</labels>
					<comments>
						<mastercomment1/>
						<mastercomment2/>
						<mastercomment3/>
						<mastercomment4/>
					</comments>
					<file id="B011_C022_020526 "/>
					<sourcetrack>
						<mediatype>video</mediatype>
					</sourcetrack>
					<link>
						<linkclipref>408-13-02-03B38</linkclipref>
						<mediatype>video</mediatype>
						<trackindex>1</trackindex>
						<clipindex>13</clipindex>
					</link>
					<link>
						<linkclipref>408-13-02-03B39</linkclipref>
						<mediatype>audio</mediatype>
						<trackindex>1</trackindex>
						<clipindex>12</clipindex>
					</link>
					<link>
						<linkclipref>408-13-02-03B40</linkclipref>
						<mediatype>audio</mediatype>
						<trackindex>2</trackindex>
						<clipindex>12</clipindex>
					</link>
					<link>
						<linkclipref>408-13-02-03B41</linkclipref>
						<mediatype>audio</mediatype>
						<trackindex>3</trackindex>
						<clipindex>12</clipindex>
					</link>
					<link>
						<linkclipref>408-13-02-03B42</linkclipref>
						<mediatype>audio</mediatype>
						<trackindex>4</trackindex>
						<clipindex>12</clipindex>
					</link>
					<link>
						<linkclipref>408-13-02-03B43</linkclipref>
						<mediatype>audio</mediatype>
						<trackindex>5</trackindex>
						<clipindex>12</clipindex>
					</link>
					<link>
						<linkclipref>408-13-02-03B44</linkclipref>
						<mediatype>audio</mediatype>
						<trackindex>6</trackindex>
						<clipindex>12</clipindex>
					</link>
					<fielddominance>none</fielddominance>
					<multiclip id="11">
						<collapsed>FALSE</collapsed>
						<synctype>1</synctype>
						<angle>
							<clip id="408-13-02-03A"/>
						</angle>
						<angle>
							<activevideoangle>TRUE</activevideoangle>
							<activeaudioangle>TRUE</activeaudioangle>
							<clip id="408-13-02-03B8"/>
						</angle>
						<masterclipid>408-13-02-03B16</masterclipid>
					</multiclip>
					<mediadelay>191</mediadelay>
					<itemhistory>
						<uuid>C7F8DFB4-70CA-4530-9801-88A1A19E3B50</uuid>
					</itemhistory>
				</clipitem>
				<clipitem id="408-13-03-05A">
					<name>408-13-03-05A</name>
					<duration>2100</duration>
					<rate>
						<ntsc>FALSE</ntsc>
						<timebase>25</timebase>
					</rate>
					<in>497</in>
					<out>608</out>
					<start>1380</start>
					<end>1491</end>
					<pixelaspectratio>Square</pixelaspectratio>
					<enabled>TRUE</enabled>
					<anamorphic>FALSE</anamorphic>
					<alphatype>none</alphatype>
					<masterclipid>408-13-03-05A1</masterclipid>
					<syncoffset>0</syncoffset>
					<logginginfo>
						<scene/>
						<shottake/>
						<lognote/>
						<good>FALSE</good>
					</logginginfo>
					<labels>
						<label2/>
					</labels>
					<comments>
						<mastercomment1/>
						<mastercomment2/>
						<mastercomment3/>
						<mastercomment4/>
					</comments>
					<file id="A011_C028_0204EJ">
						<name>A011_C028_0204EJ.mov</name>
						<pathurl>file://localhost/Volumes/Xsan2/408_Masha_v_shkure_Zvonorya/PROXY/A011_C028_0204EJ.mov</pathurl>
						<rate>
							<timebase>25</timebase>
						</rate>
						<duration>1942</duration>
						<timecode>
							<rate>
								<timebase>25</timebase>
							</rate>
							<string>00:31:48:03</string>
							<frame>47703</frame>
							<displayformat>NDF</displayformat>
							<source>source</source>
							<reel>
								<name>A011_C028_0204EJ</name>
							</reel>
						</timecode>
						<media>
							<video>
								<duration>1942</duration>
								<samplecharacteristics>
									<width>1920</width>
									<height>1080</height>
								</samplecharacteristics>
							</video>
							<audio>
								<samplecharacteristics>
									<samplerate>48000</samplerate>
									<depth>24</depth>
								</samplecharacteristics>
								<channelcount>2</channelcount>
							</audio>
						</media>
					</file>
					<sourcetrack>
						<mediatype>video</mediatype>
					</sourcetrack>
					<link>
						<linkclipref>408-13-03-05A</linkclipref>
						<mediatype>video</mediatype>
						<trackindex>1</trackindex>
						<clipindex>14</clipindex>
					</link>
					<link>
						<linkclipref>408-13-03-05A2</linkclipref>
						<mediatype>audio</mediatype>
						<trackindex>1</trackindex>
						<clipindex>13</clipindex>
					</link>
					<link>
						<linkclipref>408-13-03-05A3</linkclipref>
						<mediatype>audio</mediatype>
						<trackindex>2</trackindex>
						<clipindex>13</clipindex>
					</link>
					<link>
						<linkclipref>408-13-03-05A4</linkclipref>
						<mediatype>audio</mediatype>
						<trackindex>3</trackindex>
						<clipindex>13</clipindex>
					</link>
					<link>
						<linkclipref>408-13-03-05A5</linkclipref>
						<mediatype>audio</mediatype>
						<trackindex>4</trackindex>
						<clipindex>13</clipindex>
					</link>
					<link>
						<linkclipref>408-13-03-05A6</linkclipref>
						<mediatype>audio</mediatype>
						<trackindex>5</trackindex>
						<clipindex>13</clipindex>
					</link>
					<link>
						<linkclipref>408-13-03-05A7</linkclipref>
						<mediatype>audio</mediatype>
						<trackindex>6</trackindex>
						<clipindex>13</clipindex>
					</link>
					<fielddominance>none</fielddominance>
					<multiclip id="12">
						<collapsed>FALSE</collapsed>
						<synctype>1</synctype>
						<angle>
							<activevideoangle>TRUE</activevideoangle>
							<activeaudioangle>TRUE</activeaudioangle>
							<clip id="408-13-03-05A8">
								<uuid>3C8C9FB8-6507-4AE3-949D-B78D49B5A6DF</uuid>
								<updatebehavior>add</updatebehavior>
								<name>408-13-03-05A</name>
								<duration>2100</duration>
								<rate>
									<ntsc>FALSE</ntsc>
									<timebase>25</timebase>
								</rate>
								<in>0</in>
								<out>2094</out>
								<anamorphic>FALSE</anamorphic>
								<ismasterclip>FALSE</ismasterclip>
								<logginginfo>
									<scene/>
									<shottake/>
									<lognote/>
									<good>FALSE</good>
								</logginginfo>
								<labels>
									<label2/>
								</labels>
								<comments>
									<mastercomment1/>
									<mastercomment2/>
									<mastercomment3/>
									<mastercomment4/>
								</comments>
								<media>
									<video>
										<format>
											<samplecharacteristics>
												<width>1920</width>
												<height>1080</height>
												<anamorphic>FALSE</anamorphic>
												<pixelaspectratio>Square</pixelaspectratio>
												<fielddominance>none</fielddominance>
												<rate>
													<ntsc>FALSE</ntsc>
													<timebase>25</timebase>
												</rate>
												<colordepth>24</colordepth>
												<codec>
													<name>Apple ProRes 422 (Proxy)</name>
													<appspecificdata>
														<appname>Final Cut Pro</appname>
														<appmanufacturer>Apple Inc.</appmanufacturer>
														<appversion>7.0</appversion>
														<data>
															<qtcodec>
																<codecname>Apple ProRes 422 (Proxy)</codecname>
																<codectypename>Apple ProRes 422 (Proxy)</codectypename>
																<codectypecode>apco</codectypecode>
																<codecvendorcode>appl</codecvendorcode>
																<spatialquality>1024</spatialquality>
																<temporalquality>0</temporalquality>
																<keyframerate>0</keyframerate>
																<datarate>0</datarate>
															</qtcodec>
														</data>
													</appspecificdata>
												</codec>
											</samplecharacteristics>
											<appspecificdata>
												<appname>Final Cut Pro</appname>
												<appmanufacturer>Apple Inc.</appmanufacturer>
												<appversion>7.0</appversion>
												<data>
													<fcpimageprocessing>
														<useyuv>TRUE</useyuv>
														<usesuperwhite>FALSE</usesuperwhite>
														<rendermode>YUV8BPP</rendermode>
													</fcpimageprocessing>
												</data>
											</appspecificdata>
										</format>
										<track>
											<clipitem id="408-13-03-05A9">
												<name>408-13-03-05A</name>
												<duration>2100</duration>
												<rate>
													<ntsc>FALSE</ntsc>
													<timebase>25</timebase>
												</rate>
												<in>0</in>
												<out>2100</out>
												<start>0</start>
												<end>2100</end>
												<pixelaspectratio>Square</pixelaspectratio>
												<enabled>TRUE</enabled>
												<anamorphic>FALSE</anamorphic>
												<alphatype>none</alphatype>
												<masterclipid>408-13-03-05A1</masterclipid>
												<syncoffset>0</syncoffset>
												<logginginfo>
													<scene/>
													<shottake/>
													<lognote/>
													<good>FALSE</good>
												</logginginfo>
												<labels>
													<label2/>
												</labels>
												<comments>
													<mastercomment1/>
													<mastercomment2/>
													<mastercomment3/>
													<mastercomment4/>
												</comments>
												<file id="A011_C028_0204EJ"/>
												<sourcetrack>
													<mediatype>video</mediatype>
												</sourcetrack>
												<link>
													<linkclipref>408-13-03-05A9</linkclipref>
													<mediatype>video</mediatype>
													<trackindex>1</trackindex>
													<clipindex>1</clipindex>
												</link>
												<link>
													<linkclipref>408-13-03-05A10</linkclipref>
													<mediatype>audio</mediatype>
													<trackindex>1</trackindex>
													<clipindex>1</clipindex>
												</link>
												<link>
													<linkclipref>408-13-03-05A11</linkclipref>
													<mediatype>audio</mediatype>
													<trackindex>2</trackindex>
													<clipindex>1</clipindex>
												</link>
												<link>
													<linkclipref>408-13-03-05A12</linkclipref>
													<mediatype>audio</mediatype>
													<trackindex>3</trackindex>
													<clipindex>1</clipindex>
												</link>
												<link>
													<linkclipref>408-13-03-05A13</linkclipref>
													<mediatype>audio</mediatype>
													<trackindex>4</trackindex>
													<clipindex>1</clipindex>
												</link>
												<link>
													<linkclipref>408-13-03-05A14</linkclipref>
													<mediatype>audio</mediatype>
													<trackindex>5</trackindex>
													<clipindex>1</clipindex>
												</link>
												<link>
													<linkclipref>408-13-03-05A15</linkclipref>
													<mediatype>audio</mediatype>
													<trackindex>6</trackindex>
													<clipindex>1</clipindex>
												</link>
												<fielddominance>none</fielddominance>
												<mediadelay>152</mediadelay>
												<itemhistory>
													<uuid>A60DE2BB-D033-4328-8E29-E42522993B76</uuid>
												</itemhistory>
											</clipitem>
											<enabled>TRUE</enabled>
											<locked>FALSE</locked>
										</track>
									</video>
									<audio>
										<format>
											<samplecharacteristics>
												<depth>16</depth>
												<samplerate>48000</samplerate>
											</samplecharacteristics>
										</format>
										<outputs>
											<group>
												<index>1</index>
												<numchannels>2</numchannels>
												<downmix>0</downmix>
												<channel>
													<index>1</index>
												</channel>
												<channel>
													<index>2</index>
												</channel>
											</group>
										</outputs>
										<outputs>
											<group>
												<index>1</index>
												<numchannels>2</numchannels>
												<downmix>0</downmix>
												<channel>
													<index>1</index>
												</channel>
												<channel>
													<index>2</index>
												</channel>
											</group>
										</outputs>
										<outputs>
											<group>
												<index>1</index>
												<numchannels>2</numchannels>
												<downmix>0</downmix>
												<channel>
													<index>1</index>
												</channel>
												<channel>
													<index>2</index>
												</channel>
											</group>
										</outputs>
										<outputs>
											<group>
												<index>1</index>
												<numchannels>2</numchannels>
												<downmix>0</downmix>
												<channel>
													<index>1</index>
												</channel>
												<channel>
													<index>2</index>
												</channel>
											</group>
										</outputs>
										<outputs>
											<group>
												<index>1</index>
												<numchannels>2</numchannels>
												<downmix>0</downmix>
												<channel>
													<index>1</index>
												</channel>
												<channel>
													<index>2</index>
												</channel>
											</group>
										</outputs>
										<outputs>
											<group>
												<index>1</index>
												<numchannels>2</numchannels>
												<downmix>0</downmix>
												<channel>
													<index>1</index>
												</channel>
												<channel>
													<index>2</index>
												</channel>
											</group>
										</outputs>
										<in>0</in>
										<out>2094</out>
										<track>
											<clipitem id="408-13-03-05A10">
												<name>408-13-03-05A</name>
												<duration>2100</duration>
												<rate>
													<ntsc>FALSE</ntsc>
													<timebase>25</timebase>
												</rate>
												<in>0</in>
												<out>2100</out>
												<start>0</start>
												<end>2100</end>
												<enabled>TRUE</enabled>
												<anamorphic>FALSE</anamorphic>
												<masterclipid>408-13-03-05A1</masterclipid>
												<syncoffset>0</syncoffset>
												<logginginfo>
													<scene/>
													<shottake/>
													<lognote/>
													<good>FALSE</good>
												</logginginfo>
												<labels>
													<label2/>
												</labels>
												<comments>
													<mastercomment1/>
													<mastercomment2/>
													<mastercomment3/>
													<mastercomment4/>
												</comments>
												<file id="MW-013-3T05 ">
													<name>MW-013-3T05.WAV</name>
													<pathurl>file://localhost/Volumes/Xsan2/408_Masha_v_shkure_Zvonorya/SOUND/14Y02M04/MW-013-3T05.WAV</pathurl>
													<rate>
														<timebase>25</timebase>
													</rate>
													<duration>2100</duration>
													<timecode>
														<rate>
															<timebase>25</timebase>
														</rate>
														<string>00:31:42:00</string>
														<frame>47550</frame>
														<displayformat>NDF</displayformat>
														<source>source</source>
														<reel>
															<name>14Y02M04</name>
														</reel>
													</timecode>
													<media>
														<audio>
															<samplecharacteristics>
																<samplerate>48000</samplerate>
																<depth>24</depth>
															</samplecharacteristics>
															<channelcount>6</channelcount>
														</audio>
													</media>
												</file>
												<filter>
													<effect>
														<name>Audio Levels</name>
														<effectid>audiolevels</effectid>
														<effectcategory>audiolevels</effectcategory>
														<effecttype>audiolevels</effecttype>
														<mediatype>audio</mediatype>
														<parameter>
															<name>Level</name>
															<parameterid>level</parameterid>
															<valuemin>0</valuemin>
															<valuemax>3.98109</valuemax>
															<value>1</value>
														</parameter>
													</effect>
												</filter>
												<filter>
													<effect>
														<name>Audio Pan</name>
														<effectid>audiopan</effectid>
														<effectcategory>audiopan</effectcategory>
														<effecttype>audiopan</effecttype>
														<mediatype>audio</mediatype>
														<parameter>
															<name>Pan</name>
															<parameterid>pan</parameterid>
															<valuemin>-1</valuemin>
															<valuemax>1</valuemax>
															<value>0</value>
														</parameter>
													</effect>
												</filter>
												<sourcetrack>
													<mediatype>audio</mediatype>
													<trackindex>1</trackindex>
												</sourcetrack>
												<link>
													<linkclipref>408-13-03-05A9</linkclipref>
													<mediatype>video</mediatype>
													<trackindex>1</trackindex>
													<clipindex>1</clipindex>
												</link>
												<link>
													<linkclipref>408-13-03-05A10</linkclipref>
													<mediatype>audio</mediatype>
													<trackindex>1</trackindex>
													<clipindex>1</clipindex>
												</link>
												<link>
													<linkclipref>408-13-03-05A11</linkclipref>
													<mediatype>audio</mediatype>
													<trackindex>2</trackindex>
													<clipindex>1</clipindex>
												</link>
												<link>
													<linkclipref>408-13-03-05A12</linkclipref>
													<mediatype>audio</mediatype>
													<trackindex>3</trackindex>
													<clipindex>1</clipindex>
												</link>
												<link>
													<linkclipref>408-13-03-05A13</linkclipref>
													<mediatype>audio</mediatype>
													<trackindex>4</trackindex>
													<clipindex>1</clipindex>
												</link>
												<link>
													<linkclipref>408-13-03-05A14</linkclipref>
													<mediatype>audio</mediatype>
													<trackindex>5</trackindex>
													<clipindex>1</clipindex>
												</link>
												<link>
													<linkclipref>408-13-03-05A15</linkclipref>
													<mediatype>audio</mediatype>
													<trackindex>6</trackindex>
													<clipindex>1</clipindex>
												</link>
												<itemhistory>
													<uuid>8297C57F-87B0-425E-BFE6-1FDFA4FD82C8</uuid>
												</itemhistory>
											</clipitem>
											<enabled>TRUE</enabled>
											<locked>FALSE</locked>
											<outputchannelindex>1</outputchannelindex>
										</track>
										<track>
											<clipitem id="408-13-03-05A11">
												<name>408-13-03-05A</name>
												<duration>2100</duration>
												<rate>
													<ntsc>FALSE</ntsc>
													<timebase>25</timebase>
												</rate>
												<in>0</in>
												<out>2100</out>
												<start>0</start>
												<end>2100</end>
												<enabled>TRUE</enabled>
												<anamorphic>FALSE</anamorphic>
												<masterclipid>408-13-03-05A1</masterclipid>
												<syncoffset>0</syncoffset>
												<logginginfo>
													<scene/>
													<shottake/>
													<lognote/>
													<good>FALSE</good>
												</logginginfo>
												<labels>
													<label2/>
												</labels>
												<comments>
													<mastercomment1/>
													<mastercomment2/>
													<mastercomment3/>
													<mastercomment4/>
												</comments>
												<file id="MW-013-3T05 "/>
												<filter>
													<effect>
														<name>Audio Levels</name>
														<effectid>audiolevels</effectid>
														<effectcategory>audiolevels</effectcategory>
														<effecttype>audiolevels</effecttype>
														<mediatype>audio</mediatype>
														<parameter>
															<name>Level</name>
															<parameterid>level</parameterid>
															<valuemin>0</valuemin>
															<valuemax>3.98109</valuemax>
															<value>1</value>
														</parameter>
													</effect>
												</filter>
												<filter>
													<effect>
														<name>Audio Pan</name>
														<effectid>audiopan</effectid>
														<effectcategory>audiopan</effectcategory>
														<effecttype>audiopan</effecttype>
														<mediatype>audio</mediatype>
														<parameter>
															<name>Pan</name>
															<parameterid>pan</parameterid>
															<valuemin>-1</valuemin>
															<valuemax>1</valuemax>
															<value>0</value>
														</parameter>
													</effect>
												</filter>
												<sourcetrack>
													<mediatype>audio</mediatype>
													<trackindex>2</trackindex>
												</sourcetrack>
												<link>
													<linkclipref>408-13-03-05A9</linkclipref>
													<mediatype>video</mediatype>
													<trackindex>1</trackindex>
													<clipindex>1</clipindex>
												</link>
												<link>
													<linkclipref>408-13-03-05A10</linkclipref>
													<mediatype>audio</mediatype>
													<trackindex>1</trackindex>
													<clipindex>1</clipindex>
												</link>
												<link>
													<linkclipref>408-13-03-05A11</linkclipref>
													<mediatype>audio</mediatype>
													<trackindex>2</trackindex>
													<clipindex>1</clipindex>
												</link>
												<link>
													<linkclipref>408-13-03-05A12</linkclipref>
													<mediatype>audio</mediatype>
													<trackindex>3</trackindex>
													<clipindex>1</clipindex>
												</link>
												<link>
													<linkclipref>408-13-03-05A13</linkclipref>
													<mediatype>audio</mediatype>
													<trackindex>4</trackindex>
													<clipindex>1</clipindex>
												</link>
												<link>
													<linkclipref>408-13-03-05A14</linkclipref>
													<mediatype>audio</mediatype>
													<trackindex>5</trackindex>
													<clipindex>1</clipindex>
												</link>
												<link>
													<linkclipref>408-13-03-05A15</linkclipref>
													<mediatype>audio</mediatype>
													<trackindex>6</trackindex>
													<clipindex>1</clipindex>
												</link>
												<itemhistory>
													<uuid>90C7F684-ECDC-44C6-B648-9C50E89E1FC2</uuid>
												</itemhistory>
											</clipitem>
											<enabled>TRUE</enabled>
											<locked>FALSE</locked>
											<outputchannelindex>2</outputchannelindex>
										</track>
										<track>
											<clipitem id="408-13-03-05A12">
												<name>408-13-03-05A</name>
												<duration>2100</duration>
												<rate>
													<ntsc>FALSE</ntsc>
													<timebase>25</timebase>
												</rate>
												<in>0</in>
												<out>2100</out>
												<start>0</start>
												<end>2100</end>
												<enabled>TRUE</enabled>
												<anamorphic>FALSE</anamorphic>
												<masterclipid>408-13-03-05A1</masterclipid>
												<syncoffset>0</syncoffset>
												<logginginfo>
													<scene/>
													<shottake/>
													<lognote/>
													<good>FALSE</good>
												</logginginfo>
												<labels>
													<label2/>
												</labels>
												<comments>
													<mastercomment1/>
													<mastercomment2/>
													<mastercomment3/>
													<mastercomment4/>
												</comments>
												<file id="MW-013-3T05 "/>
												<filter>
													<effect>
														<name>Audio Levels</name>
														<effectid>audiolevels</effectid>
														<effectcategory>audiolevels</effectcategory>
														<effecttype>audiolevels</effecttype>
														<mediatype>audio</mediatype>
														<parameter>
															<name>Level</name>
															<parameterid>level</parameterid>
															<valuemin>0</valuemin>
															<valuemax>3.98109</valuemax>
															<value>1</value>
														</parameter>
													</effect>
												</filter>
												<filter>
													<effect>
														<name>Audio Pan</name>
														<effectid>audiopan</effectid>
														<effectcategory>audiopan</effectcategory>
														<effecttype>audiopan</effecttype>
														<mediatype>audio</mediatype>
														<parameter>
															<name>Pan</name>
															<parameterid>pan</parameterid>
															<valuemin>-1</valuemin>
															<valuemax>1</valuemax>
															<value>0</value>
														</parameter>
													</effect>
												</filter>
												<sourcetrack>
													<mediatype>audio</mediatype>
													<trackindex>3</trackindex>
												</sourcetrack>
												<link>
													<linkclipref>408-13-03-05A9</linkclipref>
													<mediatype>video</mediatype>
													<trackindex>1</trackindex>
													<clipindex>1</clipindex>
												</link>
												<link>
													<linkclipref>408-13-03-05A10</linkclipref>
													<mediatype>audio</mediatype>
													<trackindex>1</trackindex>
													<clipindex>1</clipindex>
												</link>
												<link>
													<linkclipref>408-13-03-05A11</linkclipref>
													<mediatype>audio</mediatype>
													<trackindex>2</trackindex>
													<clipindex>1</clipindex>
												</link>
												<link>
													<linkclipref>408-13-03-05A12</linkclipref>
													<mediatype>audio</mediatype>
													<trackindex>3</trackindex>
													<clipindex>1</clipindex>
												</link>
												<link>
													<linkclipref>408-13-03-05A13</linkclipref>
													<mediatype>audio</mediatype>
													<trackindex>4</trackindex>
													<clipindex>1</clipindex>
												</link>
												<link>
													<linkclipref>408-13-03-05A14</linkclipref>
													<mediatype>audio</mediatype>
													<trackindex>5</trackindex>
													<clipindex>1</clipindex>
												</link>
												<link>
													<linkclipref>408-13-03-05A15</linkclipref>
													<mediatype>audio</mediatype>
													<trackindex>6</trackindex>
													<clipindex>1</clipindex>
												</link>
												<itemhistory>
													<uuid>B4C093E1-EE5D-4292-8F46-000FD4E77C00</uuid>
												</itemhistory>
											</clipitem>
											<enabled>TRUE</enabled>
											<locked>FALSE</locked>
											<outputchannelindex>1</outputchannelindex>
										</track>
										<track>
											<clipitem id="408-13-03-05A13">
												<name>408-13-03-05A</name>
												<duration>2100</duration>
												<rate>
													<ntsc>FALSE</ntsc>
													<timebase>25</timebase>
												</rate>
												<in>0</in>
												<out>2100</out>
												<start>0</start>
												<end>2100</end>
												<enabled>TRUE</enabled>
												<anamorphic>FALSE</anamorphic>
												<masterclipid>408-13-03-05A1</masterclipid>
												<syncoffset>0</syncoffset>
												<logginginfo>
													<scene/>
													<shottake/>
													<lognote/>
													<good>FALSE</good>
												</logginginfo>
												<labels>
													<label2/>
												</labels>
												<comments>
													<mastercomment1/>
													<mastercomment2/>
													<mastercomment3/>
													<mastercomment4/>
												</comments>
												<file id="MW-013-3T05 "/>
												<filter>
													<effect>
														<name>Audio Levels</name>
														<effectid>audiolevels</effectid>
														<effectcategory>audiolevels</effectcategory>
														<effecttype>audiolevels</effecttype>
														<mediatype>audio</mediatype>
														<parameter>
															<name>Level</name>
															<parameterid>level</parameterid>
															<valuemin>0</valuemin>
															<valuemax>3.98109</valuemax>
															<value>1</value>
														</parameter>
													</effect>
												</filter>
												<filter>
													<effect>
														<name>Audio Pan</name>
														<effectid>audiopan</effectid>
														<effectcategory>audiopan</effectcategory>
														<effecttype>audiopan</effecttype>
														<mediatype>audio</mediatype>
														<parameter>
															<name>Pan</name>
															<parameterid>pan</parameterid>
															<valuemin>-1</valuemin>
															<valuemax>1</valuemax>
															<value>0</value>
														</parameter>
													</effect>
												</filter>
												<sourcetrack>
													<mediatype>audio</mediatype>
													<trackindex>4</trackindex>
												</sourcetrack>
												<link>
													<linkclipref>408-13-03-05A9</linkclipref>
													<mediatype>video</mediatype>
													<trackindex>1</trackindex>
													<clipindex>1</clipindex>
												</link>
												<link>
													<linkclipref>408-13-03-05A10</linkclipref>
													<mediatype>audio</mediatype>
													<trackindex>1</trackindex>
													<clipindex>1</clipindex>
												</link>
												<link>
													<linkclipref>408-13-03-05A11</linkclipref>
													<mediatype>audio</mediatype>
													<trackindex>2</trackindex>
													<clipindex>1</clipindex>
												</link>
												<link>
													<linkclipref>408-13-03-05A12</linkclipref>
													<mediatype>audio</mediatype>
													<trackindex>3</trackindex>
													<clipindex>1</clipindex>
												</link>
												<link>
													<linkclipref>408-13-03-05A13</linkclipref>
													<mediatype>audio</mediatype>
													<trackindex>4</trackindex>
													<clipindex>1</clipindex>
												</link>
												<link>
													<linkclipref>408-13-03-05A14</linkclipref>
													<mediatype>audio</mediatype>
													<trackindex>5</trackindex>
													<clipindex>1</clipindex>
												</link>
												<link>
													<linkclipref>408-13-03-05A15</linkclipref>
													<mediatype>audio</mediatype>
													<trackindex>6</trackindex>
													<clipindex>1</clipindex>
												</link>
												<itemhistory>
													<uuid>5B74A3BD-5F84-467F-8E46-AE55061A7B58</uuid>
												</itemhistory>
											</clipitem>
											<enabled>TRUE</enabled>
											<locked>FALSE</locked>
											<outputchannelindex>2</outputchannelindex>
										</track>
										<track>
											<clipitem id="408-13-03-05A14">
												<name>408-13-03-05A</name>
												<duration>2100</duration>
												<rate>
													<ntsc>FALSE</ntsc>
													<timebase>25</timebase>
												</rate>
												<in>0</in>
												<out>2100</out>
												<start>0</start>
												<end>2100</end>
												<enabled>TRUE</enabled>
												<anamorphic>FALSE</anamorphic>
												<masterclipid>408-13-03-05A1</masterclipid>
												<syncoffset>0</syncoffset>
												<logginginfo>
													<scene/>
													<shottake/>
													<lognote/>
													<good>FALSE</good>
												</logginginfo>
												<labels>
													<label2/>
												</labels>
												<comments>
													<mastercomment1/>
													<mastercomment2/>
													<mastercomment3/>
													<mastercomment4/>
												</comments>
												<file id="MW-013-3T05 "/>
												<filter>
													<effect>
														<name>Audio Levels</name>
														<effectid>audiolevels</effectid>
														<effectcategory>audiolevels</effectcategory>
														<effecttype>audiolevels</effecttype>
														<mediatype>audio</mediatype>
														<parameter>
															<name>Level</name>
															<parameterid>level</parameterid>
															<valuemin>0</valuemin>
															<valuemax>3.98109</valuemax>
															<value>1</value>
														</parameter>
													</effect>
												</filter>
												<filter>
													<effect>
														<name>Audio Pan</name>
														<effectid>audiopan</effectid>
														<effectcategory>audiopan</effectcategory>
														<effecttype>audiopan</effecttype>
														<mediatype>audio</mediatype>
														<parameter>
															<name>Pan</name>
															<parameterid>pan</parameterid>
															<valuemin>-1</valuemin>
															<valuemax>1</valuemax>
															<value>0</value>
														</parameter>
													</effect>
												</filter>
												<sourcetrack>
													<mediatype>audio</mediatype>
													<trackindex>5</trackindex>
												</sourcetrack>
												<link>
													<linkclipref>408-13-03-05A9</linkclipref>
													<mediatype>video</mediatype>
													<trackindex>1</trackindex>
													<clipindex>1</clipindex>
												</link>
												<link>
													<linkclipref>408-13-03-05A10</linkclipref>
													<mediatype>audio</mediatype>
													<trackindex>1</trackindex>
													<clipindex>1</clipindex>
												</link>
												<link>
													<linkclipref>408-13-03-05A11</linkclipref>
													<mediatype>audio</mediatype>
													<trackindex>2</trackindex>
													<clipindex>1</clipindex>
												</link>
												<link>
													<linkclipref>408-13-03-05A12</linkclipref>
													<mediatype>audio</mediatype>
													<trackindex>3</trackindex>
													<clipindex>1</clipindex>
												</link>
												<link>
													<linkclipref>408-13-03-05A13</linkclipref>
													<mediatype>audio</mediatype>
													<trackindex>4</trackindex>
													<clipindex>1</clipindex>
												</link>
												<link>
													<linkclipref>408-13-03-05A14</linkclipref>
													<mediatype>audio</mediatype>
													<trackindex>5</trackindex>
													<clipindex>1</clipindex>
												</link>
												<link>
													<linkclipref>408-13-03-05A15</linkclipref>
													<mediatype>audio</mediatype>
													<trackindex>6</trackindex>
													<clipindex>1</clipindex>
												</link>
												<itemhistory>
													<uuid>8DF09449-AC58-4F01-9789-AEFE3CC5400F</uuid>
												</itemhistory>
											</clipitem>
											<enabled>TRUE</enabled>
											<locked>FALSE</locked>
											<outputchannelindex>1</outputchannelindex>
										</track>
										<track>
											<clipitem id="408-13-03-05A15">
												<name>408-13-03-05A</name>
												<duration>2100</duration>
												<rate>
													<ntsc>FALSE</ntsc>
													<timebase>25</timebase>
												</rate>
												<in>0</in>
												<out>2100</out>
												<start>0</start>
												<end>2100</end>
												<enabled>TRUE</enabled>
												<anamorphic>FALSE</anamorphic>
												<masterclipid>408-13-03-05A1</masterclipid>
												<syncoffset>0</syncoffset>
												<logginginfo>
													<scene/>
													<shottake/>
													<lognote/>
													<good>FALSE</good>
												</logginginfo>
												<labels>
													<label2/>
												</labels>
												<comments>
													<mastercomment1/>
													<mastercomment2/>
													<mastercomment3/>
													<mastercomment4/>
												</comments>
												<file id="MW-013-3T05 "/>
												<filter>
													<effect>
														<name>Audio Levels</name>
														<effectid>audiolevels</effectid>
														<effectcategory>audiolevels</effectcategory>
														<effecttype>audiolevels</effecttype>
														<mediatype>audio</mediatype>
														<parameter>
															<name>Level</name>
															<parameterid>level</parameterid>
															<valuemin>0</valuemin>
															<valuemax>3.98109</valuemax>
															<value>1</value>
														</parameter>
													</effect>
												</filter>
												<filter>
													<effect>
														<name>Audio Pan</name>
														<effectid>audiopan</effectid>
														<effectcategory>audiopan</effectcategory>
														<effecttype>audiopan</effecttype>
														<mediatype>audio</mediatype>
														<parameter>
															<name>Pan</name>
															<parameterid>pan</parameterid>
															<valuemin>-1</valuemin>
															<valuemax>1</valuemax>
															<value>0</value>
														</parameter>
													</effect>
												</filter>
												<sourcetrack>
													<mediatype>audio</mediatype>
													<trackindex>6</trackindex>
												</sourcetrack>
												<link>
													<linkclipref>408-13-03-05A9</linkclipref>
													<mediatype>video</mediatype>
													<trackindex>1</trackindex>
													<clipindex>1</clipindex>
												</link>
												<link>
													<linkclipref>408-13-03-05A10</linkclipref>
													<mediatype>audio</mediatype>
													<trackindex>1</trackindex>
													<clipindex>1</clipindex>
												</link>
												<link>
													<linkclipref>408-13-03-05A11</linkclipref>
													<mediatype>audio</mediatype>
													<trackindex>2</trackindex>
													<clipindex>1</clipindex>
												</link>
												<link>
													<linkclipref>408-13-03-05A12</linkclipref>
													<mediatype>audio</mediatype>
													<trackindex>3</trackindex>
													<clipindex>1</clipindex>
												</link>
												<link>
													<linkclipref>408-13-03-05A13</linkclipref>
													<mediatype>audio</mediatype>
													<trackindex>4</trackindex>
													<clipindex>1</clipindex>
												</link>
												<link>
													<linkclipref>408-13-03-05A14</linkclipref>
													<mediatype>audio</mediatype>
													<trackindex>5</trackindex>
													<clipindex>1</clipindex>
												</link>
												<link>
													<linkclipref>408-13-03-05A15</linkclipref>
													<mediatype>audio</mediatype>
													<trackindex>6</trackindex>
													<clipindex>1</clipindex>
												</link>
												<itemhistory>
													<uuid>7BBE8B69-A30C-4F19-AB90-C184DBBC63D6</uuid>
												</itemhistory>
											</clipitem>
											<enabled>TRUE</enabled>
											<locked>FALSE</locked>
											<outputchannelindex>2</outputchannelindex>
										</track>
										<filter>
											<effect>
												<name>Audio Levels</name>
												<effectid>audiolevels</effectid>
												<effectcategory>audiolevels</effectcategory>
												<effecttype>audiolevels</effecttype>
												<mediatype>audio</mediatype>
												<parameter>
													<name>Level</name>
													<parameterid>level</parameterid>
													<valuemin>0</valuemin>
													<valuemax>3.98109</valuemax>
													<value>1</value>
												</parameter>
											</effect>
										</filter>
									</audio>
								</media>
							</clip>
						</angle>
						<angle>
							<clip id="408-13-03-05B">
								<uuid>E1AABF79-F5D2-4402-B93C-89D68025F72B</uuid>
								<updatebehavior>add</updatebehavior>
								<name>408-13-03-05B</name>
								<duration>2100</duration>
								<rate>
									<ntsc>FALSE</ntsc>
									<timebase>25</timebase>
								</rate>
								<in>0</in>
								<out>2083</out>
								<anamorphic>FALSE</anamorphic>
								<ismasterclip>FALSE</ismasterclip>
								<logginginfo>
									<scene/>
									<shottake/>
									<lognote/>
									<good>FALSE</good>
								</logginginfo>
								<labels>
									<label2/>
								</labels>
								<comments>
									<mastercomment1/>
									<mastercomment2/>
									<mastercomment3/>
									<mastercomment4/>
								</comments>
								<media>
									<video>
										<format>
											<samplecharacteristics>
												<width>1920</width>
												<height>1080</height>
												<anamorphic>FALSE</anamorphic>
												<pixelaspectratio>Square</pixelaspectratio>
												<fielddominance>none</fielddominance>
												<rate>
													<ntsc>FALSE</ntsc>
													<timebase>25</timebase>
												</rate>
												<colordepth>24</colordepth>
												<codec>
													<name>Apple ProRes 422 (Proxy)</name>
													<appspecificdata>
														<appname>Final Cut Pro</appname>
														<appmanufacturer>Apple Inc.</appmanufacturer>
														<appversion>7.0</appversion>
														<data>
															<qtcodec>
																<codecname>Apple ProRes 422 (Proxy)</codecname>
																<codectypename>Apple ProRes 422 (Proxy)</codectypename>
																<codectypecode>apco</codectypecode>
																<codecvendorcode>appl</codecvendorcode>
																<spatialquality>1024</spatialquality>
																<temporalquality>0</temporalquality>
																<keyframerate>0</keyframerate>
																<datarate>0</datarate>
															</qtcodec>
														</data>
													</appspecificdata>
												</codec>
											</samplecharacteristics>
											<appspecificdata>
												<appname>Final Cut Pro</appname>
												<appmanufacturer>Apple Inc.</appmanufacturer>
												<appversion>7.0</appversion>
												<data>
													<fcpimageprocessing>
														<useyuv>TRUE</useyuv>
														<usesuperwhite>FALSE</usesuperwhite>
														<rendermode>YUV8BPP</rendermode>
													</fcpimageprocessing>
												</data>
											</appspecificdata>
										</format>
										<track>
											<clipitem id="408-13-03-05B1">
												<name>408-13-03-05B</name>
												<duration>2100</duration>
												<rate>
													<ntsc>FALSE</ntsc>
													<timebase>25</timebase>
												</rate>
												<in>0</in>
												<out>2100</out>
												<start>0</start>
												<end>2100</end>
												<pixelaspectratio>Square</pixelaspectratio>
												<enabled>TRUE</enabled>
												<anamorphic>FALSE</anamorphic>
												<alphatype>none</alphatype>
												<masterclipid>408-13-03-05B2</masterclipid>
												<syncoffset>0</syncoffset>
												<logginginfo>
													<scene/>
													<shottake/>
													<lognote/>
													<good>FALSE</good>
												</logginginfo>
												<labels>
													<label2/>
												</labels>
												<comments>
													<mastercomment1/>
													<mastercomment2/>
													<mastercomment3/>
													<mastercomment4/>
												</comments>
												<file id="B011_C027_02052L">
													<name>B011_C027_02052L.mov</name>
													<pathurl>file://localhost/Volumes/Xsan2/408_Masha_v_shkure_Zvonorya/PROXY/B011_C027_02052L.mov</pathurl>
													<rate>
														<timebase>25</timebase>
													</rate>
													<duration>1901</duration>
													<timecode>
														<rate>
															<timebase>25</timebase>
														</rate>
														<string>00:31:49:07</string>
														<frame>47732</frame>
														<displayformat>NDF</displayformat>
														<source>source</source>
														<reel>
															<name>B011_C027_02052L</name>
														</reel>
													</timecode>
													<media>
														<video>
															<duration>1901</duration>
															<samplecharacteristics>
																<width>1920</width>
																<height>1080</height>
															</samplecharacteristics>
														</video>
														<audio>
															<samplecharacteristics>
																<samplerate>48000</samplerate>
																<depth>24</depth>
															</samplecharacteristics>
															<channelcount>2</channelcount>
														</audio>
													</media>
												</file>
												<sourcetrack>
													<mediatype>video</mediatype>
												</sourcetrack>
												<link>
													<linkclipref>408-13-03-05B1</linkclipref>
													<mediatype>video</mediatype>
													<trackindex>1</trackindex>
													<clipindex>1</clipindex>
												</link>
												<link>
													<linkclipref>408-13-03-05B3</linkclipref>
													<mediatype>audio</mediatype>
													<trackindex>1</trackindex>
													<clipindex>1</clipindex>
												</link>
												<link>
													<linkclipref>408-13-03-05B4</linkclipref>
													<mediatype>audio</mediatype>
													<trackindex>2</trackindex>
													<clipindex>1</clipindex>
												</link>
												<link>
													<linkclipref>408-13-03-05B5</linkclipref>
													<mediatype>audio</mediatype>
													<trackindex>3</trackindex>
													<clipindex>1</clipindex>
												</link>
												<link>
													<linkclipref>408-13-03-05B6</linkclipref>
													<mediatype>audio</mediatype>
													<trackindex>4</trackindex>
													<clipindex>1</clipindex>
												</link>
												<link>
													<linkclipref>408-13-03-05B7</linkclipref>
													<mediatype>audio</mediatype>
													<trackindex>5</trackindex>
													<clipindex>1</clipindex>
												</link>
												<link>
													<linkclipref>408-13-03-05B8</linkclipref>
													<mediatype>audio</mediatype>
													<trackindex>6</trackindex>
													<clipindex>1</clipindex>
												</link>
												<fielddominance>none</fielddominance>
												<mediadelay>182</mediadelay>
												<itemhistory>
													<uuid>32B52293-B932-4AB7-84C4-CD2EF0E67B81</uuid>
												</itemhistory>
											</clipitem>
											<enabled>TRUE</enabled>
											<locked>FALSE</locked>
										</track>
									</video>
									<audio>
										<format>
											<samplecharacteristics>
												<depth>16</depth>
												<samplerate>48000</samplerate>
											</samplecharacteristics>
										</format>
										<outputs>
											<group>
												<index>1</index>
												<numchannels>2</numchannels>
												<downmix>0</downmix>
												<channel>
													<index>1</index>
												</channel>
												<channel>
													<index>2</index>
												</channel>
											</group>
										</outputs>
										<outputs>
											<group>
												<index>1</index>
												<numchannels>2</numchannels>
												<downmix>0</downmix>
												<channel>
													<index>1</index>
												</channel>
												<channel>
													<index>2</index>
												</channel>
											</group>
										</outputs>
										<outputs>
											<group>
												<index>1</index>
												<numchannels>2</numchannels>
												<downmix>0</downmix>
												<channel>
													<index>1</index>
												</channel>
												<channel>
													<index>2</index>
												</channel>
											</group>
										</outputs>
										<outputs>
											<group>
												<index>1</index>
												<numchannels>2</numchannels>
												<downmix>0</downmix>
												<channel>
													<index>1</index>
												</channel>
												<channel>
													<index>2</index>
												</channel>
											</group>
										</outputs>
										<outputs>
											<group>
												<index>1</index>
												<numchannels>2</numchannels>
												<downmix>0</downmix>
												<channel>
													<index>1</index>
												</channel>
												<channel>
													<index>2</index>
												</channel>
											</group>
										</outputs>
										<outputs>
											<group>
												<index>1</index>
												<numchannels>2</numchannels>
												<downmix>0</downmix>
												<channel>
													<index>1</index>
												</channel>
												<channel>
													<index>2</index>
												</channel>
											</group>
										</outputs>
										<outputs>
											<group>
												<index>1</index>
												<numchannels>2</numchannels>
												<downmix>0</downmix>
												<channel>
													<index>1</index>
												</channel>
												<channel>
													<index>2</index>
												</channel>
											</group>
										</outputs>
										<in>0</in>
										<out>2083</out>
										<track>
											<clipitem id="408-13-03-05B3">
												<name>408-13-03-05B</name>
												<duration>2100</duration>
												<rate>
													<ntsc>FALSE</ntsc>
													<timebase>25</timebase>
												</rate>
												<in>0</in>
												<out>2100</out>
												<start>0</start>
												<end>2100</end>
												<enabled>TRUE</enabled>
												<anamorphic>FALSE</anamorphic>
												<masterclipid>408-13-03-05B2</masterclipid>
												<syncoffset>0</syncoffset>
												<logginginfo>
													<scene/>
													<shottake/>
													<lognote/>
													<good>FALSE</good>
												</logginginfo>
												<labels>
													<label2/>
												</labels>
												<comments>
													<mastercomment1/>
													<mastercomment2/>
													<mastercomment3/>
													<mastercomment4/>
												</comments>
												<file id="MW-013-3T05 "/>
												<filter>
													<effect>
														<name>Audio Levels</name>
														<effectid>audiolevels</effectid>
														<effectcategory>audiolevels</effectcategory>
														<effecttype>audiolevels</effecttype>
														<mediatype>audio</mediatype>
														<parameter>
															<name>Level</name>
															<parameterid>level</parameterid>
															<valuemin>0</valuemin>
															<valuemax>3.98109</valuemax>
															<value>1</value>
														</parameter>
													</effect>
												</filter>
												<filter>
													<effect>
														<name>Audio Pan</name>
														<effectid>audiopan</effectid>
														<effectcategory>audiopan</effectcategory>
														<effecttype>audiopan</effecttype>
														<mediatype>audio</mediatype>
														<parameter>
															<name>Pan</name>
															<parameterid>pan</parameterid>
															<valuemin>-1</valuemin>
															<valuemax>1</valuemax>
															<value>0</value>
														</parameter>
													</effect>
												</filter>
												<sourcetrack>
													<mediatype>audio</mediatype>
													<trackindex>1</trackindex>
												</sourcetrack>
												<link>
													<linkclipref>408-13-03-05B1</linkclipref>
													<mediatype>video</mediatype>
													<trackindex>1</trackindex>
													<clipindex>1</clipindex>
												</link>
												<link>
													<linkclipref>408-13-03-05B3</linkclipref>
													<mediatype>audio</mediatype>
													<trackindex>1</trackindex>
													<clipindex>1</clipindex>
												</link>
												<link>
													<linkclipref>408-13-03-05B4</linkclipref>
													<mediatype>audio</mediatype>
													<trackindex>2</trackindex>
													<clipindex>1</clipindex>
												</link>
												<link>
													<linkclipref>408-13-03-05B5</linkclipref>
													<mediatype>audio</mediatype>
													<trackindex>3</trackindex>
													<clipindex>1</clipindex>
												</link>
												<link>
													<linkclipref>408-13-03-05B6</linkclipref>
													<mediatype>audio</mediatype>
													<trackindex>4</trackindex>
													<clipindex>1</clipindex>
												</link>
												<link>
													<linkclipref>408-13-03-05B7</linkclipref>
													<mediatype>audio</mediatype>
													<trackindex>5</trackindex>
													<clipindex>1</clipindex>
												</link>
												<link>
													<linkclipref>408-13-03-05B8</linkclipref>
													<mediatype>audio</mediatype>
													<trackindex>6</trackindex>
													<clipindex>1</clipindex>
												</link>
												<itemhistory>
													<uuid>63CB7100-DEA1-428B-9BC8-F20D75060AF5</uuid>
												</itemhistory>
											</clipitem>
											<enabled>TRUE</enabled>
											<locked>FALSE</locked>
											<outputchannelindex>1</outputchannelindex>
										</track>
										<track>
											<clipitem id="408-13-03-05B4">
												<name>408-13-03-05B</name>
												<duration>2100</duration>
												<rate>
													<ntsc>FALSE</ntsc>
													<timebase>25</timebase>
												</rate>
												<in>0</in>
												<out>2100</out>
												<start>0</start>
												<end>2100</end>
												<enabled>TRUE</enabled>
												<anamorphic>FALSE</anamorphic>
												<masterclipid>408-13-03-05B2</masterclipid>
												<syncoffset>0</syncoffset>
												<logginginfo>
													<scene/>
													<shottake/>
													<lognote/>
													<good>FALSE</good>
												</logginginfo>
												<labels>
													<label2/>
												</labels>
												<comments>
													<mastercomment1/>
													<mastercomment2/>
													<mastercomment3/>
													<mastercomment4/>
												</comments>
												<file id="MW-013-3T05 "/>
												<filter>
													<effect>
														<name>Audio Levels</name>
														<effectid>audiolevels</effectid>
														<effectcategory>audiolevels</effectcategory>
														<effecttype>audiolevels</effecttype>
														<mediatype>audio</mediatype>
														<parameter>
															<name>Level</name>
															<parameterid>level</parameterid>
															<valuemin>0</valuemin>
															<valuemax>3.98109</valuemax>
															<value>1</value>
														</parameter>
													</effect>
												</filter>
												<filter>
													<effect>
														<name>Audio Pan</name>
														<effectid>audiopan</effectid>
														<effectcategory>audiopan</effectcategory>
														<effecttype>audiopan</effecttype>
														<mediatype>audio</mediatype>
														<parameter>
															<name>Pan</name>
															<parameterid>pan</parameterid>
															<valuemin>-1</valuemin>
															<valuemax>1</valuemax>
															<value>0</value>
														</parameter>
													</effect>
												</filter>
												<sourcetrack>
													<mediatype>audio</mediatype>
													<trackindex>2</trackindex>
												</sourcetrack>
												<link>
													<linkclipref>408-13-03-05B1</linkclipref>
													<mediatype>video</mediatype>
													<trackindex>1</trackindex>
													<clipindex>1</clipindex>
												</link>
												<link>
													<linkclipref>408-13-03-05B3</linkclipref>
													<mediatype>audio</mediatype>
													<trackindex>1</trackindex>
													<clipindex>1</clipindex>
												</link>
												<link>
													<linkclipref>408-13-03-05B4</linkclipref>
													<mediatype>audio</mediatype>
													<trackindex>2</trackindex>
													<clipindex>1</clipindex>
												</link>
												<link>
													<linkclipref>408-13-03-05B5</linkclipref>
													<mediatype>audio</mediatype>
													<trackindex>3</trackindex>
													<clipindex>1</clipindex>
												</link>
												<link>
													<linkclipref>408-13-03-05B6</linkclipref>
													<mediatype>audio</mediatype>
													<trackindex>4</trackindex>
													<clipindex>1</clipindex>
												</link>
												<link>
													<linkclipref>408-13-03-05B7</linkclipref>
													<mediatype>audio</mediatype>
													<trackindex>5</trackindex>
													<clipindex>1</clipindex>
												</link>
												<link>
													<linkclipref>408-13-03-05B8</linkclipref>
													<mediatype>audio</mediatype>
													<trackindex>6</trackindex>
													<clipindex>1</clipindex>
												</link>
												<itemhistory>
													<uuid>4BCEDBE9-8FEB-4587-A426-E49AB383D910</uuid>
												</itemhistory>
											</clipitem>
											<enabled>TRUE</enabled>
											<locked>FALSE</locked>
											<outputchannelindex>2</outputchannelindex>
										</track>
										<track>
											<clipitem id="408-13-03-05B5">
												<name>408-13-03-05B</name>
												<duration>2100</duration>
												<rate>
													<ntsc>FALSE</ntsc>
													<timebase>25</timebase>
												</rate>
												<in>0</in>
												<out>2100</out>
												<start>0</start>
												<end>2100</end>
												<enabled>TRUE</enabled>
												<anamorphic>FALSE</anamorphic>
												<masterclipid>408-13-03-05B2</masterclipid>
												<syncoffset>0</syncoffset>
												<logginginfo>
													<scene/>
													<shottake/>
													<lognote/>
													<good>FALSE</good>
												</logginginfo>
												<labels>
													<label2/>
												</labels>
												<comments>
													<mastercomment1/>
													<mastercomment2/>
													<mastercomment3/>
													<mastercomment4/>
												</comments>
												<file id="MW-013-3T05 "/>
												<filter>
													<effect>
														<name>Audio Levels</name>
														<effectid>audiolevels</effectid>
														<effectcategory>audiolevels</effectcategory>
														<effecttype>audiolevels</effecttype>
														<mediatype>audio</mediatype>
														<parameter>
															<name>Level</name>
															<parameterid>level</parameterid>
															<valuemin>0</valuemin>
															<valuemax>3.98109</valuemax>
															<value>1</value>
														</parameter>
													</effect>
												</filter>
												<filter>
													<effect>
														<name>Audio Pan</name>
														<effectid>audiopan</effectid>
														<effectcategory>audiopan</effectcategory>
														<effecttype>audiopan</effecttype>
														<mediatype>audio</mediatype>
														<parameter>
															<name>Pan</name>
															<parameterid>pan</parameterid>
															<valuemin>-1</valuemin>
															<valuemax>1</valuemax>
															<value>0</value>
														</parameter>
													</effect>
												</filter>
												<sourcetrack>
													<mediatype>audio</mediatype>
													<trackindex>3</trackindex>
												</sourcetrack>
												<link>
													<linkclipref>408-13-03-05B1</linkclipref>
													<mediatype>video</mediatype>
													<trackindex>1</trackindex>
													<clipindex>1</clipindex>
												</link>
												<link>
													<linkclipref>408-13-03-05B3</linkclipref>
													<mediatype>audio</mediatype>
													<trackindex>1</trackindex>
													<clipindex>1</clipindex>
												</link>
												<link>
													<linkclipref>408-13-03-05B4</linkclipref>
													<mediatype>audio</mediatype>
													<trackindex>2</trackindex>
													<clipindex>1</clipindex>
												</link>
												<link>
													<linkclipref>408-13-03-05B5</linkclipref>
													<mediatype>audio</mediatype>
													<trackindex>3</trackindex>
													<clipindex>1</clipindex>
												</link>
												<link>
													<linkclipref>408-13-03-05B6</linkclipref>
													<mediatype>audio</mediatype>
													<trackindex>4</trackindex>
													<clipindex>1</clipindex>
												</link>
												<link>
													<linkclipref>408-13-03-05B7</linkclipref>
													<mediatype>audio</mediatype>
													<trackindex>5</trackindex>
													<clipindex>1</clipindex>
												</link>
												<link>
													<linkclipref>408-13-03-05B8</linkclipref>
													<mediatype>audio</mediatype>
													<trackindex>6</trackindex>
													<clipindex>1</clipindex>
												</link>
												<itemhistory>
													<uuid>391E5C04-F5F4-4F35-9229-BC47D8B11FFE</uuid>
												</itemhistory>
											</clipitem>
											<enabled>TRUE</enabled>
											<locked>FALSE</locked>
											<outputchannelindex>1</outputchannelindex>
										</track>
										<track>
											<clipitem id="408-13-03-05B6">
												<name>408-13-03-05B</name>
												<duration>2100</duration>
												<rate>
													<ntsc>FALSE</ntsc>
													<timebase>25</timebase>
												</rate>
												<in>0</in>
												<out>2100</out>
												<start>0</start>
												<end>2100</end>
												<enabled>TRUE</enabled>
												<anamorphic>FALSE</anamorphic>
												<masterclipid>408-13-03-05B2</masterclipid>
												<syncoffset>0</syncoffset>
												<logginginfo>
													<scene/>
													<shottake/>
													<lognote/>
													<good>FALSE</good>
												</logginginfo>
												<labels>
													<label2/>
												</labels>
												<comments>
													<mastercomment1/>
													<mastercomment2/>
													<mastercomment3/>
													<mastercomment4/>
												</comments>
												<file id="MW-013-3T05 "/>
												<filter>
													<effect>
														<name>Audio Levels</name>
														<effectid>audiolevels</effectid>
														<effectcategory>audiolevels</effectcategory>
														<effecttype>audiolevels</effecttype>
														<mediatype>audio</mediatype>
														<parameter>
															<name>Level</name>
															<parameterid>level</parameterid>
															<valuemin>0</valuemin>
															<valuemax>3.98109</valuemax>
															<value>1</value>
														</parameter>
													</effect>
												</filter>
												<filter>
													<effect>
														<name>Audio Pan</name>
														<effectid>audiopan</effectid>
														<effectcategory>audiopan</effectcategory>
														<effecttype>audiopan</effecttype>
														<mediatype>audio</mediatype>
														<parameter>
															<name>Pan</name>
															<parameterid>pan</parameterid>
															<valuemin>-1</valuemin>
															<valuemax>1</valuemax>
															<value>0</value>
														</parameter>
													</effect>
												</filter>
												<sourcetrack>
													<mediatype>audio</mediatype>
													<trackindex>4</trackindex>
												</sourcetrack>
												<link>
													<linkclipref>408-13-03-05B1</linkclipref>
													<mediatype>video</mediatype>
													<trackindex>1</trackindex>
													<clipindex>1</clipindex>
												</link>
												<link>
													<linkclipref>408-13-03-05B3</linkclipref>
													<mediatype>audio</mediatype>
													<trackindex>1</trackindex>
													<clipindex>1</clipindex>
												</link>
												<link>
													<linkclipref>408-13-03-05B4</linkclipref>
													<mediatype>audio</mediatype>
													<trackindex>2</trackindex>
													<clipindex>1</clipindex>
												</link>
												<link>
													<linkclipref>408-13-03-05B5</linkclipref>
													<mediatype>audio</mediatype>
													<trackindex>3</trackindex>
													<clipindex>1</clipindex>
												</link>
												<link>
													<linkclipref>408-13-03-05B6</linkclipref>
													<mediatype>audio</mediatype>
													<trackindex>4</trackindex>
													<clipindex>1</clipindex>
												</link>
												<link>
													<linkclipref>408-13-03-05B7</linkclipref>
													<mediatype>audio</mediatype>
													<trackindex>5</trackindex>
													<clipindex>1</clipindex>
												</link>
												<link>
													<linkclipref>408-13-03-05B8</linkclipref>
													<mediatype>audio</mediatype>
													<trackindex>6</trackindex>
													<clipindex>1</clipindex>
												</link>
												<itemhistory>
													<uuid>C636DD5E-50CA-4DD6-B4CC-40F3D0715079</uuid>
												</itemhistory>
											</clipitem>
											<enabled>TRUE</enabled>
											<locked>FALSE</locked>
											<outputchannelindex>2</outputchannelindex>
										</track>
										<track>
											<clipitem id="408-13-03-05B7">
												<name>408-13-03-05B</name>
												<duration>2100</duration>
												<rate>
													<ntsc>FALSE</ntsc>
													<timebase>25</timebase>
												</rate>
												<in>0</in>
												<out>2100</out>
												<start>0</start>
												<end>2100</end>
												<enabled>TRUE</enabled>
												<anamorphic>FALSE</anamorphic>
												<masterclipid>408-13-03-05B2</masterclipid>
												<syncoffset>0</syncoffset>
												<logginginfo>
													<scene/>
													<shottake/>
													<lognote/>
													<good>FALSE</good>
												</logginginfo>
												<labels>
													<label2/>
												</labels>
												<comments>
													<mastercomment1/>
													<mastercomment2/>
													<mastercomment3/>
													<mastercomment4/>
												</comments>
												<file id="MW-013-3T05 "/>
												<filter>
													<effect>
														<name>Audio Levels</name>
														<effectid>audiolevels</effectid>
														<effectcategory>audiolevels</effectcategory>
														<effecttype>audiolevels</effecttype>
														<mediatype>audio</mediatype>
														<parameter>
															<name>Level</name>
															<parameterid>level</parameterid>
															<valuemin>0</valuemin>
															<valuemax>3.98109</valuemax>
															<value>1</value>
														</parameter>
													</effect>
												</filter>
												<filter>
													<effect>
														<name>Audio Pan</name>
														<effectid>audiopan</effectid>
														<effectcategory>audiopan</effectcategory>
														<effecttype>audiopan</effecttype>
														<mediatype>audio</mediatype>
														<parameter>
															<name>Pan</name>
															<parameterid>pan</parameterid>
															<valuemin>-1</valuemin>
															<valuemax>1</valuemax>
															<value>0</value>
														</parameter>
													</effect>
												</filter>
												<sourcetrack>
													<mediatype>audio</mediatype>
													<trackindex>5</trackindex>
												</sourcetrack>
												<link>
													<linkclipref>408-13-03-05B1</linkclipref>
													<mediatype>video</mediatype>
													<trackindex>1</trackindex>
													<clipindex>1</clipindex>
												</link>
												<link>
													<linkclipref>408-13-03-05B3</linkclipref>
													<mediatype>audio</mediatype>
													<trackindex>1</trackindex>
													<clipindex>1</clipindex>
												</link>
												<link>
													<linkclipref>408-13-03-05B4</linkclipref>
													<mediatype>audio</mediatype>
													<trackindex>2</trackindex>
													<clipindex>1</clipindex>
												</link>
												<link>
													<linkclipref>408-13-03-05B5</linkclipref>
													<mediatype>audio</mediatype>
													<trackindex>3</trackindex>
													<clipindex>1</clipindex>
												</link>
												<link>
													<linkclipref>408-13-03-05B6</linkclipref>
													<mediatype>audio</mediatype>
													<trackindex>4</trackindex>
													<clipindex>1</clipindex>
												</link>
												<link>
													<linkclipref>408-13-03-05B7</linkclipref>
													<mediatype>audio</mediatype>
													<trackindex>5</trackindex>
													<clipindex>1</clipindex>
												</link>
												<link>
													<linkclipref>408-13-03-05B8</linkclipref>
													<mediatype>audio</mediatype>
													<trackindex>6</trackindex>
													<clipindex>1</clipindex>
												</link>
												<itemhistory>
													<uuid>4BC14C4C-EC43-4E05-B382-F7FCD011959C</uuid>
												</itemhistory>
											</clipitem>
											<enabled>TRUE</enabled>
											<locked>FALSE</locked>
											<outputchannelindex>1</outputchannelindex>
										</track>
										<track>
											<clipitem id="408-13-03-05B8">
												<name>408-13-03-05B</name>
												<duration>2100</duration>
												<rate>
													<ntsc>FALSE</ntsc>
													<timebase>25</timebase>
												</rate>
												<in>0</in>
												<out>2100</out>
												<start>0</start>
												<end>2100</end>
												<enabled>TRUE</enabled>
												<anamorphic>FALSE</anamorphic>
												<masterclipid>408-13-03-05B2</masterclipid>
												<syncoffset>0</syncoffset>
												<logginginfo>
													<scene/>
													<shottake/>
													<lognote/>
													<good>FALSE</good>
												</logginginfo>
												<labels>
													<label2/>
												</labels>
												<comments>
													<mastercomment1/>
													<mastercomment2/>
													<mastercomment3/>
													<mastercomment4/>
												</comments>
												<file id="MW-013-3T05 "/>
												<filter>
													<effect>
														<name>Audio Levels</name>
														<effectid>audiolevels</effectid>
														<effectcategory>audiolevels</effectcategory>
														<effecttype>audiolevels</effecttype>
														<mediatype>audio</mediatype>
														<parameter>
															<name>Level</name>
															<parameterid>level</parameterid>
															<valuemin>0</valuemin>
															<valuemax>3.98109</valuemax>
															<value>1</value>
														</parameter>
													</effect>
												</filter>
												<filter>
													<effect>
														<name>Audio Pan</name>
														<effectid>audiopan</effectid>
														<effectcategory>audiopan</effectcategory>
														<effecttype>audiopan</effecttype>
														<mediatype>audio</mediatype>
														<parameter>
															<name>Pan</name>
															<parameterid>pan</parameterid>
															<valuemin>-1</valuemin>
															<valuemax>1</valuemax>
															<value>0</value>
														</parameter>
													</effect>
												</filter>
												<sourcetrack>
													<mediatype>audio</mediatype>
													<trackindex>6</trackindex>
												</sourcetrack>
												<link>
													<linkclipref>408-13-03-05B1</linkclipref>
													<mediatype>video</mediatype>
													<trackindex>1</trackindex>
													<clipindex>1</clipindex>
												</link>
												<link>
													<linkclipref>408-13-03-05B3</linkclipref>
													<mediatype>audio</mediatype>
													<trackindex>1</trackindex>
													<clipindex>1</clipindex>
												</link>
												<link>
													<linkclipref>408-13-03-05B4</linkclipref>
													<mediatype>audio</mediatype>
													<trackindex>2</trackindex>
													<clipindex>1</clipindex>
												</link>
												<link>
													<linkclipref>408-13-03-05B5</linkclipref>
													<mediatype>audio</mediatype>
													<trackindex>3</trackindex>
													<clipindex>1</clipindex>
												</link>
												<link>
													<linkclipref>408-13-03-05B6</linkclipref>
													<mediatype>audio</mediatype>
													<trackindex>4</trackindex>
													<clipindex>1</clipindex>
												</link>
												<link>
													<linkclipref>408-13-03-05B7</linkclipref>
													<mediatype>audio</mediatype>
													<trackindex>5</trackindex>
													<clipindex>1</clipindex>
												</link>
												<link>
													<linkclipref>408-13-03-05B8</linkclipref>
													<mediatype>audio</mediatype>
													<trackindex>6</trackindex>
													<clipindex>1</clipindex>
												</link>
												<itemhistory>
													<uuid>DF7EF4E5-F8E0-4847-A8AD-2A7ADE56B80F</uuid>
												</itemhistory>
											</clipitem>
											<enabled>TRUE</enabled>
											<locked>FALSE</locked>
											<outputchannelindex>2</outputchannelindex>
										</track>
										<filter>
											<effect>
												<name>Audio Levels</name>
												<effectid>audiolevels</effectid>
												<effectcategory>audiolevels</effectcategory>
												<effecttype>audiolevels</effecttype>
												<mediatype>audio</mediatype>
												<parameter>
													<name>Level</name>
													<parameterid>level</parameterid>
													<valuemin>0</valuemin>
													<valuemax>3.98109</valuemax>
													<value>1</value>
												</parameter>
											</effect>
										</filter>
									</audio>
								</media>
							</clip>
						</angle>
						<masterclipid>408-13-03-05A16</masterclipid>
					</multiclip>
					<mediadelay>152</mediadelay>
					<itemhistory>
						<uuid>AC58CFF9-943A-4FA7-87B3-44E4A6A01C69</uuid>
					</itemhistory>
				</clipitem>
				<clipitem id="408-13-03-05B9">
					<name>408-13-03-05B</name>
					<duration>2100</duration>
					<rate>
						<ntsc>FALSE</ntsc>
						<timebase>25</timebase>
					</rate>
					<in>608</in>
					<out>690</out>
					<start>1491</start>
					<end>1573</end>
					<pixelaspectratio>Square</pixelaspectratio>
					<enabled>TRUE</enabled>
					<anamorphic>FALSE</anamorphic>
					<alphatype>none</alphatype>
					<masterclipid>408-13-03-05B2</masterclipid>
					<syncoffset>0</syncoffset>
					<logginginfo>
						<scene/>
						<shottake/>
						<lognote/>
						<good>FALSE</good>
					</logginginfo>
					<labels>
						<label2/>
					</labels>
					<comments>
						<mastercomment1/>
						<mastercomment2/>
						<mastercomment3/>
						<mastercomment4/>
					</comments>
					<file id="B011_C027_02052L"/>
					<sourcetrack>
						<mediatype>video</mediatype>
					</sourcetrack>
					<link>
						<linkclipref>408-13-03-05B9</linkclipref>
						<mediatype>video</mediatype>
						<trackindex>1</trackindex>
						<clipindex>15</clipindex>
					</link>
					<link>
						<linkclipref>408-13-03-05B10</linkclipref>
						<mediatype>audio</mediatype>
						<trackindex>1</trackindex>
						<clipindex>14</clipindex>
					</link>
					<link>
						<linkclipref>408-13-03-05B11</linkclipref>
						<mediatype>audio</mediatype>
						<trackindex>2</trackindex>
						<clipindex>14</clipindex>
					</link>
					<link>
						<linkclipref>408-13-03-05B12</linkclipref>
						<mediatype>audio</mediatype>
						<trackindex>3</trackindex>
						<clipindex>14</clipindex>
					</link>
					<link>
						<linkclipref>408-13-03-05B13</linkclipref>
						<mediatype>audio</mediatype>
						<trackindex>4</trackindex>
						<clipindex>14</clipindex>
					</link>
					<link>
						<linkclipref>408-13-03-05B14</linkclipref>
						<mediatype>audio</mediatype>
						<trackindex>5</trackindex>
						<clipindex>14</clipindex>
					</link>
					<link>
						<linkclipref>408-13-03-05B15</linkclipref>
						<mediatype>audio</mediatype>
						<trackindex>6</trackindex>
						<clipindex>14</clipindex>
					</link>
					<fielddominance>none</fielddominance>
					<multiclip id="13">
						<collapsed>FALSE</collapsed>
						<synctype>1</synctype>
						<angle>
							<clip id="408-13-03-05A8"/>
						</angle>
						<angle>
							<activevideoangle>TRUE</activevideoangle>
							<activeaudioangle>TRUE</activeaudioangle>
							<clip id="408-13-03-05B"/>
						</angle>
						<masterclipid>408-13-03-05A16</masterclipid>
					</multiclip>
					<mediadelay>182</mediadelay>
					<itemhistory>
						<uuid>5017A605-3D34-497B-92B9-B26194C1EE4C</uuid>
					</itemhistory>
				</clipitem>
				<clipitem id="408-13-03-05A17">
					<name>408-13-03-05A</name>
					<duration>2100</duration>
					<rate>
						<ntsc>FALSE</ntsc>
						<timebase>25</timebase>
					</rate>
					<in>690</in>
					<out>973</out>
					<start>1573</start>
					<end>1856</end>
					<pixelaspectratio>Square</pixelaspectratio>
					<enabled>TRUE</enabled>
					<anamorphic>FALSE</anamorphic>
					<alphatype>none</alphatype>
					<masterclipid>408-13-03-05A1</masterclipid>
					<syncoffset>0</syncoffset>
					<logginginfo>
						<scene/>
						<shottake/>
						<lognote/>
						<good>FALSE</good>
					</logginginfo>
					<labels>
						<label2/>
					</labels>
					<comments>
						<mastercomment1/>
						<mastercomment2/>
						<mastercomment3/>
						<mastercomment4/>
					</comments>
					<file id="A011_C028_0204EJ"/>
					<sourcetrack>
						<mediatype>video</mediatype>
					</sourcetrack>
					<link>
						<linkclipref>408-13-03-05A17</linkclipref>
						<mediatype>video</mediatype>
						<trackindex>1</trackindex>
						<clipindex>16</clipindex>
					</link>
					<link>
						<linkclipref>408-13-03-05A18</linkclipref>
						<mediatype>audio</mediatype>
						<trackindex>1</trackindex>
						<clipindex>15</clipindex>
					</link>
					<link>
						<linkclipref>408-13-03-05A19</linkclipref>
						<mediatype>audio</mediatype>
						<trackindex>2</trackindex>
						<clipindex>15</clipindex>
					</link>
					<link>
						<linkclipref>408-13-03-05A20</linkclipref>
						<mediatype>audio</mediatype>
						<trackindex>3</trackindex>
						<clipindex>15</clipindex>
					</link>
					<link>
						<linkclipref>408-13-03-05A21</linkclipref>
						<mediatype>audio</mediatype>
						<trackindex>4</trackindex>
						<clipindex>15</clipindex>
					</link>
					<link>
						<linkclipref>408-13-03-05A22</linkclipref>
						<mediatype>audio</mediatype>
						<trackindex>5</trackindex>
						<clipindex>15</clipindex>
					</link>
					<link>
						<linkclipref>408-13-03-05A23</linkclipref>
						<mediatype>audio</mediatype>
						<trackindex>6</trackindex>
						<clipindex>15</clipindex>
					</link>
					<fielddominance>none</fielddominance>
					<multiclip id="14">
						<collapsed>FALSE</collapsed>
						<synctype>1</synctype>
						<angle>
							<activevideoangle>TRUE</activevideoangle>
							<activeaudioangle>TRUE</activeaudioangle>
							<clip id="408-13-03-05A8"/>
						</angle>
						<angle>
							<clip id="408-13-03-05B"/>
						</angle>
						<masterclipid>408-13-03-05A16</masterclipid>
					</multiclip>
					<mediadelay>152</mediadelay>
					<itemhistory>
						<uuid>D72D9493-CE94-4F2C-ACE6-B44606FE8FF5</uuid>
					</itemhistory>
				</clipitem>
				<clipitem id="408-13-02-03B45">
					<name>408-13-02-03B</name>
					<duration>3750</duration>
					<rate>
						<ntsc>FALSE</ntsc>
						<timebase>25</timebase>
					</rate>
					<in>2491</in>
					<out>2562</out>
					<start>1856</start>
					<end>1927</end>
					<pixelaspectratio>Square</pixelaspectratio>
					<enabled>TRUE</enabled>
					<anamorphic>FALSE</anamorphic>
					<alphatype>none</alphatype>
					<masterclipid>408-13-02-03B1</masterclipid>
					<syncoffset>0</syncoffset>
					<logginginfo>
						<scene/>
						<shottake/>
						<lognote/>
						<good>FALSE</good>
					</logginginfo>
					<labels>
						<label2/>
					</labels>
					<comments>
						<mastercomment1/>
						<mastercomment2/>
						<mastercomment3/>
						<mastercomment4/>
					</comments>
					<file id="B011_C022_020526 "/>
					<sourcetrack>
						<mediatype>video</mediatype>
					</sourcetrack>
					<link>
						<linkclipref>408-13-02-03B45</linkclipref>
						<mediatype>video</mediatype>
						<trackindex>1</trackindex>
						<clipindex>17</clipindex>
					</link>
					<link>
						<linkclipref>408-13-02-03B46</linkclipref>
						<mediatype>audio</mediatype>
						<trackindex>1</trackindex>
						<clipindex>16</clipindex>
					</link>
					<link>
						<linkclipref>408-13-02-03B47</linkclipref>
						<mediatype>audio</mediatype>
						<trackindex>2</trackindex>
						<clipindex>16</clipindex>
					</link>
					<link>
						<linkclipref>408-13-02-03B48</linkclipref>
						<mediatype>audio</mediatype>
						<trackindex>3</trackindex>
						<clipindex>16</clipindex>
					</link>
					<link>
						<linkclipref>408-13-02-03B49</linkclipref>
						<mediatype>audio</mediatype>
						<trackindex>4</trackindex>
						<clipindex>16</clipindex>
					</link>
					<link>
						<linkclipref>408-13-02-03B50</linkclipref>
						<mediatype>audio</mediatype>
						<trackindex>5</trackindex>
						<clipindex>16</clipindex>
					</link>
					<link>
						<linkclipref>408-13-02-03B51</linkclipref>
						<mediatype>audio</mediatype>
						<trackindex>6</trackindex>
						<clipindex>16</clipindex>
					</link>
					<fielddominance>none</fielddominance>
					<multiclip id="15">
						<collapsed>FALSE</collapsed>
						<synctype>1</synctype>
						<angle>
							<clip id="408-13-02-03A"/>
						</angle>
						<angle>
							<activevideoangle>TRUE</activevideoangle>
							<activeaudioangle>TRUE</activeaudioangle>
							<clip id="408-13-02-03B8"/>
						</angle>
						<masterclipid>408-13-02-03B16</masterclipid>
					</multiclip>
					<mediadelay>191</mediadelay>
					<itemhistory>
						<uuid>95230CDB-D76D-4E2A-A262-B6387EA05EBF</uuid>
					</itemhistory>
				</clipitem>
				<clipitem id="408-13-01-03B44">
					<name>408-13-01-03B</name>
					<duration>3700</duration>
					<rate>
						<ntsc>FALSE</ntsc>
						<timebase>25</timebase>
					</rate>
					<in>2529</in>
					<out>2572</out>
					<start>1927</start>
					<end>1970</end>
					<pixelaspectratio>Square</pixelaspectratio>
					<enabled>TRUE</enabled>
					<anamorphic>FALSE</anamorphic>
					<alphatype>none</alphatype>
					<masterclipid>408-13-01-03B2</masterclipid>
					<syncoffset>0</syncoffset>
					<logginginfo>
						<scene/>
						<shottake/>
						<lognote/>
						<good>FALSE</good>
					</logginginfo>
					<labels>
						<label2/>
					</labels>
					<comments>
						<mastercomment1/>
						<mastercomment2/>
						<mastercomment3/>
						<mastercomment4/>
					</comments>
					<file id="B011_C019_0205CD"/>
					<sourcetrack>
						<mediatype>video</mediatype>
					</sourcetrack>
					<link>
						<linkclipref>408-13-01-03B44</linkclipref>
						<mediatype>video</mediatype>
						<trackindex>1</trackindex>
						<clipindex>18</clipindex>
					</link>
					<link>
						<linkclipref>408-13-01-03B45</linkclipref>
						<mediatype>audio</mediatype>
						<trackindex>1</trackindex>
						<clipindex>17</clipindex>
					</link>
					<link>
						<linkclipref>408-13-01-03B46</linkclipref>
						<mediatype>audio</mediatype>
						<trackindex>2</trackindex>
						<clipindex>17</clipindex>
					</link>
					<link>
						<linkclipref>408-13-01-03B47</linkclipref>
						<mediatype>audio</mediatype>
						<trackindex>3</trackindex>
						<clipindex>17</clipindex>
					</link>
					<link>
						<linkclipref>408-13-01-03B48</linkclipref>
						<mediatype>audio</mediatype>
						<trackindex>4</trackindex>
						<clipindex>17</clipindex>
					</link>
					<link>
						<linkclipref>408-13-01-03B49</linkclipref>
						<mediatype>audio</mediatype>
						<trackindex>5</trackindex>
						<clipindex>17</clipindex>
					</link>
					<link>
						<linkclipref>408-13-01-03B50</linkclipref>
						<mediatype>audio</mediatype>
						<trackindex>6</trackindex>
						<clipindex>17</clipindex>
					</link>
					<fielddominance>none</fielddominance>
					<multiclip id="16">
						<collapsed>FALSE</collapsed>
						<synctype>1</synctype>
						<angle>
							<clip id="408-13-01-03A8"/>
						</angle>
						<angle>
							<activevideoangle>TRUE</activevideoangle>
							<activeaudioangle>TRUE</activeaudioangle>
							<clip id="408-13-01-03B"/>
						</angle>
						<masterclipid>408-13-01-03A16</masterclipid>
					</multiclip>
					<mediadelay>154</mediadelay>
					<itemhistory>
						<uuid>FC565C04-4562-48ED-B6A6-E7794DCE0E70</uuid>
					</itemhistory>
				</clipitem>
				<clipitem id="408-13-02-03B52">
					<name>408-13-02-03B</name>
					<duration>3750</duration>
					<rate>
						<ntsc>FALSE</ntsc>
						<timebase>25</timebase>
					</rate>
					<in>2585</in>
					<out>2827</out>
					<start>1970</start>
					<end>2212</end>
					<pixelaspectratio>Square</pixelaspectratio>
					<enabled>TRUE</enabled>
					<anamorphic>FALSE</anamorphic>
					<alphatype>none</alphatype>
					<masterclipid>408-13-02-03B1</masterclipid>
					<syncoffset>0</syncoffset>
					<logginginfo>
						<scene/>
						<shottake/>
						<lognote/>
						<good>FALSE</good>
					</logginginfo>
					<labels>
						<label2/>
					</labels>
					<comments>
						<mastercomment1/>
						<mastercomment2/>
						<mastercomment3/>
						<mastercomment4/>
					</comments>
					<file id="B011_C022_020526 "/>
					<sourcetrack>
						<mediatype>video</mediatype>
					</sourcetrack>
					<link>
						<linkclipref>408-13-02-03B52</linkclipref>
						<mediatype>video</mediatype>
						<trackindex>1</trackindex>
						<clipindex>19</clipindex>
					</link>
					<link>
						<linkclipref>408-13-02-03B53</linkclipref>
						<mediatype>audio</mediatype>
						<trackindex>1</trackindex>
						<clipindex>18</clipindex>
					</link>
					<link>
						<linkclipref>408-13-02-03B54</linkclipref>
						<mediatype>audio</mediatype>
						<trackindex>2</trackindex>
						<clipindex>18</clipindex>
					</link>
					<link>
						<linkclipref>408-13-02-03B55</linkclipref>
						<mediatype>audio</mediatype>
						<trackindex>3</trackindex>
						<clipindex>18</clipindex>
					</link>
					<link>
						<linkclipref>408-13-02-03B56</linkclipref>
						<mediatype>audio</mediatype>
						<trackindex>4</trackindex>
						<clipindex>18</clipindex>
					</link>
					<link>
						<linkclipref>408-13-02-03B57</linkclipref>
						<mediatype>audio</mediatype>
						<trackindex>5</trackindex>
						<clipindex>18</clipindex>
					</link>
					<link>
						<linkclipref>408-13-02-03B58</linkclipref>
						<mediatype>audio</mediatype>
						<trackindex>6</trackindex>
						<clipindex>18</clipindex>
					</link>
					<fielddominance>none</fielddominance>
					<multiclip id="17">
						<collapsed>FALSE</collapsed>
						<synctype>1</synctype>
						<angle>
							<clip id="408-13-02-03A"/>
						</angle>
						<angle>
							<activevideoangle>TRUE</activevideoangle>
							<activeaudioangle>TRUE</activeaudioangle>
							<clip id="408-13-02-03B8"/>
						</angle>
						<masterclipid>408-13-02-03B16</masterclipid>
					</multiclip>
					<mediadelay>191</mediadelay>
					<itemhistory>
						<uuid>8E0BF908-706D-4488-BF66-6F18E757989D</uuid>
					</itemhistory>
				</clipitem>
				<clipitem id="408-13-01-03B51">
					<name>408-13-01-03B</name>
					<duration>3700</duration>
					<rate>
						<ntsc>FALSE</ntsc>
						<timebase>25</timebase>
					</rate>
					<in>2799</in>
					<out>2816</out>
					<start>2212</start>
					<end>2229</end>
					<pixelaspectratio>Square</pixelaspectratio>
					<enabled>TRUE</enabled>
					<anamorphic>FALSE</anamorphic>
					<alphatype>none</alphatype>
					<masterclipid>408-13-01-03B2</masterclipid>
					<syncoffset>0</syncoffset>
					<logginginfo>
						<scene/>
						<shottake/>
						<lognote/>
						<good>FALSE</good>
					</logginginfo>
					<labels>
						<label2/>
					</labels>
					<comments>
						<mastercomment1/>
						<mastercomment2/>
						<mastercomment3/>
						<mastercomment4/>
					</comments>
					<file id="B011_C019_0205CD"/>
					<sourcetrack>
						<mediatype>video</mediatype>
					</sourcetrack>
					<link>
						<linkclipref>408-13-01-03B51</linkclipref>
						<mediatype>video</mediatype>
						<trackindex>1</trackindex>
						<clipindex>20</clipindex>
					</link>
					<link>
						<linkclipref>408-13-01-03B52</linkclipref>
						<mediatype>audio</mediatype>
						<trackindex>1</trackindex>
						<clipindex>19</clipindex>
					</link>
					<link>
						<linkclipref>408-13-01-03B53</linkclipref>
						<mediatype>audio</mediatype>
						<trackindex>2</trackindex>
						<clipindex>19</clipindex>
					</link>
					<link>
						<linkclipref>408-13-01-03B54</linkclipref>
						<mediatype>audio</mediatype>
						<trackindex>3</trackindex>
						<clipindex>19</clipindex>
					</link>
					<link>
						<linkclipref>408-13-01-03B55</linkclipref>
						<mediatype>audio</mediatype>
						<trackindex>4</trackindex>
						<clipindex>19</clipindex>
					</link>
					<link>
						<linkclipref>408-13-01-03B56</linkclipref>
						<mediatype>audio</mediatype>
						<trackindex>5</trackindex>
						<clipindex>19</clipindex>
					</link>
					<link>
						<linkclipref>408-13-01-03B57</linkclipref>
						<mediatype>audio</mediatype>
						<trackindex>6</trackindex>
						<clipindex>19</clipindex>
					</link>
					<fielddominance>none</fielddominance>
					<multiclip id="18">
						<collapsed>FALSE</collapsed>
						<synctype>1</synctype>
						<angle>
							<clip id="408-13-01-03A8"/>
						</angle>
						<angle>
							<activevideoangle>TRUE</activevideoangle>
							<activeaudioangle>TRUE</activeaudioangle>
							<clip id="408-13-01-03B"/>
						</angle>
						<masterclipid>408-13-01-03A16</masterclipid>
					</multiclip>
					<mediadelay>154</mediadelay>
					<itemhistory>
						<uuid>1CCDFCEE-825D-408B-A7D0-A1E8ED590F8D</uuid>
					</itemhistory>
				</clipitem>
				<clipitem id="408-13-03-05A24">
					<name>408-13-03-05A</name>
					<duration>2100</duration>
					<rate>
						<ntsc>FALSE</ntsc>
						<timebase>25</timebase>
					</rate>
					<in>1332</in>
					<out>1389</out>
					<start>2229</start>
					<end>2286</end>
					<pixelaspectratio>Square</pixelaspectratio>
					<enabled>TRUE</enabled>
					<anamorphic>FALSE</anamorphic>
					<alphatype>none</alphatype>
					<masterclipid>408-13-03-05A1</masterclipid>
					<syncoffset>0</syncoffset>
					<logginginfo>
						<scene/>
						<shottake/>
						<lognote/>
						<good>FALSE</good>
					</logginginfo>
					<labels>
						<label2/>
					</labels>
					<comments>
						<mastercomment1/>
						<mastercomment2/>
						<mastercomment3/>
						<mastercomment4/>
					</comments>
					<file id="A011_C028_0204EJ"/>
					<sourcetrack>
						<mediatype>video</mediatype>
					</sourcetrack>
					<link>
						<linkclipref>408-13-03-05A24</linkclipref>
						<mediatype>video</mediatype>
						<trackindex>1</trackindex>
						<clipindex>21</clipindex>
					</link>
					<link>
						<linkclipref>408-13-03-05A25</linkclipref>
						<mediatype>audio</mediatype>
						<trackindex>1</trackindex>
						<clipindex>20</clipindex>
					</link>
					<link>
						<linkclipref>408-13-03-05A26</linkclipref>
						<mediatype>audio</mediatype>
						<trackindex>2</trackindex>
						<clipindex>20</clipindex>
					</link>
					<link>
						<linkclipref>408-13-03-05A27</linkclipref>
						<mediatype>audio</mediatype>
						<trackindex>3</trackindex>
						<clipindex>20</clipindex>
					</link>
					<link>
						<linkclipref>408-13-03-05A28</linkclipref>
						<mediatype>audio</mediatype>
						<trackindex>4</trackindex>
						<clipindex>20</clipindex>
					</link>
					<link>
						<linkclipref>408-13-03-05A29</linkclipref>
						<mediatype>audio</mediatype>
						<trackindex>5</trackindex>
						<clipindex>20</clipindex>
					</link>
					<link>
						<linkclipref>408-13-03-05A30</linkclipref>
						<mediatype>audio</mediatype>
						<trackindex>6</trackindex>
						<clipindex>20</clipindex>
					</link>
					<fielddominance>none</fielddominance>
					<multiclip id="19">
						<collapsed>FALSE</collapsed>
						<synctype>1</synctype>
						<angle>
							<activevideoangle>TRUE</activevideoangle>
							<activeaudioangle>TRUE</activeaudioangle>
							<clip id="408-13-03-05A8"/>
						</angle>
						<angle>
							<clip id="408-13-03-05B"/>
						</angle>
						<masterclipid>408-13-03-05A16</masterclipid>
					</multiclip>
					<mediadelay>152</mediadelay>
					<itemhistory>
						<uuid>0C3CDA65-1A25-4C5C-9697-87E2D5B14BCC</uuid>
					</itemhistory>
				</clipitem>
				<clipitem id="408-13-01-03B58">
					<name>408-13-01-03B</name>
					<duration>3700</duration>
					<rate>
						<ntsc>FALSE</ntsc>
						<timebase>25</timebase>
					</rate>
					<in>2863</in>
					<out>2905</out>
					<start>2286</start>
					<end>2328</end>
					<pixelaspectratio>Square</pixelaspectratio>
					<enabled>TRUE</enabled>
					<anamorphic>FALSE</anamorphic>
					<alphatype>none</alphatype>
					<masterclipid>408-13-01-03B2</masterclipid>
					<syncoffset>0</syncoffset>
					<logginginfo>
						<scene/>
						<shottake/>
						<lognote/>
						<good>FALSE</good>
					</logginginfo>
					<labels>
						<label2/>
					</labels>
					<comments>
						<mastercomment1/>
						<mastercomment2/>
						<mastercomment3/>
						<mastercomment4/>
					</comments>
					<file id="B011_C019_0205CD"/>
					<sourcetrack>
						<mediatype>video</mediatype>
					</sourcetrack>
					<link>
						<linkclipref>408-13-01-03B58</linkclipref>
						<mediatype>video</mediatype>
						<trackindex>1</trackindex>
						<clipindex>22</clipindex>
					</link>
					<link>
						<linkclipref>408-13-01-03B59</linkclipref>
						<mediatype>audio</mediatype>
						<trackindex>1</trackindex>
						<clipindex>21</clipindex>
					</link>
					<link>
						<linkclipref>408-13-01-03B60</linkclipref>
						<mediatype>audio</mediatype>
						<trackindex>2</trackindex>
						<clipindex>21</clipindex>
					</link>
					<link>
						<linkclipref>408-13-01-03B61</linkclipref>
						<mediatype>audio</mediatype>
						<trackindex>3</trackindex>
						<clipindex>21</clipindex>
					</link>
					<link>
						<linkclipref>408-13-01-03B62</linkclipref>
						<mediatype>audio</mediatype>
						<trackindex>4</trackindex>
						<clipindex>21</clipindex>
					</link>
					<link>
						<linkclipref>408-13-01-03B63</linkclipref>
						<mediatype>audio</mediatype>
						<trackindex>5</trackindex>
						<clipindex>21</clipindex>
					</link>
					<link>
						<linkclipref>408-13-01-03B64</linkclipref>
						<mediatype>audio</mediatype>
						<trackindex>6</trackindex>
						<clipindex>21</clipindex>
					</link>
					<fielddominance>none</fielddominance>
					<multiclip id="20">
						<collapsed>FALSE</collapsed>
						<synctype>1</synctype>
						<angle>
							<clip id="408-13-01-03A8"/>
						</angle>
						<angle>
							<activevideoangle>TRUE</activevideoangle>
							<activeaudioangle>TRUE</activeaudioangle>
							<clip id="408-13-01-03B"/>
						</angle>
						<masterclipid>408-13-01-03A16</masterclipid>
					</multiclip>
					<mediadelay>154</mediadelay>
					<itemhistory>
						<uuid>1EB32E4C-EE6D-4322-9234-957860BF9296</uuid>
					</itemhistory>
				</clipitem>
				<clipitem id="408-13-03-05B16">
					<name>408-13-03-05B</name>
					<duration>2100</duration>
					<rate>
						<ntsc>FALSE</ntsc>
						<timebase>25</timebase>
					</rate>
					<in>1466</in>
					<out>1723</out>
					<start>2328</start>
					<end>2585</end>
					<pixelaspectratio>Square</pixelaspectratio>
					<enabled>TRUE</enabled>
					<anamorphic>FALSE</anamorphic>
					<alphatype>none</alphatype>
					<masterclipid>408-13-03-05B2</masterclipid>
					<syncoffset>0</syncoffset>
					<logginginfo>
						<scene/>
						<shottake/>
						<lognote/>
						<good>FALSE</good>
					</logginginfo>
					<labels>
						<label2/>
					</labels>
					<comments>
						<mastercomment1/>
						<mastercomment2/>
						<mastercomment3/>
						<mastercomment4/>
					</comments>
					<file id="B011_C027_02052L"/>
					<sourcetrack>
						<mediatype>video</mediatype>
					</sourcetrack>
					<link>
						<linkclipref>408-13-03-05B16</linkclipref>
						<mediatype>video</mediatype>
						<trackindex>1</trackindex>
						<clipindex>23</clipindex>
					</link>
					<link>
						<linkclipref>408-13-03-05B17</linkclipref>
						<mediatype>audio</mediatype>
						<trackindex>1</trackindex>
						<clipindex>22</clipindex>
					</link>
					<link>
						<linkclipref>408-13-03-05B18</linkclipref>
						<mediatype>audio</mediatype>
						<trackindex>2</trackindex>
						<clipindex>22</clipindex>
					</link>
					<link>
						<linkclipref>408-13-03-05B19</linkclipref>
						<mediatype>audio</mediatype>
						<trackindex>3</trackindex>
						<clipindex>22</clipindex>
					</link>
					<link>
						<linkclipref>408-13-03-05B20</linkclipref>
						<mediatype>audio</mediatype>
						<trackindex>4</trackindex>
						<clipindex>22</clipindex>
					</link>
					<link>
						<linkclipref>408-13-03-05B21</linkclipref>
						<mediatype>audio</mediatype>
						<trackindex>5</trackindex>
						<clipindex>22</clipindex>
					</link>
					<link>
						<linkclipref>408-13-03-05B22</linkclipref>
						<mediatype>audio</mediatype>
						<trackindex>6</trackindex>
						<clipindex>22</clipindex>
					</link>
					<fielddominance>none</fielddominance>
					<multiclip id="21">
						<collapsed>FALSE</collapsed>
						<synctype>1</synctype>
						<angle>
							<clip id="408-13-03-05A8"/>
						</angle>
						<angle>
							<activevideoangle>TRUE</activevideoangle>
							<activeaudioangle>TRUE</activeaudioangle>
							<clip id="408-13-03-05B"/>
						</angle>
						<masterclipid>408-13-03-05A16</masterclipid>
					</multiclip>
					<mediadelay>182</mediadelay>
					<itemhistory>
						<uuid>E1466386-E005-443D-9DBC-5EC45FB7ED39</uuid>
					</itemhistory>
				</clipitem>
				<clipitem id="408-13-01-03B65">
					<name>408-13-01-03B</name>
					<duration>3700</duration>
					<rate>
						<ntsc>FALSE</ntsc>
						<timebase>25</timebase>
					</rate>
					<in>3139</in>
					<out>3215</out>
					<start>2585</start>
					<end>2661</end>
					<pixelaspectratio>Square</pixelaspectratio>
					<enabled>TRUE</enabled>
					<anamorphic>FALSE</anamorphic>
					<alphatype>none</alphatype>
					<masterclipid>408-13-01-03B2</masterclipid>
					<syncoffset>0</syncoffset>
					<logginginfo>
						<scene/>
						<shottake/>
						<lognote/>
						<good>FALSE</good>
					</logginginfo>
					<labels>
						<label2/>
					</labels>
					<comments>
						<mastercomment1/>
						<mastercomment2/>
						<mastercomment3/>
						<mastercomment4/>
					</comments>
					<file id="B011_C019_0205CD"/>
					<sourcetrack>
						<mediatype>video</mediatype>
					</sourcetrack>
					<link>
						<linkclipref>408-13-01-03B65</linkclipref>
						<mediatype>video</mediatype>
						<trackindex>1</trackindex>
						<clipindex>24</clipindex>
					</link>
					<link>
						<linkclipref>408-13-01-03B66</linkclipref>
						<mediatype>audio</mediatype>
						<trackindex>1</trackindex>
						<clipindex>23</clipindex>
					</link>
					<link>
						<linkclipref>408-13-01-03B67</linkclipref>
						<mediatype>audio</mediatype>
						<trackindex>2</trackindex>
						<clipindex>23</clipindex>
					</link>
					<link>
						<linkclipref>408-13-01-03B68</linkclipref>
						<mediatype>audio</mediatype>
						<trackindex>3</trackindex>
						<clipindex>23</clipindex>
					</link>
					<link>
						<linkclipref>408-13-01-03B69</linkclipref>
						<mediatype>audio</mediatype>
						<trackindex>4</trackindex>
						<clipindex>23</clipindex>
					</link>
					<link>
						<linkclipref>408-13-01-03B70</linkclipref>
						<mediatype>audio</mediatype>
						<trackindex>5</trackindex>
						<clipindex>23</clipindex>
					</link>
					<link>
						<linkclipref>408-13-01-03B71</linkclipref>
						<mediatype>audio</mediatype>
						<trackindex>6</trackindex>
						<clipindex>23</clipindex>
					</link>
					<fielddominance>none</fielddominance>
					<multiclip id="22">
						<collapsed>FALSE</collapsed>
						<synctype>1</synctype>
						<angle>
							<clip id="408-13-01-03A8"/>
						</angle>
						<angle>
							<activevideoangle>TRUE</activevideoangle>
							<activeaudioangle>TRUE</activeaudioangle>
							<clip id="408-13-01-03B"/>
						</angle>
						<masterclipid>408-13-01-03A16</masterclipid>
					</multiclip>
					<mediadelay>154</mediadelay>
					<itemhistory>
						<uuid>1117CD52-7C86-41F5-AE56-CBE10D13C350</uuid>
					</itemhistory>
				</clipitem>
				<clipitem id="408-13-01-03A24">
					<name>408-13-01-03A</name>
					<duration>3700</duration>
					<rate>
						<ntsc>FALSE</ntsc>
						<timebase>25</timebase>
					</rate>
					<in>3215</in>
					<out>3594</out>
					<start>2661</start>
					<end>3040</end>
					<pixelaspectratio>Square</pixelaspectratio>
					<enabled>TRUE</enabled>
					<anamorphic>FALSE</anamorphic>
					<alphatype>none</alphatype>
					<masterclipid>408-13-01-03A1</masterclipid>
					<syncoffset>0</syncoffset>
					<logginginfo>
						<scene/>
						<shottake/>
						<lognote/>
						<good>FALSE</good>
					</logginginfo>
					<labels>
						<label2/>
					</labels>
					<comments>
						<mastercomment1/>
						<mastercomment2/>
						<mastercomment3/>
						<mastercomment4/>
					</comments>
					<file id="A011_C020_0204CQ"/>
					<sourcetrack>
						<mediatype>video</mediatype>
					</sourcetrack>
					<link>
						<linkclipref>408-13-01-03A24</linkclipref>
						<mediatype>video</mediatype>
						<trackindex>1</trackindex>
						<clipindex>25</clipindex>
					</link>
					<link>
						<linkclipref>408-13-01-03A25</linkclipref>
						<mediatype>audio</mediatype>
						<trackindex>1</trackindex>
						<clipindex>24</clipindex>
					</link>
					<link>
						<linkclipref>408-13-01-03A26</linkclipref>
						<mediatype>audio</mediatype>
						<trackindex>2</trackindex>
						<clipindex>24</clipindex>
					</link>
					<link>
						<linkclipref>408-13-01-03A27</linkclipref>
						<mediatype>audio</mediatype>
						<trackindex>3</trackindex>
						<clipindex>24</clipindex>
					</link>
					<link>
						<linkclipref>408-13-01-03A28</linkclipref>
						<mediatype>audio</mediatype>
						<trackindex>4</trackindex>
						<clipindex>24</clipindex>
					</link>
					<link>
						<linkclipref>408-13-01-03A29</linkclipref>
						<mediatype>audio</mediatype>
						<trackindex>5</trackindex>
						<clipindex>24</clipindex>
					</link>
					<link>
						<linkclipref>408-13-01-03A30</linkclipref>
						<mediatype>audio</mediatype>
						<trackindex>6</trackindex>
						<clipindex>24</clipindex>
					</link>
					<fielddominance>none</fielddominance>
					<multiclip id="23">
						<collapsed>FALSE</collapsed>
						<synctype>1</synctype>
						<angle>
							<activevideoangle>TRUE</activevideoangle>
							<activeaudioangle>TRUE</activeaudioangle>
							<clip id="408-13-01-03A8"/>
						</angle>
						<angle>
							<clip id="408-13-01-03B"/>
						</angle>
						<masterclipid>408-13-01-03A16</masterclipid>
					</multiclip>
					<mediadelay>103</mediadelay>
					<itemhistory>
						<uuid>5C0D61E4-443B-4B13-B48F-A2A880BE8358</uuid>
					</itemhistory>
				</clipitem>
				<enabled>TRUE</enabled>
				<locked>FALSE</locked>
			</track>
			<track>
				<clipitem id="408-13-04-02_detal">
					<name>408-13-04-02_detal</name>
					<duration>514</duration>
					<rate>
						<ntsc>FALSE</ntsc>
						<timebase>25</timebase>
					</rate>
					<in>386</in>
					<out>401</out>
					<start>197</start>
					<end>212</end>
					<pixelaspectratio>Square</pixelaspectratio>
					<enabled>TRUE</enabled>
					<anamorphic>FALSE</anamorphic>
					<alphatype>none</alphatype>
					<masterclipid>408-13-04-02_detal1</masterclipid>
					<syncoffset>0</syncoffset>
					<logginginfo>
						<scene/>
						<shottake/>
						<lognote/>
						<good>FALSE</good>
					</logginginfo>
					<labels>
						<label2/>
					</labels>
					<comments>
						<mastercomment1/>
						<mastercomment2/>
						<mastercomment3/>
						<mastercomment4/>
					</comments>
					<file id="B011_C029_02056D">
						<name>B011_C029_02056D.mov</name>
						<pathurl>file://localhost/Volumes/Xsan2/408_Masha_v_shkure_Zvonorya/PROXY/B011_C029_02056D.mov</pathurl>
						<rate>
							<timebase>25</timebase>
						</rate>
						<duration>514</duration>
						<timecode>
							<rate>
								<timebase>25</timebase>
							</rate>
							<string>00:40:40:15</string>
							<frame>61015</frame>
							<displayformat>NDF</displayformat>
							<source>source</source>
							<reel>
								<name>B011_C029_02056D</name>
							</reel>
						</timecode>
						<media>
							<video>
								<duration>514</duration>
								<samplecharacteristics>
									<width>1920</width>
									<height>1080</height>
								</samplecharacteristics>
							</video>
							<audio>
								<samplecharacteristics>
									<samplerate>48000</samplerate>
									<depth>24</depth>
								</samplecharacteristics>
								<channelcount>2</channelcount>
							</audio>
						</media>
					</file>
					<sourcetrack>
						<mediatype>video</mediatype>
					</sourcetrack>
					<fielddominance>none</fielddominance>
					<itemhistory>
						<uuid>FD91EF63-6BFB-4391-B746-5A6519A2593A</uuid>
					</itemhistory>
				</clipitem>
				<clipitem id="408-13_BMW_logo2">
					<name>408-13_BMW_logo</name>
					<duration>201</duration>
					<rate>
						<ntsc>FALSE</ntsc>
						<timebase>25</timebase>
					</rate>
					<in>0</in>
					<out>45</out>
					<start>1016</start>
					<end>1061</end>
					<pixelaspectratio>Square</pixelaspectratio>
					<enabled>TRUE</enabled>
					<anamorphic>FALSE</anamorphic>
					<alphatype>none</alphatype>
					<masterclipid>408-13_BMW_logo1</masterclipid>
					<syncoffset>0</syncoffset>
					<logginginfo>
						<scene/>
						<shottake/>
						<lognote/>
						<good>FALSE</good>
					</logginginfo>
					<labels>
						<label2/>
					</labels>
					<comments>
						<mastercomment1/>
						<mastercomment2/>
						<mastercomment3/>
						<mastercomment4/>
					</comments>
					<file id="A011_C030_0204CB"/>
					<sourcetrack>
						<mediatype>video</mediatype>
					</sourcetrack>
					<fielddominance>none</fielddominance>
					<itemhistory>
						<uuid>BF59946D-8AA4-4BB1-BE45-7CC837F62460</uuid>
					</itemhistory>
				</clipitem>
				<enabled>TRUE</enabled>
				<locked>FALSE</locked>
			</track>
		</video>
		<audio>
			<format>
				<samplecharacteristics>
					<depth>16</depth>
					<samplerate>48000</samplerate>
				</samplecharacteristics>
			</format>
			<outputs>
				<group>
					<index>1</index>
					<numchannels>2</numchannels>
					<downmix>0</downmix>
					<channel>
						<index>1</index>
					</channel>
					<channel>
						<index>2</index>
					</channel>
				</group>
			</outputs>
			<outputs>
				<group>
					<index>1</index>
					<numchannels>2</numchannels>
					<downmix>0</downmix>
					<channel>
						<index>1</index>
					</channel>
					<channel>
						<index>2</index>
					</channel>
				</group>
			</outputs>
			<outputs>
				<group>
					<index>1</index>
					<numchannels>2</numchannels>
					<downmix>0</downmix>
					<channel>
						<index>1</index>
					</channel>
					<channel>
						<index>2</index>
					</channel>
				</group>
			</outputs>
			<outputs>
				<group>
					<index>1</index>
					<numchannels>2</numchannels>
					<downmix>0</downmix>
					<channel>
						<index>1</index>
					</channel>
					<channel>
						<index>2</index>
					</channel>
				</group>
			</outputs>
			<outputs>
				<group>
					<index>1</index>
					<numchannels>2</numchannels>
					<downmix>0</downmix>
					<channel>
						<index>1</index>
					</channel>
					<channel>
						<index>2</index>
					</channel>
				</group>
			</outputs>
			<outputs>
				<group>
					<index>1</index>
					<numchannels>2</numchannels>
					<downmix>0</downmix>
					<channel>
						<index>1</index>
					</channel>
					<channel>
						<index>2</index>
					</channel>
				</group>
			</outputs>
			<outputs>
				<group>
					<index>1</index>
					<numchannels>2</numchannels>
					<downmix>0</downmix>
					<channel>
						<index>1</index>
					</channel>
					<channel>
						<index>2</index>
					</channel>
				</group>
			</outputs>
			<in>-1</in>
			<out>-1</out>
			<track>
				<clipitem id="408-13-01-03A2">
					<name>408-13-01-03A</name>
					<duration>3700</duration>
					<rate>
						<ntsc>FALSE</ntsc>
						<timebase>25</timebase>
					</rate>
					<in>485</in>
					<out>630</out>
					<start>59</start>
					<end>204</end>
					<subframeoffset>0</subframeoffset>
					<enabled>TRUE</enabled>
					<masterclipid>408-13-01-03A1</masterclipid>
					<syncoffset>0</syncoffset>
					<logginginfo>
						<scene/>
						<shottake/>
						<lognote/>
						<good>FALSE</good>
					</logginginfo>
					<labels>
						<label2/>
					</labels>
					<comments>
						<mastercomment1/>
						<mastercomment2/>
						<mastercomment3/>
						<mastercomment4/>
					</comments>
					<file id="MW-013-1T03 "/>
					<filter>
						<effect>
							<name>Audio Levels</name>
							<effectid>audiolevels</effectid>
							<effectcategory>audiolevels</effectcategory>
							<effecttype>audiolevels</effecttype>
							<mediatype>audio</mediatype>
							<parameter>
								<name>Level</name>
								<parameterid>level</parameterid>
								<valuemin>0</valuemin>
								<valuemax>3.98109</valuemax>
								<value>1</value>
							</parameter>
						</effect>
					</filter>
					<filter>
						<effect>
							<name>Audio Pan</name>
							<effectid>audiopan</effectid>
							<effectcategory>audiopan</effectcategory>
							<effecttype>audiopan</effecttype>
							<mediatype>audio</mediatype>
							<parameter>
								<name>Pan</name>
								<parameterid>pan</parameterid>
								<valuemin>-1</valuemin>
								<valuemax>1</valuemax>
								<value>0</value>
							</parameter>
						</effect>
					</filter>
					<sourcetrack>
						<mediatype>audio</mediatype>
						<trackindex>1</trackindex>
					</sourcetrack>
					<link>
						<linkclipref>408-13-01-03A</linkclipref>
						<mediatype>video</mediatype>
						<trackindex>1</trackindex>
						<clipindex>2</clipindex>
					</link>
					<link>
						<linkclipref>408-13-01-03A2</linkclipref>
						<mediatype>audio</mediatype>
						<trackindex>1</trackindex>
						<clipindex>1</clipindex>
					</link>
					<link>
						<linkclipref>408-13-01-03A3</linkclipref>
						<mediatype>audio</mediatype>
						<trackindex>2</trackindex>
						<clipindex>1</clipindex>
					</link>
					<link>
						<linkclipref>408-13-01-03A4</linkclipref>
						<mediatype>audio</mediatype>
						<trackindex>3</trackindex>
						<clipindex>1</clipindex>
					</link>
					<link>
						<linkclipref>408-13-01-03A5</linkclipref>
						<mediatype>audio</mediatype>
						<trackindex>4</trackindex>
						<clipindex>1</clipindex>
					</link>
					<link>
						<linkclipref>408-13-01-03A6</linkclipref>
						<mediatype>audio</mediatype>
						<trackindex>5</trackindex>
						<clipindex>1</clipindex>
					</link>
					<link>
						<linkclipref>408-13-01-03A7</linkclipref>
						<mediatype>audio</mediatype>
						<trackindex>6</trackindex>
						<clipindex>1</clipindex>
					</link>
					<multiclip id="24">
						<collapsed>FALSE</collapsed>
						<synctype>1</synctype>
						<angle>
							<activevideoangle>TRUE</activevideoangle>
							<activeaudioangle>TRUE</activeaudioangle>
							<clip id="408-13-01-03A8"/>
						</angle>
						<angle>
							<clip id="408-13-01-03B"/>
						</angle>
						<masterclipid>408-13-01-03A16</masterclipid>
					</multiclip>
					<itemhistory>
						<uuid>5DFF8D3C-31CA-422D-9D14-242217753B99</uuid>
					</itemhistory>
				</clipitem>
				<clipitem id="408-13-01-03A18">
					<name>408-13-01-03A</name>
					<duration>3700</duration>
					<rate>
						<ntsc>FALSE</ntsc>
						<timebase>25</timebase>
					</rate>
					<in>627</in>
					<out>670</out>
					<start>212</start>
					<end>255</end>
					<subframeoffset>0</subframeoffset>
					<enabled>TRUE</enabled>
					<masterclipid>408-13-01-03A1</masterclipid>
					<syncoffset>0</syncoffset>
					<logginginfo>
						<scene/>
						<shottake/>
						<lognote/>
						<good>FALSE</good>
					</logginginfo>
					<labels>
						<label2/>
					</labels>
					<comments>
						<mastercomment1/>
						<mastercomment2/>
						<mastercomment3/>
						<mastercomment4/>
					</comments>
					<file id="MW-013-1T03 "/>
					<filter>
						<effect>
							<name>Audio Levels</name>
							<effectid>audiolevels</effectid>
							<effectcategory>audiolevels</effectcategory>
							<effecttype>audiolevels</effecttype>
							<mediatype>audio</mediatype>
							<parameter>
								<name>Level</name>
								<parameterid>level</parameterid>
								<valuemin>0</valuemin>
								<valuemax>3.98109</valuemax>
								<value>1</value>
							</parameter>
						</effect>
					</filter>
					<filter>
						<effect>
							<name>Audio Pan</name>
							<effectid>audiopan</effectid>
							<effectcategory>audiopan</effectcategory>
							<effecttype>audiopan</effecttype>
							<mediatype>audio</mediatype>
							<parameter>
								<name>Pan</name>
								<parameterid>pan</parameterid>
								<valuemin>-1</valuemin>
								<valuemax>1</valuemax>
								<value>0</value>
							</parameter>
						</effect>
					</filter>
					<sourcetrack>
						<mediatype>audio</mediatype>
						<trackindex>1</trackindex>
					</sourcetrack>
					<link>
						<linkclipref>408-13-01-03A17</linkclipref>
						<mediatype>video</mediatype>
						<trackindex>1</trackindex>
						<clipindex>3</clipindex>
					</link>
					<link>
						<linkclipref>408-13-01-03A18</linkclipref>
						<mediatype>audio</mediatype>
						<trackindex>1</trackindex>
						<clipindex>2</clipindex>
					</link>
					<link>
						<linkclipref>408-13-01-03A19</linkclipref>
						<mediatype>audio</mediatype>
						<trackindex>2</trackindex>
						<clipindex>2</clipindex>
					</link>
					<link>
						<linkclipref>408-13-01-03A20</linkclipref>
						<mediatype>audio</mediatype>
						<trackindex>3</trackindex>
						<clipindex>2</clipindex>
					</link>
					<link>
						<linkclipref>408-13-01-03A21</linkclipref>
						<mediatype>audio</mediatype>
						<trackindex>4</trackindex>
						<clipindex>2</clipindex>
					</link>
					<link>
						<linkclipref>408-13-01-03A22</linkclipref>
						<mediatype>audio</mediatype>
						<trackindex>5</trackindex>
						<clipindex>2</clipindex>
					</link>
					<link>
						<linkclipref>408-13-01-03A23</linkclipref>
						<mediatype>audio</mediatype>
						<trackindex>6</trackindex>
						<clipindex>2</clipindex>
					</link>
					<multiclip id="1"/>
					<itemhistory>
						<uuid>EF8ABFF6-7EDE-400F-8C53-54A525EA51BC</uuid>
					</itemhistory>
				</clipitem>
				<clipitem id="408-13-01-03B10">
					<name>408-13-01-03B</name>
					<duration>3700</duration>
					<rate>
						<ntsc>FALSE</ntsc>
						<timebase>25</timebase>
					</rate>
					<in>670</in>
					<out>785</out>
					<start>255</start>
					<end>370</end>
					<enabled>TRUE</enabled>
					<masterclipid>408-13-01-03B2</masterclipid>
					<syncoffset>0</syncoffset>
					<logginginfo>
						<scene/>
						<shottake/>
						<lognote/>
						<good>FALSE</good>
					</logginginfo>
					<labels>
						<label2/>
					</labels>
					<comments>
						<mastercomment1/>
						<mastercomment2/>
						<mastercomment3/>
						<mastercomment4/>
					</comments>
					<file id="MW-013-1T03 "/>
					<filter>
						<effect>
							<name>Audio Levels</name>
							<effectid>audiolevels</effectid>
							<effectcategory>audiolevels</effectcategory>
							<effecttype>audiolevels</effecttype>
							<mediatype>audio</mediatype>
							<parameter>
								<name>Level</name>
								<parameterid>level</parameterid>
								<valuemin>0</valuemin>
								<valuemax>3.98109</valuemax>
								<value>1</value>
							</parameter>
						</effect>
					</filter>
					<filter>
						<effect>
							<name>Audio Pan</name>
							<effectid>audiopan</effectid>
							<effectcategory>audiopan</effectcategory>
							<effecttype>audiopan</effecttype>
							<mediatype>audio</mediatype>
							<parameter>
								<name>Pan</name>
								<parameterid>pan</parameterid>
								<valuemin>-1</valuemin>
								<valuemax>1</valuemax>
								<value>0</value>
							</parameter>
						</effect>
					</filter>
					<sourcetrack>
						<mediatype>audio</mediatype>
						<trackindex>1</trackindex>
					</sourcetrack>
					<link>
						<linkclipref>408-13-01-03B9</linkclipref>
						<mediatype>video</mediatype>
						<trackindex>1</trackindex>
						<clipindex>4</clipindex>
					</link>
					<link>
						<linkclipref>408-13-01-03B10</linkclipref>
						<mediatype>audio</mediatype>
						<trackindex>1</trackindex>
						<clipindex>3</clipindex>
					</link>
					<link>
						<linkclipref>408-13-01-03B11</linkclipref>
						<mediatype>audio</mediatype>
						<trackindex>2</trackindex>
						<clipindex>3</clipindex>
					</link>
					<link>
						<linkclipref>408-13-01-03B12</linkclipref>
						<mediatype>audio</mediatype>
						<trackindex>3</trackindex>
						<clipindex>3</clipindex>
					</link>
					<link>
						<linkclipref>408-13-01-03B13</linkclipref>
						<mediatype>audio</mediatype>
						<trackindex>4</trackindex>
						<clipindex>3</clipindex>
					</link>
					<link>
						<linkclipref>408-13-01-03B14</linkclipref>
						<mediatype>audio</mediatype>
						<trackindex>5</trackindex>
						<clipindex>3</clipindex>
					</link>
					<link>
						<linkclipref>408-13-01-03B15</linkclipref>
						<mediatype>audio</mediatype>
						<trackindex>6</trackindex>
						<clipindex>3</clipindex>
					</link>
					<multiclip id="2"/>
					<itemhistory>
						<uuid>28077F16-DB48-4545-B5C3-9F6E5120077C</uuid>
					</itemhistory>
				</clipitem>
				<clipitem id="408-13-02-03B2">
					<name>408-13-02-03B</name>
					<duration>3750</duration>
					<rate>
						<ntsc>FALSE</ntsc>
						<timebase>25</timebase>
					</rate>
					<in>1017</in>
					<out>1119</out>
					<start>370</start>
					<end>472</end>
					<enabled>TRUE</enabled>
					<masterclipid>408-13-02-03B1</masterclipid>
					<syncoffset>0</syncoffset>
					<logginginfo>
						<scene/>
						<shottake/>
						<lognote/>
						<good>FALSE</good>
					</logginginfo>
					<labels>
						<label2/>
					</labels>
					<comments>
						<mastercomment1/>
						<mastercomment2/>
						<mastercomment3/>
						<mastercomment4/>
					</comments>
					<file id="MW-013-2T03 "/>
					<filter>
						<effect>
							<name>Audio Levels</name>
							<effectid>audiolevels</effectid>
							<effectcategory>audiolevels</effectcategory>
							<effecttype>audiolevels</effecttype>
							<mediatype>audio</mediatype>
							<parameter>
								<name>Level</name>
								<parameterid>level</parameterid>
								<valuemin>0</valuemin>
								<valuemax>3.98109</valuemax>
								<value>1</value>
							</parameter>
						</effect>
					</filter>
					<filter>
						<effect>
							<name>Audio Pan</name>
							<effectid>audiopan</effectid>
							<effectcategory>audiopan</effectcategory>
							<effecttype>audiopan</effecttype>
							<mediatype>audio</mediatype>
							<parameter>
								<name>Pan</name>
								<parameterid>pan</parameterid>
								<valuemin>-1</valuemin>
								<valuemax>1</valuemax>
								<value>0</value>
							</parameter>
						</effect>
					</filter>
					<sourcetrack>
						<mediatype>audio</mediatype>
						<trackindex>1</trackindex>
					</sourcetrack>
					<link>
						<linkclipref>408-13-02-03B</linkclipref>
						<mediatype>video</mediatype>
						<trackindex>1</trackindex>
						<clipindex>5</clipindex>
					</link>
					<link>
						<linkclipref>408-13-02-03B2</linkclipref>
						<mediatype>audio</mediatype>
						<trackindex>1</trackindex>
						<clipindex>4</clipindex>
					</link>
					<link>
						<linkclipref>408-13-02-03B3</linkclipref>
						<mediatype>audio</mediatype>
						<trackindex>2</trackindex>
						<clipindex>4</clipindex>
					</link>
					<link>
						<linkclipref>408-13-02-03B4</linkclipref>
						<mediatype>audio</mediatype>
						<trackindex>3</trackindex>
						<clipindex>4</clipindex>
					</link>
					<link>
						<linkclipref>408-13-02-03B5</linkclipref>
						<mediatype>audio</mediatype>
						<trackindex>4</trackindex>
						<clipindex>4</clipindex>
					</link>
					<link>
						<linkclipref>408-13-02-03B6</linkclipref>
						<mediatype>audio</mediatype>
						<trackindex>5</trackindex>
						<clipindex>4</clipindex>
					</link>
					<link>
						<linkclipref>408-13-02-03B7</linkclipref>
						<mediatype>audio</mediatype>
						<trackindex>6</trackindex>
						<clipindex>4</clipindex>
					</link>
					<multiclip id="3"/>
					<itemhistory>
						<uuid>60D9AC7D-E607-4B58-A4EB-10DF46C9C3E3</uuid>
					</itemhistory>
				</clipitem>
				<clipitem id="408-13-01-03B17">
					<name>408-13-01-03B</name>
					<duration>3700</duration>
					<rate>
						<ntsc>FALSE</ntsc>
						<timebase>25</timebase>
					</rate>
					<in>862</in>
					<out>887</out>
					<start>472</start>
					<end>497</end>
					<enabled>TRUE</enabled>
					<masterclipid>408-13-01-03B2</masterclipid>
					<syncoffset>0</syncoffset>
					<logginginfo>
						<scene/>
						<shottake/>
						<lognote/>
						<good>FALSE</good>
					</logginginfo>
					<labels>
						<label2/>
					</labels>
					<comments>
						<mastercomment1/>
						<mastercomment2/>
						<mastercomment3/>
						<mastercomment4/>
					</comments>
					<file id="MW-013-1T03 "/>
					<filter>
						<effect>
							<name>Audio Levels</name>
							<effectid>audiolevels</effectid>
							<effectcategory>audiolevels</effectcategory>
							<effecttype>audiolevels</effecttype>
							<mediatype>audio</mediatype>
							<parameter>
								<name>Level</name>
								<parameterid>level</parameterid>
								<valuemin>0</valuemin>
								<valuemax>3.98109</valuemax>
								<value>1</value>
							</parameter>
						</effect>
					</filter>
					<filter>
						<effect>
							<name>Audio Pan</name>
							<effectid>audiopan</effectid>
							<effectcategory>audiopan</effectcategory>
							<effecttype>audiopan</effecttype>
							<mediatype>audio</mediatype>
							<parameter>
								<name>Pan</name>
								<parameterid>pan</parameterid>
								<valuemin>-1</valuemin>
								<valuemax>1</valuemax>
								<value>0</value>
							</parameter>
						</effect>
					</filter>
					<sourcetrack>
						<mediatype>audio</mediatype>
						<trackindex>1</trackindex>
					</sourcetrack>
					<link>
						<linkclipref>408-13-01-03B16</linkclipref>
						<mediatype>video</mediatype>
						<trackindex>1</trackindex>
						<clipindex>6</clipindex>
					</link>
					<link>
						<linkclipref>408-13-01-03B17</linkclipref>
						<mediatype>audio</mediatype>
						<trackindex>1</trackindex>
						<clipindex>5</clipindex>
					</link>
					<link>
						<linkclipref>408-13-01-03B18</linkclipref>
						<mediatype>audio</mediatype>
						<trackindex>2</trackindex>
						<clipindex>5</clipindex>
					</link>
					<link>
						<linkclipref>408-13-01-03B19</linkclipref>
						<mediatype>audio</mediatype>
						<trackindex>3</trackindex>
						<clipindex>5</clipindex>
					</link>
					<link>
						<linkclipref>408-13-01-03B20</linkclipref>
						<mediatype>audio</mediatype>
						<trackindex>4</trackindex>
						<clipindex>5</clipindex>
					</link>
					<link>
						<linkclipref>408-13-01-03B21</linkclipref>
						<mediatype>audio</mediatype>
						<trackindex>5</trackindex>
						<clipindex>5</clipindex>
					</link>
					<link>
						<linkclipref>408-13-01-03B22</linkclipref>
						<mediatype>audio</mediatype>
						<trackindex>6</trackindex>
						<clipindex>5</clipindex>
					</link>
					<multiclip id="4"/>
					<itemhistory>
						<uuid>6DCE2251-F1B7-46C2-AA53-BECF89C61E18</uuid>
					</itemhistory>
				</clipitem>
				<clipitem id="408-13-02-03B18">
					<name>408-13-02-03B</name>
					<duration>3750</duration>
					<rate>
						<ntsc>FALSE</ntsc>
						<timebase>25</timebase>
					</rate>
					<in>1138</in>
					<out>1263</out>
					<start>497</start>
					<end>622</end>
					<enabled>TRUE</enabled>
					<masterclipid>408-13-02-03B1</masterclipid>
					<syncoffset>0</syncoffset>
					<logginginfo>
						<scene/>
						<shottake/>
						<lognote/>
						<good>FALSE</good>
					</logginginfo>
					<labels>
						<label2/>
					</labels>
					<comments>
						<mastercomment1/>
						<mastercomment2/>
						<mastercomment3/>
						<mastercomment4/>
					</comments>
					<file id="MW-013-2T03 "/>
					<filter>
						<effect>
							<name>Audio Levels</name>
							<effectid>audiolevels</effectid>
							<effectcategory>audiolevels</effectcategory>
							<effecttype>audiolevels</effecttype>
							<mediatype>audio</mediatype>
							<parameter>
								<name>Level</name>
								<parameterid>level</parameterid>
								<valuemin>0</valuemin>
								<valuemax>3.98109</valuemax>
								<value>1</value>
							</parameter>
						</effect>
					</filter>
					<filter>
						<effect>
							<name>Audio Pan</name>
							<effectid>audiopan</effectid>
							<effectcategory>audiopan</effectcategory>
							<effecttype>audiopan</effecttype>
							<mediatype>audio</mediatype>
							<parameter>
								<name>Pan</name>
								<parameterid>pan</parameterid>
								<valuemin>-1</valuemin>
								<valuemax>1</valuemax>
								<value>0</value>
							</parameter>
						</effect>
					</filter>
					<sourcetrack>
						<mediatype>audio</mediatype>
						<trackindex>1</trackindex>
					</sourcetrack>
					<link>
						<linkclipref>408-13-02-03B17</linkclipref>
						<mediatype>video</mediatype>
						<trackindex>1</trackindex>
						<clipindex>7</clipindex>
					</link>
					<link>
						<linkclipref>408-13-02-03B18</linkclipref>
						<mediatype>audio</mediatype>
						<trackindex>1</trackindex>
						<clipindex>6</clipindex>
					</link>
					<link>
						<linkclipref>408-13-02-03B19</linkclipref>
						<mediatype>audio</mediatype>
						<trackindex>2</trackindex>
						<clipindex>6</clipindex>
					</link>
					<link>
						<linkclipref>408-13-02-03B20</linkclipref>
						<mediatype>audio</mediatype>
						<trackindex>3</trackindex>
						<clipindex>6</clipindex>
					</link>
					<link>
						<linkclipref>408-13-02-03B21</linkclipref>
						<mediatype>audio</mediatype>
						<trackindex>4</trackindex>
						<clipindex>6</clipindex>
					</link>
					<link>
						<linkclipref>408-13-02-03B22</linkclipref>
						<mediatype>audio</mediatype>
						<trackindex>5</trackindex>
						<clipindex>6</clipindex>
					</link>
					<link>
						<linkclipref>408-13-02-03B23</linkclipref>
						<mediatype>audio</mediatype>
						<trackindex>6</trackindex>
						<clipindex>6</clipindex>
					</link>
					<multiclip id="5"/>
					<itemhistory>
						<uuid>BB0681CF-7F52-4125-B519-C0183E2C2916</uuid>
					</itemhistory>
				</clipitem>
				<clipitem id="408-13-01-03B24">
					<name>408-13-01-03B</name>
					<duration>3700</duration>
					<rate>
						<ntsc>FALSE</ntsc>
						<timebase>25</timebase>
					</rate>
					<in>999</in>
					<out>1058</out>
					<start>622</start>
					<end>681</end>
					<enabled>TRUE</enabled>
					<masterclipid>408-13-01-03B2</masterclipid>
					<syncoffset>0</syncoffset>
					<logginginfo>
						<scene/>
						<shottake/>
						<lognote/>
						<good>FALSE</good>
					</logginginfo>
					<labels>
						<label2/>
					</labels>
					<comments>
						<mastercomment1/>
						<mastercomment2/>
						<mastercomment3/>
						<mastercomment4/>
					</comments>
					<file id="MW-013-1T03 "/>
					<filter>
						<effect>
							<name>Audio Levels</name>
							<effectid>audiolevels</effectid>
							<effectcategory>audiolevels</effectcategory>
							<effecttype>audiolevels</effecttype>
							<mediatype>audio</mediatype>
							<parameter>
								<name>Level</name>
								<parameterid>level</parameterid>
								<valuemin>0</valuemin>
								<valuemax>3.98109</valuemax>
								<value>1</value>
							</parameter>
						</effect>
					</filter>
					<filter>
						<effect>
							<name>Audio Pan</name>
							<effectid>audiopan</effectid>
							<effectcategory>audiopan</effectcategory>
							<effecttype>audiopan</effecttype>
							<mediatype>audio</mediatype>
							<parameter>
								<name>Pan</name>
								<parameterid>pan</parameterid>
								<valuemin>-1</valuemin>
								<valuemax>1</valuemax>
								<value>0</value>
							</parameter>
						</effect>
					</filter>
					<sourcetrack>
						<mediatype>audio</mediatype>
						<trackindex>1</trackindex>
					</sourcetrack>
					<link>
						<linkclipref>408-13-01-03B23</linkclipref>
						<mediatype>video</mediatype>
						<trackindex>1</trackindex>
						<clipindex>8</clipindex>
					</link>
					<link>
						<linkclipref>408-13-01-03B24</linkclipref>
						<mediatype>audio</mediatype>
						<trackindex>1</trackindex>
						<clipindex>7</clipindex>
					</link>
					<link>
						<linkclipref>408-13-01-03B25</linkclipref>
						<mediatype>audio</mediatype>
						<trackindex>2</trackindex>
						<clipindex>7</clipindex>
					</link>
					<link>
						<linkclipref>408-13-01-03B26</linkclipref>
						<mediatype>audio</mediatype>
						<trackindex>3</trackindex>
						<clipindex>7</clipindex>
					</link>
					<link>
						<linkclipref>408-13-01-03B27</linkclipref>
						<mediatype>audio</mediatype>
						<trackindex>4</trackindex>
						<clipindex>7</clipindex>
					</link>
					<link>
						<linkclipref>408-13-01-03B28</linkclipref>
						<mediatype>audio</mediatype>
						<trackindex>5</trackindex>
						<clipindex>7</clipindex>
					</link>
					<link>
						<linkclipref>408-13-01-03B29</linkclipref>
						<mediatype>audio</mediatype>
						<trackindex>6</trackindex>
						<clipindex>7</clipindex>
					</link>
					<multiclip id="6"/>
					<itemhistory>
						<uuid>64CF3509-22C3-4DD4-9620-239AA61A24FA</uuid>
					</itemhistory>
				</clipitem>
				<clipitem id="408-13-02-03B25">
					<name>408-13-02-03B</name>
					<duration>3750</duration>
					<rate>
						<ntsc>FALSE</ntsc>
						<timebase>25</timebase>
					</rate>
					<in>1317</in>
					<out>1528</out>
					<start>681</start>
					<end>892</end>
					<enabled>TRUE</enabled>
					<masterclipid>408-13-02-03B1</masterclipid>
					<syncoffset>0</syncoffset>
					<logginginfo>
						<scene/>
						<shottake/>
						<lognote/>
						<good>FALSE</good>
					</logginginfo>
					<labels>
						<label2/>
					</labels>
					<comments>
						<mastercomment1/>
						<mastercomment2/>
						<mastercomment3/>
						<mastercomment4/>
					</comments>
					<file id="MW-013-2T03 "/>
					<filter>
						<effect>
							<name>Audio Levels</name>
							<effectid>audiolevels</effectid>
							<effectcategory>audiolevels</effectcategory>
							<effecttype>audiolevels</effecttype>
							<mediatype>audio</mediatype>
							<parameter>
								<name>Level</name>
								<parameterid>level</parameterid>
								<valuemin>0</valuemin>
								<valuemax>3.98109</valuemax>
								<value>1</value>
							</parameter>
						</effect>
					</filter>
					<filter>
						<effect>
							<name>Audio Pan</name>
							<effectid>audiopan</effectid>
							<effectcategory>audiopan</effectcategory>
							<effecttype>audiopan</effecttype>
							<mediatype>audio</mediatype>
							<parameter>
								<name>Pan</name>
								<parameterid>pan</parameterid>
								<valuemin>-1</valuemin>
								<valuemax>1</valuemax>
								<value>0</value>
							</parameter>
						</effect>
					</filter>
					<sourcetrack>
						<mediatype>audio</mediatype>
						<trackindex>1</trackindex>
					</sourcetrack>
					<link>
						<linkclipref>408-13-02-03B24</linkclipref>
						<mediatype>video</mediatype>
						<trackindex>1</trackindex>
						<clipindex>9</clipindex>
					</link>
					<link>
						<linkclipref>408-13-02-03B25</linkclipref>
						<mediatype>audio</mediatype>
						<trackindex>1</trackindex>
						<clipindex>8</clipindex>
					</link>
					<link>
						<linkclipref>408-13-02-03B26</linkclipref>
						<mediatype>audio</mediatype>
						<trackindex>2</trackindex>
						<clipindex>8</clipindex>
					</link>
					<link>
						<linkclipref>408-13-02-03B27</linkclipref>
						<mediatype>audio</mediatype>
						<trackindex>3</trackindex>
						<clipindex>8</clipindex>
					</link>
					<link>
						<linkclipref>408-13-02-03B28</linkclipref>
						<mediatype>audio</mediatype>
						<trackindex>4</trackindex>
						<clipindex>8</clipindex>
					</link>
					<link>
						<linkclipref>408-13-02-03B29</linkclipref>
						<mediatype>audio</mediatype>
						<trackindex>5</trackindex>
						<clipindex>8</clipindex>
					</link>
					<link>
						<linkclipref>408-13-02-03B30</linkclipref>
						<mediatype>audio</mediatype>
						<trackindex>6</trackindex>
						<clipindex>8</clipindex>
					</link>
					<multiclip id="7"/>
					<itemhistory>
						<uuid>3A4DC69A-4607-43BF-949E-062342BD8D16</uuid>
					</itemhistory>
				</clipitem>
				<clipitem id="408-13-01-03B31">
					<name>408-13-01-03B</name>
					<duration>3700</duration>
					<rate>
						<ntsc>FALSE</ntsc>
						<timebase>25</timebase>
					</rate>
					<in>1230</in>
					<out>1262</out>
					<start>892</start>
					<end>924</end>
					<enabled>TRUE</enabled>
					<masterclipid>408-13-01-03B2</masterclipid>
					<syncoffset>0</syncoffset>
					<logginginfo>
						<scene/>
						<shottake/>
						<lognote/>
						<good>FALSE</good>
					</logginginfo>
					<labels>
						<label2/>
					</labels>
					<comments>
						<mastercomment1/>
						<mastercomment2/>
						<mastercomment3/>
						<mastercomment4/>
					</comments>
					<file id="MW-013-1T03 "/>
					<filter>
						<effect>
							<name>Audio Levels</name>
							<effectid>audiolevels</effectid>
							<effectcategory>audiolevels</effectcategory>
							<effecttype>audiolevels</effecttype>
							<mediatype>audio</mediatype>
							<parameter>
								<name>Level</name>
								<parameterid>level</parameterid>
								<valuemin>0</valuemin>
								<valuemax>3.98109</valuemax>
								<value>1</value>
							</parameter>
						</effect>
					</filter>
					<filter>
						<effect>
							<name>Audio Pan</name>
							<effectid>audiopan</effectid>
							<effectcategory>audiopan</effectcategory>
							<effecttype>audiopan</effecttype>
							<mediatype>audio</mediatype>
							<parameter>
								<name>Pan</name>
								<parameterid>pan</parameterid>
								<valuemin>-1</valuemin>
								<valuemax>1</valuemax>
								<value>0</value>
							</parameter>
						</effect>
					</filter>
					<sourcetrack>
						<mediatype>audio</mediatype>
						<trackindex>1</trackindex>
					</sourcetrack>
					<link>
						<linkclipref>408-13-01-03B30</linkclipref>
						<mediatype>video</mediatype>
						<trackindex>1</trackindex>
						<clipindex>10</clipindex>
					</link>
					<link>
						<linkclipref>408-13-01-03B31</linkclipref>
						<mediatype>audio</mediatype>
						<trackindex>1</trackindex>
						<clipindex>9</clipindex>
					</link>
					<link>
						<linkclipref>408-13-01-03B32</linkclipref>
						<mediatype>audio</mediatype>
						<trackindex>2</trackindex>
						<clipindex>9</clipindex>
					</link>
					<link>
						<linkclipref>408-13-01-03B33</linkclipref>
						<mediatype>audio</mediatype>
						<trackindex>3</trackindex>
						<clipindex>9</clipindex>
					</link>
					<link>
						<linkclipref>408-13-01-03B34</linkclipref>
						<mediatype>audio</mediatype>
						<trackindex>4</trackindex>
						<clipindex>9</clipindex>
					</link>
					<link>
						<linkclipref>408-13-01-03B35</linkclipref>
						<mediatype>audio</mediatype>
						<trackindex>5</trackindex>
						<clipindex>9</clipindex>
					</link>
					<link>
						<linkclipref>408-13-01-03B36</linkclipref>
						<mediatype>audio</mediatype>
						<trackindex>6</trackindex>
						<clipindex>9</clipindex>
					</link>
					<multiclip id="8"/>
					<itemhistory>
						<uuid>8226C75F-A5A8-4F30-8E24-7DEDC4DF4220</uuid>
					</itemhistory>
				</clipitem>
				<clipitem id="408-13-02-03B32">
					<name>408-13-02-03B</name>
					<duration>3750</duration>
					<rate>
						<ntsc>FALSE</ntsc>
						<timebase>25</timebase>
					</rate>
					<in>1569</in>
					<out>1862</out>
					<start>924</start>
					<end>1217</end>
					<subframeoffset>0</subframeoffset>
					<enabled>TRUE</enabled>
					<masterclipid>408-13-02-03B1</masterclipid>
					<syncoffset>0</syncoffset>
					<logginginfo>
						<scene/>
						<shottake/>
						<lognote/>
						<good>FALSE</good>
					</logginginfo>
					<labels>
						<label2/>
					</labels>
					<comments>
						<mastercomment1/>
						<mastercomment2/>
						<mastercomment3/>
						<mastercomment4/>
					</comments>
					<file id="MW-013-2T03 "/>
					<filter>
						<effect>
							<name>Audio Levels</name>
							<effectid>audiolevels</effectid>
							<effectcategory>audiolevels</effectcategory>
							<effecttype>audiolevels</effecttype>
							<mediatype>audio</mediatype>
							<parameter>
								<name>Level</name>
								<parameterid>level</parameterid>
								<valuemin>0</valuemin>
								<valuemax>3.98109</valuemax>
								<value>1</value>
							</parameter>
						</effect>
					</filter>
					<filter>
						<effect>
							<name>Audio Pan</name>
							<effectid>audiopan</effectid>
							<effectcategory>audiopan</effectcategory>
							<effecttype>audiopan</effecttype>
							<mediatype>audio</mediatype>
							<parameter>
								<name>Pan</name>
								<parameterid>pan</parameterid>
								<valuemin>-1</valuemin>
								<valuemax>1</valuemax>
								<value>0</value>
							</parameter>
						</effect>
					</filter>
					<sourcetrack>
						<mediatype>audio</mediatype>
						<trackindex>1</trackindex>
					</sourcetrack>
					<link>
						<linkclipref>408-13-02-03B31</linkclipref>
						<mediatype>video</mediatype>
						<trackindex>1</trackindex>
						<clipindex>11</clipindex>
					</link>
					<link>
						<linkclipref>408-13-02-03B32</linkclipref>
						<mediatype>audio</mediatype>
						<trackindex>1</trackindex>
						<clipindex>10</clipindex>
					</link>
					<link>
						<linkclipref>408-13-02-03B33</linkclipref>
						<mediatype>audio</mediatype>
						<trackindex>2</trackindex>
						<clipindex>10</clipindex>
					</link>
					<link>
						<linkclipref>408-13-02-03B34</linkclipref>
						<mediatype>audio</mediatype>
						<trackindex>3</trackindex>
						<clipindex>10</clipindex>
					</link>
					<link>
						<linkclipref>408-13-02-03B35</linkclipref>
						<mediatype>audio</mediatype>
						<trackindex>4</trackindex>
						<clipindex>10</clipindex>
					</link>
					<link>
						<linkclipref>408-13-02-03B36</linkclipref>
						<mediatype>audio</mediatype>
						<trackindex>5</trackindex>
						<clipindex>10</clipindex>
					</link>
					<link>
						<linkclipref>408-13-02-03B37</linkclipref>
						<mediatype>audio</mediatype>
						<trackindex>6</trackindex>
						<clipindex>10</clipindex>
					</link>
					<multiclip id="9"/>
					<itemhistory>
						<uuid>FA012C44-A698-4890-8BD6-245774B12A8A</uuid>
					</itemhistory>
				</clipitem>
				<clipitem id="408-13-01-03B38">
					<name>408-13-01-03B</name>
					<duration>3700</duration>
					<rate>
						<ntsc>FALSE</ntsc>
						<timebase>25</timebase>
					</rate>
					<in>1523</in>
					<out>1591</out>
					<start>1217</start>
					<end>1285</end>
					<enabled>TRUE</enabled>
					<masterclipid>408-13-01-03B2</masterclipid>
					<syncoffset>0</syncoffset>
					<logginginfo>
						<scene/>
						<shottake/>
						<lognote/>
						<good>FALSE</good>
					</logginginfo>
					<labels>
						<label2/>
					</labels>
					<comments>
						<mastercomment1/>
						<mastercomment2/>
						<mastercomment3/>
						<mastercomment4/>
					</comments>
					<file id="MW-013-1T03 "/>
					<filter>
						<effect>
							<name>Audio Levels</name>
							<effectid>audiolevels</effectid>
							<effectcategory>audiolevels</effectcategory>
							<effecttype>audiolevels</effecttype>
							<mediatype>audio</mediatype>
							<parameter>
								<name>Level</name>
								<parameterid>level</parameterid>
								<valuemin>0</valuemin>
								<valuemax>3.98109</valuemax>
								<value>1</value>
							</parameter>
						</effect>
					</filter>
					<filter>
						<effect>
							<name>Audio Pan</name>
							<effectid>audiopan</effectid>
							<effectcategory>audiopan</effectcategory>
							<effecttype>audiopan</effecttype>
							<mediatype>audio</mediatype>
							<parameter>
								<name>Pan</name>
								<parameterid>pan</parameterid>
								<valuemin>-1</valuemin>
								<valuemax>1</valuemax>
								<value>0</value>
							</parameter>
						</effect>
					</filter>
					<sourcetrack>
						<mediatype>audio</mediatype>
						<trackindex>1</trackindex>
					</sourcetrack>
					<link>
						<linkclipref>408-13-01-03B37</linkclipref>
						<mediatype>video</mediatype>
						<trackindex>1</trackindex>
						<clipindex>12</clipindex>
					</link>
					<link>
						<linkclipref>408-13-01-03B38</linkclipref>
						<mediatype>audio</mediatype>
						<trackindex>1</trackindex>
						<clipindex>11</clipindex>
					</link>
					<link>
						<linkclipref>408-13-01-03B39</linkclipref>
						<mediatype>audio</mediatype>
						<trackindex>2</trackindex>
						<clipindex>11</clipindex>
					</link>
					<link>
						<linkclipref>408-13-01-03B40</linkclipref>
						<mediatype>audio</mediatype>
						<trackindex>3</trackindex>
						<clipindex>11</clipindex>
					</link>
					<link>
						<linkclipref>408-13-01-03B41</linkclipref>
						<mediatype>audio</mediatype>
						<trackindex>4</trackindex>
						<clipindex>11</clipindex>
					</link>
					<link>
						<linkclipref>408-13-01-03B42</linkclipref>
						<mediatype>audio</mediatype>
						<trackindex>5</trackindex>
						<clipindex>11</clipindex>
					</link>
					<link>
						<linkclipref>408-13-01-03B43</linkclipref>
						<mediatype>audio</mediatype>
						<trackindex>6</trackindex>
						<clipindex>11</clipindex>
					</link>
					<multiclip id="10"/>
					<itemhistory>
						<uuid>4F50826E-9C55-453A-94A5-CD027509A95D</uuid>
					</itemhistory>
				</clipitem>
				<clipitem id="408-13-02-03B39">
					<name>408-13-02-03B</name>
					<duration>3750</duration>
					<rate>
						<ntsc>FALSE</ntsc>
						<timebase>25</timebase>
					</rate>
					<in>1923</in>
					<out>2018</out>
					<start>1285</start>
					<end>1380</end>
					<subframeoffset>0</subframeoffset>
					<enabled>TRUE</enabled>
					<masterclipid>408-13-02-03B1</masterclipid>
					<syncoffset>0</syncoffset>
					<logginginfo>
						<scene/>
						<shottake/>
						<lognote/>
						<good>FALSE</good>
					</logginginfo>
					<labels>
						<label2/>
					</labels>
					<comments>
						<mastercomment1/>
						<mastercomment2/>
						<mastercomment3/>
						<mastercomment4/>
					</comments>
					<file id="MW-013-2T03 "/>
					<filter>
						<effect>
							<name>Audio Levels</name>
							<effectid>audiolevels</effectid>
							<effectcategory>audiolevels</effectcategory>
							<effecttype>audiolevels</effecttype>
							<mediatype>audio</mediatype>
							<parameter>
								<name>Level</name>
								<parameterid>level</parameterid>
								<valuemin>0</valuemin>
								<valuemax>3.98109</valuemax>
								<value>1</value>
							</parameter>
						</effect>
					</filter>
					<filter>
						<effect>
							<name>Audio Pan</name>
							<effectid>audiopan</effectid>
							<effectcategory>audiopan</effectcategory>
							<effecttype>audiopan</effecttype>
							<mediatype>audio</mediatype>
							<parameter>
								<name>Pan</name>
								<parameterid>pan</parameterid>
								<valuemin>-1</valuemin>
								<valuemax>1</valuemax>
								<value>0</value>
							</parameter>
						</effect>
					</filter>
					<sourcetrack>
						<mediatype>audio</mediatype>
						<trackindex>1</trackindex>
					</sourcetrack>
					<link>
						<linkclipref>408-13-02-03B38</linkclipref>
						<mediatype>video</mediatype>
						<trackindex>1</trackindex>
						<clipindex>13</clipindex>
					</link>
					<link>
						<linkclipref>408-13-02-03B39</linkclipref>
						<mediatype>audio</mediatype>
						<trackindex>1</trackindex>
						<clipindex>12</clipindex>
					</link>
					<link>
						<linkclipref>408-13-02-03B40</linkclipref>
						<mediatype>audio</mediatype>
						<trackindex>2</trackindex>
						<clipindex>12</clipindex>
					</link>
					<link>
						<linkclipref>408-13-02-03B41</linkclipref>
						<mediatype>audio</mediatype>
						<trackindex>3</trackindex>
						<clipindex>12</clipindex>
					</link>
					<link>
						<linkclipref>408-13-02-03B42</linkclipref>
						<mediatype>audio</mediatype>
						<trackindex>4</trackindex>
						<clipindex>12</clipindex>
					</link>
					<link>
						<linkclipref>408-13-02-03B43</linkclipref>
						<mediatype>audio</mediatype>
						<trackindex>5</trackindex>
						<clipindex>12</clipindex>
					</link>
					<link>
						<linkclipref>408-13-02-03B44</linkclipref>
						<mediatype>audio</mediatype>
						<trackindex>6</trackindex>
						<clipindex>12</clipindex>
					</link>
					<multiclip id="11"/>
					<itemhistory>
						<uuid>4316DF72-DB5E-4094-A638-5A1524C23E8B</uuid>
					</itemhistory>
				</clipitem>
				<clipitem id="408-13-03-05A2">
					<name>408-13-03-05A</name>
					<duration>2100</duration>
					<rate>
						<ntsc>FALSE</ntsc>
						<timebase>25</timebase>
					</rate>
					<in>497</in>
					<out>608</out>
					<start>1380</start>
					<end>1491</end>
					<subframeoffset>0</subframeoffset>
					<enabled>TRUE</enabled>
					<masterclipid>408-13-03-05A1</masterclipid>
					<syncoffset>0</syncoffset>
					<logginginfo>
						<scene/>
						<shottake/>
						<lognote/>
						<good>FALSE</good>
					</logginginfo>
					<labels>
						<label2/>
					</labels>
					<comments>
						<mastercomment1/>
						<mastercomment2/>
						<mastercomment3/>
						<mastercomment4/>
					</comments>
					<file id="MW-013-3T05 "/>
					<filter>
						<effect>
							<name>Audio Levels</name>
							<effectid>audiolevels</effectid>
							<effectcategory>audiolevels</effectcategory>
							<effecttype>audiolevels</effecttype>
							<mediatype>audio</mediatype>
							<parameter>
								<name>Level</name>
								<parameterid>level</parameterid>
								<valuemin>0</valuemin>
								<valuemax>3.98109</valuemax>
								<value>1</value>
							</parameter>
						</effect>
					</filter>
					<filter>
						<effect>
							<name>Audio Pan</name>
							<effectid>audiopan</effectid>
							<effectcategory>audiopan</effectcategory>
							<effecttype>audiopan</effecttype>
							<mediatype>audio</mediatype>
							<parameter>
								<name>Pan</name>
								<parameterid>pan</parameterid>
								<valuemin>-1</valuemin>
								<valuemax>1</valuemax>
								<value>0</value>
							</parameter>
						</effect>
					</filter>
					<sourcetrack>
						<mediatype>audio</mediatype>
						<trackindex>1</trackindex>
					</sourcetrack>
					<link>
						<linkclipref>408-13-03-05A</linkclipref>
						<mediatype>video</mediatype>
						<trackindex>1</trackindex>
						<clipindex>14</clipindex>
					</link>
					<link>
						<linkclipref>408-13-03-05A2</linkclipref>
						<mediatype>audio</mediatype>
						<trackindex>1</trackindex>
						<clipindex>13</clipindex>
					</link>
					<link>
						<linkclipref>408-13-03-05A3</linkclipref>
						<mediatype>audio</mediatype>
						<trackindex>2</trackindex>
						<clipindex>13</clipindex>
					</link>
					<link>
						<linkclipref>408-13-03-05A4</linkclipref>
						<mediatype>audio</mediatype>
						<trackindex>3</trackindex>
						<clipindex>13</clipindex>
					</link>
					<link>
						<linkclipref>408-13-03-05A5</linkclipref>
						<mediatype>audio</mediatype>
						<trackindex>4</trackindex>
						<clipindex>13</clipindex>
					</link>
					<link>
						<linkclipref>408-13-03-05A6</linkclipref>
						<mediatype>audio</mediatype>
						<trackindex>5</trackindex>
						<clipindex>13</clipindex>
					</link>
					<link>
						<linkclipref>408-13-03-05A7</linkclipref>
						<mediatype>audio</mediatype>
						<trackindex>6</trackindex>
						<clipindex>13</clipindex>
					</link>
					<multiclip id="12"/>
					<itemhistory>
						<uuid>9D27B46F-100B-442C-9256-77BEA9E508E3</uuid>
					</itemhistory>
				</clipitem>
				<clipitem id="408-13-03-05B10">
					<name>408-13-03-05B</name>
					<duration>2100</duration>
					<rate>
						<ntsc>FALSE</ntsc>
						<timebase>25</timebase>
					</rate>
					<in>608</in>
					<out>690</out>
					<start>1491</start>
					<end>1573</end>
					<enabled>TRUE</enabled>
					<masterclipid>408-13-03-05B2</masterclipid>
					<syncoffset>0</syncoffset>
					<logginginfo>
						<scene/>
						<shottake/>
						<lognote/>
						<good>FALSE</good>
					</logginginfo>
					<labels>
						<label2/>
					</labels>
					<comments>
						<mastercomment1/>
						<mastercomment2/>
						<mastercomment3/>
						<mastercomment4/>
					</comments>
					<file id="MW-013-3T05 "/>
					<filter>
						<effect>
							<name>Audio Levels</name>
							<effectid>audiolevels</effectid>
							<effectcategory>audiolevels</effectcategory>
							<effecttype>audiolevels</effecttype>
							<mediatype>audio</mediatype>
							<parameter>
								<name>Level</name>
								<parameterid>level</parameterid>
								<valuemin>0</valuemin>
								<valuemax>3.98109</valuemax>
								<value>1</value>
							</parameter>
						</effect>
					</filter>
					<filter>
						<effect>
							<name>Audio Pan</name>
							<effectid>audiopan</effectid>
							<effectcategory>audiopan</effectcategory>
							<effecttype>audiopan</effecttype>
							<mediatype>audio</mediatype>
							<parameter>
								<name>Pan</name>
								<parameterid>pan</parameterid>
								<valuemin>-1</valuemin>
								<valuemax>1</valuemax>
								<value>0</value>
							</parameter>
						</effect>
					</filter>
					<sourcetrack>
						<mediatype>audio</mediatype>
						<trackindex>1</trackindex>
					</sourcetrack>
					<link>
						<linkclipref>408-13-03-05B9</linkclipref>
						<mediatype>video</mediatype>
						<trackindex>1</trackindex>
						<clipindex>15</clipindex>
					</link>
					<link>
						<linkclipref>408-13-03-05B10</linkclipref>
						<mediatype>audio</mediatype>
						<trackindex>1</trackindex>
						<clipindex>14</clipindex>
					</link>
					<link>
						<linkclipref>408-13-03-05B11</linkclipref>
						<mediatype>audio</mediatype>
						<trackindex>2</trackindex>
						<clipindex>14</clipindex>
					</link>
					<link>
						<linkclipref>408-13-03-05B12</linkclipref>
						<mediatype>audio</mediatype>
						<trackindex>3</trackindex>
						<clipindex>14</clipindex>
					</link>
					<link>
						<linkclipref>408-13-03-05B13</linkclipref>
						<mediatype>audio</mediatype>
						<trackindex>4</trackindex>
						<clipindex>14</clipindex>
					</link>
					<link>
						<linkclipref>408-13-03-05B14</linkclipref>
						<mediatype>audio</mediatype>
						<trackindex>5</trackindex>
						<clipindex>14</clipindex>
					</link>
					<link>
						<linkclipref>408-13-03-05B15</linkclipref>
						<mediatype>audio</mediatype>
						<trackindex>6</trackindex>
						<clipindex>14</clipindex>
					</link>
					<multiclip id="13"/>
					<itemhistory>
						<uuid>437E25A6-FCE4-47FE-8C0F-80DB7434BEBE</uuid>
					</itemhistory>
				</clipitem>
				<clipitem id="408-13-03-05A18">
					<name>408-13-03-05A</name>
					<duration>2100</duration>
					<rate>
						<ntsc>FALSE</ntsc>
						<timebase>25</timebase>
					</rate>
					<in>690</in>
					<out>973</out>
					<start>1573</start>
					<end>1856</end>
					<enabled>TRUE</enabled>
					<masterclipid>408-13-03-05A1</masterclipid>
					<syncoffset>0</syncoffset>
					<logginginfo>
						<scene/>
						<shottake/>
						<lognote/>
						<good>FALSE</good>
					</logginginfo>
					<labels>
						<label2/>
					</labels>
					<comments>
						<mastercomment1/>
						<mastercomment2/>
						<mastercomment3/>
						<mastercomment4/>
					</comments>
					<file id="MW-013-3T05 "/>
					<filter>
						<effect>
							<name>Audio Levels</name>
							<effectid>audiolevels</effectid>
							<effectcategory>audiolevels</effectcategory>
							<effecttype>audiolevels</effecttype>
							<mediatype>audio</mediatype>
							<parameter>
								<name>Level</name>
								<parameterid>level</parameterid>
								<valuemin>0</valuemin>
								<valuemax>3.98109</valuemax>
								<value>1</value>
							</parameter>
						</effect>
					</filter>
					<filter>
						<effect>
							<name>Audio Pan</name>
							<effectid>audiopan</effectid>
							<effectcategory>audiopan</effectcategory>
							<effecttype>audiopan</effecttype>
							<mediatype>audio</mediatype>
							<parameter>
								<name>Pan</name>
								<parameterid>pan</parameterid>
								<valuemin>-1</valuemin>
								<valuemax>1</valuemax>
								<value>0</value>
							</parameter>
						</effect>
					</filter>
					<sourcetrack>
						<mediatype>audio</mediatype>
						<trackindex>1</trackindex>
					</sourcetrack>
					<link>
						<linkclipref>408-13-03-05A17</linkclipref>
						<mediatype>video</mediatype>
						<trackindex>1</trackindex>
						<clipindex>16</clipindex>
					</link>
					<link>
						<linkclipref>408-13-03-05A18</linkclipref>
						<mediatype>audio</mediatype>
						<trackindex>1</trackindex>
						<clipindex>15</clipindex>
					</link>
					<link>
						<linkclipref>408-13-03-05A19</linkclipref>
						<mediatype>audio</mediatype>
						<trackindex>2</trackindex>
						<clipindex>15</clipindex>
					</link>
					<link>
						<linkclipref>408-13-03-05A20</linkclipref>
						<mediatype>audio</mediatype>
						<trackindex>3</trackindex>
						<clipindex>15</clipindex>
					</link>
					<link>
						<linkclipref>408-13-03-05A21</linkclipref>
						<mediatype>audio</mediatype>
						<trackindex>4</trackindex>
						<clipindex>15</clipindex>
					</link>
					<link>
						<linkclipref>408-13-03-05A22</linkclipref>
						<mediatype>audio</mediatype>
						<trackindex>5</trackindex>
						<clipindex>15</clipindex>
					</link>
					<link>
						<linkclipref>408-13-03-05A23</linkclipref>
						<mediatype>audio</mediatype>
						<trackindex>6</trackindex>
						<clipindex>15</clipindex>
					</link>
					<multiclip id="14"/>
					<itemhistory>
						<uuid>C0519B0E-DE74-4B56-ACE1-CC6D6B1F4B5B</uuid>
					</itemhistory>
				</clipitem>
				<clipitem id="408-13-02-03B46">
					<name>408-13-02-03B</name>
					<duration>3750</duration>
					<rate>
						<ntsc>FALSE</ntsc>
						<timebase>25</timebase>
					</rate>
					<in>2491</in>
					<out>2562</out>
					<start>1856</start>
					<end>1927</end>
					<enabled>TRUE</enabled>
					<masterclipid>408-13-02-03B1</masterclipid>
					<syncoffset>0</syncoffset>
					<logginginfo>
						<scene/>
						<shottake/>
						<lognote/>
						<good>FALSE</good>
					</logginginfo>
					<labels>
						<label2/>
					</labels>
					<comments>
						<mastercomment1/>
						<mastercomment2/>
						<mastercomment3/>
						<mastercomment4/>
					</comments>
					<file id="MW-013-2T03 "/>
					<filter>
						<effect>
							<name>Audio Levels</name>
							<effectid>audiolevels</effectid>
							<effectcategory>audiolevels</effectcategory>
							<effecttype>audiolevels</effecttype>
							<mediatype>audio</mediatype>
							<parameter>
								<name>Level</name>
								<parameterid>level</parameterid>
								<valuemin>0</valuemin>
								<valuemax>3.98109</valuemax>
								<value>1</value>
							</parameter>
						</effect>
					</filter>
					<filter>
						<effect>
							<name>Audio Pan</name>
							<effectid>audiopan</effectid>
							<effectcategory>audiopan</effectcategory>
							<effecttype>audiopan</effecttype>
							<mediatype>audio</mediatype>
							<parameter>
								<name>Pan</name>
								<parameterid>pan</parameterid>
								<valuemin>-1</valuemin>
								<valuemax>1</valuemax>
								<value>0</value>
							</parameter>
						</effect>
					</filter>
					<sourcetrack>
						<mediatype>audio</mediatype>
						<trackindex>1</trackindex>
					</sourcetrack>
					<link>
						<linkclipref>408-13-02-03B45</linkclipref>
						<mediatype>video</mediatype>
						<trackindex>1</trackindex>
						<clipindex>17</clipindex>
					</link>
					<link>
						<linkclipref>408-13-02-03B46</linkclipref>
						<mediatype>audio</mediatype>
						<trackindex>1</trackindex>
						<clipindex>16</clipindex>
					</link>
					<link>
						<linkclipref>408-13-02-03B47</linkclipref>
						<mediatype>audio</mediatype>
						<trackindex>2</trackindex>
						<clipindex>16</clipindex>
					</link>
					<link>
						<linkclipref>408-13-02-03B48</linkclipref>
						<mediatype>audio</mediatype>
						<trackindex>3</trackindex>
						<clipindex>16</clipindex>
					</link>
					<link>
						<linkclipref>408-13-02-03B49</linkclipref>
						<mediatype>audio</mediatype>
						<trackindex>4</trackindex>
						<clipindex>16</clipindex>
					</link>
					<link>
						<linkclipref>408-13-02-03B50</linkclipref>
						<mediatype>audio</mediatype>
						<trackindex>5</trackindex>
						<clipindex>16</clipindex>
					</link>
					<link>
						<linkclipref>408-13-02-03B51</linkclipref>
						<mediatype>audio</mediatype>
						<trackindex>6</trackindex>
						<clipindex>16</clipindex>
					</link>
					<multiclip id="15"/>
					<itemhistory>
						<uuid>A4A49B4B-8EE9-41F6-80D7-7383F5062E54</uuid>
					</itemhistory>
				</clipitem>
				<clipitem id="408-13-01-03B45">
					<name>408-13-01-03B</name>
					<duration>3700</duration>
					<rate>
						<ntsc>FALSE</ntsc>
						<timebase>25</timebase>
					</rate>
					<in>2529</in>
					<out>2572</out>
					<start>1927</start>
					<end>1970</end>
					<enabled>TRUE</enabled>
					<masterclipid>408-13-01-03B2</masterclipid>
					<syncoffset>0</syncoffset>
					<logginginfo>
						<scene/>
						<shottake/>
						<lognote/>
						<good>FALSE</good>
					</logginginfo>
					<labels>
						<label2/>
					</labels>
					<comments>
						<mastercomment1/>
						<mastercomment2/>
						<mastercomment3/>
						<mastercomment4/>
					</comments>
					<file id="MW-013-1T03 "/>
					<filter>
						<effect>
							<name>Audio Levels</name>
							<effectid>audiolevels</effectid>
							<effectcategory>audiolevels</effectcategory>
							<effecttype>audiolevels</effecttype>
							<mediatype>audio</mediatype>
							<parameter>
								<name>Level</name>
								<parameterid>level</parameterid>
								<valuemin>0</valuemin>
								<valuemax>3.98109</valuemax>
								<value>1</value>
							</parameter>
						</effect>
					</filter>
					<filter>
						<effect>
							<name>Audio Pan</name>
							<effectid>audiopan</effectid>
							<effectcategory>audiopan</effectcategory>
							<effecttype>audiopan</effecttype>
							<mediatype>audio</mediatype>
							<parameter>
								<name>Pan</name>
								<parameterid>pan</parameterid>
								<valuemin>-1</valuemin>
								<valuemax>1</valuemax>
								<value>0</value>
							</parameter>
						</effect>
					</filter>
					<sourcetrack>
						<mediatype>audio</mediatype>
						<trackindex>1</trackindex>
					</sourcetrack>
					<link>
						<linkclipref>408-13-01-03B44</linkclipref>
						<mediatype>video</mediatype>
						<trackindex>1</trackindex>
						<clipindex>18</clipindex>
					</link>
					<link>
						<linkclipref>408-13-01-03B45</linkclipref>
						<mediatype>audio</mediatype>
						<trackindex>1</trackindex>
						<clipindex>17</clipindex>
					</link>
					<link>
						<linkclipref>408-13-01-03B46</linkclipref>
						<mediatype>audio</mediatype>
						<trackindex>2</trackindex>
						<clipindex>17</clipindex>
					</link>
					<link>
						<linkclipref>408-13-01-03B47</linkclipref>
						<mediatype>audio</mediatype>
						<trackindex>3</trackindex>
						<clipindex>17</clipindex>
					</link>
					<link>
						<linkclipref>408-13-01-03B48</linkclipref>
						<mediatype>audio</mediatype>
						<trackindex>4</trackindex>
						<clipindex>17</clipindex>
					</link>
					<link>
						<linkclipref>408-13-01-03B49</linkclipref>
						<mediatype>audio</mediatype>
						<trackindex>5</trackindex>
						<clipindex>17</clipindex>
					</link>
					<link>
						<linkclipref>408-13-01-03B50</linkclipref>
						<mediatype>audio</mediatype>
						<trackindex>6</trackindex>
						<clipindex>17</clipindex>
					</link>
					<multiclip id="16"/>
					<itemhistory>
						<uuid>A3345CCB-AD36-40F9-A3E6-606850D1577A</uuid>
					</itemhistory>
				</clipitem>
				<clipitem id="408-13-02-03B53">
					<name>408-13-02-03B</name>
					<duration>3750</duration>
					<rate>
						<ntsc>FALSE</ntsc>
						<timebase>25</timebase>
					</rate>
					<in>2585</in>
					<out>2827</out>
					<start>1970</start>
					<end>2212</end>
					<subframeoffset>0</subframeoffset>
					<enabled>TRUE</enabled>
					<masterclipid>408-13-02-03B1</masterclipid>
					<syncoffset>0</syncoffset>
					<logginginfo>
						<scene/>
						<shottake/>
						<lognote/>
						<good>FALSE</good>
					</logginginfo>
					<labels>
						<label2/>
					</labels>
					<comments>
						<mastercomment1/>
						<mastercomment2/>
						<mastercomment3/>
						<mastercomment4/>
					</comments>
					<file id="MW-013-2T03 "/>
					<filter>
						<effect>
							<name>Audio Levels</name>
							<effectid>audiolevels</effectid>
							<effectcategory>audiolevels</effectcategory>
							<effecttype>audiolevels</effecttype>
							<mediatype>audio</mediatype>
							<parameter>
								<name>Level</name>
								<parameterid>level</parameterid>
								<valuemin>0</valuemin>
								<valuemax>3.98109</valuemax>
								<value>1</value>
							</parameter>
						</effect>
					</filter>
					<filter>
						<effect>
							<name>Audio Pan</name>
							<effectid>audiopan</effectid>
							<effectcategory>audiopan</effectcategory>
							<effecttype>audiopan</effecttype>
							<mediatype>audio</mediatype>
							<parameter>
								<name>Pan</name>
								<parameterid>pan</parameterid>
								<valuemin>-1</valuemin>
								<valuemax>1</valuemax>
								<value>0</value>
							</parameter>
						</effect>
					</filter>
					<sourcetrack>
						<mediatype>audio</mediatype>
						<trackindex>1</trackindex>
					</sourcetrack>
					<link>
						<linkclipref>408-13-02-03B52</linkclipref>
						<mediatype>video</mediatype>
						<trackindex>1</trackindex>
						<clipindex>19</clipindex>
					</link>
					<link>
						<linkclipref>408-13-02-03B53</linkclipref>
						<mediatype>audio</mediatype>
						<trackindex>1</trackindex>
						<clipindex>18</clipindex>
					</link>
					<link>
						<linkclipref>408-13-02-03B54</linkclipref>
						<mediatype>audio</mediatype>
						<trackindex>2</trackindex>
						<clipindex>18</clipindex>
					</link>
					<link>
						<linkclipref>408-13-02-03B55</linkclipref>
						<mediatype>audio</mediatype>
						<trackindex>3</trackindex>
						<clipindex>18</clipindex>
					</link>
					<link>
						<linkclipref>408-13-02-03B56</linkclipref>
						<mediatype>audio</mediatype>
						<trackindex>4</trackindex>
						<clipindex>18</clipindex>
					</link>
					<link>
						<linkclipref>408-13-02-03B57</linkclipref>
						<mediatype>audio</mediatype>
						<trackindex>5</trackindex>
						<clipindex>18</clipindex>
					</link>
					<link>
						<linkclipref>408-13-02-03B58</linkclipref>
						<mediatype>audio</mediatype>
						<trackindex>6</trackindex>
						<clipindex>18</clipindex>
					</link>
					<multiclip id="17"/>
					<itemhistory>
						<uuid>E26A09E4-C61E-46F4-BB88-BCB0DB1CA5F9</uuid>
					</itemhistory>
				</clipitem>
				<clipitem id="408-13-01-03B52">
					<name>408-13-01-03B</name>
					<duration>3700</duration>
					<rate>
						<ntsc>FALSE</ntsc>
						<timebase>25</timebase>
					</rate>
					<in>2799</in>
					<out>2816</out>
					<start>2212</start>
					<end>2229</end>
					<enabled>TRUE</enabled>
					<masterclipid>408-13-01-03B2</masterclipid>
					<syncoffset>0</syncoffset>
					<logginginfo>
						<scene/>
						<shottake/>
						<lognote/>
						<good>FALSE</good>
					</logginginfo>
					<labels>
						<label2/>
					</labels>
					<comments>
						<mastercomment1/>
						<mastercomment2/>
						<mastercomment3/>
						<mastercomment4/>
					</comments>
					<file id="MW-013-1T03 "/>
					<filter>
						<effect>
							<name>Audio Levels</name>
							<effectid>audiolevels</effectid>
							<effectcategory>audiolevels</effectcategory>
							<effecttype>audiolevels</effecttype>
							<mediatype>audio</mediatype>
							<parameter>
								<name>Level</name>
								<parameterid>level</parameterid>
								<valuemin>0</valuemin>
								<valuemax>3.98109</valuemax>
								<value>1</value>
							</parameter>
						</effect>
					</filter>
					<filter>
						<effect>
							<name>Audio Pan</name>
							<effectid>audiopan</effectid>
							<effectcategory>audiopan</effectcategory>
							<effecttype>audiopan</effecttype>
							<mediatype>audio</mediatype>
							<parameter>
								<name>Pan</name>
								<parameterid>pan</parameterid>
								<valuemin>-1</valuemin>
								<valuemax>1</valuemax>
								<value>0</value>
							</parameter>
						</effect>
					</filter>
					<sourcetrack>
						<mediatype>audio</mediatype>
						<trackindex>1</trackindex>
					</sourcetrack>
					<link>
						<linkclipref>408-13-01-03B51</linkclipref>
						<mediatype>video</mediatype>
						<trackindex>1</trackindex>
						<clipindex>20</clipindex>
					</link>
					<link>
						<linkclipref>408-13-01-03B52</linkclipref>
						<mediatype>audio</mediatype>
						<trackindex>1</trackindex>
						<clipindex>19</clipindex>
					</link>
					<link>
						<linkclipref>408-13-01-03B53</linkclipref>
						<mediatype>audio</mediatype>
						<trackindex>2</trackindex>
						<clipindex>19</clipindex>
					</link>
					<link>
						<linkclipref>408-13-01-03B54</linkclipref>
						<mediatype>audio</mediatype>
						<trackindex>3</trackindex>
						<clipindex>19</clipindex>
					</link>
					<link>
						<linkclipref>408-13-01-03B55</linkclipref>
						<mediatype>audio</mediatype>
						<trackindex>4</trackindex>
						<clipindex>19</clipindex>
					</link>
					<link>
						<linkclipref>408-13-01-03B56</linkclipref>
						<mediatype>audio</mediatype>
						<trackindex>5</trackindex>
						<clipindex>19</clipindex>
					</link>
					<link>
						<linkclipref>408-13-01-03B57</linkclipref>
						<mediatype>audio</mediatype>
						<trackindex>6</trackindex>
						<clipindex>19</clipindex>
					</link>
					<multiclip id="18"/>
					<itemhistory>
						<uuid>5654F396-0F85-4723-8212-7FE9B272C081</uuid>
					</itemhistory>
				</clipitem>
				<clipitem id="408-13-03-05A25">
					<name>408-13-03-05A</name>
					<duration>2100</duration>
					<rate>
						<ntsc>FALSE</ntsc>
						<timebase>25</timebase>
					</rate>
					<in>1332</in>
					<out>1389</out>
					<start>2229</start>
					<end>2286</end>
					<subframeoffset>0</subframeoffset>
					<enabled>TRUE</enabled>
					<masterclipid>408-13-03-05A1</masterclipid>
					<syncoffset>0</syncoffset>
					<logginginfo>
						<scene/>
						<shottake/>
						<lognote/>
						<good>FALSE</good>
					</logginginfo>
					<labels>
						<label2/>
					</labels>
					<comments>
						<mastercomment1/>
						<mastercomment2/>
						<mastercomment3/>
						<mastercomment4/>
					</comments>
					<file id="MW-013-3T05 "/>
					<filter>
						<effect>
							<name>Audio Levels</name>
							<effectid>audiolevels</effectid>
							<effectcategory>audiolevels</effectcategory>
							<effecttype>audiolevels</effecttype>
							<mediatype>audio</mediatype>
							<parameter>
								<name>Level</name>
								<parameterid>level</parameterid>
								<valuemin>0</valuemin>
								<valuemax>3.98109</valuemax>
								<value>1</value>
							</parameter>
						</effect>
					</filter>
					<filter>
						<effect>
							<name>Audio Pan</name>
							<effectid>audiopan</effectid>
							<effectcategory>audiopan</effectcategory>
							<effecttype>audiopan</effecttype>
							<mediatype>audio</mediatype>
							<parameter>
								<name>Pan</name>
								<parameterid>pan</parameterid>
								<valuemin>-1</valuemin>
								<valuemax>1</valuemax>
								<value>0</value>
							</parameter>
						</effect>
					</filter>
					<sourcetrack>
						<mediatype>audio</mediatype>
						<trackindex>1</trackindex>
					</sourcetrack>
					<link>
						<linkclipref>408-13-03-05A24</linkclipref>
						<mediatype>video</mediatype>
						<trackindex>1</trackindex>
						<clipindex>21</clipindex>
					</link>
					<link>
						<linkclipref>408-13-03-05A25</linkclipref>
						<mediatype>audio</mediatype>
						<trackindex>1</trackindex>
						<clipindex>20</clipindex>
					</link>
					<link>
						<linkclipref>408-13-03-05A26</linkclipref>
						<mediatype>audio</mediatype>
						<trackindex>2</trackindex>
						<clipindex>20</clipindex>
					</link>
					<link>
						<linkclipref>408-13-03-05A27</linkclipref>
						<mediatype>audio</mediatype>
						<trackindex>3</trackindex>
						<clipindex>20</clipindex>
					</link>
					<link>
						<linkclipref>408-13-03-05A28</linkclipref>
						<mediatype>audio</mediatype>
						<trackindex>4</trackindex>
						<clipindex>20</clipindex>
					</link>
					<link>
						<linkclipref>408-13-03-05A29</linkclipref>
						<mediatype>audio</mediatype>
						<trackindex>5</trackindex>
						<clipindex>20</clipindex>
					</link>
					<link>
						<linkclipref>408-13-03-05A30</linkclipref>
						<mediatype>audio</mediatype>
						<trackindex>6</trackindex>
						<clipindex>20</clipindex>
					</link>
					<multiclip id="19"/>
					<itemhistory>
						<uuid>7B00DE3F-0577-4CB4-A0C3-CE7210397ACC</uuid>
					</itemhistory>
				</clipitem>
				<clipitem id="408-13-01-03B59">
					<name>408-13-01-03B</name>
					<duration>3700</duration>
					<rate>
						<ntsc>FALSE</ntsc>
						<timebase>25</timebase>
					</rate>
					<in>2863</in>
					<out>2905</out>
					<start>2286</start>
					<end>2328</end>
					<enabled>TRUE</enabled>
					<masterclipid>408-13-01-03B2</masterclipid>
					<syncoffset>0</syncoffset>
					<logginginfo>
						<scene/>
						<shottake/>
						<lognote/>
						<good>FALSE</good>
					</logginginfo>
					<labels>
						<label2/>
					</labels>
					<comments>
						<mastercomment1/>
						<mastercomment2/>
						<mastercomment3/>
						<mastercomment4/>
					</comments>
					<file id="MW-013-1T03 "/>
					<filter>
						<effect>
							<name>Audio Levels</name>
							<effectid>audiolevels</effectid>
							<effectcategory>audiolevels</effectcategory>
							<effecttype>audiolevels</effecttype>
							<mediatype>audio</mediatype>
							<parameter>
								<name>Level</name>
								<parameterid>level</parameterid>
								<valuemin>0</valuemin>
								<valuemax>3.98109</valuemax>
								<value>1</value>
							</parameter>
						</effect>
					</filter>
					<filter>
						<effect>
							<name>Audio Pan</name>
							<effectid>audiopan</effectid>
							<effectcategory>audiopan</effectcategory>
							<effecttype>audiopan</effecttype>
							<mediatype>audio</mediatype>
							<parameter>
								<name>Pan</name>
								<parameterid>pan</parameterid>
								<valuemin>-1</valuemin>
								<valuemax>1</valuemax>
								<value>0</value>
							</parameter>
						</effect>
					</filter>
					<sourcetrack>
						<mediatype>audio</mediatype>
						<trackindex>1</trackindex>
					</sourcetrack>
					<link>
						<linkclipref>408-13-01-03B58</linkclipref>
						<mediatype>video</mediatype>
						<trackindex>1</trackindex>
						<clipindex>22</clipindex>
					</link>
					<link>
						<linkclipref>408-13-01-03B59</linkclipref>
						<mediatype>audio</mediatype>
						<trackindex>1</trackindex>
						<clipindex>21</clipindex>
					</link>
					<link>
						<linkclipref>408-13-01-03B60</linkclipref>
						<mediatype>audio</mediatype>
						<trackindex>2</trackindex>
						<clipindex>21</clipindex>
					</link>
					<link>
						<linkclipref>408-13-01-03B61</linkclipref>
						<mediatype>audio</mediatype>
						<trackindex>3</trackindex>
						<clipindex>21</clipindex>
					</link>
					<link>
						<linkclipref>408-13-01-03B62</linkclipref>
						<mediatype>audio</mediatype>
						<trackindex>4</trackindex>
						<clipindex>21</clipindex>
					</link>
					<link>
						<linkclipref>408-13-01-03B63</linkclipref>
						<mediatype>audio</mediatype>
						<trackindex>5</trackindex>
						<clipindex>21</clipindex>
					</link>
					<link>
						<linkclipref>408-13-01-03B64</linkclipref>
						<mediatype>audio</mediatype>
						<trackindex>6</trackindex>
						<clipindex>21</clipindex>
					</link>
					<multiclip id="20"/>
					<itemhistory>
						<uuid>9A448EC5-0EF6-414F-8F3F-F66AAF3A8EA6</uuid>
					</itemhistory>
				</clipitem>
				<clipitem id="408-13-03-05B17">
					<name>408-13-03-05B</name>
					<duration>2100</duration>
					<rate>
						<ntsc>FALSE</ntsc>
						<timebase>25</timebase>
					</rate>
					<in>1466</in>
					<out>1723</out>
					<start>2328</start>
					<end>2585</end>
					<enabled>TRUE</enabled>
					<masterclipid>408-13-03-05B2</masterclipid>
					<syncoffset>0</syncoffset>
					<logginginfo>
						<scene/>
						<shottake/>
						<lognote/>
						<good>FALSE</good>
					</logginginfo>
					<labels>
						<label2/>
					</labels>
					<comments>
						<mastercomment1/>
						<mastercomment2/>
						<mastercomment3/>
						<mastercomment4/>
					</comments>
					<file id="MW-013-3T05 "/>
					<filter>
						<effect>
							<name>Audio Levels</name>
							<effectid>audiolevels</effectid>
							<effectcategory>audiolevels</effectcategory>
							<effecttype>audiolevels</effecttype>
							<mediatype>audio</mediatype>
							<parameter>
								<name>Level</name>
								<parameterid>level</parameterid>
								<valuemin>0</valuemin>
								<valuemax>3.98109</valuemax>
								<value>1</value>
							</parameter>
						</effect>
					</filter>
					<filter>
						<effect>
							<name>Audio Pan</name>
							<effectid>audiopan</effectid>
							<effectcategory>audiopan</effectcategory>
							<effecttype>audiopan</effecttype>
							<mediatype>audio</mediatype>
							<parameter>
								<name>Pan</name>
								<parameterid>pan</parameterid>
								<valuemin>-1</valuemin>
								<valuemax>1</valuemax>
								<value>0</value>
							</parameter>
						</effect>
					</filter>
					<sourcetrack>
						<mediatype>audio</mediatype>
						<trackindex>1</trackindex>
					</sourcetrack>
					<link>
						<linkclipref>408-13-03-05B16</linkclipref>
						<mediatype>video</mediatype>
						<trackindex>1</trackindex>
						<clipindex>23</clipindex>
					</link>
					<link>
						<linkclipref>408-13-03-05B17</linkclipref>
						<mediatype>audio</mediatype>
						<trackindex>1</trackindex>
						<clipindex>22</clipindex>
					</link>
					<link>
						<linkclipref>408-13-03-05B18</linkclipref>
						<mediatype>audio</mediatype>
						<trackindex>2</trackindex>
						<clipindex>22</clipindex>
					</link>
					<link>
						<linkclipref>408-13-03-05B19</linkclipref>
						<mediatype>audio</mediatype>
						<trackindex>3</trackindex>
						<clipindex>22</clipindex>
					</link>
					<link>
						<linkclipref>408-13-03-05B20</linkclipref>
						<mediatype>audio</mediatype>
						<trackindex>4</trackindex>
						<clipindex>22</clipindex>
					</link>
					<link>
						<linkclipref>408-13-03-05B21</linkclipref>
						<mediatype>audio</mediatype>
						<trackindex>5</trackindex>
						<clipindex>22</clipindex>
					</link>
					<link>
						<linkclipref>408-13-03-05B22</linkclipref>
						<mediatype>audio</mediatype>
						<trackindex>6</trackindex>
						<clipindex>22</clipindex>
					</link>
					<multiclip id="21"/>
					<itemhistory>
						<uuid>2DCE944D-13BB-440A-8EFE-E623C90D30A9</uuid>
					</itemhistory>
				</clipitem>
				<clipitem id="408-13-01-03B66">
					<name>408-13-01-03B</name>
					<duration>3700</duration>
					<rate>
						<ntsc>FALSE</ntsc>
						<timebase>25</timebase>
					</rate>
					<in>3139</in>
					<out>3215</out>
					<start>2585</start>
					<end>2661</end>
					<enabled>TRUE</enabled>
					<masterclipid>408-13-01-03B2</masterclipid>
					<syncoffset>0</syncoffset>
					<logginginfo>
						<scene/>
						<shottake/>
						<lognote/>
						<good>FALSE</good>
					</logginginfo>
					<labels>
						<label2/>
					</labels>
					<comments>
						<mastercomment1/>
						<mastercomment2/>
						<mastercomment3/>
						<mastercomment4/>
					</comments>
					<file id="MW-013-1T03 "/>
					<filter>
						<effect>
							<name>Audio Levels</name>
							<effectid>audiolevels</effectid>
							<effectcategory>audiolevels</effectcategory>
							<effecttype>audiolevels</effecttype>
							<mediatype>audio</mediatype>
							<parameter>
								<name>Level</name>
								<parameterid>level</parameterid>
								<valuemin>0</valuemin>
								<valuemax>3.98109</valuemax>
								<value>1</value>
							</parameter>
						</effect>
					</filter>
					<filter>
						<effect>
							<name>Audio Pan</name>
							<effectid>audiopan</effectid>
							<effectcategory>audiopan</effectcategory>
							<effecttype>audiopan</effecttype>
							<mediatype>audio</mediatype>
							<parameter>
								<name>Pan</name>
								<parameterid>pan</parameterid>
								<valuemin>-1</valuemin>
								<valuemax>1</valuemax>
								<value>0</value>
							</parameter>
						</effect>
					</filter>
					<sourcetrack>
						<mediatype>audio</mediatype>
						<trackindex>1</trackindex>
					</sourcetrack>
					<link>
						<linkclipref>408-13-01-03B65</linkclipref>
						<mediatype>video</mediatype>
						<trackindex>1</trackindex>
						<clipindex>24</clipindex>
					</link>
					<link>
						<linkclipref>408-13-01-03B66</linkclipref>
						<mediatype>audio</mediatype>
						<trackindex>1</trackindex>
						<clipindex>23</clipindex>
					</link>
					<link>
						<linkclipref>408-13-01-03B67</linkclipref>
						<mediatype>audio</mediatype>
						<trackindex>2</trackindex>
						<clipindex>23</clipindex>
					</link>
					<link>
						<linkclipref>408-13-01-03B68</linkclipref>
						<mediatype>audio</mediatype>
						<trackindex>3</trackindex>
						<clipindex>23</clipindex>
					</link>
					<link>
						<linkclipref>408-13-01-03B69</linkclipref>
						<mediatype>audio</mediatype>
						<trackindex>4</trackindex>
						<clipindex>23</clipindex>
					</link>
					<link>
						<linkclipref>408-13-01-03B70</linkclipref>
						<mediatype>audio</mediatype>
						<trackindex>5</trackindex>
						<clipindex>23</clipindex>
					</link>
					<link>
						<linkclipref>408-13-01-03B71</linkclipref>
						<mediatype>audio</mediatype>
						<trackindex>6</trackindex>
						<clipindex>23</clipindex>
					</link>
					<multiclip id="22"/>
					<itemhistory>
						<uuid>2E379AF3-4F8B-41FB-AB47-869FD2F4D762</uuid>
					</itemhistory>
				</clipitem>
				<clipitem id="408-13-01-03A25">
					<name>408-13-01-03A</name>
					<duration>3700</duration>
					<rate>
						<ntsc>FALSE</ntsc>
						<timebase>25</timebase>
					</rate>
					<in>3215</in>
					<out>3594</out>
					<start>2661</start>
					<end>3040</end>
					<enabled>TRUE</enabled>
					<masterclipid>408-13-01-03A1</masterclipid>
					<syncoffset>0</syncoffset>
					<logginginfo>
						<scene/>
						<shottake/>
						<lognote/>
						<good>FALSE</good>
					</logginginfo>
					<labels>
						<label2/>
					</labels>
					<comments>
						<mastercomment1/>
						<mastercomment2/>
						<mastercomment3/>
						<mastercomment4/>
					</comments>
					<file id="MW-013-1T03 "/>
					<filter>
						<effect>
							<name>Audio Levels</name>
							<effectid>audiolevels</effectid>
							<effectcategory>audiolevels</effectcategory>
							<effecttype>audiolevels</effecttype>
							<mediatype>audio</mediatype>
							<parameter>
								<name>Level</name>
								<parameterid>level</parameterid>
								<valuemin>0</valuemin>
								<valuemax>3.98109</valuemax>
								<value>1</value>
							</parameter>
						</effect>
					</filter>
					<filter>
						<effect>
							<name>Audio Pan</name>
							<effectid>audiopan</effectid>
							<effectcategory>audiopan</effectcategory>
							<effecttype>audiopan</effecttype>
							<mediatype>audio</mediatype>
							<parameter>
								<name>Pan</name>
								<parameterid>pan</parameterid>
								<valuemin>-1</valuemin>
								<valuemax>1</valuemax>
								<value>0</value>
							</parameter>
						</effect>
					</filter>
					<sourcetrack>
						<mediatype>audio</mediatype>
						<trackindex>1</trackindex>
					</sourcetrack>
					<link>
						<linkclipref>408-13-01-03A24</linkclipref>
						<mediatype>video</mediatype>
						<trackindex>1</trackindex>
						<clipindex>25</clipindex>
					</link>
					<link>
						<linkclipref>408-13-01-03A25</linkclipref>
						<mediatype>audio</mediatype>
						<trackindex>1</trackindex>
						<clipindex>24</clipindex>
					</link>
					<link>
						<linkclipref>408-13-01-03A26</linkclipref>
						<mediatype>audio</mediatype>
						<trackindex>2</trackindex>
						<clipindex>24</clipindex>
					</link>
					<link>
						<linkclipref>408-13-01-03A27</linkclipref>
						<mediatype>audio</mediatype>
						<trackindex>3</trackindex>
						<clipindex>24</clipindex>
					</link>
					<link>
						<linkclipref>408-13-01-03A28</linkclipref>
						<mediatype>audio</mediatype>
						<trackindex>4</trackindex>
						<clipindex>24</clipindex>
					</link>
					<link>
						<linkclipref>408-13-01-03A29</linkclipref>
						<mediatype>audio</mediatype>
						<trackindex>5</trackindex>
						<clipindex>24</clipindex>
					</link>
					<link>
						<linkclipref>408-13-01-03A30</linkclipref>
						<mediatype>audio</mediatype>
						<trackindex>6</trackindex>
						<clipindex>24</clipindex>
					</link>
					<multiclip id="23"/>
					<itemhistory>
						<uuid>F5488E5E-073B-4C59-B7CF-9CC6BD8D4642</uuid>
					</itemhistory>
				</clipitem>
				<enabled>TRUE</enabled>
				<locked>FALSE</locked>
				<outputchannelindex>1</outputchannelindex>
			</track>
			<track>
				<clipitem id="408-13-01-03A3">
					<name>408-13-01-03A</name>
					<duration>3700</duration>
					<rate>
						<ntsc>FALSE</ntsc>
						<timebase>25</timebase>
					</rate>
					<in>485</in>
					<out>630</out>
					<start>59</start>
					<end>204</end>
					<subframeoffset>0</subframeoffset>
					<enabled>TRUE</enabled>
					<masterclipid>408-13-01-03A1</masterclipid>
					<syncoffset>0</syncoffset>
					<logginginfo>
						<scene/>
						<shottake/>
						<lognote/>
						<good>FALSE</good>
					</logginginfo>
					<labels>
						<label2/>
					</labels>
					<comments>
						<mastercomment1/>
						<mastercomment2/>
						<mastercomment3/>
						<mastercomment4/>
					</comments>
					<file id="MW-013-1T03 "/>
					<filter>
						<effect>
							<name>Audio Levels</name>
							<effectid>audiolevels</effectid>
							<effectcategory>audiolevels</effectcategory>
							<effecttype>audiolevels</effecttype>
							<mediatype>audio</mediatype>
							<parameter>
								<name>Level</name>
								<parameterid>level</parameterid>
								<valuemin>0</valuemin>
								<valuemax>3.98109</valuemax>
								<value>1</value>
							</parameter>
						</effect>
					</filter>
					<filter>
						<effect>
							<name>Audio Pan</name>
							<effectid>audiopan</effectid>
							<effectcategory>audiopan</effectcategory>
							<effecttype>audiopan</effecttype>
							<mediatype>audio</mediatype>
							<parameter>
								<name>Pan</name>
								<parameterid>pan</parameterid>
								<valuemin>-1</valuemin>
								<valuemax>1</valuemax>
								<value>0</value>
							</parameter>
						</effect>
					</filter>
					<sourcetrack>
						<mediatype>audio</mediatype>
						<trackindex>2</trackindex>
					</sourcetrack>
					<link>
						<linkclipref>408-13-01-03A</linkclipref>
						<mediatype>video</mediatype>
						<trackindex>1</trackindex>
						<clipindex>2</clipindex>
					</link>
					<link>
						<linkclipref>408-13-01-03A2</linkclipref>
						<mediatype>audio</mediatype>
						<trackindex>1</trackindex>
						<clipindex>1</clipindex>
					</link>
					<link>
						<linkclipref>408-13-01-03A3</linkclipref>
						<mediatype>audio</mediatype>
						<trackindex>2</trackindex>
						<clipindex>1</clipindex>
					</link>
					<link>
						<linkclipref>408-13-01-03A4</linkclipref>
						<mediatype>audio</mediatype>
						<trackindex>3</trackindex>
						<clipindex>1</clipindex>
					</link>
					<link>
						<linkclipref>408-13-01-03A5</linkclipref>
						<mediatype>audio</mediatype>
						<trackindex>4</trackindex>
						<clipindex>1</clipindex>
					</link>
					<link>
						<linkclipref>408-13-01-03A6</linkclipref>
						<mediatype>audio</mediatype>
						<trackindex>5</trackindex>
						<clipindex>1</clipindex>
					</link>
					<link>
						<linkclipref>408-13-01-03A7</linkclipref>
						<mediatype>audio</mediatype>
						<trackindex>6</trackindex>
						<clipindex>1</clipindex>
					</link>
					<multiclip id="25">
						<collapsed>FALSE</collapsed>
						<synctype>1</synctype>
						<angle>
							<activevideoangle>TRUE</activevideoangle>
							<activeaudioangle>TRUE</activeaudioangle>
							<clip id="408-13-01-03A8"/>
						</angle>
						<angle>
							<clip id="408-13-01-03B"/>
						</angle>
						<masterclipid>408-13-01-03A16</masterclipid>
					</multiclip>
					<itemhistory>
						<uuid>83D10753-447B-4E0C-8EFA-D1D552D94CBD</uuid>
					</itemhistory>
				</clipitem>
				<clipitem id="408-13-01-03A19">
					<name>408-13-01-03A</name>
					<duration>3700</duration>
					<rate>
						<ntsc>FALSE</ntsc>
						<timebase>25</timebase>
					</rate>
					<in>627</in>
					<out>670</out>
					<start>212</start>
					<end>255</end>
					<subframeoffset>0</subframeoffset>
					<enabled>TRUE</enabled>
					<masterclipid>408-13-01-03A1</masterclipid>
					<syncoffset>0</syncoffset>
					<logginginfo>
						<scene/>
						<shottake/>
						<lognote/>
						<good>FALSE</good>
					</logginginfo>
					<labels>
						<label2/>
					</labels>
					<comments>
						<mastercomment1/>
						<mastercomment2/>
						<mastercomment3/>
						<mastercomment4/>
					</comments>
					<file id="MW-013-1T03 "/>
					<filter>
						<effect>
							<name>Audio Levels</name>
							<effectid>audiolevels</effectid>
							<effectcategory>audiolevels</effectcategory>
							<effecttype>audiolevels</effecttype>
							<mediatype>audio</mediatype>
							<parameter>
								<name>Level</name>
								<parameterid>level</parameterid>
								<valuemin>0</valuemin>
								<valuemax>3.98109</valuemax>
								<value>1</value>
							</parameter>
						</effect>
					</filter>
					<filter>
						<effect>
							<name>Audio Pan</name>
							<effectid>audiopan</effectid>
							<effectcategory>audiopan</effectcategory>
							<effecttype>audiopan</effecttype>
							<mediatype>audio</mediatype>
							<parameter>
								<name>Pan</name>
								<parameterid>pan</parameterid>
								<valuemin>-1</valuemin>
								<valuemax>1</valuemax>
								<value>0</value>
							</parameter>
						</effect>
					</filter>
					<sourcetrack>
						<mediatype>audio</mediatype>
						<trackindex>2</trackindex>
					</sourcetrack>
					<link>
						<linkclipref>408-13-01-03A17</linkclipref>
						<mediatype>video</mediatype>
						<trackindex>1</trackindex>
						<clipindex>3</clipindex>
					</link>
					<link>
						<linkclipref>408-13-01-03A18</linkclipref>
						<mediatype>audio</mediatype>
						<trackindex>1</trackindex>
						<clipindex>2</clipindex>
					</link>
					<link>
						<linkclipref>408-13-01-03A19</linkclipref>
						<mediatype>audio</mediatype>
						<trackindex>2</trackindex>
						<clipindex>2</clipindex>
					</link>
					<link>
						<linkclipref>408-13-01-03A20</linkclipref>
						<mediatype>audio</mediatype>
						<trackindex>3</trackindex>
						<clipindex>2</clipindex>
					</link>
					<link>
						<linkclipref>408-13-01-03A21</linkclipref>
						<mediatype>audio</mediatype>
						<trackindex>4</trackindex>
						<clipindex>2</clipindex>
					</link>
					<link>
						<linkclipref>408-13-01-03A22</linkclipref>
						<mediatype>audio</mediatype>
						<trackindex>5</trackindex>
						<clipindex>2</clipindex>
					</link>
					<link>
						<linkclipref>408-13-01-03A23</linkclipref>
						<mediatype>audio</mediatype>
						<trackindex>6</trackindex>
						<clipindex>2</clipindex>
					</link>
					<multiclip id="1"/>
					<itemhistory>
						<uuid>41028C15-9089-4BBC-B558-BD8FE01AA97E</uuid>
					</itemhistory>
				</clipitem>
				<clipitem id="408-13-01-03B11">
					<name>408-13-01-03B</name>
					<duration>3700</duration>
					<rate>
						<ntsc>FALSE</ntsc>
						<timebase>25</timebase>
					</rate>
					<in>670</in>
					<out>785</out>
					<start>255</start>
					<end>370</end>
					<enabled>TRUE</enabled>
					<masterclipid>408-13-01-03B2</masterclipid>
					<syncoffset>0</syncoffset>
					<logginginfo>
						<scene/>
						<shottake/>
						<lognote/>
						<good>FALSE</good>
					</logginginfo>
					<labels>
						<label2/>
					</labels>
					<comments>
						<mastercomment1/>
						<mastercomment2/>
						<mastercomment3/>
						<mastercomment4/>
					</comments>
					<file id="MW-013-1T03 "/>
					<filter>
						<effect>
							<name>Audio Levels</name>
							<effectid>audiolevels</effectid>
							<effectcategory>audiolevels</effectcategory>
							<effecttype>audiolevels</effecttype>
							<mediatype>audio</mediatype>
							<parameter>
								<name>Level</name>
								<parameterid>level</parameterid>
								<valuemin>0</valuemin>
								<valuemax>3.98109</valuemax>
								<value>1</value>
							</parameter>
						</effect>
					</filter>
					<filter>
						<effect>
							<name>Audio Pan</name>
							<effectid>audiopan</effectid>
							<effectcategory>audiopan</effectcategory>
							<effecttype>audiopan</effecttype>
							<mediatype>audio</mediatype>
							<parameter>
								<name>Pan</name>
								<parameterid>pan</parameterid>
								<valuemin>-1</valuemin>
								<valuemax>1</valuemax>
								<value>0</value>
							</parameter>
						</effect>
					</filter>
					<sourcetrack>
						<mediatype>audio</mediatype>
						<trackindex>2</trackindex>
					</sourcetrack>
					<link>
						<linkclipref>408-13-01-03B9</linkclipref>
						<mediatype>video</mediatype>
						<trackindex>1</trackindex>
						<clipindex>4</clipindex>
					</link>
					<link>
						<linkclipref>408-13-01-03B10</linkclipref>
						<mediatype>audio</mediatype>
						<trackindex>1</trackindex>
						<clipindex>3</clipindex>
					</link>
					<link>
						<linkclipref>408-13-01-03B11</linkclipref>
						<mediatype>audio</mediatype>
						<trackindex>2</trackindex>
						<clipindex>3</clipindex>
					</link>
					<link>
						<linkclipref>408-13-01-03B12</linkclipref>
						<mediatype>audio</mediatype>
						<trackindex>3</trackindex>
						<clipindex>3</clipindex>
					</link>
					<link>
						<linkclipref>408-13-01-03B13</linkclipref>
						<mediatype>audio</mediatype>
						<trackindex>4</trackindex>
						<clipindex>3</clipindex>
					</link>
					<link>
						<linkclipref>408-13-01-03B14</linkclipref>
						<mediatype>audio</mediatype>
						<trackindex>5</trackindex>
						<clipindex>3</clipindex>
					</link>
					<link>
						<linkclipref>408-13-01-03B15</linkclipref>
						<mediatype>audio</mediatype>
						<trackindex>6</trackindex>
						<clipindex>3</clipindex>
					</link>
					<multiclip id="2"/>
					<itemhistory>
						<uuid>A85B9298-7A5F-438D-A177-B5B05DED368E</uuid>
					</itemhistory>
				</clipitem>
				<clipitem id="408-13-02-03B3">
					<name>408-13-02-03B</name>
					<duration>3750</duration>
					<rate>
						<ntsc>FALSE</ntsc>
						<timebase>25</timebase>
					</rate>
					<in>1017</in>
					<out>1119</out>
					<start>370</start>
					<end>472</end>
					<enabled>TRUE</enabled>
					<masterclipid>408-13-02-03B1</masterclipid>
					<syncoffset>0</syncoffset>
					<logginginfo>
						<scene/>
						<shottake/>
						<lognote/>
						<good>FALSE</good>
					</logginginfo>
					<labels>
						<label2/>
					</labels>
					<comments>
						<mastercomment1/>
						<mastercomment2/>
						<mastercomment3/>
						<mastercomment4/>
					</comments>
					<file id="MW-013-2T03 "/>
					<filter>
						<effect>
							<name>Audio Levels</name>
							<effectid>audiolevels</effectid>
							<effectcategory>audiolevels</effectcategory>
							<effecttype>audiolevels</effecttype>
							<mediatype>audio</mediatype>
							<parameter>
								<name>Level</name>
								<parameterid>level</parameterid>
								<valuemin>0</valuemin>
								<valuemax>3.98109</valuemax>
								<value>1</value>
							</parameter>
						</effect>
					</filter>
					<filter>
						<effect>
							<name>Audio Pan</name>
							<effectid>audiopan</effectid>
							<effectcategory>audiopan</effectcategory>
							<effecttype>audiopan</effecttype>
							<mediatype>audio</mediatype>
							<parameter>
								<name>Pan</name>
								<parameterid>pan</parameterid>
								<valuemin>-1</valuemin>
								<valuemax>1</valuemax>
								<value>0</value>
							</parameter>
						</effect>
					</filter>
					<sourcetrack>
						<mediatype>audio</mediatype>
						<trackindex>2</trackindex>
					</sourcetrack>
					<link>
						<linkclipref>408-13-02-03B</linkclipref>
						<mediatype>video</mediatype>
						<trackindex>1</trackindex>
						<clipindex>5</clipindex>
					</link>
					<link>
						<linkclipref>408-13-02-03B2</linkclipref>
						<mediatype>audio</mediatype>
						<trackindex>1</trackindex>
						<clipindex>4</clipindex>
					</link>
					<link>
						<linkclipref>408-13-02-03B3</linkclipref>
						<mediatype>audio</mediatype>
						<trackindex>2</trackindex>
						<clipindex>4</clipindex>
					</link>
					<link>
						<linkclipref>408-13-02-03B4</linkclipref>
						<mediatype>audio</mediatype>
						<trackindex>3</trackindex>
						<clipindex>4</clipindex>
					</link>
					<link>
						<linkclipref>408-13-02-03B5</linkclipref>
						<mediatype>audio</mediatype>
						<trackindex>4</trackindex>
						<clipindex>4</clipindex>
					</link>
					<link>
						<linkclipref>408-13-02-03B6</linkclipref>
						<mediatype>audio</mediatype>
						<trackindex>5</trackindex>
						<clipindex>4</clipindex>
					</link>
					<link>
						<linkclipref>408-13-02-03B7</linkclipref>
						<mediatype>audio</mediatype>
						<trackindex>6</trackindex>
						<clipindex>4</clipindex>
					</link>
					<multiclip id="3"/>
					<itemhistory>
						<uuid>577E2DCE-A38B-43F6-A8E5-AD2ABBF13551</uuid>
					</itemhistory>
				</clipitem>
				<clipitem id="408-13-01-03B18">
					<name>408-13-01-03B</name>
					<duration>3700</duration>
					<rate>
						<ntsc>FALSE</ntsc>
						<timebase>25</timebase>
					</rate>
					<in>862</in>
					<out>887</out>
					<start>472</start>
					<end>497</end>
					<enabled>TRUE</enabled>
					<masterclipid>408-13-01-03B2</masterclipid>
					<syncoffset>0</syncoffset>
					<logginginfo>
						<scene/>
						<shottake/>
						<lognote/>
						<good>FALSE</good>
					</logginginfo>
					<labels>
						<label2/>
					</labels>
					<comments>
						<mastercomment1/>
						<mastercomment2/>
						<mastercomment3/>
						<mastercomment4/>
					</comments>
					<file id="MW-013-1T03 "/>
					<filter>
						<effect>
							<name>Audio Levels</name>
							<effectid>audiolevels</effectid>
							<effectcategory>audiolevels</effectcategory>
							<effecttype>audiolevels</effecttype>
							<mediatype>audio</mediatype>
							<parameter>
								<name>Level</name>
								<parameterid>level</parameterid>
								<valuemin>0</valuemin>
								<valuemax>3.98109</valuemax>
								<value>1</value>
							</parameter>
						</effect>
					</filter>
					<filter>
						<effect>
							<name>Audio Pan</name>
							<effectid>audiopan</effectid>
							<effectcategory>audiopan</effectcategory>
							<effecttype>audiopan</effecttype>
							<mediatype>audio</mediatype>
							<parameter>
								<name>Pan</name>
								<parameterid>pan</parameterid>
								<valuemin>-1</valuemin>
								<valuemax>1</valuemax>
								<value>0</value>
							</parameter>
						</effect>
					</filter>
					<sourcetrack>
						<mediatype>audio</mediatype>
						<trackindex>2</trackindex>
					</sourcetrack>
					<link>
						<linkclipref>408-13-01-03B16</linkclipref>
						<mediatype>video</mediatype>
						<trackindex>1</trackindex>
						<clipindex>6</clipindex>
					</link>
					<link>
						<linkclipref>408-13-01-03B17</linkclipref>
						<mediatype>audio</mediatype>
						<trackindex>1</trackindex>
						<clipindex>5</clipindex>
					</link>
					<link>
						<linkclipref>408-13-01-03B18</linkclipref>
						<mediatype>audio</mediatype>
						<trackindex>2</trackindex>
						<clipindex>5</clipindex>
					</link>
					<link>
						<linkclipref>408-13-01-03B19</linkclipref>
						<mediatype>audio</mediatype>
						<trackindex>3</trackindex>
						<clipindex>5</clipindex>
					</link>
					<link>
						<linkclipref>408-13-01-03B20</linkclipref>
						<mediatype>audio</mediatype>
						<trackindex>4</trackindex>
						<clipindex>5</clipindex>
					</link>
					<link>
						<linkclipref>408-13-01-03B21</linkclipref>
						<mediatype>audio</mediatype>
						<trackindex>5</trackindex>
						<clipindex>5</clipindex>
					</link>
					<link>
						<linkclipref>408-13-01-03B22</linkclipref>
						<mediatype>audio</mediatype>
						<trackindex>6</trackindex>
						<clipindex>5</clipindex>
					</link>
					<multiclip id="4"/>
					<itemhistory>
						<uuid>AA5B9542-1E1C-4941-AD05-E585907D39BF</uuid>
					</itemhistory>
				</clipitem>
				<clipitem id="408-13-02-03B19">
					<name>408-13-02-03B</name>
					<duration>3750</duration>
					<rate>
						<ntsc>FALSE</ntsc>
						<timebase>25</timebase>
					</rate>
					<in>1138</in>
					<out>1263</out>
					<start>497</start>
					<end>622</end>
					<enabled>TRUE</enabled>
					<masterclipid>408-13-02-03B1</masterclipid>
					<syncoffset>0</syncoffset>
					<logginginfo>
						<scene/>
						<shottake/>
						<lognote/>
						<good>FALSE</good>
					</logginginfo>
					<labels>
						<label2/>
					</labels>
					<comments>
						<mastercomment1/>
						<mastercomment2/>
						<mastercomment3/>
						<mastercomment4/>
					</comments>
					<file id="MW-013-2T03 "/>
					<filter>
						<effect>
							<name>Audio Levels</name>
							<effectid>audiolevels</effectid>
							<effectcategory>audiolevels</effectcategory>
							<effecttype>audiolevels</effecttype>
							<mediatype>audio</mediatype>
							<parameter>
								<name>Level</name>
								<parameterid>level</parameterid>
								<valuemin>0</valuemin>
								<valuemax>3.98109</valuemax>
								<value>1</value>
							</parameter>
						</effect>
					</filter>
					<filter>
						<effect>
							<name>Audio Pan</name>
							<effectid>audiopan</effectid>
							<effectcategory>audiopan</effectcategory>
							<effecttype>audiopan</effecttype>
							<mediatype>audio</mediatype>
							<parameter>
								<name>Pan</name>
								<parameterid>pan</parameterid>
								<valuemin>-1</valuemin>
								<valuemax>1</valuemax>
								<value>0</value>
							</parameter>
						</effect>
					</filter>
					<sourcetrack>
						<mediatype>audio</mediatype>
						<trackindex>2</trackindex>
					</sourcetrack>
					<link>
						<linkclipref>408-13-02-03B17</linkclipref>
						<mediatype>video</mediatype>
						<trackindex>1</trackindex>
						<clipindex>7</clipindex>
					</link>
					<link>
						<linkclipref>408-13-02-03B18</linkclipref>
						<mediatype>audio</mediatype>
						<trackindex>1</trackindex>
						<clipindex>6</clipindex>
					</link>
					<link>
						<linkclipref>408-13-02-03B19</linkclipref>
						<mediatype>audio</mediatype>
						<trackindex>2</trackindex>
						<clipindex>6</clipindex>
					</link>
					<link>
						<linkclipref>408-13-02-03B20</linkclipref>
						<mediatype>audio</mediatype>
						<trackindex>3</trackindex>
						<clipindex>6</clipindex>
					</link>
					<link>
						<linkclipref>408-13-02-03B21</linkclipref>
						<mediatype>audio</mediatype>
						<trackindex>4</trackindex>
						<clipindex>6</clipindex>
					</link>
					<link>
						<linkclipref>408-13-02-03B22</linkclipref>
						<mediatype>audio</mediatype>
						<trackindex>5</trackindex>
						<clipindex>6</clipindex>
					</link>
					<link>
						<linkclipref>408-13-02-03B23</linkclipref>
						<mediatype>audio</mediatype>
						<trackindex>6</trackindex>
						<clipindex>6</clipindex>
					</link>
					<multiclip id="5"/>
					<itemhistory>
						<uuid>2C71E656-014C-4891-B3F9-CAED4CFAB8EA</uuid>
					</itemhistory>
				</clipitem>
				<clipitem id="408-13-01-03B25">
					<name>408-13-01-03B</name>
					<duration>3700</duration>
					<rate>
						<ntsc>FALSE</ntsc>
						<timebase>25</timebase>
					</rate>
					<in>999</in>
					<out>1058</out>
					<start>622</start>
					<end>681</end>
					<enabled>TRUE</enabled>
					<masterclipid>408-13-01-03B2</masterclipid>
					<syncoffset>0</syncoffset>
					<logginginfo>
						<scene/>
						<shottake/>
						<lognote/>
						<good>FALSE</good>
					</logginginfo>
					<labels>
						<label2/>
					</labels>
					<comments>
						<mastercomment1/>
						<mastercomment2/>
						<mastercomment3/>
						<mastercomment4/>
					</comments>
					<file id="MW-013-1T03 "/>
					<filter>
						<effect>
							<name>Audio Levels</name>
							<effectid>audiolevels</effectid>
							<effectcategory>audiolevels</effectcategory>
							<effecttype>audiolevels</effecttype>
							<mediatype>audio</mediatype>
							<parameter>
								<name>Level</name>
								<parameterid>level</parameterid>
								<valuemin>0</valuemin>
								<valuemax>3.98109</valuemax>
								<value>1</value>
							</parameter>
						</effect>
					</filter>
					<filter>
						<effect>
							<name>Audio Pan</name>
							<effectid>audiopan</effectid>
							<effectcategory>audiopan</effectcategory>
							<effecttype>audiopan</effecttype>
							<mediatype>audio</mediatype>
							<parameter>
								<name>Pan</name>
								<parameterid>pan</parameterid>
								<valuemin>-1</valuemin>
								<valuemax>1</valuemax>
								<value>0</value>
							</parameter>
						</effect>
					</filter>
					<sourcetrack>
						<mediatype>audio</mediatype>
						<trackindex>2</trackindex>
					</sourcetrack>
					<link>
						<linkclipref>408-13-01-03B23</linkclipref>
						<mediatype>video</mediatype>
						<trackindex>1</trackindex>
						<clipindex>8</clipindex>
					</link>
					<link>
						<linkclipref>408-13-01-03B24</linkclipref>
						<mediatype>audio</mediatype>
						<trackindex>1</trackindex>
						<clipindex>7</clipindex>
					</link>
					<link>
						<linkclipref>408-13-01-03B25</linkclipref>
						<mediatype>audio</mediatype>
						<trackindex>2</trackindex>
						<clipindex>7</clipindex>
					</link>
					<link>
						<linkclipref>408-13-01-03B26</linkclipref>
						<mediatype>audio</mediatype>
						<trackindex>3</trackindex>
						<clipindex>7</clipindex>
					</link>
					<link>
						<linkclipref>408-13-01-03B27</linkclipref>
						<mediatype>audio</mediatype>
						<trackindex>4</trackindex>
						<clipindex>7</clipindex>
					</link>
					<link>
						<linkclipref>408-13-01-03B28</linkclipref>
						<mediatype>audio</mediatype>
						<trackindex>5</trackindex>
						<clipindex>7</clipindex>
					</link>
					<link>
						<linkclipref>408-13-01-03B29</linkclipref>
						<mediatype>audio</mediatype>
						<trackindex>6</trackindex>
						<clipindex>7</clipindex>
					</link>
					<multiclip id="6"/>
					<itemhistory>
						<uuid>AE8B8515-2591-4832-8037-7AE9E88F047E</uuid>
					</itemhistory>
				</clipitem>
				<clipitem id="408-13-02-03B26">
					<name>408-13-02-03B</name>
					<duration>3750</duration>
					<rate>
						<ntsc>FALSE</ntsc>
						<timebase>25</timebase>
					</rate>
					<in>1317</in>
					<out>1528</out>
					<start>681</start>
					<end>892</end>
					<enabled>TRUE</enabled>
					<masterclipid>408-13-02-03B1</masterclipid>
					<syncoffset>0</syncoffset>
					<logginginfo>
						<scene/>
						<shottake/>
						<lognote/>
						<good>FALSE</good>
					</logginginfo>
					<labels>
						<label2/>
					</labels>
					<comments>
						<mastercomment1/>
						<mastercomment2/>
						<mastercomment3/>
						<mastercomment4/>
					</comments>
					<file id="MW-013-2T03 "/>
					<filter>
						<effect>
							<name>Audio Levels</name>
							<effectid>audiolevels</effectid>
							<effectcategory>audiolevels</effectcategory>
							<effecttype>audiolevels</effecttype>
							<mediatype>audio</mediatype>
							<parameter>
								<name>Level</name>
								<parameterid>level</parameterid>
								<valuemin>0</valuemin>
								<valuemax>3.98109</valuemax>
								<value>1</value>
							</parameter>
						</effect>
					</filter>
					<filter>
						<effect>
							<name>Audio Pan</name>
							<effectid>audiopan</effectid>
							<effectcategory>audiopan</effectcategory>
							<effecttype>audiopan</effecttype>
							<mediatype>audio</mediatype>
							<parameter>
								<name>Pan</name>
								<parameterid>pan</parameterid>
								<valuemin>-1</valuemin>
								<valuemax>1</valuemax>
								<value>0</value>
							</parameter>
						</effect>
					</filter>
					<sourcetrack>
						<mediatype>audio</mediatype>
						<trackindex>2</trackindex>
					</sourcetrack>
					<link>
						<linkclipref>408-13-02-03B24</linkclipref>
						<mediatype>video</mediatype>
						<trackindex>1</trackindex>
						<clipindex>9</clipindex>
					</link>
					<link>
						<linkclipref>408-13-02-03B25</linkclipref>
						<mediatype>audio</mediatype>
						<trackindex>1</trackindex>
						<clipindex>8</clipindex>
					</link>
					<link>
						<linkclipref>408-13-02-03B26</linkclipref>
						<mediatype>audio</mediatype>
						<trackindex>2</trackindex>
						<clipindex>8</clipindex>
					</link>
					<link>
						<linkclipref>408-13-02-03B27</linkclipref>
						<mediatype>audio</mediatype>
						<trackindex>3</trackindex>
						<clipindex>8</clipindex>
					</link>
					<link>
						<linkclipref>408-13-02-03B28</linkclipref>
						<mediatype>audio</mediatype>
						<trackindex>4</trackindex>
						<clipindex>8</clipindex>
					</link>
					<link>
						<linkclipref>408-13-02-03B29</linkclipref>
						<mediatype>audio</mediatype>
						<trackindex>5</trackindex>
						<clipindex>8</clipindex>
					</link>
					<link>
						<linkclipref>408-13-02-03B30</linkclipref>
						<mediatype>audio</mediatype>
						<trackindex>6</trackindex>
						<clipindex>8</clipindex>
					</link>
					<multiclip id="7"/>
					<itemhistory>
						<uuid>37EEF713-7BF5-4F72-93FB-F0871833EC88</uuid>
					</itemhistory>
				</clipitem>
				<clipitem id="408-13-01-03B32">
					<name>408-13-01-03B</name>
					<duration>3700</duration>
					<rate>
						<ntsc>FALSE</ntsc>
						<timebase>25</timebase>
					</rate>
					<in>1230</in>
					<out>1262</out>
					<start>892</start>
					<end>924</end>
					<enabled>TRUE</enabled>
					<masterclipid>408-13-01-03B2</masterclipid>
					<syncoffset>0</syncoffset>
					<logginginfo>
						<scene/>
						<shottake/>
						<lognote/>
						<good>FALSE</good>
					</logginginfo>
					<labels>
						<label2/>
					</labels>
					<comments>
						<mastercomment1/>
						<mastercomment2/>
						<mastercomment3/>
						<mastercomment4/>
					</comments>
					<file id="MW-013-1T03 "/>
					<filter>
						<effect>
							<name>Audio Levels</name>
							<effectid>audiolevels</effectid>
							<effectcategory>audiolevels</effectcategory>
							<effecttype>audiolevels</effecttype>
							<mediatype>audio</mediatype>
							<parameter>
								<name>Level</name>
								<parameterid>level</parameterid>
								<valuemin>0</valuemin>
								<valuemax>3.98109</valuemax>
								<value>1</value>
							</parameter>
						</effect>
					</filter>
					<filter>
						<effect>
							<name>Audio Pan</name>
							<effectid>audiopan</effectid>
							<effectcategory>audiopan</effectcategory>
							<effecttype>audiopan</effecttype>
							<mediatype>audio</mediatype>
							<parameter>
								<name>Pan</name>
								<parameterid>pan</parameterid>
								<valuemin>-1</valuemin>
								<valuemax>1</valuemax>
								<value>0</value>
							</parameter>
						</effect>
					</filter>
					<sourcetrack>
						<mediatype>audio</mediatype>
						<trackindex>2</trackindex>
					</sourcetrack>
					<link>
						<linkclipref>408-13-01-03B30</linkclipref>
						<mediatype>video</mediatype>
						<trackindex>1</trackindex>
						<clipindex>10</clipindex>
					</link>
					<link>
						<linkclipref>408-13-01-03B31</linkclipref>
						<mediatype>audio</mediatype>
						<trackindex>1</trackindex>
						<clipindex>9</clipindex>
					</link>
					<link>
						<linkclipref>408-13-01-03B32</linkclipref>
						<mediatype>audio</mediatype>
						<trackindex>2</trackindex>
						<clipindex>9</clipindex>
					</link>
					<link>
						<linkclipref>408-13-01-03B33</linkclipref>
						<mediatype>audio</mediatype>
						<trackindex>3</trackindex>
						<clipindex>9</clipindex>
					</link>
					<link>
						<linkclipref>408-13-01-03B34</linkclipref>
						<mediatype>audio</mediatype>
						<trackindex>4</trackindex>
						<clipindex>9</clipindex>
					</link>
					<link>
						<linkclipref>408-13-01-03B35</linkclipref>
						<mediatype>audio</mediatype>
						<trackindex>5</trackindex>
						<clipindex>9</clipindex>
					</link>
					<link>
						<linkclipref>408-13-01-03B36</linkclipref>
						<mediatype>audio</mediatype>
						<trackindex>6</trackindex>
						<clipindex>9</clipindex>
					</link>
					<multiclip id="8"/>
					<itemhistory>
						<uuid>7CACCBB8-A128-49D4-B9CC-81969B14C424</uuid>
					</itemhistory>
				</clipitem>
				<clipitem id="408-13-02-03B33">
					<name>408-13-02-03B</name>
					<duration>3750</duration>
					<rate>
						<ntsc>FALSE</ntsc>
						<timebase>25</timebase>
					</rate>
					<in>1569</in>
					<out>1862</out>
					<start>924</start>
					<end>1217</end>
					<subframeoffset>0</subframeoffset>
					<enabled>TRUE</enabled>
					<masterclipid>408-13-02-03B1</masterclipid>
					<syncoffset>0</syncoffset>
					<logginginfo>
						<scene/>
						<shottake/>
						<lognote/>
						<good>FALSE</good>
					</logginginfo>
					<labels>
						<label2/>
					</labels>
					<comments>
						<mastercomment1/>
						<mastercomment2/>
						<mastercomment3/>
						<mastercomment4/>
					</comments>
					<file id="MW-013-2T03 "/>
					<filter>
						<effect>
							<name>Audio Levels</name>
							<effectid>audiolevels</effectid>
							<effectcategory>audiolevels</effectcategory>
							<effecttype>audiolevels</effecttype>
							<mediatype>audio</mediatype>
							<parameter>
								<name>Level</name>
								<parameterid>level</parameterid>
								<valuemin>0</valuemin>
								<valuemax>3.98109</valuemax>
								<value>1</value>
							</parameter>
						</effect>
					</filter>
					<filter>
						<effect>
							<name>Audio Pan</name>
							<effectid>audiopan</effectid>
							<effectcategory>audiopan</effectcategory>
							<effecttype>audiopan</effecttype>
							<mediatype>audio</mediatype>
							<parameter>
								<name>Pan</name>
								<parameterid>pan</parameterid>
								<valuemin>-1</valuemin>
								<valuemax>1</valuemax>
								<value>0</value>
							</parameter>
						</effect>
					</filter>
					<sourcetrack>
						<mediatype>audio</mediatype>
						<trackindex>2</trackindex>
					</sourcetrack>
					<link>
						<linkclipref>408-13-02-03B31</linkclipref>
						<mediatype>video</mediatype>
						<trackindex>1</trackindex>
						<clipindex>11</clipindex>
					</link>
					<link>
						<linkclipref>408-13-02-03B32</linkclipref>
						<mediatype>audio</mediatype>
						<trackindex>1</trackindex>
						<clipindex>10</clipindex>
					</link>
					<link>
						<linkclipref>408-13-02-03B33</linkclipref>
						<mediatype>audio</mediatype>
						<trackindex>2</trackindex>
						<clipindex>10</clipindex>
					</link>
					<link>
						<linkclipref>408-13-02-03B34</linkclipref>
						<mediatype>audio</mediatype>
						<trackindex>3</trackindex>
						<clipindex>10</clipindex>
					</link>
					<link>
						<linkclipref>408-13-02-03B35</linkclipref>
						<mediatype>audio</mediatype>
						<trackindex>4</trackindex>
						<clipindex>10</clipindex>
					</link>
					<link>
						<linkclipref>408-13-02-03B36</linkclipref>
						<mediatype>audio</mediatype>
						<trackindex>5</trackindex>
						<clipindex>10</clipindex>
					</link>
					<link>
						<linkclipref>408-13-02-03B37</linkclipref>
						<mediatype>audio</mediatype>
						<trackindex>6</trackindex>
						<clipindex>10</clipindex>
					</link>
					<multiclip id="9"/>
					<itemhistory>
						<uuid>E5D147C5-2C58-4DC1-816C-FDC6A0C8C118</uuid>
					</itemhistory>
				</clipitem>
				<clipitem id="408-13-01-03B39">
					<name>408-13-01-03B</name>
					<duration>3700</duration>
					<rate>
						<ntsc>FALSE</ntsc>
						<timebase>25</timebase>
					</rate>
					<in>1523</in>
					<out>1591</out>
					<start>1217</start>
					<end>1285</end>
					<enabled>TRUE</enabled>
					<masterclipid>408-13-01-03B2</masterclipid>
					<syncoffset>0</syncoffset>
					<logginginfo>
						<scene/>
						<shottake/>
						<lognote/>
						<good>FALSE</good>
					</logginginfo>
					<labels>
						<label2/>
					</labels>
					<comments>
						<mastercomment1/>
						<mastercomment2/>
						<mastercomment3/>
						<mastercomment4/>
					</comments>
					<file id="MW-013-1T03 "/>
					<filter>
						<effect>
							<name>Audio Levels</name>
							<effectid>audiolevels</effectid>
							<effectcategory>audiolevels</effectcategory>
							<effecttype>audiolevels</effecttype>
							<mediatype>audio</mediatype>
							<parameter>
								<name>Level</name>
								<parameterid>level</parameterid>
								<valuemin>0</valuemin>
								<valuemax>3.98109</valuemax>
								<value>1</value>
							</parameter>
						</effect>
					</filter>
					<filter>
						<effect>
							<name>Audio Pan</name>
							<effectid>audiopan</effectid>
							<effectcategory>audiopan</effectcategory>
							<effecttype>audiopan</effecttype>
							<mediatype>audio</mediatype>
							<parameter>
								<name>Pan</name>
								<parameterid>pan</parameterid>
								<valuemin>-1</valuemin>
								<valuemax>1</valuemax>
								<value>0</value>
							</parameter>
						</effect>
					</filter>
					<sourcetrack>
						<mediatype>audio</mediatype>
						<trackindex>2</trackindex>
					</sourcetrack>
					<link>
						<linkclipref>408-13-01-03B37</linkclipref>
						<mediatype>video</mediatype>
						<trackindex>1</trackindex>
						<clipindex>12</clipindex>
					</link>
					<link>
						<linkclipref>408-13-01-03B38</linkclipref>
						<mediatype>audio</mediatype>
						<trackindex>1</trackindex>
						<clipindex>11</clipindex>
					</link>
					<link>
						<linkclipref>408-13-01-03B39</linkclipref>
						<mediatype>audio</mediatype>
						<trackindex>2</trackindex>
						<clipindex>11</clipindex>
					</link>
					<link>
						<linkclipref>408-13-01-03B40</linkclipref>
						<mediatype>audio</mediatype>
						<trackindex>3</trackindex>
						<clipindex>11</clipindex>
					</link>
					<link>
						<linkclipref>408-13-01-03B41</linkclipref>
						<mediatype>audio</mediatype>
						<trackindex>4</trackindex>
						<clipindex>11</clipindex>
					</link>
					<link>
						<linkclipref>408-13-01-03B42</linkclipref>
						<mediatype>audio</mediatype>
						<trackindex>5</trackindex>
						<clipindex>11</clipindex>
					</link>
					<link>
						<linkclipref>408-13-01-03B43</linkclipref>
						<mediatype>audio</mediatype>
						<trackindex>6</trackindex>
						<clipindex>11</clipindex>
					</link>
					<multiclip id="10"/>
					<itemhistory>
						<uuid>B8378951-B20F-41F4-874B-41B76E06FC9A</uuid>
					</itemhistory>
				</clipitem>
				<clipitem id="408-13-02-03B40">
					<name>408-13-02-03B</name>
					<duration>3750</duration>
					<rate>
						<ntsc>FALSE</ntsc>
						<timebase>25</timebase>
					</rate>
					<in>1923</in>
					<out>2018</out>
					<start>1285</start>
					<end>1380</end>
					<subframeoffset>0</subframeoffset>
					<enabled>TRUE</enabled>
					<masterclipid>408-13-02-03B1</masterclipid>
					<syncoffset>0</syncoffset>
					<logginginfo>
						<scene/>
						<shottake/>
						<lognote/>
						<good>FALSE</good>
					</logginginfo>
					<labels>
						<label2/>
					</labels>
					<comments>
						<mastercomment1/>
						<mastercomment2/>
						<mastercomment3/>
						<mastercomment4/>
					</comments>
					<file id="MW-013-2T03 "/>
					<filter>
						<effect>
							<name>Audio Levels</name>
							<effectid>audiolevels</effectid>
							<effectcategory>audiolevels</effectcategory>
							<effecttype>audiolevels</effecttype>
							<mediatype>audio</mediatype>
							<parameter>
								<name>Level</name>
								<parameterid>level</parameterid>
								<valuemin>0</valuemin>
								<valuemax>3.98109</valuemax>
								<value>1</value>
							</parameter>
						</effect>
					</filter>
					<filter>
						<effect>
							<name>Audio Pan</name>
							<effectid>audiopan</effectid>
							<effectcategory>audiopan</effectcategory>
							<effecttype>audiopan</effecttype>
							<mediatype>audio</mediatype>
							<parameter>
								<name>Pan</name>
								<parameterid>pan</parameterid>
								<valuemin>-1</valuemin>
								<valuemax>1</valuemax>
								<value>0</value>
							</parameter>
						</effect>
					</filter>
					<sourcetrack>
						<mediatype>audio</mediatype>
						<trackindex>2</trackindex>
					</sourcetrack>
					<link>
						<linkclipref>408-13-02-03B38</linkclipref>
						<mediatype>video</mediatype>
						<trackindex>1</trackindex>
						<clipindex>13</clipindex>
					</link>
					<link>
						<linkclipref>408-13-02-03B39</linkclipref>
						<mediatype>audio</mediatype>
						<trackindex>1</trackindex>
						<clipindex>12</clipindex>
					</link>
					<link>
						<linkclipref>408-13-02-03B40</linkclipref>
						<mediatype>audio</mediatype>
						<trackindex>2</trackindex>
						<clipindex>12</clipindex>
					</link>
					<link>
						<linkclipref>408-13-02-03B41</linkclipref>
						<mediatype>audio</mediatype>
						<trackindex>3</trackindex>
						<clipindex>12</clipindex>
					</link>
					<link>
						<linkclipref>408-13-02-03B42</linkclipref>
						<mediatype>audio</mediatype>
						<trackindex>4</trackindex>
						<clipindex>12</clipindex>
					</link>
					<link>
						<linkclipref>408-13-02-03B43</linkclipref>
						<mediatype>audio</mediatype>
						<trackindex>5</trackindex>
						<clipindex>12</clipindex>
					</link>
					<link>
						<linkclipref>408-13-02-03B44</linkclipref>
						<mediatype>audio</mediatype>
						<trackindex>6</trackindex>
						<clipindex>12</clipindex>
					</link>
					<multiclip id="11"/>
					<itemhistory>
						<uuid>4F3FB04D-B1EA-4267-BB04-97CE21E556C8</uuid>
					</itemhistory>
				</clipitem>
				<clipitem id="408-13-03-05A3">
					<name>408-13-03-05A</name>
					<duration>2100</duration>
					<rate>
						<ntsc>FALSE</ntsc>
						<timebase>25</timebase>
					</rate>
					<in>497</in>
					<out>608</out>
					<start>1380</start>
					<end>1491</end>
					<subframeoffset>0</subframeoffset>
					<enabled>TRUE</enabled>
					<masterclipid>408-13-03-05A1</masterclipid>
					<syncoffset>0</syncoffset>
					<logginginfo>
						<scene/>
						<shottake/>
						<lognote/>
						<good>FALSE</good>
					</logginginfo>
					<labels>
						<label2/>
					</labels>
					<comments>
						<mastercomment1/>
						<mastercomment2/>
						<mastercomment3/>
						<mastercomment4/>
					</comments>
					<file id="MW-013-3T05 "/>
					<filter>
						<effect>
							<name>Audio Levels</name>
							<effectid>audiolevels</effectid>
							<effectcategory>audiolevels</effectcategory>
							<effecttype>audiolevels</effecttype>
							<mediatype>audio</mediatype>
							<parameter>
								<name>Level</name>
								<parameterid>level</parameterid>
								<valuemin>0</valuemin>
								<valuemax>3.98109</valuemax>
								<value>1</value>
							</parameter>
						</effect>
					</filter>
					<filter>
						<effect>
							<name>Audio Pan</name>
							<effectid>audiopan</effectid>
							<effectcategory>audiopan</effectcategory>
							<effecttype>audiopan</effecttype>
							<mediatype>audio</mediatype>
							<parameter>
								<name>Pan</name>
								<parameterid>pan</parameterid>
								<valuemin>-1</valuemin>
								<valuemax>1</valuemax>
								<value>0</value>
							</parameter>
						</effect>
					</filter>
					<sourcetrack>
						<mediatype>audio</mediatype>
						<trackindex>2</trackindex>
					</sourcetrack>
					<link>
						<linkclipref>408-13-03-05A</linkclipref>
						<mediatype>video</mediatype>
						<trackindex>1</trackindex>
						<clipindex>14</clipindex>
					</link>
					<link>
						<linkclipref>408-13-03-05A2</linkclipref>
						<mediatype>audio</mediatype>
						<trackindex>1</trackindex>
						<clipindex>13</clipindex>
					</link>
					<link>
						<linkclipref>408-13-03-05A3</linkclipref>
						<mediatype>audio</mediatype>
						<trackindex>2</trackindex>
						<clipindex>13</clipindex>
					</link>
					<link>
						<linkclipref>408-13-03-05A4</linkclipref>
						<mediatype>audio</mediatype>
						<trackindex>3</trackindex>
						<clipindex>13</clipindex>
					</link>
					<link>
						<linkclipref>408-13-03-05A5</linkclipref>
						<mediatype>audio</mediatype>
						<trackindex>4</trackindex>
						<clipindex>13</clipindex>
					</link>
					<link>
						<linkclipref>408-13-03-05A6</linkclipref>
						<mediatype>audio</mediatype>
						<trackindex>5</trackindex>
						<clipindex>13</clipindex>
					</link>
					<link>
						<linkclipref>408-13-03-05A7</linkclipref>
						<mediatype>audio</mediatype>
						<trackindex>6</trackindex>
						<clipindex>13</clipindex>
					</link>
					<multiclip id="12"/>
					<itemhistory>
						<uuid>94E2BBA9-ED6C-41ED-A45E-DC1AA72E49C3</uuid>
					</itemhistory>
				</clipitem>
				<clipitem id="408-13-03-05B11">
					<name>408-13-03-05B</name>
					<duration>2100</duration>
					<rate>
						<ntsc>FALSE</ntsc>
						<timebase>25</timebase>
					</rate>
					<in>608</in>
					<out>690</out>
					<start>1491</start>
					<end>1573</end>
					<enabled>TRUE</enabled>
					<masterclipid>408-13-03-05B2</masterclipid>
					<syncoffset>0</syncoffset>
					<logginginfo>
						<scene/>
						<shottake/>
						<lognote/>
						<good>FALSE</good>
					</logginginfo>
					<labels>
						<label2/>
					</labels>
					<comments>
						<mastercomment1/>
						<mastercomment2/>
						<mastercomment3/>
						<mastercomment4/>
					</comments>
					<file id="MW-013-3T05 "/>
					<filter>
						<effect>
							<name>Audio Levels</name>
							<effectid>audiolevels</effectid>
							<effectcategory>audiolevels</effectcategory>
							<effecttype>audiolevels</effecttype>
							<mediatype>audio</mediatype>
							<parameter>
								<name>Level</name>
								<parameterid>level</parameterid>
								<valuemin>0</valuemin>
								<valuemax>3.98109</valuemax>
								<value>1</value>
							</parameter>
						</effect>
					</filter>
					<filter>
						<effect>
							<name>Audio Pan</name>
							<effectid>audiopan</effectid>
							<effectcategory>audiopan</effectcategory>
							<effecttype>audiopan</effecttype>
							<mediatype>audio</mediatype>
							<parameter>
								<name>Pan</name>
								<parameterid>pan</parameterid>
								<valuemin>-1</valuemin>
								<valuemax>1</valuemax>
								<value>0</value>
							</parameter>
						</effect>
					</filter>
					<sourcetrack>
						<mediatype>audio</mediatype>
						<trackindex>2</trackindex>
					</sourcetrack>
					<link>
						<linkclipref>408-13-03-05B9</linkclipref>
						<mediatype>video</mediatype>
						<trackindex>1</trackindex>
						<clipindex>15</clipindex>
					</link>
					<link>
						<linkclipref>408-13-03-05B10</linkclipref>
						<mediatype>audio</mediatype>
						<trackindex>1</trackindex>
						<clipindex>14</clipindex>
					</link>
					<link>
						<linkclipref>408-13-03-05B11</linkclipref>
						<mediatype>audio</mediatype>
						<trackindex>2</trackindex>
						<clipindex>14</clipindex>
					</link>
					<link>
						<linkclipref>408-13-03-05B12</linkclipref>
						<mediatype>audio</mediatype>
						<trackindex>3</trackindex>
						<clipindex>14</clipindex>
					</link>
					<link>
						<linkclipref>408-13-03-05B13</linkclipref>
						<mediatype>audio</mediatype>
						<trackindex>4</trackindex>
						<clipindex>14</clipindex>
					</link>
					<link>
						<linkclipref>408-13-03-05B14</linkclipref>
						<mediatype>audio</mediatype>
						<trackindex>5</trackindex>
						<clipindex>14</clipindex>
					</link>
					<link>
						<linkclipref>408-13-03-05B15</linkclipref>
						<mediatype>audio</mediatype>
						<trackindex>6</trackindex>
						<clipindex>14</clipindex>
					</link>
					<multiclip id="13"/>
					<itemhistory>
						<uuid>4ADE43DC-1057-46D1-8A94-59BB9EFE2017</uuid>
					</itemhistory>
				</clipitem>
				<clipitem id="408-13-03-05A19">
					<name>408-13-03-05A</name>
					<duration>2100</duration>
					<rate>
						<ntsc>FALSE</ntsc>
						<timebase>25</timebase>
					</rate>
					<in>690</in>
					<out>973</out>
					<start>1573</start>
					<end>1856</end>
					<enabled>TRUE</enabled>
					<masterclipid>408-13-03-05A1</masterclipid>
					<syncoffset>0</syncoffset>
					<logginginfo>
						<scene/>
						<shottake/>
						<lognote/>
						<good>FALSE</good>
					</logginginfo>
					<labels>
						<label2/>
					</labels>
					<comments>
						<mastercomment1/>
						<mastercomment2/>
						<mastercomment3/>
						<mastercomment4/>
					</comments>
					<file id="MW-013-3T05 "/>
					<filter>
						<effect>
							<name>Audio Levels</name>
							<effectid>audiolevels</effectid>
							<effectcategory>audiolevels</effectcategory>
							<effecttype>audiolevels</effecttype>
							<mediatype>audio</mediatype>
							<parameter>
								<name>Level</name>
								<parameterid>level</parameterid>
								<valuemin>0</valuemin>
								<valuemax>3.98109</valuemax>
								<value>1</value>
							</parameter>
						</effect>
					</filter>
					<filter>
						<effect>
							<name>Audio Pan</name>
							<effectid>audiopan</effectid>
							<effectcategory>audiopan</effectcategory>
							<effecttype>audiopan</effecttype>
							<mediatype>audio</mediatype>
							<parameter>
								<name>Pan</name>
								<parameterid>pan</parameterid>
								<valuemin>-1</valuemin>
								<valuemax>1</valuemax>
								<value>0</value>
							</parameter>
						</effect>
					</filter>
					<sourcetrack>
						<mediatype>audio</mediatype>
						<trackindex>2</trackindex>
					</sourcetrack>
					<link>
						<linkclipref>408-13-03-05A17</linkclipref>
						<mediatype>video</mediatype>
						<trackindex>1</trackindex>
						<clipindex>16</clipindex>
					</link>
					<link>
						<linkclipref>408-13-03-05A18</linkclipref>
						<mediatype>audio</mediatype>
						<trackindex>1</trackindex>
						<clipindex>15</clipindex>
					</link>
					<link>
						<linkclipref>408-13-03-05A19</linkclipref>
						<mediatype>audio</mediatype>
						<trackindex>2</trackindex>
						<clipindex>15</clipindex>
					</link>
					<link>
						<linkclipref>408-13-03-05A20</linkclipref>
						<mediatype>audio</mediatype>
						<trackindex>3</trackindex>
						<clipindex>15</clipindex>
					</link>
					<link>
						<linkclipref>408-13-03-05A21</linkclipref>
						<mediatype>audio</mediatype>
						<trackindex>4</trackindex>
						<clipindex>15</clipindex>
					</link>
					<link>
						<linkclipref>408-13-03-05A22</linkclipref>
						<mediatype>audio</mediatype>
						<trackindex>5</trackindex>
						<clipindex>15</clipindex>
					</link>
					<link>
						<linkclipref>408-13-03-05A23</linkclipref>
						<mediatype>audio</mediatype>
						<trackindex>6</trackindex>
						<clipindex>15</clipindex>
					</link>
					<multiclip id="14"/>
					<itemhistory>
						<uuid>8CF195B2-43A8-48BF-AB28-9E265C5E9A01</uuid>
					</itemhistory>
				</clipitem>
				<clipitem id="408-13-02-03B47">
					<name>408-13-02-03B</name>
					<duration>3750</duration>
					<rate>
						<ntsc>FALSE</ntsc>
						<timebase>25</timebase>
					</rate>
					<in>2491</in>
					<out>2562</out>
					<start>1856</start>
					<end>1927</end>
					<enabled>TRUE</enabled>
					<masterclipid>408-13-02-03B1</masterclipid>
					<syncoffset>0</syncoffset>
					<logginginfo>
						<scene/>
						<shottake/>
						<lognote/>
						<good>FALSE</good>
					</logginginfo>
					<labels>
						<label2/>
					</labels>
					<comments>
						<mastercomment1/>
						<mastercomment2/>
						<mastercomment3/>
						<mastercomment4/>
					</comments>
					<file id="MW-013-2T03 "/>
					<filter>
						<effect>
							<name>Audio Levels</name>
							<effectid>audiolevels</effectid>
							<effectcategory>audiolevels</effectcategory>
							<effecttype>audiolevels</effecttype>
							<mediatype>audio</mediatype>
							<parameter>
								<name>Level</name>
								<parameterid>level</parameterid>
								<valuemin>0</valuemin>
								<valuemax>3.98109</valuemax>
								<value>1</value>
							</parameter>
						</effect>
					</filter>
					<filter>
						<effect>
							<name>Audio Pan</name>
							<effectid>audiopan</effectid>
							<effectcategory>audiopan</effectcategory>
							<effecttype>audiopan</effecttype>
							<mediatype>audio</mediatype>
							<parameter>
								<name>Pan</name>
								<parameterid>pan</parameterid>
								<valuemin>-1</valuemin>
								<valuemax>1</valuemax>
								<value>0</value>
							</parameter>
						</effect>
					</filter>
					<sourcetrack>
						<mediatype>audio</mediatype>
						<trackindex>2</trackindex>
					</sourcetrack>
					<link>
						<linkclipref>408-13-02-03B45</linkclipref>
						<mediatype>video</mediatype>
						<trackindex>1</trackindex>
						<clipindex>17</clipindex>
					</link>
					<link>
						<linkclipref>408-13-02-03B46</linkclipref>
						<mediatype>audio</mediatype>
						<trackindex>1</trackindex>
						<clipindex>16</clipindex>
					</link>
					<link>
						<linkclipref>408-13-02-03B47</linkclipref>
						<mediatype>audio</mediatype>
						<trackindex>2</trackindex>
						<clipindex>16</clipindex>
					</link>
					<link>
						<linkclipref>408-13-02-03B48</linkclipref>
						<mediatype>audio</mediatype>
						<trackindex>3</trackindex>
						<clipindex>16</clipindex>
					</link>
					<link>
						<linkclipref>408-13-02-03B49</linkclipref>
						<mediatype>audio</mediatype>
						<trackindex>4</trackindex>
						<clipindex>16</clipindex>
					</link>
					<link>
						<linkclipref>408-13-02-03B50</linkclipref>
						<mediatype>audio</mediatype>
						<trackindex>5</trackindex>
						<clipindex>16</clipindex>
					</link>
					<link>
						<linkclipref>408-13-02-03B51</linkclipref>
						<mediatype>audio</mediatype>
						<trackindex>6</trackindex>
						<clipindex>16</clipindex>
					</link>
					<multiclip id="15"/>
					<itemhistory>
						<uuid>90B9D3E6-542A-415C-8BCA-8C845DFABBEA</uuid>
					</itemhistory>
				</clipitem>
				<clipitem id="408-13-01-03B46">
					<name>408-13-01-03B</name>
					<duration>3700</duration>
					<rate>
						<ntsc>FALSE</ntsc>
						<timebase>25</timebase>
					</rate>
					<in>2529</in>
					<out>2572</out>
					<start>1927</start>
					<end>1970</end>
					<enabled>TRUE</enabled>
					<masterclipid>408-13-01-03B2</masterclipid>
					<syncoffset>0</syncoffset>
					<logginginfo>
						<scene/>
						<shottake/>
						<lognote/>
						<good>FALSE</good>
					</logginginfo>
					<labels>
						<label2/>
					</labels>
					<comments>
						<mastercomment1/>
						<mastercomment2/>
						<mastercomment3/>
						<mastercomment4/>
					</comments>
					<file id="MW-013-1T03 "/>
					<filter>
						<effect>
							<name>Audio Levels</name>
							<effectid>audiolevels</effectid>
							<effectcategory>audiolevels</effectcategory>
							<effecttype>audiolevels</effecttype>
							<mediatype>audio</mediatype>
							<parameter>
								<name>Level</name>
								<parameterid>level</parameterid>
								<valuemin>0</valuemin>
								<valuemax>3.98109</valuemax>
								<value>1</value>
							</parameter>
						</effect>
					</filter>
					<filter>
						<effect>
							<name>Audio Pan</name>
							<effectid>audiopan</effectid>
							<effectcategory>audiopan</effectcategory>
							<effecttype>audiopan</effecttype>
							<mediatype>audio</mediatype>
							<parameter>
								<name>Pan</name>
								<parameterid>pan</parameterid>
								<valuemin>-1</valuemin>
								<valuemax>1</valuemax>
								<value>0</value>
							</parameter>
						</effect>
					</filter>
					<sourcetrack>
						<mediatype>audio</mediatype>
						<trackindex>2</trackindex>
					</sourcetrack>
					<link>
						<linkclipref>408-13-01-03B44</linkclipref>
						<mediatype>video</mediatype>
						<trackindex>1</trackindex>
						<clipindex>18</clipindex>
					</link>
					<link>
						<linkclipref>408-13-01-03B45</linkclipref>
						<mediatype>audio</mediatype>
						<trackindex>1</trackindex>
						<clipindex>17</clipindex>
					</link>
					<link>
						<linkclipref>408-13-01-03B46</linkclipref>
						<mediatype>audio</mediatype>
						<trackindex>2</trackindex>
						<clipindex>17</clipindex>
					</link>
					<link>
						<linkclipref>408-13-01-03B47</linkclipref>
						<mediatype>audio</mediatype>
						<trackindex>3</trackindex>
						<clipindex>17</clipindex>
					</link>
					<link>
						<linkclipref>408-13-01-03B48</linkclipref>
						<mediatype>audio</mediatype>
						<trackindex>4</trackindex>
						<clipindex>17</clipindex>
					</link>
					<link>
						<linkclipref>408-13-01-03B49</linkclipref>
						<mediatype>audio</mediatype>
						<trackindex>5</trackindex>
						<clipindex>17</clipindex>
					</link>
					<link>
						<linkclipref>408-13-01-03B50</linkclipref>
						<mediatype>audio</mediatype>
						<trackindex>6</trackindex>
						<clipindex>17</clipindex>
					</link>
					<multiclip id="16"/>
					<itemhistory>
						<uuid>814A9047-582A-4059-B932-A6B89FD4135D</uuid>
					</itemhistory>
				</clipitem>
				<clipitem id="408-13-02-03B54">
					<name>408-13-02-03B</name>
					<duration>3750</duration>
					<rate>
						<ntsc>FALSE</ntsc>
						<timebase>25</timebase>
					</rate>
					<in>2585</in>
					<out>2827</out>
					<start>1970</start>
					<end>2212</end>
					<subframeoffset>0</subframeoffset>
					<enabled>TRUE</enabled>
					<masterclipid>408-13-02-03B1</masterclipid>
					<syncoffset>0</syncoffset>
					<logginginfo>
						<scene/>
						<shottake/>
						<lognote/>
						<good>FALSE</good>
					</logginginfo>
					<labels>
						<label2/>
					</labels>
					<comments>
						<mastercomment1/>
						<mastercomment2/>
						<mastercomment3/>
						<mastercomment4/>
					</comments>
					<file id="MW-013-2T03 "/>
					<filter>
						<effect>
							<name>Audio Levels</name>
							<effectid>audiolevels</effectid>
							<effectcategory>audiolevels</effectcategory>
							<effecttype>audiolevels</effecttype>
							<mediatype>audio</mediatype>
							<parameter>
								<name>Level</name>
								<parameterid>level</parameterid>
								<valuemin>0</valuemin>
								<valuemax>3.98109</valuemax>
								<value>1</value>
							</parameter>
						</effect>
					</filter>
					<filter>
						<effect>
							<name>Audio Pan</name>
							<effectid>audiopan</effectid>
							<effectcategory>audiopan</effectcategory>
							<effecttype>audiopan</effecttype>
							<mediatype>audio</mediatype>
							<parameter>
								<name>Pan</name>
								<parameterid>pan</parameterid>
								<valuemin>-1</valuemin>
								<valuemax>1</valuemax>
								<value>0</value>
							</parameter>
						</effect>
					</filter>
					<sourcetrack>
						<mediatype>audio</mediatype>
						<trackindex>2</trackindex>
					</sourcetrack>
					<link>
						<linkclipref>408-13-02-03B52</linkclipref>
						<mediatype>video</mediatype>
						<trackindex>1</trackindex>
						<clipindex>19</clipindex>
					</link>
					<link>
						<linkclipref>408-13-02-03B53</linkclipref>
						<mediatype>audio</mediatype>
						<trackindex>1</trackindex>
						<clipindex>18</clipindex>
					</link>
					<link>
						<linkclipref>408-13-02-03B54</linkclipref>
						<mediatype>audio</mediatype>
						<trackindex>2</trackindex>
						<clipindex>18</clipindex>
					</link>
					<link>
						<linkclipref>408-13-02-03B55</linkclipref>
						<mediatype>audio</mediatype>
						<trackindex>3</trackindex>
						<clipindex>18</clipindex>
					</link>
					<link>
						<linkclipref>408-13-02-03B56</linkclipref>
						<mediatype>audio</mediatype>
						<trackindex>4</trackindex>
						<clipindex>18</clipindex>
					</link>
					<link>
						<linkclipref>408-13-02-03B57</linkclipref>
						<mediatype>audio</mediatype>
						<trackindex>5</trackindex>
						<clipindex>18</clipindex>
					</link>
					<link>
						<linkclipref>408-13-02-03B58</linkclipref>
						<mediatype>audio</mediatype>
						<trackindex>6</trackindex>
						<clipindex>18</clipindex>
					</link>
					<multiclip id="17"/>
					<itemhistory>
						<uuid>ECE4E102-28D7-42BD-BCD7-87AEE9CA1E40</uuid>
					</itemhistory>
				</clipitem>
				<clipitem id="408-13-01-03B53">
					<name>408-13-01-03B</name>
					<duration>3700</duration>
					<rate>
						<ntsc>FALSE</ntsc>
						<timebase>25</timebase>
					</rate>
					<in>2799</in>
					<out>2816</out>
					<start>2212</start>
					<end>2229</end>
					<enabled>TRUE</enabled>
					<masterclipid>408-13-01-03B2</masterclipid>
					<syncoffset>0</syncoffset>
					<logginginfo>
						<scene/>
						<shottake/>
						<lognote/>
						<good>FALSE</good>
					</logginginfo>
					<labels>
						<label2/>
					</labels>
					<comments>
						<mastercomment1/>
						<mastercomment2/>
						<mastercomment3/>
						<mastercomment4/>
					</comments>
					<file id="MW-013-1T03 "/>
					<filter>
						<effect>
							<name>Audio Levels</name>
							<effectid>audiolevels</effectid>
							<effectcategory>audiolevels</effectcategory>
							<effecttype>audiolevels</effecttype>
							<mediatype>audio</mediatype>
							<parameter>
								<name>Level</name>
								<parameterid>level</parameterid>
								<valuemin>0</valuemin>
								<valuemax>3.98109</valuemax>
								<value>1</value>
							</parameter>
						</effect>
					</filter>
					<filter>
						<effect>
							<name>Audio Pan</name>
							<effectid>audiopan</effectid>
							<effectcategory>audiopan</effectcategory>
							<effecttype>audiopan</effecttype>
							<mediatype>audio</mediatype>
							<parameter>
								<name>Pan</name>
								<parameterid>pan</parameterid>
								<valuemin>-1</valuemin>
								<valuemax>1</valuemax>
								<value>0</value>
							</parameter>
						</effect>
					</filter>
					<sourcetrack>
						<mediatype>audio</mediatype>
						<trackindex>2</trackindex>
					</sourcetrack>
					<link>
						<linkclipref>408-13-01-03B51</linkclipref>
						<mediatype>video</mediatype>
						<trackindex>1</trackindex>
						<clipindex>20</clipindex>
					</link>
					<link>
						<linkclipref>408-13-01-03B52</linkclipref>
						<mediatype>audio</mediatype>
						<trackindex>1</trackindex>
						<clipindex>19</clipindex>
					</link>
					<link>
						<linkclipref>408-13-01-03B53</linkclipref>
						<mediatype>audio</mediatype>
						<trackindex>2</trackindex>
						<clipindex>19</clipindex>
					</link>
					<link>
						<linkclipref>408-13-01-03B54</linkclipref>
						<mediatype>audio</mediatype>
						<trackindex>3</trackindex>
						<clipindex>19</clipindex>
					</link>
					<link>
						<linkclipref>408-13-01-03B55</linkclipref>
						<mediatype>audio</mediatype>
						<trackindex>4</trackindex>
						<clipindex>19</clipindex>
					</link>
					<link>
						<linkclipref>408-13-01-03B56</linkclipref>
						<mediatype>audio</mediatype>
						<trackindex>5</trackindex>
						<clipindex>19</clipindex>
					</link>
					<link>
						<linkclipref>408-13-01-03B57</linkclipref>
						<mediatype>audio</mediatype>
						<trackindex>6</trackindex>
						<clipindex>19</clipindex>
					</link>
					<multiclip id="18"/>
					<itemhistory>
						<uuid>234B4E7C-C50A-4750-9AF8-30421674CF7E</uuid>
					</itemhistory>
				</clipitem>
				<clipitem id="408-13-03-05A26">
					<name>408-13-03-05A</name>
					<duration>2100</duration>
					<rate>
						<ntsc>FALSE</ntsc>
						<timebase>25</timebase>
					</rate>
					<in>1332</in>
					<out>1389</out>
					<start>2229</start>
					<end>2286</end>
					<subframeoffset>0</subframeoffset>
					<enabled>TRUE</enabled>
					<masterclipid>408-13-03-05A1</masterclipid>
					<syncoffset>0</syncoffset>
					<logginginfo>
						<scene/>
						<shottake/>
						<lognote/>
						<good>FALSE</good>
					</logginginfo>
					<labels>
						<label2/>
					</labels>
					<comments>
						<mastercomment1/>
						<mastercomment2/>
						<mastercomment3/>
						<mastercomment4/>
					</comments>
					<file id="MW-013-3T05 "/>
					<filter>
						<effect>
							<name>Audio Levels</name>
							<effectid>audiolevels</effectid>
							<effectcategory>audiolevels</effectcategory>
							<effecttype>audiolevels</effecttype>
							<mediatype>audio</mediatype>
							<parameter>
								<name>Level</name>
								<parameterid>level</parameterid>
								<valuemin>0</valuemin>
								<valuemax>3.98109</valuemax>
								<value>1</value>
							</parameter>
						</effect>
					</filter>
					<filter>
						<effect>
							<name>Audio Pan</name>
							<effectid>audiopan</effectid>
							<effectcategory>audiopan</effectcategory>
							<effecttype>audiopan</effecttype>
							<mediatype>audio</mediatype>
							<parameter>
								<name>Pan</name>
								<parameterid>pan</parameterid>
								<valuemin>-1</valuemin>
								<valuemax>1</valuemax>
								<value>0</value>
							</parameter>
						</effect>
					</filter>
					<sourcetrack>
						<mediatype>audio</mediatype>
						<trackindex>2</trackindex>
					</sourcetrack>
					<link>
						<linkclipref>408-13-03-05A24</linkclipref>
						<mediatype>video</mediatype>
						<trackindex>1</trackindex>
						<clipindex>21</clipindex>
					</link>
					<link>
						<linkclipref>408-13-03-05A25</linkclipref>
						<mediatype>audio</mediatype>
						<trackindex>1</trackindex>
						<clipindex>20</clipindex>
					</link>
					<link>
						<linkclipref>408-13-03-05A26</linkclipref>
						<mediatype>audio</mediatype>
						<trackindex>2</trackindex>
						<clipindex>20</clipindex>
					</link>
					<link>
						<linkclipref>408-13-03-05A27</linkclipref>
						<mediatype>audio</mediatype>
						<trackindex>3</trackindex>
						<clipindex>20</clipindex>
					</link>
					<link>
						<linkclipref>408-13-03-05A28</linkclipref>
						<mediatype>audio</mediatype>
						<trackindex>4</trackindex>
						<clipindex>20</clipindex>
					</link>
					<link>
						<linkclipref>408-13-03-05A29</linkclipref>
						<mediatype>audio</mediatype>
						<trackindex>5</trackindex>
						<clipindex>20</clipindex>
					</link>
					<link>
						<linkclipref>408-13-03-05A30</linkclipref>
						<mediatype>audio</mediatype>
						<trackindex>6</trackindex>
						<clipindex>20</clipindex>
					</link>
					<multiclip id="19"/>
					<itemhistory>
						<uuid>D5C23AD4-78F9-4BAF-A8C3-724527CAF28D</uuid>
					</itemhistory>
				</clipitem>
				<clipitem id="408-13-01-03B60">
					<name>408-13-01-03B</name>
					<duration>3700</duration>
					<rate>
						<ntsc>FALSE</ntsc>
						<timebase>25</timebase>
					</rate>
					<in>2863</in>
					<out>2905</out>
					<start>2286</start>
					<end>2328</end>
					<enabled>TRUE</enabled>
					<masterclipid>408-13-01-03B2</masterclipid>
					<syncoffset>0</syncoffset>
					<logginginfo>
						<scene/>
						<shottake/>
						<lognote/>
						<good>FALSE</good>
					</logginginfo>
					<labels>
						<label2/>
					</labels>
					<comments>
						<mastercomment1/>
						<mastercomment2/>
						<mastercomment3/>
						<mastercomment4/>
					</comments>
					<file id="MW-013-1T03 "/>
					<filter>
						<effect>
							<name>Audio Levels</name>
							<effectid>audiolevels</effectid>
							<effectcategory>audiolevels</effectcategory>
							<effecttype>audiolevels</effecttype>
							<mediatype>audio</mediatype>
							<parameter>
								<name>Level</name>
								<parameterid>level</parameterid>
								<valuemin>0</valuemin>
								<valuemax>3.98109</valuemax>
								<value>1</value>
							</parameter>
						</effect>
					</filter>
					<filter>
						<effect>
							<name>Audio Pan</name>
							<effectid>audiopan</effectid>
							<effectcategory>audiopan</effectcategory>
							<effecttype>audiopan</effecttype>
							<mediatype>audio</mediatype>
							<parameter>
								<name>Pan</name>
								<parameterid>pan</parameterid>
								<valuemin>-1</valuemin>
								<valuemax>1</valuemax>
								<value>0</value>
							</parameter>
						</effect>
					</filter>
					<sourcetrack>
						<mediatype>audio</mediatype>
						<trackindex>2</trackindex>
					</sourcetrack>
					<link>
						<linkclipref>408-13-01-03B58</linkclipref>
						<mediatype>video</mediatype>
						<trackindex>1</trackindex>
						<clipindex>22</clipindex>
					</link>
					<link>
						<linkclipref>408-13-01-03B59</linkclipref>
						<mediatype>audio</mediatype>
						<trackindex>1</trackindex>
						<clipindex>21</clipindex>
					</link>
					<link>
						<linkclipref>408-13-01-03B60</linkclipref>
						<mediatype>audio</mediatype>
						<trackindex>2</trackindex>
						<clipindex>21</clipindex>
					</link>
					<link>
						<linkclipref>408-13-01-03B61</linkclipref>
						<mediatype>audio</mediatype>
						<trackindex>3</trackindex>
						<clipindex>21</clipindex>
					</link>
					<link>
						<linkclipref>408-13-01-03B62</linkclipref>
						<mediatype>audio</mediatype>
						<trackindex>4</trackindex>
						<clipindex>21</clipindex>
					</link>
					<link>
						<linkclipref>408-13-01-03B63</linkclipref>
						<mediatype>audio</mediatype>
						<trackindex>5</trackindex>
						<clipindex>21</clipindex>
					</link>
					<link>
						<linkclipref>408-13-01-03B64</linkclipref>
						<mediatype>audio</mediatype>
						<trackindex>6</trackindex>
						<clipindex>21</clipindex>
					</link>
					<multiclip id="20"/>
					<itemhistory>
						<uuid>9A03DE55-0924-41D7-B4B6-D3F5F3269753</uuid>
					</itemhistory>
				</clipitem>
				<clipitem id="408-13-03-05B18">
					<name>408-13-03-05B</name>
					<duration>2100</duration>
					<rate>
						<ntsc>FALSE</ntsc>
						<timebase>25</timebase>
					</rate>
					<in>1466</in>
					<out>1723</out>
					<start>2328</start>
					<end>2585</end>
					<enabled>TRUE</enabled>
					<masterclipid>408-13-03-05B2</masterclipid>
					<syncoffset>0</syncoffset>
					<logginginfo>
						<scene/>
						<shottake/>
						<lognote/>
						<good>FALSE</good>
					</logginginfo>
					<labels>
						<label2/>
					</labels>
					<comments>
						<mastercomment1/>
						<mastercomment2/>
						<mastercomment3/>
						<mastercomment4/>
					</comments>
					<file id="MW-013-3T05 "/>
					<filter>
						<effect>
							<name>Audio Levels</name>
							<effectid>audiolevels</effectid>
							<effectcategory>audiolevels</effectcategory>
							<effecttype>audiolevels</effecttype>
							<mediatype>audio</mediatype>
							<parameter>
								<name>Level</name>
								<parameterid>level</parameterid>
								<valuemin>0</valuemin>
								<valuemax>3.98109</valuemax>
								<value>1</value>
							</parameter>
						</effect>
					</filter>
					<filter>
						<effect>
							<name>Audio Pan</name>
							<effectid>audiopan</effectid>
							<effectcategory>audiopan</effectcategory>
							<effecttype>audiopan</effecttype>
							<mediatype>audio</mediatype>
							<parameter>
								<name>Pan</name>
								<parameterid>pan</parameterid>
								<valuemin>-1</valuemin>
								<valuemax>1</valuemax>
								<value>0</value>
							</parameter>
						</effect>
					</filter>
					<sourcetrack>
						<mediatype>audio</mediatype>
						<trackindex>2</trackindex>
					</sourcetrack>
					<link>
						<linkclipref>408-13-03-05B16</linkclipref>
						<mediatype>video</mediatype>
						<trackindex>1</trackindex>
						<clipindex>23</clipindex>
					</link>
					<link>
						<linkclipref>408-13-03-05B17</linkclipref>
						<mediatype>audio</mediatype>
						<trackindex>1</trackindex>
						<clipindex>22</clipindex>
					</link>
					<link>
						<linkclipref>408-13-03-05B18</linkclipref>
						<mediatype>audio</mediatype>
						<trackindex>2</trackindex>
						<clipindex>22</clipindex>
					</link>
					<link>
						<linkclipref>408-13-03-05B19</linkclipref>
						<mediatype>audio</mediatype>
						<trackindex>3</trackindex>
						<clipindex>22</clipindex>
					</link>
					<link>
						<linkclipref>408-13-03-05B20</linkclipref>
						<mediatype>audio</mediatype>
						<trackindex>4</trackindex>
						<clipindex>22</clipindex>
					</link>
					<link>
						<linkclipref>408-13-03-05B21</linkclipref>
						<mediatype>audio</mediatype>
						<trackindex>5</trackindex>
						<clipindex>22</clipindex>
					</link>
					<link>
						<linkclipref>408-13-03-05B22</linkclipref>
						<mediatype>audio</mediatype>
						<trackindex>6</trackindex>
						<clipindex>22</clipindex>
					</link>
					<multiclip id="21"/>
					<itemhistory>
						<uuid>8780A86E-A1AE-48D1-870B-0223042E6E3E</uuid>
					</itemhistory>
				</clipitem>
				<clipitem id="408-13-01-03B67">
					<name>408-13-01-03B</name>
					<duration>3700</duration>
					<rate>
						<ntsc>FALSE</ntsc>
						<timebase>25</timebase>
					</rate>
					<in>3139</in>
					<out>3215</out>
					<start>2585</start>
					<end>2661</end>
					<enabled>TRUE</enabled>
					<masterclipid>408-13-01-03B2</masterclipid>
					<syncoffset>0</syncoffset>
					<logginginfo>
						<scene/>
						<shottake/>
						<lognote/>
						<good>FALSE</good>
					</logginginfo>
					<labels>
						<label2/>
					</labels>
					<comments>
						<mastercomment1/>
						<mastercomment2/>
						<mastercomment3/>
						<mastercomment4/>
					</comments>
					<file id="MW-013-1T03 "/>
					<filter>
						<effect>
							<name>Audio Levels</name>
							<effectid>audiolevels</effectid>
							<effectcategory>audiolevels</effectcategory>
							<effecttype>audiolevels</effecttype>
							<mediatype>audio</mediatype>
							<parameter>
								<name>Level</name>
								<parameterid>level</parameterid>
								<valuemin>0</valuemin>
								<valuemax>3.98109</valuemax>
								<value>1</value>
							</parameter>
						</effect>
					</filter>
					<filter>
						<effect>
							<name>Audio Pan</name>
							<effectid>audiopan</effectid>
							<effectcategory>audiopan</effectcategory>
							<effecttype>audiopan</effecttype>
							<mediatype>audio</mediatype>
							<parameter>
								<name>Pan</name>
								<parameterid>pan</parameterid>
								<valuemin>-1</valuemin>
								<valuemax>1</valuemax>
								<value>0</value>
							</parameter>
						</effect>
					</filter>
					<sourcetrack>
						<mediatype>audio</mediatype>
						<trackindex>2</trackindex>
					</sourcetrack>
					<link>
						<linkclipref>408-13-01-03B65</linkclipref>
						<mediatype>video</mediatype>
						<trackindex>1</trackindex>
						<clipindex>24</clipindex>
					</link>
					<link>
						<linkclipref>408-13-01-03B66</linkclipref>
						<mediatype>audio</mediatype>
						<trackindex>1</trackindex>
						<clipindex>23</clipindex>
					</link>
					<link>
						<linkclipref>408-13-01-03B67</linkclipref>
						<mediatype>audio</mediatype>
						<trackindex>2</trackindex>
						<clipindex>23</clipindex>
					</link>
					<link>
						<linkclipref>408-13-01-03B68</linkclipref>
						<mediatype>audio</mediatype>
						<trackindex>3</trackindex>
						<clipindex>23</clipindex>
					</link>
					<link>
						<linkclipref>408-13-01-03B69</linkclipref>
						<mediatype>audio</mediatype>
						<trackindex>4</trackindex>
						<clipindex>23</clipindex>
					</link>
					<link>
						<linkclipref>408-13-01-03B70</linkclipref>
						<mediatype>audio</mediatype>
						<trackindex>5</trackindex>
						<clipindex>23</clipindex>
					</link>
					<link>
						<linkclipref>408-13-01-03B71</linkclipref>
						<mediatype>audio</mediatype>
						<trackindex>6</trackindex>
						<clipindex>23</clipindex>
					</link>
					<multiclip id="22"/>
					<itemhistory>
						<uuid>AF6528CF-8151-4918-8180-700D3D264C0B</uuid>
					</itemhistory>
				</clipitem>
				<clipitem id="408-13-01-03A26">
					<name>408-13-01-03A</name>
					<duration>3700</duration>
					<rate>
						<ntsc>FALSE</ntsc>
						<timebase>25</timebase>
					</rate>
					<in>3215</in>
					<out>3594</out>
					<start>2661</start>
					<end>3040</end>
					<enabled>TRUE</enabled>
					<masterclipid>408-13-01-03A1</masterclipid>
					<syncoffset>0</syncoffset>
					<logginginfo>
						<scene/>
						<shottake/>
						<lognote/>
						<good>FALSE</good>
					</logginginfo>
					<labels>
						<label2/>
					</labels>
					<comments>
						<mastercomment1/>
						<mastercomment2/>
						<mastercomment3/>
						<mastercomment4/>
					</comments>
					<file id="MW-013-1T03 "/>
					<filter>
						<effect>
							<name>Audio Levels</name>
							<effectid>audiolevels</effectid>
							<effectcategory>audiolevels</effectcategory>
							<effecttype>audiolevels</effecttype>
							<mediatype>audio</mediatype>
							<parameter>
								<name>Level</name>
								<parameterid>level</parameterid>
								<valuemin>0</valuemin>
								<valuemax>3.98109</valuemax>
								<value>1</value>
							</parameter>
						</effect>
					</filter>
					<filter>
						<effect>
							<name>Audio Pan</name>
							<effectid>audiopan</effectid>
							<effectcategory>audiopan</effectcategory>
							<effecttype>audiopan</effecttype>
							<mediatype>audio</mediatype>
							<parameter>
								<name>Pan</name>
								<parameterid>pan</parameterid>
								<valuemin>-1</valuemin>
								<valuemax>1</valuemax>
								<value>0</value>
							</parameter>
						</effect>
					</filter>
					<sourcetrack>
						<mediatype>audio</mediatype>
						<trackindex>2</trackindex>
					</sourcetrack>
					<link>
						<linkclipref>408-13-01-03A24</linkclipref>
						<mediatype>video</mediatype>
						<trackindex>1</trackindex>
						<clipindex>25</clipindex>
					</link>
					<link>
						<linkclipref>408-13-01-03A25</linkclipref>
						<mediatype>audio</mediatype>
						<trackindex>1</trackindex>
						<clipindex>24</clipindex>
					</link>
					<link>
						<linkclipref>408-13-01-03A26</linkclipref>
						<mediatype>audio</mediatype>
						<trackindex>2</trackindex>
						<clipindex>24</clipindex>
					</link>
					<link>
						<linkclipref>408-13-01-03A27</linkclipref>
						<mediatype>audio</mediatype>
						<trackindex>3</trackindex>
						<clipindex>24</clipindex>
					</link>
					<link>
						<linkclipref>408-13-01-03A28</linkclipref>
						<mediatype>audio</mediatype>
						<trackindex>4</trackindex>
						<clipindex>24</clipindex>
					</link>
					<link>
						<linkclipref>408-13-01-03A29</linkclipref>
						<mediatype>audio</mediatype>
						<trackindex>5</trackindex>
						<clipindex>24</clipindex>
					</link>
					<link>
						<linkclipref>408-13-01-03A30</linkclipref>
						<mediatype>audio</mediatype>
						<trackindex>6</trackindex>
						<clipindex>24</clipindex>
					</link>
					<multiclip id="23"/>
					<itemhistory>
						<uuid>927A8BD1-A00F-45DB-B17B-175EBF724E4A</uuid>
					</itemhistory>
				</clipitem>
				<enabled>TRUE</enabled>
				<locked>FALSE</locked>
				<outputchannelindex>2</outputchannelindex>
			</track>
			<track>
				<clipitem id="408-13-01-03A4">
					<name>408-13-01-03A</name>
					<duration>3700</duration>
					<rate>
						<ntsc>FALSE</ntsc>
						<timebase>25</timebase>
					</rate>
					<in>485</in>
					<out>630</out>
					<start>59</start>
					<end>204</end>
					<subframeoffset>0</subframeoffset>
					<enabled>TRUE</enabled>
					<masterclipid>408-13-01-03A1</masterclipid>
					<syncoffset>0</syncoffset>
					<logginginfo>
						<scene/>
						<shottake/>
						<lognote/>
						<good>FALSE</good>
					</logginginfo>
					<labels>
						<label2/>
					</labels>
					<comments>
						<mastercomment1/>
						<mastercomment2/>
						<mastercomment3/>
						<mastercomment4/>
					</comments>
					<file id="MW-013-1T03 "/>
					<filter>
						<effect>
							<name>Audio Levels</name>
							<effectid>audiolevels</effectid>
							<effectcategory>audiolevels</effectcategory>
							<effecttype>audiolevels</effecttype>
							<mediatype>audio</mediatype>
							<parameter>
								<name>Level</name>
								<parameterid>level</parameterid>
								<valuemin>0</valuemin>
								<valuemax>3.98109</valuemax>
								<value>1</value>
							</parameter>
						</effect>
					</filter>
					<filter>
						<effect>
							<name>Audio Pan</name>
							<effectid>audiopan</effectid>
							<effectcategory>audiopan</effectcategory>
							<effecttype>audiopan</effecttype>
							<mediatype>audio</mediatype>
							<parameter>
								<name>Pan</name>
								<parameterid>pan</parameterid>
								<valuemin>-1</valuemin>
								<valuemax>1</valuemax>
								<value>0</value>
							</parameter>
						</effect>
					</filter>
					<sourcetrack>
						<mediatype>audio</mediatype>
						<trackindex>3</trackindex>
					</sourcetrack>
					<link>
						<linkclipref>408-13-01-03A</linkclipref>
						<mediatype>video</mediatype>
						<trackindex>1</trackindex>
						<clipindex>2</clipindex>
					</link>
					<link>
						<linkclipref>408-13-01-03A2</linkclipref>
						<mediatype>audio</mediatype>
						<trackindex>1</trackindex>
						<clipindex>1</clipindex>
					</link>
					<link>
						<linkclipref>408-13-01-03A3</linkclipref>
						<mediatype>audio</mediatype>
						<trackindex>2</trackindex>
						<clipindex>1</clipindex>
					</link>
					<link>
						<linkclipref>408-13-01-03A4</linkclipref>
						<mediatype>audio</mediatype>
						<trackindex>3</trackindex>
						<clipindex>1</clipindex>
					</link>
					<link>
						<linkclipref>408-13-01-03A5</linkclipref>
						<mediatype>audio</mediatype>
						<trackindex>4</trackindex>
						<clipindex>1</clipindex>
					</link>
					<link>
						<linkclipref>408-13-01-03A6</linkclipref>
						<mediatype>audio</mediatype>
						<trackindex>5</trackindex>
						<clipindex>1</clipindex>
					</link>
					<link>
						<linkclipref>408-13-01-03A7</linkclipref>
						<mediatype>audio</mediatype>
						<trackindex>6</trackindex>
						<clipindex>1</clipindex>
					</link>
					<multiclip id="26">
						<collapsed>FALSE</collapsed>
						<synctype>1</synctype>
						<angle>
							<activevideoangle>TRUE</activevideoangle>
							<activeaudioangle>TRUE</activeaudioangle>
							<clip id="408-13-01-03A8"/>
						</angle>
						<angle>
							<clip id="408-13-01-03B"/>
						</angle>
						<masterclipid>408-13-01-03A16</masterclipid>
					</multiclip>
					<itemhistory>
						<uuid>4613DD47-44FF-4227-92A5-1D1438249D58</uuid>
					</itemhistory>
				</clipitem>
				<clipitem id="408-13-01-03A20">
					<name>408-13-01-03A</name>
					<duration>3700</duration>
					<rate>
						<ntsc>FALSE</ntsc>
						<timebase>25</timebase>
					</rate>
					<in>627</in>
					<out>670</out>
					<start>212</start>
					<end>255</end>
					<subframeoffset>0</subframeoffset>
					<enabled>TRUE</enabled>
					<masterclipid>408-13-01-03A1</masterclipid>
					<syncoffset>0</syncoffset>
					<logginginfo>
						<scene/>
						<shottake/>
						<lognote/>
						<good>FALSE</good>
					</logginginfo>
					<labels>
						<label2/>
					</labels>
					<comments>
						<mastercomment1/>
						<mastercomment2/>
						<mastercomment3/>
						<mastercomment4/>
					</comments>
					<file id="MW-013-1T03 "/>
					<filter>
						<effect>
							<name>Audio Levels</name>
							<effectid>audiolevels</effectid>
							<effectcategory>audiolevels</effectcategory>
							<effecttype>audiolevels</effecttype>
							<mediatype>audio</mediatype>
							<parameter>
								<name>Level</name>
								<parameterid>level</parameterid>
								<valuemin>0</valuemin>
								<valuemax>3.98109</valuemax>
								<value>1</value>
							</parameter>
						</effect>
					</filter>
					<filter>
						<effect>
							<name>Audio Pan</name>
							<effectid>audiopan</effectid>
							<effectcategory>audiopan</effectcategory>
							<effecttype>audiopan</effecttype>
							<mediatype>audio</mediatype>
							<parameter>
								<name>Pan</name>
								<parameterid>pan</parameterid>
								<valuemin>-1</valuemin>
								<valuemax>1</valuemax>
								<value>0</value>
							</parameter>
						</effect>
					</filter>
					<sourcetrack>
						<mediatype>audio</mediatype>
						<trackindex>3</trackindex>
					</sourcetrack>
					<link>
						<linkclipref>408-13-01-03A17</linkclipref>
						<mediatype>video</mediatype>
						<trackindex>1</trackindex>
						<clipindex>3</clipindex>
					</link>
					<link>
						<linkclipref>408-13-01-03A18</linkclipref>
						<mediatype>audio</mediatype>
						<trackindex>1</trackindex>
						<clipindex>2</clipindex>
					</link>
					<link>
						<linkclipref>408-13-01-03A19</linkclipref>
						<mediatype>audio</mediatype>
						<trackindex>2</trackindex>
						<clipindex>2</clipindex>
					</link>
					<link>
						<linkclipref>408-13-01-03A20</linkclipref>
						<mediatype>audio</mediatype>
						<trackindex>3</trackindex>
						<clipindex>2</clipindex>
					</link>
					<link>
						<linkclipref>408-13-01-03A21</linkclipref>
						<mediatype>audio</mediatype>
						<trackindex>4</trackindex>
						<clipindex>2</clipindex>
					</link>
					<link>
						<linkclipref>408-13-01-03A22</linkclipref>
						<mediatype>audio</mediatype>
						<trackindex>5</trackindex>
						<clipindex>2</clipindex>
					</link>
					<link>
						<linkclipref>408-13-01-03A23</linkclipref>
						<mediatype>audio</mediatype>
						<trackindex>6</trackindex>
						<clipindex>2</clipindex>
					</link>
					<multiclip id="1"/>
					<itemhistory>
						<uuid>73EF7E07-22BA-47A4-B36D-8564759539A6</uuid>
					</itemhistory>
				</clipitem>
				<clipitem id="408-13-01-03B12">
					<name>408-13-01-03B</name>
					<duration>3700</duration>
					<rate>
						<ntsc>FALSE</ntsc>
						<timebase>25</timebase>
					</rate>
					<in>670</in>
					<out>785</out>
					<start>255</start>
					<end>370</end>
					<enabled>TRUE</enabled>
					<masterclipid>408-13-01-03B2</masterclipid>
					<syncoffset>0</syncoffset>
					<logginginfo>
						<scene/>
						<shottake/>
						<lognote/>
						<good>FALSE</good>
					</logginginfo>
					<labels>
						<label2/>
					</labels>
					<comments>
						<mastercomment1/>
						<mastercomment2/>
						<mastercomment3/>
						<mastercomment4/>
					</comments>
					<file id="MW-013-1T03 "/>
					<filter>
						<effect>
							<name>Audio Levels</name>
							<effectid>audiolevels</effectid>
							<effectcategory>audiolevels</effectcategory>
							<effecttype>audiolevels</effecttype>
							<mediatype>audio</mediatype>
							<parameter>
								<name>Level</name>
								<parameterid>level</parameterid>
								<valuemin>0</valuemin>
								<valuemax>3.98109</valuemax>
								<value>1</value>
							</parameter>
						</effect>
					</filter>
					<filter>
						<effect>
							<name>Audio Pan</name>
							<effectid>audiopan</effectid>
							<effectcategory>audiopan</effectcategory>
							<effecttype>audiopan</effecttype>
							<mediatype>audio</mediatype>
							<parameter>
								<name>Pan</name>
								<parameterid>pan</parameterid>
								<valuemin>-1</valuemin>
								<valuemax>1</valuemax>
								<value>0</value>
							</parameter>
						</effect>
					</filter>
					<sourcetrack>
						<mediatype>audio</mediatype>
						<trackindex>3</trackindex>
					</sourcetrack>
					<link>
						<linkclipref>408-13-01-03B9</linkclipref>
						<mediatype>video</mediatype>
						<trackindex>1</trackindex>
						<clipindex>4</clipindex>
					</link>
					<link>
						<linkclipref>408-13-01-03B10</linkclipref>
						<mediatype>audio</mediatype>
						<trackindex>1</trackindex>
						<clipindex>3</clipindex>
					</link>
					<link>
						<linkclipref>408-13-01-03B11</linkclipref>
						<mediatype>audio</mediatype>
						<trackindex>2</trackindex>
						<clipindex>3</clipindex>
					</link>
					<link>
						<linkclipref>408-13-01-03B12</linkclipref>
						<mediatype>audio</mediatype>
						<trackindex>3</trackindex>
						<clipindex>3</clipindex>
					</link>
					<link>
						<linkclipref>408-13-01-03B13</linkclipref>
						<mediatype>audio</mediatype>
						<trackindex>4</trackindex>
						<clipindex>3</clipindex>
					</link>
					<link>
						<linkclipref>408-13-01-03B14</linkclipref>
						<mediatype>audio</mediatype>
						<trackindex>5</trackindex>
						<clipindex>3</clipindex>
					</link>
					<link>
						<linkclipref>408-13-01-03B15</linkclipref>
						<mediatype>audio</mediatype>
						<trackindex>6</trackindex>
						<clipindex>3</clipindex>
					</link>
					<multiclip id="2"/>
					<itemhistory>
						<uuid>2A4C26C4-B775-4342-8705-BC7C73AB09B3</uuid>
					</itemhistory>
				</clipitem>
				<clipitem id="408-13-02-03B4">
					<name>408-13-02-03B</name>
					<duration>3750</duration>
					<rate>
						<ntsc>FALSE</ntsc>
						<timebase>25</timebase>
					</rate>
					<in>1017</in>
					<out>1119</out>
					<start>370</start>
					<end>472</end>
					<enabled>TRUE</enabled>
					<masterclipid>408-13-02-03B1</masterclipid>
					<syncoffset>0</syncoffset>
					<logginginfo>
						<scene/>
						<shottake/>
						<lognote/>
						<good>FALSE</good>
					</logginginfo>
					<labels>
						<label2/>
					</labels>
					<comments>
						<mastercomment1/>
						<mastercomment2/>
						<mastercomment3/>
						<mastercomment4/>
					</comments>
					<file id="MW-013-2T03 "/>
					<filter>
						<effect>
							<name>Audio Levels</name>
							<effectid>audiolevels</effectid>
							<effectcategory>audiolevels</effectcategory>
							<effecttype>audiolevels</effecttype>
							<mediatype>audio</mediatype>
							<parameter>
								<name>Level</name>
								<parameterid>level</parameterid>
								<valuemin>0</valuemin>
								<valuemax>3.98109</valuemax>
								<value>1</value>
							</parameter>
						</effect>
					</filter>
					<filter>
						<effect>
							<name>Audio Pan</name>
							<effectid>audiopan</effectid>
							<effectcategory>audiopan</effectcategory>
							<effecttype>audiopan</effecttype>
							<mediatype>audio</mediatype>
							<parameter>
								<name>Pan</name>
								<parameterid>pan</parameterid>
								<valuemin>-1</valuemin>
								<valuemax>1</valuemax>
								<value>0</value>
							</parameter>
						</effect>
					</filter>
					<sourcetrack>
						<mediatype>audio</mediatype>
						<trackindex>3</trackindex>
					</sourcetrack>
					<link>
						<linkclipref>408-13-02-03B</linkclipref>
						<mediatype>video</mediatype>
						<trackindex>1</trackindex>
						<clipindex>5</clipindex>
					</link>
					<link>
						<linkclipref>408-13-02-03B2</linkclipref>
						<mediatype>audio</mediatype>
						<trackindex>1</trackindex>
						<clipindex>4</clipindex>
					</link>
					<link>
						<linkclipref>408-13-02-03B3</linkclipref>
						<mediatype>audio</mediatype>
						<trackindex>2</trackindex>
						<clipindex>4</clipindex>
					</link>
					<link>
						<linkclipref>408-13-02-03B4</linkclipref>
						<mediatype>audio</mediatype>
						<trackindex>3</trackindex>
						<clipindex>4</clipindex>
					</link>
					<link>
						<linkclipref>408-13-02-03B5</linkclipref>
						<mediatype>audio</mediatype>
						<trackindex>4</trackindex>
						<clipindex>4</clipindex>
					</link>
					<link>
						<linkclipref>408-13-02-03B6</linkclipref>
						<mediatype>audio</mediatype>
						<trackindex>5</trackindex>
						<clipindex>4</clipindex>
					</link>
					<link>
						<linkclipref>408-13-02-03B7</linkclipref>
						<mediatype>audio</mediatype>
						<trackindex>6</trackindex>
						<clipindex>4</clipindex>
					</link>
					<multiclip id="3"/>
					<itemhistory>
						<uuid>868D3578-23E4-4094-B3AF-E4310FD6B9B8</uuid>
					</itemhistory>
				</clipitem>
				<clipitem id="408-13-01-03B19">
					<name>408-13-01-03B</name>
					<duration>3700</duration>
					<rate>
						<ntsc>FALSE</ntsc>
						<timebase>25</timebase>
					</rate>
					<in>862</in>
					<out>887</out>
					<start>472</start>
					<end>497</end>
					<enabled>TRUE</enabled>
					<masterclipid>408-13-01-03B2</masterclipid>
					<syncoffset>0</syncoffset>
					<logginginfo>
						<scene/>
						<shottake/>
						<lognote/>
						<good>FALSE</good>
					</logginginfo>
					<labels>
						<label2/>
					</labels>
					<comments>
						<mastercomment1/>
						<mastercomment2/>
						<mastercomment3/>
						<mastercomment4/>
					</comments>
					<file id="MW-013-1T03 "/>
					<filter>
						<effect>
							<name>Audio Levels</name>
							<effectid>audiolevels</effectid>
							<effectcategory>audiolevels</effectcategory>
							<effecttype>audiolevels</effecttype>
							<mediatype>audio</mediatype>
							<parameter>
								<name>Level</name>
								<parameterid>level</parameterid>
								<valuemin>0</valuemin>
								<valuemax>3.98109</valuemax>
								<value>1</value>
							</parameter>
						</effect>
					</filter>
					<filter>
						<effect>
							<name>Audio Pan</name>
							<effectid>audiopan</effectid>
							<effectcategory>audiopan</effectcategory>
							<effecttype>audiopan</effecttype>
							<mediatype>audio</mediatype>
							<parameter>
								<name>Pan</name>
								<parameterid>pan</parameterid>
								<valuemin>-1</valuemin>
								<valuemax>1</valuemax>
								<value>0</value>
							</parameter>
						</effect>
					</filter>
					<sourcetrack>
						<mediatype>audio</mediatype>
						<trackindex>3</trackindex>
					</sourcetrack>
					<link>
						<linkclipref>408-13-01-03B16</linkclipref>
						<mediatype>video</mediatype>
						<trackindex>1</trackindex>
						<clipindex>6</clipindex>
					</link>
					<link>
						<linkclipref>408-13-01-03B17</linkclipref>
						<mediatype>audio</mediatype>
						<trackindex>1</trackindex>
						<clipindex>5</clipindex>
					</link>
					<link>
						<linkclipref>408-13-01-03B18</linkclipref>
						<mediatype>audio</mediatype>
						<trackindex>2</trackindex>
						<clipindex>5</clipindex>
					</link>
					<link>
						<linkclipref>408-13-01-03B19</linkclipref>
						<mediatype>audio</mediatype>
						<trackindex>3</trackindex>
						<clipindex>5</clipindex>
					</link>
					<link>
						<linkclipref>408-13-01-03B20</linkclipref>
						<mediatype>audio</mediatype>
						<trackindex>4</trackindex>
						<clipindex>5</clipindex>
					</link>
					<link>
						<linkclipref>408-13-01-03B21</linkclipref>
						<mediatype>audio</mediatype>
						<trackindex>5</trackindex>
						<clipindex>5</clipindex>
					</link>
					<link>
						<linkclipref>408-13-01-03B22</linkclipref>
						<mediatype>audio</mediatype>
						<trackindex>6</trackindex>
						<clipindex>5</clipindex>
					</link>
					<multiclip id="4"/>
					<itemhistory>
						<uuid>5F8C0E2E-0834-4D4E-93D7-A89FBCB3B47E</uuid>
					</itemhistory>
				</clipitem>
				<clipitem id="408-13-02-03B20">
					<name>408-13-02-03B</name>
					<duration>3750</duration>
					<rate>
						<ntsc>FALSE</ntsc>
						<timebase>25</timebase>
					</rate>
					<in>1138</in>
					<out>1263</out>
					<start>497</start>
					<end>622</end>
					<enabled>TRUE</enabled>
					<masterclipid>408-13-02-03B1</masterclipid>
					<syncoffset>0</syncoffset>
					<logginginfo>
						<scene/>
						<shottake/>
						<lognote/>
						<good>FALSE</good>
					</logginginfo>
					<labels>
						<label2/>
					</labels>
					<comments>
						<mastercomment1/>
						<mastercomment2/>
						<mastercomment3/>
						<mastercomment4/>
					</comments>
					<file id="MW-013-2T03 "/>
					<filter>
						<effect>
							<name>Audio Levels</name>
							<effectid>audiolevels</effectid>
							<effectcategory>audiolevels</effectcategory>
							<effecttype>audiolevels</effecttype>
							<mediatype>audio</mediatype>
							<parameter>
								<name>Level</name>
								<parameterid>level</parameterid>
								<valuemin>0</valuemin>
								<valuemax>3.98109</valuemax>
								<value>1</value>
							</parameter>
						</effect>
					</filter>
					<filter>
						<effect>
							<name>Audio Pan</name>
							<effectid>audiopan</effectid>
							<effectcategory>audiopan</effectcategory>
							<effecttype>audiopan</effecttype>
							<mediatype>audio</mediatype>
							<parameter>
								<name>Pan</name>
								<parameterid>pan</parameterid>
								<valuemin>-1</valuemin>
								<valuemax>1</valuemax>
								<value>0</value>
							</parameter>
						</effect>
					</filter>
					<sourcetrack>
						<mediatype>audio</mediatype>
						<trackindex>3</trackindex>
					</sourcetrack>
					<link>
						<linkclipref>408-13-02-03B17</linkclipref>
						<mediatype>video</mediatype>
						<trackindex>1</trackindex>
						<clipindex>7</clipindex>
					</link>
					<link>
						<linkclipref>408-13-02-03B18</linkclipref>
						<mediatype>audio</mediatype>
						<trackindex>1</trackindex>
						<clipindex>6</clipindex>
					</link>
					<link>
						<linkclipref>408-13-02-03B19</linkclipref>
						<mediatype>audio</mediatype>
						<trackindex>2</trackindex>
						<clipindex>6</clipindex>
					</link>
					<link>
						<linkclipref>408-13-02-03B20</linkclipref>
						<mediatype>audio</mediatype>
						<trackindex>3</trackindex>
						<clipindex>6</clipindex>
					</link>
					<link>
						<linkclipref>408-13-02-03B21</linkclipref>
						<mediatype>audio</mediatype>
						<trackindex>4</trackindex>
						<clipindex>6</clipindex>
					</link>
					<link>
						<linkclipref>408-13-02-03B22</linkclipref>
						<mediatype>audio</mediatype>
						<trackindex>5</trackindex>
						<clipindex>6</clipindex>
					</link>
					<link>
						<linkclipref>408-13-02-03B23</linkclipref>
						<mediatype>audio</mediatype>
						<trackindex>6</trackindex>
						<clipindex>6</clipindex>
					</link>
					<multiclip id="5"/>
					<itemhistory>
						<uuid>023E75AE-7888-4326-B110-1A54AD1E47C8</uuid>
					</itemhistory>
				</clipitem>
				<clipitem id="408-13-01-03B26">
					<name>408-13-01-03B</name>
					<duration>3700</duration>
					<rate>
						<ntsc>FALSE</ntsc>
						<timebase>25</timebase>
					</rate>
					<in>999</in>
					<out>1058</out>
					<start>622</start>
					<end>681</end>
					<enabled>TRUE</enabled>
					<masterclipid>408-13-01-03B2</masterclipid>
					<syncoffset>0</syncoffset>
					<logginginfo>
						<scene/>
						<shottake/>
						<lognote/>
						<good>FALSE</good>
					</logginginfo>
					<labels>
						<label2/>
					</labels>
					<comments>
						<mastercomment1/>
						<mastercomment2/>
						<mastercomment3/>
						<mastercomment4/>
					</comments>
					<file id="MW-013-1T03 "/>
					<filter>
						<effect>
							<name>Audio Levels</name>
							<effectid>audiolevels</effectid>
							<effectcategory>audiolevels</effectcategory>
							<effecttype>audiolevels</effecttype>
							<mediatype>audio</mediatype>
							<parameter>
								<name>Level</name>
								<parameterid>level</parameterid>
								<valuemin>0</valuemin>
								<valuemax>3.98109</valuemax>
								<value>1</value>
							</parameter>
						</effect>
					</filter>
					<filter>
						<effect>
							<name>Audio Pan</name>
							<effectid>audiopan</effectid>
							<effectcategory>audiopan</effectcategory>
							<effecttype>audiopan</effecttype>
							<mediatype>audio</mediatype>
							<parameter>
								<name>Pan</name>
								<parameterid>pan</parameterid>
								<valuemin>-1</valuemin>
								<valuemax>1</valuemax>
								<value>0</value>
							</parameter>
						</effect>
					</filter>
					<sourcetrack>
						<mediatype>audio</mediatype>
						<trackindex>3</trackindex>
					</sourcetrack>
					<link>
						<linkclipref>408-13-01-03B23</linkclipref>
						<mediatype>video</mediatype>
						<trackindex>1</trackindex>
						<clipindex>8</clipindex>
					</link>
					<link>
						<linkclipref>408-13-01-03B24</linkclipref>
						<mediatype>audio</mediatype>
						<trackindex>1</trackindex>
						<clipindex>7</clipindex>
					</link>
					<link>
						<linkclipref>408-13-01-03B25</linkclipref>
						<mediatype>audio</mediatype>
						<trackindex>2</trackindex>
						<clipindex>7</clipindex>
					</link>
					<link>
						<linkclipref>408-13-01-03B26</linkclipref>
						<mediatype>audio</mediatype>
						<trackindex>3</trackindex>
						<clipindex>7</clipindex>
					</link>
					<link>
						<linkclipref>408-13-01-03B27</linkclipref>
						<mediatype>audio</mediatype>
						<trackindex>4</trackindex>
						<clipindex>7</clipindex>
					</link>
					<link>
						<linkclipref>408-13-01-03B28</linkclipref>
						<mediatype>audio</mediatype>
						<trackindex>5</trackindex>
						<clipindex>7</clipindex>
					</link>
					<link>
						<linkclipref>408-13-01-03B29</linkclipref>
						<mediatype>audio</mediatype>
						<trackindex>6</trackindex>
						<clipindex>7</clipindex>
					</link>
					<multiclip id="6"/>
					<itemhistory>
						<uuid>890E5226-469F-4CF0-9BBE-CAA055513336</uuid>
					</itemhistory>
				</clipitem>
				<clipitem id="408-13-02-03B27">
					<name>408-13-02-03B</name>
					<duration>3750</duration>
					<rate>
						<ntsc>FALSE</ntsc>
						<timebase>25</timebase>
					</rate>
					<in>1317</in>
					<out>1528</out>
					<start>681</start>
					<end>892</end>
					<enabled>TRUE</enabled>
					<masterclipid>408-13-02-03B1</masterclipid>
					<syncoffset>0</syncoffset>
					<logginginfo>
						<scene/>
						<shottake/>
						<lognote/>
						<good>FALSE</good>
					</logginginfo>
					<labels>
						<label2/>
					</labels>
					<comments>
						<mastercomment1/>
						<mastercomment2/>
						<mastercomment3/>
						<mastercomment4/>
					</comments>
					<file id="MW-013-2T03 "/>
					<filter>
						<effect>
							<name>Audio Levels</name>
							<effectid>audiolevels</effectid>
							<effectcategory>audiolevels</effectcategory>
							<effecttype>audiolevels</effecttype>
							<mediatype>audio</mediatype>
							<parameter>
								<name>Level</name>
								<parameterid>level</parameterid>
								<valuemin>0</valuemin>
								<valuemax>3.98109</valuemax>
								<value>1</value>
							</parameter>
						</effect>
					</filter>
					<filter>
						<effect>
							<name>Audio Pan</name>
							<effectid>audiopan</effectid>
							<effectcategory>audiopan</effectcategory>
							<effecttype>audiopan</effecttype>
							<mediatype>audio</mediatype>
							<parameter>
								<name>Pan</name>
								<parameterid>pan</parameterid>
								<valuemin>-1</valuemin>
								<valuemax>1</valuemax>
								<value>0</value>
							</parameter>
						</effect>
					</filter>
					<sourcetrack>
						<mediatype>audio</mediatype>
						<trackindex>3</trackindex>
					</sourcetrack>
					<link>
						<linkclipref>408-13-02-03B24</linkclipref>
						<mediatype>video</mediatype>
						<trackindex>1</trackindex>
						<clipindex>9</clipindex>
					</link>
					<link>
						<linkclipref>408-13-02-03B25</linkclipref>
						<mediatype>audio</mediatype>
						<trackindex>1</trackindex>
						<clipindex>8</clipindex>
					</link>
					<link>
						<linkclipref>408-13-02-03B26</linkclipref>
						<mediatype>audio</mediatype>
						<trackindex>2</trackindex>
						<clipindex>8</clipindex>
					</link>
					<link>
						<linkclipref>408-13-02-03B27</linkclipref>
						<mediatype>audio</mediatype>
						<trackindex>3</trackindex>
						<clipindex>8</clipindex>
					</link>
					<link>
						<linkclipref>408-13-02-03B28</linkclipref>
						<mediatype>audio</mediatype>
						<trackindex>4</trackindex>
						<clipindex>8</clipindex>
					</link>
					<link>
						<linkclipref>408-13-02-03B29</linkclipref>
						<mediatype>audio</mediatype>
						<trackindex>5</trackindex>
						<clipindex>8</clipindex>
					</link>
					<link>
						<linkclipref>408-13-02-03B30</linkclipref>
						<mediatype>audio</mediatype>
						<trackindex>6</trackindex>
						<clipindex>8</clipindex>
					</link>
					<multiclip id="7"/>
					<itemhistory>
						<uuid>E9D11539-C28E-425D-929F-BC881709D134</uuid>
					</itemhistory>
				</clipitem>
				<clipitem id="408-13-01-03B33">
					<name>408-13-01-03B</name>
					<duration>3700</duration>
					<rate>
						<ntsc>FALSE</ntsc>
						<timebase>25</timebase>
					</rate>
					<in>1230</in>
					<out>1262</out>
					<start>892</start>
					<end>924</end>
					<enabled>TRUE</enabled>
					<masterclipid>408-13-01-03B2</masterclipid>
					<syncoffset>0</syncoffset>
					<logginginfo>
						<scene/>
						<shottake/>
						<lognote/>
						<good>FALSE</good>
					</logginginfo>
					<labels>
						<label2/>
					</labels>
					<comments>
						<mastercomment1/>
						<mastercomment2/>
						<mastercomment3/>
						<mastercomment4/>
					</comments>
					<file id="MW-013-1T03 "/>
					<filter>
						<effect>
							<name>Audio Levels</name>
							<effectid>audiolevels</effectid>
							<effectcategory>audiolevels</effectcategory>
							<effecttype>audiolevels</effecttype>
							<mediatype>audio</mediatype>
							<parameter>
								<name>Level</name>
								<parameterid>level</parameterid>
								<valuemin>0</valuemin>
								<valuemax>3.98109</valuemax>
								<value>1</value>
							</parameter>
						</effect>
					</filter>
					<filter>
						<effect>
							<name>Audio Pan</name>
							<effectid>audiopan</effectid>
							<effectcategory>audiopan</effectcategory>
							<effecttype>audiopan</effecttype>
							<mediatype>audio</mediatype>
							<parameter>
								<name>Pan</name>
								<parameterid>pan</parameterid>
								<valuemin>-1</valuemin>
								<valuemax>1</valuemax>
								<value>0</value>
							</parameter>
						</effect>
					</filter>
					<sourcetrack>
						<mediatype>audio</mediatype>
						<trackindex>3</trackindex>
					</sourcetrack>
					<link>
						<linkclipref>408-13-01-03B30</linkclipref>
						<mediatype>video</mediatype>
						<trackindex>1</trackindex>
						<clipindex>10</clipindex>
					</link>
					<link>
						<linkclipref>408-13-01-03B31</linkclipref>
						<mediatype>audio</mediatype>
						<trackindex>1</trackindex>
						<clipindex>9</clipindex>
					</link>
					<link>
						<linkclipref>408-13-01-03B32</linkclipref>
						<mediatype>audio</mediatype>
						<trackindex>2</trackindex>
						<clipindex>9</clipindex>
					</link>
					<link>
						<linkclipref>408-13-01-03B33</linkclipref>
						<mediatype>audio</mediatype>
						<trackindex>3</trackindex>
						<clipindex>9</clipindex>
					</link>
					<link>
						<linkclipref>408-13-01-03B34</linkclipref>
						<mediatype>audio</mediatype>
						<trackindex>4</trackindex>
						<clipindex>9</clipindex>
					</link>
					<link>
						<linkclipref>408-13-01-03B35</linkclipref>
						<mediatype>audio</mediatype>
						<trackindex>5</trackindex>
						<clipindex>9</clipindex>
					</link>
					<link>
						<linkclipref>408-13-01-03B36</linkclipref>
						<mediatype>audio</mediatype>
						<trackindex>6</trackindex>
						<clipindex>9</clipindex>
					</link>
					<multiclip id="8"/>
					<itemhistory>
						<uuid>281565B2-D9AB-4197-A68D-2F957D3231E5</uuid>
					</itemhistory>
				</clipitem>
				<clipitem id="408-13-02-03B34">
					<name>408-13-02-03B</name>
					<duration>3750</duration>
					<rate>
						<ntsc>FALSE</ntsc>
						<timebase>25</timebase>
					</rate>
					<in>1569</in>
					<out>1862</out>
					<start>924</start>
					<end>1217</end>
					<subframeoffset>0</subframeoffset>
					<enabled>TRUE</enabled>
					<masterclipid>408-13-02-03B1</masterclipid>
					<syncoffset>0</syncoffset>
					<logginginfo>
						<scene/>
						<shottake/>
						<lognote/>
						<good>FALSE</good>
					</logginginfo>
					<labels>
						<label2/>
					</labels>
					<comments>
						<mastercomment1/>
						<mastercomment2/>
						<mastercomment3/>
						<mastercomment4/>
					</comments>
					<file id="MW-013-2T03 "/>
					<filter>
						<effect>
							<name>Audio Levels</name>
							<effectid>audiolevels</effectid>
							<effectcategory>audiolevels</effectcategory>
							<effecttype>audiolevels</effecttype>
							<mediatype>audio</mediatype>
							<parameter>
								<name>Level</name>
								<parameterid>level</parameterid>
								<valuemin>0</valuemin>
								<valuemax>3.98109</valuemax>
								<value>1</value>
							</parameter>
						</effect>
					</filter>
					<filter>
						<effect>
							<name>Audio Pan</name>
							<effectid>audiopan</effectid>
							<effectcategory>audiopan</effectcategory>
							<effecttype>audiopan</effecttype>
							<mediatype>audio</mediatype>
							<parameter>
								<name>Pan</name>
								<parameterid>pan</parameterid>
								<valuemin>-1</valuemin>
								<valuemax>1</valuemax>
								<value>0</value>
							</parameter>
						</effect>
					</filter>
					<sourcetrack>
						<mediatype>audio</mediatype>
						<trackindex>3</trackindex>
					</sourcetrack>
					<link>
						<linkclipref>408-13-02-03B31</linkclipref>
						<mediatype>video</mediatype>
						<trackindex>1</trackindex>
						<clipindex>11</clipindex>
					</link>
					<link>
						<linkclipref>408-13-02-03B32</linkclipref>
						<mediatype>audio</mediatype>
						<trackindex>1</trackindex>
						<clipindex>10</clipindex>
					</link>
					<link>
						<linkclipref>408-13-02-03B33</linkclipref>
						<mediatype>audio</mediatype>
						<trackindex>2</trackindex>
						<clipindex>10</clipindex>
					</link>
					<link>
						<linkclipref>408-13-02-03B34</linkclipref>
						<mediatype>audio</mediatype>
						<trackindex>3</trackindex>
						<clipindex>10</clipindex>
					</link>
					<link>
						<linkclipref>408-13-02-03B35</linkclipref>
						<mediatype>audio</mediatype>
						<trackindex>4</trackindex>
						<clipindex>10</clipindex>
					</link>
					<link>
						<linkclipref>408-13-02-03B36</linkclipref>
						<mediatype>audio</mediatype>
						<trackindex>5</trackindex>
						<clipindex>10</clipindex>
					</link>
					<link>
						<linkclipref>408-13-02-03B37</linkclipref>
						<mediatype>audio</mediatype>
						<trackindex>6</trackindex>
						<clipindex>10</clipindex>
					</link>
					<multiclip id="9"/>
					<itemhistory>
						<uuid>0889697C-27CB-4EBC-8D62-60AE1D9DFB34</uuid>
					</itemhistory>
				</clipitem>
				<clipitem id="408-13-01-03B40">
					<name>408-13-01-03B</name>
					<duration>3700</duration>
					<rate>
						<ntsc>FALSE</ntsc>
						<timebase>25</timebase>
					</rate>
					<in>1523</in>
					<out>1591</out>
					<start>1217</start>
					<end>1285</end>
					<enabled>TRUE</enabled>
					<masterclipid>408-13-01-03B2</masterclipid>
					<syncoffset>0</syncoffset>
					<logginginfo>
						<scene/>
						<shottake/>
						<lognote/>
						<good>FALSE</good>
					</logginginfo>
					<labels>
						<label2/>
					</labels>
					<comments>
						<mastercomment1/>
						<mastercomment2/>
						<mastercomment3/>
						<mastercomment4/>
					</comments>
					<file id="MW-013-1T03 "/>
					<filter>
						<effect>
							<name>Audio Levels</name>
							<effectid>audiolevels</effectid>
							<effectcategory>audiolevels</effectcategory>
							<effecttype>audiolevels</effecttype>
							<mediatype>audio</mediatype>
							<parameter>
								<name>Level</name>
								<parameterid>level</parameterid>
								<valuemin>0</valuemin>
								<valuemax>3.98109</valuemax>
								<value>1</value>
							</parameter>
						</effect>
					</filter>
					<filter>
						<effect>
							<name>Audio Pan</name>
							<effectid>audiopan</effectid>
							<effectcategory>audiopan</effectcategory>
							<effecttype>audiopan</effecttype>
							<mediatype>audio</mediatype>
							<parameter>
								<name>Pan</name>
								<parameterid>pan</parameterid>
								<valuemin>-1</valuemin>
								<valuemax>1</valuemax>
								<value>0</value>
							</parameter>
						</effect>
					</filter>
					<sourcetrack>
						<mediatype>audio</mediatype>
						<trackindex>3</trackindex>
					</sourcetrack>
					<link>
						<linkclipref>408-13-01-03B37</linkclipref>
						<mediatype>video</mediatype>
						<trackindex>1</trackindex>
						<clipindex>12</clipindex>
					</link>
					<link>
						<linkclipref>408-13-01-03B38</linkclipref>
						<mediatype>audio</mediatype>
						<trackindex>1</trackindex>
						<clipindex>11</clipindex>
					</link>
					<link>
						<linkclipref>408-13-01-03B39</linkclipref>
						<mediatype>audio</mediatype>
						<trackindex>2</trackindex>
						<clipindex>11</clipindex>
					</link>
					<link>
						<linkclipref>408-13-01-03B40</linkclipref>
						<mediatype>audio</mediatype>
						<trackindex>3</trackindex>
						<clipindex>11</clipindex>
					</link>
					<link>
						<linkclipref>408-13-01-03B41</linkclipref>
						<mediatype>audio</mediatype>
						<trackindex>4</trackindex>
						<clipindex>11</clipindex>
					</link>
					<link>
						<linkclipref>408-13-01-03B42</linkclipref>
						<mediatype>audio</mediatype>
						<trackindex>5</trackindex>
						<clipindex>11</clipindex>
					</link>
					<link>
						<linkclipref>408-13-01-03B43</linkclipref>
						<mediatype>audio</mediatype>
						<trackindex>6</trackindex>
						<clipindex>11</clipindex>
					</link>
					<multiclip id="10"/>
					<itemhistory>
						<uuid>13A48A27-D231-4CD2-828B-508497B6175D</uuid>
					</itemhistory>
				</clipitem>
				<clipitem id="408-13-02-03B41">
					<name>408-13-02-03B</name>
					<duration>3750</duration>
					<rate>
						<ntsc>FALSE</ntsc>
						<timebase>25</timebase>
					</rate>
					<in>1923</in>
					<out>2018</out>
					<start>1285</start>
					<end>1380</end>
					<subframeoffset>0</subframeoffset>
					<enabled>TRUE</enabled>
					<masterclipid>408-13-02-03B1</masterclipid>
					<syncoffset>0</syncoffset>
					<logginginfo>
						<scene/>
						<shottake/>
						<lognote/>
						<good>FALSE</good>
					</logginginfo>
					<labels>
						<label2/>
					</labels>
					<comments>
						<mastercomment1/>
						<mastercomment2/>
						<mastercomment3/>
						<mastercomment4/>
					</comments>
					<file id="MW-013-2T03 "/>
					<filter>
						<effect>
							<name>Audio Levels</name>
							<effectid>audiolevels</effectid>
							<effectcategory>audiolevels</effectcategory>
							<effecttype>audiolevels</effecttype>
							<mediatype>audio</mediatype>
							<parameter>
								<name>Level</name>
								<parameterid>level</parameterid>
								<valuemin>0</valuemin>
								<valuemax>3.98109</valuemax>
								<value>1</value>
							</parameter>
						</effect>
					</filter>
					<filter>
						<effect>
							<name>Audio Pan</name>
							<effectid>audiopan</effectid>
							<effectcategory>audiopan</effectcategory>
							<effecttype>audiopan</effecttype>
							<mediatype>audio</mediatype>
							<parameter>
								<name>Pan</name>
								<parameterid>pan</parameterid>
								<valuemin>-1</valuemin>
								<valuemax>1</valuemax>
								<value>0</value>
							</parameter>
						</effect>
					</filter>
					<sourcetrack>
						<mediatype>audio</mediatype>
						<trackindex>3</trackindex>
					</sourcetrack>
					<link>
						<linkclipref>408-13-02-03B38</linkclipref>
						<mediatype>video</mediatype>
						<trackindex>1</trackindex>
						<clipindex>13</clipindex>
					</link>
					<link>
						<linkclipref>408-13-02-03B39</linkclipref>
						<mediatype>audio</mediatype>
						<trackindex>1</trackindex>
						<clipindex>12</clipindex>
					</link>
					<link>
						<linkclipref>408-13-02-03B40</linkclipref>
						<mediatype>audio</mediatype>
						<trackindex>2</trackindex>
						<clipindex>12</clipindex>
					</link>
					<link>
						<linkclipref>408-13-02-03B41</linkclipref>
						<mediatype>audio</mediatype>
						<trackindex>3</trackindex>
						<clipindex>12</clipindex>
					</link>
					<link>
						<linkclipref>408-13-02-03B42</linkclipref>
						<mediatype>audio</mediatype>
						<trackindex>4</trackindex>
						<clipindex>12</clipindex>
					</link>
					<link>
						<linkclipref>408-13-02-03B43</linkclipref>
						<mediatype>audio</mediatype>
						<trackindex>5</trackindex>
						<clipindex>12</clipindex>
					</link>
					<link>
						<linkclipref>408-13-02-03B44</linkclipref>
						<mediatype>audio</mediatype>
						<trackindex>6</trackindex>
						<clipindex>12</clipindex>
					</link>
					<multiclip id="11"/>
					<itemhistory>
						<uuid>0AE4D46E-145B-4277-A010-FA913AA7BA97</uuid>
					</itemhistory>
				</clipitem>
				<clipitem id="408-13-03-05A4">
					<name>408-13-03-05A</name>
					<duration>2100</duration>
					<rate>
						<ntsc>FALSE</ntsc>
						<timebase>25</timebase>
					</rate>
					<in>497</in>
					<out>608</out>
					<start>1380</start>
					<end>1491</end>
					<subframeoffset>0</subframeoffset>
					<enabled>TRUE</enabled>
					<masterclipid>408-13-03-05A1</masterclipid>
					<syncoffset>0</syncoffset>
					<logginginfo>
						<scene/>
						<shottake/>
						<lognote/>
						<good>FALSE</good>
					</logginginfo>
					<labels>
						<label2/>
					</labels>
					<comments>
						<mastercomment1/>
						<mastercomment2/>
						<mastercomment3/>
						<mastercomment4/>
					</comments>
					<file id="MW-013-3T05 "/>
					<filter>
						<effect>
							<name>Audio Levels</name>
							<effectid>audiolevels</effectid>
							<effectcategory>audiolevels</effectcategory>
							<effecttype>audiolevels</effecttype>
							<mediatype>audio</mediatype>
							<parameter>
								<name>Level</name>
								<parameterid>level</parameterid>
								<valuemin>0</valuemin>
								<valuemax>3.98109</valuemax>
								<value>1</value>
							</parameter>
						</effect>
					</filter>
					<filter>
						<effect>
							<name>Audio Pan</name>
							<effectid>audiopan</effectid>
							<effectcategory>audiopan</effectcategory>
							<effecttype>audiopan</effecttype>
							<mediatype>audio</mediatype>
							<parameter>
								<name>Pan</name>
								<parameterid>pan</parameterid>
								<valuemin>-1</valuemin>
								<valuemax>1</valuemax>
								<value>0</value>
							</parameter>
						</effect>
					</filter>
					<sourcetrack>
						<mediatype>audio</mediatype>
						<trackindex>3</trackindex>
					</sourcetrack>
					<link>
						<linkclipref>408-13-03-05A</linkclipref>
						<mediatype>video</mediatype>
						<trackindex>1</trackindex>
						<clipindex>14</clipindex>
					</link>
					<link>
						<linkclipref>408-13-03-05A2</linkclipref>
						<mediatype>audio</mediatype>
						<trackindex>1</trackindex>
						<clipindex>13</clipindex>
					</link>
					<link>
						<linkclipref>408-13-03-05A3</linkclipref>
						<mediatype>audio</mediatype>
						<trackindex>2</trackindex>
						<clipindex>13</clipindex>
					</link>
					<link>
						<linkclipref>408-13-03-05A4</linkclipref>
						<mediatype>audio</mediatype>
						<trackindex>3</trackindex>
						<clipindex>13</clipindex>
					</link>
					<link>
						<linkclipref>408-13-03-05A5</linkclipref>
						<mediatype>audio</mediatype>
						<trackindex>4</trackindex>
						<clipindex>13</clipindex>
					</link>
					<link>
						<linkclipref>408-13-03-05A6</linkclipref>
						<mediatype>audio</mediatype>
						<trackindex>5</trackindex>
						<clipindex>13</clipindex>
					</link>
					<link>
						<linkclipref>408-13-03-05A7</linkclipref>
						<mediatype>audio</mediatype>
						<trackindex>6</trackindex>
						<clipindex>13</clipindex>
					</link>
					<multiclip id="12"/>
					<itemhistory>
						<uuid>CD3CB18E-B965-494B-A82D-35906392C813</uuid>
					</itemhistory>
				</clipitem>
				<clipitem id="408-13-03-05B12">
					<name>408-13-03-05B</name>
					<duration>2100</duration>
					<rate>
						<ntsc>FALSE</ntsc>
						<timebase>25</timebase>
					</rate>
					<in>608</in>
					<out>690</out>
					<start>1491</start>
					<end>1573</end>
					<enabled>TRUE</enabled>
					<masterclipid>408-13-03-05B2</masterclipid>
					<syncoffset>0</syncoffset>
					<logginginfo>
						<scene/>
						<shottake/>
						<lognote/>
						<good>FALSE</good>
					</logginginfo>
					<labels>
						<label2/>
					</labels>
					<comments>
						<mastercomment1/>
						<mastercomment2/>
						<mastercomment3/>
						<mastercomment4/>
					</comments>
					<file id="MW-013-3T05 "/>
					<filter>
						<effect>
							<name>Audio Levels</name>
							<effectid>audiolevels</effectid>
							<effectcategory>audiolevels</effectcategory>
							<effecttype>audiolevels</effecttype>
							<mediatype>audio</mediatype>
							<parameter>
								<name>Level</name>
								<parameterid>level</parameterid>
								<valuemin>0</valuemin>
								<valuemax>3.98109</valuemax>
								<value>1</value>
							</parameter>
						</effect>
					</filter>
					<filter>
						<effect>
							<name>Audio Pan</name>
							<effectid>audiopan</effectid>
							<effectcategory>audiopan</effectcategory>
							<effecttype>audiopan</effecttype>
							<mediatype>audio</mediatype>
							<parameter>
								<name>Pan</name>
								<parameterid>pan</parameterid>
								<valuemin>-1</valuemin>
								<valuemax>1</valuemax>
								<value>0</value>
							</parameter>
						</effect>
					</filter>
					<sourcetrack>
						<mediatype>audio</mediatype>
						<trackindex>3</trackindex>
					</sourcetrack>
					<link>
						<linkclipref>408-13-03-05B9</linkclipref>
						<mediatype>video</mediatype>
						<trackindex>1</trackindex>
						<clipindex>15</clipindex>
					</link>
					<link>
						<linkclipref>408-13-03-05B10</linkclipref>
						<mediatype>audio</mediatype>
						<trackindex>1</trackindex>
						<clipindex>14</clipindex>
					</link>
					<link>
						<linkclipref>408-13-03-05B11</linkclipref>
						<mediatype>audio</mediatype>
						<trackindex>2</trackindex>
						<clipindex>14</clipindex>
					</link>
					<link>
						<linkclipref>408-13-03-05B12</linkclipref>
						<mediatype>audio</mediatype>
						<trackindex>3</trackindex>
						<clipindex>14</clipindex>
					</link>
					<link>
						<linkclipref>408-13-03-05B13</linkclipref>
						<mediatype>audio</mediatype>
						<trackindex>4</trackindex>
						<clipindex>14</clipindex>
					</link>
					<link>
						<linkclipref>408-13-03-05B14</linkclipref>
						<mediatype>audio</mediatype>
						<trackindex>5</trackindex>
						<clipindex>14</clipindex>
					</link>
					<link>
						<linkclipref>408-13-03-05B15</linkclipref>
						<mediatype>audio</mediatype>
						<trackindex>6</trackindex>
						<clipindex>14</clipindex>
					</link>
					<multiclip id="13"/>
					<itemhistory>
						<uuid>611EBDC0-FDB3-4368-8222-E27E4ACE1000</uuid>
					</itemhistory>
				</clipitem>
				<clipitem id="408-13-03-05A20">
					<name>408-13-03-05A</name>
					<duration>2100</duration>
					<rate>
						<ntsc>FALSE</ntsc>
						<timebase>25</timebase>
					</rate>
					<in>690</in>
					<out>973</out>
					<start>1573</start>
					<end>1856</end>
					<enabled>TRUE</enabled>
					<masterclipid>408-13-03-05A1</masterclipid>
					<syncoffset>0</syncoffset>
					<logginginfo>
						<scene/>
						<shottake/>
						<lognote/>
						<good>FALSE</good>
					</logginginfo>
					<labels>
						<label2/>
					</labels>
					<comments>
						<mastercomment1/>
						<mastercomment2/>
						<mastercomment3/>
						<mastercomment4/>
					</comments>
					<file id="MW-013-3T05 "/>
					<filter>
						<effect>
							<name>Audio Levels</name>
							<effectid>audiolevels</effectid>
							<effectcategory>audiolevels</effectcategory>
							<effecttype>audiolevels</effecttype>
							<mediatype>audio</mediatype>
							<parameter>
								<name>Level</name>
								<parameterid>level</parameterid>
								<valuemin>0</valuemin>
								<valuemax>3.98109</valuemax>
								<value>1</value>
							</parameter>
						</effect>
					</filter>
					<filter>
						<effect>
							<name>Audio Pan</name>
							<effectid>audiopan</effectid>
							<effectcategory>audiopan</effectcategory>
							<effecttype>audiopan</effecttype>
							<mediatype>audio</mediatype>
							<parameter>
								<name>Pan</name>
								<parameterid>pan</parameterid>
								<valuemin>-1</valuemin>
								<valuemax>1</valuemax>
								<value>0</value>
							</parameter>
						</effect>
					</filter>
					<sourcetrack>
						<mediatype>audio</mediatype>
						<trackindex>3</trackindex>
					</sourcetrack>
					<link>
						<linkclipref>408-13-03-05A17</linkclipref>
						<mediatype>video</mediatype>
						<trackindex>1</trackindex>
						<clipindex>16</clipindex>
					</link>
					<link>
						<linkclipref>408-13-03-05A18</linkclipref>
						<mediatype>audio</mediatype>
						<trackindex>1</trackindex>
						<clipindex>15</clipindex>
					</link>
					<link>
						<linkclipref>408-13-03-05A19</linkclipref>
						<mediatype>audio</mediatype>
						<trackindex>2</trackindex>
						<clipindex>15</clipindex>
					</link>
					<link>
						<linkclipref>408-13-03-05A20</linkclipref>
						<mediatype>audio</mediatype>
						<trackindex>3</trackindex>
						<clipindex>15</clipindex>
					</link>
					<link>
						<linkclipref>408-13-03-05A21</linkclipref>
						<mediatype>audio</mediatype>
						<trackindex>4</trackindex>
						<clipindex>15</clipindex>
					</link>
					<link>
						<linkclipref>408-13-03-05A22</linkclipref>
						<mediatype>audio</mediatype>
						<trackindex>5</trackindex>
						<clipindex>15</clipindex>
					</link>
					<link>
						<linkclipref>408-13-03-05A23</linkclipref>
						<mediatype>audio</mediatype>
						<trackindex>6</trackindex>
						<clipindex>15</clipindex>
					</link>
					<multiclip id="14"/>
					<itemhistory>
						<uuid>182A7854-08B5-4513-8052-4C83117CF194</uuid>
					</itemhistory>
				</clipitem>
				<clipitem id="408-13-02-03B48">
					<name>408-13-02-03B</name>
					<duration>3750</duration>
					<rate>
						<ntsc>FALSE</ntsc>
						<timebase>25</timebase>
					</rate>
					<in>2491</in>
					<out>2562</out>
					<start>1856</start>
					<end>1927</end>
					<enabled>TRUE</enabled>
					<masterclipid>408-13-02-03B1</masterclipid>
					<syncoffset>0</syncoffset>
					<logginginfo>
						<scene/>
						<shottake/>
						<lognote/>
						<good>FALSE</good>
					</logginginfo>
					<labels>
						<label2/>
					</labels>
					<comments>
						<mastercomment1/>
						<mastercomment2/>
						<mastercomment3/>
						<mastercomment4/>
					</comments>
					<file id="MW-013-2T03 "/>
					<filter>
						<effect>
							<name>Audio Levels</name>
							<effectid>audiolevels</effectid>
							<effectcategory>audiolevels</effectcategory>
							<effecttype>audiolevels</effecttype>
							<mediatype>audio</mediatype>
							<parameter>
								<name>Level</name>
								<parameterid>level</parameterid>
								<valuemin>0</valuemin>
								<valuemax>3.98109</valuemax>
								<value>1</value>
							</parameter>
						</effect>
					</filter>
					<filter>
						<effect>
							<name>Audio Pan</name>
							<effectid>audiopan</effectid>
							<effectcategory>audiopan</effectcategory>
							<effecttype>audiopan</effecttype>
							<mediatype>audio</mediatype>
							<parameter>
								<name>Pan</name>
								<parameterid>pan</parameterid>
								<valuemin>-1</valuemin>
								<valuemax>1</valuemax>
								<value>0</value>
							</parameter>
						</effect>
					</filter>
					<sourcetrack>
						<mediatype>audio</mediatype>
						<trackindex>3</trackindex>
					</sourcetrack>
					<link>
						<linkclipref>408-13-02-03B45</linkclipref>
						<mediatype>video</mediatype>
						<trackindex>1</trackindex>
						<clipindex>17</clipindex>
					</link>
					<link>
						<linkclipref>408-13-02-03B46</linkclipref>
						<mediatype>audio</mediatype>
						<trackindex>1</trackindex>
						<clipindex>16</clipindex>
					</link>
					<link>
						<linkclipref>408-13-02-03B47</linkclipref>
						<mediatype>audio</mediatype>
						<trackindex>2</trackindex>
						<clipindex>16</clipindex>
					</link>
					<link>
						<linkclipref>408-13-02-03B48</linkclipref>
						<mediatype>audio</mediatype>
						<trackindex>3</trackindex>
						<clipindex>16</clipindex>
					</link>
					<link>
						<linkclipref>408-13-02-03B49</linkclipref>
						<mediatype>audio</mediatype>
						<trackindex>4</trackindex>
						<clipindex>16</clipindex>
					</link>
					<link>
						<linkclipref>408-13-02-03B50</linkclipref>
						<mediatype>audio</mediatype>
						<trackindex>5</trackindex>
						<clipindex>16</clipindex>
					</link>
					<link>
						<linkclipref>408-13-02-03B51</linkclipref>
						<mediatype>audio</mediatype>
						<trackindex>6</trackindex>
						<clipindex>16</clipindex>
					</link>
					<multiclip id="15"/>
					<itemhistory>
						<uuid>8754DD51-2923-42DC-B1B6-EBC1D1F2F977</uuid>
					</itemhistory>
				</clipitem>
				<clipitem id="408-13-01-03B47">
					<name>408-13-01-03B</name>
					<duration>3700</duration>
					<rate>
						<ntsc>FALSE</ntsc>
						<timebase>25</timebase>
					</rate>
					<in>2529</in>
					<out>2572</out>
					<start>1927</start>
					<end>1970</end>
					<enabled>TRUE</enabled>
					<masterclipid>408-13-01-03B2</masterclipid>
					<syncoffset>0</syncoffset>
					<logginginfo>
						<scene/>
						<shottake/>
						<lognote/>
						<good>FALSE</good>
					</logginginfo>
					<labels>
						<label2/>
					</labels>
					<comments>
						<mastercomment1/>
						<mastercomment2/>
						<mastercomment3/>
						<mastercomment4/>
					</comments>
					<file id="MW-013-1T03 "/>
					<filter>
						<effect>
							<name>Audio Levels</name>
							<effectid>audiolevels</effectid>
							<effectcategory>audiolevels</effectcategory>
							<effecttype>audiolevels</effecttype>
							<mediatype>audio</mediatype>
							<parameter>
								<name>Level</name>
								<parameterid>level</parameterid>
								<valuemin>0</valuemin>
								<valuemax>3.98109</valuemax>
								<value>1</value>
							</parameter>
						</effect>
					</filter>
					<filter>
						<effect>
							<name>Audio Pan</name>
							<effectid>audiopan</effectid>
							<effectcategory>audiopan</effectcategory>
							<effecttype>audiopan</effecttype>
							<mediatype>audio</mediatype>
							<parameter>
								<name>Pan</name>
								<parameterid>pan</parameterid>
								<valuemin>-1</valuemin>
								<valuemax>1</valuemax>
								<value>0</value>
							</parameter>
						</effect>
					</filter>
					<sourcetrack>
						<mediatype>audio</mediatype>
						<trackindex>3</trackindex>
					</sourcetrack>
					<link>
						<linkclipref>408-13-01-03B44</linkclipref>
						<mediatype>video</mediatype>
						<trackindex>1</trackindex>
						<clipindex>18</clipindex>
					</link>
					<link>
						<linkclipref>408-13-01-03B45</linkclipref>
						<mediatype>audio</mediatype>
						<trackindex>1</trackindex>
						<clipindex>17</clipindex>
					</link>
					<link>
						<linkclipref>408-13-01-03B46</linkclipref>
						<mediatype>audio</mediatype>
						<trackindex>2</trackindex>
						<clipindex>17</clipindex>
					</link>
					<link>
						<linkclipref>408-13-01-03B47</linkclipref>
						<mediatype>audio</mediatype>
						<trackindex>3</trackindex>
						<clipindex>17</clipindex>
					</link>
					<link>
						<linkclipref>408-13-01-03B48</linkclipref>
						<mediatype>audio</mediatype>
						<trackindex>4</trackindex>
						<clipindex>17</clipindex>
					</link>
					<link>
						<linkclipref>408-13-01-03B49</linkclipref>
						<mediatype>audio</mediatype>
						<trackindex>5</trackindex>
						<clipindex>17</clipindex>
					</link>
					<link>
						<linkclipref>408-13-01-03B50</linkclipref>
						<mediatype>audio</mediatype>
						<trackindex>6</trackindex>
						<clipindex>17</clipindex>
					</link>
					<multiclip id="16"/>
					<itemhistory>
						<uuid>71380632-DDA1-4360-B9BF-49DF4F3E8DD2</uuid>
					</itemhistory>
				</clipitem>
				<clipitem id="408-13-02-03B55">
					<name>408-13-02-03B</name>
					<duration>3750</duration>
					<rate>
						<ntsc>FALSE</ntsc>
						<timebase>25</timebase>
					</rate>
					<in>2585</in>
					<out>2827</out>
					<start>1970</start>
					<end>2212</end>
					<subframeoffset>0</subframeoffset>
					<enabled>TRUE</enabled>
					<masterclipid>408-13-02-03B1</masterclipid>
					<syncoffset>0</syncoffset>
					<logginginfo>
						<scene/>
						<shottake/>
						<lognote/>
						<good>FALSE</good>
					</logginginfo>
					<labels>
						<label2/>
					</labels>
					<comments>
						<mastercomment1/>
						<mastercomment2/>
						<mastercomment3/>
						<mastercomment4/>
					</comments>
					<file id="MW-013-2T03 "/>
					<filter>
						<effect>
							<name>Audio Levels</name>
							<effectid>audiolevels</effectid>
							<effectcategory>audiolevels</effectcategory>
							<effecttype>audiolevels</effecttype>
							<mediatype>audio</mediatype>
							<parameter>
								<name>Level</name>
								<parameterid>level</parameterid>
								<valuemin>0</valuemin>
								<valuemax>3.98109</valuemax>
								<value>1</value>
							</parameter>
						</effect>
					</filter>
					<filter>
						<effect>
							<name>Audio Pan</name>
							<effectid>audiopan</effectid>
							<effectcategory>audiopan</effectcategory>
							<effecttype>audiopan</effecttype>
							<mediatype>audio</mediatype>
							<parameter>
								<name>Pan</name>
								<parameterid>pan</parameterid>
								<valuemin>-1</valuemin>
								<valuemax>1</valuemax>
								<value>0</value>
							</parameter>
						</effect>
					</filter>
					<sourcetrack>
						<mediatype>audio</mediatype>
						<trackindex>3</trackindex>
					</sourcetrack>
					<link>
						<linkclipref>408-13-02-03B52</linkclipref>
						<mediatype>video</mediatype>
						<trackindex>1</trackindex>
						<clipindex>19</clipindex>
					</link>
					<link>
						<linkclipref>408-13-02-03B53</linkclipref>
						<mediatype>audio</mediatype>
						<trackindex>1</trackindex>
						<clipindex>18</clipindex>
					</link>
					<link>
						<linkclipref>408-13-02-03B54</linkclipref>
						<mediatype>audio</mediatype>
						<trackindex>2</trackindex>
						<clipindex>18</clipindex>
					</link>
					<link>
						<linkclipref>408-13-02-03B55</linkclipref>
						<mediatype>audio</mediatype>
						<trackindex>3</trackindex>
						<clipindex>18</clipindex>
					</link>
					<link>
						<linkclipref>408-13-02-03B56</linkclipref>
						<mediatype>audio</mediatype>
						<trackindex>4</trackindex>
						<clipindex>18</clipindex>
					</link>
					<link>
						<linkclipref>408-13-02-03B57</linkclipref>
						<mediatype>audio</mediatype>
						<trackindex>5</trackindex>
						<clipindex>18</clipindex>
					</link>
					<link>
						<linkclipref>408-13-02-03B58</linkclipref>
						<mediatype>audio</mediatype>
						<trackindex>6</trackindex>
						<clipindex>18</clipindex>
					</link>
					<multiclip id="17"/>
					<itemhistory>
						<uuid>D62A0D07-6C91-4ABE-900D-16EB112B4AC7</uuid>
					</itemhistory>
				</clipitem>
				<clipitem id="408-13-01-03B54">
					<name>408-13-01-03B</name>
					<duration>3700</duration>
					<rate>
						<ntsc>FALSE</ntsc>
						<timebase>25</timebase>
					</rate>
					<in>2799</in>
					<out>2816</out>
					<start>2212</start>
					<end>2229</end>
					<enabled>TRUE</enabled>
					<masterclipid>408-13-01-03B2</masterclipid>
					<syncoffset>0</syncoffset>
					<logginginfo>
						<scene/>
						<shottake/>
						<lognote/>
						<good>FALSE</good>
					</logginginfo>
					<labels>
						<label2/>
					</labels>
					<comments>
						<mastercomment1/>
						<mastercomment2/>
						<mastercomment3/>
						<mastercomment4/>
					</comments>
					<file id="MW-013-1T03 "/>
					<filter>
						<effect>
							<name>Audio Levels</name>
							<effectid>audiolevels</effectid>
							<effectcategory>audiolevels</effectcategory>
							<effecttype>audiolevels</effecttype>
							<mediatype>audio</mediatype>
							<parameter>
								<name>Level</name>
								<parameterid>level</parameterid>
								<valuemin>0</valuemin>
								<valuemax>3.98109</valuemax>
								<value>1</value>
							</parameter>
						</effect>
					</filter>
					<filter>
						<effect>
							<name>Audio Pan</name>
							<effectid>audiopan</effectid>
							<effectcategory>audiopan</effectcategory>
							<effecttype>audiopan</effecttype>
							<mediatype>audio</mediatype>
							<parameter>
								<name>Pan</name>
								<parameterid>pan</parameterid>
								<valuemin>-1</valuemin>
								<valuemax>1</valuemax>
								<value>0</value>
							</parameter>
						</effect>
					</filter>
					<sourcetrack>
						<mediatype>audio</mediatype>
						<trackindex>3</trackindex>
					</sourcetrack>
					<link>
						<linkclipref>408-13-01-03B51</linkclipref>
						<mediatype>video</mediatype>
						<trackindex>1</trackindex>
						<clipindex>20</clipindex>
					</link>
					<link>
						<linkclipref>408-13-01-03B52</linkclipref>
						<mediatype>audio</mediatype>
						<trackindex>1</trackindex>
						<clipindex>19</clipindex>
					</link>
					<link>
						<linkclipref>408-13-01-03B53</linkclipref>
						<mediatype>audio</mediatype>
						<trackindex>2</trackindex>
						<clipindex>19</clipindex>
					</link>
					<link>
						<linkclipref>408-13-01-03B54</linkclipref>
						<mediatype>audio</mediatype>
						<trackindex>3</trackindex>
						<clipindex>19</clipindex>
					</link>
					<link>
						<linkclipref>408-13-01-03B55</linkclipref>
						<mediatype>audio</mediatype>
						<trackindex>4</trackindex>
						<clipindex>19</clipindex>
					</link>
					<link>
						<linkclipref>408-13-01-03B56</linkclipref>
						<mediatype>audio</mediatype>
						<trackindex>5</trackindex>
						<clipindex>19</clipindex>
					</link>
					<link>
						<linkclipref>408-13-01-03B57</linkclipref>
						<mediatype>audio</mediatype>
						<trackindex>6</trackindex>
						<clipindex>19</clipindex>
					</link>
					<multiclip id="18"/>
					<itemhistory>
						<uuid>45C74AE5-5313-4761-9DFE-1B147EF6513E</uuid>
					</itemhistory>
				</clipitem>
				<clipitem id="408-13-03-05A27">
					<name>408-13-03-05A</name>
					<duration>2100</duration>
					<rate>
						<ntsc>FALSE</ntsc>
						<timebase>25</timebase>
					</rate>
					<in>1332</in>
					<out>1389</out>
					<start>2229</start>
					<end>2286</end>
					<subframeoffset>0</subframeoffset>
					<enabled>TRUE</enabled>
					<masterclipid>408-13-03-05A1</masterclipid>
					<syncoffset>0</syncoffset>
					<logginginfo>
						<scene/>
						<shottake/>
						<lognote/>
						<good>FALSE</good>
					</logginginfo>
					<labels>
						<label2/>
					</labels>
					<comments>
						<mastercomment1/>
						<mastercomment2/>
						<mastercomment3/>
						<mastercomment4/>
					</comments>
					<file id="MW-013-3T05 "/>
					<filter>
						<effect>
							<name>Audio Levels</name>
							<effectid>audiolevels</effectid>
							<effectcategory>audiolevels</effectcategory>
							<effecttype>audiolevels</effecttype>
							<mediatype>audio</mediatype>
							<parameter>
								<name>Level</name>
								<parameterid>level</parameterid>
								<valuemin>0</valuemin>
								<valuemax>3.98109</valuemax>
								<value>1</value>
							</parameter>
						</effect>
					</filter>
					<filter>
						<effect>
							<name>Audio Pan</name>
							<effectid>audiopan</effectid>
							<effectcategory>audiopan</effectcategory>
							<effecttype>audiopan</effecttype>
							<mediatype>audio</mediatype>
							<parameter>
								<name>Pan</name>
								<parameterid>pan</parameterid>
								<valuemin>-1</valuemin>
								<valuemax>1</valuemax>
								<value>0</value>
							</parameter>
						</effect>
					</filter>
					<sourcetrack>
						<mediatype>audio</mediatype>
						<trackindex>3</trackindex>
					</sourcetrack>
					<link>
						<linkclipref>408-13-03-05A24</linkclipref>
						<mediatype>video</mediatype>
						<trackindex>1</trackindex>
						<clipindex>21</clipindex>
					</link>
					<link>
						<linkclipref>408-13-03-05A25</linkclipref>
						<mediatype>audio</mediatype>
						<trackindex>1</trackindex>
						<clipindex>20</clipindex>
					</link>
					<link>
						<linkclipref>408-13-03-05A26</linkclipref>
						<mediatype>audio</mediatype>
						<trackindex>2</trackindex>
						<clipindex>20</clipindex>
					</link>
					<link>
						<linkclipref>408-13-03-05A27</linkclipref>
						<mediatype>audio</mediatype>
						<trackindex>3</trackindex>
						<clipindex>20</clipindex>
					</link>
					<link>
						<linkclipref>408-13-03-05A28</linkclipref>
						<mediatype>audio</mediatype>
						<trackindex>4</trackindex>
						<clipindex>20</clipindex>
					</link>
					<link>
						<linkclipref>408-13-03-05A29</linkclipref>
						<mediatype>audio</mediatype>
						<trackindex>5</trackindex>
						<clipindex>20</clipindex>
					</link>
					<link>
						<linkclipref>408-13-03-05A30</linkclipref>
						<mediatype>audio</mediatype>
						<trackindex>6</trackindex>
						<clipindex>20</clipindex>
					</link>
					<multiclip id="19"/>
					<itemhistory>
						<uuid>843C0E19-58C9-413A-9319-9897D7C5570C</uuid>
					</itemhistory>
				</clipitem>
				<clipitem id="408-13-01-03B61">
					<name>408-13-01-03B</name>
					<duration>3700</duration>
					<rate>
						<ntsc>FALSE</ntsc>
						<timebase>25</timebase>
					</rate>
					<in>2863</in>
					<out>2905</out>
					<start>2286</start>
					<end>2328</end>
					<enabled>TRUE</enabled>
					<masterclipid>408-13-01-03B2</masterclipid>
					<syncoffset>0</syncoffset>
					<logginginfo>
						<scene/>
						<shottake/>
						<lognote/>
						<good>FALSE</good>
					</logginginfo>
					<labels>
						<label2/>
					</labels>
					<comments>
						<mastercomment1/>
						<mastercomment2/>
						<mastercomment3/>
						<mastercomment4/>
					</comments>
					<file id="MW-013-1T03 "/>
					<filter>
						<effect>
							<name>Audio Levels</name>
							<effectid>audiolevels</effectid>
							<effectcategory>audiolevels</effectcategory>
							<effecttype>audiolevels</effecttype>
							<mediatype>audio</mediatype>
							<parameter>
								<name>Level</name>
								<parameterid>level</parameterid>
								<valuemin>0</valuemin>
								<valuemax>3.98109</valuemax>
								<value>1</value>
							</parameter>
						</effect>
					</filter>
					<filter>
						<effect>
							<name>Audio Pan</name>
							<effectid>audiopan</effectid>
							<effectcategory>audiopan</effectcategory>
							<effecttype>audiopan</effecttype>
							<mediatype>audio</mediatype>
							<parameter>
								<name>Pan</name>
								<parameterid>pan</parameterid>
								<valuemin>-1</valuemin>
								<valuemax>1</valuemax>
								<value>0</value>
							</parameter>
						</effect>
					</filter>
					<sourcetrack>
						<mediatype>audio</mediatype>
						<trackindex>3</trackindex>
					</sourcetrack>
					<link>
						<linkclipref>408-13-01-03B58</linkclipref>
						<mediatype>video</mediatype>
						<trackindex>1</trackindex>
						<clipindex>22</clipindex>
					</link>
					<link>
						<linkclipref>408-13-01-03B59</linkclipref>
						<mediatype>audio</mediatype>
						<trackindex>1</trackindex>
						<clipindex>21</clipindex>
					</link>
					<link>
						<linkclipref>408-13-01-03B60</linkclipref>
						<mediatype>audio</mediatype>
						<trackindex>2</trackindex>
						<clipindex>21</clipindex>
					</link>
					<link>
						<linkclipref>408-13-01-03B61</linkclipref>
						<mediatype>audio</mediatype>
						<trackindex>3</trackindex>
						<clipindex>21</clipindex>
					</link>
					<link>
						<linkclipref>408-13-01-03B62</linkclipref>
						<mediatype>audio</mediatype>
						<trackindex>4</trackindex>
						<clipindex>21</clipindex>
					</link>
					<link>
						<linkclipref>408-13-01-03B63</linkclipref>
						<mediatype>audio</mediatype>
						<trackindex>5</trackindex>
						<clipindex>21</clipindex>
					</link>
					<link>
						<linkclipref>408-13-01-03B64</linkclipref>
						<mediatype>audio</mediatype>
						<trackindex>6</trackindex>
						<clipindex>21</clipindex>
					</link>
					<multiclip id="20"/>
					<itemhistory>
						<uuid>F4294DAF-8AE0-49EE-92C8-95618093C76D</uuid>
					</itemhistory>
				</clipitem>
				<clipitem id="408-13-03-05B19">
					<name>408-13-03-05B</name>
					<duration>2100</duration>
					<rate>
						<ntsc>FALSE</ntsc>
						<timebase>25</timebase>
					</rate>
					<in>1466</in>
					<out>1723</out>
					<start>2328</start>
					<end>2585</end>
					<enabled>TRUE</enabled>
					<masterclipid>408-13-03-05B2</masterclipid>
					<syncoffset>0</syncoffset>
					<logginginfo>
						<scene/>
						<shottake/>
						<lognote/>
						<good>FALSE</good>
					</logginginfo>
					<labels>
						<label2/>
					</labels>
					<comments>
						<mastercomment1/>
						<mastercomment2/>
						<mastercomment3/>
						<mastercomment4/>
					</comments>
					<file id="MW-013-3T05 "/>
					<filter>
						<effect>
							<name>Audio Levels</name>
							<effectid>audiolevels</effectid>
							<effectcategory>audiolevels</effectcategory>
							<effecttype>audiolevels</effecttype>
							<mediatype>audio</mediatype>
							<parameter>
								<name>Level</name>
								<parameterid>level</parameterid>
								<valuemin>0</valuemin>
								<valuemax>3.98109</valuemax>
								<value>1</value>
							</parameter>
						</effect>
					</filter>
					<filter>
						<effect>
							<name>Audio Pan</name>
							<effectid>audiopan</effectid>
							<effectcategory>audiopan</effectcategory>
							<effecttype>audiopan</effecttype>
							<mediatype>audio</mediatype>
							<parameter>
								<name>Pan</name>
								<parameterid>pan</parameterid>
								<valuemin>-1</valuemin>
								<valuemax>1</valuemax>
								<value>0</value>
							</parameter>
						</effect>
					</filter>
					<sourcetrack>
						<mediatype>audio</mediatype>
						<trackindex>3</trackindex>
					</sourcetrack>
					<link>
						<linkclipref>408-13-03-05B16</linkclipref>
						<mediatype>video</mediatype>
						<trackindex>1</trackindex>
						<clipindex>23</clipindex>
					</link>
					<link>
						<linkclipref>408-13-03-05B17</linkclipref>
						<mediatype>audio</mediatype>
						<trackindex>1</trackindex>
						<clipindex>22</clipindex>
					</link>
					<link>
						<linkclipref>408-13-03-05B18</linkclipref>
						<mediatype>audio</mediatype>
						<trackindex>2</trackindex>
						<clipindex>22</clipindex>
					</link>
					<link>
						<linkclipref>408-13-03-05B19</linkclipref>
						<mediatype>audio</mediatype>
						<trackindex>3</trackindex>
						<clipindex>22</clipindex>
					</link>
					<link>
						<linkclipref>408-13-03-05B20</linkclipref>
						<mediatype>audio</mediatype>
						<trackindex>4</trackindex>
						<clipindex>22</clipindex>
					</link>
					<link>
						<linkclipref>408-13-03-05B21</linkclipref>
						<mediatype>audio</mediatype>
						<trackindex>5</trackindex>
						<clipindex>22</clipindex>
					</link>
					<link>
						<linkclipref>408-13-03-05B22</linkclipref>
						<mediatype>audio</mediatype>
						<trackindex>6</trackindex>
						<clipindex>22</clipindex>
					</link>
					<multiclip id="21"/>
					<itemhistory>
						<uuid>A3A0E5F1-BB73-4E3F-AC89-6F859FB18F44</uuid>
					</itemhistory>
				</clipitem>
				<clipitem id="408-13-01-03B68">
					<name>408-13-01-03B</name>
					<duration>3700</duration>
					<rate>
						<ntsc>FALSE</ntsc>
						<timebase>25</timebase>
					</rate>
					<in>3139</in>
					<out>3215</out>
					<start>2585</start>
					<end>2661</end>
					<enabled>TRUE</enabled>
					<masterclipid>408-13-01-03B2</masterclipid>
					<syncoffset>0</syncoffset>
					<logginginfo>
						<scene/>
						<shottake/>
						<lognote/>
						<good>FALSE</good>
					</logginginfo>
					<labels>
						<label2/>
					</labels>
					<comments>
						<mastercomment1/>
						<mastercomment2/>
						<mastercomment3/>
						<mastercomment4/>
					</comments>
					<file id="MW-013-1T03 "/>
					<filter>
						<effect>
							<name>Audio Levels</name>
							<effectid>audiolevels</effectid>
							<effectcategory>audiolevels</effectcategory>
							<effecttype>audiolevels</effecttype>
							<mediatype>audio</mediatype>
							<parameter>
								<name>Level</name>
								<parameterid>level</parameterid>
								<valuemin>0</valuemin>
								<valuemax>3.98109</valuemax>
								<value>1</value>
							</parameter>
						</effect>
					</filter>
					<filter>
						<effect>
							<name>Audio Pan</name>
							<effectid>audiopan</effectid>
							<effectcategory>audiopan</effectcategory>
							<effecttype>audiopan</effecttype>
							<mediatype>audio</mediatype>
							<parameter>
								<name>Pan</name>
								<parameterid>pan</parameterid>
								<valuemin>-1</valuemin>
								<valuemax>1</valuemax>
								<value>0</value>
							</parameter>
						</effect>
					</filter>
					<sourcetrack>
						<mediatype>audio</mediatype>
						<trackindex>3</trackindex>
					</sourcetrack>
					<link>
						<linkclipref>408-13-01-03B65</linkclipref>
						<mediatype>video</mediatype>
						<trackindex>1</trackindex>
						<clipindex>24</clipindex>
					</link>
					<link>
						<linkclipref>408-13-01-03B66</linkclipref>
						<mediatype>audio</mediatype>
						<trackindex>1</trackindex>
						<clipindex>23</clipindex>
					</link>
					<link>
						<linkclipref>408-13-01-03B67</linkclipref>
						<mediatype>audio</mediatype>
						<trackindex>2</trackindex>
						<clipindex>23</clipindex>
					</link>
					<link>
						<linkclipref>408-13-01-03B68</linkclipref>
						<mediatype>audio</mediatype>
						<trackindex>3</trackindex>
						<clipindex>23</clipindex>
					</link>
					<link>
						<linkclipref>408-13-01-03B69</linkclipref>
						<mediatype>audio</mediatype>
						<trackindex>4</trackindex>
						<clipindex>23</clipindex>
					</link>
					<link>
						<linkclipref>408-13-01-03B70</linkclipref>
						<mediatype>audio</mediatype>
						<trackindex>5</trackindex>
						<clipindex>23</clipindex>
					</link>
					<link>
						<linkclipref>408-13-01-03B71</linkclipref>
						<mediatype>audio</mediatype>
						<trackindex>6</trackindex>
						<clipindex>23</clipindex>
					</link>
					<multiclip id="22"/>
					<itemhistory>
						<uuid>1DF7BAEB-4E82-4966-8372-313A74655F95</uuid>
					</itemhistory>
				</clipitem>
				<clipitem id="408-13-01-03A27">
					<name>408-13-01-03A</name>
					<duration>3700</duration>
					<rate>
						<ntsc>FALSE</ntsc>
						<timebase>25</timebase>
					</rate>
					<in>3215</in>
					<out>3594</out>
					<start>2661</start>
					<end>3040</end>
					<enabled>TRUE</enabled>
					<masterclipid>408-13-01-03A1</masterclipid>
					<syncoffset>0</syncoffset>
					<logginginfo>
						<scene/>
						<shottake/>
						<lognote/>
						<good>FALSE</good>
					</logginginfo>
					<labels>
						<label2/>
					</labels>
					<comments>
						<mastercomment1/>
						<mastercomment2/>
						<mastercomment3/>
						<mastercomment4/>
					</comments>
					<file id="MW-013-1T03 "/>
					<filter>
						<effect>
							<name>Audio Levels</name>
							<effectid>audiolevels</effectid>
							<effectcategory>audiolevels</effectcategory>
							<effecttype>audiolevels</effecttype>
							<mediatype>audio</mediatype>
							<parameter>
								<name>Level</name>
								<parameterid>level</parameterid>
								<valuemin>0</valuemin>
								<valuemax>3.98109</valuemax>
								<value>1</value>
							</parameter>
						</effect>
					</filter>
					<filter>
						<effect>
							<name>Audio Pan</name>
							<effectid>audiopan</effectid>
							<effectcategory>audiopan</effectcategory>
							<effecttype>audiopan</effecttype>
							<mediatype>audio</mediatype>
							<parameter>
								<name>Pan</name>
								<parameterid>pan</parameterid>
								<valuemin>-1</valuemin>
								<valuemax>1</valuemax>
								<value>0</value>
							</parameter>
						</effect>
					</filter>
					<sourcetrack>
						<mediatype>audio</mediatype>
						<trackindex>3</trackindex>
					</sourcetrack>
					<link>
						<linkclipref>408-13-01-03A24</linkclipref>
						<mediatype>video</mediatype>
						<trackindex>1</trackindex>
						<clipindex>25</clipindex>
					</link>
					<link>
						<linkclipref>408-13-01-03A25</linkclipref>
						<mediatype>audio</mediatype>
						<trackindex>1</trackindex>
						<clipindex>24</clipindex>
					</link>
					<link>
						<linkclipref>408-13-01-03A26</linkclipref>
						<mediatype>audio</mediatype>
						<trackindex>2</trackindex>
						<clipindex>24</clipindex>
					</link>
					<link>
						<linkclipref>408-13-01-03A27</linkclipref>
						<mediatype>audio</mediatype>
						<trackindex>3</trackindex>
						<clipindex>24</clipindex>
					</link>
					<link>
						<linkclipref>408-13-01-03A28</linkclipref>
						<mediatype>audio</mediatype>
						<trackindex>4</trackindex>
						<clipindex>24</clipindex>
					</link>
					<link>
						<linkclipref>408-13-01-03A29</linkclipref>
						<mediatype>audio</mediatype>
						<trackindex>5</trackindex>
						<clipindex>24</clipindex>
					</link>
					<link>
						<linkclipref>408-13-01-03A30</linkclipref>
						<mediatype>audio</mediatype>
						<trackindex>6</trackindex>
						<clipindex>24</clipindex>
					</link>
					<multiclip id="23"/>
					<itemhistory>
						<uuid>EE2EB031-13B3-4D81-8D59-9D2D6EC23DC2</uuid>
					</itemhistory>
				</clipitem>
				<enabled>TRUE</enabled>
				<locked>FALSE</locked>
				<outputchannelindex>1</outputchannelindex>
			</track>
			<track>
				<clipitem id="408-13-01-03A5">
					<name>408-13-01-03A</name>
					<duration>3700</duration>
					<rate>
						<ntsc>FALSE</ntsc>
						<timebase>25</timebase>
					</rate>
					<in>485</in>
					<out>630</out>
					<start>59</start>
					<end>204</end>
					<subframeoffset>0</subframeoffset>
					<enabled>TRUE</enabled>
					<masterclipid>408-13-01-03A1</masterclipid>
					<syncoffset>0</syncoffset>
					<logginginfo>
						<scene/>
						<shottake/>
						<lognote/>
						<good>FALSE</good>
					</logginginfo>
					<labels>
						<label2/>
					</labels>
					<comments>
						<mastercomment1/>
						<mastercomment2/>
						<mastercomment3/>
						<mastercomment4/>
					</comments>
					<file id="MW-013-1T03 "/>
					<filter>
						<effect>
							<name>Audio Levels</name>
							<effectid>audiolevels</effectid>
							<effectcategory>audiolevels</effectcategory>
							<effecttype>audiolevels</effecttype>
							<mediatype>audio</mediatype>
							<parameter>
								<name>Level</name>
								<parameterid>level</parameterid>
								<valuemin>0</valuemin>
								<valuemax>3.98109</valuemax>
								<value>1</value>
							</parameter>
						</effect>
					</filter>
					<filter>
						<effect>
							<name>Audio Pan</name>
							<effectid>audiopan</effectid>
							<effectcategory>audiopan</effectcategory>
							<effecttype>audiopan</effecttype>
							<mediatype>audio</mediatype>
							<parameter>
								<name>Pan</name>
								<parameterid>pan</parameterid>
								<valuemin>-1</valuemin>
								<valuemax>1</valuemax>
								<value>0</value>
							</parameter>
						</effect>
					</filter>
					<sourcetrack>
						<mediatype>audio</mediatype>
						<trackindex>4</trackindex>
					</sourcetrack>
					<link>
						<linkclipref>408-13-01-03A</linkclipref>
						<mediatype>video</mediatype>
						<trackindex>1</trackindex>
						<clipindex>2</clipindex>
					</link>
					<link>
						<linkclipref>408-13-01-03A2</linkclipref>
						<mediatype>audio</mediatype>
						<trackindex>1</trackindex>
						<clipindex>1</clipindex>
					</link>
					<link>
						<linkclipref>408-13-01-03A3</linkclipref>
						<mediatype>audio</mediatype>
						<trackindex>2</trackindex>
						<clipindex>1</clipindex>
					</link>
					<link>
						<linkclipref>408-13-01-03A4</linkclipref>
						<mediatype>audio</mediatype>
						<trackindex>3</trackindex>
						<clipindex>1</clipindex>
					</link>
					<link>
						<linkclipref>408-13-01-03A5</linkclipref>
						<mediatype>audio</mediatype>
						<trackindex>4</trackindex>
						<clipindex>1</clipindex>
					</link>
					<link>
						<linkclipref>408-13-01-03A6</linkclipref>
						<mediatype>audio</mediatype>
						<trackindex>5</trackindex>
						<clipindex>1</clipindex>
					</link>
					<link>
						<linkclipref>408-13-01-03A7</linkclipref>
						<mediatype>audio</mediatype>
						<trackindex>6</trackindex>
						<clipindex>1</clipindex>
					</link>
					<multiclip id="27">
						<collapsed>FALSE</collapsed>
						<synctype>1</synctype>
						<angle>
							<activevideoangle>TRUE</activevideoangle>
							<activeaudioangle>TRUE</activeaudioangle>
							<clip id="408-13-01-03A8"/>
						</angle>
						<angle>
							<clip id="408-13-01-03B"/>
						</angle>
						<masterclipid>408-13-01-03A16</masterclipid>
					</multiclip>
					<itemhistory>
						<uuid>73FA478B-7B5E-4B61-8D8F-3319F8CD571E</uuid>
					</itemhistory>
				</clipitem>
				<clipitem id="408-13-01-03A21">
					<name>408-13-01-03A</name>
					<duration>3700</duration>
					<rate>
						<ntsc>FALSE</ntsc>
						<timebase>25</timebase>
					</rate>
					<in>627</in>
					<out>670</out>
					<start>212</start>
					<end>255</end>
					<subframeoffset>0</subframeoffset>
					<enabled>TRUE</enabled>
					<masterclipid>408-13-01-03A1</masterclipid>
					<syncoffset>0</syncoffset>
					<logginginfo>
						<scene/>
						<shottake/>
						<lognote/>
						<good>FALSE</good>
					</logginginfo>
					<labels>
						<label2/>
					</labels>
					<comments>
						<mastercomment1/>
						<mastercomment2/>
						<mastercomment3/>
						<mastercomment4/>
					</comments>
					<file id="MW-013-1T03 "/>
					<filter>
						<effect>
							<name>Audio Levels</name>
							<effectid>audiolevels</effectid>
							<effectcategory>audiolevels</effectcategory>
							<effecttype>audiolevels</effecttype>
							<mediatype>audio</mediatype>
							<parameter>
								<name>Level</name>
								<parameterid>level</parameterid>
								<valuemin>0</valuemin>
								<valuemax>3.98109</valuemax>
								<value>1</value>
							</parameter>
						</effect>
					</filter>
					<filter>
						<effect>
							<name>Audio Pan</name>
							<effectid>audiopan</effectid>
							<effectcategory>audiopan</effectcategory>
							<effecttype>audiopan</effecttype>
							<mediatype>audio</mediatype>
							<parameter>
								<name>Pan</name>
								<parameterid>pan</parameterid>
								<valuemin>-1</valuemin>
								<valuemax>1</valuemax>
								<value>0</value>
							</parameter>
						</effect>
					</filter>
					<sourcetrack>
						<mediatype>audio</mediatype>
						<trackindex>4</trackindex>
					</sourcetrack>
					<link>
						<linkclipref>408-13-01-03A17</linkclipref>
						<mediatype>video</mediatype>
						<trackindex>1</trackindex>
						<clipindex>3</clipindex>
					</link>
					<link>
						<linkclipref>408-13-01-03A18</linkclipref>
						<mediatype>audio</mediatype>
						<trackindex>1</trackindex>
						<clipindex>2</clipindex>
					</link>
					<link>
						<linkclipref>408-13-01-03A19</linkclipref>
						<mediatype>audio</mediatype>
						<trackindex>2</trackindex>
						<clipindex>2</clipindex>
					</link>
					<link>
						<linkclipref>408-13-01-03A20</linkclipref>
						<mediatype>audio</mediatype>
						<trackindex>3</trackindex>
						<clipindex>2</clipindex>
					</link>
					<link>
						<linkclipref>408-13-01-03A21</linkclipref>
						<mediatype>audio</mediatype>
						<trackindex>4</trackindex>
						<clipindex>2</clipindex>
					</link>
					<link>
						<linkclipref>408-13-01-03A22</linkclipref>
						<mediatype>audio</mediatype>
						<trackindex>5</trackindex>
						<clipindex>2</clipindex>
					</link>
					<link>
						<linkclipref>408-13-01-03A23</linkclipref>
						<mediatype>audio</mediatype>
						<trackindex>6</trackindex>
						<clipindex>2</clipindex>
					</link>
					<multiclip id="1"/>
					<itemhistory>
						<uuid>A80D090C-1153-4FD4-A0E0-83AFEC60D013</uuid>
					</itemhistory>
				</clipitem>
				<clipitem id="408-13-01-03B13">
					<name>408-13-01-03B</name>
					<duration>3700</duration>
					<rate>
						<ntsc>FALSE</ntsc>
						<timebase>25</timebase>
					</rate>
					<in>670</in>
					<out>785</out>
					<start>255</start>
					<end>370</end>
					<enabled>TRUE</enabled>
					<masterclipid>408-13-01-03B2</masterclipid>
					<syncoffset>0</syncoffset>
					<logginginfo>
						<scene/>
						<shottake/>
						<lognote/>
						<good>FALSE</good>
					</logginginfo>
					<labels>
						<label2/>
					</labels>
					<comments>
						<mastercomment1/>
						<mastercomment2/>
						<mastercomment3/>
						<mastercomment4/>
					</comments>
					<file id="MW-013-1T03 "/>
					<filter>
						<effect>
							<name>Audio Levels</name>
							<effectid>audiolevels</effectid>
							<effectcategory>audiolevels</effectcategory>
							<effecttype>audiolevels</effecttype>
							<mediatype>audio</mediatype>
							<parameter>
								<name>Level</name>
								<parameterid>level</parameterid>
								<valuemin>0</valuemin>
								<valuemax>3.98109</valuemax>
								<value>1</value>
							</parameter>
						</effect>
					</filter>
					<filter>
						<effect>
							<name>Audio Pan</name>
							<effectid>audiopan</effectid>
							<effectcategory>audiopan</effectcategory>
							<effecttype>audiopan</effecttype>
							<mediatype>audio</mediatype>
							<parameter>
								<name>Pan</name>
								<parameterid>pan</parameterid>
								<valuemin>-1</valuemin>
								<valuemax>1</valuemax>
								<value>0</value>
							</parameter>
						</effect>
					</filter>
					<sourcetrack>
						<mediatype>audio</mediatype>
						<trackindex>4</trackindex>
					</sourcetrack>
					<link>
						<linkclipref>408-13-01-03B9</linkclipref>
						<mediatype>video</mediatype>
						<trackindex>1</trackindex>
						<clipindex>4</clipindex>
					</link>
					<link>
						<linkclipref>408-13-01-03B10</linkclipref>
						<mediatype>audio</mediatype>
						<trackindex>1</trackindex>
						<clipindex>3</clipindex>
					</link>
					<link>
						<linkclipref>408-13-01-03B11</linkclipref>
						<mediatype>audio</mediatype>
						<trackindex>2</trackindex>
						<clipindex>3</clipindex>
					</link>
					<link>
						<linkclipref>408-13-01-03B12</linkclipref>
						<mediatype>audio</mediatype>
						<trackindex>3</trackindex>
						<clipindex>3</clipindex>
					</link>
					<link>
						<linkclipref>408-13-01-03B13</linkclipref>
						<mediatype>audio</mediatype>
						<trackindex>4</trackindex>
						<clipindex>3</clipindex>
					</link>
					<link>
						<linkclipref>408-13-01-03B14</linkclipref>
						<mediatype>audio</mediatype>
						<trackindex>5</trackindex>
						<clipindex>3</clipindex>
					</link>
					<link>
						<linkclipref>408-13-01-03B15</linkclipref>
						<mediatype>audio</mediatype>
						<trackindex>6</trackindex>
						<clipindex>3</clipindex>
					</link>
					<multiclip id="2"/>
					<itemhistory>
						<uuid>7EF3ADC5-73DE-46B2-BF59-765396309B6B</uuid>
					</itemhistory>
				</clipitem>
				<clipitem id="408-13-02-03B5">
					<name>408-13-02-03B</name>
					<duration>3750</duration>
					<rate>
						<ntsc>FALSE</ntsc>
						<timebase>25</timebase>
					</rate>
					<in>1017</in>
					<out>1119</out>
					<start>370</start>
					<end>472</end>
					<enabled>TRUE</enabled>
					<masterclipid>408-13-02-03B1</masterclipid>
					<syncoffset>0</syncoffset>
					<logginginfo>
						<scene/>
						<shottake/>
						<lognote/>
						<good>FALSE</good>
					</logginginfo>
					<labels>
						<label2/>
					</labels>
					<comments>
						<mastercomment1/>
						<mastercomment2/>
						<mastercomment3/>
						<mastercomment4/>
					</comments>
					<file id="MW-013-2T03 "/>
					<filter>
						<effect>
							<name>Audio Levels</name>
							<effectid>audiolevels</effectid>
							<effectcategory>audiolevels</effectcategory>
							<effecttype>audiolevels</effecttype>
							<mediatype>audio</mediatype>
							<parameter>
								<name>Level</name>
								<parameterid>level</parameterid>
								<valuemin>0</valuemin>
								<valuemax>3.98109</valuemax>
								<value>1</value>
							</parameter>
						</effect>
					</filter>
					<filter>
						<effect>
							<name>Audio Pan</name>
							<effectid>audiopan</effectid>
							<effectcategory>audiopan</effectcategory>
							<effecttype>audiopan</effecttype>
							<mediatype>audio</mediatype>
							<parameter>
								<name>Pan</name>
								<parameterid>pan</parameterid>
								<valuemin>-1</valuemin>
								<valuemax>1</valuemax>
								<value>0</value>
							</parameter>
						</effect>
					</filter>
					<sourcetrack>
						<mediatype>audio</mediatype>
						<trackindex>4</trackindex>
					</sourcetrack>
					<link>
						<linkclipref>408-13-02-03B</linkclipref>
						<mediatype>video</mediatype>
						<trackindex>1</trackindex>
						<clipindex>5</clipindex>
					</link>
					<link>
						<linkclipref>408-13-02-03B2</linkclipref>
						<mediatype>audio</mediatype>
						<trackindex>1</trackindex>
						<clipindex>4</clipindex>
					</link>
					<link>
						<linkclipref>408-13-02-03B3</linkclipref>
						<mediatype>audio</mediatype>
						<trackindex>2</trackindex>
						<clipindex>4</clipindex>
					</link>
					<link>
						<linkclipref>408-13-02-03B4</linkclipref>
						<mediatype>audio</mediatype>
						<trackindex>3</trackindex>
						<clipindex>4</clipindex>
					</link>
					<link>
						<linkclipref>408-13-02-03B5</linkclipref>
						<mediatype>audio</mediatype>
						<trackindex>4</trackindex>
						<clipindex>4</clipindex>
					</link>
					<link>
						<linkclipref>408-13-02-03B6</linkclipref>
						<mediatype>audio</mediatype>
						<trackindex>5</trackindex>
						<clipindex>4</clipindex>
					</link>
					<link>
						<linkclipref>408-13-02-03B7</linkclipref>
						<mediatype>audio</mediatype>
						<trackindex>6</trackindex>
						<clipindex>4</clipindex>
					</link>
					<multiclip id="3"/>
					<itemhistory>
						<uuid>89189C66-F3DE-4474-8E46-DD6483A2D7F9</uuid>
					</itemhistory>
				</clipitem>
				<clipitem id="408-13-01-03B20">
					<name>408-13-01-03B</name>
					<duration>3700</duration>
					<rate>
						<ntsc>FALSE</ntsc>
						<timebase>25</timebase>
					</rate>
					<in>862</in>
					<out>887</out>
					<start>472</start>
					<end>497</end>
					<enabled>TRUE</enabled>
					<masterclipid>408-13-01-03B2</masterclipid>
					<syncoffset>0</syncoffset>
					<logginginfo>
						<scene/>
						<shottake/>
						<lognote/>
						<good>FALSE</good>
					</logginginfo>
					<labels>
						<label2/>
					</labels>
					<comments>
						<mastercomment1/>
						<mastercomment2/>
						<mastercomment3/>
						<mastercomment4/>
					</comments>
					<file id="MW-013-1T03 "/>
					<filter>
						<effect>
							<name>Audio Levels</name>
							<effectid>audiolevels</effectid>
							<effectcategory>audiolevels</effectcategory>
							<effecttype>audiolevels</effecttype>
							<mediatype>audio</mediatype>
							<parameter>
								<name>Level</name>
								<parameterid>level</parameterid>
								<valuemin>0</valuemin>
								<valuemax>3.98109</valuemax>
								<value>1</value>
							</parameter>
						</effect>
					</filter>
					<filter>
						<effect>
							<name>Audio Pan</name>
							<effectid>audiopan</effectid>
							<effectcategory>audiopan</effectcategory>
							<effecttype>audiopan</effecttype>
							<mediatype>audio</mediatype>
							<parameter>
								<name>Pan</name>
								<parameterid>pan</parameterid>
								<valuemin>-1</valuemin>
								<valuemax>1</valuemax>
								<value>0</value>
							</parameter>
						</effect>
					</filter>
					<sourcetrack>
						<mediatype>audio</mediatype>
						<trackindex>4</trackindex>
					</sourcetrack>
					<link>
						<linkclipref>408-13-01-03B16</linkclipref>
						<mediatype>video</mediatype>
						<trackindex>1</trackindex>
						<clipindex>6</clipindex>
					</link>
					<link>
						<linkclipref>408-13-01-03B17</linkclipref>
						<mediatype>audio</mediatype>
						<trackindex>1</trackindex>
						<clipindex>5</clipindex>
					</link>
					<link>
						<linkclipref>408-13-01-03B18</linkclipref>
						<mediatype>audio</mediatype>
						<trackindex>2</trackindex>
						<clipindex>5</clipindex>
					</link>
					<link>
						<linkclipref>408-13-01-03B19</linkclipref>
						<mediatype>audio</mediatype>
						<trackindex>3</trackindex>
						<clipindex>5</clipindex>
					</link>
					<link>
						<linkclipref>408-13-01-03B20</linkclipref>
						<mediatype>audio</mediatype>
						<trackindex>4</trackindex>
						<clipindex>5</clipindex>
					</link>
					<link>
						<linkclipref>408-13-01-03B21</linkclipref>
						<mediatype>audio</mediatype>
						<trackindex>5</trackindex>
						<clipindex>5</clipindex>
					</link>
					<link>
						<linkclipref>408-13-01-03B22</linkclipref>
						<mediatype>audio</mediatype>
						<trackindex>6</trackindex>
						<clipindex>5</clipindex>
					</link>
					<multiclip id="4"/>
					<itemhistory>
						<uuid>147B60FD-531F-45CA-99B3-07C70E83433E</uuid>
					</itemhistory>
				</clipitem>
				<clipitem id="408-13-02-03B21">
					<name>408-13-02-03B</name>
					<duration>3750</duration>
					<rate>
						<ntsc>FALSE</ntsc>
						<timebase>25</timebase>
					</rate>
					<in>1138</in>
					<out>1263</out>
					<start>497</start>
					<end>622</end>
					<enabled>TRUE</enabled>
					<masterclipid>408-13-02-03B1</masterclipid>
					<syncoffset>0</syncoffset>
					<logginginfo>
						<scene/>
						<shottake/>
						<lognote/>
						<good>FALSE</good>
					</logginginfo>
					<labels>
						<label2/>
					</labels>
					<comments>
						<mastercomment1/>
						<mastercomment2/>
						<mastercomment3/>
						<mastercomment4/>
					</comments>
					<file id="MW-013-2T03 "/>
					<filter>
						<effect>
							<name>Audio Levels</name>
							<effectid>audiolevels</effectid>
							<effectcategory>audiolevels</effectcategory>
							<effecttype>audiolevels</effecttype>
							<mediatype>audio</mediatype>
							<parameter>
								<name>Level</name>
								<parameterid>level</parameterid>
								<valuemin>0</valuemin>
								<valuemax>3.98109</valuemax>
								<value>1</value>
							</parameter>
						</effect>
					</filter>
					<filter>
						<effect>
							<name>Audio Pan</name>
							<effectid>audiopan</effectid>
							<effectcategory>audiopan</effectcategory>
							<effecttype>audiopan</effecttype>
							<mediatype>audio</mediatype>
							<parameter>
								<name>Pan</name>
								<parameterid>pan</parameterid>
								<valuemin>-1</valuemin>
								<valuemax>1</valuemax>
								<value>0</value>
							</parameter>
						</effect>
					</filter>
					<sourcetrack>
						<mediatype>audio</mediatype>
						<trackindex>4</trackindex>
					</sourcetrack>
					<link>
						<linkclipref>408-13-02-03B17</linkclipref>
						<mediatype>video</mediatype>
						<trackindex>1</trackindex>
						<clipindex>7</clipindex>
					</link>
					<link>
						<linkclipref>408-13-02-03B18</linkclipref>
						<mediatype>audio</mediatype>
						<trackindex>1</trackindex>
						<clipindex>6</clipindex>
					</link>
					<link>
						<linkclipref>408-13-02-03B19</linkclipref>
						<mediatype>audio</mediatype>
						<trackindex>2</trackindex>
						<clipindex>6</clipindex>
					</link>
					<link>
						<linkclipref>408-13-02-03B20</linkclipref>
						<mediatype>audio</mediatype>
						<trackindex>3</trackindex>
						<clipindex>6</clipindex>
					</link>
					<link>
						<linkclipref>408-13-02-03B21</linkclipref>
						<mediatype>audio</mediatype>
						<trackindex>4</trackindex>
						<clipindex>6</clipindex>
					</link>
					<link>
						<linkclipref>408-13-02-03B22</linkclipref>
						<mediatype>audio</mediatype>
						<trackindex>5</trackindex>
						<clipindex>6</clipindex>
					</link>
					<link>
						<linkclipref>408-13-02-03B23</linkclipref>
						<mediatype>audio</mediatype>
						<trackindex>6</trackindex>
						<clipindex>6</clipindex>
					</link>
					<multiclip id="5"/>
					<itemhistory>
						<uuid>E82313C0-DA8E-4C34-95AF-FDE51B7C9081</uuid>
					</itemhistory>
				</clipitem>
				<clipitem id="408-13-01-03B27">
					<name>408-13-01-03B</name>
					<duration>3700</duration>
					<rate>
						<ntsc>FALSE</ntsc>
						<timebase>25</timebase>
					</rate>
					<in>999</in>
					<out>1058</out>
					<start>622</start>
					<end>681</end>
					<enabled>TRUE</enabled>
					<masterclipid>408-13-01-03B2</masterclipid>
					<syncoffset>0</syncoffset>
					<logginginfo>
						<scene/>
						<shottake/>
						<lognote/>
						<good>FALSE</good>
					</logginginfo>
					<labels>
						<label2/>
					</labels>
					<comments>
						<mastercomment1/>
						<mastercomment2/>
						<mastercomment3/>
						<mastercomment4/>
					</comments>
					<file id="MW-013-1T03 "/>
					<filter>
						<effect>
							<name>Audio Levels</name>
							<effectid>audiolevels</effectid>
							<effectcategory>audiolevels</effectcategory>
							<effecttype>audiolevels</effecttype>
							<mediatype>audio</mediatype>
							<parameter>
								<name>Level</name>
								<parameterid>level</parameterid>
								<valuemin>0</valuemin>
								<valuemax>3.98109</valuemax>
								<value>1</value>
							</parameter>
						</effect>
					</filter>
					<filter>
						<effect>
							<name>Audio Pan</name>
							<effectid>audiopan</effectid>
							<effectcategory>audiopan</effectcategory>
							<effecttype>audiopan</effecttype>
							<mediatype>audio</mediatype>
							<parameter>
								<name>Pan</name>
								<parameterid>pan</parameterid>
								<valuemin>-1</valuemin>
								<valuemax>1</valuemax>
								<value>0</value>
							</parameter>
						</effect>
					</filter>
					<sourcetrack>
						<mediatype>audio</mediatype>
						<trackindex>4</trackindex>
					</sourcetrack>
					<link>
						<linkclipref>408-13-01-03B23</linkclipref>
						<mediatype>video</mediatype>
						<trackindex>1</trackindex>
						<clipindex>8</clipindex>
					</link>
					<link>
						<linkclipref>408-13-01-03B24</linkclipref>
						<mediatype>audio</mediatype>
						<trackindex>1</trackindex>
						<clipindex>7</clipindex>
					</link>
					<link>
						<linkclipref>408-13-01-03B25</linkclipref>
						<mediatype>audio</mediatype>
						<trackindex>2</trackindex>
						<clipindex>7</clipindex>
					</link>
					<link>
						<linkclipref>408-13-01-03B26</linkclipref>
						<mediatype>audio</mediatype>
						<trackindex>3</trackindex>
						<clipindex>7</clipindex>
					</link>
					<link>
						<linkclipref>408-13-01-03B27</linkclipref>
						<mediatype>audio</mediatype>
						<trackindex>4</trackindex>
						<clipindex>7</clipindex>
					</link>
					<link>
						<linkclipref>408-13-01-03B28</linkclipref>
						<mediatype>audio</mediatype>
						<trackindex>5</trackindex>
						<clipindex>7</clipindex>
					</link>
					<link>
						<linkclipref>408-13-01-03B29</linkclipref>
						<mediatype>audio</mediatype>
						<trackindex>6</trackindex>
						<clipindex>7</clipindex>
					</link>
					<multiclip id="6"/>
					<itemhistory>
						<uuid>44107507-7D4D-45AB-854F-D58554116ACA</uuid>
					</itemhistory>
				</clipitem>
				<clipitem id="408-13-02-03B28">
					<name>408-13-02-03B</name>
					<duration>3750</duration>
					<rate>
						<ntsc>FALSE</ntsc>
						<timebase>25</timebase>
					</rate>
					<in>1317</in>
					<out>1528</out>
					<start>681</start>
					<end>892</end>
					<enabled>TRUE</enabled>
					<masterclipid>408-13-02-03B1</masterclipid>
					<syncoffset>0</syncoffset>
					<logginginfo>
						<scene/>
						<shottake/>
						<lognote/>
						<good>FALSE</good>
					</logginginfo>
					<labels>
						<label2/>
					</labels>
					<comments>
						<mastercomment1/>
						<mastercomment2/>
						<mastercomment3/>
						<mastercomment4/>
					</comments>
					<file id="MW-013-2T03 "/>
					<filter>
						<effect>
							<name>Audio Levels</name>
							<effectid>audiolevels</effectid>
							<effectcategory>audiolevels</effectcategory>
							<effecttype>audiolevels</effecttype>
							<mediatype>audio</mediatype>
							<parameter>
								<name>Level</name>
								<parameterid>level</parameterid>
								<valuemin>0</valuemin>
								<valuemax>3.98109</valuemax>
								<value>1</value>
							</parameter>
						</effect>
					</filter>
					<filter>
						<effect>
							<name>Audio Pan</name>
							<effectid>audiopan</effectid>
							<effectcategory>audiopan</effectcategory>
							<effecttype>audiopan</effecttype>
							<mediatype>audio</mediatype>
							<parameter>
								<name>Pan</name>
								<parameterid>pan</parameterid>
								<valuemin>-1</valuemin>
								<valuemax>1</valuemax>
								<value>0</value>
							</parameter>
						</effect>
					</filter>
					<sourcetrack>
						<mediatype>audio</mediatype>
						<trackindex>4</trackindex>
					</sourcetrack>
					<link>
						<linkclipref>408-13-02-03B24</linkclipref>
						<mediatype>video</mediatype>
						<trackindex>1</trackindex>
						<clipindex>9</clipindex>
					</link>
					<link>
						<linkclipref>408-13-02-03B25</linkclipref>
						<mediatype>audio</mediatype>
						<trackindex>1</trackindex>
						<clipindex>8</clipindex>
					</link>
					<link>
						<linkclipref>408-13-02-03B26</linkclipref>
						<mediatype>audio</mediatype>
						<trackindex>2</trackindex>
						<clipindex>8</clipindex>
					</link>
					<link>
						<linkclipref>408-13-02-03B27</linkclipref>
						<mediatype>audio</mediatype>
						<trackindex>3</trackindex>
						<clipindex>8</clipindex>
					</link>
					<link>
						<linkclipref>408-13-02-03B28</linkclipref>
						<mediatype>audio</mediatype>
						<trackindex>4</trackindex>
						<clipindex>8</clipindex>
					</link>
					<link>
						<linkclipref>408-13-02-03B29</linkclipref>
						<mediatype>audio</mediatype>
						<trackindex>5</trackindex>
						<clipindex>8</clipindex>
					</link>
					<link>
						<linkclipref>408-13-02-03B30</linkclipref>
						<mediatype>audio</mediatype>
						<trackindex>6</trackindex>
						<clipindex>8</clipindex>
					</link>
					<multiclip id="7"/>
					<itemhistory>
						<uuid>25A02AE8-3604-4F20-8833-04F4CF564969</uuid>
					</itemhistory>
				</clipitem>
				<clipitem id="408-13-01-03B34">
					<name>408-13-01-03B</name>
					<duration>3700</duration>
					<rate>
						<ntsc>FALSE</ntsc>
						<timebase>25</timebase>
					</rate>
					<in>1230</in>
					<out>1262</out>
					<start>892</start>
					<end>924</end>
					<enabled>TRUE</enabled>
					<masterclipid>408-13-01-03B2</masterclipid>
					<syncoffset>0</syncoffset>
					<logginginfo>
						<scene/>
						<shottake/>
						<lognote/>
						<good>FALSE</good>
					</logginginfo>
					<labels>
						<label2/>
					</labels>
					<comments>
						<mastercomment1/>
						<mastercomment2/>
						<mastercomment3/>
						<mastercomment4/>
					</comments>
					<file id="MW-013-1T03 "/>
					<filter>
						<effect>
							<name>Audio Levels</name>
							<effectid>audiolevels</effectid>
							<effectcategory>audiolevels</effectcategory>
							<effecttype>audiolevels</effecttype>
							<mediatype>audio</mediatype>
							<parameter>
								<name>Level</name>
								<parameterid>level</parameterid>
								<valuemin>0</valuemin>
								<valuemax>3.98109</valuemax>
								<value>1</value>
							</parameter>
						</effect>
					</filter>
					<filter>
						<effect>
							<name>Audio Pan</name>
							<effectid>audiopan</effectid>
							<effectcategory>audiopan</effectcategory>
							<effecttype>audiopan</effecttype>
							<mediatype>audio</mediatype>
							<parameter>
								<name>Pan</name>
								<parameterid>pan</parameterid>
								<valuemin>-1</valuemin>
								<valuemax>1</valuemax>
								<value>0</value>
							</parameter>
						</effect>
					</filter>
					<sourcetrack>
						<mediatype>audio</mediatype>
						<trackindex>4</trackindex>
					</sourcetrack>
					<link>
						<linkclipref>408-13-01-03B30</linkclipref>
						<mediatype>video</mediatype>
						<trackindex>1</trackindex>
						<clipindex>10</clipindex>
					</link>
					<link>
						<linkclipref>408-13-01-03B31</linkclipref>
						<mediatype>audio</mediatype>
						<trackindex>1</trackindex>
						<clipindex>9</clipindex>
					</link>
					<link>
						<linkclipref>408-13-01-03B32</linkclipref>
						<mediatype>audio</mediatype>
						<trackindex>2</trackindex>
						<clipindex>9</clipindex>
					</link>
					<link>
						<linkclipref>408-13-01-03B33</linkclipref>
						<mediatype>audio</mediatype>
						<trackindex>3</trackindex>
						<clipindex>9</clipindex>
					</link>
					<link>
						<linkclipref>408-13-01-03B34</linkclipref>
						<mediatype>audio</mediatype>
						<trackindex>4</trackindex>
						<clipindex>9</clipindex>
					</link>
					<link>
						<linkclipref>408-13-01-03B35</linkclipref>
						<mediatype>audio</mediatype>
						<trackindex>5</trackindex>
						<clipindex>9</clipindex>
					</link>
					<link>
						<linkclipref>408-13-01-03B36</linkclipref>
						<mediatype>audio</mediatype>
						<trackindex>6</trackindex>
						<clipindex>9</clipindex>
					</link>
					<multiclip id="8"/>
					<itemhistory>
						<uuid>D5E26719-EEF4-40D3-B106-AE0DC4520096</uuid>
					</itemhistory>
				</clipitem>
				<clipitem id="408-13-02-03B35">
					<name>408-13-02-03B</name>
					<duration>3750</duration>
					<rate>
						<ntsc>FALSE</ntsc>
						<timebase>25</timebase>
					</rate>
					<in>1569</in>
					<out>1862</out>
					<start>924</start>
					<end>1217</end>
					<subframeoffset>0</subframeoffset>
					<enabled>TRUE</enabled>
					<masterclipid>408-13-02-03B1</masterclipid>
					<syncoffset>0</syncoffset>
					<logginginfo>
						<scene/>
						<shottake/>
						<lognote/>
						<good>FALSE</good>
					</logginginfo>
					<labels>
						<label2/>
					</labels>
					<comments>
						<mastercomment1/>
						<mastercomment2/>
						<mastercomment3/>
						<mastercomment4/>
					</comments>
					<file id="MW-013-2T03 "/>
					<filter>
						<effect>
							<name>Audio Levels</name>
							<effectid>audiolevels</effectid>
							<effectcategory>audiolevels</effectcategory>
							<effecttype>audiolevels</effecttype>
							<mediatype>audio</mediatype>
							<parameter>
								<name>Level</name>
								<parameterid>level</parameterid>
								<valuemin>0</valuemin>
								<valuemax>3.98109</valuemax>
								<value>1</value>
							</parameter>
						</effect>
					</filter>
					<filter>
						<effect>
							<name>Audio Pan</name>
							<effectid>audiopan</effectid>
							<effectcategory>audiopan</effectcategory>
							<effecttype>audiopan</effecttype>
							<mediatype>audio</mediatype>
							<parameter>
								<name>Pan</name>
								<parameterid>pan</parameterid>
								<valuemin>-1</valuemin>
								<valuemax>1</valuemax>
								<value>0</value>
							</parameter>
						</effect>
					</filter>
					<sourcetrack>
						<mediatype>audio</mediatype>
						<trackindex>4</trackindex>
					</sourcetrack>
					<link>
						<linkclipref>408-13-02-03B31</linkclipref>
						<mediatype>video</mediatype>
						<trackindex>1</trackindex>
						<clipindex>11</clipindex>
					</link>
					<link>
						<linkclipref>408-13-02-03B32</linkclipref>
						<mediatype>audio</mediatype>
						<trackindex>1</trackindex>
						<clipindex>10</clipindex>
					</link>
					<link>
						<linkclipref>408-13-02-03B33</linkclipref>
						<mediatype>audio</mediatype>
						<trackindex>2</trackindex>
						<clipindex>10</clipindex>
					</link>
					<link>
						<linkclipref>408-13-02-03B34</linkclipref>
						<mediatype>audio</mediatype>
						<trackindex>3</trackindex>
						<clipindex>10</clipindex>
					</link>
					<link>
						<linkclipref>408-13-02-03B35</linkclipref>
						<mediatype>audio</mediatype>
						<trackindex>4</trackindex>
						<clipindex>10</clipindex>
					</link>
					<link>
						<linkclipref>408-13-02-03B36</linkclipref>
						<mediatype>audio</mediatype>
						<trackindex>5</trackindex>
						<clipindex>10</clipindex>
					</link>
					<link>
						<linkclipref>408-13-02-03B37</linkclipref>
						<mediatype>audio</mediatype>
						<trackindex>6</trackindex>
						<clipindex>10</clipindex>
					</link>
					<multiclip id="9"/>
					<itemhistory>
						<uuid>4ED96AEF-C5DB-4095-9A3B-9D596DEEAFC7</uuid>
					</itemhistory>
				</clipitem>
				<clipitem id="408-13-01-03B41">
					<name>408-13-01-03B</name>
					<duration>3700</duration>
					<rate>
						<ntsc>FALSE</ntsc>
						<timebase>25</timebase>
					</rate>
					<in>1523</in>
					<out>1591</out>
					<start>1217</start>
					<end>1285</end>
					<enabled>TRUE</enabled>
					<masterclipid>408-13-01-03B2</masterclipid>
					<syncoffset>0</syncoffset>
					<logginginfo>
						<scene/>
						<shottake/>
						<lognote/>
						<good>FALSE</good>
					</logginginfo>
					<labels>
						<label2/>
					</labels>
					<comments>
						<mastercomment1/>
						<mastercomment2/>
						<mastercomment3/>
						<mastercomment4/>
					</comments>
					<file id="MW-013-1T03 "/>
					<filter>
						<effect>
							<name>Audio Levels</name>
							<effectid>audiolevels</effectid>
							<effectcategory>audiolevels</effectcategory>
							<effecttype>audiolevels</effecttype>
							<mediatype>audio</mediatype>
							<parameter>
								<name>Level</name>
								<parameterid>level</parameterid>
								<valuemin>0</valuemin>
								<valuemax>3.98109</valuemax>
								<value>1</value>
							</parameter>
						</effect>
					</filter>
					<filter>
						<effect>
							<name>Audio Pan</name>
							<effectid>audiopan</effectid>
							<effectcategory>audiopan</effectcategory>
							<effecttype>audiopan</effecttype>
							<mediatype>audio</mediatype>
							<parameter>
								<name>Pan</name>
								<parameterid>pan</parameterid>
								<valuemin>-1</valuemin>
								<valuemax>1</valuemax>
								<value>0</value>
							</parameter>
						</effect>
					</filter>
					<sourcetrack>
						<mediatype>audio</mediatype>
						<trackindex>4</trackindex>
					</sourcetrack>
					<link>
						<linkclipref>408-13-01-03B37</linkclipref>
						<mediatype>video</mediatype>
						<trackindex>1</trackindex>
						<clipindex>12</clipindex>
					</link>
					<link>
						<linkclipref>408-13-01-03B38</linkclipref>
						<mediatype>audio</mediatype>
						<trackindex>1</trackindex>
						<clipindex>11</clipindex>
					</link>
					<link>
						<linkclipref>408-13-01-03B39</linkclipref>
						<mediatype>audio</mediatype>
						<trackindex>2</trackindex>
						<clipindex>11</clipindex>
					</link>
					<link>
						<linkclipref>408-13-01-03B40</linkclipref>
						<mediatype>audio</mediatype>
						<trackindex>3</trackindex>
						<clipindex>11</clipindex>
					</link>
					<link>
						<linkclipref>408-13-01-03B41</linkclipref>
						<mediatype>audio</mediatype>
						<trackindex>4</trackindex>
						<clipindex>11</clipindex>
					</link>
					<link>
						<linkclipref>408-13-01-03B42</linkclipref>
						<mediatype>audio</mediatype>
						<trackindex>5</trackindex>
						<clipindex>11</clipindex>
					</link>
					<link>
						<linkclipref>408-13-01-03B43</linkclipref>
						<mediatype>audio</mediatype>
						<trackindex>6</trackindex>
						<clipindex>11</clipindex>
					</link>
					<multiclip id="10"/>
					<itemhistory>
						<uuid>39BDE1D1-6CDE-4151-8B17-D1ABA4B27557</uuid>
					</itemhistory>
				</clipitem>
				<clipitem id="408-13-02-03B42">
					<name>408-13-02-03B</name>
					<duration>3750</duration>
					<rate>
						<ntsc>FALSE</ntsc>
						<timebase>25</timebase>
					</rate>
					<in>1923</in>
					<out>2018</out>
					<start>1285</start>
					<end>1380</end>
					<subframeoffset>0</subframeoffset>
					<enabled>TRUE</enabled>
					<masterclipid>408-13-02-03B1</masterclipid>
					<syncoffset>0</syncoffset>
					<logginginfo>
						<scene/>
						<shottake/>
						<lognote/>
						<good>FALSE</good>
					</logginginfo>
					<labels>
						<label2/>
					</labels>
					<comments>
						<mastercomment1/>
						<mastercomment2/>
						<mastercomment3/>
						<mastercomment4/>
					</comments>
					<file id="MW-013-2T03 "/>
					<filter>
						<effect>
							<name>Audio Levels</name>
							<effectid>audiolevels</effectid>
							<effectcategory>audiolevels</effectcategory>
							<effecttype>audiolevels</effecttype>
							<mediatype>audio</mediatype>
							<parameter>
								<name>Level</name>
								<parameterid>level</parameterid>
								<valuemin>0</valuemin>
								<valuemax>3.98109</valuemax>
								<value>1</value>
							</parameter>
						</effect>
					</filter>
					<filter>
						<effect>
							<name>Audio Pan</name>
							<effectid>audiopan</effectid>
							<effectcategory>audiopan</effectcategory>
							<effecttype>audiopan</effecttype>
							<mediatype>audio</mediatype>
							<parameter>
								<name>Pan</name>
								<parameterid>pan</parameterid>
								<valuemin>-1</valuemin>
								<valuemax>1</valuemax>
								<value>0</value>
							</parameter>
						</effect>
					</filter>
					<sourcetrack>
						<mediatype>audio</mediatype>
						<trackindex>4</trackindex>
					</sourcetrack>
					<link>
						<linkclipref>408-13-02-03B38</linkclipref>
						<mediatype>video</mediatype>
						<trackindex>1</trackindex>
						<clipindex>13</clipindex>
					</link>
					<link>
						<linkclipref>408-13-02-03B39</linkclipref>
						<mediatype>audio</mediatype>
						<trackindex>1</trackindex>
						<clipindex>12</clipindex>
					</link>
					<link>
						<linkclipref>408-13-02-03B40</linkclipref>
						<mediatype>audio</mediatype>
						<trackindex>2</trackindex>
						<clipindex>12</clipindex>
					</link>
					<link>
						<linkclipref>408-13-02-03B41</linkclipref>
						<mediatype>audio</mediatype>
						<trackindex>3</trackindex>
						<clipindex>12</clipindex>
					</link>
					<link>
						<linkclipref>408-13-02-03B42</linkclipref>
						<mediatype>audio</mediatype>
						<trackindex>4</trackindex>
						<clipindex>12</clipindex>
					</link>
					<link>
						<linkclipref>408-13-02-03B43</linkclipref>
						<mediatype>audio</mediatype>
						<trackindex>5</trackindex>
						<clipindex>12</clipindex>
					</link>
					<link>
						<linkclipref>408-13-02-03B44</linkclipref>
						<mediatype>audio</mediatype>
						<trackindex>6</trackindex>
						<clipindex>12</clipindex>
					</link>
					<multiclip id="11"/>
					<itemhistory>
						<uuid>C880A38F-75D5-43A4-805E-5CCFA4261708</uuid>
					</itemhistory>
				</clipitem>
				<clipitem id="408-13-03-05A5">
					<name>408-13-03-05A</name>
					<duration>2100</duration>
					<rate>
						<ntsc>FALSE</ntsc>
						<timebase>25</timebase>
					</rate>
					<in>497</in>
					<out>608</out>
					<start>1380</start>
					<end>1491</end>
					<subframeoffset>0</subframeoffset>
					<enabled>TRUE</enabled>
					<masterclipid>408-13-03-05A1</masterclipid>
					<syncoffset>0</syncoffset>
					<logginginfo>
						<scene/>
						<shottake/>
						<lognote/>
						<good>FALSE</good>
					</logginginfo>
					<labels>
						<label2/>
					</labels>
					<comments>
						<mastercomment1/>
						<mastercomment2/>
						<mastercomment3/>
						<mastercomment4/>
					</comments>
					<file id="MW-013-3T05 "/>
					<filter>
						<effect>
							<name>Audio Levels</name>
							<effectid>audiolevels</effectid>
							<effectcategory>audiolevels</effectcategory>
							<effecttype>audiolevels</effecttype>
							<mediatype>audio</mediatype>
							<parameter>
								<name>Level</name>
								<parameterid>level</parameterid>
								<valuemin>0</valuemin>
								<valuemax>3.98109</valuemax>
								<value>1</value>
							</parameter>
						</effect>
					</filter>
					<filter>
						<effect>
							<name>Audio Pan</name>
							<effectid>audiopan</effectid>
							<effectcategory>audiopan</effectcategory>
							<effecttype>audiopan</effecttype>
							<mediatype>audio</mediatype>
							<parameter>
								<name>Pan</name>
								<parameterid>pan</parameterid>
								<valuemin>-1</valuemin>
								<valuemax>1</valuemax>
								<value>0</value>
							</parameter>
						</effect>
					</filter>
					<sourcetrack>
						<mediatype>audio</mediatype>
						<trackindex>4</trackindex>
					</sourcetrack>
					<link>
						<linkclipref>408-13-03-05A</linkclipref>
						<mediatype>video</mediatype>
						<trackindex>1</trackindex>
						<clipindex>14</clipindex>
					</link>
					<link>
						<linkclipref>408-13-03-05A2</linkclipref>
						<mediatype>audio</mediatype>
						<trackindex>1</trackindex>
						<clipindex>13</clipindex>
					</link>
					<link>
						<linkclipref>408-13-03-05A3</linkclipref>
						<mediatype>audio</mediatype>
						<trackindex>2</trackindex>
						<clipindex>13</clipindex>
					</link>
					<link>
						<linkclipref>408-13-03-05A4</linkclipref>
						<mediatype>audio</mediatype>
						<trackindex>3</trackindex>
						<clipindex>13</clipindex>
					</link>
					<link>
						<linkclipref>408-13-03-05A5</linkclipref>
						<mediatype>audio</mediatype>
						<trackindex>4</trackindex>
						<clipindex>13</clipindex>
					</link>
					<link>
						<linkclipref>408-13-03-05A6</linkclipref>
						<mediatype>audio</mediatype>
						<trackindex>5</trackindex>
						<clipindex>13</clipindex>
					</link>
					<link>
						<linkclipref>408-13-03-05A7</linkclipref>
						<mediatype>audio</mediatype>
						<trackindex>6</trackindex>
						<clipindex>13</clipindex>
					</link>
					<multiclip id="12"/>
					<itemhistory>
						<uuid>F5F89E66-C1D3-4F34-820C-45D38F84053A</uuid>
					</itemhistory>
				</clipitem>
				<clipitem id="408-13-03-05B13">
					<name>408-13-03-05B</name>
					<duration>2100</duration>
					<rate>
						<ntsc>FALSE</ntsc>
						<timebase>25</timebase>
					</rate>
					<in>608</in>
					<out>690</out>
					<start>1491</start>
					<end>1573</end>
					<enabled>TRUE</enabled>
					<masterclipid>408-13-03-05B2</masterclipid>
					<syncoffset>0</syncoffset>
					<logginginfo>
						<scene/>
						<shottake/>
						<lognote/>
						<good>FALSE</good>
					</logginginfo>
					<labels>
						<label2/>
					</labels>
					<comments>
						<mastercomment1/>
						<mastercomment2/>
						<mastercomment3/>
						<mastercomment4/>
					</comments>
					<file id="MW-013-3T05 "/>
					<filter>
						<effect>
							<name>Audio Levels</name>
							<effectid>audiolevels</effectid>
							<effectcategory>audiolevels</effectcategory>
							<effecttype>audiolevels</effecttype>
							<mediatype>audio</mediatype>
							<parameter>
								<name>Level</name>
								<parameterid>level</parameterid>
								<valuemin>0</valuemin>
								<valuemax>3.98109</valuemax>
								<value>1</value>
							</parameter>
						</effect>
					</filter>
					<filter>
						<effect>
							<name>Audio Pan</name>
							<effectid>audiopan</effectid>
							<effectcategory>audiopan</effectcategory>
							<effecttype>audiopan</effecttype>
							<mediatype>audio</mediatype>
							<parameter>
								<name>Pan</name>
								<parameterid>pan</parameterid>
								<valuemin>-1</valuemin>
								<valuemax>1</valuemax>
								<value>0</value>
							</parameter>
						</effect>
					</filter>
					<sourcetrack>
						<mediatype>audio</mediatype>
						<trackindex>4</trackindex>
					</sourcetrack>
					<link>
						<linkclipref>408-13-03-05B9</linkclipref>
						<mediatype>video</mediatype>
						<trackindex>1</trackindex>
						<clipindex>15</clipindex>
					</link>
					<link>
						<linkclipref>408-13-03-05B10</linkclipref>
						<mediatype>audio</mediatype>
						<trackindex>1</trackindex>
						<clipindex>14</clipindex>
					</link>
					<link>
						<linkclipref>408-13-03-05B11</linkclipref>
						<mediatype>audio</mediatype>
						<trackindex>2</trackindex>
						<clipindex>14</clipindex>
					</link>
					<link>
						<linkclipref>408-13-03-05B12</linkclipref>
						<mediatype>audio</mediatype>
						<trackindex>3</trackindex>
						<clipindex>14</clipindex>
					</link>
					<link>
						<linkclipref>408-13-03-05B13</linkclipref>
						<mediatype>audio</mediatype>
						<trackindex>4</trackindex>
						<clipindex>14</clipindex>
					</link>
					<link>
						<linkclipref>408-13-03-05B14</linkclipref>
						<mediatype>audio</mediatype>
						<trackindex>5</trackindex>
						<clipindex>14</clipindex>
					</link>
					<link>
						<linkclipref>408-13-03-05B15</linkclipref>
						<mediatype>audio</mediatype>
						<trackindex>6</trackindex>
						<clipindex>14</clipindex>
					</link>
					<multiclip id="13"/>
					<itemhistory>
						<uuid>776DC5CC-9B65-40CD-87C4-AB0A362767CE</uuid>
					</itemhistory>
				</clipitem>
				<clipitem id="408-13-03-05A21">
					<name>408-13-03-05A</name>
					<duration>2100</duration>
					<rate>
						<ntsc>FALSE</ntsc>
						<timebase>25</timebase>
					</rate>
					<in>690</in>
					<out>973</out>
					<start>1573</start>
					<end>1856</end>
					<enabled>TRUE</enabled>
					<masterclipid>408-13-03-05A1</masterclipid>
					<syncoffset>0</syncoffset>
					<logginginfo>
						<scene/>
						<shottake/>
						<lognote/>
						<good>FALSE</good>
					</logginginfo>
					<labels>
						<label2/>
					</labels>
					<comments>
						<mastercomment1/>
						<mastercomment2/>
						<mastercomment3/>
						<mastercomment4/>
					</comments>
					<file id="MW-013-3T05 "/>
					<filter>
						<effect>
							<name>Audio Levels</name>
							<effectid>audiolevels</effectid>
							<effectcategory>audiolevels</effectcategory>
							<effecttype>audiolevels</effecttype>
							<mediatype>audio</mediatype>
							<parameter>
								<name>Level</name>
								<parameterid>level</parameterid>
								<valuemin>0</valuemin>
								<valuemax>3.98109</valuemax>
								<value>1</value>
							</parameter>
						</effect>
					</filter>
					<filter>
						<effect>
							<name>Audio Pan</name>
							<effectid>audiopan</effectid>
							<effectcategory>audiopan</effectcategory>
							<effecttype>audiopan</effecttype>
							<mediatype>audio</mediatype>
							<parameter>
								<name>Pan</name>
								<parameterid>pan</parameterid>
								<valuemin>-1</valuemin>
								<valuemax>1</valuemax>
								<value>0</value>
							</parameter>
						</effect>
					</filter>
					<sourcetrack>
						<mediatype>audio</mediatype>
						<trackindex>4</trackindex>
					</sourcetrack>
					<link>
						<linkclipref>408-13-03-05A17</linkclipref>
						<mediatype>video</mediatype>
						<trackindex>1</trackindex>
						<clipindex>16</clipindex>
					</link>
					<link>
						<linkclipref>408-13-03-05A18</linkclipref>
						<mediatype>audio</mediatype>
						<trackindex>1</trackindex>
						<clipindex>15</clipindex>
					</link>
					<link>
						<linkclipref>408-13-03-05A19</linkclipref>
						<mediatype>audio</mediatype>
						<trackindex>2</trackindex>
						<clipindex>15</clipindex>
					</link>
					<link>
						<linkclipref>408-13-03-05A20</linkclipref>
						<mediatype>audio</mediatype>
						<trackindex>3</trackindex>
						<clipindex>15</clipindex>
					</link>
					<link>
						<linkclipref>408-13-03-05A21</linkclipref>
						<mediatype>audio</mediatype>
						<trackindex>4</trackindex>
						<clipindex>15</clipindex>
					</link>
					<link>
						<linkclipref>408-13-03-05A22</linkclipref>
						<mediatype>audio</mediatype>
						<trackindex>5</trackindex>
						<clipindex>15</clipindex>
					</link>
					<link>
						<linkclipref>408-13-03-05A23</linkclipref>
						<mediatype>audio</mediatype>
						<trackindex>6</trackindex>
						<clipindex>15</clipindex>
					</link>
					<multiclip id="14"/>
					<itemhistory>
						<uuid>EA7C0DA9-697E-4783-BC3F-FA2B62DE4122</uuid>
					</itemhistory>
				</clipitem>
				<clipitem id="408-13-02-03B49">
					<name>408-13-02-03B</name>
					<duration>3750</duration>
					<rate>
						<ntsc>FALSE</ntsc>
						<timebase>25</timebase>
					</rate>
					<in>2491</in>
					<out>2562</out>
					<start>1856</start>
					<end>1927</end>
					<enabled>TRUE</enabled>
					<masterclipid>408-13-02-03B1</masterclipid>
					<syncoffset>0</syncoffset>
					<logginginfo>
						<scene/>
						<shottake/>
						<lognote/>
						<good>FALSE</good>
					</logginginfo>
					<labels>
						<label2/>
					</labels>
					<comments>
						<mastercomment1/>
						<mastercomment2/>
						<mastercomment3/>
						<mastercomment4/>
					</comments>
					<file id="MW-013-2T03 "/>
					<filter>
						<effect>
							<name>Audio Levels</name>
							<effectid>audiolevels</effectid>
							<effectcategory>audiolevels</effectcategory>
							<effecttype>audiolevels</effecttype>
							<mediatype>audio</mediatype>
							<parameter>
								<name>Level</name>
								<parameterid>level</parameterid>
								<valuemin>0</valuemin>
								<valuemax>3.98109</valuemax>
								<value>1</value>
							</parameter>
						</effect>
					</filter>
					<filter>
						<effect>
							<name>Audio Pan</name>
							<effectid>audiopan</effectid>
							<effectcategory>audiopan</effectcategory>
							<effecttype>audiopan</effecttype>
							<mediatype>audio</mediatype>
							<parameter>
								<name>Pan</name>
								<parameterid>pan</parameterid>
								<valuemin>-1</valuemin>
								<valuemax>1</valuemax>
								<value>0</value>
							</parameter>
						</effect>
					</filter>
					<sourcetrack>
						<mediatype>audio</mediatype>
						<trackindex>4</trackindex>
					</sourcetrack>
					<link>
						<linkclipref>408-13-02-03B45</linkclipref>
						<mediatype>video</mediatype>
						<trackindex>1</trackindex>
						<clipindex>17</clipindex>
					</link>
					<link>
						<linkclipref>408-13-02-03B46</linkclipref>
						<mediatype>audio</mediatype>
						<trackindex>1</trackindex>
						<clipindex>16</clipindex>
					</link>
					<link>
						<linkclipref>408-13-02-03B47</linkclipref>
						<mediatype>audio</mediatype>
						<trackindex>2</trackindex>
						<clipindex>16</clipindex>
					</link>
					<link>
						<linkclipref>408-13-02-03B48</linkclipref>
						<mediatype>audio</mediatype>
						<trackindex>3</trackindex>
						<clipindex>16</clipindex>
					</link>
					<link>
						<linkclipref>408-13-02-03B49</linkclipref>
						<mediatype>audio</mediatype>
						<trackindex>4</trackindex>
						<clipindex>16</clipindex>
					</link>
					<link>
						<linkclipref>408-13-02-03B50</linkclipref>
						<mediatype>audio</mediatype>
						<trackindex>5</trackindex>
						<clipindex>16</clipindex>
					</link>
					<link>
						<linkclipref>408-13-02-03B51</linkclipref>
						<mediatype>audio</mediatype>
						<trackindex>6</trackindex>
						<clipindex>16</clipindex>
					</link>
					<multiclip id="15"/>
					<itemhistory>
						<uuid>44A43445-2BCE-4CB7-80A9-F9193B3BA0B4</uuid>
					</itemhistory>
				</clipitem>
				<clipitem id="408-13-01-03B48">
					<name>408-13-01-03B</name>
					<duration>3700</duration>
					<rate>
						<ntsc>FALSE</ntsc>
						<timebase>25</timebase>
					</rate>
					<in>2529</in>
					<out>2572</out>
					<start>1927</start>
					<end>1970</end>
					<enabled>TRUE</enabled>
					<masterclipid>408-13-01-03B2</masterclipid>
					<syncoffset>0</syncoffset>
					<logginginfo>
						<scene/>
						<shottake/>
						<lognote/>
						<good>FALSE</good>
					</logginginfo>
					<labels>
						<label2/>
					</labels>
					<comments>
						<mastercomment1/>
						<mastercomment2/>
						<mastercomment3/>
						<mastercomment4/>
					</comments>
					<file id="MW-013-1T03 "/>
					<filter>
						<effect>
							<name>Audio Levels</name>
							<effectid>audiolevels</effectid>
							<effectcategory>audiolevels</effectcategory>
							<effecttype>audiolevels</effecttype>
							<mediatype>audio</mediatype>
							<parameter>
								<name>Level</name>
								<parameterid>level</parameterid>
								<valuemin>0</valuemin>
								<valuemax>3.98109</valuemax>
								<value>1</value>
							</parameter>
						</effect>
					</filter>
					<filter>
						<effect>
							<name>Audio Pan</name>
							<effectid>audiopan</effectid>
							<effectcategory>audiopan</effectcategory>
							<effecttype>audiopan</effecttype>
							<mediatype>audio</mediatype>
							<parameter>
								<name>Pan</name>
								<parameterid>pan</parameterid>
								<valuemin>-1</valuemin>
								<valuemax>1</valuemax>
								<value>0</value>
							</parameter>
						</effect>
					</filter>
					<sourcetrack>
						<mediatype>audio</mediatype>
						<trackindex>4</trackindex>
					</sourcetrack>
					<link>
						<linkclipref>408-13-01-03B44</linkclipref>
						<mediatype>video</mediatype>
						<trackindex>1</trackindex>
						<clipindex>18</clipindex>
					</link>
					<link>
						<linkclipref>408-13-01-03B45</linkclipref>
						<mediatype>audio</mediatype>
						<trackindex>1</trackindex>
						<clipindex>17</clipindex>
					</link>
					<link>
						<linkclipref>408-13-01-03B46</linkclipref>
						<mediatype>audio</mediatype>
						<trackindex>2</trackindex>
						<clipindex>17</clipindex>
					</link>
					<link>
						<linkclipref>408-13-01-03B47</linkclipref>
						<mediatype>audio</mediatype>
						<trackindex>3</trackindex>
						<clipindex>17</clipindex>
					</link>
					<link>
						<linkclipref>408-13-01-03B48</linkclipref>
						<mediatype>audio</mediatype>
						<trackindex>4</trackindex>
						<clipindex>17</clipindex>
					</link>
					<link>
						<linkclipref>408-13-01-03B49</linkclipref>
						<mediatype>audio</mediatype>
						<trackindex>5</trackindex>
						<clipindex>17</clipindex>
					</link>
					<link>
						<linkclipref>408-13-01-03B50</linkclipref>
						<mediatype>audio</mediatype>
						<trackindex>6</trackindex>
						<clipindex>17</clipindex>
					</link>
					<multiclip id="16"/>
					<itemhistory>
						<uuid>81A79F12-27F6-4671-9576-9D82067239EF</uuid>
					</itemhistory>
				</clipitem>
				<clipitem id="408-13-02-03B56">
					<name>408-13-02-03B</name>
					<duration>3750</duration>
					<rate>
						<ntsc>FALSE</ntsc>
						<timebase>25</timebase>
					</rate>
					<in>2585</in>
					<out>2827</out>
					<start>1970</start>
					<end>2212</end>
					<subframeoffset>0</subframeoffset>
					<enabled>TRUE</enabled>
					<masterclipid>408-13-02-03B1</masterclipid>
					<syncoffset>0</syncoffset>
					<logginginfo>
						<scene/>
						<shottake/>
						<lognote/>
						<good>FALSE</good>
					</logginginfo>
					<labels>
						<label2/>
					</labels>
					<comments>
						<mastercomment1/>
						<mastercomment2/>
						<mastercomment3/>
						<mastercomment4/>
					</comments>
					<file id="MW-013-2T03 "/>
					<filter>
						<effect>
							<name>Audio Levels</name>
							<effectid>audiolevels</effectid>
							<effectcategory>audiolevels</effectcategory>
							<effecttype>audiolevels</effecttype>
							<mediatype>audio</mediatype>
							<parameter>
								<name>Level</name>
								<parameterid>level</parameterid>
								<valuemin>0</valuemin>
								<valuemax>3.98109</valuemax>
								<value>1</value>
							</parameter>
						</effect>
					</filter>
					<filter>
						<effect>
							<name>Audio Pan</name>
							<effectid>audiopan</effectid>
							<effectcategory>audiopan</effectcategory>
							<effecttype>audiopan</effecttype>
							<mediatype>audio</mediatype>
							<parameter>
								<name>Pan</name>
								<parameterid>pan</parameterid>
								<valuemin>-1</valuemin>
								<valuemax>1</valuemax>
								<value>0</value>
							</parameter>
						</effect>
					</filter>
					<sourcetrack>
						<mediatype>audio</mediatype>
						<trackindex>4</trackindex>
					</sourcetrack>
					<link>
						<linkclipref>408-13-02-03B52</linkclipref>
						<mediatype>video</mediatype>
						<trackindex>1</trackindex>
						<clipindex>19</clipindex>
					</link>
					<link>
						<linkclipref>408-13-02-03B53</linkclipref>
						<mediatype>audio</mediatype>
						<trackindex>1</trackindex>
						<clipindex>18</clipindex>
					</link>
					<link>
						<linkclipref>408-13-02-03B54</linkclipref>
						<mediatype>audio</mediatype>
						<trackindex>2</trackindex>
						<clipindex>18</clipindex>
					</link>
					<link>
						<linkclipref>408-13-02-03B55</linkclipref>
						<mediatype>audio</mediatype>
						<trackindex>3</trackindex>
						<clipindex>18</clipindex>
					</link>
					<link>
						<linkclipref>408-13-02-03B56</linkclipref>
						<mediatype>audio</mediatype>
						<trackindex>4</trackindex>
						<clipindex>18</clipindex>
					</link>
					<link>
						<linkclipref>408-13-02-03B57</linkclipref>
						<mediatype>audio</mediatype>
						<trackindex>5</trackindex>
						<clipindex>18</clipindex>
					</link>
					<link>
						<linkclipref>408-13-02-03B58</linkclipref>
						<mediatype>audio</mediatype>
						<trackindex>6</trackindex>
						<clipindex>18</clipindex>
					</link>
					<multiclip id="17"/>
					<itemhistory>
						<uuid>ABB9C7C3-F3E5-4B5A-9B07-09375FB60467</uuid>
					</itemhistory>
				</clipitem>
				<clipitem id="408-13-01-03B55">
					<name>408-13-01-03B</name>
					<duration>3700</duration>
					<rate>
						<ntsc>FALSE</ntsc>
						<timebase>25</timebase>
					</rate>
					<in>2799</in>
					<out>2816</out>
					<start>2212</start>
					<end>2229</end>
					<enabled>TRUE</enabled>
					<masterclipid>408-13-01-03B2</masterclipid>
					<syncoffset>0</syncoffset>
					<logginginfo>
						<scene/>
						<shottake/>
						<lognote/>
						<good>FALSE</good>
					</logginginfo>
					<labels>
						<label2/>
					</labels>
					<comments>
						<mastercomment1/>
						<mastercomment2/>
						<mastercomment3/>
						<mastercomment4/>
					</comments>
					<file id="MW-013-1T03 "/>
					<filter>
						<effect>
							<name>Audio Levels</name>
							<effectid>audiolevels</effectid>
							<effectcategory>audiolevels</effectcategory>
							<effecttype>audiolevels</effecttype>
							<mediatype>audio</mediatype>
							<parameter>
								<name>Level</name>
								<parameterid>level</parameterid>
								<valuemin>0</valuemin>
								<valuemax>3.98109</valuemax>
								<value>1</value>
							</parameter>
						</effect>
					</filter>
					<filter>
						<effect>
							<name>Audio Pan</name>
							<effectid>audiopan</effectid>
							<effectcategory>audiopan</effectcategory>
							<effecttype>audiopan</effecttype>
							<mediatype>audio</mediatype>
							<parameter>
								<name>Pan</name>
								<parameterid>pan</parameterid>
								<valuemin>-1</valuemin>
								<valuemax>1</valuemax>
								<value>0</value>
							</parameter>
						</effect>
					</filter>
					<sourcetrack>
						<mediatype>audio</mediatype>
						<trackindex>4</trackindex>
					</sourcetrack>
					<link>
						<linkclipref>408-13-01-03B51</linkclipref>
						<mediatype>video</mediatype>
						<trackindex>1</trackindex>
						<clipindex>20</clipindex>
					</link>
					<link>
						<linkclipref>408-13-01-03B52</linkclipref>
						<mediatype>audio</mediatype>
						<trackindex>1</trackindex>
						<clipindex>19</clipindex>
					</link>
					<link>
						<linkclipref>408-13-01-03B53</linkclipref>
						<mediatype>audio</mediatype>
						<trackindex>2</trackindex>
						<clipindex>19</clipindex>
					</link>
					<link>
						<linkclipref>408-13-01-03B54</linkclipref>
						<mediatype>audio</mediatype>
						<trackindex>3</trackindex>
						<clipindex>19</clipindex>
					</link>
					<link>
						<linkclipref>408-13-01-03B55</linkclipref>
						<mediatype>audio</mediatype>
						<trackindex>4</trackindex>
						<clipindex>19</clipindex>
					</link>
					<link>
						<linkclipref>408-13-01-03B56</linkclipref>
						<mediatype>audio</mediatype>
						<trackindex>5</trackindex>
						<clipindex>19</clipindex>
					</link>
					<link>
						<linkclipref>408-13-01-03B57</linkclipref>
						<mediatype>audio</mediatype>
						<trackindex>6</trackindex>
						<clipindex>19</clipindex>
					</link>
					<multiclip id="18"/>
					<itemhistory>
						<uuid>1B1638DC-C9F1-41F6-BBCF-E5BA4286CA61</uuid>
					</itemhistory>
				</clipitem>
				<clipitem id="408-13-03-05A28">
					<name>408-13-03-05A</name>
					<duration>2100</duration>
					<rate>
						<ntsc>FALSE</ntsc>
						<timebase>25</timebase>
					</rate>
					<in>1332</in>
					<out>1389</out>
					<start>2229</start>
					<end>2286</end>
					<subframeoffset>0</subframeoffset>
					<enabled>TRUE</enabled>
					<masterclipid>408-13-03-05A1</masterclipid>
					<syncoffset>0</syncoffset>
					<logginginfo>
						<scene/>
						<shottake/>
						<lognote/>
						<good>FALSE</good>
					</logginginfo>
					<labels>
						<label2/>
					</labels>
					<comments>
						<mastercomment1/>
						<mastercomment2/>
						<mastercomment3/>
						<mastercomment4/>
					</comments>
					<file id="MW-013-3T05 "/>
					<filter>
						<effect>
							<name>Audio Levels</name>
							<effectid>audiolevels</effectid>
							<effectcategory>audiolevels</effectcategory>
							<effecttype>audiolevels</effecttype>
							<mediatype>audio</mediatype>
							<parameter>
								<name>Level</name>
								<parameterid>level</parameterid>
								<valuemin>0</valuemin>
								<valuemax>3.98109</valuemax>
								<value>1</value>
							</parameter>
						</effect>
					</filter>
					<filter>
						<effect>
							<name>Audio Pan</name>
							<effectid>audiopan</effectid>
							<effectcategory>audiopan</effectcategory>
							<effecttype>audiopan</effecttype>
							<mediatype>audio</mediatype>
							<parameter>
								<name>Pan</name>
								<parameterid>pan</parameterid>
								<valuemin>-1</valuemin>
								<valuemax>1</valuemax>
								<value>0</value>
							</parameter>
						</effect>
					</filter>
					<sourcetrack>
						<mediatype>audio</mediatype>
						<trackindex>4</trackindex>
					</sourcetrack>
					<link>
						<linkclipref>408-13-03-05A24</linkclipref>
						<mediatype>video</mediatype>
						<trackindex>1</trackindex>
						<clipindex>21</clipindex>
					</link>
					<link>
						<linkclipref>408-13-03-05A25</linkclipref>
						<mediatype>audio</mediatype>
						<trackindex>1</trackindex>
						<clipindex>20</clipindex>
					</link>
					<link>
						<linkclipref>408-13-03-05A26</linkclipref>
						<mediatype>audio</mediatype>
						<trackindex>2</trackindex>
						<clipindex>20</clipindex>
					</link>
					<link>
						<linkclipref>408-13-03-05A27</linkclipref>
						<mediatype>audio</mediatype>
						<trackindex>3</trackindex>
						<clipindex>20</clipindex>
					</link>
					<link>
						<linkclipref>408-13-03-05A28</linkclipref>
						<mediatype>audio</mediatype>
						<trackindex>4</trackindex>
						<clipindex>20</clipindex>
					</link>
					<link>
						<linkclipref>408-13-03-05A29</linkclipref>
						<mediatype>audio</mediatype>
						<trackindex>5</trackindex>
						<clipindex>20</clipindex>
					</link>
					<link>
						<linkclipref>408-13-03-05A30</linkclipref>
						<mediatype>audio</mediatype>
						<trackindex>6</trackindex>
						<clipindex>20</clipindex>
					</link>
					<multiclip id="19"/>
					<itemhistory>
						<uuid>D5EEF8B6-8736-4C85-8996-A43979979A6E</uuid>
					</itemhistory>
				</clipitem>
				<clipitem id="408-13-01-03B62">
					<name>408-13-01-03B</name>
					<duration>3700</duration>
					<rate>
						<ntsc>FALSE</ntsc>
						<timebase>25</timebase>
					</rate>
					<in>2863</in>
					<out>2905</out>
					<start>2286</start>
					<end>2328</end>
					<enabled>TRUE</enabled>
					<masterclipid>408-13-01-03B2</masterclipid>
					<syncoffset>0</syncoffset>
					<logginginfo>
						<scene/>
						<shottake/>
						<lognote/>
						<good>FALSE</good>
					</logginginfo>
					<labels>
						<label2/>
					</labels>
					<comments>
						<mastercomment1/>
						<mastercomment2/>
						<mastercomment3/>
						<mastercomment4/>
					</comments>
					<file id="MW-013-1T03 "/>
					<filter>
						<effect>
							<name>Audio Levels</name>
							<effectid>audiolevels</effectid>
							<effectcategory>audiolevels</effectcategory>
							<effecttype>audiolevels</effecttype>
							<mediatype>audio</mediatype>
							<parameter>
								<name>Level</name>
								<parameterid>level</parameterid>
								<valuemin>0</valuemin>
								<valuemax>3.98109</valuemax>
								<value>1</value>
							</parameter>
						</effect>
					</filter>
					<filter>
						<effect>
							<name>Audio Pan</name>
							<effectid>audiopan</effectid>
							<effectcategory>audiopan</effectcategory>
							<effecttype>audiopan</effecttype>
							<mediatype>audio</mediatype>
							<parameter>
								<name>Pan</name>
								<parameterid>pan</parameterid>
								<valuemin>-1</valuemin>
								<valuemax>1</valuemax>
								<value>0</value>
							</parameter>
						</effect>
					</filter>
					<sourcetrack>
						<mediatype>audio</mediatype>
						<trackindex>4</trackindex>
					</sourcetrack>
					<link>
						<linkclipref>408-13-01-03B58</linkclipref>
						<mediatype>video</mediatype>
						<trackindex>1</trackindex>
						<clipindex>22</clipindex>
					</link>
					<link>
						<linkclipref>408-13-01-03B59</linkclipref>
						<mediatype>audio</mediatype>
						<trackindex>1</trackindex>
						<clipindex>21</clipindex>
					</link>
					<link>
						<linkclipref>408-13-01-03B60</linkclipref>
						<mediatype>audio</mediatype>
						<trackindex>2</trackindex>
						<clipindex>21</clipindex>
					</link>
					<link>
						<linkclipref>408-13-01-03B61</linkclipref>
						<mediatype>audio</mediatype>
						<trackindex>3</trackindex>
						<clipindex>21</clipindex>
					</link>
					<link>
						<linkclipref>408-13-01-03B62</linkclipref>
						<mediatype>audio</mediatype>
						<trackindex>4</trackindex>
						<clipindex>21</clipindex>
					</link>
					<link>
						<linkclipref>408-13-01-03B63</linkclipref>
						<mediatype>audio</mediatype>
						<trackindex>5</trackindex>
						<clipindex>21</clipindex>
					</link>
					<link>
						<linkclipref>408-13-01-03B64</linkclipref>
						<mediatype>audio</mediatype>
						<trackindex>6</trackindex>
						<clipindex>21</clipindex>
					</link>
					<multiclip id="20"/>
					<itemhistory>
						<uuid>D56CABB7-86F0-445D-9E2A-9F25FF837E65</uuid>
					</itemhistory>
				</clipitem>
				<clipitem id="408-13-03-05B20">
					<name>408-13-03-05B</name>
					<duration>2100</duration>
					<rate>
						<ntsc>FALSE</ntsc>
						<timebase>25</timebase>
					</rate>
					<in>1466</in>
					<out>1723</out>
					<start>2328</start>
					<end>2585</end>
					<enabled>TRUE</enabled>
					<masterclipid>408-13-03-05B2</masterclipid>
					<syncoffset>0</syncoffset>
					<logginginfo>
						<scene/>
						<shottake/>
						<lognote/>
						<good>FALSE</good>
					</logginginfo>
					<labels>
						<label2/>
					</labels>
					<comments>
						<mastercomment1/>
						<mastercomment2/>
						<mastercomment3/>
						<mastercomment4/>
					</comments>
					<file id="MW-013-3T05 "/>
					<filter>
						<effect>
							<name>Audio Levels</name>
							<effectid>audiolevels</effectid>
							<effectcategory>audiolevels</effectcategory>
							<effecttype>audiolevels</effecttype>
							<mediatype>audio</mediatype>
							<parameter>
								<name>Level</name>
								<parameterid>level</parameterid>
								<valuemin>0</valuemin>
								<valuemax>3.98109</valuemax>
								<value>1</value>
							</parameter>
						</effect>
					</filter>
					<filter>
						<effect>
							<name>Audio Pan</name>
							<effectid>audiopan</effectid>
							<effectcategory>audiopan</effectcategory>
							<effecttype>audiopan</effecttype>
							<mediatype>audio</mediatype>
							<parameter>
								<name>Pan</name>
								<parameterid>pan</parameterid>
								<valuemin>-1</valuemin>
								<valuemax>1</valuemax>
								<value>0</value>
							</parameter>
						</effect>
					</filter>
					<sourcetrack>
						<mediatype>audio</mediatype>
						<trackindex>4</trackindex>
					</sourcetrack>
					<link>
						<linkclipref>408-13-03-05B16</linkclipref>
						<mediatype>video</mediatype>
						<trackindex>1</trackindex>
						<clipindex>23</clipindex>
					</link>
					<link>
						<linkclipref>408-13-03-05B17</linkclipref>
						<mediatype>audio</mediatype>
						<trackindex>1</trackindex>
						<clipindex>22</clipindex>
					</link>
					<link>
						<linkclipref>408-13-03-05B18</linkclipref>
						<mediatype>audio</mediatype>
						<trackindex>2</trackindex>
						<clipindex>22</clipindex>
					</link>
					<link>
						<linkclipref>408-13-03-05B19</linkclipref>
						<mediatype>audio</mediatype>
						<trackindex>3</trackindex>
						<clipindex>22</clipindex>
					</link>
					<link>
						<linkclipref>408-13-03-05B20</linkclipref>
						<mediatype>audio</mediatype>
						<trackindex>4</trackindex>
						<clipindex>22</clipindex>
					</link>
					<link>
						<linkclipref>408-13-03-05B21</linkclipref>
						<mediatype>audio</mediatype>
						<trackindex>5</trackindex>
						<clipindex>22</clipindex>
					</link>
					<link>
						<linkclipref>408-13-03-05B22</linkclipref>
						<mediatype>audio</mediatype>
						<trackindex>6</trackindex>
						<clipindex>22</clipindex>
					</link>
					<multiclip id="21"/>
					<itemhistory>
						<uuid>FB160F60-2444-4D10-8C90-76A15FCC1A48</uuid>
					</itemhistory>
				</clipitem>
				<clipitem id="408-13-01-03B69">
					<name>408-13-01-03B</name>
					<duration>3700</duration>
					<rate>
						<ntsc>FALSE</ntsc>
						<timebase>25</timebase>
					</rate>
					<in>3139</in>
					<out>3215</out>
					<start>2585</start>
					<end>2661</end>
					<enabled>TRUE</enabled>
					<masterclipid>408-13-01-03B2</masterclipid>
					<syncoffset>0</syncoffset>
					<logginginfo>
						<scene/>
						<shottake/>
						<lognote/>
						<good>FALSE</good>
					</logginginfo>
					<labels>
						<label2/>
					</labels>
					<comments>
						<mastercomment1/>
						<mastercomment2/>
						<mastercomment3/>
						<mastercomment4/>
					</comments>
					<file id="MW-013-1T03 "/>
					<filter>
						<effect>
							<name>Audio Levels</name>
							<effectid>audiolevels</effectid>
							<effectcategory>audiolevels</effectcategory>
							<effecttype>audiolevels</effecttype>
							<mediatype>audio</mediatype>
							<parameter>
								<name>Level</name>
								<parameterid>level</parameterid>
								<valuemin>0</valuemin>
								<valuemax>3.98109</valuemax>
								<value>1</value>
							</parameter>
						</effect>
					</filter>
					<filter>
						<effect>
							<name>Audio Pan</name>
							<effectid>audiopan</effectid>
							<effectcategory>audiopan</effectcategory>
							<effecttype>audiopan</effecttype>
							<mediatype>audio</mediatype>
							<parameter>
								<name>Pan</name>
								<parameterid>pan</parameterid>
								<valuemin>-1</valuemin>
								<valuemax>1</valuemax>
								<value>0</value>
							</parameter>
						</effect>
					</filter>
					<sourcetrack>
						<mediatype>audio</mediatype>
						<trackindex>4</trackindex>
					</sourcetrack>
					<link>
						<linkclipref>408-13-01-03B65</linkclipref>
						<mediatype>video</mediatype>
						<trackindex>1</trackindex>
						<clipindex>24</clipindex>
					</link>
					<link>
						<linkclipref>408-13-01-03B66</linkclipref>
						<mediatype>audio</mediatype>
						<trackindex>1</trackindex>
						<clipindex>23</clipindex>
					</link>
					<link>
						<linkclipref>408-13-01-03B67</linkclipref>
						<mediatype>audio</mediatype>
						<trackindex>2</trackindex>
						<clipindex>23</clipindex>
					</link>
					<link>
						<linkclipref>408-13-01-03B68</linkclipref>
						<mediatype>audio</mediatype>
						<trackindex>3</trackindex>
						<clipindex>23</clipindex>
					</link>
					<link>
						<linkclipref>408-13-01-03B69</linkclipref>
						<mediatype>audio</mediatype>
						<trackindex>4</trackindex>
						<clipindex>23</clipindex>
					</link>
					<link>
						<linkclipref>408-13-01-03B70</linkclipref>
						<mediatype>audio</mediatype>
						<trackindex>5</trackindex>
						<clipindex>23</clipindex>
					</link>
					<link>
						<linkclipref>408-13-01-03B71</linkclipref>
						<mediatype>audio</mediatype>
						<trackindex>6</trackindex>
						<clipindex>23</clipindex>
					</link>
					<multiclip id="22"/>
					<itemhistory>
						<uuid>8C9EF92C-DF53-4A6D-AB7A-06CB8E4E081C</uuid>
					</itemhistory>
				</clipitem>
				<clipitem id="408-13-01-03A28">
					<name>408-13-01-03A</name>
					<duration>3700</duration>
					<rate>
						<ntsc>FALSE</ntsc>
						<timebase>25</timebase>
					</rate>
					<in>3215</in>
					<out>3594</out>
					<start>2661</start>
					<end>3040</end>
					<enabled>TRUE</enabled>
					<masterclipid>408-13-01-03A1</masterclipid>
					<syncoffset>0</syncoffset>
					<logginginfo>
						<scene/>
						<shottake/>
						<lognote/>
						<good>FALSE</good>
					</logginginfo>
					<labels>
						<label2/>
					</labels>
					<comments>
						<mastercomment1/>
						<mastercomment2/>
						<mastercomment3/>
						<mastercomment4/>
					</comments>
					<file id="MW-013-1T03 "/>
					<filter>
						<effect>
							<name>Audio Levels</name>
							<effectid>audiolevels</effectid>
							<effectcategory>audiolevels</effectcategory>
							<effecttype>audiolevels</effecttype>
							<mediatype>audio</mediatype>
							<parameter>
								<name>Level</name>
								<parameterid>level</parameterid>
								<valuemin>0</valuemin>
								<valuemax>3.98109</valuemax>
								<value>1</value>
							</parameter>
						</effect>
					</filter>
					<filter>
						<effect>
							<name>Audio Pan</name>
							<effectid>audiopan</effectid>
							<effectcategory>audiopan</effectcategory>
							<effecttype>audiopan</effecttype>
							<mediatype>audio</mediatype>
							<parameter>
								<name>Pan</name>
								<parameterid>pan</parameterid>
								<valuemin>-1</valuemin>
								<valuemax>1</valuemax>
								<value>0</value>
							</parameter>
						</effect>
					</filter>
					<sourcetrack>
						<mediatype>audio</mediatype>
						<trackindex>4</trackindex>
					</sourcetrack>
					<link>
						<linkclipref>408-13-01-03A24</linkclipref>
						<mediatype>video</mediatype>
						<trackindex>1</trackindex>
						<clipindex>25</clipindex>
					</link>
					<link>
						<linkclipref>408-13-01-03A25</linkclipref>
						<mediatype>audio</mediatype>
						<trackindex>1</trackindex>
						<clipindex>24</clipindex>
					</link>
					<link>
						<linkclipref>408-13-01-03A26</linkclipref>
						<mediatype>audio</mediatype>
						<trackindex>2</trackindex>
						<clipindex>24</clipindex>
					</link>
					<link>
						<linkclipref>408-13-01-03A27</linkclipref>
						<mediatype>audio</mediatype>
						<trackindex>3</trackindex>
						<clipindex>24</clipindex>
					</link>
					<link>
						<linkclipref>408-13-01-03A28</linkclipref>
						<mediatype>audio</mediatype>
						<trackindex>4</trackindex>
						<clipindex>24</clipindex>
					</link>
					<link>
						<linkclipref>408-13-01-03A29</linkclipref>
						<mediatype>audio</mediatype>
						<trackindex>5</trackindex>
						<clipindex>24</clipindex>
					</link>
					<link>
						<linkclipref>408-13-01-03A30</linkclipref>
						<mediatype>audio</mediatype>
						<trackindex>6</trackindex>
						<clipindex>24</clipindex>
					</link>
					<multiclip id="23"/>
					<itemhistory>
						<uuid>1121130B-D37E-4CBE-8F59-5655794B4BD4</uuid>
					</itemhistory>
				</clipitem>
				<enabled>TRUE</enabled>
				<locked>FALSE</locked>
				<outputchannelindex>2</outputchannelindex>
			</track>
			<track>
				<clipitem id="408-13-01-03A6">
					<name>408-13-01-03A</name>
					<duration>3700</duration>
					<rate>
						<ntsc>FALSE</ntsc>
						<timebase>25</timebase>
					</rate>
					<in>485</in>
					<out>630</out>
					<start>59</start>
					<end>204</end>
					<subframeoffset>0</subframeoffset>
					<enabled>TRUE</enabled>
					<masterclipid>408-13-01-03A1</masterclipid>
					<syncoffset>0</syncoffset>
					<logginginfo>
						<scene/>
						<shottake/>
						<lognote/>
						<good>FALSE</good>
					</logginginfo>
					<labels>
						<label2/>
					</labels>
					<comments>
						<mastercomment1/>
						<mastercomment2/>
						<mastercomment3/>
						<mastercomment4/>
					</comments>
					<file id="MW-013-1T03 "/>
					<filter>
						<effect>
							<name>Audio Levels</name>
							<effectid>audiolevels</effectid>
							<effectcategory>audiolevels</effectcategory>
							<effecttype>audiolevels</effecttype>
							<mediatype>audio</mediatype>
							<parameter>
								<name>Level</name>
								<parameterid>level</parameterid>
								<valuemin>0</valuemin>
								<valuemax>3.98109</valuemax>
								<value>1</value>
							</parameter>
						</effect>
					</filter>
					<filter>
						<effect>
							<name>Audio Pan</name>
							<effectid>audiopan</effectid>
							<effectcategory>audiopan</effectcategory>
							<effecttype>audiopan</effecttype>
							<mediatype>audio</mediatype>
							<parameter>
								<name>Pan</name>
								<parameterid>pan</parameterid>
								<valuemin>-1</valuemin>
								<valuemax>1</valuemax>
								<value>0</value>
							</parameter>
						</effect>
					</filter>
					<sourcetrack>
						<mediatype>audio</mediatype>
						<trackindex>5</trackindex>
					</sourcetrack>
					<link>
						<linkclipref>408-13-01-03A</linkclipref>
						<mediatype>video</mediatype>
						<trackindex>1</trackindex>
						<clipindex>2</clipindex>
					</link>
					<link>
						<linkclipref>408-13-01-03A2</linkclipref>
						<mediatype>audio</mediatype>
						<trackindex>1</trackindex>
						<clipindex>1</clipindex>
					</link>
					<link>
						<linkclipref>408-13-01-03A3</linkclipref>
						<mediatype>audio</mediatype>
						<trackindex>2</trackindex>
						<clipindex>1</clipindex>
					</link>
					<link>
						<linkclipref>408-13-01-03A4</linkclipref>
						<mediatype>audio</mediatype>
						<trackindex>3</trackindex>
						<clipindex>1</clipindex>
					</link>
					<link>
						<linkclipref>408-13-01-03A5</linkclipref>
						<mediatype>audio</mediatype>
						<trackindex>4</trackindex>
						<clipindex>1</clipindex>
					</link>
					<link>
						<linkclipref>408-13-01-03A6</linkclipref>
						<mediatype>audio</mediatype>
						<trackindex>5</trackindex>
						<clipindex>1</clipindex>
					</link>
					<link>
						<linkclipref>408-13-01-03A7</linkclipref>
						<mediatype>audio</mediatype>
						<trackindex>6</trackindex>
						<clipindex>1</clipindex>
					</link>
					<multiclip id="28">
						<collapsed>FALSE</collapsed>
						<synctype>1</synctype>
						<angle>
							<activevideoangle>TRUE</activevideoangle>
							<activeaudioangle>TRUE</activeaudioangle>
							<clip id="408-13-01-03A8"/>
						</angle>
						<angle>
							<clip id="408-13-01-03B"/>
						</angle>
						<masterclipid>408-13-01-03A16</masterclipid>
					</multiclip>
					<itemhistory>
						<uuid>26CC4120-11CD-4358-8BF3-0E0C0050577C</uuid>
					</itemhistory>
				</clipitem>
				<clipitem id="408-13-01-03A22">
					<name>408-13-01-03A</name>
					<duration>3700</duration>
					<rate>
						<ntsc>FALSE</ntsc>
						<timebase>25</timebase>
					</rate>
					<in>627</in>
					<out>670</out>
					<start>212</start>
					<end>255</end>
					<subframeoffset>0</subframeoffset>
					<enabled>TRUE</enabled>
					<masterclipid>408-13-01-03A1</masterclipid>
					<syncoffset>0</syncoffset>
					<logginginfo>
						<scene/>
						<shottake/>
						<lognote/>
						<good>FALSE</good>
					</logginginfo>
					<labels>
						<label2/>
					</labels>
					<comments>
						<mastercomment1/>
						<mastercomment2/>
						<mastercomment3/>
						<mastercomment4/>
					</comments>
					<file id="MW-013-1T03 "/>
					<filter>
						<effect>
							<name>Audio Levels</name>
							<effectid>audiolevels</effectid>
							<effectcategory>audiolevels</effectcategory>
							<effecttype>audiolevels</effecttype>
							<mediatype>audio</mediatype>
							<parameter>
								<name>Level</name>
								<parameterid>level</parameterid>
								<valuemin>0</valuemin>
								<valuemax>3.98109</valuemax>
								<value>1</value>
							</parameter>
						</effect>
					</filter>
					<filter>
						<effect>
							<name>Audio Pan</name>
							<effectid>audiopan</effectid>
							<effectcategory>audiopan</effectcategory>
							<effecttype>audiopan</effecttype>
							<mediatype>audio</mediatype>
							<parameter>
								<name>Pan</name>
								<parameterid>pan</parameterid>
								<valuemin>-1</valuemin>
								<valuemax>1</valuemax>
								<value>0</value>
							</parameter>
						</effect>
					</filter>
					<sourcetrack>
						<mediatype>audio</mediatype>
						<trackindex>5</trackindex>
					</sourcetrack>
					<link>
						<linkclipref>408-13-01-03A17</linkclipref>
						<mediatype>video</mediatype>
						<trackindex>1</trackindex>
						<clipindex>3</clipindex>
					</link>
					<link>
						<linkclipref>408-13-01-03A18</linkclipref>
						<mediatype>audio</mediatype>
						<trackindex>1</trackindex>
						<clipindex>2</clipindex>
					</link>
					<link>
						<linkclipref>408-13-01-03A19</linkclipref>
						<mediatype>audio</mediatype>
						<trackindex>2</trackindex>
						<clipindex>2</clipindex>
					</link>
					<link>
						<linkclipref>408-13-01-03A20</linkclipref>
						<mediatype>audio</mediatype>
						<trackindex>3</trackindex>
						<clipindex>2</clipindex>
					</link>
					<link>
						<linkclipref>408-13-01-03A21</linkclipref>
						<mediatype>audio</mediatype>
						<trackindex>4</trackindex>
						<clipindex>2</clipindex>
					</link>
					<link>
						<linkclipref>408-13-01-03A22</linkclipref>
						<mediatype>audio</mediatype>
						<trackindex>5</trackindex>
						<clipindex>2</clipindex>
					</link>
					<link>
						<linkclipref>408-13-01-03A23</linkclipref>
						<mediatype>audio</mediatype>
						<trackindex>6</trackindex>
						<clipindex>2</clipindex>
					</link>
					<multiclip id="1"/>
					<itemhistory>
						<uuid>5E7EA581-FB6E-497C-AF63-89A66C11D6FE</uuid>
					</itemhistory>
				</clipitem>
				<clipitem id="408-13-01-03B14">
					<name>408-13-01-03B</name>
					<duration>3700</duration>
					<rate>
						<ntsc>FALSE</ntsc>
						<timebase>25</timebase>
					</rate>
					<in>670</in>
					<out>785</out>
					<start>255</start>
					<end>370</end>
					<enabled>TRUE</enabled>
					<masterclipid>408-13-01-03B2</masterclipid>
					<syncoffset>0</syncoffset>
					<logginginfo>
						<scene/>
						<shottake/>
						<lognote/>
						<good>FALSE</good>
					</logginginfo>
					<labels>
						<label2/>
					</labels>
					<comments>
						<mastercomment1/>
						<mastercomment2/>
						<mastercomment3/>
						<mastercomment4/>
					</comments>
					<file id="MW-013-1T03 "/>
					<filter>
						<effect>
							<name>Audio Levels</name>
							<effectid>audiolevels</effectid>
							<effectcategory>audiolevels</effectcategory>
							<effecttype>audiolevels</effecttype>
							<mediatype>audio</mediatype>
							<parameter>
								<name>Level</name>
								<parameterid>level</parameterid>
								<valuemin>0</valuemin>
								<valuemax>3.98109</valuemax>
								<value>1</value>
							</parameter>
						</effect>
					</filter>
					<filter>
						<effect>
							<name>Audio Pan</name>
							<effectid>audiopan</effectid>
							<effectcategory>audiopan</effectcategory>
							<effecttype>audiopan</effecttype>
							<mediatype>audio</mediatype>
							<parameter>
								<name>Pan</name>
								<parameterid>pan</parameterid>
								<valuemin>-1</valuemin>
								<valuemax>1</valuemax>
								<value>0</value>
							</parameter>
						</effect>
					</filter>
					<sourcetrack>
						<mediatype>audio</mediatype>
						<trackindex>5</trackindex>
					</sourcetrack>
					<link>
						<linkclipref>408-13-01-03B9</linkclipref>
						<mediatype>video</mediatype>
						<trackindex>1</trackindex>
						<clipindex>4</clipindex>
					</link>
					<link>
						<linkclipref>408-13-01-03B10</linkclipref>
						<mediatype>audio</mediatype>
						<trackindex>1</trackindex>
						<clipindex>3</clipindex>
					</link>
					<link>
						<linkclipref>408-13-01-03B11</linkclipref>
						<mediatype>audio</mediatype>
						<trackindex>2</trackindex>
						<clipindex>3</clipindex>
					</link>
					<link>
						<linkclipref>408-13-01-03B12</linkclipref>
						<mediatype>audio</mediatype>
						<trackindex>3</trackindex>
						<clipindex>3</clipindex>
					</link>
					<link>
						<linkclipref>408-13-01-03B13</linkclipref>
						<mediatype>audio</mediatype>
						<trackindex>4</trackindex>
						<clipindex>3</clipindex>
					</link>
					<link>
						<linkclipref>408-13-01-03B14</linkclipref>
						<mediatype>audio</mediatype>
						<trackindex>5</trackindex>
						<clipindex>3</clipindex>
					</link>
					<link>
						<linkclipref>408-13-01-03B15</linkclipref>
						<mediatype>audio</mediatype>
						<trackindex>6</trackindex>
						<clipindex>3</clipindex>
					</link>
					<multiclip id="2"/>
					<itemhistory>
						<uuid>0702EB5C-4628-4DB8-B0D3-20687AC8D914</uuid>
					</itemhistory>
				</clipitem>
				<clipitem id="408-13-02-03B6">
					<name>408-13-02-03B</name>
					<duration>3750</duration>
					<rate>
						<ntsc>FALSE</ntsc>
						<timebase>25</timebase>
					</rate>
					<in>1017</in>
					<out>1119</out>
					<start>370</start>
					<end>472</end>
					<enabled>TRUE</enabled>
					<masterclipid>408-13-02-03B1</masterclipid>
					<syncoffset>0</syncoffset>
					<logginginfo>
						<scene/>
						<shottake/>
						<lognote/>
						<good>FALSE</good>
					</logginginfo>
					<labels>
						<label2/>
					</labels>
					<comments>
						<mastercomment1/>
						<mastercomment2/>
						<mastercomment3/>
						<mastercomment4/>
					</comments>
					<file id="MW-013-2T03 "/>
					<filter>
						<effect>
							<name>Audio Levels</name>
							<effectid>audiolevels</effectid>
							<effectcategory>audiolevels</effectcategory>
							<effecttype>audiolevels</effecttype>
							<mediatype>audio</mediatype>
							<parameter>
								<name>Level</name>
								<parameterid>level</parameterid>
								<valuemin>0</valuemin>
								<valuemax>3.98109</valuemax>
								<value>1</value>
							</parameter>
						</effect>
					</filter>
					<filter>
						<effect>
							<name>Audio Pan</name>
							<effectid>audiopan</effectid>
							<effectcategory>audiopan</effectcategory>
							<effecttype>audiopan</effecttype>
							<mediatype>audio</mediatype>
							<parameter>
								<name>Pan</name>
								<parameterid>pan</parameterid>
								<valuemin>-1</valuemin>
								<valuemax>1</valuemax>
								<value>0</value>
							</parameter>
						</effect>
					</filter>
					<sourcetrack>
						<mediatype>audio</mediatype>
						<trackindex>5</trackindex>
					</sourcetrack>
					<link>
						<linkclipref>408-13-02-03B</linkclipref>
						<mediatype>video</mediatype>
						<trackindex>1</trackindex>
						<clipindex>5</clipindex>
					</link>
					<link>
						<linkclipref>408-13-02-03B2</linkclipref>
						<mediatype>audio</mediatype>
						<trackindex>1</trackindex>
						<clipindex>4</clipindex>
					</link>
					<link>
						<linkclipref>408-13-02-03B3</linkclipref>
						<mediatype>audio</mediatype>
						<trackindex>2</trackindex>
						<clipindex>4</clipindex>
					</link>
					<link>
						<linkclipref>408-13-02-03B4</linkclipref>
						<mediatype>audio</mediatype>
						<trackindex>3</trackindex>
						<clipindex>4</clipindex>
					</link>
					<link>
						<linkclipref>408-13-02-03B5</linkclipref>
						<mediatype>audio</mediatype>
						<trackindex>4</trackindex>
						<clipindex>4</clipindex>
					</link>
					<link>
						<linkclipref>408-13-02-03B6</linkclipref>
						<mediatype>audio</mediatype>
						<trackindex>5</trackindex>
						<clipindex>4</clipindex>
					</link>
					<link>
						<linkclipref>408-13-02-03B7</linkclipref>
						<mediatype>audio</mediatype>
						<trackindex>6</trackindex>
						<clipindex>4</clipindex>
					</link>
					<multiclip id="3"/>
					<itemhistory>
						<uuid>DC83805C-C406-40D0-B165-781AAEF61507</uuid>
					</itemhistory>
				</clipitem>
				<clipitem id="408-13-01-03B21">
					<name>408-13-01-03B</name>
					<duration>3700</duration>
					<rate>
						<ntsc>FALSE</ntsc>
						<timebase>25</timebase>
					</rate>
					<in>862</in>
					<out>887</out>
					<start>472</start>
					<end>497</end>
					<enabled>TRUE</enabled>
					<masterclipid>408-13-01-03B2</masterclipid>
					<syncoffset>0</syncoffset>
					<logginginfo>
						<scene/>
						<shottake/>
						<lognote/>
						<good>FALSE</good>
					</logginginfo>
					<labels>
						<label2/>
					</labels>
					<comments>
						<mastercomment1/>
						<mastercomment2/>
						<mastercomment3/>
						<mastercomment4/>
					</comments>
					<file id="MW-013-1T03 "/>
					<filter>
						<effect>
							<name>Audio Levels</name>
							<effectid>audiolevels</effectid>
							<effectcategory>audiolevels</effectcategory>
							<effecttype>audiolevels</effecttype>
							<mediatype>audio</mediatype>
							<parameter>
								<name>Level</name>
								<parameterid>level</parameterid>
								<valuemin>0</valuemin>
								<valuemax>3.98109</valuemax>
								<value>1</value>
							</parameter>
						</effect>
					</filter>
					<filter>
						<effect>
							<name>Audio Pan</name>
							<effectid>audiopan</effectid>
							<effectcategory>audiopan</effectcategory>
							<effecttype>audiopan</effecttype>
							<mediatype>audio</mediatype>
							<parameter>
								<name>Pan</name>
								<parameterid>pan</parameterid>
								<valuemin>-1</valuemin>
								<valuemax>1</valuemax>
								<value>0</value>
							</parameter>
						</effect>
					</filter>
					<sourcetrack>
						<mediatype>audio</mediatype>
						<trackindex>5</trackindex>
					</sourcetrack>
					<link>
						<linkclipref>408-13-01-03B16</linkclipref>
						<mediatype>video</mediatype>
						<trackindex>1</trackindex>
						<clipindex>6</clipindex>
					</link>
					<link>
						<linkclipref>408-13-01-03B17</linkclipref>
						<mediatype>audio</mediatype>
						<trackindex>1</trackindex>
						<clipindex>5</clipindex>
					</link>
					<link>
						<linkclipref>408-13-01-03B18</linkclipref>
						<mediatype>audio</mediatype>
						<trackindex>2</trackindex>
						<clipindex>5</clipindex>
					</link>
					<link>
						<linkclipref>408-13-01-03B19</linkclipref>
						<mediatype>audio</mediatype>
						<trackindex>3</trackindex>
						<clipindex>5</clipindex>
					</link>
					<link>
						<linkclipref>408-13-01-03B20</linkclipref>
						<mediatype>audio</mediatype>
						<trackindex>4</trackindex>
						<clipindex>5</clipindex>
					</link>
					<link>
						<linkclipref>408-13-01-03B21</linkclipref>
						<mediatype>audio</mediatype>
						<trackindex>5</trackindex>
						<clipindex>5</clipindex>
					</link>
					<link>
						<linkclipref>408-13-01-03B22</linkclipref>
						<mediatype>audio</mediatype>
						<trackindex>6</trackindex>
						<clipindex>5</clipindex>
					</link>
					<multiclip id="4"/>
					<itemhistory>
						<uuid>C67D11AC-E82D-41E5-8583-75D346164FC6</uuid>
					</itemhistory>
				</clipitem>
				<clipitem id="408-13-02-03B22">
					<name>408-13-02-03B</name>
					<duration>3750</duration>
					<rate>
						<ntsc>FALSE</ntsc>
						<timebase>25</timebase>
					</rate>
					<in>1138</in>
					<out>1263</out>
					<start>497</start>
					<end>622</end>
					<enabled>TRUE</enabled>
					<masterclipid>408-13-02-03B1</masterclipid>
					<syncoffset>0</syncoffset>
					<logginginfo>
						<scene/>
						<shottake/>
						<lognote/>
						<good>FALSE</good>
					</logginginfo>
					<labels>
						<label2/>
					</labels>
					<comments>
						<mastercomment1/>
						<mastercomment2/>
						<mastercomment3/>
						<mastercomment4/>
					</comments>
					<file id="MW-013-2T03 "/>
					<filter>
						<effect>
							<name>Audio Levels</name>
							<effectid>audiolevels</effectid>
							<effectcategory>audiolevels</effectcategory>
							<effecttype>audiolevels</effecttype>
							<mediatype>audio</mediatype>
							<parameter>
								<name>Level</name>
								<parameterid>level</parameterid>
								<valuemin>0</valuemin>
								<valuemax>3.98109</valuemax>
								<value>1</value>
							</parameter>
						</effect>
					</filter>
					<filter>
						<effect>
							<name>Audio Pan</name>
							<effectid>audiopan</effectid>
							<effectcategory>audiopan</effectcategory>
							<effecttype>audiopan</effecttype>
							<mediatype>audio</mediatype>
							<parameter>
								<name>Pan</name>
								<parameterid>pan</parameterid>
								<valuemin>-1</valuemin>
								<valuemax>1</valuemax>
								<value>0</value>
							</parameter>
						</effect>
					</filter>
					<sourcetrack>
						<mediatype>audio</mediatype>
						<trackindex>5</trackindex>
					</sourcetrack>
					<link>
						<linkclipref>408-13-02-03B17</linkclipref>
						<mediatype>video</mediatype>
						<trackindex>1</trackindex>
						<clipindex>7</clipindex>
					</link>
					<link>
						<linkclipref>408-13-02-03B18</linkclipref>
						<mediatype>audio</mediatype>
						<trackindex>1</trackindex>
						<clipindex>6</clipindex>
					</link>
					<link>
						<linkclipref>408-13-02-03B19</linkclipref>
						<mediatype>audio</mediatype>
						<trackindex>2</trackindex>
						<clipindex>6</clipindex>
					</link>
					<link>
						<linkclipref>408-13-02-03B20</linkclipref>
						<mediatype>audio</mediatype>
						<trackindex>3</trackindex>
						<clipindex>6</clipindex>
					</link>
					<link>
						<linkclipref>408-13-02-03B21</linkclipref>
						<mediatype>audio</mediatype>
						<trackindex>4</trackindex>
						<clipindex>6</clipindex>
					</link>
					<link>
						<linkclipref>408-13-02-03B22</linkclipref>
						<mediatype>audio</mediatype>
						<trackindex>5</trackindex>
						<clipindex>6</clipindex>
					</link>
					<link>
						<linkclipref>408-13-02-03B23</linkclipref>
						<mediatype>audio</mediatype>
						<trackindex>6</trackindex>
						<clipindex>6</clipindex>
					</link>
					<multiclip id="5"/>
					<itemhistory>
						<uuid>9AE02963-33EF-405F-8E3F-4D0FFA81EE4B</uuid>
					</itemhistory>
				</clipitem>
				<clipitem id="408-13-01-03B28">
					<name>408-13-01-03B</name>
					<duration>3700</duration>
					<rate>
						<ntsc>FALSE</ntsc>
						<timebase>25</timebase>
					</rate>
					<in>999</in>
					<out>1058</out>
					<start>622</start>
					<end>681</end>
					<enabled>TRUE</enabled>
					<masterclipid>408-13-01-03B2</masterclipid>
					<syncoffset>0</syncoffset>
					<logginginfo>
						<scene/>
						<shottake/>
						<lognote/>
						<good>FALSE</good>
					</logginginfo>
					<labels>
						<label2/>
					</labels>
					<comments>
						<mastercomment1/>
						<mastercomment2/>
						<mastercomment3/>
						<mastercomment4/>
					</comments>
					<file id="MW-013-1T03 "/>
					<filter>
						<effect>
							<name>Audio Levels</name>
							<effectid>audiolevels</effectid>
							<effectcategory>audiolevels</effectcategory>
							<effecttype>audiolevels</effecttype>
							<mediatype>audio</mediatype>
							<parameter>
								<name>Level</name>
								<parameterid>level</parameterid>
								<valuemin>0</valuemin>
								<valuemax>3.98109</valuemax>
								<value>1</value>
							</parameter>
						</effect>
					</filter>
					<filter>
						<effect>
							<name>Audio Pan</name>
							<effectid>audiopan</effectid>
							<effectcategory>audiopan</effectcategory>
							<effecttype>audiopan</effecttype>
							<mediatype>audio</mediatype>
							<parameter>
								<name>Pan</name>
								<parameterid>pan</parameterid>
								<valuemin>-1</valuemin>
								<valuemax>1</valuemax>
								<value>0</value>
							</parameter>
						</effect>
					</filter>
					<sourcetrack>
						<mediatype>audio</mediatype>
						<trackindex>5</trackindex>
					</sourcetrack>
					<link>
						<linkclipref>408-13-01-03B23</linkclipref>
						<mediatype>video</mediatype>
						<trackindex>1</trackindex>
						<clipindex>8</clipindex>
					</link>
					<link>
						<linkclipref>408-13-01-03B24</linkclipref>
						<mediatype>audio</mediatype>
						<trackindex>1</trackindex>
						<clipindex>7</clipindex>
					</link>
					<link>
						<linkclipref>408-13-01-03B25</linkclipref>
						<mediatype>audio</mediatype>
						<trackindex>2</trackindex>
						<clipindex>7</clipindex>
					</link>
					<link>
						<linkclipref>408-13-01-03B26</linkclipref>
						<mediatype>audio</mediatype>
						<trackindex>3</trackindex>
						<clipindex>7</clipindex>
					</link>
					<link>
						<linkclipref>408-13-01-03B27</linkclipref>
						<mediatype>audio</mediatype>
						<trackindex>4</trackindex>
						<clipindex>7</clipindex>
					</link>
					<link>
						<linkclipref>408-13-01-03B28</linkclipref>
						<mediatype>audio</mediatype>
						<trackindex>5</trackindex>
						<clipindex>7</clipindex>
					</link>
					<link>
						<linkclipref>408-13-01-03B29</linkclipref>
						<mediatype>audio</mediatype>
						<trackindex>6</trackindex>
						<clipindex>7</clipindex>
					</link>
					<multiclip id="6"/>
					<itemhistory>
						<uuid>7C526E9F-C8D6-4C1E-88E6-1ECF30973D72</uuid>
					</itemhistory>
				</clipitem>
				<clipitem id="408-13-02-03B29">
					<name>408-13-02-03B</name>
					<duration>3750</duration>
					<rate>
						<ntsc>FALSE</ntsc>
						<timebase>25</timebase>
					</rate>
					<in>1317</in>
					<out>1528</out>
					<start>681</start>
					<end>892</end>
					<enabled>TRUE</enabled>
					<masterclipid>408-13-02-03B1</masterclipid>
					<syncoffset>0</syncoffset>
					<logginginfo>
						<scene/>
						<shottake/>
						<lognote/>
						<good>FALSE</good>
					</logginginfo>
					<labels>
						<label2/>
					</labels>
					<comments>
						<mastercomment1/>
						<mastercomment2/>
						<mastercomment3/>
						<mastercomment4/>
					</comments>
					<file id="MW-013-2T03 "/>
					<filter>
						<effect>
							<name>Audio Levels</name>
							<effectid>audiolevels</effectid>
							<effectcategory>audiolevels</effectcategory>
							<effecttype>audiolevels</effecttype>
							<mediatype>audio</mediatype>
							<parameter>
								<name>Level</name>
								<parameterid>level</parameterid>
								<valuemin>0</valuemin>
								<valuemax>3.98109</valuemax>
								<value>1</value>
							</parameter>
						</effect>
					</filter>
					<filter>
						<effect>
							<name>Audio Pan</name>
							<effectid>audiopan</effectid>
							<effectcategory>audiopan</effectcategory>
							<effecttype>audiopan</effecttype>
							<mediatype>audio</mediatype>
							<parameter>
								<name>Pan</name>
								<parameterid>pan</parameterid>
								<valuemin>-1</valuemin>
								<valuemax>1</valuemax>
								<value>0</value>
							</parameter>
						</effect>
					</filter>
					<sourcetrack>
						<mediatype>audio</mediatype>
						<trackindex>5</trackindex>
					</sourcetrack>
					<link>
						<linkclipref>408-13-02-03B24</linkclipref>
						<mediatype>video</mediatype>
						<trackindex>1</trackindex>
						<clipindex>9</clipindex>
					</link>
					<link>
						<linkclipref>408-13-02-03B25</linkclipref>
						<mediatype>audio</mediatype>
						<trackindex>1</trackindex>
						<clipindex>8</clipindex>
					</link>
					<link>
						<linkclipref>408-13-02-03B26</linkclipref>
						<mediatype>audio</mediatype>
						<trackindex>2</trackindex>
						<clipindex>8</clipindex>
					</link>
					<link>
						<linkclipref>408-13-02-03B27</linkclipref>
						<mediatype>audio</mediatype>
						<trackindex>3</trackindex>
						<clipindex>8</clipindex>
					</link>
					<link>
						<linkclipref>408-13-02-03B28</linkclipref>
						<mediatype>audio</mediatype>
						<trackindex>4</trackindex>
						<clipindex>8</clipindex>
					</link>
					<link>
						<linkclipref>408-13-02-03B29</linkclipref>
						<mediatype>audio</mediatype>
						<trackindex>5</trackindex>
						<clipindex>8</clipindex>
					</link>
					<link>
						<linkclipref>408-13-02-03B30</linkclipref>
						<mediatype>audio</mediatype>
						<trackindex>6</trackindex>
						<clipindex>8</clipindex>
					</link>
					<multiclip id="7"/>
					<itemhistory>
						<uuid>B44C7914-5059-4AE2-9DA3-50DBA8C706D1</uuid>
					</itemhistory>
				</clipitem>
				<clipitem id="408-13-01-03B35">
					<name>408-13-01-03B</name>
					<duration>3700</duration>
					<rate>
						<ntsc>FALSE</ntsc>
						<timebase>25</timebase>
					</rate>
					<in>1230</in>
					<out>1262</out>
					<start>892</start>
					<end>924</end>
					<enabled>TRUE</enabled>
					<masterclipid>408-13-01-03B2</masterclipid>
					<syncoffset>0</syncoffset>
					<logginginfo>
						<scene/>
						<shottake/>
						<lognote/>
						<good>FALSE</good>
					</logginginfo>
					<labels>
						<label2/>
					</labels>
					<comments>
						<mastercomment1/>
						<mastercomment2/>
						<mastercomment3/>
						<mastercomment4/>
					</comments>
					<file id="MW-013-1T03 "/>
					<filter>
						<effect>
							<name>Audio Levels</name>
							<effectid>audiolevels</effectid>
							<effectcategory>audiolevels</effectcategory>
							<effecttype>audiolevels</effecttype>
							<mediatype>audio</mediatype>
							<parameter>
								<name>Level</name>
								<parameterid>level</parameterid>
								<valuemin>0</valuemin>
								<valuemax>3.98109</valuemax>
								<value>1</value>
							</parameter>
						</effect>
					</filter>
					<filter>
						<effect>
							<name>Audio Pan</name>
							<effectid>audiopan</effectid>
							<effectcategory>audiopan</effectcategory>
							<effecttype>audiopan</effecttype>
							<mediatype>audio</mediatype>
							<parameter>
								<name>Pan</name>
								<parameterid>pan</parameterid>
								<valuemin>-1</valuemin>
								<valuemax>1</valuemax>
								<value>0</value>
							</parameter>
						</effect>
					</filter>
					<sourcetrack>
						<mediatype>audio</mediatype>
						<trackindex>5</trackindex>
					</sourcetrack>
					<link>
						<linkclipref>408-13-01-03B30</linkclipref>
						<mediatype>video</mediatype>
						<trackindex>1</trackindex>
						<clipindex>10</clipindex>
					</link>
					<link>
						<linkclipref>408-13-01-03B31</linkclipref>
						<mediatype>audio</mediatype>
						<trackindex>1</trackindex>
						<clipindex>9</clipindex>
					</link>
					<link>
						<linkclipref>408-13-01-03B32</linkclipref>
						<mediatype>audio</mediatype>
						<trackindex>2</trackindex>
						<clipindex>9</clipindex>
					</link>
					<link>
						<linkclipref>408-13-01-03B33</linkclipref>
						<mediatype>audio</mediatype>
						<trackindex>3</trackindex>
						<clipindex>9</clipindex>
					</link>
					<link>
						<linkclipref>408-13-01-03B34</linkclipref>
						<mediatype>audio</mediatype>
						<trackindex>4</trackindex>
						<clipindex>9</clipindex>
					</link>
					<link>
						<linkclipref>408-13-01-03B35</linkclipref>
						<mediatype>audio</mediatype>
						<trackindex>5</trackindex>
						<clipindex>9</clipindex>
					</link>
					<link>
						<linkclipref>408-13-01-03B36</linkclipref>
						<mediatype>audio</mediatype>
						<trackindex>6</trackindex>
						<clipindex>9</clipindex>
					</link>
					<multiclip id="8"/>
					<itemhistory>
						<uuid>FF8A4589-D4A9-4B38-86D1-5D6161D85B29</uuid>
					</itemhistory>
				</clipitem>
				<clipitem id="408-13-02-03B36">
					<name>408-13-02-03B</name>
					<duration>3750</duration>
					<rate>
						<ntsc>FALSE</ntsc>
						<timebase>25</timebase>
					</rate>
					<in>1569</in>
					<out>1862</out>
					<start>924</start>
					<end>1217</end>
					<subframeoffset>0</subframeoffset>
					<enabled>TRUE</enabled>
					<masterclipid>408-13-02-03B1</masterclipid>
					<syncoffset>0</syncoffset>
					<logginginfo>
						<scene/>
						<shottake/>
						<lognote/>
						<good>FALSE</good>
					</logginginfo>
					<labels>
						<label2/>
					</labels>
					<comments>
						<mastercomment1/>
						<mastercomment2/>
						<mastercomment3/>
						<mastercomment4/>
					</comments>
					<file id="MW-013-2T03 "/>
					<filter>
						<effect>
							<name>Audio Levels</name>
							<effectid>audiolevels</effectid>
							<effectcategory>audiolevels</effectcategory>
							<effecttype>audiolevels</effecttype>
							<mediatype>audio</mediatype>
							<parameter>
								<name>Level</name>
								<parameterid>level</parameterid>
								<valuemin>0</valuemin>
								<valuemax>3.98109</valuemax>
								<value>1</value>
							</parameter>
						</effect>
					</filter>
					<filter>
						<effect>
							<name>Audio Pan</name>
							<effectid>audiopan</effectid>
							<effectcategory>audiopan</effectcategory>
							<effecttype>audiopan</effecttype>
							<mediatype>audio</mediatype>
							<parameter>
								<name>Pan</name>
								<parameterid>pan</parameterid>
								<valuemin>-1</valuemin>
								<valuemax>1</valuemax>
								<value>0</value>
							</parameter>
						</effect>
					</filter>
					<sourcetrack>
						<mediatype>audio</mediatype>
						<trackindex>5</trackindex>
					</sourcetrack>
					<link>
						<linkclipref>408-13-02-03B31</linkclipref>
						<mediatype>video</mediatype>
						<trackindex>1</trackindex>
						<clipindex>11</clipindex>
					</link>
					<link>
						<linkclipref>408-13-02-03B32</linkclipref>
						<mediatype>audio</mediatype>
						<trackindex>1</trackindex>
						<clipindex>10</clipindex>
					</link>
					<link>
						<linkclipref>408-13-02-03B33</linkclipref>
						<mediatype>audio</mediatype>
						<trackindex>2</trackindex>
						<clipindex>10</clipindex>
					</link>
					<link>
						<linkclipref>408-13-02-03B34</linkclipref>
						<mediatype>audio</mediatype>
						<trackindex>3</trackindex>
						<clipindex>10</clipindex>
					</link>
					<link>
						<linkclipref>408-13-02-03B35</linkclipref>
						<mediatype>audio</mediatype>
						<trackindex>4</trackindex>
						<clipindex>10</clipindex>
					</link>
					<link>
						<linkclipref>408-13-02-03B36</linkclipref>
						<mediatype>audio</mediatype>
						<trackindex>5</trackindex>
						<clipindex>10</clipindex>
					</link>
					<link>
						<linkclipref>408-13-02-03B37</linkclipref>
						<mediatype>audio</mediatype>
						<trackindex>6</trackindex>
						<clipindex>10</clipindex>
					</link>
					<multiclip id="9"/>
					<itemhistory>
						<uuid>9A0DC6DD-5D82-4D1A-8289-BD5BD7BDF706</uuid>
					</itemhistory>
				</clipitem>
				<clipitem id="408-13-01-03B42">
					<name>408-13-01-03B</name>
					<duration>3700</duration>
					<rate>
						<ntsc>FALSE</ntsc>
						<timebase>25</timebase>
					</rate>
					<in>1523</in>
					<out>1591</out>
					<start>1217</start>
					<end>1285</end>
					<enabled>TRUE</enabled>
					<masterclipid>408-13-01-03B2</masterclipid>
					<syncoffset>0</syncoffset>
					<logginginfo>
						<scene/>
						<shottake/>
						<lognote/>
						<good>FALSE</good>
					</logginginfo>
					<labels>
						<label2/>
					</labels>
					<comments>
						<mastercomment1/>
						<mastercomment2/>
						<mastercomment3/>
						<mastercomment4/>
					</comments>
					<file id="MW-013-1T03 "/>
					<filter>
						<effect>
							<name>Audio Levels</name>
							<effectid>audiolevels</effectid>
							<effectcategory>audiolevels</effectcategory>
							<effecttype>audiolevels</effecttype>
							<mediatype>audio</mediatype>
							<parameter>
								<name>Level</name>
								<parameterid>level</parameterid>
								<valuemin>0</valuemin>
								<valuemax>3.98109</valuemax>
								<value>1</value>
							</parameter>
						</effect>
					</filter>
					<filter>
						<effect>
							<name>Audio Pan</name>
							<effectid>audiopan</effectid>
							<effectcategory>audiopan</effectcategory>
							<effecttype>audiopan</effecttype>
							<mediatype>audio</mediatype>
							<parameter>
								<name>Pan</name>
								<parameterid>pan</parameterid>
								<valuemin>-1</valuemin>
								<valuemax>1</valuemax>
								<value>0</value>
							</parameter>
						</effect>
					</filter>
					<sourcetrack>
						<mediatype>audio</mediatype>
						<trackindex>5</trackindex>
					</sourcetrack>
					<link>
						<linkclipref>408-13-01-03B37</linkclipref>
						<mediatype>video</mediatype>
						<trackindex>1</trackindex>
						<clipindex>12</clipindex>
					</link>
					<link>
						<linkclipref>408-13-01-03B38</linkclipref>
						<mediatype>audio</mediatype>
						<trackindex>1</trackindex>
						<clipindex>11</clipindex>
					</link>
					<link>
						<linkclipref>408-13-01-03B39</linkclipref>
						<mediatype>audio</mediatype>
						<trackindex>2</trackindex>
						<clipindex>11</clipindex>
					</link>
					<link>
						<linkclipref>408-13-01-03B40</linkclipref>
						<mediatype>audio</mediatype>
						<trackindex>3</trackindex>
						<clipindex>11</clipindex>
					</link>
					<link>
						<linkclipref>408-13-01-03B41</linkclipref>
						<mediatype>audio</mediatype>
						<trackindex>4</trackindex>
						<clipindex>11</clipindex>
					</link>
					<link>
						<linkclipref>408-13-01-03B42</linkclipref>
						<mediatype>audio</mediatype>
						<trackindex>5</trackindex>
						<clipindex>11</clipindex>
					</link>
					<link>
						<linkclipref>408-13-01-03B43</linkclipref>
						<mediatype>audio</mediatype>
						<trackindex>6</trackindex>
						<clipindex>11</clipindex>
					</link>
					<multiclip id="10"/>
					<itemhistory>
						<uuid>4EC79E4F-F52B-4B51-B5CF-D1531579D07C</uuid>
					</itemhistory>
				</clipitem>
				<clipitem id="408-13-02-03B43">
					<name>408-13-02-03B</name>
					<duration>3750</duration>
					<rate>
						<ntsc>FALSE</ntsc>
						<timebase>25</timebase>
					</rate>
					<in>1923</in>
					<out>2018</out>
					<start>1285</start>
					<end>1380</end>
					<subframeoffset>0</subframeoffset>
					<enabled>TRUE</enabled>
					<masterclipid>408-13-02-03B1</masterclipid>
					<syncoffset>0</syncoffset>
					<logginginfo>
						<scene/>
						<shottake/>
						<lognote/>
						<good>FALSE</good>
					</logginginfo>
					<labels>
						<label2/>
					</labels>
					<comments>
						<mastercomment1/>
						<mastercomment2/>
						<mastercomment3/>
						<mastercomment4/>
					</comments>
					<file id="MW-013-2T03 "/>
					<filter>
						<effect>
							<name>Audio Levels</name>
							<effectid>audiolevels</effectid>
							<effectcategory>audiolevels</effectcategory>
							<effecttype>audiolevels</effecttype>
							<mediatype>audio</mediatype>
							<parameter>
								<name>Level</name>
								<parameterid>level</parameterid>
								<valuemin>0</valuemin>
								<valuemax>3.98109</valuemax>
								<value>1</value>
							</parameter>
						</effect>
					</filter>
					<filter>
						<effect>
							<name>Audio Pan</name>
							<effectid>audiopan</effectid>
							<effectcategory>audiopan</effectcategory>
							<effecttype>audiopan</effecttype>
							<mediatype>audio</mediatype>
							<parameter>
								<name>Pan</name>
								<parameterid>pan</parameterid>
								<valuemin>-1</valuemin>
								<valuemax>1</valuemax>
								<value>0</value>
							</parameter>
						</effect>
					</filter>
					<sourcetrack>
						<mediatype>audio</mediatype>
						<trackindex>5</trackindex>
					</sourcetrack>
					<link>
						<linkclipref>408-13-02-03B38</linkclipref>
						<mediatype>video</mediatype>
						<trackindex>1</trackindex>
						<clipindex>13</clipindex>
					</link>
					<link>
						<linkclipref>408-13-02-03B39</linkclipref>
						<mediatype>audio</mediatype>
						<trackindex>1</trackindex>
						<clipindex>12</clipindex>
					</link>
					<link>
						<linkclipref>408-13-02-03B40</linkclipref>
						<mediatype>audio</mediatype>
						<trackindex>2</trackindex>
						<clipindex>12</clipindex>
					</link>
					<link>
						<linkclipref>408-13-02-03B41</linkclipref>
						<mediatype>audio</mediatype>
						<trackindex>3</trackindex>
						<clipindex>12</clipindex>
					</link>
					<link>
						<linkclipref>408-13-02-03B42</linkclipref>
						<mediatype>audio</mediatype>
						<trackindex>4</trackindex>
						<clipindex>12</clipindex>
					</link>
					<link>
						<linkclipref>408-13-02-03B43</linkclipref>
						<mediatype>audio</mediatype>
						<trackindex>5</trackindex>
						<clipindex>12</clipindex>
					</link>
					<link>
						<linkclipref>408-13-02-03B44</linkclipref>
						<mediatype>audio</mediatype>
						<trackindex>6</trackindex>
						<clipindex>12</clipindex>
					</link>
					<multiclip id="11"/>
					<itemhistory>
						<uuid>C0A30FFE-2D2A-4B0E-A01C-56D62E875F58</uuid>
					</itemhistory>
				</clipitem>
				<clipitem id="408-13-03-05A6">
					<name>408-13-03-05A</name>
					<duration>2100</duration>
					<rate>
						<ntsc>FALSE</ntsc>
						<timebase>25</timebase>
					</rate>
					<in>497</in>
					<out>608</out>
					<start>1380</start>
					<end>1491</end>
					<subframeoffset>0</subframeoffset>
					<enabled>TRUE</enabled>
					<masterclipid>408-13-03-05A1</masterclipid>
					<syncoffset>0</syncoffset>
					<logginginfo>
						<scene/>
						<shottake/>
						<lognote/>
						<good>FALSE</good>
					</logginginfo>
					<labels>
						<label2/>
					</labels>
					<comments>
						<mastercomment1/>
						<mastercomment2/>
						<mastercomment3/>
						<mastercomment4/>
					</comments>
					<file id="MW-013-3T05 "/>
					<filter>
						<effect>
							<name>Audio Levels</name>
							<effectid>audiolevels</effectid>
							<effectcategory>audiolevels</effectcategory>
							<effecttype>audiolevels</effecttype>
							<mediatype>audio</mediatype>
							<parameter>
								<name>Level</name>
								<parameterid>level</parameterid>
								<valuemin>0</valuemin>
								<valuemax>3.98109</valuemax>
								<value>1</value>
							</parameter>
						</effect>
					</filter>
					<filter>
						<effect>
							<name>Audio Pan</name>
							<effectid>audiopan</effectid>
							<effectcategory>audiopan</effectcategory>
							<effecttype>audiopan</effecttype>
							<mediatype>audio</mediatype>
							<parameter>
								<name>Pan</name>
								<parameterid>pan</parameterid>
								<valuemin>-1</valuemin>
								<valuemax>1</valuemax>
								<value>0</value>
							</parameter>
						</effect>
					</filter>
					<sourcetrack>
						<mediatype>audio</mediatype>
						<trackindex>5</trackindex>
					</sourcetrack>
					<link>
						<linkclipref>408-13-03-05A</linkclipref>
						<mediatype>video</mediatype>
						<trackindex>1</trackindex>
						<clipindex>14</clipindex>
					</link>
					<link>
						<linkclipref>408-13-03-05A2</linkclipref>
						<mediatype>audio</mediatype>
						<trackindex>1</trackindex>
						<clipindex>13</clipindex>
					</link>
					<link>
						<linkclipref>408-13-03-05A3</linkclipref>
						<mediatype>audio</mediatype>
						<trackindex>2</trackindex>
						<clipindex>13</clipindex>
					</link>
					<link>
						<linkclipref>408-13-03-05A4</linkclipref>
						<mediatype>audio</mediatype>
						<trackindex>3</trackindex>
						<clipindex>13</clipindex>
					</link>
					<link>
						<linkclipref>408-13-03-05A5</linkclipref>
						<mediatype>audio</mediatype>
						<trackindex>4</trackindex>
						<clipindex>13</clipindex>
					</link>
					<link>
						<linkclipref>408-13-03-05A6</linkclipref>
						<mediatype>audio</mediatype>
						<trackindex>5</trackindex>
						<clipindex>13</clipindex>
					</link>
					<link>
						<linkclipref>408-13-03-05A7</linkclipref>
						<mediatype>audio</mediatype>
						<trackindex>6</trackindex>
						<clipindex>13</clipindex>
					</link>
					<multiclip id="12"/>
					<itemhistory>
						<uuid>C32C25E9-AA99-4846-AF2D-C68EE4206EA5</uuid>
					</itemhistory>
				</clipitem>
				<clipitem id="408-13-03-05B14">
					<name>408-13-03-05B</name>
					<duration>2100</duration>
					<rate>
						<ntsc>FALSE</ntsc>
						<timebase>25</timebase>
					</rate>
					<in>608</in>
					<out>690</out>
					<start>1491</start>
					<end>1573</end>
					<enabled>TRUE</enabled>
					<masterclipid>408-13-03-05B2</masterclipid>
					<syncoffset>0</syncoffset>
					<logginginfo>
						<scene/>
						<shottake/>
						<lognote/>
						<good>FALSE</good>
					</logginginfo>
					<labels>
						<label2/>
					</labels>
					<comments>
						<mastercomment1/>
						<mastercomment2/>
						<mastercomment3/>
						<mastercomment4/>
					</comments>
					<file id="MW-013-3T05 "/>
					<filter>
						<effect>
							<name>Audio Levels</name>
							<effectid>audiolevels</effectid>
							<effectcategory>audiolevels</effectcategory>
							<effecttype>audiolevels</effecttype>
							<mediatype>audio</mediatype>
							<parameter>
								<name>Level</name>
								<parameterid>level</parameterid>
								<valuemin>0</valuemin>
								<valuemax>3.98109</valuemax>
								<value>1</value>
							</parameter>
						</effect>
					</filter>
					<filter>
						<effect>
							<name>Audio Pan</name>
							<effectid>audiopan</effectid>
							<effectcategory>audiopan</effectcategory>
							<effecttype>audiopan</effecttype>
							<mediatype>audio</mediatype>
							<parameter>
								<name>Pan</name>
								<parameterid>pan</parameterid>
								<valuemin>-1</valuemin>
								<valuemax>1</valuemax>
								<value>0</value>
							</parameter>
						</effect>
					</filter>
					<sourcetrack>
						<mediatype>audio</mediatype>
						<trackindex>5</trackindex>
					</sourcetrack>
					<link>
						<linkclipref>408-13-03-05B9</linkclipref>
						<mediatype>video</mediatype>
						<trackindex>1</trackindex>
						<clipindex>15</clipindex>
					</link>
					<link>
						<linkclipref>408-13-03-05B10</linkclipref>
						<mediatype>audio</mediatype>
						<trackindex>1</trackindex>
						<clipindex>14</clipindex>
					</link>
					<link>
						<linkclipref>408-13-03-05B11</linkclipref>
						<mediatype>audio</mediatype>
						<trackindex>2</trackindex>
						<clipindex>14</clipindex>
					</link>
					<link>
						<linkclipref>408-13-03-05B12</linkclipref>
						<mediatype>audio</mediatype>
						<trackindex>3</trackindex>
						<clipindex>14</clipindex>
					</link>
					<link>
						<linkclipref>408-13-03-05B13</linkclipref>
						<mediatype>audio</mediatype>
						<trackindex>4</trackindex>
						<clipindex>14</clipindex>
					</link>
					<link>
						<linkclipref>408-13-03-05B14</linkclipref>
						<mediatype>audio</mediatype>
						<trackindex>5</trackindex>
						<clipindex>14</clipindex>
					</link>
					<link>
						<linkclipref>408-13-03-05B15</linkclipref>
						<mediatype>audio</mediatype>
						<trackindex>6</trackindex>
						<clipindex>14</clipindex>
					</link>
					<multiclip id="13"/>
					<itemhistory>
						<uuid>946547FB-03A5-4812-B21B-56612BDC0591</uuid>
					</itemhistory>
				</clipitem>
				<clipitem id="408-13-03-05A22">
					<name>408-13-03-05A</name>
					<duration>2100</duration>
					<rate>
						<ntsc>FALSE</ntsc>
						<timebase>25</timebase>
					</rate>
					<in>690</in>
					<out>973</out>
					<start>1573</start>
					<end>1856</end>
					<enabled>TRUE</enabled>
					<masterclipid>408-13-03-05A1</masterclipid>
					<syncoffset>0</syncoffset>
					<logginginfo>
						<scene/>
						<shottake/>
						<lognote/>
						<good>FALSE</good>
					</logginginfo>
					<labels>
						<label2/>
					</labels>
					<comments>
						<mastercomment1/>
						<mastercomment2/>
						<mastercomment3/>
						<mastercomment4/>
					</comments>
					<file id="MW-013-3T05 "/>
					<filter>
						<effect>
							<name>Audio Levels</name>
							<effectid>audiolevels</effectid>
							<effectcategory>audiolevels</effectcategory>
							<effecttype>audiolevels</effecttype>
							<mediatype>audio</mediatype>
							<parameter>
								<name>Level</name>
								<parameterid>level</parameterid>
								<valuemin>0</valuemin>
								<valuemax>3.98109</valuemax>
								<value>1</value>
							</parameter>
						</effect>
					</filter>
					<filter>
						<effect>
							<name>Audio Pan</name>
							<effectid>audiopan</effectid>
							<effectcategory>audiopan</effectcategory>
							<effecttype>audiopan</effecttype>
							<mediatype>audio</mediatype>
							<parameter>
								<name>Pan</name>
								<parameterid>pan</parameterid>
								<valuemin>-1</valuemin>
								<valuemax>1</valuemax>
								<value>0</value>
							</parameter>
						</effect>
					</filter>
					<sourcetrack>
						<mediatype>audio</mediatype>
						<trackindex>5</trackindex>
					</sourcetrack>
					<link>
						<linkclipref>408-13-03-05A17</linkclipref>
						<mediatype>video</mediatype>
						<trackindex>1</trackindex>
						<clipindex>16</clipindex>
					</link>
					<link>
						<linkclipref>408-13-03-05A18</linkclipref>
						<mediatype>audio</mediatype>
						<trackindex>1</trackindex>
						<clipindex>15</clipindex>
					</link>
					<link>
						<linkclipref>408-13-03-05A19</linkclipref>
						<mediatype>audio</mediatype>
						<trackindex>2</trackindex>
						<clipindex>15</clipindex>
					</link>
					<link>
						<linkclipref>408-13-03-05A20</linkclipref>
						<mediatype>audio</mediatype>
						<trackindex>3</trackindex>
						<clipindex>15</clipindex>
					</link>
					<link>
						<linkclipref>408-13-03-05A21</linkclipref>
						<mediatype>audio</mediatype>
						<trackindex>4</trackindex>
						<clipindex>15</clipindex>
					</link>
					<link>
						<linkclipref>408-13-03-05A22</linkclipref>
						<mediatype>audio</mediatype>
						<trackindex>5</trackindex>
						<clipindex>15</clipindex>
					</link>
					<link>
						<linkclipref>408-13-03-05A23</linkclipref>
						<mediatype>audio</mediatype>
						<trackindex>6</trackindex>
						<clipindex>15</clipindex>
					</link>
					<multiclip id="14"/>
					<itemhistory>
						<uuid>EF73C9CD-E2A8-4468-BF56-65C84C698876</uuid>
					</itemhistory>
				</clipitem>
				<clipitem id="408-13-02-03B50">
					<name>408-13-02-03B</name>
					<duration>3750</duration>
					<rate>
						<ntsc>FALSE</ntsc>
						<timebase>25</timebase>
					</rate>
					<in>2491</in>
					<out>2562</out>
					<start>1856</start>
					<end>1927</end>
					<enabled>TRUE</enabled>
					<masterclipid>408-13-02-03B1</masterclipid>
					<syncoffset>0</syncoffset>
					<logginginfo>
						<scene/>
						<shottake/>
						<lognote/>
						<good>FALSE</good>
					</logginginfo>
					<labels>
						<label2/>
					</labels>
					<comments>
						<mastercomment1/>
						<mastercomment2/>
						<mastercomment3/>
						<mastercomment4/>
					</comments>
					<file id="MW-013-2T03 "/>
					<filter>
						<effect>
							<name>Audio Levels</name>
							<effectid>audiolevels</effectid>
							<effectcategory>audiolevels</effectcategory>
							<effecttype>audiolevels</effecttype>
							<mediatype>audio</mediatype>
							<parameter>
								<name>Level</name>
								<parameterid>level</parameterid>
								<valuemin>0</valuemin>
								<valuemax>3.98109</valuemax>
								<value>1</value>
							</parameter>
						</effect>
					</filter>
					<filter>
						<effect>
							<name>Audio Pan</name>
							<effectid>audiopan</effectid>
							<effectcategory>audiopan</effectcategory>
							<effecttype>audiopan</effecttype>
							<mediatype>audio</mediatype>
							<parameter>
								<name>Pan</name>
								<parameterid>pan</parameterid>
								<valuemin>-1</valuemin>
								<valuemax>1</valuemax>
								<value>0</value>
							</parameter>
						</effect>
					</filter>
					<sourcetrack>
						<mediatype>audio</mediatype>
						<trackindex>5</trackindex>
					</sourcetrack>
					<link>
						<linkclipref>408-13-02-03B45</linkclipref>
						<mediatype>video</mediatype>
						<trackindex>1</trackindex>
						<clipindex>17</clipindex>
					</link>
					<link>
						<linkclipref>408-13-02-03B46</linkclipref>
						<mediatype>audio</mediatype>
						<trackindex>1</trackindex>
						<clipindex>16</clipindex>
					</link>
					<link>
						<linkclipref>408-13-02-03B47</linkclipref>
						<mediatype>audio</mediatype>
						<trackindex>2</trackindex>
						<clipindex>16</clipindex>
					</link>
					<link>
						<linkclipref>408-13-02-03B48</linkclipref>
						<mediatype>audio</mediatype>
						<trackindex>3</trackindex>
						<clipindex>16</clipindex>
					</link>
					<link>
						<linkclipref>408-13-02-03B49</linkclipref>
						<mediatype>audio</mediatype>
						<trackindex>4</trackindex>
						<clipindex>16</clipindex>
					</link>
					<link>
						<linkclipref>408-13-02-03B50</linkclipref>
						<mediatype>audio</mediatype>
						<trackindex>5</trackindex>
						<clipindex>16</clipindex>
					</link>
					<link>
						<linkclipref>408-13-02-03B51</linkclipref>
						<mediatype>audio</mediatype>
						<trackindex>6</trackindex>
						<clipindex>16</clipindex>
					</link>
					<multiclip id="15"/>
					<itemhistory>
						<uuid>60281A55-B02D-4CBB-86FB-35071DCB924B</uuid>
					</itemhistory>
				</clipitem>
				<clipitem id="408-13-01-03B49">
					<name>408-13-01-03B</name>
					<duration>3700</duration>
					<rate>
						<ntsc>FALSE</ntsc>
						<timebase>25</timebase>
					</rate>
					<in>2529</in>
					<out>2572</out>
					<start>1927</start>
					<end>1970</end>
					<enabled>TRUE</enabled>
					<masterclipid>408-13-01-03B2</masterclipid>
					<syncoffset>0</syncoffset>
					<logginginfo>
						<scene/>
						<shottake/>
						<lognote/>
						<good>FALSE</good>
					</logginginfo>
					<labels>
						<label2/>
					</labels>
					<comments>
						<mastercomment1/>
						<mastercomment2/>
						<mastercomment3/>
						<mastercomment4/>
					</comments>
					<file id="MW-013-1T03 "/>
					<filter>
						<effect>
							<name>Audio Levels</name>
							<effectid>audiolevels</effectid>
							<effectcategory>audiolevels</effectcategory>
							<effecttype>audiolevels</effecttype>
							<mediatype>audio</mediatype>
							<parameter>
								<name>Level</name>
								<parameterid>level</parameterid>
								<valuemin>0</valuemin>
								<valuemax>3.98109</valuemax>
								<value>1</value>
							</parameter>
						</effect>
					</filter>
					<filter>
						<effect>
							<name>Audio Pan</name>
							<effectid>audiopan</effectid>
							<effectcategory>audiopan</effectcategory>
							<effecttype>audiopan</effecttype>
							<mediatype>audio</mediatype>
							<parameter>
								<name>Pan</name>
								<parameterid>pan</parameterid>
								<valuemin>-1</valuemin>
								<valuemax>1</valuemax>
								<value>0</value>
							</parameter>
						</effect>
					</filter>
					<sourcetrack>
						<mediatype>audio</mediatype>
						<trackindex>5</trackindex>
					</sourcetrack>
					<link>
						<linkclipref>408-13-01-03B44</linkclipref>
						<mediatype>video</mediatype>
						<trackindex>1</trackindex>
						<clipindex>18</clipindex>
					</link>
					<link>
						<linkclipref>408-13-01-03B45</linkclipref>
						<mediatype>audio</mediatype>
						<trackindex>1</trackindex>
						<clipindex>17</clipindex>
					</link>
					<link>
						<linkclipref>408-13-01-03B46</linkclipref>
						<mediatype>audio</mediatype>
						<trackindex>2</trackindex>
						<clipindex>17</clipindex>
					</link>
					<link>
						<linkclipref>408-13-01-03B47</linkclipref>
						<mediatype>audio</mediatype>
						<trackindex>3</trackindex>
						<clipindex>17</clipindex>
					</link>
					<link>
						<linkclipref>408-13-01-03B48</linkclipref>
						<mediatype>audio</mediatype>
						<trackindex>4</trackindex>
						<clipindex>17</clipindex>
					</link>
					<link>
						<linkclipref>408-13-01-03B49</linkclipref>
						<mediatype>audio</mediatype>
						<trackindex>5</trackindex>
						<clipindex>17</clipindex>
					</link>
					<link>
						<linkclipref>408-13-01-03B50</linkclipref>
						<mediatype>audio</mediatype>
						<trackindex>6</trackindex>
						<clipindex>17</clipindex>
					</link>
					<multiclip id="16"/>
					<itemhistory>
						<uuid>5BE3C988-E5E4-45BA-A90D-F9DC264F0DDD</uuid>
					</itemhistory>
				</clipitem>
				<clipitem id="408-13-02-03B57">
					<name>408-13-02-03B</name>
					<duration>3750</duration>
					<rate>
						<ntsc>FALSE</ntsc>
						<timebase>25</timebase>
					</rate>
					<in>2585</in>
					<out>2827</out>
					<start>1970</start>
					<end>2212</end>
					<subframeoffset>0</subframeoffset>
					<enabled>TRUE</enabled>
					<masterclipid>408-13-02-03B1</masterclipid>
					<syncoffset>0</syncoffset>
					<logginginfo>
						<scene/>
						<shottake/>
						<lognote/>
						<good>FALSE</good>
					</logginginfo>
					<labels>
						<label2/>
					</labels>
					<comments>
						<mastercomment1/>
						<mastercomment2/>
						<mastercomment3/>
						<mastercomment4/>
					</comments>
					<file id="MW-013-2T03 "/>
					<filter>
						<effect>
							<name>Audio Levels</name>
							<effectid>audiolevels</effectid>
							<effectcategory>audiolevels</effectcategory>
							<effecttype>audiolevels</effecttype>
							<mediatype>audio</mediatype>
							<parameter>
								<name>Level</name>
								<parameterid>level</parameterid>
								<valuemin>0</valuemin>
								<valuemax>3.98109</valuemax>
								<value>1</value>
							</parameter>
						</effect>
					</filter>
					<filter>
						<effect>
							<name>Audio Pan</name>
							<effectid>audiopan</effectid>
							<effectcategory>audiopan</effectcategory>
							<effecttype>audiopan</effecttype>
							<mediatype>audio</mediatype>
							<parameter>
								<name>Pan</name>
								<parameterid>pan</parameterid>
								<valuemin>-1</valuemin>
								<valuemax>1</valuemax>
								<value>0</value>
							</parameter>
						</effect>
					</filter>
					<sourcetrack>
						<mediatype>audio</mediatype>
						<trackindex>5</trackindex>
					</sourcetrack>
					<link>
						<linkclipref>408-13-02-03B52</linkclipref>
						<mediatype>video</mediatype>
						<trackindex>1</trackindex>
						<clipindex>19</clipindex>
					</link>
					<link>
						<linkclipref>408-13-02-03B53</linkclipref>
						<mediatype>audio</mediatype>
						<trackindex>1</trackindex>
						<clipindex>18</clipindex>
					</link>
					<link>
						<linkclipref>408-13-02-03B54</linkclipref>
						<mediatype>audio</mediatype>
						<trackindex>2</trackindex>
						<clipindex>18</clipindex>
					</link>
					<link>
						<linkclipref>408-13-02-03B55</linkclipref>
						<mediatype>audio</mediatype>
						<trackindex>3</trackindex>
						<clipindex>18</clipindex>
					</link>
					<link>
						<linkclipref>408-13-02-03B56</linkclipref>
						<mediatype>audio</mediatype>
						<trackindex>4</trackindex>
						<clipindex>18</clipindex>
					</link>
					<link>
						<linkclipref>408-13-02-03B57</linkclipref>
						<mediatype>audio</mediatype>
						<trackindex>5</trackindex>
						<clipindex>18</clipindex>
					</link>
					<link>
						<linkclipref>408-13-02-03B58</linkclipref>
						<mediatype>audio</mediatype>
						<trackindex>6</trackindex>
						<clipindex>18</clipindex>
					</link>
					<multiclip id="17"/>
					<itemhistory>
						<uuid>234A6423-AD8B-430D-AF88-429F3479CF84</uuid>
					</itemhistory>
				</clipitem>
				<clipitem id="408-13-01-03B56">
					<name>408-13-01-03B</name>
					<duration>3700</duration>
					<rate>
						<ntsc>FALSE</ntsc>
						<timebase>25</timebase>
					</rate>
					<in>2799</in>
					<out>2816</out>
					<start>2212</start>
					<end>2229</end>
					<enabled>TRUE</enabled>
					<masterclipid>408-13-01-03B2</masterclipid>
					<syncoffset>0</syncoffset>
					<logginginfo>
						<scene/>
						<shottake/>
						<lognote/>
						<good>FALSE</good>
					</logginginfo>
					<labels>
						<label2/>
					</labels>
					<comments>
						<mastercomment1/>
						<mastercomment2/>
						<mastercomment3/>
						<mastercomment4/>
					</comments>
					<file id="MW-013-1T03 "/>
					<filter>
						<effect>
							<name>Audio Levels</name>
							<effectid>audiolevels</effectid>
							<effectcategory>audiolevels</effectcategory>
							<effecttype>audiolevels</effecttype>
							<mediatype>audio</mediatype>
							<parameter>
								<name>Level</name>
								<parameterid>level</parameterid>
								<valuemin>0</valuemin>
								<valuemax>3.98109</valuemax>
								<value>1</value>
							</parameter>
						</effect>
					</filter>
					<filter>
						<effect>
							<name>Audio Pan</name>
							<effectid>audiopan</effectid>
							<effectcategory>audiopan</effectcategory>
							<effecttype>audiopan</effecttype>
							<mediatype>audio</mediatype>
							<parameter>
								<name>Pan</name>
								<parameterid>pan</parameterid>
								<valuemin>-1</valuemin>
								<valuemax>1</valuemax>
								<value>0</value>
							</parameter>
						</effect>
					</filter>
					<sourcetrack>
						<mediatype>audio</mediatype>
						<trackindex>5</trackindex>
					</sourcetrack>
					<link>
						<linkclipref>408-13-01-03B51</linkclipref>
						<mediatype>video</mediatype>
						<trackindex>1</trackindex>
						<clipindex>20</clipindex>
					</link>
					<link>
						<linkclipref>408-13-01-03B52</linkclipref>
						<mediatype>audio</mediatype>
						<trackindex>1</trackindex>
						<clipindex>19</clipindex>
					</link>
					<link>
						<linkclipref>408-13-01-03B53</linkclipref>
						<mediatype>audio</mediatype>
						<trackindex>2</trackindex>
						<clipindex>19</clipindex>
					</link>
					<link>
						<linkclipref>408-13-01-03B54</linkclipref>
						<mediatype>audio</mediatype>
						<trackindex>3</trackindex>
						<clipindex>19</clipindex>
					</link>
					<link>
						<linkclipref>408-13-01-03B55</linkclipref>
						<mediatype>audio</mediatype>
						<trackindex>4</trackindex>
						<clipindex>19</clipindex>
					</link>
					<link>
						<linkclipref>408-13-01-03B56</linkclipref>
						<mediatype>audio</mediatype>
						<trackindex>5</trackindex>
						<clipindex>19</clipindex>
					</link>
					<link>
						<linkclipref>408-13-01-03B57</linkclipref>
						<mediatype>audio</mediatype>
						<trackindex>6</trackindex>
						<clipindex>19</clipindex>
					</link>
					<multiclip id="18"/>
					<itemhistory>
						<uuid>B00B9E0F-73EF-4EBD-B056-E2EE027DF4CB</uuid>
					</itemhistory>
				</clipitem>
				<clipitem id="408-13-03-05A29">
					<name>408-13-03-05A</name>
					<duration>2100</duration>
					<rate>
						<ntsc>FALSE</ntsc>
						<timebase>25</timebase>
					</rate>
					<in>1332</in>
					<out>1389</out>
					<start>2229</start>
					<end>2286</end>
					<subframeoffset>0</subframeoffset>
					<enabled>TRUE</enabled>
					<masterclipid>408-13-03-05A1</masterclipid>
					<syncoffset>0</syncoffset>
					<logginginfo>
						<scene/>
						<shottake/>
						<lognote/>
						<good>FALSE</good>
					</logginginfo>
					<labels>
						<label2/>
					</labels>
					<comments>
						<mastercomment1/>
						<mastercomment2/>
						<mastercomment3/>
						<mastercomment4/>
					</comments>
					<file id="MW-013-3T05 "/>
					<filter>
						<effect>
							<name>Audio Levels</name>
							<effectid>audiolevels</effectid>
							<effectcategory>audiolevels</effectcategory>
							<effecttype>audiolevels</effecttype>
							<mediatype>audio</mediatype>
							<parameter>
								<name>Level</name>
								<parameterid>level</parameterid>
								<valuemin>0</valuemin>
								<valuemax>3.98109</valuemax>
								<value>1</value>
							</parameter>
						</effect>
					</filter>
					<filter>
						<effect>
							<name>Audio Pan</name>
							<effectid>audiopan</effectid>
							<effectcategory>audiopan</effectcategory>
							<effecttype>audiopan</effecttype>
							<mediatype>audio</mediatype>
							<parameter>
								<name>Pan</name>
								<parameterid>pan</parameterid>
								<valuemin>-1</valuemin>
								<valuemax>1</valuemax>
								<value>0</value>
							</parameter>
						</effect>
					</filter>
					<sourcetrack>
						<mediatype>audio</mediatype>
						<trackindex>5</trackindex>
					</sourcetrack>
					<link>
						<linkclipref>408-13-03-05A24</linkclipref>
						<mediatype>video</mediatype>
						<trackindex>1</trackindex>
						<clipindex>21</clipindex>
					</link>
					<link>
						<linkclipref>408-13-03-05A25</linkclipref>
						<mediatype>audio</mediatype>
						<trackindex>1</trackindex>
						<clipindex>20</clipindex>
					</link>
					<link>
						<linkclipref>408-13-03-05A26</linkclipref>
						<mediatype>audio</mediatype>
						<trackindex>2</trackindex>
						<clipindex>20</clipindex>
					</link>
					<link>
						<linkclipref>408-13-03-05A27</linkclipref>
						<mediatype>audio</mediatype>
						<trackindex>3</trackindex>
						<clipindex>20</clipindex>
					</link>
					<link>
						<linkclipref>408-13-03-05A28</linkclipref>
						<mediatype>audio</mediatype>
						<trackindex>4</trackindex>
						<clipindex>20</clipindex>
					</link>
					<link>
						<linkclipref>408-13-03-05A29</linkclipref>
						<mediatype>audio</mediatype>
						<trackindex>5</trackindex>
						<clipindex>20</clipindex>
					</link>
					<link>
						<linkclipref>408-13-03-05A30</linkclipref>
						<mediatype>audio</mediatype>
						<trackindex>6</trackindex>
						<clipindex>20</clipindex>
					</link>
					<multiclip id="19"/>
					<itemhistory>
						<uuid>7D889E9A-4CA4-4CC4-9D87-0828A874FA27</uuid>
					</itemhistory>
				</clipitem>
				<clipitem id="408-13-01-03B63">
					<name>408-13-01-03B</name>
					<duration>3700</duration>
					<rate>
						<ntsc>FALSE</ntsc>
						<timebase>25</timebase>
					</rate>
					<in>2863</in>
					<out>2905</out>
					<start>2286</start>
					<end>2328</end>
					<enabled>TRUE</enabled>
					<masterclipid>408-13-01-03B2</masterclipid>
					<syncoffset>0</syncoffset>
					<logginginfo>
						<scene/>
						<shottake/>
						<lognote/>
						<good>FALSE</good>
					</logginginfo>
					<labels>
						<label2/>
					</labels>
					<comments>
						<mastercomment1/>
						<mastercomment2/>
						<mastercomment3/>
						<mastercomment4/>
					</comments>
					<file id="MW-013-1T03 "/>
					<filter>
						<effect>
							<name>Audio Levels</name>
							<effectid>audiolevels</effectid>
							<effectcategory>audiolevels</effectcategory>
							<effecttype>audiolevels</effecttype>
							<mediatype>audio</mediatype>
							<parameter>
								<name>Level</name>
								<parameterid>level</parameterid>
								<valuemin>0</valuemin>
								<valuemax>3.98109</valuemax>
								<value>1</value>
							</parameter>
						</effect>
					</filter>
					<filter>
						<effect>
							<name>Audio Pan</name>
							<effectid>audiopan</effectid>
							<effectcategory>audiopan</effectcategory>
							<effecttype>audiopan</effecttype>
							<mediatype>audio</mediatype>
							<parameter>
								<name>Pan</name>
								<parameterid>pan</parameterid>
								<valuemin>-1</valuemin>
								<valuemax>1</valuemax>
								<value>0</value>
							</parameter>
						</effect>
					</filter>
					<sourcetrack>
						<mediatype>audio</mediatype>
						<trackindex>5</trackindex>
					</sourcetrack>
					<link>
						<linkclipref>408-13-01-03B58</linkclipref>
						<mediatype>video</mediatype>
						<trackindex>1</trackindex>
						<clipindex>22</clipindex>
					</link>
					<link>
						<linkclipref>408-13-01-03B59</linkclipref>
						<mediatype>audio</mediatype>
						<trackindex>1</trackindex>
						<clipindex>21</clipindex>
					</link>
					<link>
						<linkclipref>408-13-01-03B60</linkclipref>
						<mediatype>audio</mediatype>
						<trackindex>2</trackindex>
						<clipindex>21</clipindex>
					</link>
					<link>
						<linkclipref>408-13-01-03B61</linkclipref>
						<mediatype>audio</mediatype>
						<trackindex>3</trackindex>
						<clipindex>21</clipindex>
					</link>
					<link>
						<linkclipref>408-13-01-03B62</linkclipref>
						<mediatype>audio</mediatype>
						<trackindex>4</trackindex>
						<clipindex>21</clipindex>
					</link>
					<link>
						<linkclipref>408-13-01-03B63</linkclipref>
						<mediatype>audio</mediatype>
						<trackindex>5</trackindex>
						<clipindex>21</clipindex>
					</link>
					<link>
						<linkclipref>408-13-01-03B64</linkclipref>
						<mediatype>audio</mediatype>
						<trackindex>6</trackindex>
						<clipindex>21</clipindex>
					</link>
					<multiclip id="20"/>
					<itemhistory>
						<uuid>905F2964-F1AF-49C3-92A0-7C481CCC08F5</uuid>
					</itemhistory>
				</clipitem>
				<clipitem id="408-13-03-05B21">
					<name>408-13-03-05B</name>
					<duration>2100</duration>
					<rate>
						<ntsc>FALSE</ntsc>
						<timebase>25</timebase>
					</rate>
					<in>1466</in>
					<out>1723</out>
					<start>2328</start>
					<end>2585</end>
					<enabled>TRUE</enabled>
					<masterclipid>408-13-03-05B2</masterclipid>
					<syncoffset>0</syncoffset>
					<logginginfo>
						<scene/>
						<shottake/>
						<lognote/>
						<good>FALSE</good>
					</logginginfo>
					<labels>
						<label2/>
					</labels>
					<comments>
						<mastercomment1/>
						<mastercomment2/>
						<mastercomment3/>
						<mastercomment4/>
					</comments>
					<file id="MW-013-3T05 "/>
					<filter>
						<effect>
							<name>Audio Levels</name>
							<effectid>audiolevels</effectid>
							<effectcategory>audiolevels</effectcategory>
							<effecttype>audiolevels</effecttype>
							<mediatype>audio</mediatype>
							<parameter>
								<name>Level</name>
								<parameterid>level</parameterid>
								<valuemin>0</valuemin>
								<valuemax>3.98109</valuemax>
								<value>1</value>
							</parameter>
						</effect>
					</filter>
					<filter>
						<effect>
							<name>Audio Pan</name>
							<effectid>audiopan</effectid>
							<effectcategory>audiopan</effectcategory>
							<effecttype>audiopan</effecttype>
							<mediatype>audio</mediatype>
							<parameter>
								<name>Pan</name>
								<parameterid>pan</parameterid>
								<valuemin>-1</valuemin>
								<valuemax>1</valuemax>
								<value>0</value>
							</parameter>
						</effect>
					</filter>
					<sourcetrack>
						<mediatype>audio</mediatype>
						<trackindex>5</trackindex>
					</sourcetrack>
					<link>
						<linkclipref>408-13-03-05B16</linkclipref>
						<mediatype>video</mediatype>
						<trackindex>1</trackindex>
						<clipindex>23</clipindex>
					</link>
					<link>
						<linkclipref>408-13-03-05B17</linkclipref>
						<mediatype>audio</mediatype>
						<trackindex>1</trackindex>
						<clipindex>22</clipindex>
					</link>
					<link>
						<linkclipref>408-13-03-05B18</linkclipref>
						<mediatype>audio</mediatype>
						<trackindex>2</trackindex>
						<clipindex>22</clipindex>
					</link>
					<link>
						<linkclipref>408-13-03-05B19</linkclipref>
						<mediatype>audio</mediatype>
						<trackindex>3</trackindex>
						<clipindex>22</clipindex>
					</link>
					<link>
						<linkclipref>408-13-03-05B20</linkclipref>
						<mediatype>audio</mediatype>
						<trackindex>4</trackindex>
						<clipindex>22</clipindex>
					</link>
					<link>
						<linkclipref>408-13-03-05B21</linkclipref>
						<mediatype>audio</mediatype>
						<trackindex>5</trackindex>
						<clipindex>22</clipindex>
					</link>
					<link>
						<linkclipref>408-13-03-05B22</linkclipref>
						<mediatype>audio</mediatype>
						<trackindex>6</trackindex>
						<clipindex>22</clipindex>
					</link>
					<multiclip id="21"/>
					<itemhistory>
						<uuid>8D00C0E6-6913-4949-A2CC-DF9C16897814</uuid>
					</itemhistory>
				</clipitem>
				<clipitem id="408-13-01-03B70">
					<name>408-13-01-03B</name>
					<duration>3700</duration>
					<rate>
						<ntsc>FALSE</ntsc>
						<timebase>25</timebase>
					</rate>
					<in>3139</in>
					<out>3215</out>
					<start>2585</start>
					<end>2661</end>
					<enabled>TRUE</enabled>
					<masterclipid>408-13-01-03B2</masterclipid>
					<syncoffset>0</syncoffset>
					<logginginfo>
						<scene/>
						<shottake/>
						<lognote/>
						<good>FALSE</good>
					</logginginfo>
					<labels>
						<label2/>
					</labels>
					<comments>
						<mastercomment1/>
						<mastercomment2/>
						<mastercomment3/>
						<mastercomment4/>
					</comments>
					<file id="MW-013-1T03 "/>
					<filter>
						<effect>
							<name>Audio Levels</name>
							<effectid>audiolevels</effectid>
							<effectcategory>audiolevels</effectcategory>
							<effecttype>audiolevels</effecttype>
							<mediatype>audio</mediatype>
							<parameter>
								<name>Level</name>
								<parameterid>level</parameterid>
								<valuemin>0</valuemin>
								<valuemax>3.98109</valuemax>
								<value>1</value>
							</parameter>
						</effect>
					</filter>
					<filter>
						<effect>
							<name>Audio Pan</name>
							<effectid>audiopan</effectid>
							<effectcategory>audiopan</effectcategory>
							<effecttype>audiopan</effecttype>
							<mediatype>audio</mediatype>
							<parameter>
								<name>Pan</name>
								<parameterid>pan</parameterid>
								<valuemin>-1</valuemin>
								<valuemax>1</valuemax>
								<value>0</value>
							</parameter>
						</effect>
					</filter>
					<sourcetrack>
						<mediatype>audio</mediatype>
						<trackindex>5</trackindex>
					</sourcetrack>
					<link>
						<linkclipref>408-13-01-03B65</linkclipref>
						<mediatype>video</mediatype>
						<trackindex>1</trackindex>
						<clipindex>24</clipindex>
					</link>
					<link>
						<linkclipref>408-13-01-03B66</linkclipref>
						<mediatype>audio</mediatype>
						<trackindex>1</trackindex>
						<clipindex>23</clipindex>
					</link>
					<link>
						<linkclipref>408-13-01-03B67</linkclipref>
						<mediatype>audio</mediatype>
						<trackindex>2</trackindex>
						<clipindex>23</clipindex>
					</link>
					<link>
						<linkclipref>408-13-01-03B68</linkclipref>
						<mediatype>audio</mediatype>
						<trackindex>3</trackindex>
						<clipindex>23</clipindex>
					</link>
					<link>
						<linkclipref>408-13-01-03B69</linkclipref>
						<mediatype>audio</mediatype>
						<trackindex>4</trackindex>
						<clipindex>23</clipindex>
					</link>
					<link>
						<linkclipref>408-13-01-03B70</linkclipref>
						<mediatype>audio</mediatype>
						<trackindex>5</trackindex>
						<clipindex>23</clipindex>
					</link>
					<link>
						<linkclipref>408-13-01-03B71</linkclipref>
						<mediatype>audio</mediatype>
						<trackindex>6</trackindex>
						<clipindex>23</clipindex>
					</link>
					<multiclip id="22"/>
					<itemhistory>
						<uuid>EBB2A1FD-C319-4CA3-8347-115E7D9BB56B</uuid>
					</itemhistory>
				</clipitem>
				<clipitem id="408-13-01-03A29">
					<name>408-13-01-03A</name>
					<duration>3700</duration>
					<rate>
						<ntsc>FALSE</ntsc>
						<timebase>25</timebase>
					</rate>
					<in>3215</in>
					<out>3594</out>
					<start>2661</start>
					<end>3040</end>
					<enabled>TRUE</enabled>
					<masterclipid>408-13-01-03A1</masterclipid>
					<syncoffset>0</syncoffset>
					<logginginfo>
						<scene/>
						<shottake/>
						<lognote/>
						<good>FALSE</good>
					</logginginfo>
					<labels>
						<label2/>
					</labels>
					<comments>
						<mastercomment1/>
						<mastercomment2/>
						<mastercomment3/>
						<mastercomment4/>
					</comments>
					<file id="MW-013-1T03 "/>
					<filter>
						<effect>
							<name>Audio Levels</name>
							<effectid>audiolevels</effectid>
							<effectcategory>audiolevels</effectcategory>
							<effecttype>audiolevels</effecttype>
							<mediatype>audio</mediatype>
							<parameter>
								<name>Level</name>
								<parameterid>level</parameterid>
								<valuemin>0</valuemin>
								<valuemax>3.98109</valuemax>
								<value>1</value>
							</parameter>
						</effect>
					</filter>
					<filter>
						<effect>
							<name>Audio Pan</name>
							<effectid>audiopan</effectid>
							<effectcategory>audiopan</effectcategory>
							<effecttype>audiopan</effecttype>
							<mediatype>audio</mediatype>
							<parameter>
								<name>Pan</name>
								<parameterid>pan</parameterid>
								<valuemin>-1</valuemin>
								<valuemax>1</valuemax>
								<value>0</value>
							</parameter>
						</effect>
					</filter>
					<sourcetrack>
						<mediatype>audio</mediatype>
						<trackindex>5</trackindex>
					</sourcetrack>
					<link>
						<linkclipref>408-13-01-03A24</linkclipref>
						<mediatype>video</mediatype>
						<trackindex>1</trackindex>
						<clipindex>25</clipindex>
					</link>
					<link>
						<linkclipref>408-13-01-03A25</linkclipref>
						<mediatype>audio</mediatype>
						<trackindex>1</trackindex>
						<clipindex>24</clipindex>
					</link>
					<link>
						<linkclipref>408-13-01-03A26</linkclipref>
						<mediatype>audio</mediatype>
						<trackindex>2</trackindex>
						<clipindex>24</clipindex>
					</link>
					<link>
						<linkclipref>408-13-01-03A27</linkclipref>
						<mediatype>audio</mediatype>
						<trackindex>3</trackindex>
						<clipindex>24</clipindex>
					</link>
					<link>
						<linkclipref>408-13-01-03A28</linkclipref>
						<mediatype>audio</mediatype>
						<trackindex>4</trackindex>
						<clipindex>24</clipindex>
					</link>
					<link>
						<linkclipref>408-13-01-03A29</linkclipref>
						<mediatype>audio</mediatype>
						<trackindex>5</trackindex>
						<clipindex>24</clipindex>
					</link>
					<link>
						<linkclipref>408-13-01-03A30</linkclipref>
						<mediatype>audio</mediatype>
						<trackindex>6</trackindex>
						<clipindex>24</clipindex>
					</link>
					<multiclip id="23"/>
					<itemhistory>
						<uuid>7D9784D0-262E-4ACB-84D9-8009FCBFFB9B</uuid>
					</itemhistory>
				</clipitem>
				<enabled>TRUE</enabled>
				<locked>FALSE</locked>
				<outputchannelindex>1</outputchannelindex>
			</track>
			<track>
				<clipitem id="408-13-01-03A7">
					<name>408-13-01-03A</name>
					<duration>3700</duration>
					<rate>
						<ntsc>FALSE</ntsc>
						<timebase>25</timebase>
					</rate>
					<in>485</in>
					<out>630</out>
					<start>59</start>
					<end>204</end>
					<subframeoffset>0</subframeoffset>
					<enabled>TRUE</enabled>
					<masterclipid>408-13-01-03A1</masterclipid>
					<syncoffset>0</syncoffset>
					<logginginfo>
						<scene/>
						<shottake/>
						<lognote/>
						<good>FALSE</good>
					</logginginfo>
					<labels>
						<label2/>
					</labels>
					<comments>
						<mastercomment1/>
						<mastercomment2/>
						<mastercomment3/>
						<mastercomment4/>
					</comments>
					<file id="MW-013-1T03 "/>
					<filter>
						<effect>
							<name>Audio Levels</name>
							<effectid>audiolevels</effectid>
							<effectcategory>audiolevels</effectcategory>
							<effecttype>audiolevels</effecttype>
							<mediatype>audio</mediatype>
							<parameter>
								<name>Level</name>
								<parameterid>level</parameterid>
								<valuemin>0</valuemin>
								<valuemax>3.98109</valuemax>
								<value>1</value>
							</parameter>
						</effect>
					</filter>
					<filter>
						<effect>
							<name>Audio Pan</name>
							<effectid>audiopan</effectid>
							<effectcategory>audiopan</effectcategory>
							<effecttype>audiopan</effecttype>
							<mediatype>audio</mediatype>
							<parameter>
								<name>Pan</name>
								<parameterid>pan</parameterid>
								<valuemin>-1</valuemin>
								<valuemax>1</valuemax>
								<value>0</value>
							</parameter>
						</effect>
					</filter>
					<sourcetrack>
						<mediatype>audio</mediatype>
						<trackindex>6</trackindex>
					</sourcetrack>
					<link>
						<linkclipref>408-13-01-03A</linkclipref>
						<mediatype>video</mediatype>
						<trackindex>1</trackindex>
						<clipindex>2</clipindex>
					</link>
					<link>
						<linkclipref>408-13-01-03A2</linkclipref>
						<mediatype>audio</mediatype>
						<trackindex>1</trackindex>
						<clipindex>1</clipindex>
					</link>
					<link>
						<linkclipref>408-13-01-03A3</linkclipref>
						<mediatype>audio</mediatype>
						<trackindex>2</trackindex>
						<clipindex>1</clipindex>
					</link>
					<link>
						<linkclipref>408-13-01-03A4</linkclipref>
						<mediatype>audio</mediatype>
						<trackindex>3</trackindex>
						<clipindex>1</clipindex>
					</link>
					<link>
						<linkclipref>408-13-01-03A5</linkclipref>
						<mediatype>audio</mediatype>
						<trackindex>4</trackindex>
						<clipindex>1</clipindex>
					</link>
					<link>
						<linkclipref>408-13-01-03A6</linkclipref>
						<mediatype>audio</mediatype>
						<trackindex>5</trackindex>
						<clipindex>1</clipindex>
					</link>
					<link>
						<linkclipref>408-13-01-03A7</linkclipref>
						<mediatype>audio</mediatype>
						<trackindex>6</trackindex>
						<clipindex>1</clipindex>
					</link>
					<multiclip id="29">
						<collapsed>FALSE</collapsed>
						<synctype>1</synctype>
						<angle>
							<activevideoangle>TRUE</activevideoangle>
							<activeaudioangle>TRUE</activeaudioangle>
							<clip id="408-13-01-03A8"/>
						</angle>
						<angle>
							<clip id="408-13-01-03B"/>
						</angle>
						<masterclipid>408-13-01-03A16</masterclipid>
					</multiclip>
					<itemhistory>
						<uuid>FB8034FD-E538-4C80-8E9C-CABA286CC859</uuid>
					</itemhistory>
				</clipitem>
				<clipitem id="408-13-01-03A23">
					<name>408-13-01-03A</name>
					<duration>3700</duration>
					<rate>
						<ntsc>FALSE</ntsc>
						<timebase>25</timebase>
					</rate>
					<in>627</in>
					<out>670</out>
					<start>212</start>
					<end>255</end>
					<subframeoffset>0</subframeoffset>
					<enabled>TRUE</enabled>
					<masterclipid>408-13-01-03A1</masterclipid>
					<syncoffset>0</syncoffset>
					<logginginfo>
						<scene/>
						<shottake/>
						<lognote/>
						<good>FALSE</good>
					</logginginfo>
					<labels>
						<label2/>
					</labels>
					<comments>
						<mastercomment1/>
						<mastercomment2/>
						<mastercomment3/>
						<mastercomment4/>
					</comments>
					<file id="MW-013-1T03 "/>
					<filter>
						<effect>
							<name>Audio Levels</name>
							<effectid>audiolevels</effectid>
							<effectcategory>audiolevels</effectcategory>
							<effecttype>audiolevels</effecttype>
							<mediatype>audio</mediatype>
							<parameter>
								<name>Level</name>
								<parameterid>level</parameterid>
								<valuemin>0</valuemin>
								<valuemax>3.98109</valuemax>
								<value>1</value>
							</parameter>
						</effect>
					</filter>
					<filter>
						<effect>
							<name>Audio Pan</name>
							<effectid>audiopan</effectid>
							<effectcategory>audiopan</effectcategory>
							<effecttype>audiopan</effecttype>
							<mediatype>audio</mediatype>
							<parameter>
								<name>Pan</name>
								<parameterid>pan</parameterid>
								<valuemin>-1</valuemin>
								<valuemax>1</valuemax>
								<value>0</value>
							</parameter>
						</effect>
					</filter>
					<sourcetrack>
						<mediatype>audio</mediatype>
						<trackindex>6</trackindex>
					</sourcetrack>
					<link>
						<linkclipref>408-13-01-03A17</linkclipref>
						<mediatype>video</mediatype>
						<trackindex>1</trackindex>
						<clipindex>3</clipindex>
					</link>
					<link>
						<linkclipref>408-13-01-03A18</linkclipref>
						<mediatype>audio</mediatype>
						<trackindex>1</trackindex>
						<clipindex>2</clipindex>
					</link>
					<link>
						<linkclipref>408-13-01-03A19</linkclipref>
						<mediatype>audio</mediatype>
						<trackindex>2</trackindex>
						<clipindex>2</clipindex>
					</link>
					<link>
						<linkclipref>408-13-01-03A20</linkclipref>
						<mediatype>audio</mediatype>
						<trackindex>3</trackindex>
						<clipindex>2</clipindex>
					</link>
					<link>
						<linkclipref>408-13-01-03A21</linkclipref>
						<mediatype>audio</mediatype>
						<trackindex>4</trackindex>
						<clipindex>2</clipindex>
					</link>
					<link>
						<linkclipref>408-13-01-03A22</linkclipref>
						<mediatype>audio</mediatype>
						<trackindex>5</trackindex>
						<clipindex>2</clipindex>
					</link>
					<link>
						<linkclipref>408-13-01-03A23</linkclipref>
						<mediatype>audio</mediatype>
						<trackindex>6</trackindex>
						<clipindex>2</clipindex>
					</link>
					<multiclip id="1"/>
					<itemhistory>
						<uuid>F1507EF6-91C7-4205-8403-DD8538CE24C7</uuid>
					</itemhistory>
				</clipitem>
				<clipitem id="408-13-01-03B15">
					<name>408-13-01-03B</name>
					<duration>3700</duration>
					<rate>
						<ntsc>FALSE</ntsc>
						<timebase>25</timebase>
					</rate>
					<in>670</in>
					<out>785</out>
					<start>255</start>
					<end>370</end>
					<enabled>TRUE</enabled>
					<masterclipid>408-13-01-03B2</masterclipid>
					<syncoffset>0</syncoffset>
					<logginginfo>
						<scene/>
						<shottake/>
						<lognote/>
						<good>FALSE</good>
					</logginginfo>
					<labels>
						<label2/>
					</labels>
					<comments>
						<mastercomment1/>
						<mastercomment2/>
						<mastercomment3/>
						<mastercomment4/>
					</comments>
					<file id="MW-013-1T03 "/>
					<filter>
						<effect>
							<name>Audio Levels</name>
							<effectid>audiolevels</effectid>
							<effectcategory>audiolevels</effectcategory>
							<effecttype>audiolevels</effecttype>
							<mediatype>audio</mediatype>
							<parameter>
								<name>Level</name>
								<parameterid>level</parameterid>
								<valuemin>0</valuemin>
								<valuemax>3.98109</valuemax>
								<value>1</value>
							</parameter>
						</effect>
					</filter>
					<filter>
						<effect>
							<name>Audio Pan</name>
							<effectid>audiopan</effectid>
							<effectcategory>audiopan</effectcategory>
							<effecttype>audiopan</effecttype>
							<mediatype>audio</mediatype>
							<parameter>
								<name>Pan</name>
								<parameterid>pan</parameterid>
								<valuemin>-1</valuemin>
								<valuemax>1</valuemax>
								<value>0</value>
							</parameter>
						</effect>
					</filter>
					<sourcetrack>
						<mediatype>audio</mediatype>
						<trackindex>6</trackindex>
					</sourcetrack>
					<link>
						<linkclipref>408-13-01-03B9</linkclipref>
						<mediatype>video</mediatype>
						<trackindex>1</trackindex>
						<clipindex>4</clipindex>
					</link>
					<link>
						<linkclipref>408-13-01-03B10</linkclipref>
						<mediatype>audio</mediatype>
						<trackindex>1</trackindex>
						<clipindex>3</clipindex>
					</link>
					<link>
						<linkclipref>408-13-01-03B11</linkclipref>
						<mediatype>audio</mediatype>
						<trackindex>2</trackindex>
						<clipindex>3</clipindex>
					</link>
					<link>
						<linkclipref>408-13-01-03B12</linkclipref>
						<mediatype>audio</mediatype>
						<trackindex>3</trackindex>
						<clipindex>3</clipindex>
					</link>
					<link>
						<linkclipref>408-13-01-03B13</linkclipref>
						<mediatype>audio</mediatype>
						<trackindex>4</trackindex>
						<clipindex>3</clipindex>
					</link>
					<link>
						<linkclipref>408-13-01-03B14</linkclipref>
						<mediatype>audio</mediatype>
						<trackindex>5</trackindex>
						<clipindex>3</clipindex>
					</link>
					<link>
						<linkclipref>408-13-01-03B15</linkclipref>
						<mediatype>audio</mediatype>
						<trackindex>6</trackindex>
						<clipindex>3</clipindex>
					</link>
					<multiclip id="2"/>
					<itemhistory>
						<uuid>A1C3BA82-47B3-43BC-8496-E0E3A57C4D0A</uuid>
					</itemhistory>
				</clipitem>
				<clipitem id="408-13-02-03B7">
					<name>408-13-02-03B</name>
					<duration>3750</duration>
					<rate>
						<ntsc>FALSE</ntsc>
						<timebase>25</timebase>
					</rate>
					<in>1017</in>
					<out>1119</out>
					<start>370</start>
					<end>472</end>
					<enabled>TRUE</enabled>
					<masterclipid>408-13-02-03B1</masterclipid>
					<syncoffset>0</syncoffset>
					<logginginfo>
						<scene/>
						<shottake/>
						<lognote/>
						<good>FALSE</good>
					</logginginfo>
					<labels>
						<label2/>
					</labels>
					<comments>
						<mastercomment1/>
						<mastercomment2/>
						<mastercomment3/>
						<mastercomment4/>
					</comments>
					<file id="MW-013-2T03 "/>
					<filter>
						<effect>
							<name>Audio Levels</name>
							<effectid>audiolevels</effectid>
							<effectcategory>audiolevels</effectcategory>
							<effecttype>audiolevels</effecttype>
							<mediatype>audio</mediatype>
							<parameter>
								<name>Level</name>
								<parameterid>level</parameterid>
								<valuemin>0</valuemin>
								<valuemax>3.98109</valuemax>
								<value>1</value>
							</parameter>
						</effect>
					</filter>
					<filter>
						<effect>
							<name>Audio Pan</name>
							<effectid>audiopan</effectid>
							<effectcategory>audiopan</effectcategory>
							<effecttype>audiopan</effecttype>
							<mediatype>audio</mediatype>
							<parameter>
								<name>Pan</name>
								<parameterid>pan</parameterid>
								<valuemin>-1</valuemin>
								<valuemax>1</valuemax>
								<value>0</value>
							</parameter>
						</effect>
					</filter>
					<sourcetrack>
						<mediatype>audio</mediatype>
						<trackindex>6</trackindex>
					</sourcetrack>
					<link>
						<linkclipref>408-13-02-03B</linkclipref>
						<mediatype>video</mediatype>
						<trackindex>1</trackindex>
						<clipindex>5</clipindex>
					</link>
					<link>
						<linkclipref>408-13-02-03B2</linkclipref>
						<mediatype>audio</mediatype>
						<trackindex>1</trackindex>
						<clipindex>4</clipindex>
					</link>
					<link>
						<linkclipref>408-13-02-03B3</linkclipref>
						<mediatype>audio</mediatype>
						<trackindex>2</trackindex>
						<clipindex>4</clipindex>
					</link>
					<link>
						<linkclipref>408-13-02-03B4</linkclipref>
						<mediatype>audio</mediatype>
						<trackindex>3</trackindex>
						<clipindex>4</clipindex>
					</link>
					<link>
						<linkclipref>408-13-02-03B5</linkclipref>
						<mediatype>audio</mediatype>
						<trackindex>4</trackindex>
						<clipindex>4</clipindex>
					</link>
					<link>
						<linkclipref>408-13-02-03B6</linkclipref>
						<mediatype>audio</mediatype>
						<trackindex>5</trackindex>
						<clipindex>4</clipindex>
					</link>
					<link>
						<linkclipref>408-13-02-03B7</linkclipref>
						<mediatype>audio</mediatype>
						<trackindex>6</trackindex>
						<clipindex>4</clipindex>
					</link>
					<multiclip id="3"/>
					<itemhistory>
						<uuid>6826BC47-B260-46A1-A271-5EA4A4665224</uuid>
					</itemhistory>
				</clipitem>
				<clipitem id="408-13-01-03B22">
					<name>408-13-01-03B</name>
					<duration>3700</duration>
					<rate>
						<ntsc>FALSE</ntsc>
						<timebase>25</timebase>
					</rate>
					<in>862</in>
					<out>887</out>
					<start>472</start>
					<end>497</end>
					<enabled>TRUE</enabled>
					<masterclipid>408-13-01-03B2</masterclipid>
					<syncoffset>0</syncoffset>
					<logginginfo>
						<scene/>
						<shottake/>
						<lognote/>
						<good>FALSE</good>
					</logginginfo>
					<labels>
						<label2/>
					</labels>
					<comments>
						<mastercomment1/>
						<mastercomment2/>
						<mastercomment3/>
						<mastercomment4/>
					</comments>
					<file id="MW-013-1T03 "/>
					<filter>
						<effect>
							<name>Audio Levels</name>
							<effectid>audiolevels</effectid>
							<effectcategory>audiolevels</effectcategory>
							<effecttype>audiolevels</effecttype>
							<mediatype>audio</mediatype>
							<parameter>
								<name>Level</name>
								<parameterid>level</parameterid>
								<valuemin>0</valuemin>
								<valuemax>3.98109</valuemax>
								<value>1</value>
							</parameter>
						</effect>
					</filter>
					<filter>
						<effect>
							<name>Audio Pan</name>
							<effectid>audiopan</effectid>
							<effectcategory>audiopan</effectcategory>
							<effecttype>audiopan</effecttype>
							<mediatype>audio</mediatype>
							<parameter>
								<name>Pan</name>
								<parameterid>pan</parameterid>
								<valuemin>-1</valuemin>
								<valuemax>1</valuemax>
								<value>0</value>
							</parameter>
						</effect>
					</filter>
					<sourcetrack>
						<mediatype>audio</mediatype>
						<trackindex>6</trackindex>
					</sourcetrack>
					<link>
						<linkclipref>408-13-01-03B16</linkclipref>
						<mediatype>video</mediatype>
						<trackindex>1</trackindex>
						<clipindex>6</clipindex>
					</link>
					<link>
						<linkclipref>408-13-01-03B17</linkclipref>
						<mediatype>audio</mediatype>
						<trackindex>1</trackindex>
						<clipindex>5</clipindex>
					</link>
					<link>
						<linkclipref>408-13-01-03B18</linkclipref>
						<mediatype>audio</mediatype>
						<trackindex>2</trackindex>
						<clipindex>5</clipindex>
					</link>
					<link>
						<linkclipref>408-13-01-03B19</linkclipref>
						<mediatype>audio</mediatype>
						<trackindex>3</trackindex>
						<clipindex>5</clipindex>
					</link>
					<link>
						<linkclipref>408-13-01-03B20</linkclipref>
						<mediatype>audio</mediatype>
						<trackindex>4</trackindex>
						<clipindex>5</clipindex>
					</link>
					<link>
						<linkclipref>408-13-01-03B21</linkclipref>
						<mediatype>audio</mediatype>
						<trackindex>5</trackindex>
						<clipindex>5</clipindex>
					</link>
					<link>
						<linkclipref>408-13-01-03B22</linkclipref>
						<mediatype>audio</mediatype>
						<trackindex>6</trackindex>
						<clipindex>5</clipindex>
					</link>
					<multiclip id="4"/>
					<itemhistory>
						<uuid>FAB3CB1C-E101-4A71-9374-7EF6B7FE246B</uuid>
					</itemhistory>
				</clipitem>
				<clipitem id="408-13-02-03B23">
					<name>408-13-02-03B</name>
					<duration>3750</duration>
					<rate>
						<ntsc>FALSE</ntsc>
						<timebase>25</timebase>
					</rate>
					<in>1138</in>
					<out>1263</out>
					<start>497</start>
					<end>622</end>
					<enabled>TRUE</enabled>
					<masterclipid>408-13-02-03B1</masterclipid>
					<syncoffset>0</syncoffset>
					<logginginfo>
						<scene/>
						<shottake/>
						<lognote/>
						<good>FALSE</good>
					</logginginfo>
					<labels>
						<label2/>
					</labels>
					<comments>
						<mastercomment1/>
						<mastercomment2/>
						<mastercomment3/>
						<mastercomment4/>
					</comments>
					<file id="MW-013-2T03 "/>
					<filter>
						<effect>
							<name>Audio Levels</name>
							<effectid>audiolevels</effectid>
							<effectcategory>audiolevels</effectcategory>
							<effecttype>audiolevels</effecttype>
							<mediatype>audio</mediatype>
							<parameter>
								<name>Level</name>
								<parameterid>level</parameterid>
								<valuemin>0</valuemin>
								<valuemax>3.98109</valuemax>
								<value>1</value>
							</parameter>
						</effect>
					</filter>
					<filter>
						<effect>
							<name>Audio Pan</name>
							<effectid>audiopan</effectid>
							<effectcategory>audiopan</effectcategory>
							<effecttype>audiopan</effecttype>
							<mediatype>audio</mediatype>
							<parameter>
								<name>Pan</name>
								<parameterid>pan</parameterid>
								<valuemin>-1</valuemin>
								<valuemax>1</valuemax>
								<value>0</value>
							</parameter>
						</effect>
					</filter>
					<sourcetrack>
						<mediatype>audio</mediatype>
						<trackindex>6</trackindex>
					</sourcetrack>
					<link>
						<linkclipref>408-13-02-03B17</linkclipref>
						<mediatype>video</mediatype>
						<trackindex>1</trackindex>
						<clipindex>7</clipindex>
					</link>
					<link>
						<linkclipref>408-13-02-03B18</linkclipref>
						<mediatype>audio</mediatype>
						<trackindex>1</trackindex>
						<clipindex>6</clipindex>
					</link>
					<link>
						<linkclipref>408-13-02-03B19</linkclipref>
						<mediatype>audio</mediatype>
						<trackindex>2</trackindex>
						<clipindex>6</clipindex>
					</link>
					<link>
						<linkclipref>408-13-02-03B20</linkclipref>
						<mediatype>audio</mediatype>
						<trackindex>3</trackindex>
						<clipindex>6</clipindex>
					</link>
					<link>
						<linkclipref>408-13-02-03B21</linkclipref>
						<mediatype>audio</mediatype>
						<trackindex>4</trackindex>
						<clipindex>6</clipindex>
					</link>
					<link>
						<linkclipref>408-13-02-03B22</linkclipref>
						<mediatype>audio</mediatype>
						<trackindex>5</trackindex>
						<clipindex>6</clipindex>
					</link>
					<link>
						<linkclipref>408-13-02-03B23</linkclipref>
						<mediatype>audio</mediatype>
						<trackindex>6</trackindex>
						<clipindex>6</clipindex>
					</link>
					<multiclip id="5"/>
					<itemhistory>
						<uuid>25208F97-5E39-4602-BE3C-8EEE0F6AF8A2</uuid>
					</itemhistory>
				</clipitem>
				<clipitem id="408-13-01-03B29">
					<name>408-13-01-03B</name>
					<duration>3700</duration>
					<rate>
						<ntsc>FALSE</ntsc>
						<timebase>25</timebase>
					</rate>
					<in>999</in>
					<out>1058</out>
					<start>622</start>
					<end>681</end>
					<enabled>TRUE</enabled>
					<masterclipid>408-13-01-03B2</masterclipid>
					<syncoffset>0</syncoffset>
					<logginginfo>
						<scene/>
						<shottake/>
						<lognote/>
						<good>FALSE</good>
					</logginginfo>
					<labels>
						<label2/>
					</labels>
					<comments>
						<mastercomment1/>
						<mastercomment2/>
						<mastercomment3/>
						<mastercomment4/>
					</comments>
					<file id="MW-013-1T03 "/>
					<filter>
						<effect>
							<name>Audio Levels</name>
							<effectid>audiolevels</effectid>
							<effectcategory>audiolevels</effectcategory>
							<effecttype>audiolevels</effecttype>
							<mediatype>audio</mediatype>
							<parameter>
								<name>Level</name>
								<parameterid>level</parameterid>
								<valuemin>0</valuemin>
								<valuemax>3.98109</valuemax>
								<value>1</value>
							</parameter>
						</effect>
					</filter>
					<filter>
						<effect>
							<name>Audio Pan</name>
							<effectid>audiopan</effectid>
							<effectcategory>audiopan</effectcategory>
							<effecttype>audiopan</effecttype>
							<mediatype>audio</mediatype>
							<parameter>
								<name>Pan</name>
								<parameterid>pan</parameterid>
								<valuemin>-1</valuemin>
								<valuemax>1</valuemax>
								<value>0</value>
							</parameter>
						</effect>
					</filter>
					<sourcetrack>
						<mediatype>audio</mediatype>
						<trackindex>6</trackindex>
					</sourcetrack>
					<link>
						<linkclipref>408-13-01-03B23</linkclipref>
						<mediatype>video</mediatype>
						<trackindex>1</trackindex>
						<clipindex>8</clipindex>
					</link>
					<link>
						<linkclipref>408-13-01-03B24</linkclipref>
						<mediatype>audio</mediatype>
						<trackindex>1</trackindex>
						<clipindex>7</clipindex>
					</link>
					<link>
						<linkclipref>408-13-01-03B25</linkclipref>
						<mediatype>audio</mediatype>
						<trackindex>2</trackindex>
						<clipindex>7</clipindex>
					</link>
					<link>
						<linkclipref>408-13-01-03B26</linkclipref>
						<mediatype>audio</mediatype>
						<trackindex>3</trackindex>
						<clipindex>7</clipindex>
					</link>
					<link>
						<linkclipref>408-13-01-03B27</linkclipref>
						<mediatype>audio</mediatype>
						<trackindex>4</trackindex>
						<clipindex>7</clipindex>
					</link>
					<link>
						<linkclipref>408-13-01-03B28</linkclipref>
						<mediatype>audio</mediatype>
						<trackindex>5</trackindex>
						<clipindex>7</clipindex>
					</link>
					<link>
						<linkclipref>408-13-01-03B29</linkclipref>
						<mediatype>audio</mediatype>
						<trackindex>6</trackindex>
						<clipindex>7</clipindex>
					</link>
					<multiclip id="6"/>
					<itemhistory>
						<uuid>D344DE52-F648-4B61-BDC5-6A32633946BB</uuid>
					</itemhistory>
				</clipitem>
				<clipitem id="408-13-02-03B30">
					<name>408-13-02-03B</name>
					<duration>3750</duration>
					<rate>
						<ntsc>FALSE</ntsc>
						<timebase>25</timebase>
					</rate>
					<in>1317</in>
					<out>1528</out>
					<start>681</start>
					<end>892</end>
					<enabled>TRUE</enabled>
					<masterclipid>408-13-02-03B1</masterclipid>
					<syncoffset>0</syncoffset>
					<logginginfo>
						<scene/>
						<shottake/>
						<lognote/>
						<good>FALSE</good>
					</logginginfo>
					<labels>
						<label2/>
					</labels>
					<comments>
						<mastercomment1/>
						<mastercomment2/>
						<mastercomment3/>
						<mastercomment4/>
					</comments>
					<file id="MW-013-2T03 "/>
					<filter>
						<effect>
							<name>Audio Levels</name>
							<effectid>audiolevels</effectid>
							<effectcategory>audiolevels</effectcategory>
							<effecttype>audiolevels</effecttype>
							<mediatype>audio</mediatype>
							<parameter>
								<name>Level</name>
								<parameterid>level</parameterid>
								<valuemin>0</valuemin>
								<valuemax>3.98109</valuemax>
								<value>1</value>
							</parameter>
						</effect>
					</filter>
					<filter>
						<effect>
							<name>Audio Pan</name>
							<effectid>audiopan</effectid>
							<effectcategory>audiopan</effectcategory>
							<effecttype>audiopan</effecttype>
							<mediatype>audio</mediatype>
							<parameter>
								<name>Pan</name>
								<parameterid>pan</parameterid>
								<valuemin>-1</valuemin>
								<valuemax>1</valuemax>
								<value>0</value>
							</parameter>
						</effect>
					</filter>
					<sourcetrack>
						<mediatype>audio</mediatype>
						<trackindex>6</trackindex>
					</sourcetrack>
					<link>
						<linkclipref>408-13-02-03B24</linkclipref>
						<mediatype>video</mediatype>
						<trackindex>1</trackindex>
						<clipindex>9</clipindex>
					</link>
					<link>
						<linkclipref>408-13-02-03B25</linkclipref>
						<mediatype>audio</mediatype>
						<trackindex>1</trackindex>
						<clipindex>8</clipindex>
					</link>
					<link>
						<linkclipref>408-13-02-03B26</linkclipref>
						<mediatype>audio</mediatype>
						<trackindex>2</trackindex>
						<clipindex>8</clipindex>
					</link>
					<link>
						<linkclipref>408-13-02-03B27</linkclipref>
						<mediatype>audio</mediatype>
						<trackindex>3</trackindex>
						<clipindex>8</clipindex>
					</link>
					<link>
						<linkclipref>408-13-02-03B28</linkclipref>
						<mediatype>audio</mediatype>
						<trackindex>4</trackindex>
						<clipindex>8</clipindex>
					</link>
					<link>
						<linkclipref>408-13-02-03B29</linkclipref>
						<mediatype>audio</mediatype>
						<trackindex>5</trackindex>
						<clipindex>8</clipindex>
					</link>
					<link>
						<linkclipref>408-13-02-03B30</linkclipref>
						<mediatype>audio</mediatype>
						<trackindex>6</trackindex>
						<clipindex>8</clipindex>
					</link>
					<multiclip id="7"/>
					<itemhistory>
						<uuid>DB4E09EB-58B1-4BC1-B9AE-88FEF638D254</uuid>
					</itemhistory>
				</clipitem>
				<clipitem id="408-13-01-03B36">
					<name>408-13-01-03B</name>
					<duration>3700</duration>
					<rate>
						<ntsc>FALSE</ntsc>
						<timebase>25</timebase>
					</rate>
					<in>1230</in>
					<out>1262</out>
					<start>892</start>
					<end>924</end>
					<enabled>TRUE</enabled>
					<masterclipid>408-13-01-03B2</masterclipid>
					<syncoffset>0</syncoffset>
					<logginginfo>
						<scene/>
						<shottake/>
						<lognote/>
						<good>FALSE</good>
					</logginginfo>
					<labels>
						<label2/>
					</labels>
					<comments>
						<mastercomment1/>
						<mastercomment2/>
						<mastercomment3/>
						<mastercomment4/>
					</comments>
					<file id="MW-013-1T03 "/>
					<filter>
						<effect>
							<name>Audio Levels</name>
							<effectid>audiolevels</effectid>
							<effectcategory>audiolevels</effectcategory>
							<effecttype>audiolevels</effecttype>
							<mediatype>audio</mediatype>
							<parameter>
								<name>Level</name>
								<parameterid>level</parameterid>
								<valuemin>0</valuemin>
								<valuemax>3.98109</valuemax>
								<value>1</value>
							</parameter>
						</effect>
					</filter>
					<filter>
						<effect>
							<name>Audio Pan</name>
							<effectid>audiopan</effectid>
							<effectcategory>audiopan</effectcategory>
							<effecttype>audiopan</effecttype>
							<mediatype>audio</mediatype>
							<parameter>
								<name>Pan</name>
								<parameterid>pan</parameterid>
								<valuemin>-1</valuemin>
								<valuemax>1</valuemax>
								<value>0</value>
							</parameter>
						</effect>
					</filter>
					<sourcetrack>
						<mediatype>audio</mediatype>
						<trackindex>6</trackindex>
					</sourcetrack>
					<link>
						<linkclipref>408-13-01-03B30</linkclipref>
						<mediatype>video</mediatype>
						<trackindex>1</trackindex>
						<clipindex>10</clipindex>
					</link>
					<link>
						<linkclipref>408-13-01-03B31</linkclipref>
						<mediatype>audio</mediatype>
						<trackindex>1</trackindex>
						<clipindex>9</clipindex>
					</link>
					<link>
						<linkclipref>408-13-01-03B32</linkclipref>
						<mediatype>audio</mediatype>
						<trackindex>2</trackindex>
						<clipindex>9</clipindex>
					</link>
					<link>
						<linkclipref>408-13-01-03B33</linkclipref>
						<mediatype>audio</mediatype>
						<trackindex>3</trackindex>
						<clipindex>9</clipindex>
					</link>
					<link>
						<linkclipref>408-13-01-03B34</linkclipref>
						<mediatype>audio</mediatype>
						<trackindex>4</trackindex>
						<clipindex>9</clipindex>
					</link>
					<link>
						<linkclipref>408-13-01-03B35</linkclipref>
						<mediatype>audio</mediatype>
						<trackindex>5</trackindex>
						<clipindex>9</clipindex>
					</link>
					<link>
						<linkclipref>408-13-01-03B36</linkclipref>
						<mediatype>audio</mediatype>
						<trackindex>6</trackindex>
						<clipindex>9</clipindex>
					</link>
					<multiclip id="8"/>
					<itemhistory>
						<uuid>A4E53261-0150-41FB-AB70-AA322E414751</uuid>
					</itemhistory>
				</clipitem>
				<clipitem id="408-13-02-03B37">
					<name>408-13-02-03B</name>
					<duration>3750</duration>
					<rate>
						<ntsc>FALSE</ntsc>
						<timebase>25</timebase>
					</rate>
					<in>1569</in>
					<out>1862</out>
					<start>924</start>
					<end>1217</end>
					<subframeoffset>0</subframeoffset>
					<enabled>TRUE</enabled>
					<masterclipid>408-13-02-03B1</masterclipid>
					<syncoffset>0</syncoffset>
					<logginginfo>
						<scene/>
						<shottake/>
						<lognote/>
						<good>FALSE</good>
					</logginginfo>
					<labels>
						<label2/>
					</labels>
					<comments>
						<mastercomment1/>
						<mastercomment2/>
						<mastercomment3/>
						<mastercomment4/>
					</comments>
					<file id="MW-013-2T03 "/>
					<filter>
						<effect>
							<name>Audio Levels</name>
							<effectid>audiolevels</effectid>
							<effectcategory>audiolevels</effectcategory>
							<effecttype>audiolevels</effecttype>
							<mediatype>audio</mediatype>
							<parameter>
								<name>Level</name>
								<parameterid>level</parameterid>
								<valuemin>0</valuemin>
								<valuemax>3.98109</valuemax>
								<value>1</value>
							</parameter>
						</effect>
					</filter>
					<filter>
						<effect>
							<name>Audio Pan</name>
							<effectid>audiopan</effectid>
							<effectcategory>audiopan</effectcategory>
							<effecttype>audiopan</effecttype>
							<mediatype>audio</mediatype>
							<parameter>
								<name>Pan</name>
								<parameterid>pan</parameterid>
								<valuemin>-1</valuemin>
								<valuemax>1</valuemax>
								<value>0</value>
							</parameter>
						</effect>
					</filter>
					<sourcetrack>
						<mediatype>audio</mediatype>
						<trackindex>6</trackindex>
					</sourcetrack>
					<link>
						<linkclipref>408-13-02-03B31</linkclipref>
						<mediatype>video</mediatype>
						<trackindex>1</trackindex>
						<clipindex>11</clipindex>
					</link>
					<link>
						<linkclipref>408-13-02-03B32</linkclipref>
						<mediatype>audio</mediatype>
						<trackindex>1</trackindex>
						<clipindex>10</clipindex>
					</link>
					<link>
						<linkclipref>408-13-02-03B33</linkclipref>
						<mediatype>audio</mediatype>
						<trackindex>2</trackindex>
						<clipindex>10</clipindex>
					</link>
					<link>
						<linkclipref>408-13-02-03B34</linkclipref>
						<mediatype>audio</mediatype>
						<trackindex>3</trackindex>
						<clipindex>10</clipindex>
					</link>
					<link>
						<linkclipref>408-13-02-03B35</linkclipref>
						<mediatype>audio</mediatype>
						<trackindex>4</trackindex>
						<clipindex>10</clipindex>
					</link>
					<link>
						<linkclipref>408-13-02-03B36</linkclipref>
						<mediatype>audio</mediatype>
						<trackindex>5</trackindex>
						<clipindex>10</clipindex>
					</link>
					<link>
						<linkclipref>408-13-02-03B37</linkclipref>
						<mediatype>audio</mediatype>
						<trackindex>6</trackindex>
						<clipindex>10</clipindex>
					</link>
					<multiclip id="9"/>
					<itemhistory>
						<uuid>6EF5DF4C-FF40-4BE7-9C53-02F4C09F27A1</uuid>
					</itemhistory>
				</clipitem>
				<clipitem id="408-13-01-03B43">
					<name>408-13-01-03B</name>
					<duration>3700</duration>
					<rate>
						<ntsc>FALSE</ntsc>
						<timebase>25</timebase>
					</rate>
					<in>1523</in>
					<out>1591</out>
					<start>1217</start>
					<end>1285</end>
					<enabled>TRUE</enabled>
					<masterclipid>408-13-01-03B2</masterclipid>
					<syncoffset>0</syncoffset>
					<logginginfo>
						<scene/>
						<shottake/>
						<lognote/>
						<good>FALSE</good>
					</logginginfo>
					<labels>
						<label2/>
					</labels>
					<comments>
						<mastercomment1/>
						<mastercomment2/>
						<mastercomment3/>
						<mastercomment4/>
					</comments>
					<file id="MW-013-1T03 "/>
					<filter>
						<effect>
							<name>Audio Levels</name>
							<effectid>audiolevels</effectid>
							<effectcategory>audiolevels</effectcategory>
							<effecttype>audiolevels</effecttype>
							<mediatype>audio</mediatype>
							<parameter>
								<name>Level</name>
								<parameterid>level</parameterid>
								<valuemin>0</valuemin>
								<valuemax>3.98109</valuemax>
								<value>1</value>
							</parameter>
						</effect>
					</filter>
					<filter>
						<effect>
							<name>Audio Pan</name>
							<effectid>audiopan</effectid>
							<effectcategory>audiopan</effectcategory>
							<effecttype>audiopan</effecttype>
							<mediatype>audio</mediatype>
							<parameter>
								<name>Pan</name>
								<parameterid>pan</parameterid>
								<valuemin>-1</valuemin>
								<valuemax>1</valuemax>
								<value>0</value>
							</parameter>
						</effect>
					</filter>
					<sourcetrack>
						<mediatype>audio</mediatype>
						<trackindex>6</trackindex>
					</sourcetrack>
					<link>
						<linkclipref>408-13-01-03B37</linkclipref>
						<mediatype>video</mediatype>
						<trackindex>1</trackindex>
						<clipindex>12</clipindex>
					</link>
					<link>
						<linkclipref>408-13-01-03B38</linkclipref>
						<mediatype>audio</mediatype>
						<trackindex>1</trackindex>
						<clipindex>11</clipindex>
					</link>
					<link>
						<linkclipref>408-13-01-03B39</linkclipref>
						<mediatype>audio</mediatype>
						<trackindex>2</trackindex>
						<clipindex>11</clipindex>
					</link>
					<link>
						<linkclipref>408-13-01-03B40</linkclipref>
						<mediatype>audio</mediatype>
						<trackindex>3</trackindex>
						<clipindex>11</clipindex>
					</link>
					<link>
						<linkclipref>408-13-01-03B41</linkclipref>
						<mediatype>audio</mediatype>
						<trackindex>4</trackindex>
						<clipindex>11</clipindex>
					</link>
					<link>
						<linkclipref>408-13-01-03B42</linkclipref>
						<mediatype>audio</mediatype>
						<trackindex>5</trackindex>
						<clipindex>11</clipindex>
					</link>
					<link>
						<linkclipref>408-13-01-03B43</linkclipref>
						<mediatype>audio</mediatype>
						<trackindex>6</trackindex>
						<clipindex>11</clipindex>
					</link>
					<multiclip id="10"/>
					<itemhistory>
						<uuid>47CDCBF9-D0BF-46E9-877F-632D0C8D7D1C</uuid>
					</itemhistory>
				</clipitem>
				<clipitem id="408-13-02-03B44">
					<name>408-13-02-03B</name>
					<duration>3750</duration>
					<rate>
						<ntsc>FALSE</ntsc>
						<timebase>25</timebase>
					</rate>
					<in>1923</in>
					<out>2018</out>
					<start>1285</start>
					<end>1380</end>
					<subframeoffset>0</subframeoffset>
					<enabled>TRUE</enabled>
					<masterclipid>408-13-02-03B1</masterclipid>
					<syncoffset>0</syncoffset>
					<logginginfo>
						<scene/>
						<shottake/>
						<lognote/>
						<good>FALSE</good>
					</logginginfo>
					<labels>
						<label2/>
					</labels>
					<comments>
						<mastercomment1/>
						<mastercomment2/>
						<mastercomment3/>
						<mastercomment4/>
					</comments>
					<file id="MW-013-2T03 "/>
					<filter>
						<effect>
							<name>Audio Levels</name>
							<effectid>audiolevels</effectid>
							<effectcategory>audiolevels</effectcategory>
							<effecttype>audiolevels</effecttype>
							<mediatype>audio</mediatype>
							<parameter>
								<name>Level</name>
								<parameterid>level</parameterid>
								<valuemin>0</valuemin>
								<valuemax>3.98109</valuemax>
								<value>1</value>
							</parameter>
						</effect>
					</filter>
					<filter>
						<effect>
							<name>Audio Pan</name>
							<effectid>audiopan</effectid>
							<effectcategory>audiopan</effectcategory>
							<effecttype>audiopan</effecttype>
							<mediatype>audio</mediatype>
							<parameter>
								<name>Pan</name>
								<parameterid>pan</parameterid>
								<valuemin>-1</valuemin>
								<valuemax>1</valuemax>
								<value>0</value>
							</parameter>
						</effect>
					</filter>
					<sourcetrack>
						<mediatype>audio</mediatype>
						<trackindex>6</trackindex>
					</sourcetrack>
					<link>
						<linkclipref>408-13-02-03B38</linkclipref>
						<mediatype>video</mediatype>
						<trackindex>1</trackindex>
						<clipindex>13</clipindex>
					</link>
					<link>
						<linkclipref>408-13-02-03B39</linkclipref>
						<mediatype>audio</mediatype>
						<trackindex>1</trackindex>
						<clipindex>12</clipindex>
					</link>
					<link>
						<linkclipref>408-13-02-03B40</linkclipref>
						<mediatype>audio</mediatype>
						<trackindex>2</trackindex>
						<clipindex>12</clipindex>
					</link>
					<link>
						<linkclipref>408-13-02-03B41</linkclipref>
						<mediatype>audio</mediatype>
						<trackindex>3</trackindex>
						<clipindex>12</clipindex>
					</link>
					<link>
						<linkclipref>408-13-02-03B42</linkclipref>
						<mediatype>audio</mediatype>
						<trackindex>4</trackindex>
						<clipindex>12</clipindex>
					</link>
					<link>
						<linkclipref>408-13-02-03B43</linkclipref>
						<mediatype>audio</mediatype>
						<trackindex>5</trackindex>
						<clipindex>12</clipindex>
					</link>
					<link>
						<linkclipref>408-13-02-03B44</linkclipref>
						<mediatype>audio</mediatype>
						<trackindex>6</trackindex>
						<clipindex>12</clipindex>
					</link>
					<multiclip id="11"/>
					<itemhistory>
						<uuid>004D46FE-94E0-400C-A3FB-927C15A7F10F</uuid>
					</itemhistory>
				</clipitem>
				<clipitem id="408-13-03-05A7">
					<name>408-13-03-05A</name>
					<duration>2100</duration>
					<rate>
						<ntsc>FALSE</ntsc>
						<timebase>25</timebase>
					</rate>
					<in>497</in>
					<out>608</out>
					<start>1380</start>
					<end>1491</end>
					<subframeoffset>0</subframeoffset>
					<enabled>TRUE</enabled>
					<masterclipid>408-13-03-05A1</masterclipid>
					<syncoffset>0</syncoffset>
					<logginginfo>
						<scene/>
						<shottake/>
						<lognote/>
						<good>FALSE</good>
					</logginginfo>
					<labels>
						<label2/>
					</labels>
					<comments>
						<mastercomment1/>
						<mastercomment2/>
						<mastercomment3/>
						<mastercomment4/>
					</comments>
					<file id="MW-013-3T05 "/>
					<filter>
						<effect>
							<name>Audio Levels</name>
							<effectid>audiolevels</effectid>
							<effectcategory>audiolevels</effectcategory>
							<effecttype>audiolevels</effecttype>
							<mediatype>audio</mediatype>
							<parameter>
								<name>Level</name>
								<parameterid>level</parameterid>
								<valuemin>0</valuemin>
								<valuemax>3.98109</valuemax>
								<value>1</value>
							</parameter>
						</effect>
					</filter>
					<filter>
						<effect>
							<name>Audio Pan</name>
							<effectid>audiopan</effectid>
							<effectcategory>audiopan</effectcategory>
							<effecttype>audiopan</effecttype>
							<mediatype>audio</mediatype>
							<parameter>
								<name>Pan</name>
								<parameterid>pan</parameterid>
								<valuemin>-1</valuemin>
								<valuemax>1</valuemax>
								<value>0</value>
							</parameter>
						</effect>
					</filter>
					<sourcetrack>
						<mediatype>audio</mediatype>
						<trackindex>6</trackindex>
					</sourcetrack>
					<link>
						<linkclipref>408-13-03-05A</linkclipref>
						<mediatype>video</mediatype>
						<trackindex>1</trackindex>
						<clipindex>14</clipindex>
					</link>
					<link>
						<linkclipref>408-13-03-05A2</linkclipref>
						<mediatype>audio</mediatype>
						<trackindex>1</trackindex>
						<clipindex>13</clipindex>
					</link>
					<link>
						<linkclipref>408-13-03-05A3</linkclipref>
						<mediatype>audio</mediatype>
						<trackindex>2</trackindex>
						<clipindex>13</clipindex>
					</link>
					<link>
						<linkclipref>408-13-03-05A4</linkclipref>
						<mediatype>audio</mediatype>
						<trackindex>3</trackindex>
						<clipindex>13</clipindex>
					</link>
					<link>
						<linkclipref>408-13-03-05A5</linkclipref>
						<mediatype>audio</mediatype>
						<trackindex>4</trackindex>
						<clipindex>13</clipindex>
					</link>
					<link>
						<linkclipref>408-13-03-05A6</linkclipref>
						<mediatype>audio</mediatype>
						<trackindex>5</trackindex>
						<clipindex>13</clipindex>
					</link>
					<link>
						<linkclipref>408-13-03-05A7</linkclipref>
						<mediatype>audio</mediatype>
						<trackindex>6</trackindex>
						<clipindex>13</clipindex>
					</link>
					<multiclip id="12"/>
					<itemhistory>
						<uuid>6AACBB07-D162-41D8-A54A-943CD8BA731A</uuid>
					</itemhistory>
				</clipitem>
				<clipitem id="408-13-03-05B15">
					<name>408-13-03-05B</name>
					<duration>2100</duration>
					<rate>
						<ntsc>FALSE</ntsc>
						<timebase>25</timebase>
					</rate>
					<in>608</in>
					<out>690</out>
					<start>1491</start>
					<end>1573</end>
					<enabled>TRUE</enabled>
					<masterclipid>408-13-03-05B2</masterclipid>
					<syncoffset>0</syncoffset>
					<logginginfo>
						<scene/>
						<shottake/>
						<lognote/>
						<good>FALSE</good>
					</logginginfo>
					<labels>
						<label2/>
					</labels>
					<comments>
						<mastercomment1/>
						<mastercomment2/>
						<mastercomment3/>
						<mastercomment4/>
					</comments>
					<file id="MW-013-3T05 "/>
					<filter>
						<effect>
							<name>Audio Levels</name>
							<effectid>audiolevels</effectid>
							<effectcategory>audiolevels</effectcategory>
							<effecttype>audiolevels</effecttype>
							<mediatype>audio</mediatype>
							<parameter>
								<name>Level</name>
								<parameterid>level</parameterid>
								<valuemin>0</valuemin>
								<valuemax>3.98109</valuemax>
								<value>1</value>
							</parameter>
						</effect>
					</filter>
					<filter>
						<effect>
							<name>Audio Pan</name>
							<effectid>audiopan</effectid>
							<effectcategory>audiopan</effectcategory>
							<effecttype>audiopan</effecttype>
							<mediatype>audio</mediatype>
							<parameter>
								<name>Pan</name>
								<parameterid>pan</parameterid>
								<valuemin>-1</valuemin>
								<valuemax>1</valuemax>
								<value>0</value>
							</parameter>
						</effect>
					</filter>
					<sourcetrack>
						<mediatype>audio</mediatype>
						<trackindex>6</trackindex>
					</sourcetrack>
					<link>
						<linkclipref>408-13-03-05B9</linkclipref>
						<mediatype>video</mediatype>
						<trackindex>1</trackindex>
						<clipindex>15</clipindex>
					</link>
					<link>
						<linkclipref>408-13-03-05B10</linkclipref>
						<mediatype>audio</mediatype>
						<trackindex>1</trackindex>
						<clipindex>14</clipindex>
					</link>
					<link>
						<linkclipref>408-13-03-05B11</linkclipref>
						<mediatype>audio</mediatype>
						<trackindex>2</trackindex>
						<clipindex>14</clipindex>
					</link>
					<link>
						<linkclipref>408-13-03-05B12</linkclipref>
						<mediatype>audio</mediatype>
						<trackindex>3</trackindex>
						<clipindex>14</clipindex>
					</link>
					<link>
						<linkclipref>408-13-03-05B13</linkclipref>
						<mediatype>audio</mediatype>
						<trackindex>4</trackindex>
						<clipindex>14</clipindex>
					</link>
					<link>
						<linkclipref>408-13-03-05B14</linkclipref>
						<mediatype>audio</mediatype>
						<trackindex>5</trackindex>
						<clipindex>14</clipindex>
					</link>
					<link>
						<linkclipref>408-13-03-05B15</linkclipref>
						<mediatype>audio</mediatype>
						<trackindex>6</trackindex>
						<clipindex>14</clipindex>
					</link>
					<multiclip id="13"/>
					<itemhistory>
						<uuid>0CA71C2D-4061-4600-B0E9-A62CD0756677</uuid>
					</itemhistory>
				</clipitem>
				<clipitem id="408-13-03-05A23">
					<name>408-13-03-05A</name>
					<duration>2100</duration>
					<rate>
						<ntsc>FALSE</ntsc>
						<timebase>25</timebase>
					</rate>
					<in>690</in>
					<out>973</out>
					<start>1573</start>
					<end>1856</end>
					<enabled>TRUE</enabled>
					<masterclipid>408-13-03-05A1</masterclipid>
					<syncoffset>0</syncoffset>
					<logginginfo>
						<scene/>
						<shottake/>
						<lognote/>
						<good>FALSE</good>
					</logginginfo>
					<labels>
						<label2/>
					</labels>
					<comments>
						<mastercomment1/>
						<mastercomment2/>
						<mastercomment3/>
						<mastercomment4/>
					</comments>
					<file id="MW-013-3T05 "/>
					<filter>
						<effect>
							<name>Audio Levels</name>
							<effectid>audiolevels</effectid>
							<effectcategory>audiolevels</effectcategory>
							<effecttype>audiolevels</effecttype>
							<mediatype>audio</mediatype>
							<parameter>
								<name>Level</name>
								<parameterid>level</parameterid>
								<valuemin>0</valuemin>
								<valuemax>3.98109</valuemax>
								<value>1</value>
							</parameter>
						</effect>
					</filter>
					<filter>
						<effect>
							<name>Audio Pan</name>
							<effectid>audiopan</effectid>
							<effectcategory>audiopan</effectcategory>
							<effecttype>audiopan</effecttype>
							<mediatype>audio</mediatype>
							<parameter>
								<name>Pan</name>
								<parameterid>pan</parameterid>
								<valuemin>-1</valuemin>
								<valuemax>1</valuemax>
								<value>0</value>
							</parameter>
						</effect>
					</filter>
					<sourcetrack>
						<mediatype>audio</mediatype>
						<trackindex>6</trackindex>
					</sourcetrack>
					<link>
						<linkclipref>408-13-03-05A17</linkclipref>
						<mediatype>video</mediatype>
						<trackindex>1</trackindex>
						<clipindex>16</clipindex>
					</link>
					<link>
						<linkclipref>408-13-03-05A18</linkclipref>
						<mediatype>audio</mediatype>
						<trackindex>1</trackindex>
						<clipindex>15</clipindex>
					</link>
					<link>
						<linkclipref>408-13-03-05A19</linkclipref>
						<mediatype>audio</mediatype>
						<trackindex>2</trackindex>
						<clipindex>15</clipindex>
					</link>
					<link>
						<linkclipref>408-13-03-05A20</linkclipref>
						<mediatype>audio</mediatype>
						<trackindex>3</trackindex>
						<clipindex>15</clipindex>
					</link>
					<link>
						<linkclipref>408-13-03-05A21</linkclipref>
						<mediatype>audio</mediatype>
						<trackindex>4</trackindex>
						<clipindex>15</clipindex>
					</link>
					<link>
						<linkclipref>408-13-03-05A22</linkclipref>
						<mediatype>audio</mediatype>
						<trackindex>5</trackindex>
						<clipindex>15</clipindex>
					</link>
					<link>
						<linkclipref>408-13-03-05A23</linkclipref>
						<mediatype>audio</mediatype>
						<trackindex>6</trackindex>
						<clipindex>15</clipindex>
					</link>
					<multiclip id="14"/>
					<itemhistory>
						<uuid>D4BCA391-61E3-44F1-B04F-C2FD70827AB8</uuid>
					</itemhistory>
				</clipitem>
				<clipitem id="408-13-02-03B51">
					<name>408-13-02-03B</name>
					<duration>3750</duration>
					<rate>
						<ntsc>FALSE</ntsc>
						<timebase>25</timebase>
					</rate>
					<in>2491</in>
					<out>2562</out>
					<start>1856</start>
					<end>1927</end>
					<enabled>TRUE</enabled>
					<masterclipid>408-13-02-03B1</masterclipid>
					<syncoffset>0</syncoffset>
					<logginginfo>
						<scene/>
						<shottake/>
						<lognote/>
						<good>FALSE</good>
					</logginginfo>
					<labels>
						<label2/>
					</labels>
					<comments>
						<mastercomment1/>
						<mastercomment2/>
						<mastercomment3/>
						<mastercomment4/>
					</comments>
					<file id="MW-013-2T03 "/>
					<filter>
						<effect>
							<name>Audio Levels</name>
							<effectid>audiolevels</effectid>
							<effectcategory>audiolevels</effectcategory>
							<effecttype>audiolevels</effecttype>
							<mediatype>audio</mediatype>
							<parameter>
								<name>Level</name>
								<parameterid>level</parameterid>
								<valuemin>0</valuemin>
								<valuemax>3.98109</valuemax>
								<value>1</value>
							</parameter>
						</effect>
					</filter>
					<filter>
						<effect>
							<name>Audio Pan</name>
							<effectid>audiopan</effectid>
							<effectcategory>audiopan</effectcategory>
							<effecttype>audiopan</effecttype>
							<mediatype>audio</mediatype>
							<parameter>
								<name>Pan</name>
								<parameterid>pan</parameterid>
								<valuemin>-1</valuemin>
								<valuemax>1</valuemax>
								<value>0</value>
							</parameter>
						</effect>
					</filter>
					<sourcetrack>
						<mediatype>audio</mediatype>
						<trackindex>6</trackindex>
					</sourcetrack>
					<link>
						<linkclipref>408-13-02-03B45</linkclipref>
						<mediatype>video</mediatype>
						<trackindex>1</trackindex>
						<clipindex>17</clipindex>
					</link>
					<link>
						<linkclipref>408-13-02-03B46</linkclipref>
						<mediatype>audio</mediatype>
						<trackindex>1</trackindex>
						<clipindex>16</clipindex>
					</link>
					<link>
						<linkclipref>408-13-02-03B47</linkclipref>
						<mediatype>audio</mediatype>
						<trackindex>2</trackindex>
						<clipindex>16</clipindex>
					</link>
					<link>
						<linkclipref>408-13-02-03B48</linkclipref>
						<mediatype>audio</mediatype>
						<trackindex>3</trackindex>
						<clipindex>16</clipindex>
					</link>
					<link>
						<linkclipref>408-13-02-03B49</linkclipref>
						<mediatype>audio</mediatype>
						<trackindex>4</trackindex>
						<clipindex>16</clipindex>
					</link>
					<link>
						<linkclipref>408-13-02-03B50</linkclipref>
						<mediatype>audio</mediatype>
						<trackindex>5</trackindex>
						<clipindex>16</clipindex>
					</link>
					<link>
						<linkclipref>408-13-02-03B51</linkclipref>
						<mediatype>audio</mediatype>
						<trackindex>6</trackindex>
						<clipindex>16</clipindex>
					</link>
					<multiclip id="15"/>
					<itemhistory>
						<uuid>1700EA1C-8C90-4EA5-874B-4FC8FE6B74E2</uuid>
					</itemhistory>
				</clipitem>
				<clipitem id="408-13-01-03B50">
					<name>408-13-01-03B</name>
					<duration>3700</duration>
					<rate>
						<ntsc>FALSE</ntsc>
						<timebase>25</timebase>
					</rate>
					<in>2529</in>
					<out>2572</out>
					<start>1927</start>
					<end>1970</end>
					<enabled>TRUE</enabled>
					<masterclipid>408-13-01-03B2</masterclipid>
					<syncoffset>0</syncoffset>
					<logginginfo>
						<scene/>
						<shottake/>
						<lognote/>
						<good>FALSE</good>
					</logginginfo>
					<labels>
						<label2/>
					</labels>
					<comments>
						<mastercomment1/>
						<mastercomment2/>
						<mastercomment3/>
						<mastercomment4/>
					</comments>
					<file id="MW-013-1T03 "/>
					<filter>
						<effect>
							<name>Audio Levels</name>
							<effectid>audiolevels</effectid>
							<effectcategory>audiolevels</effectcategory>
							<effecttype>audiolevels</effecttype>
							<mediatype>audio</mediatype>
							<parameter>
								<name>Level</name>
								<parameterid>level</parameterid>
								<valuemin>0</valuemin>
								<valuemax>3.98109</valuemax>
								<value>1</value>
							</parameter>
						</effect>
					</filter>
					<filter>
						<effect>
							<name>Audio Pan</name>
							<effectid>audiopan</effectid>
							<effectcategory>audiopan</effectcategory>
							<effecttype>audiopan</effecttype>
							<mediatype>audio</mediatype>
							<parameter>
								<name>Pan</name>
								<parameterid>pan</parameterid>
								<valuemin>-1</valuemin>
								<valuemax>1</valuemax>
								<value>0</value>
							</parameter>
						</effect>
					</filter>
					<sourcetrack>
						<mediatype>audio</mediatype>
						<trackindex>6</trackindex>
					</sourcetrack>
					<link>
						<linkclipref>408-13-01-03B44</linkclipref>
						<mediatype>video</mediatype>
						<trackindex>1</trackindex>
						<clipindex>18</clipindex>
					</link>
					<link>
						<linkclipref>408-13-01-03B45</linkclipref>
						<mediatype>audio</mediatype>
						<trackindex>1</trackindex>
						<clipindex>17</clipindex>
					</link>
					<link>
						<linkclipref>408-13-01-03B46</linkclipref>
						<mediatype>audio</mediatype>
						<trackindex>2</trackindex>
						<clipindex>17</clipindex>
					</link>
					<link>
						<linkclipref>408-13-01-03B47</linkclipref>
						<mediatype>audio</mediatype>
						<trackindex>3</trackindex>
						<clipindex>17</clipindex>
					</link>
					<link>
						<linkclipref>408-13-01-03B48</linkclipref>
						<mediatype>audio</mediatype>
						<trackindex>4</trackindex>
						<clipindex>17</clipindex>
					</link>
					<link>
						<linkclipref>408-13-01-03B49</linkclipref>
						<mediatype>audio</mediatype>
						<trackindex>5</trackindex>
						<clipindex>17</clipindex>
					</link>
					<link>
						<linkclipref>408-13-01-03B50</linkclipref>
						<mediatype>audio</mediatype>
						<trackindex>6</trackindex>
						<clipindex>17</clipindex>
					</link>
					<multiclip id="16"/>
					<itemhistory>
						<uuid>258533E8-3570-4CBA-8B16-F9C1DF7F8D86</uuid>
					</itemhistory>
				</clipitem>
				<clipitem id="408-13-02-03B58">
					<name>408-13-02-03B</name>
					<duration>3750</duration>
					<rate>
						<ntsc>FALSE</ntsc>
						<timebase>25</timebase>
					</rate>
					<in>2585</in>
					<out>2827</out>
					<start>1970</start>
					<end>2212</end>
					<subframeoffset>0</subframeoffset>
					<enabled>TRUE</enabled>
					<masterclipid>408-13-02-03B1</masterclipid>
					<syncoffset>0</syncoffset>
					<logginginfo>
						<scene/>
						<shottake/>
						<lognote/>
						<good>FALSE</good>
					</logginginfo>
					<labels>
						<label2/>
					</labels>
					<comments>
						<mastercomment1/>
						<mastercomment2/>
						<mastercomment3/>
						<mastercomment4/>
					</comments>
					<file id="MW-013-2T03 "/>
					<filter>
						<effect>
							<name>Audio Levels</name>
							<effectid>audiolevels</effectid>
							<effectcategory>audiolevels</effectcategory>
							<effecttype>audiolevels</effecttype>
							<mediatype>audio</mediatype>
							<parameter>
								<name>Level</name>
								<parameterid>level</parameterid>
								<valuemin>0</valuemin>
								<valuemax>3.98109</valuemax>
								<value>1</value>
							</parameter>
						</effect>
					</filter>
					<filter>
						<effect>
							<name>Audio Pan</name>
							<effectid>audiopan</effectid>
							<effectcategory>audiopan</effectcategory>
							<effecttype>audiopan</effecttype>
							<mediatype>audio</mediatype>
							<parameter>
								<name>Pan</name>
								<parameterid>pan</parameterid>
								<valuemin>-1</valuemin>
								<valuemax>1</valuemax>
								<value>0</value>
							</parameter>
						</effect>
					</filter>
					<sourcetrack>
						<mediatype>audio</mediatype>
						<trackindex>6</trackindex>
					</sourcetrack>
					<link>
						<linkclipref>408-13-02-03B52</linkclipref>
						<mediatype>video</mediatype>
						<trackindex>1</trackindex>
						<clipindex>19</clipindex>
					</link>
					<link>
						<linkclipref>408-13-02-03B53</linkclipref>
						<mediatype>audio</mediatype>
						<trackindex>1</trackindex>
						<clipindex>18</clipindex>
					</link>
					<link>
						<linkclipref>408-13-02-03B54</linkclipref>
						<mediatype>audio</mediatype>
						<trackindex>2</trackindex>
						<clipindex>18</clipindex>
					</link>
					<link>
						<linkclipref>408-13-02-03B55</linkclipref>
						<mediatype>audio</mediatype>
						<trackindex>3</trackindex>
						<clipindex>18</clipindex>
					</link>
					<link>
						<linkclipref>408-13-02-03B56</linkclipref>
						<mediatype>audio</mediatype>
						<trackindex>4</trackindex>
						<clipindex>18</clipindex>
					</link>
					<link>
						<linkclipref>408-13-02-03B57</linkclipref>
						<mediatype>audio</mediatype>
						<trackindex>5</trackindex>
						<clipindex>18</clipindex>
					</link>
					<link>
						<linkclipref>408-13-02-03B58</linkclipref>
						<mediatype>audio</mediatype>
						<trackindex>6</trackindex>
						<clipindex>18</clipindex>
					</link>
					<multiclip id="17"/>
					<itemhistory>
						<uuid>AE3D8BD2-A672-45D3-A05A-E0C60886DB6D</uuid>
					</itemhistory>
				</clipitem>
				<clipitem id="408-13-01-03B57">
					<name>408-13-01-03B</name>
					<duration>3700</duration>
					<rate>
						<ntsc>FALSE</ntsc>
						<timebase>25</timebase>
					</rate>
					<in>2799</in>
					<out>2816</out>
					<start>2212</start>
					<end>2229</end>
					<enabled>TRUE</enabled>
					<masterclipid>408-13-01-03B2</masterclipid>
					<syncoffset>0</syncoffset>
					<logginginfo>
						<scene/>
						<shottake/>
						<lognote/>
						<good>FALSE</good>
					</logginginfo>
					<labels>
						<label2/>
					</labels>
					<comments>
						<mastercomment1/>
						<mastercomment2/>
						<mastercomment3/>
						<mastercomment4/>
					</comments>
					<file id="MW-013-1T03 "/>
					<filter>
						<effect>
							<name>Audio Levels</name>
							<effectid>audiolevels</effectid>
							<effectcategory>audiolevels</effectcategory>
							<effecttype>audiolevels</effecttype>
							<mediatype>audio</mediatype>
							<parameter>
								<name>Level</name>
								<parameterid>level</parameterid>
								<valuemin>0</valuemin>
								<valuemax>3.98109</valuemax>
								<value>1</value>
							</parameter>
						</effect>
					</filter>
					<filter>
						<effect>
							<name>Audio Pan</name>
							<effectid>audiopan</effectid>
							<effectcategory>audiopan</effectcategory>
							<effecttype>audiopan</effecttype>
							<mediatype>audio</mediatype>
							<parameter>
								<name>Pan</name>
								<parameterid>pan</parameterid>
								<valuemin>-1</valuemin>
								<valuemax>1</valuemax>
								<value>0</value>
							</parameter>
						</effect>
					</filter>
					<sourcetrack>
						<mediatype>audio</mediatype>
						<trackindex>6</trackindex>
					</sourcetrack>
					<link>
						<linkclipref>408-13-01-03B51</linkclipref>
						<mediatype>video</mediatype>
						<trackindex>1</trackindex>
						<clipindex>20</clipindex>
					</link>
					<link>
						<linkclipref>408-13-01-03B52</linkclipref>
						<mediatype>audio</mediatype>
						<trackindex>1</trackindex>
						<clipindex>19</clipindex>
					</link>
					<link>
						<linkclipref>408-13-01-03B53</linkclipref>
						<mediatype>audio</mediatype>
						<trackindex>2</trackindex>
						<clipindex>19</clipindex>
					</link>
					<link>
						<linkclipref>408-13-01-03B54</linkclipref>
						<mediatype>audio</mediatype>
						<trackindex>3</trackindex>
						<clipindex>19</clipindex>
					</link>
					<link>
						<linkclipref>408-13-01-03B55</linkclipref>
						<mediatype>audio</mediatype>
						<trackindex>4</trackindex>
						<clipindex>19</clipindex>
					</link>
					<link>
						<linkclipref>408-13-01-03B56</linkclipref>
						<mediatype>audio</mediatype>
						<trackindex>5</trackindex>
						<clipindex>19</clipindex>
					</link>
					<link>
						<linkclipref>408-13-01-03B57</linkclipref>
						<mediatype>audio</mediatype>
						<trackindex>6</trackindex>
						<clipindex>19</clipindex>
					</link>
					<multiclip id="18"/>
					<itemhistory>
						<uuid>63BF5A1F-873C-49AB-86AD-C81A1436E821</uuid>
					</itemhistory>
				</clipitem>
				<clipitem id="408-13-03-05A30">
					<name>408-13-03-05A</name>
					<duration>2100</duration>
					<rate>
						<ntsc>FALSE</ntsc>
						<timebase>25</timebase>
					</rate>
					<in>1332</in>
					<out>1389</out>
					<start>2229</start>
					<end>2286</end>
					<subframeoffset>0</subframeoffset>
					<enabled>TRUE</enabled>
					<masterclipid>408-13-03-05A1</masterclipid>
					<syncoffset>0</syncoffset>
					<logginginfo>
						<scene/>
						<shottake/>
						<lognote/>
						<good>FALSE</good>
					</logginginfo>
					<labels>
						<label2/>
					</labels>
					<comments>
						<mastercomment1/>
						<mastercomment2/>
						<mastercomment3/>
						<mastercomment4/>
					</comments>
					<file id="MW-013-3T05 "/>
					<filter>
						<effect>
							<name>Audio Levels</name>
							<effectid>audiolevels</effectid>
							<effectcategory>audiolevels</effectcategory>
							<effecttype>audiolevels</effecttype>
							<mediatype>audio</mediatype>
							<parameter>
								<name>Level</name>
								<parameterid>level</parameterid>
								<valuemin>0</valuemin>
								<valuemax>3.98109</valuemax>
								<value>1</value>
							</parameter>
						</effect>
					</filter>
					<filter>
						<effect>
							<name>Audio Pan</name>
							<effectid>audiopan</effectid>
							<effectcategory>audiopan</effectcategory>
							<effecttype>audiopan</effecttype>
							<mediatype>audio</mediatype>
							<parameter>
								<name>Pan</name>
								<parameterid>pan</parameterid>
								<valuemin>-1</valuemin>
								<valuemax>1</valuemax>
								<value>0</value>
							</parameter>
						</effect>
					</filter>
					<sourcetrack>
						<mediatype>audio</mediatype>
						<trackindex>6</trackindex>
					</sourcetrack>
					<link>
						<linkclipref>408-13-03-05A24</linkclipref>
						<mediatype>video</mediatype>
						<trackindex>1</trackindex>
						<clipindex>21</clipindex>
					</link>
					<link>
						<linkclipref>408-13-03-05A25</linkclipref>
						<mediatype>audio</mediatype>
						<trackindex>1</trackindex>
						<clipindex>20</clipindex>
					</link>
					<link>
						<linkclipref>408-13-03-05A26</linkclipref>
						<mediatype>audio</mediatype>
						<trackindex>2</trackindex>
						<clipindex>20</clipindex>
					</link>
					<link>
						<linkclipref>408-13-03-05A27</linkclipref>
						<mediatype>audio</mediatype>
						<trackindex>3</trackindex>
						<clipindex>20</clipindex>
					</link>
					<link>
						<linkclipref>408-13-03-05A28</linkclipref>
						<mediatype>audio</mediatype>
						<trackindex>4</trackindex>
						<clipindex>20</clipindex>
					</link>
					<link>
						<linkclipref>408-13-03-05A29</linkclipref>
						<mediatype>audio</mediatype>
						<trackindex>5</trackindex>
						<clipindex>20</clipindex>
					</link>
					<link>
						<linkclipref>408-13-03-05A30</linkclipref>
						<mediatype>audio</mediatype>
						<trackindex>6</trackindex>
						<clipindex>20</clipindex>
					</link>
					<multiclip id="19"/>
					<itemhistory>
						<uuid>8FEC529A-308F-41D9-87CF-7F78D447A835</uuid>
					</itemhistory>
				</clipitem>
				<clipitem id="408-13-01-03B64">
					<name>408-13-01-03B</name>
					<duration>3700</duration>
					<rate>
						<ntsc>FALSE</ntsc>
						<timebase>25</timebase>
					</rate>
					<in>2863</in>
					<out>2905</out>
					<start>2286</start>
					<end>2328</end>
					<enabled>TRUE</enabled>
					<masterclipid>408-13-01-03B2</masterclipid>
					<syncoffset>0</syncoffset>
					<logginginfo>
						<scene/>
						<shottake/>
						<lognote/>
						<good>FALSE</good>
					</logginginfo>
					<labels>
						<label2/>
					</labels>
					<comments>
						<mastercomment1/>
						<mastercomment2/>
						<mastercomment3/>
						<mastercomment4/>
					</comments>
					<file id="MW-013-1T03 "/>
					<filter>
						<effect>
							<name>Audio Levels</name>
							<effectid>audiolevels</effectid>
							<effectcategory>audiolevels</effectcategory>
							<effecttype>audiolevels</effecttype>
							<mediatype>audio</mediatype>
							<parameter>
								<name>Level</name>
								<parameterid>level</parameterid>
								<valuemin>0</valuemin>
								<valuemax>3.98109</valuemax>
								<value>1</value>
							</parameter>
						</effect>
					</filter>
					<filter>
						<effect>
							<name>Audio Pan</name>
							<effectid>audiopan</effectid>
							<effectcategory>audiopan</effectcategory>
							<effecttype>audiopan</effecttype>
							<mediatype>audio</mediatype>
							<parameter>
								<name>Pan</name>
								<parameterid>pan</parameterid>
								<valuemin>-1</valuemin>
								<valuemax>1</valuemax>
								<value>0</value>
							</parameter>
						</effect>
					</filter>
					<sourcetrack>
						<mediatype>audio</mediatype>
						<trackindex>6</trackindex>
					</sourcetrack>
					<link>
						<linkclipref>408-13-01-03B58</linkclipref>
						<mediatype>video</mediatype>
						<trackindex>1</trackindex>
						<clipindex>22</clipindex>
					</link>
					<link>
						<linkclipref>408-13-01-03B59</linkclipref>
						<mediatype>audio</mediatype>
						<trackindex>1</trackindex>
						<clipindex>21</clipindex>
					</link>
					<link>
						<linkclipref>408-13-01-03B60</linkclipref>
						<mediatype>audio</mediatype>
						<trackindex>2</trackindex>
						<clipindex>21</clipindex>
					</link>
					<link>
						<linkclipref>408-13-01-03B61</linkclipref>
						<mediatype>audio</mediatype>
						<trackindex>3</trackindex>
						<clipindex>21</clipindex>
					</link>
					<link>
						<linkclipref>408-13-01-03B62</linkclipref>
						<mediatype>audio</mediatype>
						<trackindex>4</trackindex>
						<clipindex>21</clipindex>
					</link>
					<link>
						<linkclipref>408-13-01-03B63</linkclipref>
						<mediatype>audio</mediatype>
						<trackindex>5</trackindex>
						<clipindex>21</clipindex>
					</link>
					<link>
						<linkclipref>408-13-01-03B64</linkclipref>
						<mediatype>audio</mediatype>
						<trackindex>6</trackindex>
						<clipindex>21</clipindex>
					</link>
					<multiclip id="20"/>
					<itemhistory>
						<uuid>1AEEEE97-64F2-49BA-9896-55BED31081DF</uuid>
					</itemhistory>
				</clipitem>
				<clipitem id="408-13-03-05B22">
					<name>408-13-03-05B</name>
					<duration>2100</duration>
					<rate>
						<ntsc>FALSE</ntsc>
						<timebase>25</timebase>
					</rate>
					<in>1466</in>
					<out>1723</out>
					<start>2328</start>
					<end>2585</end>
					<enabled>TRUE</enabled>
					<masterclipid>408-13-03-05B2</masterclipid>
					<syncoffset>0</syncoffset>
					<logginginfo>
						<scene/>
						<shottake/>
						<lognote/>
						<good>FALSE</good>
					</logginginfo>
					<labels>
						<label2/>
					</labels>
					<comments>
						<mastercomment1/>
						<mastercomment2/>
						<mastercomment3/>
						<mastercomment4/>
					</comments>
					<file id="MW-013-3T05 "/>
					<filter>
						<effect>
							<name>Audio Levels</name>
							<effectid>audiolevels</effectid>
							<effectcategory>audiolevels</effectcategory>
							<effecttype>audiolevels</effecttype>
							<mediatype>audio</mediatype>
							<parameter>
								<name>Level</name>
								<parameterid>level</parameterid>
								<valuemin>0</valuemin>
								<valuemax>3.98109</valuemax>
								<value>1</value>
							</parameter>
						</effect>
					</filter>
					<filter>
						<effect>
							<name>Audio Pan</name>
							<effectid>audiopan</effectid>
							<effectcategory>audiopan</effectcategory>
							<effecttype>audiopan</effecttype>
							<mediatype>audio</mediatype>
							<parameter>
								<name>Pan</name>
								<parameterid>pan</parameterid>
								<valuemin>-1</valuemin>
								<valuemax>1</valuemax>
								<value>0</value>
							</parameter>
						</effect>
					</filter>
					<sourcetrack>
						<mediatype>audio</mediatype>
						<trackindex>6</trackindex>
					</sourcetrack>
					<link>
						<linkclipref>408-13-03-05B16</linkclipref>
						<mediatype>video</mediatype>
						<trackindex>1</trackindex>
						<clipindex>23</clipindex>
					</link>
					<link>
						<linkclipref>408-13-03-05B17</linkclipref>
						<mediatype>audio</mediatype>
						<trackindex>1</trackindex>
						<clipindex>22</clipindex>
					</link>
					<link>
						<linkclipref>408-13-03-05B18</linkclipref>
						<mediatype>audio</mediatype>
						<trackindex>2</trackindex>
						<clipindex>22</clipindex>
					</link>
					<link>
						<linkclipref>408-13-03-05B19</linkclipref>
						<mediatype>audio</mediatype>
						<trackindex>3</trackindex>
						<clipindex>22</clipindex>
					</link>
					<link>
						<linkclipref>408-13-03-05B20</linkclipref>
						<mediatype>audio</mediatype>
						<trackindex>4</trackindex>
						<clipindex>22</clipindex>
					</link>
					<link>
						<linkclipref>408-13-03-05B21</linkclipref>
						<mediatype>audio</mediatype>
						<trackindex>5</trackindex>
						<clipindex>22</clipindex>
					</link>
					<link>
						<linkclipref>408-13-03-05B22</linkclipref>
						<mediatype>audio</mediatype>
						<trackindex>6</trackindex>
						<clipindex>22</clipindex>
					</link>
					<multiclip id="21"/>
					<itemhistory>
						<uuid>3D02D377-EABD-4636-A1D8-892053B634B7</uuid>
					</itemhistory>
				</clipitem>
				<clipitem id="408-13-01-03B71">
					<name>408-13-01-03B</name>
					<duration>3700</duration>
					<rate>
						<ntsc>FALSE</ntsc>
						<timebase>25</timebase>
					</rate>
					<in>3139</in>
					<out>3215</out>
					<start>2585</start>
					<end>2661</end>
					<enabled>TRUE</enabled>
					<masterclipid>408-13-01-03B2</masterclipid>
					<syncoffset>0</syncoffset>
					<logginginfo>
						<scene/>
						<shottake/>
						<lognote/>
						<good>FALSE</good>
					</logginginfo>
					<labels>
						<label2/>
					</labels>
					<comments>
						<mastercomment1/>
						<mastercomment2/>
						<mastercomment3/>
						<mastercomment4/>
					</comments>
					<file id="MW-013-1T03 "/>
					<filter>
						<effect>
							<name>Audio Levels</name>
							<effectid>audiolevels</effectid>
							<effectcategory>audiolevels</effectcategory>
							<effecttype>audiolevels</effecttype>
							<mediatype>audio</mediatype>
							<parameter>
								<name>Level</name>
								<parameterid>level</parameterid>
								<valuemin>0</valuemin>
								<valuemax>3.98109</valuemax>
								<value>1</value>
							</parameter>
						</effect>
					</filter>
					<filter>
						<effect>
							<name>Audio Pan</name>
							<effectid>audiopan</effectid>
							<effectcategory>audiopan</effectcategory>
							<effecttype>audiopan</effecttype>
							<mediatype>audio</mediatype>
							<parameter>
								<name>Pan</name>
								<parameterid>pan</parameterid>
								<valuemin>-1</valuemin>
								<valuemax>1</valuemax>
								<value>0</value>
							</parameter>
						</effect>
					</filter>
					<sourcetrack>
						<mediatype>audio</mediatype>
						<trackindex>6</trackindex>
					</sourcetrack>
					<link>
						<linkclipref>408-13-01-03B65</linkclipref>
						<mediatype>video</mediatype>
						<trackindex>1</trackindex>
						<clipindex>24</clipindex>
					</link>
					<link>
						<linkclipref>408-13-01-03B66</linkclipref>
						<mediatype>audio</mediatype>
						<trackindex>1</trackindex>
						<clipindex>23</clipindex>
					</link>
					<link>
						<linkclipref>408-13-01-03B67</linkclipref>
						<mediatype>audio</mediatype>
						<trackindex>2</trackindex>
						<clipindex>23</clipindex>
					</link>
					<link>
						<linkclipref>408-13-01-03B68</linkclipref>
						<mediatype>audio</mediatype>
						<trackindex>3</trackindex>
						<clipindex>23</clipindex>
					</link>
					<link>
						<linkclipref>408-13-01-03B69</linkclipref>
						<mediatype>audio</mediatype>
						<trackindex>4</trackindex>
						<clipindex>23</clipindex>
					</link>
					<link>
						<linkclipref>408-13-01-03B70</linkclipref>
						<mediatype>audio</mediatype>
						<trackindex>5</trackindex>
						<clipindex>23</clipindex>
					</link>
					<link>
						<linkclipref>408-13-01-03B71</linkclipref>
						<mediatype>audio</mediatype>
						<trackindex>6</trackindex>
						<clipindex>23</clipindex>
					</link>
					<multiclip id="22"/>
					<itemhistory>
						<uuid>13588933-5918-474E-B77F-3034312CD011</uuid>
					</itemhistory>
				</clipitem>
				<clipitem id="408-13-01-03A30">
					<name>408-13-01-03A</name>
					<duration>3700</duration>
					<rate>
						<ntsc>FALSE</ntsc>
						<timebase>25</timebase>
					</rate>
					<in>3215</in>
					<out>3594</out>
					<start>2661</start>
					<end>3040</end>
					<enabled>TRUE</enabled>
					<masterclipid>408-13-01-03A1</masterclipid>
					<syncoffset>0</syncoffset>
					<logginginfo>
						<scene/>
						<shottake/>
						<lognote/>
						<good>FALSE</good>
					</logginginfo>
					<labels>
						<label2/>
					</labels>
					<comments>
						<mastercomment1/>
						<mastercomment2/>
						<mastercomment3/>
						<mastercomment4/>
					</comments>
					<file id="MW-013-1T03 "/>
					<filter>
						<effect>
							<name>Audio Levels</name>
							<effectid>audiolevels</effectid>
							<effectcategory>audiolevels</effectcategory>
							<effecttype>audiolevels</effecttype>
							<mediatype>audio</mediatype>
							<parameter>
								<name>Level</name>
								<parameterid>level</parameterid>
								<valuemin>0</valuemin>
								<valuemax>3.98109</valuemax>
								<value>1</value>
							</parameter>
						</effect>
					</filter>
					<filter>
						<effect>
							<name>Audio Pan</name>
							<effectid>audiopan</effectid>
							<effectcategory>audiopan</effectcategory>
							<effecttype>audiopan</effecttype>
							<mediatype>audio</mediatype>
							<parameter>
								<name>Pan</name>
								<parameterid>pan</parameterid>
								<valuemin>-1</valuemin>
								<valuemax>1</valuemax>
								<value>0</value>
							</parameter>
						</effect>
					</filter>
					<sourcetrack>
						<mediatype>audio</mediatype>
						<trackindex>6</trackindex>
					</sourcetrack>
					<link>
						<linkclipref>408-13-01-03A24</linkclipref>
						<mediatype>video</mediatype>
						<trackindex>1</trackindex>
						<clipindex>25</clipindex>
					</link>
					<link>
						<linkclipref>408-13-01-03A25</linkclipref>
						<mediatype>audio</mediatype>
						<trackindex>1</trackindex>
						<clipindex>24</clipindex>
					</link>
					<link>
						<linkclipref>408-13-01-03A26</linkclipref>
						<mediatype>audio</mediatype>
						<trackindex>2</trackindex>
						<clipindex>24</clipindex>
					</link>
					<link>
						<linkclipref>408-13-01-03A27</linkclipref>
						<mediatype>audio</mediatype>
						<trackindex>3</trackindex>
						<clipindex>24</clipindex>
					</link>
					<link>
						<linkclipref>408-13-01-03A28</linkclipref>
						<mediatype>audio</mediatype>
						<trackindex>4</trackindex>
						<clipindex>24</clipindex>
					</link>
					<link>
						<linkclipref>408-13-01-03A29</linkclipref>
						<mediatype>audio</mediatype>
						<trackindex>5</trackindex>
						<clipindex>24</clipindex>
					</link>
					<link>
						<linkclipref>408-13-01-03A30</linkclipref>
						<mediatype>audio</mediatype>
						<trackindex>6</trackindex>
						<clipindex>24</clipindex>
					</link>
					<multiclip id="23"/>
					<itemhistory>
						<uuid>9BDA62F5-CC10-452A-A845-C6D963FB19BA</uuid>
					</itemhistory>
				</clipitem>
				<enabled>TRUE</enabled>
				<locked>FALSE</locked>
				<outputchannelindex>2</outputchannelindex>
			</track>
			<track>
				<enabled>TRUE</enabled>
				<locked>FALSE</locked>
				<outputchannelindex>1</outputchannelindex>
			</track>
			<track>
				<enabled>TRUE</enabled>
				<locked>FALSE</locked>
				<outputchannelindex>2</outputchannelindex>
			</track>
			<track>
				<enabled>TRUE</enabled>
				<locked>FALSE</locked>
				<outputchannelindex>1</outputchannelindex>
			</track>
			<track>
				<enabled>TRUE</enabled>
				<locked>FALSE</locked>
				<outputchannelindex>2</outputchannelindex>
			</track>
			<filter>
				<effect>
					<name>Audio Levels</name>
					<effectid>audiolevels</effectid>
					<effectcategory>audiolevels</effectcategory>
					<effecttype>audiolevels</effecttype>
					<mediatype>audio</mediatype>
					<parameter>
						<name>Level</name>
						<parameterid>level</parameterid>
						<valuemin>0</valuemin>
						<valuemax>3.98109</valuemax>
						<value>1</value>
					</parameter>
				</effect>
			</filter>
		</audio>
	</media>
	<ismasterclip>FALSE</ismasterclip>
</sequence>
<bin>
	<name>Multiclips</name>
	<children>
		<clip id="408-13-02-03B16">
			<uuid>D2067556-2532-45FF-9709-7AA1384D19F3</uuid>
			<updatebehavior>add</updatebehavior>
			<name>408-13-02-03B</name>
			<duration>3750</duration>
			<rate>
				<ntsc>FALSE</ntsc>
				<timebase>25</timebase>
			</rate>
			<in>2852</in>
			<out>-1</out>
			<ismasterclip>FALSE</ismasterclip>
			<logginginfo>
				<scene/>
				<shottake/>
				<lognote/>
				<good>FALSE</good>
			</logginginfo>
			<labels>
				<label2/>
			</labels>
			<comments>
				<mastercomment1/>
				<mastercomment2/>
				<mastercomment3/>
				<mastercomment4/>
			</comments>
			<media>
				<video>
					<format>
						<samplecharacteristics>
							<width>1920</width>
							<height>1080</height>
							<anamorphic>FALSE</anamorphic>
							<pixelaspectratio>Square</pixelaspectratio>
							<fielddominance>none</fielddominance>
							<rate>
								<ntsc>FALSE</ntsc>
								<timebase>25</timebase>
							</rate>
							<colordepth>24</colordepth>
							<codec>
								<name>Apple ProRes 422 (Proxy)</name>
								<appspecificdata>
									<appname>Final Cut Pro</appname>
									<appmanufacturer>Apple Inc.</appmanufacturer>
									<appversion>7.0</appversion>
									<data>
										<qtcodec>
											<codecname>Apple ProRes 422 (Proxy)</codecname>
											<codectypename>Apple ProRes 422 (Proxy)</codectypename>
											<codectypecode>apco</codectypecode>
											<codecvendorcode>appl</codecvendorcode>
											<spatialquality>1024</spatialquality>
											<temporalquality>0</temporalquality>
											<keyframerate>0</keyframerate>
											<datarate>0</datarate>
										</qtcodec>
									</data>
								</appspecificdata>
							</codec>
						</samplecharacteristics>
						<appspecificdata>
							<appname>Final Cut Pro</appname>
							<appmanufacturer>Apple Inc.</appmanufacturer>
							<appversion>7.0</appversion>
							<data>
								<fcpimageprocessing>
									<useyuv>TRUE</useyuv>
									<usesuperwhite>FALSE</usesuperwhite>
									<rendermode>YUV8BPP</rendermode>
								</fcpimageprocessing>
							</data>
						</appspecificdata>
					</format>
					<track>
						<clipitem id="408-13-02-03B59">
							<name>408-13-02-03B</name>
							<duration>3750</duration>
							<rate>
								<ntsc>FALSE</ntsc>
								<timebase>25</timebase>
							</rate>
							<in>0</in>
							<out>3750</out>
							<start>0</start>
							<end>3750</end>
							<pixelaspectratio>Square</pixelaspectratio>
							<enabled>TRUE</enabled>
							<anamorphic>FALSE</anamorphic>
							<alphatype>none</alphatype>
							<masterclipid>408-13-02-03B1</masterclipid>
							<syncoffset>0</syncoffset>
							<logginginfo>
								<scene/>
								<shottake/>
								<lognote/>
								<good>FALSE</good>
							</logginginfo>
							<labels>
								<label2/>
							</labels>
							<comments>
								<mastercomment1/>
								<mastercomment2/>
								<mastercomment3/>
								<mastercomment4/>
							</comments>
							<file id="B011_C022_020526 "/>
							<sourcetrack>
								<mediatype>video</mediatype>
							</sourcetrack>
							<link>
								<linkclipref>408-13-02-03B59</linkclipref>
								<mediatype>video</mediatype>
								<trackindex>1</trackindex>
								<clipindex>1</clipindex>
							</link>
							<link>
								<linkclipref>408-13-02-03B60</linkclipref>
								<mediatype>audio</mediatype>
								<trackindex>1</trackindex>
								<clipindex>1</clipindex>
							</link>
							<link>
								<linkclipref>408-13-02-03B61</linkclipref>
								<mediatype>audio</mediatype>
								<trackindex>2</trackindex>
								<clipindex>1</clipindex>
							</link>
							<link>
								<linkclipref>408-13-02-03B62</linkclipref>
								<mediatype>audio</mediatype>
								<trackindex>3</trackindex>
								<clipindex>1</clipindex>
							</link>
							<link>
								<linkclipref>408-13-02-03B63</linkclipref>
								<mediatype>audio</mediatype>
								<trackindex>4</trackindex>
								<clipindex>1</clipindex>
							</link>
							<link>
								<linkclipref>408-13-02-03B64</linkclipref>
								<mediatype>audio</mediatype>
								<trackindex>5</trackindex>
								<clipindex>1</clipindex>
							</link>
							<link>
								<linkclipref>408-13-02-03B65</linkclipref>
								<mediatype>audio</mediatype>
								<trackindex>6</trackindex>
								<clipindex>1</clipindex>
							</link>
							<fielddominance>none</fielddominance>
							<multiclip id="30">
								<collapsed>FALSE</collapsed>
								<synctype>1</synctype>
								<angle>
									<clip id="408-13-02-03A"/>
								</angle>
								<angle>
									<activevideoangle>TRUE</activevideoangle>
									<activeaudioangle>TRUE</activeaudioangle>
									<clip id="408-13-02-03B8"/>
								</angle>
								<masterclipid>408-13-02-03B16</masterclipid>
							</multiclip>
							<mediadelay>191</mediadelay>
							<itemhistory>
								<uuid>8FEE126D-3A49-45CE-BFA5-AFB9D6DB341F</uuid>
							</itemhistory>
						</clipitem>
						<enabled>TRUE</enabled>
						<locked>FALSE</locked>
					</track>
				</video>
				<audio>
					<format>
						<samplecharacteristics>
							<depth>16</depth>
							<samplerate>48000</samplerate>
						</samplecharacteristics>
					</format>
					<outputs>
						<group>
							<index>1</index>
							<numchannels>2</numchannels>
							<downmix>0</downmix>
							<channel>
								<index>1</index>
							</channel>
							<channel>
								<index>2</index>
							</channel>
						</group>
					</outputs>
					<in>2852</in>
					<out>-1</out>
					<track>
						<clipitem id="408-13-02-03B60">
							<name>408-13-02-03B</name>
							<duration>3750</duration>
							<rate>
								<ntsc>FALSE</ntsc>
								<timebase>25</timebase>
							</rate>
							<in>0</in>
							<out>3750</out>
							<start>0</start>
							<end>3750</end>
							<subframeoffset>0</subframeoffset>
							<enabled>TRUE</enabled>
							<masterclipid>408-13-02-03B1</masterclipid>
							<syncoffset>0</syncoffset>
							<logginginfo>
								<scene/>
								<shottake/>
								<lognote/>
								<good>FALSE</good>
							</logginginfo>
							<labels>
								<label2/>
							</labels>
							<comments>
								<mastercomment1/>
								<mastercomment2/>
								<mastercomment3/>
								<mastercomment4/>
							</comments>
							<file id="MW-013-2T03 "/>
							<filter>
								<effect>
									<name>Audio Levels</name>
									<effectid>audiolevels</effectid>
									<effectcategory>audiolevels</effectcategory>
									<effecttype>audiolevels</effecttype>
									<mediatype>audio</mediatype>
									<parameter>
										<name>Level</name>
										<parameterid>level</parameterid>
										<valuemin>0</valuemin>
										<valuemax>3.98109</valuemax>
										<value>1</value>
									</parameter>
								</effect>
							</filter>
							<filter>
								<effect>
									<name>Audio Pan</name>
									<effectid>audiopan</effectid>
									<effectcategory>audiopan</effectcategory>
									<effecttype>audiopan</effecttype>
									<mediatype>audio</mediatype>
									<parameter>
										<name>Pan</name>
										<parameterid>pan</parameterid>
										<valuemin>-1</valuemin>
										<valuemax>1</valuemax>
										<value>0</value>
									</parameter>
								</effect>
							</filter>
							<sourcetrack>
								<mediatype>audio</mediatype>
								<trackindex>1</trackindex>
							</sourcetrack>
							<link>
								<linkclipref>408-13-02-03B59</linkclipref>
								<mediatype>video</mediatype>
								<trackindex>1</trackindex>
								<clipindex>1</clipindex>
							</link>
							<link>
								<linkclipref>408-13-02-03B60</linkclipref>
								<mediatype>audio</mediatype>
								<trackindex>1</trackindex>
								<clipindex>1</clipindex>
							</link>
							<link>
								<linkclipref>408-13-02-03B61</linkclipref>
								<mediatype>audio</mediatype>
								<trackindex>2</trackindex>
								<clipindex>1</clipindex>
							</link>
							<link>
								<linkclipref>408-13-02-03B62</linkclipref>
								<mediatype>audio</mediatype>
								<trackindex>3</trackindex>
								<clipindex>1</clipindex>
							</link>
							<link>
								<linkclipref>408-13-02-03B63</linkclipref>
								<mediatype>audio</mediatype>
								<trackindex>4</trackindex>
								<clipindex>1</clipindex>
							</link>
							<link>
								<linkclipref>408-13-02-03B64</linkclipref>
								<mediatype>audio</mediatype>
								<trackindex>5</trackindex>
								<clipindex>1</clipindex>
							</link>
							<link>
								<linkclipref>408-13-02-03B65</linkclipref>
								<mediatype>audio</mediatype>
								<trackindex>6</trackindex>
								<clipindex>1</clipindex>
							</link>
							<multiclip id="30"/>
							<itemhistory>
								<uuid>F9093DCE-A4F2-48F6-965F-E15478D18A44</uuid>
							</itemhistory>
						</clipitem>
						<enabled>TRUE</enabled>
						<locked>FALSE</locked>
						<outputchannelindex>1</outputchannelindex>
					</track>
					<track>
						<clipitem id="408-13-02-03B61">
							<name>408-13-02-03B</name>
							<duration>3750</duration>
							<rate>
								<ntsc>FALSE</ntsc>
								<timebase>25</timebase>
							</rate>
							<in>0</in>
							<out>3750</out>
							<start>0</start>
							<end>3750</end>
							<subframeoffset>0</subframeoffset>
							<enabled>TRUE</enabled>
							<masterclipid>408-13-02-03B1</masterclipid>
							<syncoffset>0</syncoffset>
							<logginginfo>
								<scene/>
								<shottake/>
								<lognote/>
								<good>FALSE</good>
							</logginginfo>
							<labels>
								<label2/>
							</labels>
							<comments>
								<mastercomment1/>
								<mastercomment2/>
								<mastercomment3/>
								<mastercomment4/>
							</comments>
							<file id="MW-013-2T03 "/>
							<filter>
								<effect>
									<name>Audio Levels</name>
									<effectid>audiolevels</effectid>
									<effectcategory>audiolevels</effectcategory>
									<effecttype>audiolevels</effecttype>
									<mediatype>audio</mediatype>
									<parameter>
										<name>Level</name>
										<parameterid>level</parameterid>
										<valuemin>0</valuemin>
										<valuemax>3.98109</valuemax>
										<value>1</value>
									</parameter>
								</effect>
							</filter>
							<filter>
								<effect>
									<name>Audio Pan</name>
									<effectid>audiopan</effectid>
									<effectcategory>audiopan</effectcategory>
									<effecttype>audiopan</effecttype>
									<mediatype>audio</mediatype>
									<parameter>
										<name>Pan</name>
										<parameterid>pan</parameterid>
										<valuemin>-1</valuemin>
										<valuemax>1</valuemax>
										<value>0</value>
									</parameter>
								</effect>
							</filter>
							<sourcetrack>
								<mediatype>audio</mediatype>
								<trackindex>2</trackindex>
							</sourcetrack>
							<link>
								<linkclipref>408-13-02-03B59</linkclipref>
								<mediatype>video</mediatype>
								<trackindex>1</trackindex>
								<clipindex>1</clipindex>
							</link>
							<link>
								<linkclipref>408-13-02-03B60</linkclipref>
								<mediatype>audio</mediatype>
								<trackindex>1</trackindex>
								<clipindex>1</clipindex>
							</link>
							<link>
								<linkclipref>408-13-02-03B61</linkclipref>
								<mediatype>audio</mediatype>
								<trackindex>2</trackindex>
								<clipindex>1</clipindex>
							</link>
							<link>
								<linkclipref>408-13-02-03B62</linkclipref>
								<mediatype>audio</mediatype>
								<trackindex>3</trackindex>
								<clipindex>1</clipindex>
							</link>
							<link>
								<linkclipref>408-13-02-03B63</linkclipref>
								<mediatype>audio</mediatype>
								<trackindex>4</trackindex>
								<clipindex>1</clipindex>
							</link>
							<link>
								<linkclipref>408-13-02-03B64</linkclipref>
								<mediatype>audio</mediatype>
								<trackindex>5</trackindex>
								<clipindex>1</clipindex>
							</link>
							<link>
								<linkclipref>408-13-02-03B65</linkclipref>
								<mediatype>audio</mediatype>
								<trackindex>6</trackindex>
								<clipindex>1</clipindex>
							</link>
							<multiclip id="30"/>
							<itemhistory>
								<uuid>8D81E6F0-C976-41A2-85D9-F4894422B283</uuid>
							</itemhistory>
						</clipitem>
						<enabled>TRUE</enabled>
						<locked>FALSE</locked>
						<outputchannelindex>2</outputchannelindex>
					</track>
					<track>
						<clipitem id="408-13-02-03B62">
							<name>408-13-02-03B</name>
							<duration>3750</duration>
							<rate>
								<ntsc>FALSE</ntsc>
								<timebase>25</timebase>
							</rate>
							<in>0</in>
							<out>3750</out>
							<start>0</start>
							<end>3750</end>
							<subframeoffset>0</subframeoffset>
							<enabled>TRUE</enabled>
							<masterclipid>408-13-02-03B1</masterclipid>
							<syncoffset>0</syncoffset>
							<logginginfo>
								<scene/>
								<shottake/>
								<lognote/>
								<good>FALSE</good>
							</logginginfo>
							<labels>
								<label2/>
							</labels>
							<comments>
								<mastercomment1/>
								<mastercomment2/>
								<mastercomment3/>
								<mastercomment4/>
							</comments>
							<file id="MW-013-2T03 "/>
							<filter>
								<effect>
									<name>Audio Levels</name>
									<effectid>audiolevels</effectid>
									<effectcategory>audiolevels</effectcategory>
									<effecttype>audiolevels</effecttype>
									<mediatype>audio</mediatype>
									<parameter>
										<name>Level</name>
										<parameterid>level</parameterid>
										<valuemin>0</valuemin>
										<valuemax>3.98109</valuemax>
										<value>1</value>
									</parameter>
								</effect>
							</filter>
							<filter>
								<effect>
									<name>Audio Pan</name>
									<effectid>audiopan</effectid>
									<effectcategory>audiopan</effectcategory>
									<effecttype>audiopan</effecttype>
									<mediatype>audio</mediatype>
									<parameter>
										<name>Pan</name>
										<parameterid>pan</parameterid>
										<valuemin>-1</valuemin>
										<valuemax>1</valuemax>
										<value>0</value>
									</parameter>
								</effect>
							</filter>
							<sourcetrack>
								<mediatype>audio</mediatype>
								<trackindex>3</trackindex>
							</sourcetrack>
							<link>
								<linkclipref>408-13-02-03B59</linkclipref>
								<mediatype>video</mediatype>
								<trackindex>1</trackindex>
								<clipindex>1</clipindex>
							</link>
							<link>
								<linkclipref>408-13-02-03B60</linkclipref>
								<mediatype>audio</mediatype>
								<trackindex>1</trackindex>
								<clipindex>1</clipindex>
							</link>
							<link>
								<linkclipref>408-13-02-03B61</linkclipref>
								<mediatype>audio</mediatype>
								<trackindex>2</trackindex>
								<clipindex>1</clipindex>
							</link>
							<link>
								<linkclipref>408-13-02-03B62</linkclipref>
								<mediatype>audio</mediatype>
								<trackindex>3</trackindex>
								<clipindex>1</clipindex>
							</link>
							<link>
								<linkclipref>408-13-02-03B63</linkclipref>
								<mediatype>audio</mediatype>
								<trackindex>4</trackindex>
								<clipindex>1</clipindex>
							</link>
							<link>
								<linkclipref>408-13-02-03B64</linkclipref>
								<mediatype>audio</mediatype>
								<trackindex>5</trackindex>
								<clipindex>1</clipindex>
							</link>
							<link>
								<linkclipref>408-13-02-03B65</linkclipref>
								<mediatype>audio</mediatype>
								<trackindex>6</trackindex>
								<clipindex>1</clipindex>
							</link>
							<multiclip id="30"/>
							<itemhistory>
								<uuid>3D8BCBE3-1C7B-4E08-9520-DD0A1168C444</uuid>
							</itemhistory>
						</clipitem>
						<enabled>TRUE</enabled>
						<locked>FALSE</locked>
						<outputchannelindex>1</outputchannelindex>
					</track>
					<track>
						<clipitem id="408-13-02-03B63">
							<name>408-13-02-03B</name>
							<duration>3750</duration>
							<rate>
								<ntsc>FALSE</ntsc>
								<timebase>25</timebase>
							</rate>
							<in>0</in>
							<out>3750</out>
							<start>0</start>
							<end>3750</end>
							<subframeoffset>0</subframeoffset>
							<enabled>TRUE</enabled>
							<masterclipid>408-13-02-03B1</masterclipid>
							<syncoffset>0</syncoffset>
							<logginginfo>
								<scene/>
								<shottake/>
								<lognote/>
								<good>FALSE</good>
							</logginginfo>
							<labels>
								<label2/>
							</labels>
							<comments>
								<mastercomment1/>
								<mastercomment2/>
								<mastercomment3/>
								<mastercomment4/>
							</comments>
							<file id="MW-013-2T03 "/>
							<filter>
								<effect>
									<name>Audio Levels</name>
									<effectid>audiolevels</effectid>
									<effectcategory>audiolevels</effectcategory>
									<effecttype>audiolevels</effecttype>
									<mediatype>audio</mediatype>
									<parameter>
										<name>Level</name>
										<parameterid>level</parameterid>
										<valuemin>0</valuemin>
										<valuemax>3.98109</valuemax>
										<value>1</value>
									</parameter>
								</effect>
							</filter>
							<filter>
								<effect>
									<name>Audio Pan</name>
									<effectid>audiopan</effectid>
									<effectcategory>audiopan</effectcategory>
									<effecttype>audiopan</effecttype>
									<mediatype>audio</mediatype>
									<parameter>
										<name>Pan</name>
										<parameterid>pan</parameterid>
										<valuemin>-1</valuemin>
										<valuemax>1</valuemax>
										<value>0</value>
									</parameter>
								</effect>
							</filter>
							<sourcetrack>
								<mediatype>audio</mediatype>
								<trackindex>4</trackindex>
							</sourcetrack>
							<link>
								<linkclipref>408-13-02-03B59</linkclipref>
								<mediatype>video</mediatype>
								<trackindex>1</trackindex>
								<clipindex>1</clipindex>
							</link>
							<link>
								<linkclipref>408-13-02-03B60</linkclipref>
								<mediatype>audio</mediatype>
								<trackindex>1</trackindex>
								<clipindex>1</clipindex>
							</link>
							<link>
								<linkclipref>408-13-02-03B61</linkclipref>
								<mediatype>audio</mediatype>
								<trackindex>2</trackindex>
								<clipindex>1</clipindex>
							</link>
							<link>
								<linkclipref>408-13-02-03B62</linkclipref>
								<mediatype>audio</mediatype>
								<trackindex>3</trackindex>
								<clipindex>1</clipindex>
							</link>
							<link>
								<linkclipref>408-13-02-03B63</linkclipref>
								<mediatype>audio</mediatype>
								<trackindex>4</trackindex>
								<clipindex>1</clipindex>
							</link>
							<link>
								<linkclipref>408-13-02-03B64</linkclipref>
								<mediatype>audio</mediatype>
								<trackindex>5</trackindex>
								<clipindex>1</clipindex>
							</link>
							<link>
								<linkclipref>408-13-02-03B65</linkclipref>
								<mediatype>audio</mediatype>
								<trackindex>6</trackindex>
								<clipindex>1</clipindex>
							</link>
							<multiclip id="30"/>
							<itemhistory>
								<uuid>3B1FF2AF-B2CD-45EA-A67C-2B1AD518AD31</uuid>
							</itemhistory>
						</clipitem>
						<enabled>TRUE</enabled>
						<locked>FALSE</locked>
						<outputchannelindex>2</outputchannelindex>
					</track>
					<track>
						<clipitem id="408-13-02-03B64">
							<name>408-13-02-03B</name>
							<duration>3750</duration>
							<rate>
								<ntsc>FALSE</ntsc>
								<timebase>25</timebase>
							</rate>
							<in>0</in>
							<out>3750</out>
							<start>0</start>
							<end>3750</end>
							<subframeoffset>0</subframeoffset>
							<enabled>TRUE</enabled>
							<masterclipid>408-13-02-03B1</masterclipid>
							<syncoffset>0</syncoffset>
							<logginginfo>
								<scene/>
								<shottake/>
								<lognote/>
								<good>FALSE</good>
							</logginginfo>
							<labels>
								<label2/>
							</labels>
							<comments>
								<mastercomment1/>
								<mastercomment2/>
								<mastercomment3/>
								<mastercomment4/>
							</comments>
							<file id="MW-013-2T03 "/>
							<filter>
								<effect>
									<name>Audio Levels</name>
									<effectid>audiolevels</effectid>
									<effectcategory>audiolevels</effectcategory>
									<effecttype>audiolevels</effecttype>
									<mediatype>audio</mediatype>
									<parameter>
										<name>Level</name>
										<parameterid>level</parameterid>
										<valuemin>0</valuemin>
										<valuemax>3.98109</valuemax>
										<value>1</value>
									</parameter>
								</effect>
							</filter>
							<filter>
								<effect>
									<name>Audio Pan</name>
									<effectid>audiopan</effectid>
									<effectcategory>audiopan</effectcategory>
									<effecttype>audiopan</effecttype>
									<mediatype>audio</mediatype>
									<parameter>
										<name>Pan</name>
										<parameterid>pan</parameterid>
										<valuemin>-1</valuemin>
										<valuemax>1</valuemax>
										<value>0</value>
									</parameter>
								</effect>
							</filter>
							<sourcetrack>
								<mediatype>audio</mediatype>
								<trackindex>5</trackindex>
							</sourcetrack>
							<link>
								<linkclipref>408-13-02-03B59</linkclipref>
								<mediatype>video</mediatype>
								<trackindex>1</trackindex>
								<clipindex>1</clipindex>
							</link>
							<link>
								<linkclipref>408-13-02-03B60</linkclipref>
								<mediatype>audio</mediatype>
								<trackindex>1</trackindex>
								<clipindex>1</clipindex>
							</link>
							<link>
								<linkclipref>408-13-02-03B61</linkclipref>
								<mediatype>audio</mediatype>
								<trackindex>2</trackindex>
								<clipindex>1</clipindex>
							</link>
							<link>
								<linkclipref>408-13-02-03B62</linkclipref>
								<mediatype>audio</mediatype>
								<trackindex>3</trackindex>
								<clipindex>1</clipindex>
							</link>
							<link>
								<linkclipref>408-13-02-03B63</linkclipref>
								<mediatype>audio</mediatype>
								<trackindex>4</trackindex>
								<clipindex>1</clipindex>
							</link>
							<link>
								<linkclipref>408-13-02-03B64</linkclipref>
								<mediatype>audio</mediatype>
								<trackindex>5</trackindex>
								<clipindex>1</clipindex>
							</link>
							<link>
								<linkclipref>408-13-02-03B65</linkclipref>
								<mediatype>audio</mediatype>
								<trackindex>6</trackindex>
								<clipindex>1</clipindex>
							</link>
							<multiclip id="30"/>
							<itemhistory>
								<uuid>63A4460C-0B97-4205-9815-2154EAF1AC4D</uuid>
							</itemhistory>
						</clipitem>
						<enabled>TRUE</enabled>
						<locked>FALSE</locked>
						<outputchannelindex>1</outputchannelindex>
					</track>
					<track>
						<clipitem id="408-13-02-03B65">
							<name>408-13-02-03B</name>
							<duration>3750</duration>
							<rate>
								<ntsc>FALSE</ntsc>
								<timebase>25</timebase>
							</rate>
							<in>0</in>
							<out>3750</out>
							<start>0</start>
							<end>3750</end>
							<subframeoffset>0</subframeoffset>
							<enabled>TRUE</enabled>
							<masterclipid>408-13-02-03B1</masterclipid>
							<syncoffset>0</syncoffset>
							<logginginfo>
								<scene/>
								<shottake/>
								<lognote/>
								<good>FALSE</good>
							</logginginfo>
							<labels>
								<label2/>
							</labels>
							<comments>
								<mastercomment1/>
								<mastercomment2/>
								<mastercomment3/>
								<mastercomment4/>
							</comments>
							<file id="MW-013-2T03 "/>
							<filter>
								<effect>
									<name>Audio Levels</name>
									<effectid>audiolevels</effectid>
									<effectcategory>audiolevels</effectcategory>
									<effecttype>audiolevels</effecttype>
									<mediatype>audio</mediatype>
									<parameter>
										<name>Level</name>
										<parameterid>level</parameterid>
										<valuemin>0</valuemin>
										<valuemax>3.98109</valuemax>
										<value>1</value>
									</parameter>
								</effect>
							</filter>
							<filter>
								<effect>
									<name>Audio Pan</name>
									<effectid>audiopan</effectid>
									<effectcategory>audiopan</effectcategory>
									<effecttype>audiopan</effecttype>
									<mediatype>audio</mediatype>
									<parameter>
										<name>Pan</name>
										<parameterid>pan</parameterid>
										<valuemin>-1</valuemin>
										<valuemax>1</valuemax>
										<value>0</value>
									</parameter>
								</effect>
							</filter>
							<sourcetrack>
								<mediatype>audio</mediatype>
								<trackindex>6</trackindex>
							</sourcetrack>
							<link>
								<linkclipref>408-13-02-03B59</linkclipref>
								<mediatype>video</mediatype>
								<trackindex>1</trackindex>
								<clipindex>1</clipindex>
							</link>
							<link>
								<linkclipref>408-13-02-03B60</linkclipref>
								<mediatype>audio</mediatype>
								<trackindex>1</trackindex>
								<clipindex>1</clipindex>
							</link>
							<link>
								<linkclipref>408-13-02-03B61</linkclipref>
								<mediatype>audio</mediatype>
								<trackindex>2</trackindex>
								<clipindex>1</clipindex>
							</link>
							<link>
								<linkclipref>408-13-02-03B62</linkclipref>
								<mediatype>audio</mediatype>
								<trackindex>3</trackindex>
								<clipindex>1</clipindex>
							</link>
							<link>
								<linkclipref>408-13-02-03B63</linkclipref>
								<mediatype>audio</mediatype>
								<trackindex>4</trackindex>
								<clipindex>1</clipindex>
							</link>
							<link>
								<linkclipref>408-13-02-03B64</linkclipref>
								<mediatype>audio</mediatype>
								<trackindex>5</trackindex>
								<clipindex>1</clipindex>
							</link>
							<link>
								<linkclipref>408-13-02-03B65</linkclipref>
								<mediatype>audio</mediatype>
								<trackindex>6</trackindex>
								<clipindex>1</clipindex>
							</link>
							<multiclip id="30"/>
							<itemhistory>
								<uuid>14E0478D-F14D-4448-B054-899272FE6141</uuid>
							</itemhistory>
						</clipitem>
						<enabled>TRUE</enabled>
						<locked>FALSE</locked>
						<outputchannelindex>2</outputchannelindex>
					</track>
					<filter>
						<effect>
							<name>Audio Levels</name>
							<effectid>audiolevels</effectid>
							<effectcategory>audiolevels</effectcategory>
							<effecttype>audiolevels</effecttype>
							<mediatype>audio</mediatype>
							<parameter>
								<name>Level</name>
								<parameterid>level</parameterid>
								<valuemin>0</valuemin>
								<valuemax>3.98109</valuemax>
								<value>1</value>
							</parameter>
						</effect>
					</filter>
				</audio>
			</media>
		</clip>
		<clip id="408-13-01-03A16">
			<uuid>12CF905D-F236-43C1-AEE7-AA7233291875</uuid>
			<updatebehavior>add</updatebehavior>
			<name>408-13-01-03A</name>
			<duration>3700</duration>
			<rate>
				<ntsc>FALSE</ntsc>
				<timebase>25</timebase>
			</rate>
			<in>249</in>
			<out>3594</out>
			<ismasterclip>FALSE</ismasterclip>
			<logginginfo>
				<scene/>
				<shottake/>
				<lognote/>
				<good>FALSE</good>
			</logginginfo>
			<labels>
				<label2/>
			</labels>
			<comments>
				<mastercomment1/>
				<mastercomment2/>
				<mastercomment3/>
				<mastercomment4/>
			</comments>
			<media>
				<video>
					<format>
						<samplecharacteristics>
							<width>1920</width>
							<height>1080</height>
							<anamorphic>FALSE</anamorphic>
							<pixelaspectratio>Square</pixelaspectratio>
							<fielddominance>none</fielddominance>
							<rate>
								<ntsc>FALSE</ntsc>
								<timebase>25</timebase>
							</rate>
							<colordepth>24</colordepth>
							<codec>
								<name>Apple ProRes 422 (Proxy)</name>
								<appspecificdata>
									<appname>Final Cut Pro</appname>
									<appmanufacturer>Apple Inc.</appmanufacturer>
									<appversion>7.0</appversion>
									<data>
										<qtcodec>
											<codecname>Apple ProRes 422 (Proxy)</codecname>
											<codectypename>Apple ProRes 422 (Proxy)</codectypename>
											<codectypecode>apco</codectypecode>
											<codecvendorcode>appl</codecvendorcode>
											<spatialquality>1024</spatialquality>
											<temporalquality>0</temporalquality>
											<keyframerate>0</keyframerate>
											<datarate>0</datarate>
										</qtcodec>
									</data>
								</appspecificdata>
							</codec>
						</samplecharacteristics>
						<appspecificdata>
							<appname>Final Cut Pro</appname>
							<appmanufacturer>Apple Inc.</appmanufacturer>
							<appversion>7.0</appversion>
							<data>
								<fcpimageprocessing>
									<useyuv>TRUE</useyuv>
									<usesuperwhite>FALSE</usesuperwhite>
									<rendermode>YUV8BPP</rendermode>
								</fcpimageprocessing>
							</data>
						</appspecificdata>
					</format>
					<track>
						<clipitem id="408-13-01-03A31">
							<name>408-13-01-03A</name>
							<duration>3700</duration>
							<rate>
								<ntsc>FALSE</ntsc>
								<timebase>25</timebase>
							</rate>
							<in>0</in>
							<out>3700</out>
							<start>0</start>
							<end>3700</end>
							<pixelaspectratio>Square</pixelaspectratio>
							<enabled>TRUE</enabled>
							<anamorphic>FALSE</anamorphic>
							<alphatype>none</alphatype>
							<masterclipid>408-13-01-03A1</masterclipid>
							<syncoffset>0</syncoffset>
							<logginginfo>
								<scene/>
								<shottake/>
								<lognote/>
								<good>FALSE</good>
							</logginginfo>
							<labels>
								<label2/>
							</labels>
							<comments>
								<mastercomment1/>
								<mastercomment2/>
								<mastercomment3/>
								<mastercomment4/>
							</comments>
							<file id="A011_C020_0204CQ"/>
							<sourcetrack>
								<mediatype>video</mediatype>
							</sourcetrack>
							<link>
								<linkclipref>408-13-01-03A31</linkclipref>
								<mediatype>video</mediatype>
								<trackindex>1</trackindex>
								<clipindex>1</clipindex>
							</link>
							<link>
								<linkclipref>408-13-01-03A32</linkclipref>
								<mediatype>audio</mediatype>
								<trackindex>1</trackindex>
								<clipindex>1</clipindex>
							</link>
							<link>
								<linkclipref>408-13-01-03A33</linkclipref>
								<mediatype>audio</mediatype>
								<trackindex>2</trackindex>
								<clipindex>1</clipindex>
							</link>
							<link>
								<linkclipref>408-13-01-03A34</linkclipref>
								<mediatype>audio</mediatype>
								<trackindex>3</trackindex>
								<clipindex>1</clipindex>
							</link>
							<link>
								<linkclipref>408-13-01-03A35</linkclipref>
								<mediatype>audio</mediatype>
								<trackindex>4</trackindex>
								<clipindex>1</clipindex>
							</link>
							<link>
								<linkclipref>408-13-01-03A36</linkclipref>
								<mediatype>audio</mediatype>
								<trackindex>5</trackindex>
								<clipindex>1</clipindex>
							</link>
							<link>
								<linkclipref>408-13-01-03A37</linkclipref>
								<mediatype>audio</mediatype>
								<trackindex>6</trackindex>
								<clipindex>1</clipindex>
							</link>
							<fielddominance>none</fielddominance>
							<multiclip id="31">
								<collapsed>FALSE</collapsed>
								<synctype>1</synctype>
								<angle>
									<activevideoangle>TRUE</activevideoangle>
									<activeaudioangle>TRUE</activeaudioangle>
									<clip id="408-13-01-03A8"/>
								</angle>
								<angle>
									<clip id="408-13-01-03B"/>
								</angle>
								<masterclipid>408-13-01-03A16</masterclipid>
							</multiclip>
							<mediadelay>103</mediadelay>
							<itemhistory>
								<uuid>84B608B8-83F4-4BC1-AC5C-52B8B3CDDE53</uuid>
							</itemhistory>
						</clipitem>
						<enabled>TRUE</enabled>
						<locked>FALSE</locked>
					</track>
				</video>
				<audio>
					<format>
						<samplecharacteristics>
							<depth>16</depth>
							<samplerate>48000</samplerate>
						</samplecharacteristics>
					</format>
					<outputs>
						<group>
							<index>1</index>
							<numchannels>2</numchannels>
							<downmix>0</downmix>
							<channel>
								<index>1</index>
							</channel>
							<channel>
								<index>2</index>
							</channel>
						</group>
					</outputs>
					<in>249</in>
					<out>3594</out>
					<track>
						<clipitem id="408-13-01-03A32">
							<name>408-13-01-03A</name>
							<duration>3700</duration>
							<rate>
								<ntsc>FALSE</ntsc>
								<timebase>25</timebase>
							</rate>
							<in>0</in>
							<out>3700</out>
							<start>0</start>
							<end>3700</end>
							<subframeoffset>0</subframeoffset>
							<enabled>TRUE</enabled>
							<masterclipid>408-13-01-03A1</masterclipid>
							<syncoffset>0</syncoffset>
							<logginginfo>
								<scene/>
								<shottake/>
								<lognote/>
								<good>FALSE</good>
							</logginginfo>
							<labels>
								<label2/>
							</labels>
							<comments>
								<mastercomment1/>
								<mastercomment2/>
								<mastercomment3/>
								<mastercomment4/>
							</comments>
							<file id="MW-013-1T03 "/>
							<filter>
								<effect>
									<name>Audio Levels</name>
									<effectid>audiolevels</effectid>
									<effectcategory>audiolevels</effectcategory>
									<effecttype>audiolevels</effecttype>
									<mediatype>audio</mediatype>
									<parameter>
										<name>Level</name>
										<parameterid>level</parameterid>
										<valuemin>0</valuemin>
										<valuemax>3.98109</valuemax>
										<value>1</value>
									</parameter>
								</effect>
							</filter>
							<filter>
								<effect>
									<name>Audio Pan</name>
									<effectid>audiopan</effectid>
									<effectcategory>audiopan</effectcategory>
									<effecttype>audiopan</effecttype>
									<mediatype>audio</mediatype>
									<parameter>
										<name>Pan</name>
										<parameterid>pan</parameterid>
										<valuemin>-1</valuemin>
										<valuemax>1</valuemax>
										<value>0</value>
									</parameter>
								</effect>
							</filter>
							<sourcetrack>
								<mediatype>audio</mediatype>
								<trackindex>1</trackindex>
							</sourcetrack>
							<link>
								<linkclipref>408-13-01-03A31</linkclipref>
								<mediatype>video</mediatype>
								<trackindex>1</trackindex>
								<clipindex>1</clipindex>
							</link>
							<link>
								<linkclipref>408-13-01-03A32</linkclipref>
								<mediatype>audio</mediatype>
								<trackindex>1</trackindex>
								<clipindex>1</clipindex>
							</link>
							<link>
								<linkclipref>408-13-01-03A33</linkclipref>
								<mediatype>audio</mediatype>
								<trackindex>2</trackindex>
								<clipindex>1</clipindex>
							</link>
							<link>
								<linkclipref>408-13-01-03A34</linkclipref>
								<mediatype>audio</mediatype>
								<trackindex>3</trackindex>
								<clipindex>1</clipindex>
							</link>
							<link>
								<linkclipref>408-13-01-03A35</linkclipref>
								<mediatype>audio</mediatype>
								<trackindex>4</trackindex>
								<clipindex>1</clipindex>
							</link>
							<link>
								<linkclipref>408-13-01-03A36</linkclipref>
								<mediatype>audio</mediatype>
								<trackindex>5</trackindex>
								<clipindex>1</clipindex>
							</link>
							<link>
								<linkclipref>408-13-01-03A37</linkclipref>
								<mediatype>audio</mediatype>
								<trackindex>6</trackindex>
								<clipindex>1</clipindex>
							</link>
							<multiclip id="31"/>
							<itemhistory>
								<uuid>07A71A19-F55C-44A4-9A2F-5D1BC0C887A0</uuid>
							</itemhistory>
						</clipitem>
						<enabled>TRUE</enabled>
						<locked>FALSE</locked>
						<outputchannelindex>1</outputchannelindex>
					</track>
					<track>
						<clipitem id="408-13-01-03A33">
							<name>408-13-01-03A</name>
							<duration>3700</duration>
							<rate>
								<ntsc>FALSE</ntsc>
								<timebase>25</timebase>
							</rate>
							<in>0</in>
							<out>3700</out>
							<start>0</start>
							<end>3700</end>
							<subframeoffset>0</subframeoffset>
							<enabled>TRUE</enabled>
							<masterclipid>408-13-01-03A1</masterclipid>
							<syncoffset>0</syncoffset>
							<logginginfo>
								<scene/>
								<shottake/>
								<lognote/>
								<good>FALSE</good>
							</logginginfo>
							<labels>
								<label2/>
							</labels>
							<comments>
								<mastercomment1/>
								<mastercomment2/>
								<mastercomment3/>
								<mastercomment4/>
							</comments>
							<file id="MW-013-1T03 "/>
							<filter>
								<effect>
									<name>Audio Levels</name>
									<effectid>audiolevels</effectid>
									<effectcategory>audiolevels</effectcategory>
									<effecttype>audiolevels</effecttype>
									<mediatype>audio</mediatype>
									<parameter>
										<name>Level</name>
										<parameterid>level</parameterid>
										<valuemin>0</valuemin>
										<valuemax>3.98109</valuemax>
										<value>1</value>
									</parameter>
								</effect>
							</filter>
							<filter>
								<effect>
									<name>Audio Pan</name>
									<effectid>audiopan</effectid>
									<effectcategory>audiopan</effectcategory>
									<effecttype>audiopan</effecttype>
									<mediatype>audio</mediatype>
									<parameter>
										<name>Pan</name>
										<parameterid>pan</parameterid>
										<valuemin>-1</valuemin>
										<valuemax>1</valuemax>
										<value>0</value>
									</parameter>
								</effect>
							</filter>
							<sourcetrack>
								<mediatype>audio</mediatype>
								<trackindex>2</trackindex>
							</sourcetrack>
							<link>
								<linkclipref>408-13-01-03A31</linkclipref>
								<mediatype>video</mediatype>
								<trackindex>1</trackindex>
								<clipindex>1</clipindex>
							</link>
							<link>
								<linkclipref>408-13-01-03A32</linkclipref>
								<mediatype>audio</mediatype>
								<trackindex>1</trackindex>
								<clipindex>1</clipindex>
							</link>
							<link>
								<linkclipref>408-13-01-03A33</linkclipref>
								<mediatype>audio</mediatype>
								<trackindex>2</trackindex>
								<clipindex>1</clipindex>
							</link>
							<link>
								<linkclipref>408-13-01-03A34</linkclipref>
								<mediatype>audio</mediatype>
								<trackindex>3</trackindex>
								<clipindex>1</clipindex>
							</link>
							<link>
								<linkclipref>408-13-01-03A35</linkclipref>
								<mediatype>audio</mediatype>
								<trackindex>4</trackindex>
								<clipindex>1</clipindex>
							</link>
							<link>
								<linkclipref>408-13-01-03A36</linkclipref>
								<mediatype>audio</mediatype>
								<trackindex>5</trackindex>
								<clipindex>1</clipindex>
							</link>
							<link>
								<linkclipref>408-13-01-03A37</linkclipref>
								<mediatype>audio</mediatype>
								<trackindex>6</trackindex>
								<clipindex>1</clipindex>
							</link>
							<multiclip id="31"/>
							<itemhistory>
								<uuid>F64E42D4-4041-44FF-8240-E524531D4BA4</uuid>
							</itemhistory>
						</clipitem>
						<enabled>TRUE</enabled>
						<locked>FALSE</locked>
						<outputchannelindex>2</outputchannelindex>
					</track>
					<track>
						<clipitem id="408-13-01-03A34">
							<name>408-13-01-03A</name>
							<duration>3700</duration>
							<rate>
								<ntsc>FALSE</ntsc>
								<timebase>25</timebase>
							</rate>
							<in>0</in>
							<out>3700</out>
							<start>0</start>
							<end>3700</end>
							<subframeoffset>0</subframeoffset>
							<enabled>TRUE</enabled>
							<masterclipid>408-13-01-03A1</masterclipid>
							<syncoffset>0</syncoffset>
							<logginginfo>
								<scene/>
								<shottake/>
								<lognote/>
								<good>FALSE</good>
							</logginginfo>
							<labels>
								<label2/>
							</labels>
							<comments>
								<mastercomment1/>
								<mastercomment2/>
								<mastercomment3/>
								<mastercomment4/>
							</comments>
							<file id="MW-013-1T03 "/>
							<filter>
								<effect>
									<name>Audio Levels</name>
									<effectid>audiolevels</effectid>
									<effectcategory>audiolevels</effectcategory>
									<effecttype>audiolevels</effecttype>
									<mediatype>audio</mediatype>
									<parameter>
										<name>Level</name>
										<parameterid>level</parameterid>
										<valuemin>0</valuemin>
										<valuemax>3.98109</valuemax>
										<value>1</value>
									</parameter>
								</effect>
							</filter>
							<filter>
								<effect>
									<name>Audio Pan</name>
									<effectid>audiopan</effectid>
									<effectcategory>audiopan</effectcategory>
									<effecttype>audiopan</effecttype>
									<mediatype>audio</mediatype>
									<parameter>
										<name>Pan</name>
										<parameterid>pan</parameterid>
										<valuemin>-1</valuemin>
										<valuemax>1</valuemax>
										<value>0</value>
									</parameter>
								</effect>
							</filter>
							<sourcetrack>
								<mediatype>audio</mediatype>
								<trackindex>3</trackindex>
							</sourcetrack>
							<link>
								<linkclipref>408-13-01-03A31</linkclipref>
								<mediatype>video</mediatype>
								<trackindex>1</trackindex>
								<clipindex>1</clipindex>
							</link>
							<link>
								<linkclipref>408-13-01-03A32</linkclipref>
								<mediatype>audio</mediatype>
								<trackindex>1</trackindex>
								<clipindex>1</clipindex>
							</link>
							<link>
								<linkclipref>408-13-01-03A33</linkclipref>
								<mediatype>audio</mediatype>
								<trackindex>2</trackindex>
								<clipindex>1</clipindex>
							</link>
							<link>
								<linkclipref>408-13-01-03A34</linkclipref>
								<mediatype>audio</mediatype>
								<trackindex>3</trackindex>
								<clipindex>1</clipindex>
							</link>
							<link>
								<linkclipref>408-13-01-03A35</linkclipref>
								<mediatype>audio</mediatype>
								<trackindex>4</trackindex>
								<clipindex>1</clipindex>
							</link>
							<link>
								<linkclipref>408-13-01-03A36</linkclipref>
								<mediatype>audio</mediatype>
								<trackindex>5</trackindex>
								<clipindex>1</clipindex>
							</link>
							<link>
								<linkclipref>408-13-01-03A37</linkclipref>
								<mediatype>audio</mediatype>
								<trackindex>6</trackindex>
								<clipindex>1</clipindex>
							</link>
							<multiclip id="31"/>
							<itemhistory>
								<uuid>77C06873-EE41-4611-A235-17ACA67BA503</uuid>
							</itemhistory>
						</clipitem>
						<enabled>TRUE</enabled>
						<locked>FALSE</locked>
						<outputchannelindex>1</outputchannelindex>
					</track>
					<track>
						<clipitem id="408-13-01-03A35">
							<name>408-13-01-03A</name>
							<duration>3700</duration>
							<rate>
								<ntsc>FALSE</ntsc>
								<timebase>25</timebase>
							</rate>
							<in>0</in>
							<out>3700</out>
							<start>0</start>
							<end>3700</end>
							<subframeoffset>0</subframeoffset>
							<enabled>TRUE</enabled>
							<masterclipid>408-13-01-03A1</masterclipid>
							<syncoffset>0</syncoffset>
							<logginginfo>
								<scene/>
								<shottake/>
								<lognote/>
								<good>FALSE</good>
							</logginginfo>
							<labels>
								<label2/>
							</labels>
							<comments>
								<mastercomment1/>
								<mastercomment2/>
								<mastercomment3/>
								<mastercomment4/>
							</comments>
							<file id="MW-013-1T03 "/>
							<filter>
								<effect>
									<name>Audio Levels</name>
									<effectid>audiolevels</effectid>
									<effectcategory>audiolevels</effectcategory>
									<effecttype>audiolevels</effecttype>
									<mediatype>audio</mediatype>
									<parameter>
										<name>Level</name>
										<parameterid>level</parameterid>
										<valuemin>0</valuemin>
										<valuemax>3.98109</valuemax>
										<value>1</value>
									</parameter>
								</effect>
							</filter>
							<filter>
								<effect>
									<name>Audio Pan</name>
									<effectid>audiopan</effectid>
									<effectcategory>audiopan</effectcategory>
									<effecttype>audiopan</effecttype>
									<mediatype>audio</mediatype>
									<parameter>
										<name>Pan</name>
										<parameterid>pan</parameterid>
										<valuemin>-1</valuemin>
										<valuemax>1</valuemax>
										<value>0</value>
									</parameter>
								</effect>
							</filter>
							<sourcetrack>
								<mediatype>audio</mediatype>
								<trackindex>4</trackindex>
							</sourcetrack>
							<link>
								<linkclipref>408-13-01-03A31</linkclipref>
								<mediatype>video</mediatype>
								<trackindex>1</trackindex>
								<clipindex>1</clipindex>
							</link>
							<link>
								<linkclipref>408-13-01-03A32</linkclipref>
								<mediatype>audio</mediatype>
								<trackindex>1</trackindex>
								<clipindex>1</clipindex>
							</link>
							<link>
								<linkclipref>408-13-01-03A33</linkclipref>
								<mediatype>audio</mediatype>
								<trackindex>2</trackindex>
								<clipindex>1</clipindex>
							</link>
							<link>
								<linkclipref>408-13-01-03A34</linkclipref>
								<mediatype>audio</mediatype>
								<trackindex>3</trackindex>
								<clipindex>1</clipindex>
							</link>
							<link>
								<linkclipref>408-13-01-03A35</linkclipref>
								<mediatype>audio</mediatype>
								<trackindex>4</trackindex>
								<clipindex>1</clipindex>
							</link>
							<link>
								<linkclipref>408-13-01-03A36</linkclipref>
								<mediatype>audio</mediatype>
								<trackindex>5</trackindex>
								<clipindex>1</clipindex>
							</link>
							<link>
								<linkclipref>408-13-01-03A37</linkclipref>
								<mediatype>audio</mediatype>
								<trackindex>6</trackindex>
								<clipindex>1</clipindex>
							</link>
							<multiclip id="31"/>
							<itemhistory>
								<uuid>3B7913B6-BE91-424E-AE5A-68B384C3AA77</uuid>
							</itemhistory>
						</clipitem>
						<enabled>TRUE</enabled>
						<locked>FALSE</locked>
						<outputchannelindex>2</outputchannelindex>
					</track>
					<track>
						<clipitem id="408-13-01-03A36">
							<name>408-13-01-03A</name>
							<duration>3700</duration>
							<rate>
								<ntsc>FALSE</ntsc>
								<timebase>25</timebase>
							</rate>
							<in>0</in>
							<out>3700</out>
							<start>0</start>
							<end>3700</end>
							<subframeoffset>0</subframeoffset>
							<enabled>TRUE</enabled>
							<masterclipid>408-13-01-03A1</masterclipid>
							<syncoffset>0</syncoffset>
							<logginginfo>
								<scene/>
								<shottake/>
								<lognote/>
								<good>FALSE</good>
							</logginginfo>
							<labels>
								<label2/>
							</labels>
							<comments>
								<mastercomment1/>
								<mastercomment2/>
								<mastercomment3/>
								<mastercomment4/>
							</comments>
							<file id="MW-013-1T03 "/>
							<filter>
								<effect>
									<name>Audio Levels</name>
									<effectid>audiolevels</effectid>
									<effectcategory>audiolevels</effectcategory>
									<effecttype>audiolevels</effecttype>
									<mediatype>audio</mediatype>
									<parameter>
										<name>Level</name>
										<parameterid>level</parameterid>
										<valuemin>0</valuemin>
										<valuemax>3.98109</valuemax>
										<value>1</value>
									</parameter>
								</effect>
							</filter>
							<filter>
								<effect>
									<name>Audio Pan</name>
									<effectid>audiopan</effectid>
									<effectcategory>audiopan</effectcategory>
									<effecttype>audiopan</effecttype>
									<mediatype>audio</mediatype>
									<parameter>
										<name>Pan</name>
										<parameterid>pan</parameterid>
										<valuemin>-1</valuemin>
										<valuemax>1</valuemax>
										<value>0</value>
									</parameter>
								</effect>
							</filter>
							<sourcetrack>
								<mediatype>audio</mediatype>
								<trackindex>5</trackindex>
							</sourcetrack>
							<link>
								<linkclipref>408-13-01-03A31</linkclipref>
								<mediatype>video</mediatype>
								<trackindex>1</trackindex>
								<clipindex>1</clipindex>
							</link>
							<link>
								<linkclipref>408-13-01-03A32</linkclipref>
								<mediatype>audio</mediatype>
								<trackindex>1</trackindex>
								<clipindex>1</clipindex>
							</link>
							<link>
								<linkclipref>408-13-01-03A33</linkclipref>
								<mediatype>audio</mediatype>
								<trackindex>2</trackindex>
								<clipindex>1</clipindex>
							</link>
							<link>
								<linkclipref>408-13-01-03A34</linkclipref>
								<mediatype>audio</mediatype>
								<trackindex>3</trackindex>
								<clipindex>1</clipindex>
							</link>
							<link>
								<linkclipref>408-13-01-03A35</linkclipref>
								<mediatype>audio</mediatype>
								<trackindex>4</trackindex>
								<clipindex>1</clipindex>
							</link>
							<link>
								<linkclipref>408-13-01-03A36</linkclipref>
								<mediatype>audio</mediatype>
								<trackindex>5</trackindex>
								<clipindex>1</clipindex>
							</link>
							<link>
								<linkclipref>408-13-01-03A37</linkclipref>
								<mediatype>audio</mediatype>
								<trackindex>6</trackindex>
								<clipindex>1</clipindex>
							</link>
							<multiclip id="31"/>
							<itemhistory>
								<uuid>87F4013D-CD83-44BD-B85D-EF83F5BAC514</uuid>
							</itemhistory>
						</clipitem>
						<enabled>TRUE</enabled>
						<locked>FALSE</locked>
						<outputchannelindex>1</outputchannelindex>
					</track>
					<track>
						<clipitem id="408-13-01-03A37">
							<name>408-13-01-03A</name>
							<duration>3700</duration>
							<rate>
								<ntsc>FALSE</ntsc>
								<timebase>25</timebase>
							</rate>
							<in>0</in>
							<out>3700</out>
							<start>0</start>
							<end>3700</end>
							<subframeoffset>0</subframeoffset>
							<enabled>TRUE</enabled>
							<masterclipid>408-13-01-03A1</masterclipid>
							<syncoffset>0</syncoffset>
							<logginginfo>
								<scene/>
								<shottake/>
								<lognote/>
								<good>FALSE</good>
							</logginginfo>
							<labels>
								<label2/>
							</labels>
							<comments>
								<mastercomment1/>
								<mastercomment2/>
								<mastercomment3/>
								<mastercomment4/>
							</comments>
							<file id="MW-013-1T03 "/>
							<filter>
								<effect>
									<name>Audio Levels</name>
									<effectid>audiolevels</effectid>
									<effectcategory>audiolevels</effectcategory>
									<effecttype>audiolevels</effecttype>
									<mediatype>audio</mediatype>
									<parameter>
										<name>Level</name>
										<parameterid>level</parameterid>
										<valuemin>0</valuemin>
										<valuemax>3.98109</valuemax>
										<value>1</value>
									</parameter>
								</effect>
							</filter>
							<filter>
								<effect>
									<name>Audio Pan</name>
									<effectid>audiopan</effectid>
									<effectcategory>audiopan</effectcategory>
									<effecttype>audiopan</effecttype>
									<mediatype>audio</mediatype>
									<parameter>
										<name>Pan</name>
										<parameterid>pan</parameterid>
										<valuemin>-1</valuemin>
										<valuemax>1</valuemax>
										<value>0</value>
									</parameter>
								</effect>
							</filter>
							<sourcetrack>
								<mediatype>audio</mediatype>
								<trackindex>6</trackindex>
							</sourcetrack>
							<link>
								<linkclipref>408-13-01-03A31</linkclipref>
								<mediatype>video</mediatype>
								<trackindex>1</trackindex>
								<clipindex>1</clipindex>
							</link>
							<link>
								<linkclipref>408-13-01-03A32</linkclipref>
								<mediatype>audio</mediatype>
								<trackindex>1</trackindex>
								<clipindex>1</clipindex>
							</link>
							<link>
								<linkclipref>408-13-01-03A33</linkclipref>
								<mediatype>audio</mediatype>
								<trackindex>2</trackindex>
								<clipindex>1</clipindex>
							</link>
							<link>
								<linkclipref>408-13-01-03A34</linkclipref>
								<mediatype>audio</mediatype>
								<trackindex>3</trackindex>
								<clipindex>1</clipindex>
							</link>
							<link>
								<linkclipref>408-13-01-03A35</linkclipref>
								<mediatype>audio</mediatype>
								<trackindex>4</trackindex>
								<clipindex>1</clipindex>
							</link>
							<link>
								<linkclipref>408-13-01-03A36</linkclipref>
								<mediatype>audio</mediatype>
								<trackindex>5</trackindex>
								<clipindex>1</clipindex>
							</link>
							<link>
								<linkclipref>408-13-01-03A37</linkclipref>
								<mediatype>audio</mediatype>
								<trackindex>6</trackindex>
								<clipindex>1</clipindex>
							</link>
							<multiclip id="31"/>
							<itemhistory>
								<uuid>B2A6C466-0F98-4A78-9A80-878C5A04A845</uuid>
							</itemhistory>
						</clipitem>
						<enabled>TRUE</enabled>
						<locked>FALSE</locked>
						<outputchannelindex>2</outputchannelindex>
					</track>
					<filter>
						<effect>
							<name>Audio Levels</name>
							<effectid>audiolevels</effectid>
							<effectcategory>audiolevels</effectcategory>
							<effecttype>audiolevels</effecttype>
							<mediatype>audio</mediatype>
							<parameter>
								<name>Level</name>
								<parameterid>level</parameterid>
								<valuemin>0</valuemin>
								<valuemax>3.98109</valuemax>
								<value>1</value>
							</parameter>
						</effect>
					</filter>
				</audio>
			</media>
		</clip>
		<clip id="408-13-03-05A16">
			<uuid>3C8C9FB8-6507-4AE3-949D-B78D49B5A6DF</uuid>
			<updatebehavior>add</updatebehavior>
			<name>408-13-03-05A</name>
			<duration>2100</duration>
			<rate>
				<ntsc>FALSE</ntsc>
				<timebase>25</timebase>
			</rate>
			<in>497</in>
			<out>973</out>
			<ismasterclip>FALSE</ismasterclip>
			<logginginfo>
				<scene/>
				<shottake/>
				<lognote/>
				<good>FALSE</good>
			</logginginfo>
			<labels>
				<label2/>
			</labels>
			<comments>
				<mastercomment1/>
				<mastercomment2/>
				<mastercomment3/>
				<mastercomment4/>
			</comments>
			<media>
				<video>
					<format>
						<samplecharacteristics>
							<width>1920</width>
							<height>1080</height>
							<anamorphic>FALSE</anamorphic>
							<pixelaspectratio>Square</pixelaspectratio>
							<fielddominance>none</fielddominance>
							<rate>
								<ntsc>FALSE</ntsc>
								<timebase>25</timebase>
							</rate>
							<colordepth>24</colordepth>
							<codec>
								<name>Apple ProRes 422 (Proxy)</name>
								<appspecificdata>
									<appname>Final Cut Pro</appname>
									<appmanufacturer>Apple Inc.</appmanufacturer>
									<appversion>7.0</appversion>
									<data>
										<qtcodec>
											<codecname>Apple ProRes 422 (Proxy)</codecname>
											<codectypename>Apple ProRes 422 (Proxy)</codectypename>
											<codectypecode>apco</codectypecode>
											<codecvendorcode>appl</codecvendorcode>
											<spatialquality>1024</spatialquality>
											<temporalquality>0</temporalquality>
											<keyframerate>0</keyframerate>
											<datarate>0</datarate>
										</qtcodec>
									</data>
								</appspecificdata>
							</codec>
						</samplecharacteristics>
						<appspecificdata>
							<appname>Final Cut Pro</appname>
							<appmanufacturer>Apple Inc.</appmanufacturer>
							<appversion>7.0</appversion>
							<data>
								<fcpimageprocessing>
									<useyuv>TRUE</useyuv>
									<usesuperwhite>FALSE</usesuperwhite>
									<rendermode>YUV8BPP</rendermode>
								</fcpimageprocessing>
							</data>
						</appspecificdata>
					</format>
					<track>
						<clipitem id="408-13-03-05A31">
							<name>408-13-03-05A</name>
							<duration>2100</duration>
							<rate>
								<ntsc>FALSE</ntsc>
								<timebase>25</timebase>
							</rate>
							<in>0</in>
							<out>2100</out>
							<start>0</start>
							<end>2100</end>
							<pixelaspectratio>Square</pixelaspectratio>
							<enabled>TRUE</enabled>
							<anamorphic>FALSE</anamorphic>
							<alphatype>none</alphatype>
							<masterclipid>408-13-03-05A1</masterclipid>
							<syncoffset>0</syncoffset>
							<logginginfo>
								<scene/>
								<shottake/>
								<lognote/>
								<good>FALSE</good>
							</logginginfo>
							<labels>
								<label2/>
							</labels>
							<comments>
								<mastercomment1/>
								<mastercomment2/>
								<mastercomment3/>
								<mastercomment4/>
							</comments>
							<file id="A011_C028_0204EJ"/>
							<sourcetrack>
								<mediatype>video</mediatype>
							</sourcetrack>
							<link>
								<linkclipref>408-13-03-05A31</linkclipref>
								<mediatype>video</mediatype>
								<trackindex>1</trackindex>
								<clipindex>1</clipindex>
							</link>
							<link>
								<linkclipref>408-13-03-05A32</linkclipref>
								<mediatype>audio</mediatype>
								<trackindex>1</trackindex>
								<clipindex>1</clipindex>
							</link>
							<link>
								<linkclipref>408-13-03-05A33</linkclipref>
								<mediatype>audio</mediatype>
								<trackindex>2</trackindex>
								<clipindex>1</clipindex>
							</link>
							<link>
								<linkclipref>408-13-03-05A34</linkclipref>
								<mediatype>audio</mediatype>
								<trackindex>3</trackindex>
								<clipindex>1</clipindex>
							</link>
							<link>
								<linkclipref>408-13-03-05A35</linkclipref>
								<mediatype>audio</mediatype>
								<trackindex>4</trackindex>
								<clipindex>1</clipindex>
							</link>
							<link>
								<linkclipref>408-13-03-05A36</linkclipref>
								<mediatype>audio</mediatype>
								<trackindex>5</trackindex>
								<clipindex>1</clipindex>
							</link>
							<link>
								<linkclipref>408-13-03-05A37</linkclipref>
								<mediatype>audio</mediatype>
								<trackindex>6</trackindex>
								<clipindex>1</clipindex>
							</link>
							<fielddominance>none</fielddominance>
							<multiclip id="32">
								<collapsed>FALSE</collapsed>
								<synctype>1</synctype>
								<angle>
									<activevideoangle>TRUE</activevideoangle>
									<activeaudioangle>TRUE</activeaudioangle>
									<clip id="408-13-03-05A8"/>
								</angle>
								<angle>
									<clip id="408-13-03-05B"/>
								</angle>
								<masterclipid>408-13-03-05A16</masterclipid>
							</multiclip>
							<mediadelay>152</mediadelay>
							<itemhistory>
								<uuid>6D99EE4A-0F76-44A9-8147-683FCFD0B080</uuid>
							</itemhistory>
						</clipitem>
						<enabled>TRUE</enabled>
						<locked>FALSE</locked>
					</track>
				</video>
				<audio>
					<format>
						<samplecharacteristics>
							<depth>16</depth>
							<samplerate>48000</samplerate>
						</samplecharacteristics>
					</format>
					<outputs>
						<group>
							<index>1</index>
							<numchannels>2</numchannels>
							<downmix>0</downmix>
							<channel>
								<index>1</index>
							</channel>
							<channel>
								<index>2</index>
							</channel>
						</group>
					</outputs>
					<in>497</in>
					<out>973</out>
					<track>
						<clipitem id="408-13-03-05A32">
							<name>408-13-03-05A</name>
							<duration>2100</duration>
							<rate>
								<ntsc>FALSE</ntsc>
								<timebase>25</timebase>
							</rate>
							<in>0</in>
							<out>2100</out>
							<start>0</start>
							<end>2100</end>
							<subframeoffset>0</subframeoffset>
							<enabled>TRUE</enabled>
							<masterclipid>408-13-03-05A1</masterclipid>
							<syncoffset>0</syncoffset>
							<logginginfo>
								<scene/>
								<shottake/>
								<lognote/>
								<good>FALSE</good>
							</logginginfo>
							<labels>
								<label2/>
							</labels>
							<comments>
								<mastercomment1/>
								<mastercomment2/>
								<mastercomment3/>
								<mastercomment4/>
							</comments>
							<file id="MW-013-3T05 "/>
							<filter>
								<effect>
									<name>Audio Levels</name>
									<effectid>audiolevels</effectid>
									<effectcategory>audiolevels</effectcategory>
									<effecttype>audiolevels</effecttype>
									<mediatype>audio</mediatype>
									<parameter>
										<name>Level</name>
										<parameterid>level</parameterid>
										<valuemin>0</valuemin>
										<valuemax>3.98109</valuemax>
										<value>1</value>
									</parameter>
								</effect>
							</filter>
							<filter>
								<effect>
									<name>Audio Pan</name>
									<effectid>audiopan</effectid>
									<effectcategory>audiopan</effectcategory>
									<effecttype>audiopan</effecttype>
									<mediatype>audio</mediatype>
									<parameter>
										<name>Pan</name>
										<parameterid>pan</parameterid>
										<valuemin>-1</valuemin>
										<valuemax>1</valuemax>
										<value>0</value>
									</parameter>
								</effect>
							</filter>
							<sourcetrack>
								<mediatype>audio</mediatype>
								<trackindex>1</trackindex>
							</sourcetrack>
							<link>
								<linkclipref>408-13-03-05A31</linkclipref>
								<mediatype>video</mediatype>
								<trackindex>1</trackindex>
								<clipindex>1</clipindex>
							</link>
							<link>
								<linkclipref>408-13-03-05A32</linkclipref>
								<mediatype>audio</mediatype>
								<trackindex>1</trackindex>
								<clipindex>1</clipindex>
							</link>
							<link>
								<linkclipref>408-13-03-05A33</linkclipref>
								<mediatype>audio</mediatype>
								<trackindex>2</trackindex>
								<clipindex>1</clipindex>
							</link>
							<link>
								<linkclipref>408-13-03-05A34</linkclipref>
								<mediatype>audio</mediatype>
								<trackindex>3</trackindex>
								<clipindex>1</clipindex>
							</link>
							<link>
								<linkclipref>408-13-03-05A35</linkclipref>
								<mediatype>audio</mediatype>
								<trackindex>4</trackindex>
								<clipindex>1</clipindex>
							</link>
							<link>
								<linkclipref>408-13-03-05A36</linkclipref>
								<mediatype>audio</mediatype>
								<trackindex>5</trackindex>
								<clipindex>1</clipindex>
							</link>
							<link>
								<linkclipref>408-13-03-05A37</linkclipref>
								<mediatype>audio</mediatype>
								<trackindex>6</trackindex>
								<clipindex>1</clipindex>
							</link>
							<multiclip id="32"/>
							<itemhistory>
								<uuid>7BBC567D-EDAA-420C-89FC-02A8292708AD</uuid>
							</itemhistory>
						</clipitem>
						<enabled>TRUE</enabled>
						<locked>FALSE</locked>
						<outputchannelindex>1</outputchannelindex>
					</track>
					<track>
						<clipitem id="408-13-03-05A33">
							<name>408-13-03-05A</name>
							<duration>2100</duration>
							<rate>
								<ntsc>FALSE</ntsc>
								<timebase>25</timebase>
							</rate>
							<in>0</in>
							<out>2100</out>
							<start>0</start>
							<end>2100</end>
							<subframeoffset>0</subframeoffset>
							<enabled>TRUE</enabled>
							<masterclipid>408-13-03-05A1</masterclipid>
							<syncoffset>0</syncoffset>
							<logginginfo>
								<scene/>
								<shottake/>
								<lognote/>
								<good>FALSE</good>
							</logginginfo>
							<labels>
								<label2/>
							</labels>
							<comments>
								<mastercomment1/>
								<mastercomment2/>
								<mastercomment3/>
								<mastercomment4/>
							</comments>
							<file id="MW-013-3T05 "/>
							<filter>
								<effect>
									<name>Audio Levels</name>
									<effectid>audiolevels</effectid>
									<effectcategory>audiolevels</effectcategory>
									<effecttype>audiolevels</effecttype>
									<mediatype>audio</mediatype>
									<parameter>
										<name>Level</name>
										<parameterid>level</parameterid>
										<valuemin>0</valuemin>
										<valuemax>3.98109</valuemax>
										<value>1</value>
									</parameter>
								</effect>
							</filter>
							<filter>
								<effect>
									<name>Audio Pan</name>
									<effectid>audiopan</effectid>
									<effectcategory>audiopan</effectcategory>
									<effecttype>audiopan</effecttype>
									<mediatype>audio</mediatype>
									<parameter>
										<name>Pan</name>
										<parameterid>pan</parameterid>
										<valuemin>-1</valuemin>
										<valuemax>1</valuemax>
										<value>0</value>
									</parameter>
								</effect>
							</filter>
							<sourcetrack>
								<mediatype>audio</mediatype>
								<trackindex>2</trackindex>
							</sourcetrack>
							<link>
								<linkclipref>408-13-03-05A31</linkclipref>
								<mediatype>video</mediatype>
								<trackindex>1</trackindex>
								<clipindex>1</clipindex>
							</link>
							<link>
								<linkclipref>408-13-03-05A32</linkclipref>
								<mediatype>audio</mediatype>
								<trackindex>1</trackindex>
								<clipindex>1</clipindex>
							</link>
							<link>
								<linkclipref>408-13-03-05A33</linkclipref>
								<mediatype>audio</mediatype>
								<trackindex>2</trackindex>
								<clipindex>1</clipindex>
							</link>
							<link>
								<linkclipref>408-13-03-05A34</linkclipref>
								<mediatype>audio</mediatype>
								<trackindex>3</trackindex>
								<clipindex>1</clipindex>
							</link>
							<link>
								<linkclipref>408-13-03-05A35</linkclipref>
								<mediatype>audio</mediatype>
								<trackindex>4</trackindex>
								<clipindex>1</clipindex>
							</link>
							<link>
								<linkclipref>408-13-03-05A36</linkclipref>
								<mediatype>audio</mediatype>
								<trackindex>5</trackindex>
								<clipindex>1</clipindex>
							</link>
							<link>
								<linkclipref>408-13-03-05A37</linkclipref>
								<mediatype>audio</mediatype>
								<trackindex>6</trackindex>
								<clipindex>1</clipindex>
							</link>
							<multiclip id="32"/>
							<itemhistory>
								<uuid>783A2897-35EC-40D2-9BF5-A26F589E9829</uuid>
							</itemhistory>
						</clipitem>
						<enabled>TRUE</enabled>
						<locked>FALSE</locked>
						<outputchannelindex>2</outputchannelindex>
					</track>
					<track>
						<clipitem id="408-13-03-05A34">
							<name>408-13-03-05A</name>
							<duration>2100</duration>
							<rate>
								<ntsc>FALSE</ntsc>
								<timebase>25</timebase>
							</rate>
							<in>0</in>
							<out>2100</out>
							<start>0</start>
							<end>2100</end>
							<subframeoffset>0</subframeoffset>
							<enabled>TRUE</enabled>
							<masterclipid>408-13-03-05A1</masterclipid>
							<syncoffset>0</syncoffset>
							<logginginfo>
								<scene/>
								<shottake/>
								<lognote/>
								<good>FALSE</good>
							</logginginfo>
							<labels>
								<label2/>
							</labels>
							<comments>
								<mastercomment1/>
								<mastercomment2/>
								<mastercomment3/>
								<mastercomment4/>
							</comments>
							<file id="MW-013-3T05 "/>
							<filter>
								<effect>
									<name>Audio Levels</name>
									<effectid>audiolevels</effectid>
									<effectcategory>audiolevels</effectcategory>
									<effecttype>audiolevels</effecttype>
									<mediatype>audio</mediatype>
									<parameter>
										<name>Level</name>
										<parameterid>level</parameterid>
										<valuemin>0</valuemin>
										<valuemax>3.98109</valuemax>
										<value>1</value>
									</parameter>
								</effect>
							</filter>
							<filter>
								<effect>
									<name>Audio Pan</name>
									<effectid>audiopan</effectid>
									<effectcategory>audiopan</effectcategory>
									<effecttype>audiopan</effecttype>
									<mediatype>audio</mediatype>
									<parameter>
										<name>Pan</name>
										<parameterid>pan</parameterid>
										<valuemin>-1</valuemin>
										<valuemax>1</valuemax>
										<value>0</value>
									</parameter>
								</effect>
							</filter>
							<sourcetrack>
								<mediatype>audio</mediatype>
								<trackindex>3</trackindex>
							</sourcetrack>
							<link>
								<linkclipref>408-13-03-05A31</linkclipref>
								<mediatype>video</mediatype>
								<trackindex>1</trackindex>
								<clipindex>1</clipindex>
							</link>
							<link>
								<linkclipref>408-13-03-05A32</linkclipref>
								<mediatype>audio</mediatype>
								<trackindex>1</trackindex>
								<clipindex>1</clipindex>
							</link>
							<link>
								<linkclipref>408-13-03-05A33</linkclipref>
								<mediatype>audio</mediatype>
								<trackindex>2</trackindex>
								<clipindex>1</clipindex>
							</link>
							<link>
								<linkclipref>408-13-03-05A34</linkclipref>
								<mediatype>audio</mediatype>
								<trackindex>3</trackindex>
								<clipindex>1</clipindex>
							</link>
							<link>
								<linkclipref>408-13-03-05A35</linkclipref>
								<mediatype>audio</mediatype>
								<trackindex>4</trackindex>
								<clipindex>1</clipindex>
							</link>
							<link>
								<linkclipref>408-13-03-05A36</linkclipref>
								<mediatype>audio</mediatype>
								<trackindex>5</trackindex>
								<clipindex>1</clipindex>
							</link>
							<link>
								<linkclipref>408-13-03-05A37</linkclipref>
								<mediatype>audio</mediatype>
								<trackindex>6</trackindex>
								<clipindex>1</clipindex>
							</link>
							<multiclip id="32"/>
							<itemhistory>
								<uuid>C59C4793-7E0A-4592-925B-1E2C22745BB5</uuid>
							</itemhistory>
						</clipitem>
						<enabled>TRUE</enabled>
						<locked>FALSE</locked>
						<outputchannelindex>1</outputchannelindex>
					</track>
					<track>
						<clipitem id="408-13-03-05A35">
							<name>408-13-03-05A</name>
							<duration>2100</duration>
							<rate>
								<ntsc>FALSE</ntsc>
								<timebase>25</timebase>
							</rate>
							<in>0</in>
							<out>2100</out>
							<start>0</start>
							<end>2100</end>
							<subframeoffset>0</subframeoffset>
							<enabled>TRUE</enabled>
							<masterclipid>408-13-03-05A1</masterclipid>
							<syncoffset>0</syncoffset>
							<logginginfo>
								<scene/>
								<shottake/>
								<lognote/>
								<good>FALSE</good>
							</logginginfo>
							<labels>
								<label2/>
							</labels>
							<comments>
								<mastercomment1/>
								<mastercomment2/>
								<mastercomment3/>
								<mastercomment4/>
							</comments>
							<file id="MW-013-3T05 "/>
							<filter>
								<effect>
									<name>Audio Levels</name>
									<effectid>audiolevels</effectid>
									<effectcategory>audiolevels</effectcategory>
									<effecttype>audiolevels</effecttype>
									<mediatype>audio</mediatype>
									<parameter>
										<name>Level</name>
										<parameterid>level</parameterid>
										<valuemin>0</valuemin>
										<valuemax>3.98109</valuemax>
										<value>1</value>
									</parameter>
								</effect>
							</filter>
							<filter>
								<effect>
									<name>Audio Pan</name>
									<effectid>audiopan</effectid>
									<effectcategory>audiopan</effectcategory>
									<effecttype>audiopan</effecttype>
									<mediatype>audio</mediatype>
									<parameter>
										<name>Pan</name>
										<parameterid>pan</parameterid>
										<valuemin>-1</valuemin>
										<valuemax>1</valuemax>
										<value>0</value>
									</parameter>
								</effect>
							</filter>
							<sourcetrack>
								<mediatype>audio</mediatype>
								<trackindex>4</trackindex>
							</sourcetrack>
							<link>
								<linkclipref>408-13-03-05A31</linkclipref>
								<mediatype>video</mediatype>
								<trackindex>1</trackindex>
								<clipindex>1</clipindex>
							</link>
							<link>
								<linkclipref>408-13-03-05A32</linkclipref>
								<mediatype>audio</mediatype>
								<trackindex>1</trackindex>
								<clipindex>1</clipindex>
							</link>
							<link>
								<linkclipref>408-13-03-05A33</linkclipref>
								<mediatype>audio</mediatype>
								<trackindex>2</trackindex>
								<clipindex>1</clipindex>
							</link>
							<link>
								<linkclipref>408-13-03-05A34</linkclipref>
								<mediatype>audio</mediatype>
								<trackindex>3</trackindex>
								<clipindex>1</clipindex>
							</link>
							<link>
								<linkclipref>408-13-03-05A35</linkclipref>
								<mediatype>audio</mediatype>
								<trackindex>4</trackindex>
								<clipindex>1</clipindex>
							</link>
							<link>
								<linkclipref>408-13-03-05A36</linkclipref>
								<mediatype>audio</mediatype>
								<trackindex>5</trackindex>
								<clipindex>1</clipindex>
							</link>
							<link>
								<linkclipref>408-13-03-05A37</linkclipref>
								<mediatype>audio</mediatype>
								<trackindex>6</trackindex>
								<clipindex>1</clipindex>
							</link>
							<multiclip id="32"/>
							<itemhistory>
								<uuid>AFDE3F6F-0891-40E5-BEA1-EECFA067A963</uuid>
							</itemhistory>
						</clipitem>
						<enabled>TRUE</enabled>
						<locked>FALSE</locked>
						<outputchannelindex>2</outputchannelindex>
					</track>
					<track>
						<clipitem id="408-13-03-05A36">
							<name>408-13-03-05A</name>
							<duration>2100</duration>
							<rate>
								<ntsc>FALSE</ntsc>
								<timebase>25</timebase>
							</rate>
							<in>0</in>
							<out>2100</out>
							<start>0</start>
							<end>2100</end>
							<subframeoffset>0</subframeoffset>
							<enabled>TRUE</enabled>
							<masterclipid>408-13-03-05A1</masterclipid>
							<syncoffset>0</syncoffset>
							<logginginfo>
								<scene/>
								<shottake/>
								<lognote/>
								<good>FALSE</good>
							</logginginfo>
							<labels>
								<label2/>
							</labels>
							<comments>
								<mastercomment1/>
								<mastercomment2/>
								<mastercomment3/>
								<mastercomment4/>
							</comments>
							<file id="MW-013-3T05 "/>
							<filter>
								<effect>
									<name>Audio Levels</name>
									<effectid>audiolevels</effectid>
									<effectcategory>audiolevels</effectcategory>
									<effecttype>audiolevels</effecttype>
									<mediatype>audio</mediatype>
									<parameter>
										<name>Level</name>
										<parameterid>level</parameterid>
										<valuemin>0</valuemin>
										<valuemax>3.98109</valuemax>
										<value>1</value>
									</parameter>
								</effect>
							</filter>
							<filter>
								<effect>
									<name>Audio Pan</name>
									<effectid>audiopan</effectid>
									<effectcategory>audiopan</effectcategory>
									<effecttype>audiopan</effecttype>
									<mediatype>audio</mediatype>
									<parameter>
										<name>Pan</name>
										<parameterid>pan</parameterid>
										<valuemin>-1</valuemin>
										<valuemax>1</valuemax>
										<value>0</value>
									</parameter>
								</effect>
							</filter>
							<sourcetrack>
								<mediatype>audio</mediatype>
								<trackindex>5</trackindex>
							</sourcetrack>
							<link>
								<linkclipref>408-13-03-05A31</linkclipref>
								<mediatype>video</mediatype>
								<trackindex>1</trackindex>
								<clipindex>1</clipindex>
							</link>
							<link>
								<linkclipref>408-13-03-05A32</linkclipref>
								<mediatype>audio</mediatype>
								<trackindex>1</trackindex>
								<clipindex>1</clipindex>
							</link>
							<link>
								<linkclipref>408-13-03-05A33</linkclipref>
								<mediatype>audio</mediatype>
								<trackindex>2</trackindex>
								<clipindex>1</clipindex>
							</link>
							<link>
								<linkclipref>408-13-03-05A34</linkclipref>
								<mediatype>audio</mediatype>
								<trackindex>3</trackindex>
								<clipindex>1</clipindex>
							</link>
							<link>
								<linkclipref>408-13-03-05A35</linkclipref>
								<mediatype>audio</mediatype>
								<trackindex>4</trackindex>
								<clipindex>1</clipindex>
							</link>
							<link>
								<linkclipref>408-13-03-05A36</linkclipref>
								<mediatype>audio</mediatype>
								<trackindex>5</trackindex>
								<clipindex>1</clipindex>
							</link>
							<link>
								<linkclipref>408-13-03-05A37</linkclipref>
								<mediatype>audio</mediatype>
								<trackindex>6</trackindex>
								<clipindex>1</clipindex>
							</link>
							<multiclip id="32"/>
							<itemhistory>
								<uuid>6AA1C946-DFD4-436F-88A1-E69A7380E150</uuid>
							</itemhistory>
						</clipitem>
						<enabled>TRUE</enabled>
						<locked>FALSE</locked>
						<outputchannelindex>1</outputchannelindex>
					</track>
					<track>
						<clipitem id="408-13-03-05A37">
							<name>408-13-03-05A</name>
							<duration>2100</duration>
							<rate>
								<ntsc>FALSE</ntsc>
								<timebase>25</timebase>
							</rate>
							<in>0</in>
							<out>2100</out>
							<start>0</start>
							<end>2100</end>
							<subframeoffset>0</subframeoffset>
							<enabled>TRUE</enabled>
							<masterclipid>408-13-03-05A1</masterclipid>
							<syncoffset>0</syncoffset>
							<logginginfo>
								<scene/>
								<shottake/>
								<lognote/>
								<good>FALSE</good>
							</logginginfo>
							<labels>
								<label2/>
							</labels>
							<comments>
								<mastercomment1/>
								<mastercomment2/>
								<mastercomment3/>
								<mastercomment4/>
							</comments>
							<file id="MW-013-3T05 "/>
							<filter>
								<effect>
									<name>Audio Levels</name>
									<effectid>audiolevels</effectid>
									<effectcategory>audiolevels</effectcategory>
									<effecttype>audiolevels</effecttype>
									<mediatype>audio</mediatype>
									<parameter>
										<name>Level</name>
										<parameterid>level</parameterid>
										<valuemin>0</valuemin>
										<valuemax>3.98109</valuemax>
										<value>1</value>
									</parameter>
								</effect>
							</filter>
							<filter>
								<effect>
									<name>Audio Pan</name>
									<effectid>audiopan</effectid>
									<effectcategory>audiopan</effectcategory>
									<effecttype>audiopan</effecttype>
									<mediatype>audio</mediatype>
									<parameter>
										<name>Pan</name>
										<parameterid>pan</parameterid>
										<valuemin>-1</valuemin>
										<valuemax>1</valuemax>
										<value>0</value>
									</parameter>
								</effect>
							</filter>
							<sourcetrack>
								<mediatype>audio</mediatype>
								<trackindex>6</trackindex>
							</sourcetrack>
							<link>
								<linkclipref>408-13-03-05A31</linkclipref>
								<mediatype>video</mediatype>
								<trackindex>1</trackindex>
								<clipindex>1</clipindex>
							</link>
							<link>
								<linkclipref>408-13-03-05A32</linkclipref>
								<mediatype>audio</mediatype>
								<trackindex>1</trackindex>
								<clipindex>1</clipindex>
							</link>
							<link>
								<linkclipref>408-13-03-05A33</linkclipref>
								<mediatype>audio</mediatype>
								<trackindex>2</trackindex>
								<clipindex>1</clipindex>
							</link>
							<link>
								<linkclipref>408-13-03-05A34</linkclipref>
								<mediatype>audio</mediatype>
								<trackindex>3</trackindex>
								<clipindex>1</clipindex>
							</link>
							<link>
								<linkclipref>408-13-03-05A35</linkclipref>
								<mediatype>audio</mediatype>
								<trackindex>4</trackindex>
								<clipindex>1</clipindex>
							</link>
							<link>
								<linkclipref>408-13-03-05A36</linkclipref>
								<mediatype>audio</mediatype>
								<trackindex>5</trackindex>
								<clipindex>1</clipindex>
							</link>
							<link>
								<linkclipref>408-13-03-05A37</linkclipref>
								<mediatype>audio</mediatype>
								<trackindex>6</trackindex>
								<clipindex>1</clipindex>
							</link>
							<multiclip id="32"/>
							<itemhistory>
								<uuid>21E716DE-63C8-45F8-9E84-1A2C1B1E205A</uuid>
							</itemhistory>
						</clipitem>
						<enabled>TRUE</enabled>
						<locked>FALSE</locked>
						<outputchannelindex>2</outputchannelindex>
					</track>
					<filter>
						<effect>
							<name>Audio Levels</name>
							<effectid>audiolevels</effectid>
							<effectcategory>audiolevels</effectcategory>
							<effecttype>audiolevels</effecttype>
							<mediatype>audio</mediatype>
							<parameter>
								<name>Level</name>
								<parameterid>level</parameterid>
								<valuemin>0</valuemin>
								<valuemax>3.98109</valuemax>
								<value>1</value>
							</parameter>
						</effect>
					</filter>
				</audio>
			</media>
		</clip>
	</children>
</bin>
</xmeml>


